M48
; DRILL file {KiCad 9.0.1} date 2025-04-26T19:52:48-0500
; FORMAT={-:-/ absolute / inch / decimal}
; #@! TF.CreationDate,2025-04-26T19:52:48-05:00
; #@! TF.GenerationSoftware,Kicad,Pcbnew,9.0.1
; #@! TF.FileFunction,Plated,1,4,PTH
FMAT,2
INCH
; #@! TA.AperFunction,Plated,PTH,ViaDrill
T1C0.0079
; #@! TA.AperFunction,Plated,PTH,ComponentDrill
T2C0.0079
; #@! TA.AperFunction,Plated,PTH,ComponentDrill
T3C0.0315
; #@! TA.AperFunction,Plated,PTH,ComponentDrill
T4C0.0394
; #@! TA.AperFunction,Plated,PTH,ComponentDrill
T5C0.0433
%
G90
G05
T1
X5.0894Y-5.6547
X5.1535Y-5.8268
X5.1811Y-5.8583
X5.2165Y-5.8701
X5.2421Y-5.9665
X5.252Y-5.8681
X5.3933Y-5.8343
X5.4941Y-5.5197
X5.526Y-5.4441
X5.6539Y-6.1063
X5.7953Y-3.9823
X5.9409Y-4.1909
X6.0138Y-4.252
X6.1803Y-4.0138
X6.1949Y-3.7697
X6.1969Y-3.7461
X6.2402Y-3.8661
X6.2598Y-3.8858
X6.4764Y-4.0827
X6.4766Y-4.1055
X6.565Y-4.0512
X6.8091Y-4.498
X7.2067Y-5.6398
X7.2717Y-6.0059
X7.3189Y-5.7815
X7.4724Y-3.7598
X7.5079Y-6.1201
X7.5492Y-3.8602
X7.5591Y-3.7795
X7.5748Y-4.9961
X7.5846Y-4.126
X7.5984Y-4.0157
X7.6024Y-3.7618
X7.6043Y-3.2461
X7.6043Y-3.4803
X7.6437Y-5.1791
X7.6913Y-3.6835
X7.6949Y-5.3819
X7.7022Y-4.3406
X7.7068Y-3.9217
X7.7185Y-4.074
X7.7205Y-3.7795
X7.7224Y-3.878
X7.7256Y-3.7008
X7.7303Y-3.6102
X7.7323Y-3.3858
X7.7362Y-3.8327
X7.7362Y-4.0413
X7.752Y-3.9685
X7.7776Y-5.126
X7.7795Y-5.6732
X7.7992Y-5.0945
X7.813Y-3.4494
X7.8209Y-3.5748
X7.8248Y-3.9232
X7.8504Y-3.9921
X7.8622Y-3.4862
X7.8622Y-3.7598
X7.8723Y-3.4314
X7.8957Y-3.8465
X7.8957Y-5.1772
X7.9705Y-4.998
X8.0709Y-5.0945
X8.3012Y-4.9626
X8.3976Y-5.1476
X8.4173Y-5.2461
X8.4606Y-5.1949
X8.4705Y-5.5748
X8.4823Y-5.2598
X8.4921Y-5.9055
X8.5689Y-4.748
X8.7185Y-5.6732
X8.7323Y-6.2244
X8.7372Y-5.5266
X8.7598Y-4.8917
X8.7815Y-5.9665
X8.8287Y-6.2264
X8.8524Y-5.7047
X8.8858Y-5.2657
X8.9567Y-4.9488
X8.9961Y-4.9488
X9.0591Y-5.1339
X9.2539Y-5.4646
X9.313Y-6.1654
T2
X5.2638Y-5.7717
X5.2815Y-5.7539
X5.2815Y-5.7894
X5.2992Y-5.7717
T3
X8.0512Y-5.4772
X8.0512Y-5.5772
X8.0512Y-5.6772
T4
X4.5915Y-6.1254
X4.5915Y-6.2254
X4.6915Y-6.1254
X4.6915Y-6.2254
X4.7915Y-6.1254
X4.7915Y-6.2254
X6.613Y-6.1063
X6.6142Y-5.7756
X6.6917Y-6.1063
X6.6929Y-5.7756
X6.7705Y-6.1063
X6.7717Y-5.7756
X6.8492Y-6.1063
X6.8504Y-5.7756
T5
X5.5583Y-2.8998
X5.6567Y-2.8998
M30
