G04 #@! TF.GenerationSoftware,KiCad,Pcbnew,9.0.1*
G04 #@! TF.CreationDate,2025-04-26T19:09:57-05:00*
G04 #@! TF.ProjectId,CM5IO,434d3549-4f2e-46b6-9963-61645f706362,rev?*
G04 #@! TF.SameCoordinates,Original*
G04 #@! TF.FileFunction,Copper,L4,Bot*
G04 #@! TF.FilePolarity,Positive*
%FSLAX46Y46*%
G04 Gerber Fmt 4.6, Leading zero omitted, Abs format (unit mm)*
G04 Created by KiCad (PCBNEW 9.0.1) date 2025-04-26 19:09:57*
%MOMM*%
%LPD*%
G01*
G04 APERTURE LIST*
%ADD10C,0.100000*%
%ADD11C,0.150000*%
%ADD12C,0.300000*%
%ADD13C,0.400000*%
G04 #@! TA.AperFunction,ComponentPad*
%ADD14C,2.100000*%
G04 #@! TD*
G04 #@! TA.AperFunction,ComponentPad*
%ADD15C,0.300000*%
G04 #@! TD*
G04 #@! TA.AperFunction,ComponentPad*
%ADD16R,1.700000X1.700000*%
G04 #@! TD*
G04 #@! TA.AperFunction,ComponentPad*
%ADD17O,1.700000X1.700000*%
G04 #@! TD*
G04 #@! TA.AperFunction,ComponentPad*
%ADD18R,1.500000X1.500000*%
G04 #@! TD*
G04 #@! TA.AperFunction,ComponentPad*
%ADD19C,1.500000*%
G04 #@! TD*
G04 #@! TA.AperFunction,ComponentPad*
%ADD20C,1.270000*%
G04 #@! TD*
G04 #@! TA.AperFunction,ViaPad*
%ADD21C,0.450000*%
G04 #@! TD*
G04 #@! TA.AperFunction,Conductor*
%ADD22C,0.130000*%
G04 #@! TD*
G04 #@! TA.AperFunction,Conductor*
%ADD23C,0.147000*%
G04 #@! TD*
G04 APERTURE END LIST*
D10*
D11*
X177002200Y-166007200D02*
X285002200Y-166007200D01*
X285002200Y-198007200D01*
X177002200Y-198007200D01*
X177002200Y-166007200D01*
D10*
D11*
X10000000Y-10000000D02*
X287002200Y-10000000D01*
X287002200Y-200007200D01*
X10000000Y-200007200D01*
X10000000Y-10000000D01*
D10*
D11*
X12000000Y-12000000D02*
X285002200Y-12000000D01*
X285002200Y-198007200D01*
X12000000Y-198007200D01*
X12000000Y-12000000D01*
D10*
D11*
X60000000Y-12000000D02*
X60000000Y-10000000D01*
D10*
D11*
X110000000Y-12000000D02*
X110000000Y-10000000D01*
D10*
D11*
X160000000Y-12000000D02*
X160000000Y-10000000D01*
D10*
D11*
X210000000Y-12000000D02*
X210000000Y-10000000D01*
D10*
D11*
X260000000Y-12000000D02*
X260000000Y-10000000D01*
D10*
D11*
X36089160Y-11593604D02*
X35346303Y-11593604D01*
X35717731Y-11593604D02*
X35717731Y-10293604D01*
X35717731Y-10293604D02*
X35593922Y-10479319D01*
X35593922Y-10479319D02*
X35470112Y-10603128D01*
X35470112Y-10603128D02*
X35346303Y-10665033D01*
D10*
D11*
X85346303Y-10417414D02*
X85408207Y-10355509D01*
X85408207Y-10355509D02*
X85532017Y-10293604D01*
X85532017Y-10293604D02*
X85841541Y-10293604D01*
X85841541Y-10293604D02*
X85965350Y-10355509D01*
X85965350Y-10355509D02*
X86027255Y-10417414D01*
X86027255Y-10417414D02*
X86089160Y-10541223D01*
X86089160Y-10541223D02*
X86089160Y-10665033D01*
X86089160Y-10665033D02*
X86027255Y-10850747D01*
X86027255Y-10850747D02*
X85284398Y-11593604D01*
X85284398Y-11593604D02*
X86089160Y-11593604D01*
D10*
D11*
X135284398Y-10293604D02*
X136089160Y-10293604D01*
X136089160Y-10293604D02*
X135655826Y-10788842D01*
X135655826Y-10788842D02*
X135841541Y-10788842D01*
X135841541Y-10788842D02*
X135965350Y-10850747D01*
X135965350Y-10850747D02*
X136027255Y-10912652D01*
X136027255Y-10912652D02*
X136089160Y-11036461D01*
X136089160Y-11036461D02*
X136089160Y-11345985D01*
X136089160Y-11345985D02*
X136027255Y-11469795D01*
X136027255Y-11469795D02*
X135965350Y-11531700D01*
X135965350Y-11531700D02*
X135841541Y-11593604D01*
X135841541Y-11593604D02*
X135470112Y-11593604D01*
X135470112Y-11593604D02*
X135346303Y-11531700D01*
X135346303Y-11531700D02*
X135284398Y-11469795D01*
D10*
D11*
X185965350Y-10726938D02*
X185965350Y-11593604D01*
X185655826Y-10231700D02*
X185346303Y-11160271D01*
X185346303Y-11160271D02*
X186151064Y-11160271D01*
D10*
D11*
X236027255Y-10293604D02*
X235408207Y-10293604D01*
X235408207Y-10293604D02*
X235346303Y-10912652D01*
X235346303Y-10912652D02*
X235408207Y-10850747D01*
X235408207Y-10850747D02*
X235532017Y-10788842D01*
X235532017Y-10788842D02*
X235841541Y-10788842D01*
X235841541Y-10788842D02*
X235965350Y-10850747D01*
X235965350Y-10850747D02*
X236027255Y-10912652D01*
X236027255Y-10912652D02*
X236089160Y-11036461D01*
X236089160Y-11036461D02*
X236089160Y-11345985D01*
X236089160Y-11345985D02*
X236027255Y-11469795D01*
X236027255Y-11469795D02*
X235965350Y-11531700D01*
X235965350Y-11531700D02*
X235841541Y-11593604D01*
X235841541Y-11593604D02*
X235532017Y-11593604D01*
X235532017Y-11593604D02*
X235408207Y-11531700D01*
X235408207Y-11531700D02*
X235346303Y-11469795D01*
D10*
D11*
X285965350Y-10293604D02*
X285717731Y-10293604D01*
X285717731Y-10293604D02*
X285593922Y-10355509D01*
X285593922Y-10355509D02*
X285532017Y-10417414D01*
X285532017Y-10417414D02*
X285408207Y-10603128D01*
X285408207Y-10603128D02*
X285346303Y-10850747D01*
X285346303Y-10850747D02*
X285346303Y-11345985D01*
X285346303Y-11345985D02*
X285408207Y-11469795D01*
X285408207Y-11469795D02*
X285470112Y-11531700D01*
X285470112Y-11531700D02*
X285593922Y-11593604D01*
X285593922Y-11593604D02*
X285841541Y-11593604D01*
X285841541Y-11593604D02*
X285965350Y-11531700D01*
X285965350Y-11531700D02*
X286027255Y-11469795D01*
X286027255Y-11469795D02*
X286089160Y-11345985D01*
X286089160Y-11345985D02*
X286089160Y-11036461D01*
X286089160Y-11036461D02*
X286027255Y-10912652D01*
X286027255Y-10912652D02*
X285965350Y-10850747D01*
X285965350Y-10850747D02*
X285841541Y-10788842D01*
X285841541Y-10788842D02*
X285593922Y-10788842D01*
X285593922Y-10788842D02*
X285470112Y-10850747D01*
X285470112Y-10850747D02*
X285408207Y-10912652D01*
X285408207Y-10912652D02*
X285346303Y-11036461D01*
D10*
D11*
X60000000Y-198007200D02*
X60000000Y-200007200D01*
D10*
D11*
X110000000Y-198007200D02*
X110000000Y-200007200D01*
D10*
D11*
X160000000Y-198007200D02*
X160000000Y-200007200D01*
D10*
D11*
X210000000Y-198007200D02*
X210000000Y-200007200D01*
D10*
D11*
X260000000Y-198007200D02*
X260000000Y-200007200D01*
D10*
D11*
X36089160Y-199600804D02*
X35346303Y-199600804D01*
X35717731Y-199600804D02*
X35717731Y-198300804D01*
X35717731Y-198300804D02*
X35593922Y-198486519D01*
X35593922Y-198486519D02*
X35470112Y-198610328D01*
X35470112Y-198610328D02*
X35346303Y-198672233D01*
D10*
D11*
X85346303Y-198424614D02*
X85408207Y-198362709D01*
X85408207Y-198362709D02*
X85532017Y-198300804D01*
X85532017Y-198300804D02*
X85841541Y-198300804D01*
X85841541Y-198300804D02*
X85965350Y-198362709D01*
X85965350Y-198362709D02*
X86027255Y-198424614D01*
X86027255Y-198424614D02*
X86089160Y-198548423D01*
X86089160Y-198548423D02*
X86089160Y-198672233D01*
X86089160Y-198672233D02*
X86027255Y-198857947D01*
X86027255Y-198857947D02*
X85284398Y-199600804D01*
X85284398Y-199600804D02*
X86089160Y-199600804D01*
D10*
D11*
X135284398Y-198300804D02*
X136089160Y-198300804D01*
X136089160Y-198300804D02*
X135655826Y-198796042D01*
X135655826Y-198796042D02*
X135841541Y-198796042D01*
X135841541Y-198796042D02*
X135965350Y-198857947D01*
X135965350Y-198857947D02*
X136027255Y-198919852D01*
X136027255Y-198919852D02*
X136089160Y-199043661D01*
X136089160Y-199043661D02*
X136089160Y-199353185D01*
X136089160Y-199353185D02*
X136027255Y-199476995D01*
X136027255Y-199476995D02*
X135965350Y-199538900D01*
X135965350Y-199538900D02*
X135841541Y-199600804D01*
X135841541Y-199600804D02*
X135470112Y-199600804D01*
X135470112Y-199600804D02*
X135346303Y-199538900D01*
X135346303Y-199538900D02*
X135284398Y-199476995D01*
D10*
D11*
X185965350Y-198734138D02*
X185965350Y-199600804D01*
X185655826Y-198238900D02*
X185346303Y-199167471D01*
X185346303Y-199167471D02*
X186151064Y-199167471D01*
D10*
D11*
X236027255Y-198300804D02*
X235408207Y-198300804D01*
X235408207Y-198300804D02*
X235346303Y-198919852D01*
X235346303Y-198919852D02*
X235408207Y-198857947D01*
X235408207Y-198857947D02*
X235532017Y-198796042D01*
X235532017Y-198796042D02*
X235841541Y-198796042D01*
X235841541Y-198796042D02*
X235965350Y-198857947D01*
X235965350Y-198857947D02*
X236027255Y-198919852D01*
X236027255Y-198919852D02*
X236089160Y-199043661D01*
X236089160Y-199043661D02*
X236089160Y-199353185D01*
X236089160Y-199353185D02*
X236027255Y-199476995D01*
X236027255Y-199476995D02*
X235965350Y-199538900D01*
X235965350Y-199538900D02*
X235841541Y-199600804D01*
X235841541Y-199600804D02*
X235532017Y-199600804D01*
X235532017Y-199600804D02*
X235408207Y-199538900D01*
X235408207Y-199538900D02*
X235346303Y-199476995D01*
D10*
D11*
X285965350Y-198300804D02*
X285717731Y-198300804D01*
X285717731Y-198300804D02*
X285593922Y-198362709D01*
X285593922Y-198362709D02*
X285532017Y-198424614D01*
X285532017Y-198424614D02*
X285408207Y-198610328D01*
X285408207Y-198610328D02*
X285346303Y-198857947D01*
X285346303Y-198857947D02*
X285346303Y-199353185D01*
X285346303Y-199353185D02*
X285408207Y-199476995D01*
X285408207Y-199476995D02*
X285470112Y-199538900D01*
X285470112Y-199538900D02*
X285593922Y-199600804D01*
X285593922Y-199600804D02*
X285841541Y-199600804D01*
X285841541Y-199600804D02*
X285965350Y-199538900D01*
X285965350Y-199538900D02*
X286027255Y-199476995D01*
X286027255Y-199476995D02*
X286089160Y-199353185D01*
X286089160Y-199353185D02*
X286089160Y-199043661D01*
X286089160Y-199043661D02*
X286027255Y-198919852D01*
X286027255Y-198919852D02*
X285965350Y-198857947D01*
X285965350Y-198857947D02*
X285841541Y-198796042D01*
X285841541Y-198796042D02*
X285593922Y-198796042D01*
X285593922Y-198796042D02*
X285470112Y-198857947D01*
X285470112Y-198857947D02*
X285408207Y-198919852D01*
X285408207Y-198919852D02*
X285346303Y-199043661D01*
D10*
D11*
X10000000Y-60000000D02*
X12000000Y-60000000D01*
D10*
D11*
X10000000Y-110000000D02*
X12000000Y-110000000D01*
D10*
D11*
X10000000Y-160000000D02*
X12000000Y-160000000D01*
D10*
D11*
X10690476Y-35222176D02*
X11309523Y-35222176D01*
X10566666Y-35593604D02*
X10999999Y-34293604D01*
X10999999Y-34293604D02*
X11433333Y-35593604D01*
D10*
D11*
X11092857Y-84912652D02*
X11278571Y-84974557D01*
X11278571Y-84974557D02*
X11340476Y-85036461D01*
X11340476Y-85036461D02*
X11402380Y-85160271D01*
X11402380Y-85160271D02*
X11402380Y-85345985D01*
X11402380Y-85345985D02*
X11340476Y-85469795D01*
X11340476Y-85469795D02*
X11278571Y-85531700D01*
X11278571Y-85531700D02*
X11154761Y-85593604D01*
X11154761Y-85593604D02*
X10659523Y-85593604D01*
X10659523Y-85593604D02*
X10659523Y-84293604D01*
X10659523Y-84293604D02*
X11092857Y-84293604D01*
X11092857Y-84293604D02*
X11216666Y-84355509D01*
X11216666Y-84355509D02*
X11278571Y-84417414D01*
X11278571Y-84417414D02*
X11340476Y-84541223D01*
X11340476Y-84541223D02*
X11340476Y-84665033D01*
X11340476Y-84665033D02*
X11278571Y-84788842D01*
X11278571Y-84788842D02*
X11216666Y-84850747D01*
X11216666Y-84850747D02*
X11092857Y-84912652D01*
X11092857Y-84912652D02*
X10659523Y-84912652D01*
D10*
D11*
X11402380Y-135469795D02*
X11340476Y-135531700D01*
X11340476Y-135531700D02*
X11154761Y-135593604D01*
X11154761Y-135593604D02*
X11030952Y-135593604D01*
X11030952Y-135593604D02*
X10845238Y-135531700D01*
X10845238Y-135531700D02*
X10721428Y-135407890D01*
X10721428Y-135407890D02*
X10659523Y-135284080D01*
X10659523Y-135284080D02*
X10597619Y-135036461D01*
X10597619Y-135036461D02*
X10597619Y-134850747D01*
X10597619Y-134850747D02*
X10659523Y-134603128D01*
X10659523Y-134603128D02*
X10721428Y-134479319D01*
X10721428Y-134479319D02*
X10845238Y-134355509D01*
X10845238Y-134355509D02*
X11030952Y-134293604D01*
X11030952Y-134293604D02*
X11154761Y-134293604D01*
X11154761Y-134293604D02*
X11340476Y-134355509D01*
X11340476Y-134355509D02*
X11402380Y-134417414D01*
D10*
D11*
X10659523Y-185593604D02*
X10659523Y-184293604D01*
X10659523Y-184293604D02*
X10969047Y-184293604D01*
X10969047Y-184293604D02*
X11154761Y-184355509D01*
X11154761Y-184355509D02*
X11278571Y-184479319D01*
X11278571Y-184479319D02*
X11340476Y-184603128D01*
X11340476Y-184603128D02*
X11402380Y-184850747D01*
X11402380Y-184850747D02*
X11402380Y-185036461D01*
X11402380Y-185036461D02*
X11340476Y-185284080D01*
X11340476Y-185284080D02*
X11278571Y-185407890D01*
X11278571Y-185407890D02*
X11154761Y-185531700D01*
X11154761Y-185531700D02*
X10969047Y-185593604D01*
X10969047Y-185593604D02*
X10659523Y-185593604D01*
D10*
D11*
X287002200Y-60000000D02*
X285002200Y-60000000D01*
D10*
D11*
X287002200Y-110000000D02*
X285002200Y-110000000D01*
D10*
D11*
X287002200Y-160000000D02*
X285002200Y-160000000D01*
D10*
D11*
X285692676Y-35222176D02*
X286311723Y-35222176D01*
X285568866Y-35593604D02*
X286002199Y-34293604D01*
X286002199Y-34293604D02*
X286435533Y-35593604D01*
D10*
D11*
X286095057Y-84912652D02*
X286280771Y-84974557D01*
X286280771Y-84974557D02*
X286342676Y-85036461D01*
X286342676Y-85036461D02*
X286404580Y-85160271D01*
X286404580Y-85160271D02*
X286404580Y-85345985D01*
X286404580Y-85345985D02*
X286342676Y-85469795D01*
X286342676Y-85469795D02*
X286280771Y-85531700D01*
X286280771Y-85531700D02*
X286156961Y-85593604D01*
X286156961Y-85593604D02*
X285661723Y-85593604D01*
X285661723Y-85593604D02*
X285661723Y-84293604D01*
X285661723Y-84293604D02*
X286095057Y-84293604D01*
X286095057Y-84293604D02*
X286218866Y-84355509D01*
X286218866Y-84355509D02*
X286280771Y-84417414D01*
X286280771Y-84417414D02*
X286342676Y-84541223D01*
X286342676Y-84541223D02*
X286342676Y-84665033D01*
X286342676Y-84665033D02*
X286280771Y-84788842D01*
X286280771Y-84788842D02*
X286218866Y-84850747D01*
X286218866Y-84850747D02*
X286095057Y-84912652D01*
X286095057Y-84912652D02*
X285661723Y-84912652D01*
D10*
D11*
X286404580Y-135469795D02*
X286342676Y-135531700D01*
X286342676Y-135531700D02*
X286156961Y-135593604D01*
X286156961Y-135593604D02*
X286033152Y-135593604D01*
X286033152Y-135593604D02*
X285847438Y-135531700D01*
X285847438Y-135531700D02*
X285723628Y-135407890D01*
X285723628Y-135407890D02*
X285661723Y-135284080D01*
X285661723Y-135284080D02*
X285599819Y-135036461D01*
X285599819Y-135036461D02*
X285599819Y-134850747D01*
X285599819Y-134850747D02*
X285661723Y-134603128D01*
X285661723Y-134603128D02*
X285723628Y-134479319D01*
X285723628Y-134479319D02*
X285847438Y-134355509D01*
X285847438Y-134355509D02*
X286033152Y-134293604D01*
X286033152Y-134293604D02*
X286156961Y-134293604D01*
X286156961Y-134293604D02*
X286342676Y-134355509D01*
X286342676Y-134355509D02*
X286404580Y-134417414D01*
D10*
D11*
X285661723Y-185593604D02*
X285661723Y-184293604D01*
X285661723Y-184293604D02*
X285971247Y-184293604D01*
X285971247Y-184293604D02*
X286156961Y-184355509D01*
X286156961Y-184355509D02*
X286280771Y-184479319D01*
X286280771Y-184479319D02*
X286342676Y-184603128D01*
X286342676Y-184603128D02*
X286404580Y-184850747D01*
X286404580Y-184850747D02*
X286404580Y-185036461D01*
X286404580Y-185036461D02*
X286342676Y-185284080D01*
X286342676Y-185284080D02*
X286280771Y-185407890D01*
X286280771Y-185407890D02*
X286156961Y-185531700D01*
X286156961Y-185531700D02*
X285971247Y-185593604D01*
X285971247Y-185593604D02*
X285661723Y-185593604D01*
D10*
D11*
X200458026Y-193793328D02*
X200458026Y-192293328D01*
X200458026Y-192293328D02*
X200815169Y-192293328D01*
X200815169Y-192293328D02*
X201029455Y-192364757D01*
X201029455Y-192364757D02*
X201172312Y-192507614D01*
X201172312Y-192507614D02*
X201243741Y-192650471D01*
X201243741Y-192650471D02*
X201315169Y-192936185D01*
X201315169Y-192936185D02*
X201315169Y-193150471D01*
X201315169Y-193150471D02*
X201243741Y-193436185D01*
X201243741Y-193436185D02*
X201172312Y-193579042D01*
X201172312Y-193579042D02*
X201029455Y-193721900D01*
X201029455Y-193721900D02*
X200815169Y-193793328D01*
X200815169Y-193793328D02*
X200458026Y-193793328D01*
X202600884Y-193793328D02*
X202600884Y-193007614D01*
X202600884Y-193007614D02*
X202529455Y-192864757D01*
X202529455Y-192864757D02*
X202386598Y-192793328D01*
X202386598Y-192793328D02*
X202100884Y-192793328D01*
X202100884Y-192793328D02*
X201958026Y-192864757D01*
X202600884Y-193721900D02*
X202458026Y-193793328D01*
X202458026Y-193793328D02*
X202100884Y-193793328D01*
X202100884Y-193793328D02*
X201958026Y-193721900D01*
X201958026Y-193721900D02*
X201886598Y-193579042D01*
X201886598Y-193579042D02*
X201886598Y-193436185D01*
X201886598Y-193436185D02*
X201958026Y-193293328D01*
X201958026Y-193293328D02*
X202100884Y-193221900D01*
X202100884Y-193221900D02*
X202458026Y-193221900D01*
X202458026Y-193221900D02*
X202600884Y-193150471D01*
X203100884Y-192793328D02*
X203672312Y-192793328D01*
X203315169Y-192293328D02*
X203315169Y-193579042D01*
X203315169Y-193579042D02*
X203386598Y-193721900D01*
X203386598Y-193721900D02*
X203529455Y-193793328D01*
X203529455Y-193793328D02*
X203672312Y-193793328D01*
X204743741Y-193721900D02*
X204600884Y-193793328D01*
X204600884Y-193793328D02*
X204315170Y-193793328D01*
X204315170Y-193793328D02*
X204172312Y-193721900D01*
X204172312Y-193721900D02*
X204100884Y-193579042D01*
X204100884Y-193579042D02*
X204100884Y-193007614D01*
X204100884Y-193007614D02*
X204172312Y-192864757D01*
X204172312Y-192864757D02*
X204315170Y-192793328D01*
X204315170Y-192793328D02*
X204600884Y-192793328D01*
X204600884Y-192793328D02*
X204743741Y-192864757D01*
X204743741Y-192864757D02*
X204815170Y-193007614D01*
X204815170Y-193007614D02*
X204815170Y-193150471D01*
X204815170Y-193150471D02*
X204100884Y-193293328D01*
X205458026Y-193650471D02*
X205529455Y-193721900D01*
X205529455Y-193721900D02*
X205458026Y-193793328D01*
X205458026Y-193793328D02*
X205386598Y-193721900D01*
X205386598Y-193721900D02*
X205458026Y-193650471D01*
X205458026Y-193650471D02*
X205458026Y-193793328D01*
X205458026Y-192864757D02*
X205529455Y-192936185D01*
X205529455Y-192936185D02*
X205458026Y-193007614D01*
X205458026Y-193007614D02*
X205386598Y-192936185D01*
X205386598Y-192936185D02*
X205458026Y-192864757D01*
X205458026Y-192864757D02*
X205458026Y-193007614D01*
D10*
D11*
X177002200Y-194507200D02*
X285002200Y-194507200D01*
D10*
D11*
X178458026Y-196593328D02*
X178458026Y-195093328D01*
X179315169Y-196593328D02*
X178672312Y-195736185D01*
X179315169Y-195093328D02*
X178458026Y-195950471D01*
X179958026Y-196593328D02*
X179958026Y-195593328D01*
X179958026Y-195093328D02*
X179886598Y-195164757D01*
X179886598Y-195164757D02*
X179958026Y-195236185D01*
X179958026Y-195236185D02*
X180029455Y-195164757D01*
X180029455Y-195164757D02*
X179958026Y-195093328D01*
X179958026Y-195093328D02*
X179958026Y-195236185D01*
X181529455Y-196450471D02*
X181458027Y-196521900D01*
X181458027Y-196521900D02*
X181243741Y-196593328D01*
X181243741Y-196593328D02*
X181100884Y-196593328D01*
X181100884Y-196593328D02*
X180886598Y-196521900D01*
X180886598Y-196521900D02*
X180743741Y-196379042D01*
X180743741Y-196379042D02*
X180672312Y-196236185D01*
X180672312Y-196236185D02*
X180600884Y-195950471D01*
X180600884Y-195950471D02*
X180600884Y-195736185D01*
X180600884Y-195736185D02*
X180672312Y-195450471D01*
X180672312Y-195450471D02*
X180743741Y-195307614D01*
X180743741Y-195307614D02*
X180886598Y-195164757D01*
X180886598Y-195164757D02*
X181100884Y-195093328D01*
X181100884Y-195093328D02*
X181243741Y-195093328D01*
X181243741Y-195093328D02*
X181458027Y-195164757D01*
X181458027Y-195164757D02*
X181529455Y-195236185D01*
X182815170Y-196593328D02*
X182815170Y-195807614D01*
X182815170Y-195807614D02*
X182743741Y-195664757D01*
X182743741Y-195664757D02*
X182600884Y-195593328D01*
X182600884Y-195593328D02*
X182315170Y-195593328D01*
X182315170Y-195593328D02*
X182172312Y-195664757D01*
X182815170Y-196521900D02*
X182672312Y-196593328D01*
X182672312Y-196593328D02*
X182315170Y-196593328D01*
X182315170Y-196593328D02*
X182172312Y-196521900D01*
X182172312Y-196521900D02*
X182100884Y-196379042D01*
X182100884Y-196379042D02*
X182100884Y-196236185D01*
X182100884Y-196236185D02*
X182172312Y-196093328D01*
X182172312Y-196093328D02*
X182315170Y-196021900D01*
X182315170Y-196021900D02*
X182672312Y-196021900D01*
X182672312Y-196021900D02*
X182815170Y-195950471D01*
X184172313Y-196593328D02*
X184172313Y-195093328D01*
X184172313Y-196521900D02*
X184029455Y-196593328D01*
X184029455Y-196593328D02*
X183743741Y-196593328D01*
X183743741Y-196593328D02*
X183600884Y-196521900D01*
X183600884Y-196521900D02*
X183529455Y-196450471D01*
X183529455Y-196450471D02*
X183458027Y-196307614D01*
X183458027Y-196307614D02*
X183458027Y-195879042D01*
X183458027Y-195879042D02*
X183529455Y-195736185D01*
X183529455Y-195736185D02*
X183600884Y-195664757D01*
X183600884Y-195664757D02*
X183743741Y-195593328D01*
X183743741Y-195593328D02*
X184029455Y-195593328D01*
X184029455Y-195593328D02*
X184172313Y-195664757D01*
X186029455Y-195807614D02*
X186529455Y-195807614D01*
X186743741Y-196593328D02*
X186029455Y-196593328D01*
X186029455Y-196593328D02*
X186029455Y-195093328D01*
X186029455Y-195093328D02*
X186743741Y-195093328D01*
X187386598Y-196450471D02*
X187458027Y-196521900D01*
X187458027Y-196521900D02*
X187386598Y-196593328D01*
X187386598Y-196593328D02*
X187315170Y-196521900D01*
X187315170Y-196521900D02*
X187386598Y-196450471D01*
X187386598Y-196450471D02*
X187386598Y-196593328D01*
X188100884Y-196593328D02*
X188100884Y-195093328D01*
X188100884Y-195093328D02*
X188458027Y-195093328D01*
X188458027Y-195093328D02*
X188672313Y-195164757D01*
X188672313Y-195164757D02*
X188815170Y-195307614D01*
X188815170Y-195307614D02*
X188886599Y-195450471D01*
X188886599Y-195450471D02*
X188958027Y-195736185D01*
X188958027Y-195736185D02*
X188958027Y-195950471D01*
X188958027Y-195950471D02*
X188886599Y-196236185D01*
X188886599Y-196236185D02*
X188815170Y-196379042D01*
X188815170Y-196379042D02*
X188672313Y-196521900D01*
X188672313Y-196521900D02*
X188458027Y-196593328D01*
X188458027Y-196593328D02*
X188100884Y-196593328D01*
X189600884Y-196450471D02*
X189672313Y-196521900D01*
X189672313Y-196521900D02*
X189600884Y-196593328D01*
X189600884Y-196593328D02*
X189529456Y-196521900D01*
X189529456Y-196521900D02*
X189600884Y-196450471D01*
X189600884Y-196450471D02*
X189600884Y-196593328D01*
X190243742Y-196164757D02*
X190958028Y-196164757D01*
X190100885Y-196593328D02*
X190600885Y-195093328D01*
X190600885Y-195093328D02*
X191100885Y-196593328D01*
X191600884Y-196450471D02*
X191672313Y-196521900D01*
X191672313Y-196521900D02*
X191600884Y-196593328D01*
X191600884Y-196593328D02*
X191529456Y-196521900D01*
X191529456Y-196521900D02*
X191600884Y-196450471D01*
X191600884Y-196450471D02*
X191600884Y-196593328D01*
X193529456Y-196593328D02*
X193815170Y-196593328D01*
X193815170Y-196593328D02*
X193958027Y-196521900D01*
X193958027Y-196521900D02*
X194029456Y-196450471D01*
X194029456Y-196450471D02*
X194172313Y-196236185D01*
X194172313Y-196236185D02*
X194243742Y-195950471D01*
X194243742Y-195950471D02*
X194243742Y-195379042D01*
X194243742Y-195379042D02*
X194172313Y-195236185D01*
X194172313Y-195236185D02*
X194100885Y-195164757D01*
X194100885Y-195164757D02*
X193958027Y-195093328D01*
X193958027Y-195093328D02*
X193672313Y-195093328D01*
X193672313Y-195093328D02*
X193529456Y-195164757D01*
X193529456Y-195164757D02*
X193458027Y-195236185D01*
X193458027Y-195236185D02*
X193386599Y-195379042D01*
X193386599Y-195379042D02*
X193386599Y-195736185D01*
X193386599Y-195736185D02*
X193458027Y-195879042D01*
X193458027Y-195879042D02*
X193529456Y-195950471D01*
X193529456Y-195950471D02*
X193672313Y-196021900D01*
X193672313Y-196021900D02*
X193958027Y-196021900D01*
X193958027Y-196021900D02*
X194100885Y-195950471D01*
X194100885Y-195950471D02*
X194172313Y-195879042D01*
X194172313Y-195879042D02*
X194243742Y-195736185D01*
X194886598Y-196450471D02*
X194958027Y-196521900D01*
X194958027Y-196521900D02*
X194886598Y-196593328D01*
X194886598Y-196593328D02*
X194815170Y-196521900D01*
X194815170Y-196521900D02*
X194886598Y-196450471D01*
X194886598Y-196450471D02*
X194886598Y-196593328D01*
X195886599Y-195093328D02*
X196029456Y-195093328D01*
X196029456Y-195093328D02*
X196172313Y-195164757D01*
X196172313Y-195164757D02*
X196243742Y-195236185D01*
X196243742Y-195236185D02*
X196315170Y-195379042D01*
X196315170Y-195379042D02*
X196386599Y-195664757D01*
X196386599Y-195664757D02*
X196386599Y-196021900D01*
X196386599Y-196021900D02*
X196315170Y-196307614D01*
X196315170Y-196307614D02*
X196243742Y-196450471D01*
X196243742Y-196450471D02*
X196172313Y-196521900D01*
X196172313Y-196521900D02*
X196029456Y-196593328D01*
X196029456Y-196593328D02*
X195886599Y-196593328D01*
X195886599Y-196593328D02*
X195743742Y-196521900D01*
X195743742Y-196521900D02*
X195672313Y-196450471D01*
X195672313Y-196450471D02*
X195600884Y-196307614D01*
X195600884Y-196307614D02*
X195529456Y-196021900D01*
X195529456Y-196021900D02*
X195529456Y-195664757D01*
X195529456Y-195664757D02*
X195600884Y-195379042D01*
X195600884Y-195379042D02*
X195672313Y-195236185D01*
X195672313Y-195236185D02*
X195743742Y-195164757D01*
X195743742Y-195164757D02*
X195886599Y-195093328D01*
X197029455Y-196450471D02*
X197100884Y-196521900D01*
X197100884Y-196521900D02*
X197029455Y-196593328D01*
X197029455Y-196593328D02*
X196958027Y-196521900D01*
X196958027Y-196521900D02*
X197029455Y-196450471D01*
X197029455Y-196450471D02*
X197029455Y-196593328D01*
X198529456Y-196593328D02*
X197672313Y-196593328D01*
X198100884Y-196593328D02*
X198100884Y-195093328D01*
X198100884Y-195093328D02*
X197958027Y-195307614D01*
X197958027Y-195307614D02*
X197815170Y-195450471D01*
X197815170Y-195450471D02*
X197672313Y-195521900D01*
D10*
D11*
X177002200Y-191507200D02*
X285002200Y-191507200D01*
D10*
D12*
X264413853Y-193785528D02*
X263913853Y-193071242D01*
X263556710Y-193785528D02*
X263556710Y-192285528D01*
X263556710Y-192285528D02*
X264128139Y-192285528D01*
X264128139Y-192285528D02*
X264270996Y-192356957D01*
X264270996Y-192356957D02*
X264342425Y-192428385D01*
X264342425Y-192428385D02*
X264413853Y-192571242D01*
X264413853Y-192571242D02*
X264413853Y-192785528D01*
X264413853Y-192785528D02*
X264342425Y-192928385D01*
X264342425Y-192928385D02*
X264270996Y-192999814D01*
X264270996Y-192999814D02*
X264128139Y-193071242D01*
X264128139Y-193071242D02*
X263556710Y-193071242D01*
X265628139Y-193714100D02*
X265485282Y-193785528D01*
X265485282Y-193785528D02*
X265199568Y-193785528D01*
X265199568Y-193785528D02*
X265056710Y-193714100D01*
X265056710Y-193714100D02*
X264985282Y-193571242D01*
X264985282Y-193571242D02*
X264985282Y-192999814D01*
X264985282Y-192999814D02*
X265056710Y-192856957D01*
X265056710Y-192856957D02*
X265199568Y-192785528D01*
X265199568Y-192785528D02*
X265485282Y-192785528D01*
X265485282Y-192785528D02*
X265628139Y-192856957D01*
X265628139Y-192856957D02*
X265699568Y-192999814D01*
X265699568Y-192999814D02*
X265699568Y-193142671D01*
X265699568Y-193142671D02*
X264985282Y-193285528D01*
X266199567Y-192785528D02*
X266556710Y-193785528D01*
X266556710Y-193785528D02*
X266913853Y-192785528D01*
X267485281Y-193642671D02*
X267556710Y-193714100D01*
X267556710Y-193714100D02*
X267485281Y-193785528D01*
X267485281Y-193785528D02*
X267413853Y-193714100D01*
X267413853Y-193714100D02*
X267485281Y-193642671D01*
X267485281Y-193642671D02*
X267485281Y-193785528D01*
X267485281Y-192856957D02*
X267556710Y-192928385D01*
X267556710Y-192928385D02*
X267485281Y-192999814D01*
X267485281Y-192999814D02*
X267413853Y-192928385D01*
X267413853Y-192928385D02*
X267485281Y-192856957D01*
X267485281Y-192856957D02*
X267485281Y-192999814D01*
D10*
D11*
X178386598Y-193721900D02*
X178600884Y-193793328D01*
X178600884Y-193793328D02*
X178958026Y-193793328D01*
X178958026Y-193793328D02*
X179100884Y-193721900D01*
X179100884Y-193721900D02*
X179172312Y-193650471D01*
X179172312Y-193650471D02*
X179243741Y-193507614D01*
X179243741Y-193507614D02*
X179243741Y-193364757D01*
X179243741Y-193364757D02*
X179172312Y-193221900D01*
X179172312Y-193221900D02*
X179100884Y-193150471D01*
X179100884Y-193150471D02*
X178958026Y-193079042D01*
X178958026Y-193079042D02*
X178672312Y-193007614D01*
X178672312Y-193007614D02*
X178529455Y-192936185D01*
X178529455Y-192936185D02*
X178458026Y-192864757D01*
X178458026Y-192864757D02*
X178386598Y-192721900D01*
X178386598Y-192721900D02*
X178386598Y-192579042D01*
X178386598Y-192579042D02*
X178458026Y-192436185D01*
X178458026Y-192436185D02*
X178529455Y-192364757D01*
X178529455Y-192364757D02*
X178672312Y-192293328D01*
X178672312Y-192293328D02*
X179029455Y-192293328D01*
X179029455Y-192293328D02*
X179243741Y-192364757D01*
X179886597Y-193793328D02*
X179886597Y-192793328D01*
X179886597Y-192293328D02*
X179815169Y-192364757D01*
X179815169Y-192364757D02*
X179886597Y-192436185D01*
X179886597Y-192436185D02*
X179958026Y-192364757D01*
X179958026Y-192364757D02*
X179886597Y-192293328D01*
X179886597Y-192293328D02*
X179886597Y-192436185D01*
X180458026Y-192793328D02*
X181243741Y-192793328D01*
X181243741Y-192793328D02*
X180458026Y-193793328D01*
X180458026Y-193793328D02*
X181243741Y-193793328D01*
X182386598Y-193721900D02*
X182243741Y-193793328D01*
X182243741Y-193793328D02*
X181958027Y-193793328D01*
X181958027Y-193793328D02*
X181815169Y-193721900D01*
X181815169Y-193721900D02*
X181743741Y-193579042D01*
X181743741Y-193579042D02*
X181743741Y-193007614D01*
X181743741Y-193007614D02*
X181815169Y-192864757D01*
X181815169Y-192864757D02*
X181958027Y-192793328D01*
X181958027Y-192793328D02*
X182243741Y-192793328D01*
X182243741Y-192793328D02*
X182386598Y-192864757D01*
X182386598Y-192864757D02*
X182458027Y-193007614D01*
X182458027Y-193007614D02*
X182458027Y-193150471D01*
X182458027Y-193150471D02*
X181743741Y-193293328D01*
X183100883Y-193650471D02*
X183172312Y-193721900D01*
X183172312Y-193721900D02*
X183100883Y-193793328D01*
X183100883Y-193793328D02*
X183029455Y-193721900D01*
X183029455Y-193721900D02*
X183100883Y-193650471D01*
X183100883Y-193650471D02*
X183100883Y-193793328D01*
X183100883Y-192864757D02*
X183172312Y-192936185D01*
X183172312Y-192936185D02*
X183100883Y-193007614D01*
X183100883Y-193007614D02*
X183029455Y-192936185D01*
X183029455Y-192936185D02*
X183100883Y-192864757D01*
X183100883Y-192864757D02*
X183100883Y-193007614D01*
X184886598Y-193364757D02*
X185600884Y-193364757D01*
X184743741Y-193793328D02*
X185243741Y-192293328D01*
X185243741Y-192293328D02*
X185743741Y-193793328D01*
X186886598Y-192793328D02*
X186886598Y-193793328D01*
X186529455Y-192221900D02*
X186172312Y-193293328D01*
X186172312Y-193293328D02*
X187100883Y-193293328D01*
D10*
D11*
X263458026Y-196593328D02*
X263458026Y-195093328D01*
X264815170Y-196593328D02*
X264815170Y-195093328D01*
X264815170Y-196521900D02*
X264672312Y-196593328D01*
X264672312Y-196593328D02*
X264386598Y-196593328D01*
X264386598Y-196593328D02*
X264243741Y-196521900D01*
X264243741Y-196521900D02*
X264172312Y-196450471D01*
X264172312Y-196450471D02*
X264100884Y-196307614D01*
X264100884Y-196307614D02*
X264100884Y-195879042D01*
X264100884Y-195879042D02*
X264172312Y-195736185D01*
X264172312Y-195736185D02*
X264243741Y-195664757D01*
X264243741Y-195664757D02*
X264386598Y-195593328D01*
X264386598Y-195593328D02*
X264672312Y-195593328D01*
X264672312Y-195593328D02*
X264815170Y-195664757D01*
X265529455Y-196450471D02*
X265600884Y-196521900D01*
X265600884Y-196521900D02*
X265529455Y-196593328D01*
X265529455Y-196593328D02*
X265458027Y-196521900D01*
X265458027Y-196521900D02*
X265529455Y-196450471D01*
X265529455Y-196450471D02*
X265529455Y-196593328D01*
X265529455Y-195664757D02*
X265600884Y-195736185D01*
X265600884Y-195736185D02*
X265529455Y-195807614D01*
X265529455Y-195807614D02*
X265458027Y-195736185D01*
X265458027Y-195736185D02*
X265529455Y-195664757D01*
X265529455Y-195664757D02*
X265529455Y-195807614D01*
X268029456Y-195593328D02*
X268029456Y-196593328D01*
X267672313Y-195021900D02*
X267315170Y-196093328D01*
X267315170Y-196093328D02*
X268243741Y-196093328D01*
X269886598Y-195021900D02*
X268600884Y-196950471D01*
X270315170Y-195236185D02*
X270386598Y-195164757D01*
X270386598Y-195164757D02*
X270529456Y-195093328D01*
X270529456Y-195093328D02*
X270886598Y-195093328D01*
X270886598Y-195093328D02*
X271029456Y-195164757D01*
X271029456Y-195164757D02*
X271100884Y-195236185D01*
X271100884Y-195236185D02*
X271172313Y-195379042D01*
X271172313Y-195379042D02*
X271172313Y-195521900D01*
X271172313Y-195521900D02*
X271100884Y-195736185D01*
X271100884Y-195736185D02*
X270243741Y-196593328D01*
X270243741Y-196593328D02*
X271172313Y-196593328D01*
X271743741Y-195236185D02*
X271815169Y-195164757D01*
X271815169Y-195164757D02*
X271958027Y-195093328D01*
X271958027Y-195093328D02*
X272315169Y-195093328D01*
X272315169Y-195093328D02*
X272458027Y-195164757D01*
X272458027Y-195164757D02*
X272529455Y-195236185D01*
X272529455Y-195236185D02*
X272600884Y-195379042D01*
X272600884Y-195379042D02*
X272600884Y-195521900D01*
X272600884Y-195521900D02*
X272529455Y-195736185D01*
X272529455Y-195736185D02*
X271672312Y-196593328D01*
X271672312Y-196593328D02*
X272600884Y-196593328D01*
D10*
D11*
X177002200Y-187507200D02*
X285002200Y-187507200D01*
D10*
D13*
X178693928Y-188211638D02*
X179836785Y-188211638D01*
X179015357Y-190211638D02*
X179265357Y-188211638D01*
X180253452Y-190211638D02*
X180420119Y-188878304D01*
X180503452Y-188211638D02*
X180396309Y-188306876D01*
X180396309Y-188306876D02*
X180479643Y-188402114D01*
X180479643Y-188402114D02*
X180586786Y-188306876D01*
X180586786Y-188306876D02*
X180503452Y-188211638D01*
X180503452Y-188211638D02*
X180479643Y-188402114D01*
X181086786Y-188878304D02*
X181848690Y-188878304D01*
X181455833Y-188211638D02*
X181241548Y-189925923D01*
X181241548Y-189925923D02*
X181312976Y-190116400D01*
X181312976Y-190116400D02*
X181491548Y-190211638D01*
X181491548Y-190211638D02*
X181682024Y-190211638D01*
X182634405Y-190211638D02*
X182455833Y-190116400D01*
X182455833Y-190116400D02*
X182384405Y-189925923D01*
X182384405Y-189925923D02*
X182598690Y-188211638D01*
X184170119Y-190116400D02*
X183967738Y-190211638D01*
X183967738Y-190211638D02*
X183586785Y-190211638D01*
X183586785Y-190211638D02*
X183408214Y-190116400D01*
X183408214Y-190116400D02*
X183336785Y-189925923D01*
X183336785Y-189925923D02*
X183432024Y-189164019D01*
X183432024Y-189164019D02*
X183551071Y-188973542D01*
X183551071Y-188973542D02*
X183753452Y-188878304D01*
X183753452Y-188878304D02*
X184134404Y-188878304D01*
X184134404Y-188878304D02*
X184312976Y-188973542D01*
X184312976Y-188973542D02*
X184384404Y-189164019D01*
X184384404Y-189164019D02*
X184360595Y-189354495D01*
X184360595Y-189354495D02*
X183384404Y-189544971D01*
X185134405Y-190021161D02*
X185217738Y-190116400D01*
X185217738Y-190116400D02*
X185110595Y-190211638D01*
X185110595Y-190211638D02*
X185027262Y-190116400D01*
X185027262Y-190116400D02*
X185134405Y-190021161D01*
X185134405Y-190021161D02*
X185110595Y-190211638D01*
X185265357Y-188973542D02*
X185348690Y-189068780D01*
X185348690Y-189068780D02*
X185241548Y-189164019D01*
X185241548Y-189164019D02*
X185158214Y-189068780D01*
X185158214Y-189068780D02*
X185265357Y-188973542D01*
X185265357Y-188973542D02*
X185241548Y-189164019D01*
D10*
D11*
X178958026Y-185607614D02*
X178458026Y-185607614D01*
X178458026Y-186393328D02*
X178458026Y-184893328D01*
X178458026Y-184893328D02*
X179172312Y-184893328D01*
X179743740Y-186393328D02*
X179743740Y-185393328D01*
X179743740Y-184893328D02*
X179672312Y-184964757D01*
X179672312Y-184964757D02*
X179743740Y-185036185D01*
X179743740Y-185036185D02*
X179815169Y-184964757D01*
X179815169Y-184964757D02*
X179743740Y-184893328D01*
X179743740Y-184893328D02*
X179743740Y-185036185D01*
X180672312Y-186393328D02*
X180529455Y-186321900D01*
X180529455Y-186321900D02*
X180458026Y-186179042D01*
X180458026Y-186179042D02*
X180458026Y-184893328D01*
X181815169Y-186321900D02*
X181672312Y-186393328D01*
X181672312Y-186393328D02*
X181386598Y-186393328D01*
X181386598Y-186393328D02*
X181243740Y-186321900D01*
X181243740Y-186321900D02*
X181172312Y-186179042D01*
X181172312Y-186179042D02*
X181172312Y-185607614D01*
X181172312Y-185607614D02*
X181243740Y-185464757D01*
X181243740Y-185464757D02*
X181386598Y-185393328D01*
X181386598Y-185393328D02*
X181672312Y-185393328D01*
X181672312Y-185393328D02*
X181815169Y-185464757D01*
X181815169Y-185464757D02*
X181886598Y-185607614D01*
X181886598Y-185607614D02*
X181886598Y-185750471D01*
X181886598Y-185750471D02*
X181172312Y-185893328D01*
X182529454Y-186250471D02*
X182600883Y-186321900D01*
X182600883Y-186321900D02*
X182529454Y-186393328D01*
X182529454Y-186393328D02*
X182458026Y-186321900D01*
X182458026Y-186321900D02*
X182529454Y-186250471D01*
X182529454Y-186250471D02*
X182529454Y-186393328D01*
X182529454Y-185464757D02*
X182600883Y-185536185D01*
X182600883Y-185536185D02*
X182529454Y-185607614D01*
X182529454Y-185607614D02*
X182458026Y-185536185D01*
X182458026Y-185536185D02*
X182529454Y-185464757D01*
X182529454Y-185464757D02*
X182529454Y-185607614D01*
X185243740Y-186250471D02*
X185172312Y-186321900D01*
X185172312Y-186321900D02*
X184958026Y-186393328D01*
X184958026Y-186393328D02*
X184815169Y-186393328D01*
X184815169Y-186393328D02*
X184600883Y-186321900D01*
X184600883Y-186321900D02*
X184458026Y-186179042D01*
X184458026Y-186179042D02*
X184386597Y-186036185D01*
X184386597Y-186036185D02*
X184315169Y-185750471D01*
X184315169Y-185750471D02*
X184315169Y-185536185D01*
X184315169Y-185536185D02*
X184386597Y-185250471D01*
X184386597Y-185250471D02*
X184458026Y-185107614D01*
X184458026Y-185107614D02*
X184600883Y-184964757D01*
X184600883Y-184964757D02*
X184815169Y-184893328D01*
X184815169Y-184893328D02*
X184958026Y-184893328D01*
X184958026Y-184893328D02*
X185172312Y-184964757D01*
X185172312Y-184964757D02*
X185243740Y-185036185D01*
X185886597Y-186393328D02*
X185886597Y-184893328D01*
X185886597Y-184893328D02*
X186386597Y-185964757D01*
X186386597Y-185964757D02*
X186886597Y-184893328D01*
X186886597Y-184893328D02*
X186886597Y-186393328D01*
X188315169Y-184893328D02*
X187600883Y-184893328D01*
X187600883Y-184893328D02*
X187529455Y-185607614D01*
X187529455Y-185607614D02*
X187600883Y-185536185D01*
X187600883Y-185536185D02*
X187743741Y-185464757D01*
X187743741Y-185464757D02*
X188100883Y-185464757D01*
X188100883Y-185464757D02*
X188243741Y-185536185D01*
X188243741Y-185536185D02*
X188315169Y-185607614D01*
X188315169Y-185607614D02*
X188386598Y-185750471D01*
X188386598Y-185750471D02*
X188386598Y-186107614D01*
X188386598Y-186107614D02*
X188315169Y-186250471D01*
X188315169Y-186250471D02*
X188243741Y-186321900D01*
X188243741Y-186321900D02*
X188100883Y-186393328D01*
X188100883Y-186393328D02*
X187743741Y-186393328D01*
X187743741Y-186393328D02*
X187600883Y-186321900D01*
X187600883Y-186321900D02*
X187529455Y-186250471D01*
X189029454Y-186393328D02*
X189029454Y-184893328D01*
X190029455Y-184893328D02*
X190315169Y-184893328D01*
X190315169Y-184893328D02*
X190458026Y-184964757D01*
X190458026Y-184964757D02*
X190600883Y-185107614D01*
X190600883Y-185107614D02*
X190672312Y-185393328D01*
X190672312Y-185393328D02*
X190672312Y-185893328D01*
X190672312Y-185893328D02*
X190600883Y-186179042D01*
X190600883Y-186179042D02*
X190458026Y-186321900D01*
X190458026Y-186321900D02*
X190315169Y-186393328D01*
X190315169Y-186393328D02*
X190029455Y-186393328D01*
X190029455Y-186393328D02*
X189886598Y-186321900D01*
X189886598Y-186321900D02*
X189743740Y-186179042D01*
X189743740Y-186179042D02*
X189672312Y-185893328D01*
X189672312Y-185893328D02*
X189672312Y-185393328D01*
X189672312Y-185393328D02*
X189743740Y-185107614D01*
X189743740Y-185107614D02*
X189886598Y-184964757D01*
X189886598Y-184964757D02*
X190029455Y-184893328D01*
X191315169Y-186250471D02*
X191386598Y-186321900D01*
X191386598Y-186321900D02*
X191315169Y-186393328D01*
X191315169Y-186393328D02*
X191243741Y-186321900D01*
X191243741Y-186321900D02*
X191315169Y-186250471D01*
X191315169Y-186250471D02*
X191315169Y-186393328D01*
X192029455Y-186393328D02*
X192029455Y-184893328D01*
X192172313Y-185821900D02*
X192600884Y-186393328D01*
X192600884Y-185393328D02*
X192029455Y-185964757D01*
X193243741Y-186393328D02*
X193243741Y-185393328D01*
X193243741Y-184893328D02*
X193172313Y-184964757D01*
X193172313Y-184964757D02*
X193243741Y-185036185D01*
X193243741Y-185036185D02*
X193315170Y-184964757D01*
X193315170Y-184964757D02*
X193243741Y-184893328D01*
X193243741Y-184893328D02*
X193243741Y-185036185D01*
X194600885Y-186321900D02*
X194458027Y-186393328D01*
X194458027Y-186393328D02*
X194172313Y-186393328D01*
X194172313Y-186393328D02*
X194029456Y-186321900D01*
X194029456Y-186321900D02*
X193958027Y-186250471D01*
X193958027Y-186250471D02*
X193886599Y-186107614D01*
X193886599Y-186107614D02*
X193886599Y-185679042D01*
X193886599Y-185679042D02*
X193958027Y-185536185D01*
X193958027Y-185536185D02*
X194029456Y-185464757D01*
X194029456Y-185464757D02*
X194172313Y-185393328D01*
X194172313Y-185393328D02*
X194458027Y-185393328D01*
X194458027Y-185393328D02*
X194600885Y-185464757D01*
X195886599Y-186393328D02*
X195886599Y-185607614D01*
X195886599Y-185607614D02*
X195815170Y-185464757D01*
X195815170Y-185464757D02*
X195672313Y-185393328D01*
X195672313Y-185393328D02*
X195386599Y-185393328D01*
X195386599Y-185393328D02*
X195243741Y-185464757D01*
X195886599Y-186321900D02*
X195743741Y-186393328D01*
X195743741Y-186393328D02*
X195386599Y-186393328D01*
X195386599Y-186393328D02*
X195243741Y-186321900D01*
X195243741Y-186321900D02*
X195172313Y-186179042D01*
X195172313Y-186179042D02*
X195172313Y-186036185D01*
X195172313Y-186036185D02*
X195243741Y-185893328D01*
X195243741Y-185893328D02*
X195386599Y-185821900D01*
X195386599Y-185821900D02*
X195743741Y-185821900D01*
X195743741Y-185821900D02*
X195886599Y-185750471D01*
X197243742Y-186393328D02*
X197243742Y-184893328D01*
X197243742Y-186321900D02*
X197100884Y-186393328D01*
X197100884Y-186393328D02*
X196815170Y-186393328D01*
X196815170Y-186393328D02*
X196672313Y-186321900D01*
X196672313Y-186321900D02*
X196600884Y-186250471D01*
X196600884Y-186250471D02*
X196529456Y-186107614D01*
X196529456Y-186107614D02*
X196529456Y-185679042D01*
X196529456Y-185679042D02*
X196600884Y-185536185D01*
X196600884Y-185536185D02*
X196672313Y-185464757D01*
X196672313Y-185464757D02*
X196815170Y-185393328D01*
X196815170Y-185393328D02*
X197100884Y-185393328D01*
X197100884Y-185393328D02*
X197243742Y-185464757D01*
X197600885Y-186536185D02*
X198743742Y-186536185D01*
X199100884Y-185393328D02*
X199100884Y-186893328D01*
X199100884Y-185464757D02*
X199243742Y-185393328D01*
X199243742Y-185393328D02*
X199529456Y-185393328D01*
X199529456Y-185393328D02*
X199672313Y-185464757D01*
X199672313Y-185464757D02*
X199743742Y-185536185D01*
X199743742Y-185536185D02*
X199815170Y-185679042D01*
X199815170Y-185679042D02*
X199815170Y-186107614D01*
X199815170Y-186107614D02*
X199743742Y-186250471D01*
X199743742Y-186250471D02*
X199672313Y-186321900D01*
X199672313Y-186321900D02*
X199529456Y-186393328D01*
X199529456Y-186393328D02*
X199243742Y-186393328D01*
X199243742Y-186393328D02*
X199100884Y-186321900D01*
X201100885Y-186321900D02*
X200958027Y-186393328D01*
X200958027Y-186393328D02*
X200672313Y-186393328D01*
X200672313Y-186393328D02*
X200529456Y-186321900D01*
X200529456Y-186321900D02*
X200458027Y-186250471D01*
X200458027Y-186250471D02*
X200386599Y-186107614D01*
X200386599Y-186107614D02*
X200386599Y-185679042D01*
X200386599Y-185679042D02*
X200458027Y-185536185D01*
X200458027Y-185536185D02*
X200529456Y-185464757D01*
X200529456Y-185464757D02*
X200672313Y-185393328D01*
X200672313Y-185393328D02*
X200958027Y-185393328D01*
X200958027Y-185393328D02*
X201100885Y-185464757D01*
X201743741Y-186393328D02*
X201743741Y-184893328D01*
X201743741Y-185464757D02*
X201886599Y-185393328D01*
X201886599Y-185393328D02*
X202172313Y-185393328D01*
X202172313Y-185393328D02*
X202315170Y-185464757D01*
X202315170Y-185464757D02*
X202386599Y-185536185D01*
X202386599Y-185536185D02*
X202458027Y-185679042D01*
X202458027Y-185679042D02*
X202458027Y-186107614D01*
X202458027Y-186107614D02*
X202386599Y-186250471D01*
X202386599Y-186250471D02*
X202315170Y-186321900D01*
X202315170Y-186321900D02*
X202172313Y-186393328D01*
X202172313Y-186393328D02*
X201886599Y-186393328D01*
X201886599Y-186393328D02*
X201743741Y-186321900D01*
D10*
D11*
X177002200Y-181507200D02*
X285002200Y-181507200D01*
D10*
D11*
X178386598Y-183621900D02*
X178600884Y-183693328D01*
X178600884Y-183693328D02*
X178958026Y-183693328D01*
X178958026Y-183693328D02*
X179100884Y-183621900D01*
X179100884Y-183621900D02*
X179172312Y-183550471D01*
X179172312Y-183550471D02*
X179243741Y-183407614D01*
X179243741Y-183407614D02*
X179243741Y-183264757D01*
X179243741Y-183264757D02*
X179172312Y-183121900D01*
X179172312Y-183121900D02*
X179100884Y-183050471D01*
X179100884Y-183050471D02*
X178958026Y-182979042D01*
X178958026Y-182979042D02*
X178672312Y-182907614D01*
X178672312Y-182907614D02*
X178529455Y-182836185D01*
X178529455Y-182836185D02*
X178458026Y-182764757D01*
X178458026Y-182764757D02*
X178386598Y-182621900D01*
X178386598Y-182621900D02*
X178386598Y-182479042D01*
X178386598Y-182479042D02*
X178458026Y-182336185D01*
X178458026Y-182336185D02*
X178529455Y-182264757D01*
X178529455Y-182264757D02*
X178672312Y-182193328D01*
X178672312Y-182193328D02*
X179029455Y-182193328D01*
X179029455Y-182193328D02*
X179243741Y-182264757D01*
X179886597Y-183693328D02*
X179886597Y-182193328D01*
X180529455Y-183693328D02*
X180529455Y-182907614D01*
X180529455Y-182907614D02*
X180458026Y-182764757D01*
X180458026Y-182764757D02*
X180315169Y-182693328D01*
X180315169Y-182693328D02*
X180100883Y-182693328D01*
X180100883Y-182693328D02*
X179958026Y-182764757D01*
X179958026Y-182764757D02*
X179886597Y-182836185D01*
X181815169Y-183621900D02*
X181672312Y-183693328D01*
X181672312Y-183693328D02*
X181386598Y-183693328D01*
X181386598Y-183693328D02*
X181243740Y-183621900D01*
X181243740Y-183621900D02*
X181172312Y-183479042D01*
X181172312Y-183479042D02*
X181172312Y-182907614D01*
X181172312Y-182907614D02*
X181243740Y-182764757D01*
X181243740Y-182764757D02*
X181386598Y-182693328D01*
X181386598Y-182693328D02*
X181672312Y-182693328D01*
X181672312Y-182693328D02*
X181815169Y-182764757D01*
X181815169Y-182764757D02*
X181886598Y-182907614D01*
X181886598Y-182907614D02*
X181886598Y-183050471D01*
X181886598Y-183050471D02*
X181172312Y-183193328D01*
X183100883Y-183621900D02*
X182958026Y-183693328D01*
X182958026Y-183693328D02*
X182672312Y-183693328D01*
X182672312Y-183693328D02*
X182529454Y-183621900D01*
X182529454Y-183621900D02*
X182458026Y-183479042D01*
X182458026Y-183479042D02*
X182458026Y-182907614D01*
X182458026Y-182907614D02*
X182529454Y-182764757D01*
X182529454Y-182764757D02*
X182672312Y-182693328D01*
X182672312Y-182693328D02*
X182958026Y-182693328D01*
X182958026Y-182693328D02*
X183100883Y-182764757D01*
X183100883Y-182764757D02*
X183172312Y-182907614D01*
X183172312Y-182907614D02*
X183172312Y-183050471D01*
X183172312Y-183050471D02*
X182458026Y-183193328D01*
X183600883Y-182693328D02*
X184172311Y-182693328D01*
X183815168Y-182193328D02*
X183815168Y-183479042D01*
X183815168Y-183479042D02*
X183886597Y-183621900D01*
X183886597Y-183621900D02*
X184029454Y-183693328D01*
X184029454Y-183693328D02*
X184172311Y-183693328D01*
X184672311Y-183550471D02*
X184743740Y-183621900D01*
X184743740Y-183621900D02*
X184672311Y-183693328D01*
X184672311Y-183693328D02*
X184600883Y-183621900D01*
X184600883Y-183621900D02*
X184672311Y-183550471D01*
X184672311Y-183550471D02*
X184672311Y-183693328D01*
X184672311Y-182764757D02*
X184743740Y-182836185D01*
X184743740Y-182836185D02*
X184672311Y-182907614D01*
X184672311Y-182907614D02*
X184600883Y-182836185D01*
X184600883Y-182836185D02*
X184672311Y-182764757D01*
X184672311Y-182764757D02*
X184672311Y-182907614D01*
D10*
D11*
X197002200Y-191507200D02*
X197002200Y-194507200D01*
D10*
D11*
X261002200Y-191507200D02*
X261002200Y-198007200D01*
D14*
X143680000Y-73655000D03*
X141180000Y-73655000D03*
D15*
X134150000Y-146150000D03*
X134600000Y-146600000D03*
X134150000Y-147050000D03*
X133700000Y-146600000D03*
D16*
X116625000Y-158125000D03*
D17*
X116625000Y-155585000D03*
X119165000Y-158125000D03*
X119165000Y-155585000D03*
X121705000Y-158125000D03*
X121705000Y-155585000D03*
D18*
X204500000Y-139120000D03*
D19*
X204500000Y-141660000D03*
X204500000Y-144200000D03*
D20*
X168000000Y-146700000D03*
X170000000Y-146700000D03*
X172000000Y-146700000D03*
X174000000Y-146700000D03*
X167970000Y-155100000D03*
X169970000Y-155100000D03*
X171970000Y-155100000D03*
X173970000Y-155100000D03*
D21*
X192650000Y-104800000D03*
X189800000Y-95500000D03*
X130900000Y-148000000D03*
X196500000Y-102650000D03*
X140360000Y-138280000D03*
X198650000Y-90800000D03*
X196350000Y-91700000D03*
X213300000Y-130750000D03*
X221450000Y-144100000D03*
X221800000Y-158100000D03*
X185900000Y-146850000D03*
X222500000Y-124250000D03*
X197600000Y-144100000D03*
X202450000Y-126950000D03*
X195450000Y-136700000D03*
X210850000Y-126050000D03*
X236550000Y-156600000D03*
X224850000Y-144900000D03*
X221925000Y-140375000D03*
X215150000Y-141600000D03*
X193150000Y-82450000D03*
X157350000Y-95750000D03*
X139550000Y-140200000D03*
X193150000Y-88400000D03*
X150900000Y-106450000D03*
X133150000Y-151550000D03*
X224250000Y-158150000D03*
X223050000Y-151550000D03*
X200550000Y-131500000D03*
X194150000Y-131550000D03*
X230100000Y-130400000D03*
X205000000Y-129400000D03*
X190700000Y-155450000D03*
X198450000Y-87616000D03*
X184700000Y-152550000D03*
X215700000Y-150000000D03*
X214900000Y-131950000D03*
X164500000Y-103700000D03*
X228500000Y-125700000D03*
X164505948Y-104280951D03*
X227500000Y-125700000D03*
X197550000Y-130200000D03*
X199400000Y-101400000D03*
X198100000Y-129400000D03*
X191750000Y-98050000D03*
X136990000Y-148190000D03*
X129270000Y-143630000D03*
X195360000Y-93560000D03*
X143610000Y-155100000D03*
X196229000Y-94000000D03*
X213800000Y-133250000D03*
X215450000Y-133600000D03*
X217650000Y-120600000D03*
X196500000Y-97350000D03*
X132500000Y-149100000D03*
X195635000Y-110250000D03*
X193100000Y-95550000D03*
X147200000Y-101150000D03*
X192000000Y-96000000D03*
X192400000Y-126900000D03*
X196100000Y-96000000D03*
X200550000Y-97700000D03*
X196150000Y-98500000D03*
X235050000Y-138800000D03*
X225700000Y-133750000D03*
X195751475Y-99611796D03*
X196050000Y-103480000D03*
X131600000Y-148800000D03*
X198750000Y-99650000D03*
X133400000Y-149050000D03*
X158500000Y-98200000D03*
X159000000Y-98700000D03*
X193000000Y-102000000D03*
X199956550Y-87156550D03*
X199700000Y-95500000D03*
X199700000Y-88550000D03*
X156978500Y-101950000D03*
X196900000Y-100800000D03*
X157400000Y-95150000D03*
X196400000Y-86000000D03*
X152750000Y-108000000D03*
X183050000Y-143250000D03*
X166750000Y-102900000D03*
X172950000Y-114250000D03*
D22*
X199250000Y-97100000D02*
X200806000Y-95544000D01*
X200806000Y-95544000D02*
X200806000Y-88606000D01*
X200806000Y-88606000D02*
X199956550Y-87756550D01*
X197850000Y-95700000D02*
X197850000Y-94350000D01*
X199956550Y-87156550D02*
X199956550Y-87756550D01*
X192500000Y-101500000D02*
X193000000Y-102000000D01*
X199250000Y-97100000D02*
X197850000Y-95700000D01*
X197850000Y-94350000D02*
X196600000Y-93100000D01*
X196600000Y-93100000D02*
X194300000Y-93100000D01*
X194300000Y-93100000D02*
X192500000Y-94900000D01*
X192500000Y-94900000D02*
X192500000Y-101500000D01*
X140360000Y-138280000D02*
X140430000Y-138350000D01*
X220900000Y-138700000D02*
X219800000Y-138700000D01*
X218000000Y-130750000D02*
X219800000Y-132550000D01*
X218000000Y-130750000D02*
X213300000Y-130750000D01*
X222400000Y-140800000D02*
X222400000Y-140200000D01*
X222400000Y-140200000D02*
X220900000Y-138700000D01*
X219800000Y-138700000D02*
X219800000Y-132550000D01*
X221800000Y-158100000D02*
X221800000Y-144450000D01*
X221450000Y-144100000D02*
X221450000Y-141750000D01*
X221800000Y-144450000D02*
X221450000Y-144100000D01*
X221450000Y-141750000D02*
X222400000Y-140800000D01*
X197600000Y-138850000D02*
X197600000Y-144100000D01*
X222500000Y-124250000D02*
X212650000Y-124250000D01*
X212650000Y-124250000D02*
X210850000Y-126050000D01*
X195450000Y-136700000D02*
X197600000Y-138850000D01*
X215150000Y-141600000D02*
X220700000Y-141600000D01*
X220700000Y-141600000D02*
X221925000Y-140375000D01*
X234900000Y-151650000D02*
X231600000Y-151650000D01*
X231600000Y-151650000D02*
X224850000Y-144900000D01*
X236550000Y-156600000D02*
X236550000Y-153300000D01*
X236550000Y-153300000D02*
X234900000Y-151650000D01*
X139550000Y-140200000D02*
X139550000Y-117550000D01*
X133150000Y-150550000D02*
X133150000Y-151550000D01*
X193150000Y-88400000D02*
X193150000Y-82450000D01*
X139550000Y-140200000D02*
X139550000Y-150100000D01*
X139550000Y-117550000D02*
X150600000Y-106500000D01*
X139550000Y-150100000D02*
X133600000Y-150100000D01*
X133600000Y-150100000D02*
X133150000Y-150550000D01*
X150850000Y-106500000D02*
X150900000Y-106450000D01*
X150600000Y-106500000D02*
X150850000Y-106500000D01*
X224250000Y-158150000D02*
X223500000Y-158150000D01*
X223500000Y-158150000D02*
X223050000Y-157700000D01*
X223050000Y-157700000D02*
X223050000Y-151550000D01*
X200500000Y-131550000D02*
X200550000Y-131500000D01*
X194150000Y-131550000D02*
X200500000Y-131550000D01*
X230100000Y-130400000D02*
X230100000Y-133450000D01*
X228950000Y-134600000D02*
X230100000Y-133450000D01*
X205650000Y-130050000D02*
X219950000Y-130050000D01*
X228950000Y-134600000D02*
X224500000Y-134600000D01*
X205650000Y-130050000D02*
X205000000Y-129400000D01*
X224500000Y-134600000D02*
X219950000Y-130050000D01*
X190700000Y-155450000D02*
X186100000Y-155450000D01*
X186050000Y-155400000D02*
X186050000Y-153900000D01*
X186100000Y-155450000D02*
X186050000Y-155400000D01*
X186050000Y-153900000D02*
X184700000Y-152550000D01*
X214734000Y-142234000D02*
X214734000Y-132116000D01*
X214734000Y-132116000D02*
X214900000Y-131950000D01*
X214734000Y-142234000D02*
X215700000Y-143200000D01*
X215700000Y-150000000D02*
X215700000Y-143200000D01*
X199400000Y-124200000D02*
X199400000Y-101400000D01*
X197550000Y-130200000D02*
X197550000Y-126050000D01*
X197550000Y-126050000D02*
X199400000Y-124200000D01*
X198100000Y-129400000D02*
X198100000Y-130650000D01*
X197900000Y-130850000D02*
X197200000Y-130850000D01*
X198100000Y-130650000D02*
X197900000Y-130850000D01*
X191750000Y-125400000D02*
X191750000Y-98050000D01*
X191750000Y-125400000D02*
X197200000Y-130850000D01*
X129270000Y-143630000D02*
X135260000Y-143630000D01*
X136990000Y-145360000D02*
X136990000Y-148190000D01*
X135260000Y-143630000D02*
X136360000Y-144730000D01*
X136360000Y-144730000D02*
X136990000Y-145360000D01*
X196229000Y-94000000D02*
X195700000Y-94000000D01*
X213800000Y-132400000D02*
X212300000Y-130900000D01*
X213800000Y-133250000D02*
X213800000Y-132400000D01*
X203650000Y-129650000D02*
X203650000Y-102950000D01*
X203650000Y-102950000D02*
X201000000Y-100300000D01*
X195741038Y-100229000D02*
X195741039Y-100229000D01*
X201000000Y-100300000D02*
X195812038Y-100300000D01*
X195812038Y-100300000D02*
X195741038Y-100229000D01*
X194500000Y-95200000D02*
X194500000Y-98987961D01*
X204900000Y-130900000D02*
X203650000Y-129650000D01*
X195700000Y-94000000D02*
X194500000Y-95200000D01*
X194500000Y-98987961D02*
X195741038Y-100229000D01*
X212300000Y-130900000D02*
X204900000Y-130900000D01*
X195635000Y-110250000D02*
X195635000Y-100485000D01*
X195150000Y-100000000D02*
X195100000Y-100000000D01*
X193100000Y-98000000D02*
X193100000Y-95550000D01*
X195635000Y-100485000D02*
X195150000Y-100000000D01*
X195100000Y-100000000D02*
X193100000Y-98000000D01*
X192400000Y-126900000D02*
X191400000Y-126900000D01*
X200550000Y-97700000D02*
X197800000Y-97700000D01*
X191400000Y-126900000D02*
X191250000Y-126750000D01*
X191250000Y-126750000D02*
X191250000Y-96750000D01*
X191250000Y-96750000D02*
X192000000Y-96000000D01*
X197800000Y-97700000D02*
X196100000Y-96000000D01*
X235750000Y-133150000D02*
X235750000Y-131200000D01*
X235050000Y-138800000D02*
X235050000Y-133850000D01*
X203050000Y-98500000D02*
X196150000Y-98500000D01*
X235050000Y-133850000D02*
X235750000Y-133150000D01*
X235750000Y-131200000D02*
X203050000Y-98500000D01*
X195938204Y-99611796D02*
X196794000Y-98756000D01*
X196794000Y-98756000D02*
X201256000Y-98756000D01*
X225700000Y-123200000D02*
X225700000Y-133750000D01*
X201256000Y-98756000D02*
X225700000Y-123200000D01*
X195751475Y-99611796D02*
X195938204Y-99611796D01*
D23*
X158500000Y-132168870D02*
X170000000Y-143668870D01*
X170000000Y-143668870D02*
X170000000Y-146700000D01*
X158500000Y-98200000D02*
X158500000Y-132168870D01*
X159000000Y-98700000D02*
X159000000Y-132275718D01*
X159000000Y-132275718D02*
X172000000Y-145275718D01*
X172000000Y-146700000D02*
X172000000Y-145275718D01*
D22*
X200550000Y-89400000D02*
X199700000Y-88550000D01*
X200550000Y-94650000D02*
X200550000Y-89400000D01*
X199700000Y-95500000D02*
X200550000Y-94650000D01*
X183050000Y-152500000D02*
X183050000Y-143250000D01*
X161550000Y-135600000D02*
X161550000Y-140650000D01*
X155950000Y-134025000D02*
X159575000Y-134025000D01*
X155950000Y-134025000D02*
X152750000Y-130825000D01*
X161550000Y-140650000D02*
X161650000Y-140750000D01*
X160450000Y-134900000D02*
X160850000Y-134900000D01*
X160850000Y-134900000D02*
X161550000Y-135600000D01*
X152750000Y-130825000D02*
X152750000Y-108000000D01*
X161650000Y-157300000D02*
X162700000Y-158350000D01*
X161650000Y-140750000D02*
X161650000Y-157300000D01*
X162700000Y-158350000D02*
X177200000Y-158350000D01*
X159575000Y-134025000D02*
X160450000Y-134900000D01*
X177200000Y-158350000D02*
X183050000Y-152500000D01*
X166750000Y-108050000D02*
X166750000Y-102900000D01*
X172950000Y-114250000D02*
X166750000Y-108050000D01*
G04 #@! TA.AperFunction,Conductor*
G36*
X169043039Y-145819685D02*
G01*
X169088794Y-145872489D01*
X169100000Y-145924000D01*
X169100000Y-146900000D01*
X169100000Y-150700000D01*
X170600000Y-152200000D01*
X177600000Y-152200000D01*
X180499359Y-149200662D01*
X180500715Y-149199284D01*
X182500000Y-147200000D01*
X182405258Y-146157838D01*
X182418792Y-146089292D01*
X182441062Y-146058937D01*
X182572821Y-145927178D01*
X182634142Y-145893696D01*
X182703834Y-145898680D01*
X182759767Y-145940552D01*
X182784184Y-146006016D01*
X182784500Y-146014862D01*
X182784500Y-152338664D01*
X182764815Y-152405703D01*
X182748181Y-152426345D01*
X178310845Y-156863681D01*
X178249522Y-156897166D01*
X178223164Y-156900000D01*
X168051362Y-156900000D01*
X167984323Y-156880315D01*
X167963681Y-156863681D01*
X167336319Y-156236319D01*
X167302834Y-156174996D01*
X167300000Y-156148638D01*
X167300000Y-155017705D01*
X169134500Y-155017705D01*
X169134500Y-155182294D01*
X169166605Y-155343698D01*
X169166607Y-155343706D01*
X169229587Y-155495755D01*
X169229592Y-155495764D01*
X169321023Y-155632599D01*
X169321026Y-155632603D01*
X169437396Y-155748973D01*
X169437400Y-155748976D01*
X169574235Y-155840407D01*
X169574241Y-155840410D01*
X169574242Y-155840411D01*
X169726294Y-155903393D01*
X169887705Y-155935499D01*
X169887709Y-155935500D01*
X169887710Y-155935500D01*
X170052291Y-155935500D01*
X170052292Y-155935499D01*
X170213706Y-155903393D01*
X170365758Y-155840411D01*
X170502600Y-155748976D01*
X170618976Y-155632600D01*
X170710411Y-155495758D01*
X170773393Y-155343706D01*
X170805500Y-155182290D01*
X170805500Y-155017710D01*
X170805499Y-155017705D01*
X171134500Y-155017705D01*
X171134500Y-155182294D01*
X171166605Y-155343698D01*
X171166607Y-155343706D01*
X171229587Y-155495755D01*
X171229592Y-155495764D01*
X171321023Y-155632599D01*
X171321026Y-155632603D01*
X171437396Y-155748973D01*
X171437400Y-155748976D01*
X171574235Y-155840407D01*
X171574241Y-155840410D01*
X171574242Y-155840411D01*
X171726294Y-155903393D01*
X171887705Y-155935499D01*
X171887709Y-155935500D01*
X171887710Y-155935500D01*
X172052291Y-155935500D01*
X172052292Y-155935499D01*
X172213706Y-155903393D01*
X172365758Y-155840411D01*
X172502600Y-155748976D01*
X172618976Y-155632600D01*
X172710411Y-155495758D01*
X172773393Y-155343706D01*
X172805500Y-155182290D01*
X172805500Y-155017710D01*
X172805499Y-155017705D01*
X173134500Y-155017705D01*
X173134500Y-155182294D01*
X173166605Y-155343698D01*
X173166607Y-155343706D01*
X173229587Y-155495755D01*
X173229592Y-155495764D01*
X173321023Y-155632599D01*
X173321026Y-155632603D01*
X173437396Y-155748973D01*
X173437400Y-155748976D01*
X173574235Y-155840407D01*
X173574241Y-155840410D01*
X173574242Y-155840411D01*
X173726294Y-155903393D01*
X173887705Y-155935499D01*
X173887709Y-155935500D01*
X173887710Y-155935500D01*
X174052291Y-155935500D01*
X174052292Y-155935499D01*
X174213706Y-155903393D01*
X174365758Y-155840411D01*
X174502600Y-155748976D01*
X174618976Y-155632600D01*
X174710411Y-155495758D01*
X174773393Y-155343706D01*
X174805500Y-155182290D01*
X174805500Y-155017710D01*
X174773393Y-154856294D01*
X174710411Y-154704242D01*
X174710410Y-154704241D01*
X174710407Y-154704235D01*
X174618976Y-154567400D01*
X174618973Y-154567396D01*
X174502603Y-154451026D01*
X174502599Y-154451023D01*
X174365764Y-154359592D01*
X174365755Y-154359587D01*
X174213706Y-154296607D01*
X174213698Y-154296605D01*
X174052294Y-154264500D01*
X174052290Y-154264500D01*
X173887710Y-154264500D01*
X173887705Y-154264500D01*
X173726301Y-154296605D01*
X173726293Y-154296607D01*
X173574244Y-154359587D01*
X173574235Y-154359592D01*
X173437400Y-154451023D01*
X173437396Y-154451026D01*
X173321026Y-154567396D01*
X173321023Y-154567400D01*
X173229592Y-154704235D01*
X173229587Y-154704244D01*
X173166607Y-154856293D01*
X173166605Y-154856301D01*
X173134500Y-155017705D01*
X172805499Y-155017705D01*
X172773393Y-154856294D01*
X172710411Y-154704242D01*
X172710410Y-154704241D01*
X172710407Y-154704235D01*
X172618976Y-154567400D01*
X172618973Y-154567396D01*
X172502603Y-154451026D01*
X172502599Y-154451023D01*
X172365764Y-154359592D01*
X172365755Y-154359587D01*
X172213706Y-154296607D01*
X172213698Y-154296605D01*
X172052294Y-154264500D01*
X172052290Y-154264500D01*
X171887710Y-154264500D01*
X171887705Y-154264500D01*
X171726301Y-154296605D01*
X171726293Y-154296607D01*
X171574244Y-154359587D01*
X171574235Y-154359592D01*
X171437400Y-154451023D01*
X171437396Y-154451026D01*
X171321026Y-154567396D01*
X171321023Y-154567400D01*
X171229592Y-154704235D01*
X171229587Y-154704244D01*
X171166607Y-154856293D01*
X171166605Y-154856301D01*
X171134500Y-155017705D01*
X170805499Y-155017705D01*
X170773393Y-154856294D01*
X170710411Y-154704242D01*
X170710410Y-154704241D01*
X170710407Y-154704235D01*
X170618976Y-154567400D01*
X170618973Y-154567396D01*
X170502603Y-154451026D01*
X170502599Y-154451023D01*
X170365764Y-154359592D01*
X170365755Y-154359587D01*
X170213706Y-154296607D01*
X170213698Y-154296605D01*
X170052294Y-154264500D01*
X170052290Y-154264500D01*
X169887710Y-154264500D01*
X169887705Y-154264500D01*
X169726301Y-154296605D01*
X169726293Y-154296607D01*
X169574244Y-154359587D01*
X169574235Y-154359592D01*
X169437400Y-154451023D01*
X169437396Y-154451026D01*
X169321026Y-154567396D01*
X169321023Y-154567400D01*
X169229592Y-154704235D01*
X169229587Y-154704244D01*
X169166607Y-154856293D01*
X169166605Y-154856301D01*
X169134500Y-155017705D01*
X167300000Y-155017705D01*
X167300000Y-150400000D01*
X166336319Y-149436319D01*
X166302834Y-149374996D01*
X166300000Y-149348638D01*
X166300000Y-147151362D01*
X166319685Y-147084323D01*
X166336319Y-147063681D01*
X167563681Y-145836319D01*
X167625004Y-145802834D01*
X167651362Y-145800000D01*
X168976000Y-145800000D01*
X169043039Y-145819685D01*
G37*
G04 #@! TD.AperFunction*
G04 #@! TA.AperFunction,Conductor*
G36*
X187343039Y-145619685D02*
G01*
X187388794Y-145672489D01*
X187400000Y-145724000D01*
X187400000Y-148248638D01*
X187380315Y-148315677D01*
X187363681Y-148336319D01*
X183527181Y-152172819D01*
X183465858Y-152206304D01*
X183396166Y-152201320D01*
X183340233Y-152159448D01*
X183315816Y-152093984D01*
X183315500Y-152085138D01*
X183315500Y-145724000D01*
X183335185Y-145656961D01*
X183387989Y-145611206D01*
X183439500Y-145600000D01*
X187276000Y-145600000D01*
X187343039Y-145619685D01*
G37*
G04 #@! TD.AperFunction*
G04 #@! TA.AperFunction,Conductor*
G36*
X196290203Y-130319685D02*
G01*
X196310845Y-130336319D01*
X197047345Y-131072819D01*
X197080830Y-131134142D01*
X197075846Y-131203834D01*
X197033974Y-131259767D01*
X196968510Y-131284184D01*
X196959664Y-131284500D01*
X194537610Y-131284500D01*
X194470571Y-131264815D01*
X194449929Y-131248181D01*
X194411265Y-131209517D01*
X194411263Y-131209515D01*
X194324664Y-131159517D01*
X194314239Y-131153498D01*
X194314238Y-131153497D01*
X194314237Y-131153497D01*
X194206018Y-131124500D01*
X194093982Y-131124500D01*
X193985763Y-131153497D01*
X193985760Y-131153498D01*
X193888740Y-131209513D01*
X193888734Y-131209517D01*
X193809517Y-131288734D01*
X193809513Y-131288740D01*
X193753498Y-131385760D01*
X193753497Y-131385763D01*
X193724500Y-131493982D01*
X193724500Y-131606018D01*
X193753497Y-131714237D01*
X193809515Y-131811263D01*
X193888737Y-131890485D01*
X193985763Y-131946503D01*
X194093982Y-131975500D01*
X194093984Y-131975500D01*
X194206016Y-131975500D01*
X194206018Y-131975500D01*
X194314237Y-131946503D01*
X194411263Y-131890485D01*
X194449929Y-131851819D01*
X194511252Y-131818334D01*
X194537610Y-131815500D01*
X200214084Y-131815500D01*
X200281123Y-131835185D01*
X200288313Y-131840240D01*
X200288736Y-131840484D01*
X200288737Y-131840485D01*
X200385763Y-131896503D01*
X200493982Y-131925500D01*
X200493984Y-131925500D01*
X200606016Y-131925500D01*
X200606018Y-131925500D01*
X200714237Y-131896503D01*
X200811263Y-131840485D01*
X200890485Y-131761263D01*
X200946503Y-131664237D01*
X200975500Y-131556018D01*
X200975500Y-131443982D01*
X200946503Y-131335763D01*
X200890485Y-131238737D01*
X200811263Y-131159515D01*
X200714237Y-131103497D01*
X200606018Y-131074500D01*
X200493982Y-131074500D01*
X200385763Y-131103497D01*
X200385760Y-131103498D01*
X200288740Y-131159513D01*
X200288734Y-131159517D01*
X200203768Y-131244484D01*
X200202173Y-131242889D01*
X200155194Y-131277191D01*
X200113250Y-131284500D01*
X198140336Y-131284500D01*
X198073297Y-131264815D01*
X198027542Y-131212011D01*
X198017598Y-131142853D01*
X198046623Y-131079297D01*
X198052655Y-131072819D01*
X198186319Y-130939155D01*
X198325080Y-130800394D01*
X198365500Y-130702811D01*
X198365500Y-130597188D01*
X198365500Y-130424000D01*
X198385185Y-130356961D01*
X198437989Y-130311206D01*
X198489500Y-130300000D01*
X203873164Y-130300000D01*
X203940203Y-130319685D01*
X203960845Y-130336319D01*
X204563681Y-130939155D01*
X204597166Y-131000478D01*
X204600000Y-131026836D01*
X204600000Y-134448638D01*
X204580315Y-134515677D01*
X204563681Y-134536319D01*
X198077181Y-141022819D01*
X198015858Y-141056304D01*
X197946166Y-141051320D01*
X197890233Y-141009448D01*
X197865816Y-140943984D01*
X197865500Y-140935138D01*
X197865500Y-138797190D01*
X197865499Y-138797186D01*
X197825080Y-138699607D01*
X197825080Y-138699606D01*
X195911819Y-136786345D01*
X195878334Y-136725022D01*
X195875500Y-136698664D01*
X195875500Y-136643984D01*
X195875500Y-136643982D01*
X195846503Y-136535763D01*
X195790485Y-136438737D01*
X195711263Y-136359515D01*
X195614237Y-136303497D01*
X195506018Y-136274500D01*
X195393982Y-136274500D01*
X195285763Y-136303497D01*
X195285760Y-136303498D01*
X195188740Y-136359513D01*
X195188734Y-136359517D01*
X195109517Y-136438734D01*
X195109513Y-136438740D01*
X195053498Y-136535760D01*
X195053497Y-136535763D01*
X195024500Y-136643982D01*
X195024500Y-136756018D01*
X195053497Y-136864237D01*
X195109515Y-136961263D01*
X195188737Y-137040485D01*
X195285763Y-137096503D01*
X195393982Y-137125500D01*
X195448664Y-137125500D01*
X195515703Y-137145185D01*
X195536345Y-137161819D01*
X197298181Y-138923655D01*
X197331666Y-138984978D01*
X197334500Y-139011336D01*
X197334500Y-141714138D01*
X197314815Y-141781177D01*
X197298181Y-141801819D01*
X192900000Y-146199999D01*
X192900000Y-150148638D01*
X192880315Y-150215677D01*
X192863681Y-150236319D01*
X189836319Y-153263681D01*
X189774996Y-153297166D01*
X189748638Y-153300000D01*
X184024000Y-153300000D01*
X183956961Y-153280315D01*
X183911206Y-153227511D01*
X183900000Y-153176000D01*
X183900000Y-152141982D01*
X183919685Y-152074943D01*
X183936319Y-152054301D01*
X184954301Y-151036319D01*
X185015624Y-151002834D01*
X185041982Y-151000000D01*
X185500000Y-151000000D01*
X187300000Y-149200000D01*
X187300000Y-148741982D01*
X187319685Y-148674943D01*
X187336319Y-148654301D01*
X187508987Y-148481633D01*
X187523674Y-148465283D01*
X187523693Y-148465262D01*
X187540327Y-148444620D01*
X187577490Y-148373575D01*
X187597175Y-148306536D01*
X187605500Y-148248638D01*
X187605500Y-146845862D01*
X187625185Y-146778823D01*
X187641819Y-146758181D01*
X188200000Y-146200000D01*
X188200000Y-144851362D01*
X188219685Y-144784323D01*
X188236319Y-144763681D01*
X188600000Y-144400000D01*
X188600000Y-130424000D01*
X188619685Y-130356961D01*
X188672489Y-130311206D01*
X188724000Y-130300000D01*
X196223164Y-130300000D01*
X196290203Y-130319685D01*
G37*
G04 #@! TD.AperFunction*
G04 #@! TA.AperFunction,Conductor*
G36*
X193124501Y-98668675D02*
G01*
X194820317Y-100364491D01*
X194924183Y-100424458D01*
X194924185Y-100424458D01*
X194927328Y-100426273D01*
X194947832Y-100442006D01*
X195150504Y-100644678D01*
X195178281Y-100699195D01*
X195179500Y-100714682D01*
X195179500Y-109794692D01*
X195160593Y-109852883D01*
X195157037Y-109857486D01*
X195156913Y-109857636D01*
X195089549Y-109958452D01*
X195089549Y-109958453D01*
X195043153Y-110070463D01*
X195043153Y-110070465D01*
X195019500Y-110189376D01*
X195019500Y-110310623D01*
X195043153Y-110429534D01*
X195043153Y-110429536D01*
X195089549Y-110541546D01*
X195089549Y-110541547D01*
X195156909Y-110642357D01*
X195156910Y-110642358D01*
X195242642Y-110728090D01*
X195343451Y-110795449D01*
X195455465Y-110841847D01*
X195574379Y-110865500D01*
X195574380Y-110865500D01*
X195695620Y-110865500D01*
X195695621Y-110865500D01*
X195814535Y-110841847D01*
X195926549Y-110795449D01*
X196027358Y-110728090D01*
X196113090Y-110642358D01*
X196180449Y-110541549D01*
X196226847Y-110429535D01*
X196250500Y-110310621D01*
X196250500Y-110189379D01*
X196226847Y-110070465D01*
X196180450Y-109958453D01*
X196180450Y-109958452D01*
X196113086Y-109857636D01*
X196112963Y-109857486D01*
X196112930Y-109857403D01*
X196110388Y-109853598D01*
X196111223Y-109853039D01*
X196090671Y-109800506D01*
X196090500Y-109794692D01*
X196090500Y-104180750D01*
X196109407Y-104122559D01*
X196158907Y-104086595D01*
X196170186Y-104083652D01*
X196229535Y-104071847D01*
X196341549Y-104025449D01*
X196442358Y-103958090D01*
X196528090Y-103872358D01*
X196595449Y-103771549D01*
X196641847Y-103659535D01*
X196665500Y-103540621D01*
X196665500Y-103419379D01*
X196641847Y-103300465D01*
X196596732Y-103191549D01*
X196595450Y-103188453D01*
X196595450Y-103188452D01*
X196528090Y-103087642D01*
X196442357Y-103001909D01*
X196341546Y-102934549D01*
X196229536Y-102888153D01*
X196229526Y-102888150D01*
X196170185Y-102876346D01*
X196116801Y-102846449D01*
X196091186Y-102790884D01*
X196090500Y-102779249D01*
X196090500Y-100890483D01*
X196109407Y-100832292D01*
X196158907Y-100796328D01*
X196220093Y-100796328D01*
X196269593Y-100832292D01*
X196286598Y-100871169D01*
X196308153Y-100979534D01*
X196308153Y-100979536D01*
X196354549Y-101091546D01*
X196354549Y-101091547D01*
X196421909Y-101192357D01*
X196421910Y-101192358D01*
X196507642Y-101278090D01*
X196608451Y-101345449D01*
X196720465Y-101391847D01*
X196839379Y-101415500D01*
X196839380Y-101415500D01*
X196960620Y-101415500D01*
X196960621Y-101415500D01*
X197079535Y-101391847D01*
X197191549Y-101345449D01*
X197292358Y-101278090D01*
X197378090Y-101192358D01*
X197445449Y-101091549D01*
X197491847Y-100979535D01*
X197515500Y-100860621D01*
X197515500Y-100854500D01*
X197534407Y-100796309D01*
X197583907Y-100760345D01*
X197614500Y-100755500D01*
X198935044Y-100755500D01*
X198993235Y-100774407D01*
X199029199Y-100823907D01*
X199029199Y-100885093D01*
X199005048Y-100924504D01*
X198921909Y-101007642D01*
X198854549Y-101108452D01*
X198854549Y-101108453D01*
X198808153Y-101220463D01*
X198808153Y-101220465D01*
X198784500Y-101339376D01*
X198784500Y-101460623D01*
X198808153Y-101579534D01*
X198808153Y-101579536D01*
X198854549Y-101691546D01*
X198854549Y-101691547D01*
X198921909Y-101792357D01*
X198922029Y-101792503D01*
X198922060Y-101792583D01*
X198924612Y-101796402D01*
X198923774Y-101796961D01*
X198944328Y-101849480D01*
X198944500Y-101855307D01*
X198944500Y-123970318D01*
X198925593Y-124028509D01*
X198915504Y-124040322D01*
X197185508Y-125770318D01*
X197154250Y-125824459D01*
X197125542Y-125874182D01*
X197125540Y-125874187D01*
X197094500Y-125990029D01*
X197094500Y-129744692D01*
X197077490Y-129800178D01*
X197073545Y-129806006D01*
X197071910Y-129807642D01*
X197030637Y-129869410D01*
X197030419Y-129869733D01*
X197006513Y-129888350D01*
X196982693Y-129907128D01*
X196982387Y-129907140D01*
X196982146Y-129907328D01*
X196951866Y-129908339D01*
X196921555Y-129909530D01*
X196921266Y-129909360D01*
X196920995Y-129909370D01*
X196919138Y-129908113D01*
X196878425Y-129884251D01*
X192234496Y-125240322D01*
X192206719Y-125185805D01*
X192205500Y-125170318D01*
X192205500Y-121328686D01*
X192449500Y-121328686D01*
X192449500Y-121671313D01*
X192487860Y-122011781D01*
X192564103Y-122345820D01*
X192677263Y-122669213D01*
X192677264Y-122669215D01*
X192825916Y-122977895D01*
X192825920Y-122977902D01*
X192825924Y-122977910D01*
X193008211Y-123268018D01*
X193221834Y-123535893D01*
X193464107Y-123778166D01*
X193731982Y-123991789D01*
X194022090Y-124174076D01*
X194022101Y-124174081D01*
X194022104Y-124174083D01*
X194053867Y-124189379D01*
X194330785Y-124322736D01*
X194481753Y-124375561D01*
X194654179Y-124435896D01*
X194654182Y-124435896D01*
X194654183Y-124435897D01*
X194988217Y-124512139D01*
X195328688Y-124550500D01*
X195328689Y-124550500D01*
X195671311Y-124550500D01*
X195671312Y-124550500D01*
X196011783Y-124512139D01*
X196345817Y-124435897D01*
X196669215Y-124322736D01*
X196977910Y-124174076D01*
X197268018Y-123991789D01*
X197535893Y-123778166D01*
X197778166Y-123535893D01*
X197991789Y-123268018D01*
X198174076Y-122977910D01*
X198322736Y-122669215D01*
X198435897Y-122345817D01*
X198512139Y-122011783D01*
X198550500Y-121671312D01*
X198550500Y-121328688D01*
X198512139Y-120988217D01*
X198435897Y-120654183D01*
X198322736Y-120330785D01*
X198222146Y-120121909D01*
X198174083Y-120022104D01*
X198174081Y-120022101D01*
X198174076Y-120022090D01*
X197991789Y-119731982D01*
X197778166Y-119464107D01*
X197535893Y-119221834D01*
X197268018Y-119008211D01*
X196977910Y-118825924D01*
X196977902Y-118825920D01*
X196977895Y-118825916D01*
X196669215Y-118677264D01*
X196669213Y-118677263D01*
X196345820Y-118564103D01*
X196011781Y-118487860D01*
X195671313Y-118449500D01*
X195671312Y-118449500D01*
X195328688Y-118449500D01*
X195328686Y-118449500D01*
X194988218Y-118487860D01*
X194654179Y-118564103D01*
X194330786Y-118677263D01*
X194330784Y-118677264D01*
X194022104Y-118825916D01*
X194022092Y-118825923D01*
X193731981Y-119008211D01*
X193464108Y-119221833D01*
X193221833Y-119464108D01*
X193008211Y-119731981D01*
X192878791Y-119937951D01*
X192849544Y-119984500D01*
X192825923Y-120022092D01*
X192825916Y-120022104D01*
X192677264Y-120330784D01*
X192677263Y-120330786D01*
X192564103Y-120654179D01*
X192487860Y-120988218D01*
X192449500Y-121328686D01*
X192205500Y-121328686D01*
X192205500Y-102165893D01*
X192224407Y-102107702D01*
X192273907Y-102071738D01*
X192335093Y-102071738D01*
X192384593Y-102107702D01*
X192401597Y-102146578D01*
X192408153Y-102179534D01*
X192408153Y-102179536D01*
X192454549Y-102291546D01*
X192454549Y-102291547D01*
X192521909Y-102392357D01*
X192521910Y-102392358D01*
X192607642Y-102478090D01*
X192708451Y-102545449D01*
X192820465Y-102591847D01*
X192939379Y-102615500D01*
X192939380Y-102615500D01*
X193060620Y-102615500D01*
X193060621Y-102615500D01*
X193179535Y-102591847D01*
X193291549Y-102545449D01*
X193392358Y-102478090D01*
X193478090Y-102392358D01*
X193545449Y-102291549D01*
X193591847Y-102179535D01*
X193615500Y-102060621D01*
X193615500Y-101939379D01*
X193591847Y-101820465D01*
X193545450Y-101708453D01*
X193545450Y-101708452D01*
X193478090Y-101607642D01*
X193392357Y-101521909D01*
X193291546Y-101454549D01*
X193179535Y-101408153D01*
X193060616Y-101384498D01*
X193060435Y-101384481D01*
X193060358Y-101384447D01*
X193055851Y-101383551D01*
X193055851Y-101383549D01*
X193054653Y-101383739D01*
X193029858Y-101371105D01*
X193004378Y-101359960D01*
X193000136Y-101355962D01*
X192984496Y-101340322D01*
X192956719Y-101285805D01*
X192955500Y-101270318D01*
X192955500Y-98738681D01*
X192974407Y-98680490D01*
X193023907Y-98644526D01*
X193085093Y-98644526D01*
X193124501Y-98668675D01*
G37*
G04 #@! TD.AperFunction*
G04 #@! TA.AperFunction,Conductor*
G36*
X161323321Y-70518907D02*
G01*
X161359285Y-70568407D01*
X161359285Y-70629593D01*
X161323321Y-70679093D01*
X161308087Y-70688194D01*
X161291292Y-70696283D01*
X161022097Y-70825920D01*
X161022091Y-70825923D01*
X161022090Y-70825924D01*
X160941508Y-70876557D01*
X160731981Y-71008211D01*
X160464108Y-71221833D01*
X160221833Y-71464108D01*
X160008211Y-71731981D01*
X159825923Y-72022092D01*
X159825916Y-72022104D01*
X159677264Y-72330784D01*
X159677263Y-72330786D01*
X159564103Y-72654179D01*
X159487860Y-72988218D01*
X159449500Y-73328686D01*
X159449500Y-73671313D01*
X159487860Y-74011781D01*
X159564103Y-74345820D01*
X159677263Y-74669213D01*
X159677264Y-74669215D01*
X159825916Y-74977895D01*
X159825920Y-74977902D01*
X159825924Y-74977910D01*
X160008211Y-75268018D01*
X160221834Y-75535893D01*
X160464107Y-75778166D01*
X160731982Y-75991789D01*
X161022090Y-76174076D01*
X161022101Y-76174081D01*
X161022104Y-76174083D01*
X161124660Y-76223471D01*
X161330785Y-76322736D01*
X161481753Y-76375561D01*
X161654179Y-76435896D01*
X161654182Y-76435896D01*
X161654183Y-76435897D01*
X161988217Y-76512139D01*
X162328688Y-76550500D01*
X162328689Y-76550500D01*
X162671311Y-76550500D01*
X162671312Y-76550500D01*
X163011783Y-76512139D01*
X163345817Y-76435897D01*
X163669215Y-76322736D01*
X163977910Y-76174076D01*
X164268018Y-75991789D01*
X164535893Y-75778166D01*
X164778166Y-75535893D01*
X164991789Y-75268018D01*
X165174076Y-74977910D01*
X165322736Y-74669215D01*
X165435897Y-74345817D01*
X165512139Y-74011783D01*
X165550500Y-73671312D01*
X165550500Y-73328688D01*
X165512139Y-72988217D01*
X165435897Y-72654183D01*
X165418407Y-72604200D01*
X165342908Y-72388435D01*
X165322736Y-72330785D01*
X165174076Y-72022090D01*
X164991789Y-71731982D01*
X164778166Y-71464107D01*
X164535893Y-71221834D01*
X164268018Y-71008211D01*
X163977910Y-70825924D01*
X163691914Y-70688195D01*
X163647691Y-70645913D01*
X163636766Y-70585711D01*
X163663313Y-70530585D01*
X163717193Y-70501591D01*
X163734870Y-70500000D01*
X175901000Y-70500000D01*
X175959191Y-70518907D01*
X175995155Y-70568407D01*
X176000000Y-70599000D01*
X176000000Y-76500000D01*
X191999999Y-76500000D01*
X192000000Y-76500000D01*
X192000000Y-70599000D01*
X192018907Y-70540809D01*
X192068407Y-70504845D01*
X192099000Y-70500000D01*
X194265130Y-70500000D01*
X194323321Y-70518907D01*
X194359285Y-70568407D01*
X194359285Y-70629593D01*
X194323321Y-70679093D01*
X194308087Y-70688194D01*
X194291292Y-70696283D01*
X194022097Y-70825920D01*
X194022091Y-70825923D01*
X194022090Y-70825924D01*
X193941508Y-70876557D01*
X193731981Y-71008211D01*
X193464108Y-71221833D01*
X193221833Y-71464108D01*
X193008211Y-71731981D01*
X192825923Y-72022092D01*
X192825916Y-72022104D01*
X192677264Y-72330784D01*
X192677263Y-72330786D01*
X192564103Y-72654179D01*
X192487860Y-72988218D01*
X192449500Y-73328686D01*
X192449500Y-73671313D01*
X192487860Y-74011781D01*
X192564103Y-74345820D01*
X192677263Y-74669213D01*
X192677264Y-74669215D01*
X192825916Y-74977895D01*
X192825920Y-74977902D01*
X192825924Y-74977910D01*
X193008211Y-75268018D01*
X193221834Y-75535893D01*
X193464107Y-75778166D01*
X193731982Y-75991789D01*
X194022090Y-76174076D01*
X194022101Y-76174081D01*
X194022104Y-76174083D01*
X194124660Y-76223471D01*
X194330785Y-76322736D01*
X194481753Y-76375561D01*
X194654179Y-76435896D01*
X194654182Y-76435896D01*
X194654183Y-76435897D01*
X194988217Y-76512139D01*
X195328688Y-76550500D01*
X195328689Y-76550500D01*
X195671311Y-76550500D01*
X195671312Y-76550500D01*
X196011783Y-76512139D01*
X196345817Y-76435897D01*
X196669215Y-76322736D01*
X196977910Y-76174076D01*
X197268018Y-75991789D01*
X197535893Y-75778166D01*
X197778166Y-75535893D01*
X197991789Y-75268018D01*
X198174076Y-74977910D01*
X198322736Y-74669215D01*
X198435897Y-74345817D01*
X198512139Y-74011783D01*
X198550500Y-73671312D01*
X198550500Y-73328688D01*
X198512139Y-72988217D01*
X198435897Y-72654183D01*
X198418407Y-72604200D01*
X198342908Y-72388435D01*
X198322736Y-72330785D01*
X198174076Y-72022090D01*
X197991789Y-71731982D01*
X197778166Y-71464107D01*
X197535893Y-71221834D01*
X197268018Y-71008211D01*
X196977910Y-70825924D01*
X196691914Y-70688195D01*
X196647691Y-70645913D01*
X196636766Y-70585711D01*
X196663313Y-70530585D01*
X196717193Y-70501591D01*
X196734870Y-70500000D01*
X233918453Y-70500000D01*
X233976644Y-70518907D01*
X234012608Y-70568407D01*
X234012608Y-70629593D01*
X233976644Y-70679093D01*
X233951151Y-70692444D01*
X233794100Y-70747398D01*
X233794097Y-70747399D01*
X233525897Y-70876557D01*
X233525885Y-70876564D01*
X233273814Y-71034950D01*
X233041062Y-71220565D01*
X232830565Y-71431062D01*
X232644950Y-71663814D01*
X232486564Y-71915885D01*
X232486557Y-71915897D01*
X232357399Y-72184097D01*
X232357398Y-72184100D01*
X232259076Y-72465087D01*
X232192832Y-72755322D01*
X232192831Y-72755328D01*
X232159500Y-73051134D01*
X232159500Y-73348865D01*
X232192831Y-73644671D01*
X232192832Y-73644677D01*
X232259076Y-73934912D01*
X232357398Y-74215899D01*
X232357399Y-74215902D01*
X232486557Y-74484102D01*
X232486561Y-74484109D01*
X232486565Y-74484117D01*
X232644950Y-74736185D01*
X232830562Y-74968934D01*
X233041066Y-75179438D01*
X233273815Y-75365050D01*
X233525883Y-75523435D01*
X233525894Y-75523440D01*
X233525897Y-75523442D01*
X233551748Y-75535891D01*
X233794099Y-75652601D01*
X233925270Y-75698499D01*
X234075087Y-75750923D01*
X234075090Y-75750923D01*
X234075091Y-75750924D01*
X234365325Y-75817168D01*
X234445096Y-75826156D01*
X234661134Y-75850499D01*
X234661150Y-75850499D01*
X234661151Y-75850500D01*
X234661152Y-75850500D01*
X234958848Y-75850500D01*
X234958849Y-75850500D01*
X234958850Y-75850499D01*
X234958865Y-75850499D01*
X235148312Y-75829152D01*
X235254675Y-75817168D01*
X235544909Y-75750924D01*
X235825901Y-75652601D01*
X236094117Y-75523435D01*
X236346185Y-75365050D01*
X236578934Y-75179438D01*
X236789438Y-74968934D01*
X236975050Y-74736185D01*
X237133435Y-74484117D01*
X237262601Y-74215901D01*
X237360924Y-73934909D01*
X237427168Y-73644675D01*
X237440594Y-73525521D01*
X237460499Y-73348865D01*
X237460500Y-73348848D01*
X237460500Y-73051151D01*
X237460499Y-73051134D01*
X237427168Y-72755328D01*
X237427167Y-72755322D01*
X237426073Y-72750527D01*
X237406583Y-72665136D01*
X237412068Y-72604200D01*
X237452323Y-72558123D01*
X237511975Y-72544507D01*
X237568237Y-72568555D01*
X237573105Y-72573105D01*
X238471004Y-73471004D01*
X238498781Y-73525521D01*
X238500000Y-73541008D01*
X238500000Y-156458992D01*
X238481093Y-156517183D01*
X238471004Y-156528996D01*
X235528996Y-159471004D01*
X235474479Y-159498781D01*
X235458992Y-159500000D01*
X122112591Y-159500000D01*
X122054400Y-159481093D01*
X122018436Y-159431593D01*
X122018436Y-159370407D01*
X122054400Y-159320907D01*
X122081999Y-159306845D01*
X122118891Y-159294858D01*
X122181187Y-159274617D01*
X122355164Y-159185971D01*
X122513132Y-159071201D01*
X122651201Y-158933132D01*
X122765971Y-158775164D01*
X122854617Y-158601187D01*
X122914955Y-158415484D01*
X122945500Y-158222629D01*
X122945500Y-158027371D01*
X122945500Y-158027367D01*
X122919926Y-157865901D01*
X122914955Y-157834516D01*
X122854617Y-157648813D01*
X122765971Y-157474836D01*
X122651201Y-157316868D01*
X122513132Y-157178799D01*
X122355164Y-157064029D01*
X122355163Y-157064028D01*
X122355161Y-157064027D01*
X122181185Y-156975382D01*
X122100465Y-156949155D01*
X122050965Y-156913191D01*
X122032057Y-156855000D01*
X122050964Y-156796810D01*
X122100464Y-156760846D01*
X122100465Y-156760845D01*
X122118740Y-156754907D01*
X122181187Y-156734617D01*
X122355164Y-156645971D01*
X122513132Y-156531201D01*
X122651201Y-156393132D01*
X122765971Y-156235164D01*
X122854617Y-156061187D01*
X122914955Y-155875484D01*
X122936168Y-155741549D01*
X122945500Y-155682632D01*
X122945500Y-155487367D01*
X122925136Y-155358801D01*
X122914955Y-155294516D01*
X122854617Y-155108813D01*
X122819237Y-155039376D01*
X142994500Y-155039376D01*
X142994500Y-155160623D01*
X143018153Y-155279534D01*
X143018153Y-155279536D01*
X143064549Y-155391546D01*
X143064549Y-155391547D01*
X143131909Y-155492357D01*
X143131910Y-155492358D01*
X143217642Y-155578090D01*
X143318451Y-155645449D01*
X143430465Y-155691847D01*
X143549379Y-155715500D01*
X143549380Y-155715500D01*
X143670620Y-155715500D01*
X143670621Y-155715500D01*
X143789535Y-155691847D01*
X143901549Y-155645449D01*
X144002358Y-155578090D01*
X144088090Y-155492358D01*
X144155449Y-155391549D01*
X144201847Y-155279535D01*
X144225500Y-155160621D01*
X144225500Y-155039379D01*
X144201847Y-154920465D01*
X144155450Y-154808453D01*
X144155450Y-154808452D01*
X144088090Y-154707642D01*
X144002357Y-154621909D01*
X143901546Y-154554549D01*
X143789535Y-154508153D01*
X143670623Y-154484500D01*
X143670621Y-154484500D01*
X143549379Y-154484500D01*
X143549376Y-154484500D01*
X143430465Y-154508153D01*
X143430463Y-154508153D01*
X143318453Y-154554549D01*
X143318452Y-154554549D01*
X143217642Y-154621909D01*
X143131909Y-154707642D01*
X143064549Y-154808452D01*
X143064549Y-154808453D01*
X143018153Y-154920463D01*
X143018153Y-154920465D01*
X142994500Y-155039376D01*
X122819237Y-155039376D01*
X122765971Y-154934836D01*
X122651201Y-154776868D01*
X122513132Y-154638799D01*
X122355164Y-154524029D01*
X122355163Y-154524028D01*
X122355161Y-154524027D01*
X122181185Y-154435382D01*
X121995481Y-154375044D01*
X121802632Y-154344500D01*
X121802629Y-154344500D01*
X121607371Y-154344500D01*
X121607368Y-154344500D01*
X121414518Y-154375044D01*
X121228814Y-154435382D01*
X121054838Y-154524027D01*
X121012826Y-154554551D01*
X120896868Y-154638799D01*
X120758799Y-154776868D01*
X120722300Y-154827105D01*
X120644026Y-154934839D01*
X120644025Y-154934841D01*
X120589145Y-155042549D01*
X120545880Y-155085813D01*
X120485448Y-155095384D01*
X120430932Y-155067606D01*
X120412726Y-155042548D01*
X120326466Y-154873253D01*
X120326462Y-154873247D01*
X120200828Y-154700328D01*
X120049671Y-154549171D01*
X119876752Y-154423537D01*
X119876746Y-154423533D01*
X119686289Y-154326491D01*
X119482996Y-154260438D01*
X119419000Y-154250301D01*
X119419000Y-155154297D01*
X119357993Y-155119075D01*
X119230826Y-155085000D01*
X119099174Y-155085000D01*
X118972007Y-155119075D01*
X118911000Y-155154297D01*
X118911000Y-154250302D01*
X118910999Y-154250301D01*
X118847003Y-154260438D01*
X118643710Y-154326491D01*
X118453253Y-154423533D01*
X118453247Y-154423537D01*
X118280328Y-154549171D01*
X118129171Y-154700328D01*
X118003537Y-154873247D01*
X118003527Y-154873263D01*
X117917272Y-155042548D01*
X117874008Y-155085813D01*
X117813576Y-155095384D01*
X117759059Y-155067606D01*
X117740853Y-155042548D01*
X117685972Y-154934838D01*
X117685971Y-154934836D01*
X117571201Y-154776868D01*
X117433132Y-154638799D01*
X117275164Y-154524029D01*
X117275163Y-154524028D01*
X117275161Y-154524027D01*
X117101185Y-154435382D01*
X116915481Y-154375044D01*
X116722632Y-154344500D01*
X116722629Y-154344500D01*
X116527371Y-154344500D01*
X116527368Y-154344500D01*
X116334518Y-154375044D01*
X116148814Y-154435382D01*
X115974838Y-154524027D01*
X115932826Y-154554551D01*
X115816868Y-154638799D01*
X115678799Y-154776868D01*
X115636927Y-154834500D01*
X115564027Y-154934838D01*
X115475382Y-155108814D01*
X115415044Y-155294518D01*
X115384500Y-155487367D01*
X115384500Y-155682632D01*
X115415044Y-155875481D01*
X115475382Y-156061185D01*
X115564026Y-156235160D01*
X115564029Y-156235164D01*
X115678799Y-156393132D01*
X115816868Y-156531201D01*
X115974836Y-156645971D01*
X116075557Y-156697291D01*
X116118821Y-156740555D01*
X116128392Y-156800987D01*
X116100615Y-156855503D01*
X116046098Y-156883281D01*
X116030611Y-156884500D01*
X115744262Y-156884500D01*
X115652825Y-156898983D01*
X115652821Y-156898984D01*
X115542610Y-156955140D01*
X115455140Y-157042610D01*
X115398983Y-157152823D01*
X115384500Y-157244263D01*
X115384500Y-159005737D01*
X115398983Y-159097174D01*
X115398984Y-159097178D01*
X115453186Y-159203554D01*
X115455141Y-159207391D01*
X115542609Y-159294859D01*
X115577803Y-159312791D01*
X115621067Y-159356055D01*
X115630638Y-159416487D01*
X115602860Y-159471004D01*
X115548344Y-159498781D01*
X115532857Y-159500000D01*
X110784439Y-159500000D01*
X110726248Y-159481093D01*
X110690284Y-159431593D01*
X110690284Y-159370407D01*
X110726248Y-159320907D01*
X110751741Y-159307556D01*
X110755532Y-159306229D01*
X110765901Y-159302601D01*
X111034117Y-159173435D01*
X111286185Y-159015050D01*
X111518934Y-158829438D01*
X111729438Y-158618934D01*
X111915050Y-158386185D01*
X112073435Y-158134117D01*
X112202601Y-157865901D01*
X112300924Y-157584909D01*
X112367168Y-157294675D01*
X112381031Y-157171636D01*
X112400499Y-156998865D01*
X112400500Y-156998848D01*
X112400500Y-156701151D01*
X112400499Y-156701134D01*
X112368874Y-156420465D01*
X112367168Y-156405325D01*
X112300924Y-156115091D01*
X112296480Y-156102392D01*
X112217081Y-155875481D01*
X112202601Y-155834099D01*
X112128238Y-155679682D01*
X112073442Y-155565897D01*
X112073440Y-155565894D01*
X112073435Y-155565883D01*
X111915050Y-155313815D01*
X111729438Y-155081066D01*
X111518934Y-154870562D01*
X111286185Y-154684950D01*
X111034117Y-154526565D01*
X111034109Y-154526561D01*
X111034102Y-154526557D01*
X110765902Y-154397399D01*
X110765899Y-154397398D01*
X110484912Y-154299076D01*
X110194677Y-154232832D01*
X110194671Y-154232831D01*
X109898865Y-154199500D01*
X109898849Y-154199500D01*
X109601151Y-154199500D01*
X109601134Y-154199500D01*
X109305328Y-154232831D01*
X109305322Y-154232832D01*
X109015087Y-154299076D01*
X108734100Y-154397398D01*
X108734097Y-154397399D01*
X108465897Y-154526557D01*
X108465885Y-154526564D01*
X108213814Y-154684950D01*
X107981062Y-154870565D01*
X107770565Y-155081062D01*
X107770562Y-155081066D01*
X107708849Y-155158452D01*
X107676401Y-155199140D01*
X107625337Y-155232846D01*
X107564214Y-155230101D01*
X107516377Y-155191952D01*
X107500000Y-155137414D01*
X107500000Y-148739376D01*
X130984500Y-148739376D01*
X130984500Y-148860623D01*
X131008153Y-148979534D01*
X131008153Y-148979536D01*
X131054549Y-149091546D01*
X131054549Y-149091547D01*
X131121909Y-149192357D01*
X131121910Y-149192358D01*
X131207642Y-149278090D01*
X131308451Y-149345449D01*
X131420465Y-149391847D01*
X131539379Y-149415500D01*
X131539380Y-149415500D01*
X131660620Y-149415500D01*
X131660621Y-149415500D01*
X131779535Y-149391847D01*
X131841708Y-149366093D01*
X131902701Y-149361293D01*
X131954870Y-149393262D01*
X131961903Y-149402552D01*
X132021910Y-149492358D01*
X132107642Y-149578090D01*
X132208451Y-149645449D01*
X132320465Y-149691847D01*
X132439379Y-149715500D01*
X132439380Y-149715500D01*
X132560620Y-149715500D01*
X132560621Y-149715500D01*
X132679535Y-149691847D01*
X132791549Y-149645449D01*
X132892358Y-149578090D01*
X132911055Y-149559393D01*
X132965571Y-149531614D01*
X133026003Y-149541184D01*
X133036062Y-149547080D01*
X133054490Y-149559393D01*
X133108451Y-149595449D01*
X133220415Y-149641826D01*
X133266940Y-149681561D01*
X133281224Y-149741056D01*
X133257810Y-149797584D01*
X133252533Y-149803292D01*
X132785508Y-150270317D01*
X132752722Y-150327104D01*
X132752723Y-150327105D01*
X132725541Y-150374185D01*
X132694500Y-150490029D01*
X132694500Y-151094692D01*
X132675593Y-151152883D01*
X132672037Y-151157486D01*
X132671913Y-151157636D01*
X132604549Y-151258452D01*
X132604549Y-151258453D01*
X132558153Y-151370463D01*
X132558153Y-151370465D01*
X132534500Y-151489376D01*
X132534500Y-151489379D01*
X132534500Y-151610621D01*
X132555439Y-151715893D01*
X132558153Y-151729534D01*
X132558153Y-151729536D01*
X132604549Y-151841546D01*
X132604549Y-151841547D01*
X132671909Y-151942357D01*
X132671910Y-151942358D01*
X132757642Y-152028090D01*
X132858451Y-152095449D01*
X132970465Y-152141847D01*
X133089379Y-152165500D01*
X133089380Y-152165500D01*
X133210620Y-152165500D01*
X133210621Y-152165500D01*
X133329535Y-152141847D01*
X133441549Y-152095449D01*
X133542358Y-152028090D01*
X133628090Y-151942358D01*
X133695449Y-151841549D01*
X133741847Y-151729535D01*
X133765500Y-151610621D01*
X133765500Y-151489379D01*
X133741847Y-151370465D01*
X133706657Y-151285509D01*
X133695450Y-151258453D01*
X133695450Y-151258452D01*
X133628086Y-151157636D01*
X133627963Y-151157486D01*
X133627930Y-151157403D01*
X133625388Y-151153598D01*
X133626223Y-151153039D01*
X133605671Y-151100506D01*
X133605500Y-151094692D01*
X133605500Y-150779682D01*
X133607968Y-150772084D01*
X133606719Y-150764195D01*
X133617243Y-150743539D01*
X133624407Y-150721491D01*
X133634496Y-150709678D01*
X133759678Y-150584496D01*
X133814195Y-150556719D01*
X133829682Y-150555500D01*
X139609969Y-150555500D01*
X139609969Y-150555499D01*
X139725816Y-150524458D01*
X139829683Y-150464490D01*
X139914490Y-150379683D01*
X139974458Y-150275816D01*
X140005500Y-150159968D01*
X140005500Y-140655307D01*
X140024407Y-140597116D01*
X140027971Y-140592503D01*
X140028085Y-140592362D01*
X140028090Y-140592358D01*
X140095449Y-140491549D01*
X140141847Y-140379535D01*
X140165500Y-140260621D01*
X140165500Y-140139379D01*
X140141847Y-140020465D01*
X140095450Y-139908453D01*
X140095450Y-139908452D01*
X140028086Y-139807636D01*
X140027963Y-139807486D01*
X140027930Y-139807403D01*
X140025388Y-139803598D01*
X140026223Y-139803039D01*
X140005671Y-139750506D01*
X140005500Y-139744692D01*
X140005500Y-117779681D01*
X140024407Y-117721490D01*
X140034490Y-117709683D01*
X149804796Y-107939376D01*
X152134500Y-107939376D01*
X152134500Y-108060623D01*
X152158153Y-108179534D01*
X152158153Y-108179536D01*
X152204549Y-108291546D01*
X152204549Y-108291547D01*
X152271909Y-108392357D01*
X152272029Y-108392503D01*
X152272060Y-108392583D01*
X152274612Y-108396402D01*
X152273774Y-108396961D01*
X152294328Y-108449480D01*
X152294500Y-108455307D01*
X152294500Y-130884970D01*
X152314596Y-130959966D01*
X152314596Y-130959967D01*
X152325541Y-131000813D01*
X152325542Y-131000816D01*
X152385509Y-131104683D01*
X155670316Y-134389491D01*
X155772763Y-134448638D01*
X155774183Y-134449458D01*
X155798667Y-134456018D01*
X155798669Y-134456018D01*
X155890032Y-134480500D01*
X159345318Y-134480500D01*
X159403509Y-134499407D01*
X159415322Y-134509496D01*
X160170317Y-135264491D01*
X160170319Y-135264492D01*
X160267000Y-135320311D01*
X160267006Y-135320314D01*
X160267010Y-135320316D01*
X160274184Y-135324458D01*
X160390029Y-135355499D01*
X160390031Y-135355500D01*
X160390032Y-135355500D01*
X160620318Y-135355500D01*
X160678509Y-135374407D01*
X160690322Y-135384496D01*
X161065504Y-135759678D01*
X161093281Y-135814195D01*
X161094500Y-135829682D01*
X161094500Y-140709970D01*
X161114010Y-140782782D01*
X161114012Y-140782786D01*
X161116440Y-140791847D01*
X161125542Y-140825816D01*
X161183041Y-140925408D01*
X161184611Y-140928652D01*
X161186367Y-140941430D01*
X161194500Y-140971782D01*
X161194500Y-157359968D01*
X161203272Y-157392705D01*
X161225279Y-157474838D01*
X161225284Y-157474855D01*
X161225283Y-157474855D01*
X161225540Y-157475812D01*
X161225541Y-157475814D01*
X161225542Y-157475816D01*
X161285509Y-157579683D01*
X162420316Y-158714491D01*
X162508667Y-158765500D01*
X162524183Y-158774458D01*
X162548667Y-158781018D01*
X162548669Y-158781018D01*
X162640032Y-158805500D01*
X177259969Y-158805500D01*
X177259969Y-158805499D01*
X177375816Y-158774458D01*
X177391332Y-158765500D01*
X177479683Y-158714491D01*
X178953208Y-157240964D01*
X179007723Y-157213189D01*
X179065618Y-157221513D01*
X179146368Y-157259794D01*
X179163957Y-157264958D01*
X179213408Y-157279479D01*
X179275312Y-157288379D01*
X179324832Y-157295500D01*
X179324836Y-157295500D01*
X179848639Y-157295500D01*
X179852481Y-157295294D01*
X179890918Y-157293234D01*
X179917276Y-157290400D01*
X179947996Y-157285871D01*
X180064539Y-157244288D01*
X180071791Y-157240328D01*
X180125857Y-157210806D01*
X180125862Y-157210803D01*
X180151184Y-157191847D01*
X180215980Y-157143342D01*
X182343342Y-155015980D01*
X182371636Y-154984480D01*
X182388270Y-154963838D01*
X182406787Y-154938917D01*
X182459794Y-154827105D01*
X182479479Y-154760066D01*
X182491435Y-154676909D01*
X182495500Y-154648642D01*
X182495500Y-154124826D01*
X182495248Y-154110736D01*
X182495248Y-154110717D01*
X182494932Y-154101871D01*
X182494821Y-154099051D01*
X182470247Y-153977776D01*
X182445830Y-153912312D01*
X182423268Y-153869553D01*
X182412835Y-153809265D01*
X182439830Y-153754357D01*
X182440749Y-153753423D01*
X183335499Y-152858675D01*
X183390013Y-152830900D01*
X183450445Y-152840471D01*
X183493710Y-152883736D01*
X183504500Y-152928681D01*
X183504500Y-153176000D01*
X183513539Y-153260073D01*
X183513540Y-153260081D01*
X183524744Y-153311581D01*
X183524746Y-153311591D01*
X183546900Y-153381466D01*
X183612303Y-153486504D01*
X183612306Y-153486507D01*
X183612307Y-153486509D01*
X183658062Y-153539313D01*
X183733721Y-153606787D01*
X183845533Y-153659794D01*
X183912572Y-153679479D01*
X183974476Y-153688379D01*
X184023996Y-153695500D01*
X184024000Y-153695500D01*
X185160318Y-153695500D01*
X185218509Y-153714407D01*
X185230321Y-153724496D01*
X185565503Y-154059677D01*
X185593281Y-154114194D01*
X185594500Y-154129681D01*
X185594500Y-155459967D01*
X185615944Y-155539999D01*
X185625541Y-155575813D01*
X185625540Y-155575813D01*
X185625542Y-155575816D01*
X185685509Y-155679683D01*
X185820317Y-155814491D01*
X185924184Y-155874458D01*
X185924186Y-155874458D01*
X185924187Y-155874459D01*
X185982108Y-155889979D01*
X186040029Y-155905499D01*
X186040031Y-155905500D01*
X186040032Y-155905500D01*
X190244693Y-155905500D01*
X190302884Y-155924407D01*
X190307497Y-155927971D01*
X190307642Y-155928090D01*
X190408451Y-155995449D01*
X190520465Y-156041847D01*
X190639379Y-156065500D01*
X190639380Y-156065500D01*
X190760620Y-156065500D01*
X190760621Y-156065500D01*
X190879535Y-156041847D01*
X190991549Y-155995449D01*
X191092358Y-155928090D01*
X191178090Y-155842358D01*
X191245449Y-155741549D01*
X191291847Y-155629535D01*
X191315500Y-155510621D01*
X191315500Y-155389379D01*
X191291847Y-155270465D01*
X191246348Y-155160621D01*
X191245450Y-155158453D01*
X191245450Y-155158452D01*
X191178090Y-155057642D01*
X191092357Y-154971909D01*
X190991546Y-154904549D01*
X190879535Y-154858153D01*
X190760623Y-154834500D01*
X190760621Y-154834500D01*
X190639379Y-154834500D01*
X190639376Y-154834500D01*
X190520465Y-154858153D01*
X190520463Y-154858153D01*
X190408453Y-154904549D01*
X190408452Y-154904549D01*
X190307642Y-154971909D01*
X190307497Y-154972029D01*
X190307416Y-154972060D01*
X190303598Y-154974612D01*
X190303038Y-154973774D01*
X190250520Y-154994328D01*
X190244693Y-154994500D01*
X186604500Y-154994500D01*
X186546309Y-154975593D01*
X186510345Y-154926093D01*
X186505500Y-154895500D01*
X186505500Y-153840034D01*
X186505500Y-153840032D01*
X186500165Y-153820122D01*
X186503367Y-153759022D01*
X186541872Y-153711472D01*
X186595792Y-153695500D01*
X189748639Y-153695500D01*
X189752481Y-153695294D01*
X189790918Y-153693234D01*
X189817276Y-153690400D01*
X189847996Y-153685871D01*
X189964539Y-153644288D01*
X190025862Y-153610803D01*
X190115980Y-153543342D01*
X191808188Y-151851134D01*
X208849500Y-151851134D01*
X208849500Y-152148865D01*
X208882831Y-152444671D01*
X208882832Y-152444677D01*
X208949076Y-152734912D01*
X209047398Y-153015899D01*
X209047399Y-153015902D01*
X209176557Y-153284102D01*
X209176561Y-153284109D01*
X209176565Y-153284117D01*
X209334950Y-153536185D01*
X209520562Y-153768934D01*
X209731066Y-153979438D01*
X209963815Y-154165050D01*
X210215883Y-154323435D01*
X210215894Y-154323440D01*
X210215897Y-154323442D01*
X210323050Y-154375044D01*
X210484099Y-154452601D01*
X210615270Y-154498499D01*
X210765087Y-154550923D01*
X210765090Y-154550923D01*
X210765091Y-154550924D01*
X211055325Y-154617168D01*
X211135096Y-154626156D01*
X211351134Y-154650499D01*
X211351150Y-154650499D01*
X211351151Y-154650500D01*
X211351152Y-154650500D01*
X211648848Y-154650500D01*
X211648849Y-154650500D01*
X211648850Y-154650499D01*
X211648865Y-154650499D01*
X211838312Y-154629152D01*
X211944675Y-154617168D01*
X212234909Y-154550924D01*
X212515901Y-154452601D01*
X212784117Y-154323435D01*
X213036185Y-154165050D01*
X213268934Y-153979438D01*
X213479438Y-153768934D01*
X213665050Y-153536185D01*
X213823435Y-153284117D01*
X213952601Y-153015901D01*
X214050924Y-152734909D01*
X214117168Y-152444675D01*
X214129152Y-152338312D01*
X214150499Y-152148865D01*
X214150500Y-152148848D01*
X214150500Y-151851151D01*
X214150499Y-151851134D01*
X214117168Y-151555328D01*
X214117167Y-151555322D01*
X214102115Y-151489376D01*
X214050924Y-151265091D01*
X214048601Y-151258453D01*
X213959757Y-151004551D01*
X213952601Y-150984099D01*
X213846701Y-150764195D01*
X213823442Y-150715897D01*
X213823440Y-150715894D01*
X213823435Y-150715883D01*
X213665050Y-150463815D01*
X213479438Y-150231066D01*
X213268934Y-150020562D01*
X213036185Y-149834950D01*
X212784117Y-149676565D01*
X212784109Y-149676561D01*
X212784102Y-149676557D01*
X212515902Y-149547399D01*
X212515899Y-149547398D01*
X212234912Y-149449076D01*
X211944677Y-149382832D01*
X211944671Y-149382831D01*
X211648865Y-149349500D01*
X211648849Y-149349500D01*
X211351151Y-149349500D01*
X211351134Y-149349500D01*
X211055328Y-149382831D01*
X211055322Y-149382832D01*
X210765087Y-149449076D01*
X210484100Y-149547398D01*
X210484097Y-149547399D01*
X210215897Y-149676557D01*
X210215884Y-149676564D01*
X210215883Y-149676565D01*
X210142776Y-149722500D01*
X209963814Y-149834950D01*
X209731062Y-150020565D01*
X209520565Y-150231062D01*
X209334950Y-150463814D01*
X209176564Y-150715885D01*
X209176557Y-150715897D01*
X209047399Y-150984097D01*
X209047398Y-150984100D01*
X208949076Y-151265087D01*
X208882832Y-151555322D01*
X208882831Y-151555328D01*
X208849500Y-151851134D01*
X191808188Y-151851134D01*
X193143342Y-150515980D01*
X193171636Y-150484480D01*
X193188270Y-150463838D01*
X193206787Y-150438917D01*
X193259794Y-150327105D01*
X193279479Y-150260066D01*
X193293871Y-150159968D01*
X193295500Y-150148642D01*
X193295500Y-146404829D01*
X193314407Y-146346638D01*
X193324496Y-146334825D01*
X196975496Y-142683825D01*
X197030013Y-142656048D01*
X197090445Y-142665619D01*
X197133710Y-142708884D01*
X197144500Y-142753829D01*
X197144500Y-143644692D01*
X197125593Y-143702883D01*
X197122037Y-143707486D01*
X197121913Y-143707636D01*
X197054549Y-143808452D01*
X197054549Y-143808453D01*
X197008153Y-143920463D01*
X197008153Y-143920465D01*
X196984500Y-144039376D01*
X196984500Y-144160623D01*
X197008153Y-144279534D01*
X197008153Y-144279536D01*
X197054549Y-144391546D01*
X197054549Y-144391547D01*
X197121909Y-144492357D01*
X197121910Y-144492358D01*
X197207642Y-144578090D01*
X197308451Y-144645449D01*
X197420465Y-144691847D01*
X197539379Y-144715500D01*
X197539380Y-144715500D01*
X197660620Y-144715500D01*
X197660621Y-144715500D01*
X197779535Y-144691847D01*
X197891549Y-144645449D01*
X197992358Y-144578090D01*
X198078090Y-144492358D01*
X198145449Y-144391549D01*
X198191847Y-144279535D01*
X198215500Y-144160621D01*
X198215500Y-144039379D01*
X198191847Y-143920465D01*
X198155232Y-143832069D01*
X198145450Y-143808453D01*
X198145450Y-143808452D01*
X198078086Y-143707636D01*
X198077963Y-143707486D01*
X198077930Y-143707403D01*
X198075388Y-143703598D01*
X198076223Y-143703039D01*
X198055671Y-143650506D01*
X198055500Y-143644692D01*
X198055500Y-141560989D01*
X203242000Y-141560989D01*
X203242000Y-141759010D01*
X203272974Y-141954577D01*
X203334166Y-142142904D01*
X203424061Y-142319335D01*
X203424063Y-142319339D01*
X203448211Y-142352575D01*
X204100000Y-141700786D01*
X204100000Y-141712661D01*
X204127259Y-141814394D01*
X204179920Y-141905606D01*
X204254394Y-141980080D01*
X204345606Y-142032741D01*
X204447339Y-142060000D01*
X204459210Y-142060000D01*
X203807423Y-142711787D01*
X203840658Y-142735934D01*
X203840664Y-142735938D01*
X204017095Y-142825833D01*
X204205423Y-142887025D01*
X204234945Y-142891701D01*
X204289462Y-142919478D01*
X204317240Y-142973994D01*
X204307669Y-143034426D01*
X204264405Y-143077691D01*
X204234954Y-143087262D01*
X204232936Y-143087581D01*
X204062204Y-143143055D01*
X203902248Y-143224556D01*
X203902244Y-143224558D01*
X203757019Y-143330070D01*
X203630070Y-143457019D01*
X203524558Y-143602244D01*
X203524556Y-143602248D01*
X203443055Y-143762204D01*
X203387581Y-143932936D01*
X203359500Y-144110237D01*
X203359500Y-144289762D01*
X203387581Y-144467063D01*
X203442122Y-144634921D01*
X203443057Y-144637800D01*
X203471178Y-144692990D01*
X203524556Y-144797751D01*
X203524558Y-144797755D01*
X203630070Y-144942980D01*
X203630072Y-144942982D01*
X203630075Y-144942986D01*
X203757014Y-145069925D01*
X203757017Y-145069927D01*
X203757019Y-145069929D01*
X203902244Y-145175441D01*
X203902248Y-145175443D01*
X204062200Y-145256943D01*
X204232932Y-145312417D01*
X204232933Y-145312417D01*
X204232936Y-145312418D01*
X204410238Y-145340500D01*
X204410241Y-145340500D01*
X204589762Y-145340500D01*
X204767063Y-145312418D01*
X204767064Y-145312417D01*
X204767068Y-145312417D01*
X204937800Y-145256943D01*
X205097752Y-145175443D01*
X205242986Y-145069925D01*
X205369925Y-144942986D01*
X205475443Y-144797752D01*
X205556943Y-144637800D01*
X205612417Y-144467068D01*
X205612418Y-144467063D01*
X205640500Y-144289762D01*
X205640500Y-144110237D01*
X205612418Y-143932936D01*
X205608366Y-143920463D01*
X205556943Y-143762200D01*
X205475443Y-143602248D01*
X205475441Y-143602244D01*
X205369929Y-143457019D01*
X205369927Y-143457017D01*
X205369925Y-143457014D01*
X205242986Y-143330075D01*
X205242982Y-143330072D01*
X205242980Y-143330070D01*
X205097755Y-143224558D01*
X205097751Y-143224556D01*
X204999510Y-143174500D01*
X204937800Y-143143057D01*
X204937797Y-143143056D01*
X204937795Y-143143055D01*
X204767062Y-143087581D01*
X204765047Y-143087262D01*
X204764434Y-143086950D01*
X204763285Y-143086674D01*
X204763351Y-143086397D01*
X204710532Y-143059482D01*
X204682758Y-143004963D01*
X204692333Y-142944532D01*
X204735600Y-142901270D01*
X204765054Y-142891701D01*
X204794577Y-142887025D01*
X204982904Y-142825833D01*
X205159329Y-142735941D01*
X205159337Y-142735936D01*
X205192575Y-142711787D01*
X204540788Y-142060000D01*
X204552661Y-142060000D01*
X204654394Y-142032741D01*
X204745606Y-141980080D01*
X204820080Y-141905606D01*
X204872741Y-141814394D01*
X204900000Y-141712661D01*
X204900000Y-141700788D01*
X205551787Y-142352575D01*
X205575936Y-142319337D01*
X205575941Y-142319329D01*
X205665833Y-142142904D01*
X205727025Y-141954577D01*
X205758000Y-141759010D01*
X205758000Y-141560989D01*
X205727025Y-141365422D01*
X205665833Y-141177095D01*
X205575938Y-141000664D01*
X205575934Y-141000658D01*
X205551787Y-140967423D01*
X204900000Y-141619210D01*
X204900000Y-141607339D01*
X204872741Y-141505606D01*
X204820080Y-141414394D01*
X204745606Y-141339920D01*
X204654394Y-141287259D01*
X204552661Y-141260000D01*
X204540786Y-141260000D01*
X205192575Y-140608211D01*
X205159339Y-140584063D01*
X205159335Y-140584061D01*
X204982900Y-140494164D01*
X204982897Y-140494162D01*
X204858222Y-140453653D01*
X204808722Y-140417689D01*
X204789815Y-140359499D01*
X204808723Y-140301308D01*
X204858223Y-140265344D01*
X204888813Y-140260499D01*
X205280734Y-140260499D01*
X205280737Y-140260499D01*
X205307332Y-140256286D01*
X205372175Y-140246017D01*
X205482391Y-140189859D01*
X205569859Y-140102391D01*
X205626017Y-139992175D01*
X205640500Y-139900735D01*
X205640499Y-138339266D01*
X205640499Y-138339263D01*
X205640499Y-138339262D01*
X205634882Y-138303801D01*
X205626017Y-138247825D01*
X205569859Y-138137609D01*
X205482391Y-138050141D01*
X205372175Y-137993983D01*
X205372176Y-137993983D01*
X205280736Y-137979500D01*
X203719262Y-137979500D01*
X203627825Y-137993983D01*
X203627821Y-137993984D01*
X203517610Y-138050140D01*
X203430140Y-138137610D01*
X203373983Y-138247823D01*
X203359500Y-138339263D01*
X203359500Y-139900737D01*
X203373983Y-139992174D01*
X203373984Y-139992178D01*
X203420492Y-140083454D01*
X203430141Y-140102391D01*
X203517609Y-140189859D01*
X203627825Y-140246017D01*
X203719265Y-140260500D01*
X204111185Y-140260499D01*
X204169374Y-140279406D01*
X204205338Y-140328906D01*
X204205338Y-140390091D01*
X204169374Y-140439592D01*
X204141776Y-140453653D01*
X204017102Y-140494162D01*
X204017099Y-140494164D01*
X203840658Y-140584065D01*
X203807423Y-140608211D01*
X204459212Y-141260000D01*
X204447339Y-141260000D01*
X204345606Y-141287259D01*
X204254394Y-141339920D01*
X204179920Y-141414394D01*
X204127259Y-141505606D01*
X204100000Y-141607339D01*
X204100000Y-141619212D01*
X203448211Y-140967423D01*
X203424065Y-141000658D01*
X203334166Y-141177095D01*
X203272974Y-141365422D01*
X203242000Y-141560989D01*
X198055500Y-141560989D01*
X198055500Y-141526700D01*
X198074407Y-141468509D01*
X198121227Y-141433459D01*
X198205401Y-141403426D01*
X198266724Y-141369941D01*
X198356842Y-141302480D01*
X204843342Y-134815980D01*
X204871636Y-134784480D01*
X204888270Y-134763838D01*
X204906787Y-134738917D01*
X204959794Y-134627105D01*
X204979479Y-134560066D01*
X204994439Y-134456018D01*
X204995500Y-134448642D01*
X204995500Y-131454500D01*
X205014407Y-131396309D01*
X205063907Y-131360345D01*
X205094500Y-131355500D01*
X208835011Y-131355500D01*
X208893202Y-131374407D01*
X208929166Y-131423907D01*
X208929166Y-131485093D01*
X208917328Y-131509497D01*
X208907144Y-131524740D01*
X208822233Y-131651815D01*
X208822227Y-131651826D01*
X208747564Y-131832080D01*
X208747564Y-131832082D01*
X208709500Y-132023441D01*
X208709500Y-132218558D01*
X208747564Y-132409917D01*
X208747564Y-132409919D01*
X208822227Y-132590173D01*
X208822233Y-132590185D01*
X208893058Y-132696180D01*
X208930628Y-132752407D01*
X209068593Y-132890372D01*
X209113409Y-132920317D01*
X209230814Y-132998766D01*
X209230826Y-132998772D01*
X209297412Y-133026352D01*
X209411082Y-133073436D01*
X209602444Y-133111500D01*
X209602445Y-133111500D01*
X209797555Y-133111500D01*
X209797556Y-133111500D01*
X209988918Y-133073436D01*
X210169178Y-132998770D01*
X210169180Y-132998768D01*
X210169185Y-132998766D01*
X210225218Y-132961325D01*
X210331407Y-132890372D01*
X210469372Y-132752407D01*
X210551374Y-132629682D01*
X210577766Y-132590185D01*
X210577772Y-132590173D01*
X210585510Y-132571491D01*
X210652436Y-132409918D01*
X210690500Y-132218556D01*
X210690500Y-132023444D01*
X210652436Y-131832082D01*
X210580517Y-131658453D01*
X210577772Y-131651826D01*
X210577766Y-131651815D01*
X210492856Y-131524740D01*
X210482673Y-131509499D01*
X210466065Y-131450614D01*
X210487242Y-131393210D01*
X210538116Y-131359217D01*
X210564989Y-131355500D01*
X212070318Y-131355500D01*
X212128509Y-131374407D01*
X212140322Y-131384496D01*
X213315504Y-132559678D01*
X213319130Y-132566795D01*
X213325593Y-132571491D01*
X213332756Y-132593539D01*
X213343281Y-132614195D01*
X213344500Y-132629682D01*
X213344500Y-132794692D01*
X213325593Y-132852883D01*
X213322037Y-132857486D01*
X213321913Y-132857636D01*
X213254549Y-132958452D01*
X213254549Y-132958453D01*
X213208153Y-133070463D01*
X213208153Y-133070465D01*
X213184500Y-133189376D01*
X213184500Y-133310623D01*
X213208153Y-133429534D01*
X213208153Y-133429536D01*
X213254549Y-133541546D01*
X213254549Y-133541547D01*
X213321909Y-133642357D01*
X213321910Y-133642358D01*
X213407642Y-133728090D01*
X213508451Y-133795449D01*
X213620465Y-133841847D01*
X213739379Y-133865500D01*
X213739380Y-133865500D01*
X213860620Y-133865500D01*
X213860621Y-133865500D01*
X213979535Y-133841847D01*
X214091549Y-133795449D01*
X214124498Y-133773432D01*
X214183385Y-133756823D01*
X214240789Y-133777999D01*
X214274783Y-133828872D01*
X214278500Y-133855747D01*
X214278500Y-142293970D01*
X214309540Y-142409812D01*
X214309540Y-142409813D01*
X214309542Y-142409816D01*
X214369509Y-142513683D01*
X215215505Y-143359679D01*
X215243281Y-143414194D01*
X215244500Y-143429681D01*
X215244500Y-149544692D01*
X215225593Y-149602883D01*
X215222037Y-149607486D01*
X215221913Y-149607636D01*
X215154549Y-149708452D01*
X215154549Y-149708453D01*
X215108153Y-149820463D01*
X215108153Y-149820465D01*
X215084500Y-149939376D01*
X215084500Y-150060623D01*
X215108153Y-150179534D01*
X215108153Y-150179536D01*
X215154549Y-150291546D01*
X215154549Y-150291547D01*
X215221909Y-150392357D01*
X215221910Y-150392358D01*
X215307642Y-150478090D01*
X215408451Y-150545449D01*
X215520465Y-150591847D01*
X215639379Y-150615500D01*
X215639380Y-150615500D01*
X215760620Y-150615500D01*
X215760621Y-150615500D01*
X215879535Y-150591847D01*
X215991549Y-150545449D01*
X216092358Y-150478090D01*
X216178090Y-150392358D01*
X216245449Y-150291549D01*
X216291847Y-150179535D01*
X216315500Y-150060621D01*
X216315500Y-149939379D01*
X216291847Y-149820465D01*
X216248369Y-149715500D01*
X216245450Y-149708453D01*
X216245450Y-149708452D01*
X216178086Y-149607636D01*
X216177963Y-149607486D01*
X216177930Y-149607403D01*
X216175388Y-149603598D01*
X216176223Y-149603039D01*
X216155671Y-149550506D01*
X216155500Y-149544692D01*
X216155500Y-143140032D01*
X216141446Y-143087583D01*
X216124458Y-143024184D01*
X216124458Y-143024183D01*
X216064491Y-142920316D01*
X215435774Y-142291600D01*
X215424495Y-142269463D01*
X215410607Y-142248862D01*
X215410826Y-142242634D01*
X215407998Y-142237084D01*
X215411884Y-142212543D01*
X215412758Y-142187714D01*
X215416590Y-142182832D01*
X215417569Y-142176652D01*
X215450439Y-142139509D01*
X215450465Y-142139491D01*
X215542358Y-142078090D01*
X215544040Y-142076407D01*
X215549967Y-142072412D01*
X215575118Y-142065206D01*
X215599480Y-142055672D01*
X215605307Y-142055500D01*
X220759969Y-142055500D01*
X220759969Y-142055499D01*
X220869878Y-142026049D01*
X220930977Y-142029250D01*
X220978528Y-142067755D01*
X220994500Y-142121675D01*
X220994500Y-143644692D01*
X220975593Y-143702883D01*
X220972037Y-143707486D01*
X220971913Y-143707636D01*
X220904549Y-143808452D01*
X220904549Y-143808453D01*
X220858153Y-143920463D01*
X220858153Y-143920465D01*
X220834500Y-144039376D01*
X220834500Y-144160623D01*
X220858153Y-144279534D01*
X220858153Y-144279536D01*
X220904549Y-144391546D01*
X220904549Y-144391547D01*
X220971909Y-144492357D01*
X220971910Y-144492358D01*
X221057642Y-144578090D01*
X221158451Y-144645449D01*
X221270465Y-144691847D01*
X221270472Y-144691848D01*
X221274235Y-144692990D01*
X221324433Y-144727973D01*
X221344481Y-144785781D01*
X221344500Y-144787728D01*
X221344500Y-157644692D01*
X221325593Y-157702883D01*
X221322037Y-157707486D01*
X221321913Y-157707636D01*
X221254549Y-157808452D01*
X221254549Y-157808453D01*
X221208153Y-157920463D01*
X221208153Y-157920465D01*
X221184500Y-158039376D01*
X221184500Y-158160623D01*
X221208153Y-158279534D01*
X221208153Y-158279536D01*
X221254549Y-158391546D01*
X221254549Y-158391547D01*
X221287960Y-158441549D01*
X221321910Y-158492358D01*
X221407642Y-158578090D01*
X221508451Y-158645449D01*
X221620465Y-158691847D01*
X221739379Y-158715500D01*
X221739380Y-158715500D01*
X221860620Y-158715500D01*
X221860621Y-158715500D01*
X221979535Y-158691847D01*
X222091549Y-158645449D01*
X222192358Y-158578090D01*
X222278090Y-158492358D01*
X222345449Y-158391549D01*
X222391847Y-158279535D01*
X222415500Y-158160621D01*
X222415500Y-158039379D01*
X222391847Y-157920465D01*
X222356246Y-157834516D01*
X222345450Y-157808453D01*
X222345450Y-157808452D01*
X222278086Y-157707636D01*
X222277963Y-157707486D01*
X222277930Y-157707403D01*
X222275388Y-157703598D01*
X222276223Y-157703039D01*
X222255671Y-157650506D01*
X222255500Y-157644692D01*
X222255500Y-151715893D01*
X222274407Y-151657702D01*
X222323907Y-151621738D01*
X222385093Y-151621738D01*
X222434593Y-151657702D01*
X222451597Y-151696578D01*
X222458153Y-151729534D01*
X222458153Y-151729536D01*
X222504549Y-151841546D01*
X222504549Y-151841547D01*
X222571909Y-151942357D01*
X222572029Y-151942503D01*
X222572060Y-151942583D01*
X222574612Y-151946402D01*
X222573774Y-151946961D01*
X222594328Y-151999480D01*
X222594500Y-152005307D01*
X222594500Y-157759967D01*
X222618309Y-157848825D01*
X222625541Y-157875813D01*
X222625540Y-157875813D01*
X222625542Y-157875816D01*
X222685509Y-157979683D01*
X223220317Y-158514491D01*
X223324183Y-158574458D01*
X223337303Y-158577972D01*
X223348667Y-158581018D01*
X223348669Y-158581018D01*
X223440032Y-158605500D01*
X223794693Y-158605500D01*
X223852884Y-158624407D01*
X223857497Y-158627971D01*
X223857642Y-158628090D01*
X223958451Y-158695449D01*
X224070465Y-158741847D01*
X224189379Y-158765500D01*
X224189380Y-158765500D01*
X224310620Y-158765500D01*
X224310621Y-158765500D01*
X224429535Y-158741847D01*
X224541549Y-158695449D01*
X224642358Y-158628090D01*
X224728090Y-158542358D01*
X224795449Y-158441549D01*
X224841847Y-158329535D01*
X224865500Y-158210621D01*
X224865500Y-158089379D01*
X224841847Y-157970465D01*
X224802641Y-157875813D01*
X224795450Y-157858453D01*
X224795450Y-157858452D01*
X224728090Y-157757642D01*
X224642357Y-157671909D01*
X224541546Y-157604549D01*
X224429535Y-157558153D01*
X224310623Y-157534500D01*
X224310621Y-157534500D01*
X224189379Y-157534500D01*
X224189376Y-157534500D01*
X224070465Y-157558153D01*
X224070463Y-157558153D01*
X223958453Y-157604549D01*
X223958452Y-157604549D01*
X223857642Y-157671909D01*
X223857497Y-157672029D01*
X223857416Y-157672060D01*
X223853598Y-157674612D01*
X223853597Y-157674611D01*
X223852884Y-157675593D01*
X223826420Y-157684191D01*
X223800520Y-157694328D01*
X223794693Y-157694500D01*
X223729682Y-157694500D01*
X223671491Y-157675593D01*
X223659678Y-157665504D01*
X223534496Y-157540322D01*
X223506719Y-157485805D01*
X223505500Y-157470318D01*
X223505500Y-152005307D01*
X223524407Y-151947116D01*
X223527971Y-151942503D01*
X223528085Y-151942362D01*
X223528090Y-151942358D01*
X223595449Y-151841549D01*
X223641847Y-151729535D01*
X223665500Y-151610621D01*
X223665500Y-151489379D01*
X223641847Y-151370465D01*
X223606657Y-151285509D01*
X223595450Y-151258453D01*
X223595450Y-151258452D01*
X223528090Y-151157642D01*
X223442357Y-151071909D01*
X223341546Y-151004549D01*
X223229535Y-150958153D01*
X223110623Y-150934500D01*
X223110621Y-150934500D01*
X222989379Y-150934500D01*
X222989376Y-150934500D01*
X222870465Y-150958153D01*
X222870463Y-150958153D01*
X222758453Y-151004549D01*
X222758452Y-151004549D01*
X222657642Y-151071909D01*
X222571909Y-151157642D01*
X222504549Y-151258452D01*
X222504549Y-151258453D01*
X222458153Y-151370463D01*
X222458153Y-151370465D01*
X222451598Y-151403420D01*
X222421701Y-151456804D01*
X222366136Y-151482420D01*
X222306126Y-151470483D01*
X222264594Y-151425553D01*
X222255500Y-151384106D01*
X222255500Y-144839376D01*
X224234500Y-144839376D01*
X224234500Y-144839379D01*
X224234500Y-144960621D01*
X224256241Y-145069925D01*
X224258153Y-145079534D01*
X224258153Y-145079536D01*
X224304549Y-145191546D01*
X224304549Y-145191547D01*
X224371909Y-145292357D01*
X224371910Y-145292358D01*
X224457642Y-145378090D01*
X224558451Y-145445449D01*
X224670465Y-145491847D01*
X224789379Y-145515500D01*
X224789391Y-145515500D01*
X224789547Y-145515516D01*
X224789620Y-145515548D01*
X224794149Y-145516449D01*
X224793951Y-145517441D01*
X224845608Y-145540027D01*
X224849863Y-145544037D01*
X231320317Y-152014491D01*
X231398276Y-152059500D01*
X231424184Y-152074458D01*
X231540029Y-152105499D01*
X231540031Y-152105500D01*
X231540032Y-152105500D01*
X234670318Y-152105500D01*
X234728509Y-152124407D01*
X234740322Y-152134496D01*
X236065504Y-153459678D01*
X236093281Y-153514195D01*
X236094500Y-153529682D01*
X236094500Y-156144692D01*
X236075593Y-156202883D01*
X236072037Y-156207486D01*
X236071913Y-156207636D01*
X236004549Y-156308452D01*
X236004549Y-156308453D01*
X235958153Y-156420463D01*
X235958153Y-156420465D01*
X235934500Y-156539376D01*
X235934500Y-156539379D01*
X235934500Y-156660621D01*
X235954435Y-156760845D01*
X235958153Y-156779534D01*
X235958153Y-156779536D01*
X236004549Y-156891546D01*
X236004549Y-156891547D01*
X236071909Y-156992357D01*
X236071910Y-156992358D01*
X236157642Y-157078090D01*
X236258451Y-157145449D01*
X236370465Y-157191847D01*
X236489379Y-157215500D01*
X236489380Y-157215500D01*
X236610620Y-157215500D01*
X236610621Y-157215500D01*
X236729535Y-157191847D01*
X236841549Y-157145449D01*
X236942358Y-157078090D01*
X237028090Y-156992358D01*
X237095449Y-156891549D01*
X237141847Y-156779535D01*
X237165500Y-156660621D01*
X237165500Y-156539379D01*
X237141847Y-156420465D01*
X237095450Y-156308453D01*
X237095450Y-156308452D01*
X237028086Y-156207636D01*
X237027963Y-156207486D01*
X237027930Y-156207403D01*
X237025388Y-156203598D01*
X237026223Y-156203039D01*
X237005671Y-156150506D01*
X237005500Y-156144692D01*
X237005500Y-153240032D01*
X236974464Y-153124207D01*
X236974458Y-153124184D01*
X236974458Y-153124183D01*
X236914491Y-153020316D01*
X235179683Y-151285509D01*
X235075816Y-151225542D01*
X235075815Y-151225541D01*
X235075812Y-151225540D01*
X234959970Y-151194500D01*
X234959968Y-151194500D01*
X231829682Y-151194500D01*
X231771491Y-151175593D01*
X231759678Y-151165504D01*
X225494037Y-144899863D01*
X225466260Y-144845346D01*
X225465516Y-144839547D01*
X225465500Y-144839390D01*
X225465500Y-144839379D01*
X225441847Y-144720465D01*
X225395450Y-144608453D01*
X225395450Y-144608452D01*
X225328090Y-144507642D01*
X225242357Y-144421909D01*
X225141546Y-144354549D01*
X225029535Y-144308153D01*
X224910623Y-144284500D01*
X224910621Y-144284500D01*
X224789379Y-144284500D01*
X224789376Y-144284500D01*
X224670465Y-144308153D01*
X224670463Y-144308153D01*
X224558453Y-144354549D01*
X224558452Y-144354549D01*
X224457642Y-144421909D01*
X224371909Y-144507642D01*
X224304549Y-144608452D01*
X224304549Y-144608453D01*
X224258153Y-144720463D01*
X224258153Y-144720465D01*
X224234500Y-144839376D01*
X222255500Y-144839376D01*
X222255500Y-144390031D01*
X222255499Y-144390029D01*
X222248929Y-144365509D01*
X222224458Y-144274184D01*
X222202515Y-144236178D01*
X222164491Y-144170317D01*
X222154794Y-144160620D01*
X222094037Y-144099862D01*
X222066260Y-144045345D01*
X222065516Y-144039547D01*
X222065500Y-144039390D01*
X222065500Y-144039379D01*
X222041847Y-143920465D01*
X222005232Y-143832069D01*
X221995450Y-143808453D01*
X221995450Y-143808452D01*
X221928086Y-143707636D01*
X221927963Y-143707486D01*
X221927930Y-143707403D01*
X221925388Y-143703598D01*
X221926223Y-143703039D01*
X221905671Y-143650506D01*
X221905500Y-143644692D01*
X221905500Y-141979681D01*
X221924407Y-141921490D01*
X221934490Y-141909683D01*
X222764491Y-141079683D01*
X222824458Y-140975816D01*
X222826861Y-140966847D01*
X222855500Y-140859968D01*
X222855500Y-140140032D01*
X222824458Y-140024184D01*
X222824458Y-140024183D01*
X222764491Y-139920316D01*
X221179683Y-138335509D01*
X221075816Y-138275542D01*
X221075815Y-138275541D01*
X221075812Y-138275540D01*
X220959970Y-138244500D01*
X220959968Y-138244500D01*
X220354500Y-138244500D01*
X220296309Y-138225593D01*
X220260345Y-138176093D01*
X220255500Y-138145500D01*
X220255500Y-132490032D01*
X220224464Y-132374207D01*
X220224458Y-132374184D01*
X220224458Y-132374183D01*
X220164491Y-132270316D01*
X218568677Y-130674503D01*
X218540901Y-130619987D01*
X218550472Y-130559555D01*
X218593737Y-130516290D01*
X218638682Y-130505500D01*
X219720318Y-130505500D01*
X219778509Y-130524407D01*
X219790322Y-130534496D01*
X224220317Y-134964491D01*
X224324184Y-135024458D01*
X224324186Y-135024458D01*
X224324187Y-135024459D01*
X224382108Y-135039979D01*
X224440029Y-135055499D01*
X224440031Y-135055500D01*
X224440032Y-135055500D01*
X229009969Y-135055500D01*
X229009969Y-135055499D01*
X229125812Y-135024459D01*
X229125813Y-135024459D01*
X229125813Y-135024458D01*
X229125816Y-135024458D01*
X229229683Y-134964491D01*
X230464491Y-133729683D01*
X230524458Y-133625816D01*
X230531230Y-133600542D01*
X230555500Y-133509968D01*
X230555500Y-130855307D01*
X230574407Y-130797116D01*
X230577971Y-130792503D01*
X230578085Y-130792362D01*
X230578090Y-130792358D01*
X230645449Y-130691549D01*
X230691847Y-130579535D01*
X230715500Y-130460621D01*
X230715500Y-130339379D01*
X230691847Y-130220465D01*
X230645450Y-130108453D01*
X230645450Y-130108452D01*
X230578090Y-130007642D01*
X230492357Y-129921909D01*
X230391546Y-129854549D01*
X230279535Y-129808153D01*
X230160623Y-129784500D01*
X230160621Y-129784500D01*
X230039379Y-129784500D01*
X230039376Y-129784500D01*
X229920465Y-129808153D01*
X229920463Y-129808153D01*
X229808453Y-129854549D01*
X229808452Y-129854549D01*
X229707642Y-129921909D01*
X229621909Y-130007642D01*
X229554549Y-130108452D01*
X229554549Y-130108453D01*
X229508153Y-130220463D01*
X229508153Y-130220465D01*
X229484500Y-130339376D01*
X229484500Y-130460623D01*
X229508153Y-130579534D01*
X229508153Y-130579536D01*
X229554549Y-130691546D01*
X229554549Y-130691547D01*
X229621909Y-130792357D01*
X229622029Y-130792503D01*
X229622060Y-130792583D01*
X229624612Y-130796402D01*
X229623774Y-130796961D01*
X229644328Y-130849480D01*
X229644500Y-130855307D01*
X229644500Y-133220318D01*
X229625593Y-133278509D01*
X229615504Y-133290322D01*
X228790322Y-134115504D01*
X228735805Y-134143281D01*
X228720318Y-134144500D01*
X226350969Y-134144500D01*
X226292778Y-134125593D01*
X226256814Y-134076093D01*
X226256814Y-134014907D01*
X226259505Y-134007614D01*
X226291847Y-133929535D01*
X226315500Y-133810621D01*
X226315500Y-133689379D01*
X226291847Y-133570465D01*
X226245450Y-133458453D01*
X226245450Y-133458452D01*
X226178086Y-133357636D01*
X226177963Y-133357486D01*
X226177930Y-133357403D01*
X226175388Y-133353598D01*
X226176223Y-133353039D01*
X226155671Y-133300506D01*
X226155500Y-133294692D01*
X226155500Y-123140032D01*
X226124464Y-123024207D01*
X226124458Y-123024184D01*
X226124458Y-123024183D01*
X226064491Y-122920316D01*
X202268677Y-99124503D01*
X202240901Y-99069987D01*
X202250472Y-99009555D01*
X202293737Y-98966290D01*
X202338682Y-98955500D01*
X202820318Y-98955500D01*
X202878509Y-98974407D01*
X202890322Y-98984496D01*
X228898534Y-124992708D01*
X228926311Y-125047225D01*
X228916740Y-125107657D01*
X228873475Y-125150922D01*
X228813043Y-125160493D01*
X228790645Y-125154176D01*
X228679535Y-125108153D01*
X228560623Y-125084500D01*
X228560621Y-125084500D01*
X228439379Y-125084500D01*
X228439376Y-125084500D01*
X228320465Y-125108153D01*
X228320463Y-125108153D01*
X228208453Y-125154549D01*
X228208452Y-125154549D01*
X228107642Y-125221909D01*
X228070004Y-125259548D01*
X228015487Y-125287325D01*
X227955055Y-125277754D01*
X227929996Y-125259548D01*
X227892357Y-125221909D01*
X227791546Y-125154549D01*
X227679535Y-125108153D01*
X227560623Y-125084500D01*
X227560621Y-125084500D01*
X227439379Y-125084500D01*
X227439376Y-125084500D01*
X227320465Y-125108153D01*
X227320463Y-125108153D01*
X227208453Y-125154549D01*
X227208452Y-125154549D01*
X227107642Y-125221909D01*
X227021909Y-125307642D01*
X226954549Y-125408452D01*
X226954549Y-125408453D01*
X226908153Y-125520463D01*
X226908153Y-125520465D01*
X226884500Y-125639376D01*
X226884500Y-125760623D01*
X226908153Y-125879534D01*
X226908153Y-125879536D01*
X226954549Y-125991546D01*
X226954549Y-125991547D01*
X227021909Y-126092357D01*
X227021910Y-126092358D01*
X227107642Y-126178090D01*
X227208451Y-126245449D01*
X227320465Y-126291847D01*
X227439379Y-126315500D01*
X227439380Y-126315500D01*
X227560620Y-126315500D01*
X227560621Y-126315500D01*
X227679535Y-126291847D01*
X227791549Y-126245449D01*
X227892358Y-126178090D01*
X227929996Y-126140452D01*
X227984512Y-126112674D01*
X228044944Y-126122245D01*
X228070004Y-126140452D01*
X228107639Y-126178088D01*
X228107642Y-126178090D01*
X228208451Y-126245449D01*
X228320465Y-126291847D01*
X228439379Y-126315500D01*
X228439380Y-126315500D01*
X228560620Y-126315500D01*
X228560621Y-126315500D01*
X228679535Y-126291847D01*
X228791549Y-126245449D01*
X228892358Y-126178090D01*
X228978090Y-126092358D01*
X229045449Y-125991549D01*
X229091847Y-125879535D01*
X229115500Y-125760621D01*
X229115500Y-125639379D01*
X229091847Y-125520465D01*
X229045822Y-125409353D01*
X229041022Y-125348358D01*
X229072992Y-125296189D01*
X229129519Y-125272774D01*
X229189014Y-125287058D01*
X229207291Y-125301465D01*
X235265504Y-131359678D01*
X235269130Y-131366795D01*
X235275593Y-131371491D01*
X235282756Y-131393539D01*
X235293281Y-131414195D01*
X235294500Y-131429682D01*
X235294500Y-131442424D01*
X235275593Y-131500615D01*
X235226093Y-131536579D01*
X235164907Y-131536579D01*
X235140499Y-131524740D01*
X235104393Y-131500615D01*
X235050758Y-131464777D01*
X235050755Y-131464775D01*
X235050754Y-131464775D01*
X234915996Y-131408957D01*
X234772935Y-131380500D01*
X234772933Y-131380500D01*
X234627067Y-131380500D01*
X234627064Y-131380500D01*
X234484004Y-131408957D01*
X234484002Y-131408957D01*
X234349244Y-131464775D01*
X234349243Y-131464775D01*
X234227959Y-131545816D01*
X234227955Y-131545819D01*
X234124819Y-131648955D01*
X234124816Y-131648959D01*
X234043775Y-131770243D01*
X234043775Y-131770244D01*
X233987957Y-131905002D01*
X233987957Y-131905004D01*
X233959500Y-132048064D01*
X233959500Y-132193935D01*
X233987957Y-132336995D01*
X233987957Y-132336997D01*
X234043775Y-132471755D01*
X234043775Y-132471756D01*
X234060173Y-132496297D01*
X234124816Y-132593041D01*
X234227959Y-132696184D01*
X234349242Y-132777223D01*
X234349243Y-132777223D01*
X234349244Y-132777224D01*
X234379772Y-132789869D01*
X234484004Y-132833043D01*
X234627067Y-132861500D01*
X234627068Y-132861500D01*
X234772932Y-132861500D01*
X234772933Y-132861500D01*
X234915996Y-132833043D01*
X235050758Y-132777223D01*
X235140499Y-132717259D01*
X235153758Y-132713519D01*
X235164907Y-132705420D01*
X235182477Y-132705420D01*
X235199386Y-132700651D01*
X235212313Y-132705420D01*
X235226093Y-132705420D01*
X235240307Y-132715747D01*
X235256790Y-132721828D01*
X235264444Y-132733284D01*
X235275593Y-132741384D01*
X235281022Y-132758094D01*
X235290783Y-132772702D01*
X235294500Y-132799575D01*
X235294500Y-132920317D01*
X235275593Y-132978508D01*
X235265504Y-132990320D01*
X234685509Y-133570316D01*
X234653466Y-133625817D01*
X234625542Y-133674182D01*
X234625540Y-133674187D01*
X234594500Y-133790029D01*
X234594500Y-138344692D01*
X234575593Y-138402883D01*
X234572037Y-138407486D01*
X234571913Y-138407636D01*
X234504549Y-138508452D01*
X234504549Y-138508453D01*
X234458153Y-138620463D01*
X234458153Y-138620465D01*
X234434500Y-138739376D01*
X234434500Y-138860623D01*
X234458153Y-138979534D01*
X234458153Y-138979536D01*
X234504549Y-139091546D01*
X234504549Y-139091547D01*
X234571909Y-139192357D01*
X234571910Y-139192358D01*
X234657642Y-139278090D01*
X234758451Y-139345449D01*
X234870465Y-139391847D01*
X234989379Y-139415500D01*
X234989380Y-139415500D01*
X235110620Y-139415500D01*
X235110621Y-139415500D01*
X235229535Y-139391847D01*
X235341549Y-139345449D01*
X235442358Y-139278090D01*
X235528090Y-139192358D01*
X235595449Y-139091549D01*
X235641847Y-138979535D01*
X235665500Y-138860621D01*
X235665500Y-138739379D01*
X235641847Y-138620465D01*
X235595450Y-138508453D01*
X235595450Y-138508452D01*
X235528086Y-138407636D01*
X235527963Y-138407486D01*
X235527930Y-138407403D01*
X235525388Y-138403598D01*
X235526223Y-138403039D01*
X235505671Y-138350506D01*
X235505500Y-138344692D01*
X235505500Y-134079682D01*
X235524407Y-134021491D01*
X235534496Y-134009678D01*
X235787351Y-133756823D01*
X236114491Y-133429684D01*
X236174457Y-133325817D01*
X236174458Y-133325816D01*
X236205500Y-133209968D01*
X236205500Y-131140032D01*
X236174458Y-131024184D01*
X236151579Y-130984556D01*
X236114491Y-130920316D01*
X203329683Y-98135509D01*
X203225816Y-98075542D01*
X203225815Y-98075541D01*
X203225812Y-98075540D01*
X203109970Y-98044500D01*
X203109968Y-98044500D01*
X201221680Y-98044500D01*
X201163489Y-98025593D01*
X201127525Y-97976093D01*
X201127525Y-97914907D01*
X201130216Y-97907615D01*
X201139790Y-97884500D01*
X201141847Y-97879535D01*
X201165500Y-97760621D01*
X201165500Y-97639379D01*
X201141847Y-97520465D01*
X201105615Y-97432993D01*
X201095450Y-97408453D01*
X201095450Y-97408452D01*
X201028090Y-97307642D01*
X200942357Y-97221909D01*
X200841546Y-97154549D01*
X200729535Y-97108153D01*
X200610623Y-97084500D01*
X200610621Y-97084500D01*
X200489379Y-97084500D01*
X200489376Y-97084500D01*
X200370465Y-97108153D01*
X200370463Y-97108153D01*
X200258453Y-97154549D01*
X200258452Y-97154549D01*
X200157642Y-97221909D01*
X200157497Y-97222029D01*
X200157416Y-97222060D01*
X200153598Y-97224612D01*
X200153597Y-97224611D01*
X200152884Y-97225593D01*
X200126420Y-97234191D01*
X200100520Y-97244328D01*
X200094693Y-97244500D01*
X199988682Y-97244500D01*
X199930491Y-97225593D01*
X199894527Y-97176093D01*
X199894527Y-97114907D01*
X199918678Y-97075496D01*
X200448725Y-96545449D01*
X201170491Y-95823684D01*
X201230458Y-95719817D01*
X201247692Y-95655499D01*
X201261500Y-95603968D01*
X201261500Y-88546032D01*
X201238614Y-88460621D01*
X201230459Y-88430187D01*
X201230459Y-88430186D01*
X201230458Y-88430184D01*
X201170491Y-88326317D01*
X200475444Y-87631270D01*
X200447667Y-87576753D01*
X200457238Y-87516321D01*
X200463120Y-87506283D01*
X200501999Y-87448099D01*
X200548397Y-87336085D01*
X200572050Y-87217171D01*
X200572050Y-87095929D01*
X200548397Y-86977015D01*
X200502000Y-86865003D01*
X200502000Y-86865002D01*
X200434640Y-86764192D01*
X200348907Y-86678459D01*
X200248096Y-86611099D01*
X200136085Y-86564703D01*
X200017173Y-86541050D01*
X200017171Y-86541050D01*
X199895929Y-86541050D01*
X199895926Y-86541050D01*
X199777015Y-86564703D01*
X199777013Y-86564703D01*
X199665003Y-86611099D01*
X199665002Y-86611099D01*
X199564192Y-86678459D01*
X199478459Y-86764192D01*
X199411099Y-86865002D01*
X199411099Y-86865003D01*
X199364703Y-86977013D01*
X199364703Y-86977015D01*
X199341050Y-87095926D01*
X199341050Y-87217173D01*
X199364703Y-87336084D01*
X199364703Y-87336086D01*
X199411099Y-87448096D01*
X199411099Y-87448097D01*
X199478459Y-87548907D01*
X199478579Y-87549053D01*
X199478610Y-87549133D01*
X199481162Y-87552952D01*
X199480324Y-87553511D01*
X199500878Y-87606030D01*
X199501050Y-87611857D01*
X199501050Y-87816520D01*
X199514678Y-87867378D01*
X199511477Y-87928480D01*
X199472972Y-87976030D01*
X199456939Y-87984465D01*
X199408455Y-88004548D01*
X199408452Y-88004549D01*
X199307642Y-88071909D01*
X199221909Y-88157642D01*
X199154549Y-88258452D01*
X199154549Y-88258453D01*
X199108153Y-88370463D01*
X199108153Y-88370465D01*
X199084500Y-88489376D01*
X199084500Y-88610623D01*
X199108153Y-88729534D01*
X199108153Y-88729536D01*
X199154549Y-88841546D01*
X199154549Y-88841547D01*
X199178967Y-88878090D01*
X199221910Y-88942358D01*
X199307642Y-89028090D01*
X199408451Y-89095449D01*
X199520465Y-89141847D01*
X199639379Y-89165500D01*
X199639391Y-89165500D01*
X199639547Y-89165516D01*
X199639620Y-89165548D01*
X199644149Y-89166449D01*
X199643951Y-89167441D01*
X199695608Y-89190027D01*
X199699863Y-89194037D01*
X200065504Y-89559678D01*
X200093281Y-89614195D01*
X200094500Y-89629682D01*
X200094500Y-94420318D01*
X200075593Y-94478509D01*
X200065503Y-94490322D01*
X199699862Y-94855962D01*
X199645346Y-94883739D01*
X199639566Y-94884481D01*
X199639382Y-94884499D01*
X199520465Y-94908153D01*
X199520463Y-94908153D01*
X199408453Y-94954549D01*
X199408452Y-94954549D01*
X199307642Y-95021909D01*
X199221909Y-95107642D01*
X199154549Y-95208452D01*
X199154549Y-95208453D01*
X199108153Y-95320463D01*
X199108153Y-95320465D01*
X199084500Y-95439376D01*
X199084500Y-95560623D01*
X199108153Y-95679534D01*
X199108153Y-95679536D01*
X199154549Y-95791546D01*
X199154549Y-95791547D01*
X199187960Y-95841549D01*
X199221910Y-95892358D01*
X199307642Y-95978090D01*
X199408451Y-96045449D01*
X199449702Y-96062535D01*
X199496227Y-96102270D01*
X199510511Y-96161765D01*
X199487097Y-96218293D01*
X199481820Y-96224002D01*
X199320003Y-96385820D01*
X199265486Y-96413598D01*
X199205054Y-96404027D01*
X199179995Y-96385821D01*
X198334496Y-95540322D01*
X198306719Y-95485805D01*
X198305500Y-95470318D01*
X198305500Y-94290031D01*
X198305499Y-94290029D01*
X198274796Y-94175446D01*
X198274458Y-94174184D01*
X198234774Y-94105449D01*
X198234774Y-94105448D01*
X198234772Y-94105446D01*
X198214493Y-94070320D01*
X198214492Y-94070319D01*
X198214491Y-94070317D01*
X196879683Y-92735509D01*
X196775816Y-92675542D01*
X196775815Y-92675541D01*
X196775812Y-92675540D01*
X196659970Y-92644500D01*
X196659968Y-92644500D01*
X194240032Y-92644500D01*
X194148665Y-92668982D01*
X194148664Y-92668981D01*
X194124185Y-92675541D01*
X194124183Y-92675541D01*
X194124183Y-92675542D01*
X194020316Y-92735509D01*
X192135509Y-94620317D01*
X192105723Y-94671910D01*
X192093590Y-94692925D01*
X192093588Y-94692928D01*
X192075542Y-94724182D01*
X192075541Y-94724184D01*
X192044500Y-94840029D01*
X192044500Y-95285500D01*
X192025593Y-95343691D01*
X191976093Y-95379655D01*
X191945500Y-95384500D01*
X191939376Y-95384500D01*
X191820465Y-95408153D01*
X191820463Y-95408153D01*
X191708453Y-95454549D01*
X191708452Y-95454549D01*
X191607642Y-95521909D01*
X191521909Y-95607642D01*
X191454549Y-95708452D01*
X191454549Y-95708453D01*
X191408153Y-95820463D01*
X191408153Y-95820465D01*
X191384499Y-95939382D01*
X191384481Y-95939566D01*
X191384447Y-95939643D01*
X191383551Y-95944149D01*
X191382562Y-95943952D01*
X191359959Y-95995623D01*
X191355962Y-95999862D01*
X190885508Y-96470317D01*
X190842131Y-96545449D01*
X190825544Y-96574179D01*
X190825540Y-96574187D01*
X190794500Y-96690029D01*
X190794500Y-126809970D01*
X190814718Y-126885422D01*
X190814718Y-126885423D01*
X190825540Y-126925812D01*
X190825540Y-126925813D01*
X190825542Y-126925816D01*
X190885509Y-127029683D01*
X191120317Y-127264491D01*
X191224184Y-127324458D01*
X191224186Y-127324458D01*
X191224187Y-127324459D01*
X191282108Y-127339979D01*
X191340029Y-127355499D01*
X191340031Y-127355500D01*
X191340032Y-127355500D01*
X191944693Y-127355500D01*
X192002884Y-127374407D01*
X192007497Y-127377971D01*
X192007642Y-127378090D01*
X192108451Y-127445449D01*
X192220465Y-127491847D01*
X192339379Y-127515500D01*
X192339380Y-127515500D01*
X192460620Y-127515500D01*
X192460621Y-127515500D01*
X192579535Y-127491847D01*
X192691549Y-127445449D01*
X192792358Y-127378090D01*
X192868133Y-127302315D01*
X192922650Y-127274538D01*
X192983082Y-127284109D01*
X193008141Y-127302315D01*
X195441322Y-129735496D01*
X195469099Y-129790013D01*
X195459528Y-129850445D01*
X195416263Y-129893710D01*
X195371318Y-129904500D01*
X188724000Y-129904500D01*
X188639927Y-129913539D01*
X188639918Y-129913540D01*
X188588418Y-129924744D01*
X188588408Y-129924746D01*
X188518533Y-129946900D01*
X188413495Y-130012303D01*
X188387089Y-130035184D01*
X188360687Y-130058062D01*
X188360684Y-130058064D01*
X188360683Y-130058066D01*
X188293212Y-130133722D01*
X188240205Y-130245535D01*
X188220522Y-130312568D01*
X188220520Y-130312577D01*
X188204500Y-130423995D01*
X188204500Y-144195170D01*
X188185593Y-144253361D01*
X188175504Y-144265173D01*
X187956660Y-144484017D01*
X187928364Y-144515518D01*
X187928348Y-144515538D01*
X187911735Y-144536154D01*
X187893216Y-144561078D01*
X187893210Y-144561087D01*
X187840206Y-144672892D01*
X187820522Y-144739930D01*
X187820520Y-144739939D01*
X187804500Y-144851357D01*
X187804500Y-145284722D01*
X187785593Y-145342913D01*
X187736093Y-145378877D01*
X187674907Y-145378877D01*
X187639607Y-145358608D01*
X187566278Y-145293212D01*
X187489774Y-145256944D01*
X187454467Y-145240206D01*
X187387428Y-145220521D01*
X187387423Y-145220520D01*
X187387422Y-145220520D01*
X187276004Y-145204500D01*
X187276000Y-145204500D01*
X183604500Y-145204500D01*
X183546309Y-145185593D01*
X183510345Y-145136093D01*
X183505500Y-145105500D01*
X183505500Y-143705307D01*
X183524407Y-143647116D01*
X183527971Y-143642503D01*
X183528085Y-143642362D01*
X183528090Y-143642358D01*
X183595449Y-143541549D01*
X183641847Y-143429535D01*
X183665500Y-143310621D01*
X183665500Y-143189379D01*
X183641847Y-143070465D01*
X183595450Y-142958453D01*
X183595450Y-142958452D01*
X183528090Y-142857642D01*
X183442357Y-142771909D01*
X183341546Y-142704549D01*
X183229535Y-142658153D01*
X183110623Y-142634500D01*
X183110621Y-142634500D01*
X182989379Y-142634500D01*
X182989376Y-142634500D01*
X182870465Y-142658153D01*
X182870463Y-142658153D01*
X182758453Y-142704549D01*
X182758452Y-142704549D01*
X182657642Y-142771909D01*
X182571909Y-142857642D01*
X182504549Y-142958452D01*
X182504549Y-142958453D01*
X182458153Y-143070463D01*
X182458153Y-143070465D01*
X182434500Y-143189376D01*
X182434500Y-143310623D01*
X182458153Y-143429534D01*
X182458153Y-143429536D01*
X182504549Y-143541546D01*
X182504549Y-143541547D01*
X182571909Y-143642357D01*
X182572029Y-143642503D01*
X182572060Y-143642583D01*
X182574612Y-143646402D01*
X182573774Y-143646961D01*
X182594328Y-143699480D01*
X182594500Y-143705307D01*
X182594500Y-145423300D01*
X182575593Y-145481491D01*
X182528768Y-145516543D01*
X182444608Y-145546569D01*
X182444595Y-145546575D01*
X182383292Y-145580047D01*
X182383280Y-145580055D01*
X182293164Y-145647513D01*
X182161388Y-145779289D01*
X182122183Y-145824977D01*
X182099910Y-145855336D01*
X182073446Y-145896531D01*
X182030783Y-146012683D01*
X182017248Y-146081230D01*
X182017248Y-146081231D01*
X182011381Y-146193635D01*
X182011382Y-146193657D01*
X182085153Y-147005145D01*
X182071592Y-147064809D01*
X182056564Y-147084112D01*
X181591270Y-147549407D01*
X180221054Y-148919623D01*
X180220936Y-148919741D01*
X180220907Y-148919771D01*
X180218818Y-148921877D01*
X180217450Y-148923267D01*
X180214992Y-148925788D01*
X179597541Y-149564531D01*
X177504704Y-151729536D01*
X177461425Y-151774307D01*
X177407387Y-151803005D01*
X177390245Y-151804500D01*
X170804830Y-151804500D01*
X170746639Y-151785593D01*
X170734826Y-151775504D01*
X169524496Y-150565174D01*
X169496719Y-150510657D01*
X169495500Y-150495170D01*
X169495500Y-147749186D01*
X169514407Y-147690995D01*
X169563907Y-147655031D01*
X169625093Y-147655031D01*
X169632375Y-147657718D01*
X169700873Y-147686091D01*
X169898997Y-147725500D01*
X169898998Y-147725500D01*
X170101002Y-147725500D01*
X170101003Y-147725500D01*
X170299127Y-147686091D01*
X170485756Y-147608786D01*
X170653718Y-147496558D01*
X170796558Y-147353718D01*
X170908786Y-147185756D01*
X170908788Y-147185750D01*
X170911079Y-147181467D01*
X170912203Y-147182068D01*
X170948267Y-147139837D01*
X171007761Y-147125550D01*
X171064291Y-147148961D01*
X171088190Y-147181857D01*
X171088921Y-147181467D01*
X171091211Y-147185751D01*
X171091213Y-147185754D01*
X171091214Y-147185756D01*
X171126425Y-147238453D01*
X171166925Y-147299067D01*
X171203442Y-147353718D01*
X171346282Y-147496558D01*
X171514244Y-147608786D01*
X171700873Y-147686091D01*
X171898997Y-147725500D01*
X171898998Y-147725500D01*
X172101002Y-147725500D01*
X172101003Y-147725500D01*
X172299127Y-147686091D01*
X172485756Y-147608786D01*
X172653718Y-147496558D01*
X172796558Y-147353718D01*
X172846660Y-147278733D01*
X172894708Y-147240855D01*
X172955847Y-147238453D01*
X173006721Y-147272445D01*
X173017183Y-147288788D01*
X173022414Y-147299055D01*
X173022422Y-147299067D01*
X173030543Y-147310244D01*
X173030544Y-147310244D01*
X173515841Y-146824947D01*
X173534075Y-146892993D01*
X173599901Y-147007007D01*
X173692993Y-147100099D01*
X173807007Y-147165925D01*
X173875051Y-147184157D01*
X173389754Y-147669455D01*
X173400936Y-147677579D01*
X173400944Y-147677584D01*
X173561239Y-147759258D01*
X173732351Y-147814856D01*
X173910041Y-147843000D01*
X174089959Y-147843000D01*
X174267648Y-147814856D01*
X174438760Y-147759258D01*
X174599059Y-147677581D01*
X174599062Y-147677579D01*
X174610244Y-147669455D01*
X174124947Y-147184158D01*
X174192993Y-147165925D01*
X174307007Y-147100099D01*
X174400099Y-147007007D01*
X174465925Y-146892993D01*
X174484158Y-146824947D01*
X174969455Y-147310244D01*
X174977579Y-147299062D01*
X174977581Y-147299059D01*
X175059258Y-147138760D01*
X175114856Y-146967648D01*
X175143000Y-146789959D01*
X175143000Y-146610040D01*
X175114856Y-146432351D01*
X175059258Y-146261239D01*
X174977584Y-146100944D01*
X174977579Y-146100936D01*
X174969455Y-146089754D01*
X174484157Y-146575051D01*
X174465925Y-146507007D01*
X174400099Y-146392993D01*
X174307007Y-146299901D01*
X174192993Y-146234075D01*
X174124947Y-146215841D01*
X174610244Y-145730544D01*
X174610244Y-145730543D01*
X174599067Y-145722422D01*
X174599061Y-145722418D01*
X174438760Y-145640741D01*
X174267648Y-145585143D01*
X174089959Y-145557000D01*
X173910041Y-145557000D01*
X173732351Y-145585143D01*
X173561239Y-145640741D01*
X173400933Y-145722421D01*
X173400932Y-145722422D01*
X173389754Y-145730543D01*
X173875052Y-146215841D01*
X173807007Y-146234075D01*
X173692993Y-146299901D01*
X173599901Y-146392993D01*
X173534075Y-146507007D01*
X173515841Y-146575052D01*
X173030543Y-146089754D01*
X173022422Y-146100932D01*
X173022418Y-146100938D01*
X173017185Y-146111210D01*
X172973920Y-146154474D01*
X172913488Y-146164045D01*
X172858972Y-146136267D01*
X172846660Y-146121265D01*
X172796560Y-146046285D01*
X172796558Y-146046282D01*
X172653718Y-145903442D01*
X172643375Y-145896531D01*
X172574621Y-145850591D01*
X172507999Y-145806076D01*
X172470119Y-145758026D01*
X172464000Y-145723760D01*
X172464000Y-145214631D01*
X172432379Y-145096621D01*
X172432379Y-145096620D01*
X172422966Y-145080317D01*
X172382186Y-145009683D01*
X172371293Y-144990815D01*
X172284903Y-144904425D01*
X172284900Y-144904423D01*
X159492996Y-132112518D01*
X159465219Y-132058001D01*
X159464000Y-132042514D01*
X159464000Y-122642412D01*
X159482907Y-122584221D01*
X159532407Y-122548257D01*
X159593593Y-122548257D01*
X159643093Y-122584221D01*
X159656442Y-122609710D01*
X159677264Y-122669215D01*
X159677266Y-122669219D01*
X159825916Y-122977895D01*
X159825920Y-122977902D01*
X159825924Y-122977910D01*
X160008211Y-123268018D01*
X160221834Y-123535893D01*
X160464107Y-123778166D01*
X160731982Y-123991789D01*
X161022090Y-124174076D01*
X161022101Y-124174081D01*
X161022104Y-124174083D01*
X161053867Y-124189379D01*
X161330785Y-124322736D01*
X161481753Y-124375561D01*
X161654179Y-124435896D01*
X161654182Y-124435896D01*
X161654183Y-124435897D01*
X161988217Y-124512139D01*
X162328688Y-124550500D01*
X162328689Y-124550500D01*
X162671311Y-124550500D01*
X162671312Y-124550500D01*
X163011783Y-124512139D01*
X163345817Y-124435897D01*
X163669215Y-124322736D01*
X163977910Y-124174076D01*
X164268018Y-123991789D01*
X164535893Y-123778166D01*
X164778166Y-123535893D01*
X164991789Y-123268018D01*
X165174076Y-122977910D01*
X165322736Y-122669215D01*
X165435897Y-122345817D01*
X165512139Y-122011783D01*
X165550500Y-121671312D01*
X165550500Y-121328688D01*
X165512139Y-120988217D01*
X165435897Y-120654183D01*
X165322736Y-120330785D01*
X165222146Y-120121909D01*
X165174083Y-120022104D01*
X165174081Y-120022101D01*
X165174076Y-120022090D01*
X164991789Y-119731982D01*
X164778166Y-119464107D01*
X164535893Y-119221834D01*
X164268018Y-119008211D01*
X163977910Y-118825924D01*
X163977902Y-118825920D01*
X163977895Y-118825916D01*
X163669215Y-118677264D01*
X163669213Y-118677263D01*
X163345820Y-118564103D01*
X163011781Y-118487860D01*
X162671313Y-118449500D01*
X162671312Y-118449500D01*
X162328688Y-118449500D01*
X162328686Y-118449500D01*
X161988218Y-118487860D01*
X161654179Y-118564103D01*
X161330786Y-118677263D01*
X161330784Y-118677264D01*
X161022104Y-118825916D01*
X161022092Y-118825923D01*
X160731981Y-119008211D01*
X160464108Y-119221833D01*
X160221833Y-119464108D01*
X160008211Y-119731981D01*
X159878791Y-119937951D01*
X159849544Y-119984500D01*
X159825923Y-120022092D01*
X159825916Y-120022104D01*
X159677264Y-120330784D01*
X159677263Y-120330786D01*
X159656444Y-120390285D01*
X159619379Y-120438965D01*
X159560779Y-120456562D01*
X159503027Y-120436354D01*
X159468183Y-120386059D01*
X159464000Y-120357587D01*
X159464000Y-103639376D01*
X163884500Y-103639376D01*
X163884500Y-103760623D01*
X163908152Y-103879533D01*
X163941387Y-103959768D01*
X163946188Y-104020765D01*
X163941388Y-104035538D01*
X163914100Y-104101417D01*
X163890448Y-104220327D01*
X163890448Y-104341574D01*
X163914101Y-104460485D01*
X163914101Y-104460487D01*
X163960497Y-104572497D01*
X163960497Y-104572498D01*
X164027857Y-104673308D01*
X164027858Y-104673309D01*
X164113590Y-104759041D01*
X164214399Y-104826400D01*
X164326413Y-104872798D01*
X164445327Y-104896451D01*
X164445328Y-104896451D01*
X164566568Y-104896451D01*
X164566569Y-104896451D01*
X164685483Y-104872798D01*
X164797497Y-104826400D01*
X164898306Y-104759041D01*
X164984038Y-104673309D01*
X165051397Y-104572500D01*
X165097795Y-104460486D01*
X165121448Y-104341572D01*
X165121448Y-104220330D01*
X165097795Y-104101416D01*
X165064559Y-104021179D01*
X165059759Y-103960184D01*
X165064555Y-103945420D01*
X165091847Y-103879535D01*
X165115500Y-103760621D01*
X165115500Y-103639379D01*
X165091847Y-103520465D01*
X165045450Y-103408453D01*
X165045450Y-103408452D01*
X164978090Y-103307642D01*
X164892357Y-103221909D01*
X164791546Y-103154549D01*
X164679535Y-103108153D01*
X164560623Y-103084500D01*
X164560621Y-103084500D01*
X164439379Y-103084500D01*
X164439376Y-103084500D01*
X164320465Y-103108153D01*
X164320463Y-103108153D01*
X164208453Y-103154549D01*
X164208452Y-103154549D01*
X164107642Y-103221909D01*
X164021909Y-103307642D01*
X163954549Y-103408452D01*
X163954549Y-103408453D01*
X163908153Y-103520463D01*
X163908153Y-103520465D01*
X163884500Y-103639376D01*
X159464000Y-103639376D01*
X159464000Y-102839376D01*
X166134500Y-102839376D01*
X166134500Y-102960623D01*
X166158153Y-103079534D01*
X166158153Y-103079536D01*
X166204549Y-103191546D01*
X166204549Y-103191547D01*
X166271909Y-103292357D01*
X166272029Y-103292503D01*
X166272060Y-103292583D01*
X166274612Y-103296402D01*
X166273774Y-103296961D01*
X166294328Y-103349480D01*
X166294500Y-103355307D01*
X166294500Y-108109970D01*
X166325540Y-108225812D01*
X166325540Y-108225813D01*
X166325542Y-108225816D01*
X166385509Y-108329683D01*
X171661788Y-113605962D01*
X172305962Y-114250136D01*
X172333739Y-114304653D01*
X172334481Y-114310435D01*
X172334498Y-114310616D01*
X172358153Y-114429534D01*
X172358153Y-114429536D01*
X172404549Y-114541546D01*
X172404549Y-114541547D01*
X172471909Y-114642357D01*
X172471910Y-114642358D01*
X172557642Y-114728090D01*
X172658451Y-114795449D01*
X172770465Y-114841847D01*
X172889379Y-114865500D01*
X172889380Y-114865500D01*
X173010620Y-114865500D01*
X173010621Y-114865500D01*
X173129535Y-114841847D01*
X173241549Y-114795449D01*
X173342358Y-114728090D01*
X173428090Y-114642358D01*
X173495449Y-114541549D01*
X173541847Y-114429535D01*
X173565500Y-114310621D01*
X173565500Y-114189379D01*
X173541847Y-114070465D01*
X173495450Y-113958453D01*
X173495450Y-113958452D01*
X173428090Y-113857642D01*
X173342357Y-113771909D01*
X173241546Y-113704549D01*
X173129535Y-113658153D01*
X173010616Y-113634498D01*
X173010435Y-113634481D01*
X173010358Y-113634447D01*
X173005851Y-113633551D01*
X173006047Y-113632561D01*
X172954378Y-113609960D01*
X172950136Y-113605962D01*
X167234496Y-107890322D01*
X167206719Y-107835805D01*
X167205500Y-107820318D01*
X167205500Y-103355307D01*
X167224407Y-103297116D01*
X167227971Y-103292503D01*
X167228085Y-103292362D01*
X167228090Y-103292358D01*
X167295449Y-103191549D01*
X167341847Y-103079535D01*
X167365500Y-102960621D01*
X167365500Y-102839379D01*
X167341847Y-102720465D01*
X167298369Y-102615500D01*
X167295450Y-102608453D01*
X167295450Y-102608452D01*
X167228090Y-102507642D01*
X167142357Y-102421909D01*
X167041546Y-102354549D01*
X166929535Y-102308153D01*
X166810623Y-102284500D01*
X166810621Y-102284500D01*
X166689379Y-102284500D01*
X166689376Y-102284500D01*
X166570465Y-102308153D01*
X166570463Y-102308153D01*
X166458453Y-102354549D01*
X166458452Y-102354549D01*
X166357642Y-102421909D01*
X166271909Y-102507642D01*
X166204549Y-102608452D01*
X166204549Y-102608453D01*
X166158153Y-102720463D01*
X166158153Y-102720465D01*
X166134500Y-102839376D01*
X159464000Y-102839376D01*
X159464000Y-99143476D01*
X159480685Y-99088474D01*
X159495471Y-99066345D01*
X159545449Y-98991549D01*
X159591847Y-98879535D01*
X159615500Y-98760621D01*
X159615500Y-98639379D01*
X159591847Y-98520465D01*
X159545450Y-98408453D01*
X159545450Y-98408452D01*
X159478090Y-98307642D01*
X159392357Y-98221909D01*
X159291548Y-98154550D01*
X159179533Y-98108152D01*
X159179531Y-98108151D01*
X159171269Y-98106508D01*
X159117886Y-98076609D01*
X159093489Y-98028721D01*
X159091847Y-98020465D01*
X159045450Y-97908453D01*
X159045450Y-97908452D01*
X158978090Y-97807642D01*
X158892357Y-97721909D01*
X158791546Y-97654549D01*
X158679535Y-97608153D01*
X158560623Y-97584500D01*
X158560621Y-97584500D01*
X158439379Y-97584500D01*
X158439376Y-97584500D01*
X158320465Y-97608153D01*
X158320463Y-97608153D01*
X158208453Y-97654549D01*
X158208452Y-97654549D01*
X158107642Y-97721909D01*
X158021909Y-97807642D01*
X157954549Y-97908452D01*
X157954549Y-97908453D01*
X157908153Y-98020463D01*
X157908153Y-98020465D01*
X157884500Y-98139376D01*
X157884500Y-98260623D01*
X157908153Y-98379534D01*
X157908153Y-98379536D01*
X157954549Y-98491546D01*
X158019315Y-98588474D01*
X158036000Y-98643476D01*
X158036000Y-132101703D01*
X158035999Y-132101721D01*
X158035999Y-132229959D01*
X158067619Y-132347963D01*
X158067621Y-132347967D01*
X158128707Y-132453773D01*
X158626933Y-132951999D01*
X159075430Y-133400496D01*
X159103207Y-133455013D01*
X159093636Y-133515445D01*
X159050371Y-133558710D01*
X159005426Y-133569500D01*
X156179683Y-133569500D01*
X156121492Y-133550593D01*
X156109679Y-133540504D01*
X153234496Y-130665321D01*
X153206719Y-130610804D01*
X153205500Y-130595317D01*
X153205500Y-108455307D01*
X153224407Y-108397116D01*
X153227971Y-108392503D01*
X153228085Y-108392362D01*
X153228090Y-108392358D01*
X153295449Y-108291549D01*
X153341847Y-108179535D01*
X153365500Y-108060621D01*
X153365500Y-107939379D01*
X153341847Y-107820465D01*
X153295450Y-107708453D01*
X153295450Y-107708452D01*
X153228090Y-107607642D01*
X153142357Y-107521909D01*
X153041546Y-107454549D01*
X152929535Y-107408153D01*
X152810623Y-107384500D01*
X152810621Y-107384500D01*
X152689379Y-107384500D01*
X152689376Y-107384500D01*
X152570465Y-107408153D01*
X152570463Y-107408153D01*
X152458453Y-107454549D01*
X152458452Y-107454549D01*
X152357642Y-107521909D01*
X152271909Y-107607642D01*
X152204549Y-107708452D01*
X152204549Y-107708453D01*
X152158153Y-107820463D01*
X152158153Y-107820465D01*
X152134500Y-107939376D01*
X149804796Y-107939376D01*
X150667920Y-107076252D01*
X150722435Y-107048477D01*
X150757229Y-107049159D01*
X150839379Y-107065500D01*
X150839380Y-107065500D01*
X150960620Y-107065500D01*
X150960621Y-107065500D01*
X151079535Y-107041847D01*
X151191549Y-106995449D01*
X151292358Y-106928090D01*
X151378090Y-106842358D01*
X151445449Y-106741549D01*
X151491847Y-106629535D01*
X151515500Y-106510621D01*
X151515500Y-106389379D01*
X151491847Y-106270465D01*
X151445450Y-106158453D01*
X151445450Y-106158452D01*
X151378090Y-106057642D01*
X151292357Y-105971909D01*
X151191546Y-105904549D01*
X151079535Y-105858153D01*
X150960623Y-105834500D01*
X150960621Y-105834500D01*
X150839379Y-105834500D01*
X150839376Y-105834500D01*
X150720465Y-105858153D01*
X150720463Y-105858153D01*
X150608453Y-105904549D01*
X150608452Y-105904549D01*
X150507639Y-105971911D01*
X150421911Y-106057640D01*
X150413833Y-106069730D01*
X150381020Y-106100461D01*
X150344099Y-106121777D01*
X150320318Y-106135508D01*
X139185509Y-117270317D01*
X139125540Y-117374186D01*
X139125540Y-117374187D01*
X139094500Y-117490029D01*
X139094500Y-139744692D01*
X139075593Y-139802883D01*
X139072037Y-139807486D01*
X139071913Y-139807636D01*
X139004549Y-139908452D01*
X139004549Y-139908453D01*
X138958153Y-140020463D01*
X138958153Y-140020465D01*
X138934500Y-140139376D01*
X138934500Y-140260623D01*
X138958153Y-140379534D01*
X138958153Y-140379536D01*
X139004549Y-140491546D01*
X139004549Y-140491547D01*
X139071909Y-140592357D01*
X139072029Y-140592503D01*
X139072060Y-140592583D01*
X139074612Y-140596402D01*
X139073774Y-140596961D01*
X139094328Y-140649480D01*
X139094500Y-140655307D01*
X139094500Y-149545500D01*
X139075593Y-149603691D01*
X139026093Y-149639655D01*
X138995500Y-149644500D01*
X133914956Y-149644500D01*
X133856765Y-149625593D01*
X133820801Y-149576093D01*
X133820801Y-149514907D01*
X133844952Y-149475496D01*
X133878090Y-149442358D01*
X133945449Y-149341549D01*
X133991847Y-149229535D01*
X134015500Y-149110621D01*
X134015500Y-148989379D01*
X133991847Y-148870465D01*
X133945450Y-148758453D01*
X133945450Y-148758452D01*
X133878090Y-148657642D01*
X133792357Y-148571909D01*
X133691546Y-148504549D01*
X133579535Y-148458153D01*
X133460623Y-148434500D01*
X133460621Y-148434500D01*
X133339379Y-148434500D01*
X133339376Y-148434500D01*
X133220465Y-148458153D01*
X133220463Y-148458153D01*
X133108453Y-148504549D01*
X133108452Y-148504549D01*
X133007638Y-148571911D01*
X132988941Y-148590609D01*
X132934424Y-148618385D01*
X132873992Y-148608813D01*
X132863938Y-148602920D01*
X132833163Y-148582357D01*
X132791549Y-148554551D01*
X132791546Y-148554549D01*
X132791545Y-148554549D01*
X132679535Y-148508153D01*
X132560623Y-148484500D01*
X132560621Y-148484500D01*
X132439379Y-148484500D01*
X132439376Y-148484500D01*
X132320465Y-148508153D01*
X132320463Y-148508153D01*
X132258293Y-148533905D01*
X132197296Y-148538705D01*
X132145127Y-148506736D01*
X132138100Y-148497452D01*
X132078090Y-148407642D01*
X131992358Y-148321910D01*
X131891549Y-148254551D01*
X131891548Y-148254550D01*
X131891546Y-148254549D01*
X131779535Y-148208153D01*
X131660623Y-148184500D01*
X131660621Y-148184500D01*
X131539379Y-148184500D01*
X131539376Y-148184500D01*
X131420465Y-148208153D01*
X131420463Y-148208153D01*
X131308453Y-148254549D01*
X131308452Y-148254549D01*
X131207642Y-148321909D01*
X131121909Y-148407642D01*
X131054549Y-148508452D01*
X131054549Y-148508453D01*
X131008153Y-148620463D01*
X131008153Y-148620465D01*
X130984500Y-148739376D01*
X107500000Y-148739376D01*
X107500000Y-146528842D01*
X133159500Y-146528842D01*
X133159500Y-146671158D01*
X133196334Y-146808625D01*
X133267492Y-146931875D01*
X133368125Y-147032508D01*
X133491375Y-147103666D01*
X133558377Y-147121618D01*
X133609690Y-147154942D01*
X133628379Y-147191621D01*
X133646332Y-147258621D01*
X133646333Y-147258624D01*
X133646334Y-147258625D01*
X133717492Y-147381875D01*
X133818125Y-147482508D01*
X133941375Y-147553666D01*
X134078842Y-147590500D01*
X134078844Y-147590500D01*
X134221156Y-147590500D01*
X134221158Y-147590500D01*
X134358625Y-147553666D01*
X134481875Y-147482508D01*
X134582508Y-147381875D01*
X134653666Y-147258625D01*
X134671619Y-147191621D01*
X134704942Y-147140308D01*
X134741620Y-147121619D01*
X134808625Y-147103666D01*
X134931875Y-147032508D01*
X135032508Y-146931875D01*
X135103666Y-146808625D01*
X135140500Y-146671158D01*
X135140500Y-146528842D01*
X135103666Y-146391375D01*
X135032508Y-146268125D01*
X134931875Y-146167492D01*
X134808625Y-146096334D01*
X134808624Y-146096333D01*
X134808621Y-146096332D01*
X134741621Y-146078379D01*
X134690307Y-146045055D01*
X134671619Y-146008378D01*
X134653666Y-145941375D01*
X134582508Y-145818125D01*
X134481875Y-145717492D01*
X134358625Y-145646334D01*
X134221158Y-145609500D01*
X134078842Y-145609500D01*
X133941375Y-145646334D01*
X133818125Y-145717492D01*
X133717492Y-145818125D01*
X133668235Y-145903442D01*
X133646333Y-145941377D01*
X133628379Y-146008378D01*
X133595054Y-146059692D01*
X133558378Y-146078379D01*
X133491377Y-146096333D01*
X133491375Y-146096333D01*
X133491375Y-146096334D01*
X133368125Y-146167492D01*
X133267492Y-146268125D01*
X133196334Y-146391375D01*
X133159500Y-146528842D01*
X107500000Y-146528842D01*
X107500000Y-143569376D01*
X128654500Y-143569376D01*
X128654500Y-143690623D01*
X128668738Y-143762200D01*
X128677937Y-143808451D01*
X128678153Y-143809534D01*
X128678153Y-143809536D01*
X128724549Y-143921546D01*
X128724549Y-143921547D01*
X128791909Y-144022357D01*
X128791910Y-144022358D01*
X128877642Y-144108090D01*
X128978451Y-144175449D01*
X129090465Y-144221847D01*
X129209379Y-144245500D01*
X129209380Y-144245500D01*
X129330620Y-144245500D01*
X129330621Y-144245500D01*
X129449535Y-144221847D01*
X129561549Y-144175449D01*
X129662358Y-144108090D01*
X129662362Y-144108085D01*
X129662503Y-144107971D01*
X129662583Y-144107939D01*
X129666402Y-144105388D01*
X129666961Y-144106225D01*
X129719480Y-144085672D01*
X129725307Y-144085500D01*
X135030318Y-144085500D01*
X135088509Y-144104407D01*
X135100322Y-144114496D01*
X136505504Y-145519678D01*
X136533281Y-145574195D01*
X136534500Y-145589682D01*
X136534500Y-147734692D01*
X136515593Y-147792883D01*
X136512037Y-147797486D01*
X136511913Y-147797636D01*
X136444549Y-147898452D01*
X136444549Y-147898453D01*
X136398153Y-148010463D01*
X136398153Y-148010465D01*
X136374500Y-148129376D01*
X136374500Y-148250623D01*
X136398153Y-148369534D01*
X136398153Y-148369536D01*
X136444549Y-148481546D01*
X136444549Y-148481547D01*
X136504929Y-148571911D01*
X136511910Y-148582358D01*
X136597642Y-148668090D01*
X136698451Y-148735449D01*
X136698452Y-148735449D01*
X136698453Y-148735450D01*
X136707939Y-148739379D01*
X136810465Y-148781847D01*
X136929379Y-148805500D01*
X136929380Y-148805500D01*
X137050620Y-148805500D01*
X137050621Y-148805500D01*
X137169535Y-148781847D01*
X137281549Y-148735449D01*
X137382358Y-148668090D01*
X137468090Y-148582358D01*
X137535449Y-148481549D01*
X137581847Y-148369535D01*
X137605500Y-148250621D01*
X137605500Y-148129379D01*
X137581847Y-148010465D01*
X137535450Y-147898453D01*
X137535450Y-147898452D01*
X137468086Y-147797636D01*
X137467963Y-147797486D01*
X137467930Y-147797403D01*
X137465388Y-147793598D01*
X137466223Y-147793039D01*
X137445671Y-147740506D01*
X137445500Y-147734692D01*
X137445500Y-145300031D01*
X137445499Y-145300029D01*
X137443672Y-145293212D01*
X137424194Y-145220520D01*
X137414459Y-145184187D01*
X137414458Y-145184185D01*
X137414458Y-145184184D01*
X137397296Y-145154458D01*
X137397295Y-145154456D01*
X137397295Y-145154455D01*
X137354492Y-145080319D01*
X137354491Y-145080317D01*
X136639683Y-144365509D01*
X135539683Y-143265509D01*
X135435816Y-143205542D01*
X135433308Y-143204870D01*
X135433299Y-143204867D01*
X135433298Y-143204867D01*
X135371576Y-143188328D01*
X135319968Y-143174500D01*
X135319967Y-143174500D01*
X129725307Y-143174500D01*
X129667116Y-143155593D01*
X129662503Y-143152029D01*
X129662357Y-143151909D01*
X129561546Y-143084549D01*
X129449535Y-143038153D01*
X129330623Y-143014500D01*
X129330621Y-143014500D01*
X129209379Y-143014500D01*
X129209376Y-143014500D01*
X129090465Y-143038153D01*
X129090463Y-143038153D01*
X128978453Y-143084549D01*
X128978452Y-143084549D01*
X128877642Y-143151909D01*
X128791909Y-143237642D01*
X128724549Y-143338452D01*
X128724549Y-143338453D01*
X128678153Y-143450463D01*
X128678153Y-143450465D01*
X128654500Y-143569376D01*
X107500000Y-143569376D01*
X107500000Y-101889376D01*
X156363000Y-101889376D01*
X156363000Y-102010623D01*
X156386653Y-102129534D01*
X156386653Y-102129536D01*
X156433049Y-102241546D01*
X156433049Y-102241547D01*
X156500409Y-102342357D01*
X156500410Y-102342358D01*
X156586142Y-102428090D01*
X156686951Y-102495449D01*
X156798965Y-102541847D01*
X156917879Y-102565500D01*
X156917880Y-102565500D01*
X157039120Y-102565500D01*
X157039121Y-102565500D01*
X157158035Y-102541847D01*
X157270049Y-102495449D01*
X157370858Y-102428090D01*
X157456590Y-102342358D01*
X157523949Y-102241549D01*
X157570347Y-102129535D01*
X157594000Y-102010621D01*
X157594000Y-101889379D01*
X157570347Y-101770465D01*
X157537658Y-101691547D01*
X157523950Y-101658453D01*
X157523950Y-101658452D01*
X157456590Y-101557642D01*
X157370857Y-101471909D01*
X157270046Y-101404549D01*
X157158035Y-101358153D01*
X157039123Y-101334500D01*
X157039121Y-101334500D01*
X156917879Y-101334500D01*
X156917876Y-101334500D01*
X156798965Y-101358153D01*
X156798963Y-101358153D01*
X156686953Y-101404549D01*
X156686952Y-101404549D01*
X156586142Y-101471909D01*
X156500409Y-101557642D01*
X156433049Y-101658452D01*
X156433049Y-101658453D01*
X156386653Y-101770463D01*
X156386653Y-101770465D01*
X156363000Y-101889376D01*
X107500000Y-101889376D01*
X107500000Y-101089376D01*
X146584500Y-101089376D01*
X146584500Y-101210623D01*
X146608153Y-101329534D01*
X146608153Y-101329536D01*
X146654549Y-101441546D01*
X146654549Y-101441547D01*
X146708246Y-101521909D01*
X146721910Y-101542358D01*
X146807642Y-101628090D01*
X146908451Y-101695449D01*
X147020465Y-101741847D01*
X147139379Y-101765500D01*
X147139380Y-101765500D01*
X147260620Y-101765500D01*
X147260621Y-101765500D01*
X147379535Y-101741847D01*
X147491549Y-101695449D01*
X147592358Y-101628090D01*
X147678090Y-101542358D01*
X147745449Y-101441549D01*
X147791847Y-101329535D01*
X147815500Y-101210621D01*
X147815500Y-101089379D01*
X147791847Y-100970465D01*
X147750717Y-100871169D01*
X147745450Y-100858453D01*
X147745450Y-100858452D01*
X147678090Y-100757642D01*
X147592357Y-100671909D01*
X147491546Y-100604549D01*
X147379535Y-100558153D01*
X147260623Y-100534500D01*
X147260621Y-100534500D01*
X147139379Y-100534500D01*
X147139376Y-100534500D01*
X147020465Y-100558153D01*
X147020463Y-100558153D01*
X146908453Y-100604549D01*
X146908452Y-100604549D01*
X146807642Y-100671909D01*
X146721909Y-100757642D01*
X146654549Y-100858452D01*
X146654549Y-100858453D01*
X146608153Y-100970463D01*
X146608153Y-100970465D01*
X146584500Y-101089376D01*
X107500000Y-101089376D01*
X107500000Y-95689376D01*
X156734500Y-95689376D01*
X156734500Y-95810623D01*
X156758153Y-95929534D01*
X156758153Y-95929536D01*
X156804549Y-96041546D01*
X156804549Y-96041547D01*
X156871909Y-96142357D01*
X156871910Y-96142358D01*
X156957642Y-96228090D01*
X157058451Y-96295449D01*
X157170465Y-96341847D01*
X157289379Y-96365500D01*
X157289380Y-96365500D01*
X157410620Y-96365500D01*
X157410621Y-96365500D01*
X157529535Y-96341847D01*
X157641549Y-96295449D01*
X157742358Y-96228090D01*
X157828090Y-96142358D01*
X157895449Y-96041549D01*
X157941847Y-95929535D01*
X157965500Y-95810621D01*
X157965500Y-95689379D01*
X157941847Y-95570465D01*
X157930510Y-95543097D01*
X157925710Y-95482102D01*
X157939661Y-95450210D01*
X157945449Y-95441549D01*
X157991847Y-95329535D01*
X158015500Y-95210621D01*
X158015500Y-95089379D01*
X157991847Y-94970465D01*
X157945450Y-94858453D01*
X157945450Y-94858452D01*
X157878090Y-94757642D01*
X157792357Y-94671909D01*
X157691546Y-94604549D01*
X157579535Y-94558153D01*
X157460623Y-94534500D01*
X157460621Y-94534500D01*
X157339379Y-94534500D01*
X157339376Y-94534500D01*
X157220465Y-94558153D01*
X157220463Y-94558153D01*
X157108453Y-94604549D01*
X157108452Y-94604549D01*
X157007642Y-94671909D01*
X156921909Y-94757642D01*
X156854549Y-94858452D01*
X156854549Y-94858453D01*
X156808153Y-94970463D01*
X156808153Y-94970465D01*
X156784500Y-95089376D01*
X156784500Y-95210623D01*
X156808152Y-95329533D01*
X156808153Y-95329535D01*
X156819488Y-95356900D01*
X156824289Y-95417896D01*
X156810342Y-95449783D01*
X156804550Y-95458452D01*
X156758153Y-95570463D01*
X156758153Y-95570465D01*
X156734500Y-95689376D01*
X107500000Y-95689376D01*
X107500000Y-82389376D01*
X192534500Y-82389376D01*
X192534500Y-82389379D01*
X192534500Y-82510621D01*
X192556440Y-82620925D01*
X192558153Y-82629534D01*
X192558153Y-82629536D01*
X192604549Y-82741546D01*
X192604549Y-82741547D01*
X192671909Y-82842357D01*
X192672029Y-82842503D01*
X192672060Y-82842583D01*
X192674612Y-82846402D01*
X192673774Y-82846961D01*
X192694328Y-82899480D01*
X192694500Y-82905307D01*
X192694500Y-87944692D01*
X192675593Y-88002883D01*
X192672037Y-88007486D01*
X192671913Y-88007636D01*
X192604549Y-88108452D01*
X192604549Y-88108453D01*
X192558153Y-88220463D01*
X192558153Y-88220465D01*
X192534500Y-88339376D01*
X192534500Y-88460623D01*
X192558153Y-88579534D01*
X192558153Y-88579536D01*
X192604549Y-88691546D01*
X192604549Y-88691547D01*
X192629933Y-88729536D01*
X192671910Y-88792358D01*
X192757642Y-88878090D01*
X192858451Y-88945449D01*
X192970465Y-88991847D01*
X193089379Y-89015500D01*
X193089380Y-89015500D01*
X193210620Y-89015500D01*
X193210621Y-89015500D01*
X193329535Y-88991847D01*
X193441549Y-88945449D01*
X193542358Y-88878090D01*
X193628090Y-88792358D01*
X193695449Y-88691549D01*
X193741847Y-88579535D01*
X193765500Y-88460621D01*
X193765500Y-88339379D01*
X193741847Y-88220465D01*
X193695450Y-88108453D01*
X193695450Y-88108452D01*
X193628086Y-88007636D01*
X193627963Y-88007486D01*
X193627930Y-88007403D01*
X193625388Y-88003598D01*
X193626223Y-88003039D01*
X193605671Y-87950506D01*
X193605500Y-87944692D01*
X193605500Y-87555376D01*
X197834500Y-87555376D01*
X197834500Y-87676623D01*
X197858153Y-87795534D01*
X197858153Y-87795536D01*
X197904549Y-87907546D01*
X197904549Y-87907547D01*
X197971909Y-88008357D01*
X197971910Y-88008358D01*
X198057642Y-88094090D01*
X198158451Y-88161449D01*
X198270465Y-88207847D01*
X198389379Y-88231500D01*
X198389380Y-88231500D01*
X198510620Y-88231500D01*
X198510621Y-88231500D01*
X198629535Y-88207847D01*
X198741549Y-88161449D01*
X198842358Y-88094090D01*
X198928090Y-88008358D01*
X198995449Y-87907549D01*
X199041847Y-87795535D01*
X199065500Y-87676621D01*
X199065500Y-87555379D01*
X199041847Y-87436465D01*
X199018648Y-87380458D01*
X198995450Y-87324453D01*
X198995450Y-87324452D01*
X198928090Y-87223642D01*
X198842357Y-87137909D01*
X198741546Y-87070549D01*
X198629535Y-87024153D01*
X198510623Y-87000500D01*
X198510621Y-87000500D01*
X198389379Y-87000500D01*
X198389376Y-87000500D01*
X198270465Y-87024153D01*
X198270463Y-87024153D01*
X198158453Y-87070549D01*
X198158452Y-87070549D01*
X198057642Y-87137909D01*
X197971909Y-87223642D01*
X197904549Y-87324452D01*
X197904549Y-87324453D01*
X197858153Y-87436463D01*
X197858153Y-87436465D01*
X197834500Y-87555376D01*
X193605500Y-87555376D01*
X193605500Y-85939376D01*
X195784500Y-85939376D01*
X195784500Y-86060623D01*
X195808153Y-86179534D01*
X195808153Y-86179536D01*
X195854549Y-86291546D01*
X195854549Y-86291547D01*
X195921909Y-86392357D01*
X195921910Y-86392358D01*
X196007642Y-86478090D01*
X196108451Y-86545449D01*
X196220465Y-86591847D01*
X196339379Y-86615500D01*
X196339380Y-86615500D01*
X196460620Y-86615500D01*
X196460621Y-86615500D01*
X196579535Y-86591847D01*
X196691549Y-86545449D01*
X196792358Y-86478090D01*
X196878090Y-86392358D01*
X196945449Y-86291549D01*
X196991847Y-86179535D01*
X197015500Y-86060621D01*
X197015500Y-85939379D01*
X196991847Y-85820465D01*
X196945450Y-85708453D01*
X196945450Y-85708452D01*
X196878090Y-85607642D01*
X196792357Y-85521909D01*
X196691546Y-85454549D01*
X196579535Y-85408153D01*
X196460623Y-85384500D01*
X196460621Y-85384500D01*
X196339379Y-85384500D01*
X196339376Y-85384500D01*
X196220465Y-85408153D01*
X196220463Y-85408153D01*
X196108453Y-85454549D01*
X196108452Y-85454549D01*
X196007642Y-85521909D01*
X195921909Y-85607642D01*
X195854549Y-85708452D01*
X195854549Y-85708453D01*
X195808153Y-85820463D01*
X195808153Y-85820465D01*
X195784500Y-85939376D01*
X193605500Y-85939376D01*
X193605500Y-82905307D01*
X193624407Y-82847116D01*
X193627971Y-82842503D01*
X193628085Y-82842362D01*
X193628090Y-82842358D01*
X193695449Y-82741549D01*
X193741847Y-82629535D01*
X193765500Y-82510621D01*
X193765500Y-82389379D01*
X193741847Y-82270465D01*
X193695450Y-82158453D01*
X193695450Y-82158452D01*
X193628090Y-82057642D01*
X193542357Y-81971909D01*
X193441546Y-81904549D01*
X193329535Y-81858153D01*
X193210623Y-81834500D01*
X193210621Y-81834500D01*
X193089379Y-81834500D01*
X193089376Y-81834500D01*
X192970465Y-81858153D01*
X192970463Y-81858153D01*
X192858453Y-81904549D01*
X192858452Y-81904549D01*
X192757642Y-81971909D01*
X192671909Y-82057642D01*
X192604549Y-82158452D01*
X192604549Y-82158453D01*
X192558153Y-82270463D01*
X192558153Y-82270465D01*
X192534500Y-82389376D01*
X107500000Y-82389376D01*
X107500000Y-81620979D01*
X209084500Y-81620979D01*
X209084500Y-81821020D01*
X209123525Y-82017210D01*
X209123525Y-82017212D01*
X209200074Y-82202019D01*
X209204724Y-82208978D01*
X209311209Y-82368344D01*
X209452656Y-82509791D01*
X209618980Y-82620925D01*
X209803789Y-82697475D01*
X209999982Y-82736500D01*
X209999983Y-82736500D01*
X210200017Y-82736500D01*
X210200018Y-82736500D01*
X210396211Y-82697475D01*
X210581020Y-82620925D01*
X210747344Y-82509791D01*
X210888791Y-82368344D01*
X210999925Y-82202020D01*
X211076475Y-82017211D01*
X211115500Y-81821018D01*
X211115500Y-81645602D01*
X233534500Y-81645602D01*
X233534500Y-81796397D01*
X233563918Y-81944287D01*
X233563918Y-81944289D01*
X233621621Y-82083597D01*
X233671637Y-82158453D01*
X233705397Y-82208978D01*
X233812022Y-82315603D01*
X233937400Y-82399377D01*
X234076712Y-82457082D01*
X234224605Y-82486500D01*
X234224606Y-82486500D01*
X234375394Y-82486500D01*
X234375395Y-82486500D01*
X234523288Y-82457082D01*
X234662600Y-82399377D01*
X234787978Y-82315603D01*
X234894603Y-82208978D01*
X234978377Y-82083600D01*
X235036082Y-81944288D01*
X235065500Y-81796395D01*
X235065500Y-81645605D01*
X235036082Y-81497712D01*
X234978377Y-81358400D01*
X234894603Y-81233022D01*
X234787978Y-81126397D01*
X234662600Y-81042623D01*
X234662599Y-81042622D01*
X234662597Y-81042621D01*
X234523288Y-80984918D01*
X234375397Y-80955500D01*
X234375395Y-80955500D01*
X234224605Y-80955500D01*
X234224602Y-80955500D01*
X234076712Y-80984918D01*
X234076710Y-80984918D01*
X233937402Y-81042621D01*
X233812025Y-81126394D01*
X233705394Y-81233025D01*
X233621621Y-81358402D01*
X233563918Y-81497710D01*
X233563918Y-81497712D01*
X233534500Y-81645602D01*
X211115500Y-81645602D01*
X211115500Y-81620982D01*
X211076475Y-81424789D01*
X210999925Y-81239980D01*
X210888791Y-81073656D01*
X210747344Y-80932209D01*
X210581020Y-80821075D01*
X210581021Y-80821075D01*
X210581019Y-80821074D01*
X210396211Y-80744525D01*
X210200020Y-80705500D01*
X210200018Y-80705500D01*
X209999982Y-80705500D01*
X209999979Y-80705500D01*
X209803789Y-80744525D01*
X209803787Y-80744525D01*
X209618980Y-80821074D01*
X209452656Y-80932209D01*
X209452652Y-80932212D01*
X209311212Y-81073652D01*
X209311209Y-81073656D01*
X209200074Y-81239980D01*
X209123525Y-81424787D01*
X209123525Y-81424789D01*
X209084500Y-81620979D01*
X107500000Y-81620979D01*
X107500000Y-75112585D01*
X107518907Y-75054394D01*
X107568407Y-75018430D01*
X107629593Y-75018430D01*
X107676400Y-75050859D01*
X107770562Y-75168934D01*
X107981066Y-75379438D01*
X108213815Y-75565050D01*
X108465883Y-75723435D01*
X108465894Y-75723440D01*
X108465897Y-75723442D01*
X108660522Y-75817168D01*
X108734099Y-75852601D01*
X108865270Y-75898499D01*
X109015087Y-75950923D01*
X109015090Y-75950923D01*
X109015091Y-75950924D01*
X109305325Y-76017168D01*
X109385096Y-76026156D01*
X109601134Y-76050499D01*
X109601150Y-76050499D01*
X109601151Y-76050500D01*
X109601152Y-76050500D01*
X109898848Y-76050500D01*
X109898849Y-76050500D01*
X109898850Y-76050499D01*
X109898865Y-76050499D01*
X110088312Y-76029152D01*
X110194675Y-76017168D01*
X110484909Y-75950924D01*
X110765901Y-75852601D01*
X111034117Y-75723435D01*
X111286185Y-75565050D01*
X111518934Y-75379438D01*
X111729438Y-75168934D01*
X111915050Y-74936185D01*
X112073435Y-74684117D01*
X112202601Y-74415901D01*
X112300924Y-74134909D01*
X112367168Y-73844675D01*
X112380381Y-73727409D01*
X112400499Y-73548865D01*
X112400500Y-73548848D01*
X112400500Y-73541626D01*
X139739500Y-73541626D01*
X139739500Y-73768373D01*
X139774969Y-73992319D01*
X139774970Y-73992323D01*
X139845033Y-74207953D01*
X139845035Y-74207956D01*
X139845036Y-74207959D01*
X139845037Y-74207960D01*
X139947974Y-74409986D01*
X140081248Y-74593423D01*
X140241577Y-74753752D01*
X140425014Y-74887026D01*
X140627040Y-74989963D01*
X140627042Y-74989963D01*
X140627043Y-74989964D01*
X140627046Y-74989966D01*
X140842676Y-75060029D01*
X140842680Y-75060030D01*
X141066627Y-75095500D01*
X141066630Y-75095500D01*
X141293373Y-75095500D01*
X141517319Y-75060030D01*
X141517323Y-75060029D01*
X141732953Y-74989966D01*
X141732955Y-74989964D01*
X141732960Y-74989963D01*
X141934986Y-74887026D01*
X142118423Y-74753752D01*
X142278752Y-74593423D01*
X142278758Y-74593414D01*
X142281280Y-74590463D01*
X142282604Y-74591594D01*
X142326725Y-74559493D01*
X142367883Y-74559465D01*
X142367938Y-74558771D01*
X142376686Y-74559459D01*
X142387910Y-74559452D01*
X142389287Y-74560451D01*
X142413435Y-74562351D01*
X143155016Y-73820770D01*
X143167482Y-73867292D01*
X143239890Y-73992708D01*
X143342292Y-74095110D01*
X143467708Y-74167518D01*
X143514226Y-74179982D01*
X142772647Y-74921562D01*
X142772647Y-74921563D01*
X142863424Y-74987517D01*
X142863430Y-74987521D01*
X143081938Y-75098857D01*
X143315169Y-75174637D01*
X143557380Y-75213000D01*
X143802620Y-75213000D01*
X144044830Y-75174637D01*
X144278061Y-75098857D01*
X144496569Y-74987521D01*
X144496574Y-74987517D01*
X144587351Y-74921563D01*
X144587351Y-74921562D01*
X143845772Y-74179983D01*
X143892292Y-74167518D01*
X144017708Y-74095110D01*
X144120110Y-73992708D01*
X144192518Y-73867292D01*
X144204983Y-73820772D01*
X144946562Y-74562351D01*
X144946563Y-74562351D01*
X145012517Y-74471574D01*
X145012521Y-74471569D01*
X145123857Y-74253061D01*
X145199637Y-74019830D01*
X145238000Y-73777620D01*
X145238000Y-73532379D01*
X145199637Y-73290169D01*
X145123857Y-73056938D01*
X145012521Y-72838430D01*
X145012517Y-72838424D01*
X144946563Y-72747647D01*
X144946562Y-72747647D01*
X144204982Y-73489226D01*
X144192518Y-73442708D01*
X144120110Y-73317292D01*
X144017708Y-73214890D01*
X143892292Y-73142482D01*
X143845769Y-73130016D01*
X144587351Y-72388436D01*
X144496567Y-72322477D01*
X144278061Y-72211142D01*
X144044830Y-72135362D01*
X143802620Y-72097000D01*
X143557380Y-72097000D01*
X143315169Y-72135362D01*
X143081938Y-72211142D01*
X142863430Y-72322478D01*
X142863426Y-72322480D01*
X142772647Y-72388435D01*
X143514228Y-73130016D01*
X143467708Y-73142482D01*
X143342292Y-73214890D01*
X143239890Y-73317292D01*
X143167482Y-73442708D01*
X143155016Y-73489227D01*
X142413436Y-72747647D01*
X142389317Y-72749545D01*
X142387965Y-72750528D01*
X142376843Y-72750527D01*
X142367938Y-72751228D01*
X142367882Y-72750526D01*
X142326780Y-72750523D01*
X142282589Y-72718418D01*
X142281280Y-72719537D01*
X142278756Y-72716582D01*
X142278754Y-72716580D01*
X142278752Y-72716577D01*
X142118423Y-72556248D01*
X141983744Y-72458398D01*
X141934984Y-72422972D01*
X141732956Y-72320035D01*
X141732953Y-72320033D01*
X141517323Y-72249970D01*
X141517319Y-72249969D01*
X141293373Y-72214500D01*
X141293370Y-72214500D01*
X141066630Y-72214500D01*
X141066627Y-72214500D01*
X140842680Y-72249969D01*
X140842676Y-72249970D01*
X140627046Y-72320033D01*
X140627043Y-72320035D01*
X140425016Y-72422972D01*
X140333295Y-72489611D01*
X140241577Y-72556248D01*
X140081248Y-72716577D01*
X140053096Y-72755325D01*
X139947972Y-72900016D01*
X139845035Y-73102043D01*
X139845033Y-73102046D01*
X139774970Y-73317676D01*
X139774969Y-73317680D01*
X139739500Y-73541626D01*
X112400500Y-73541626D01*
X112400500Y-73251151D01*
X112400499Y-73251134D01*
X112367168Y-72955328D01*
X112367167Y-72955322D01*
X112354543Y-72900014D01*
X112300924Y-72665091D01*
X112297107Y-72654183D01*
X112216203Y-72422972D01*
X112202601Y-72384099D01*
X112138008Y-72249970D01*
X112073442Y-72115897D01*
X112073440Y-72115894D01*
X112073435Y-72115883D01*
X111915050Y-71863815D01*
X111729438Y-71631066D01*
X111518934Y-71420562D01*
X111286185Y-71234950D01*
X111034117Y-71076565D01*
X111034109Y-71076561D01*
X111034102Y-71076557D01*
X110765902Y-70947399D01*
X110765899Y-70947398D01*
X110484912Y-70849076D01*
X110306206Y-70808288D01*
X110295548Y-70801920D01*
X110283291Y-70799979D01*
X110269918Y-70786607D01*
X110253682Y-70776906D01*
X110248803Y-70765492D01*
X110240026Y-70756715D01*
X110237067Y-70738032D01*
X110229635Y-70720644D01*
X110232396Y-70708543D01*
X110230455Y-70696283D01*
X110239041Y-70679430D01*
X110243250Y-70660993D01*
X110258229Y-70641770D01*
X110371004Y-70528996D01*
X110425520Y-70501219D01*
X110441007Y-70500000D01*
X161265130Y-70500000D01*
X161323321Y-70518907D01*
G37*
G04 #@! TD.AperFunction*
G04 #@! TA.AperFunction,Conductor*
G36*
X119419000Y-157694297D02*
G01*
X119357993Y-157659075D01*
X119230826Y-157625000D01*
X119099174Y-157625000D01*
X118972007Y-157659075D01*
X118911000Y-157694297D01*
X118911000Y-156015702D01*
X118972007Y-156050925D01*
X119099174Y-156085000D01*
X119230826Y-156085000D01*
X119357993Y-156050925D01*
X119419000Y-156015702D01*
X119419000Y-157694297D01*
G37*
G04 #@! TD.AperFunction*
M02*
