M48
; DRILL file {KiCad 9.0.1} date 2025-05-27T22:41:42-0500
; FORMAT={-:-/ absolute / inch / decimal}
; #@! TF.CreationDate,2025-05-27T22:41:42-05:00
; #@! TF.GenerationSoftware,Kicad,Pcbnew,9.0.1
; #@! TF.FileFunction,NonPlated,1,4,NPTH
FMAT,2
INCH
; #@! TA.AperFunction,NonPlated,NPTH,ComponentDrill
T1C0.0433
; #@! TA.AperFunction,NonPlated,NPTH,ComponentDrill
T2C0.0453
; #@! TA.AperFunction,NonPlated,NPTH,ComponentDrill
T3C0.0500
; #@! TA.AperFunction,NonPlated,NPTH,ComponentDrill
T4C0.0520
; #@! TA.AperFunction,NonPlated,NPTH,ComponentDrill
T5C0.0630
; #@! TA.AperFunction,NonPlated,NPTH,ComponentDrill
T6C0.0650
; #@! TA.AperFunction,NonPlated,NPTH,ComponentDrill
T7C0.1063
%
G90
G05
T1
X8.0772Y-3.013
T2
X8.0929Y-4.9972
T3
X5.8929Y-6.0138
X5.8937Y-5.9047
X6.3654Y-6.0138
X6.3661Y-5.9047
T4
X8.0812Y-5.6004
X8.0812Y-6.1909
X9.5106Y-3.0697
X9.5106Y-3.6602
T5
X9.0614Y-3.013
T6
X9.0457Y-4.9972
T7
X5.6881Y-2.8308
X5.7077Y-6.1506
X6.3976Y-2.8937
X6.3976Y-4.7835
X7.6969Y-2.8937
X7.6969Y-4.7835
X9.4409Y-2.8504
X9.4492Y-6.1559
M30
