%TF.GenerationSoftware,KiCad,Pcbnew,9.0.1*%
%TF.CreationDate,2025-05-27T22:41:42-05:00*%
%TF.ProjectId,CM5IO,434d3549-4f2e-46b6-9963-61645f706362,rev?*%
%TF.SameCoordinates,Original*%
%TF.FileFunction,Copper,L4,Bot*%
%TF.FilePolarity,Positive*%
%FSLAX46Y46*%
G04 Gerber Fmt 4.6, Leading zero omitted, Abs format (unit mm)*
G04 Created by KiCad (PCBNEW 9.0.1) date 2025-05-27 22:41:42*
%MOMM*%
%LPD*%
G01*
G04 APERTURE LIST*
G04 Aperture macros list*
%AMRoundRect*
0 Rectangle with rounded corners*
0 $1 Rounding radius*
0 $2 $3 $4 $5 $6 $7 $8 $9 X,Y pos of 4 corners*
0 Add a 4 corners polygon primitive as box body*
4,1,4,$2,$3,$4,$5,$6,$7,$8,$9,$2,$3,0*
0 Add four circle primitives for the rounded corners*
1,1,$1+$1,$2,$3*
1,1,$1+$1,$4,$5*
1,1,$1+$1,$6,$7*
1,1,$1+$1,$8,$9*
0 Add four rect primitives between the rounded corners*
20,1,$1+$1,$2,$3,$4,$5,0*
20,1,$1+$1,$4,$5,$6,$7,0*
20,1,$1+$1,$6,$7,$8,$9,0*
20,1,$1+$1,$8,$9,$2,$3,0*%
G04 Aperture macros list end*
%TA.AperFunction,ComponentPad*%
%ADD10C,1.574800*%
%TD*%
%TA.AperFunction,ComponentPad*%
%ADD11RoundRect,0.250001X-0.499999X-0.759999X0.499999X-0.759999X0.499999X0.759999X-0.499999X0.759999X0*%
%TD*%
%TA.AperFunction,ComponentPad*%
%ADD12O,1.500000X2.020000*%
%TD*%
%TA.AperFunction,ComponentPad*%
%ADD13RoundRect,0.250001X0.499999X0.759999X-0.499999X0.759999X-0.499999X-0.759999X0.499999X-0.759999X0*%
%TD*%
%TA.AperFunction,ComponentPad*%
%ADD14C,1.000000*%
%TD*%
%TA.AperFunction,ComponentPad*%
%ADD15C,2.500000*%
%TD*%
%TA.AperFunction,ViaPad*%
%ADD16C,0.450000*%
%TD*%
%TA.AperFunction,Conductor*%
%ADD17C,0.147000*%
%TD*%
%TA.AperFunction,Conductor*%
%ADD18C,1.000000*%
%TD*%
%TA.AperFunction,Conductor*%
%ADD19C,0.300000*%
%TD*%
%TA.AperFunction,Conductor*%
%ADD20C,0.500000*%
%TD*%
%TA.AperFunction,Conductor*%
%ADD21C,0.200000*%
%TD*%
%TA.AperFunction,Conductor*%
%ADD22C,2.000000*%
%TD*%
%TA.AperFunction,Conductor*%
%ADD23C,3.000000*%
%TD*%
%TA.AperFunction,Conductor*%
%ADD24C,0.130000*%
%TD*%
G04 APERTURE END LIST*
D10*
%TO.P,J2,1,Pin_1*%
%TO.N,/+5v*%
X207221301Y-154249999D03*
%TO.P,J2,2,Pin_2*%
%TO.N,GND*%
X207221301Y-151250000D03*
%TO.P,J2,3,Pin_3*%
X207221301Y-148250000D03*
%TO.P,J2,4,Pin_4*%
%TO.N,/+5v*%
X207221301Y-145250001D03*
%TD*%
%TO.P,J7,1,Pin_1*%
%TO.N,/CM5_HighSpeed/VBUS*%
X239608699Y-80970001D03*
%TO.P,J7,2,Pin_2*%
%TO.N,/CM5_HighSpeed/USB3-0-D_P*%
X239608699Y-83970000D03*
%TO.P,J7,3,Pin_3*%
%TO.N,/CM5_HighSpeed/USB3-0-D_N*%
X239608699Y-86970000D03*
%TO.P,J7,4,Pin_4*%
%TO.N,GND*%
X239608699Y-89969999D03*
%TD*%
D11*
%TO.P,J6,1,Pin_1*%
%TO.N,/CM5_GPIO ( Ethernet\u002C GPIO\u002C SDCARD)/Audio/RN*%
X152680000Y-154710000D03*
D12*
%TO.P,J6,2,Pin_2*%
%TO.N,GND*%
X155680000Y-154710000D03*
%TO.P,J6,3,Pin_3*%
%TO.N,/CM5_GPIO ( Ethernet\u002C GPIO\u002C SDCARD)/Audio/RP*%
X158680000Y-154710000D03*
%TD*%
D13*
%TO.P,J3,1,Pin_1*%
%TO.N,/CM5_GPIO ( Ethernet\u002C GPIO\u002C SDCARD)/Audio/LP*%
X158700000Y-148020000D03*
D12*
%TO.P,J3,2,Pin_2*%
%TO.N,GND*%
X155700000Y-148020000D03*
%TO.P,J3,3,Pin_3*%
%TO.N,/CM5_GPIO ( Ethernet\u002C GPIO\u002C SDCARD)/Audio/LN*%
X152700000Y-148020000D03*
%TD*%
D14*
%TO.P,J5,1,VBUS*%
%TO.N,/CM5_HighSpeed/VBUS*%
X174930000Y-151600000D03*
%TO.P,J5,2,D-*%
%TO.N,/CM5_HighSpeed/USB3-1-D_P*%
X172430000Y-151600000D03*
%TO.P,J5,3,D+*%
%TO.N,/CM5_HighSpeed/USB3-1-D_N*%
X170430000Y-151600000D03*
%TO.P,J5,4,GND*%
%TO.N,GND*%
X167930000Y-151600000D03*
%TO.P,J5,5,SSRX-*%
%TO.N,/CM5_HighSpeed/USB3-1-RX_N*%
X167430000Y-153100000D03*
%TO.P,J5,6,SSRX+*%
%TO.N,/CM5_HighSpeed/USB3-1-RX_P*%
X169430000Y-153100000D03*
%TO.P,J5,7,DRAIN*%
%TO.N,GND*%
X171430000Y-153100000D03*
%TO.P,J5,8,SSTX-*%
%TO.N,/CM5_HighSpeed/USB3-1-TX_N*%
X173430000Y-153100000D03*
%TO.P,J5,9,SSTX+*%
%TO.N,/CM5_HighSpeed/USB3-1-TX_P*%
X175430000Y-153100000D03*
D15*
%TO.P,J5,SP1*%
%TO.N,N/C*%
X178000000Y-151700000D03*
X164860000Y-151700000D03*
%TD*%
D16*
%TO.N,GND*%
X195370000Y-110320000D03*
X213620000Y-121860000D03*
X218420000Y-141010000D03*
X157820000Y-89890000D03*
X218030000Y-144710000D03*
X165830000Y-109430000D03*
X168090000Y-96640000D03*
X155680000Y-154710000D03*
X159300000Y-100400000D03*
X155700000Y-148020000D03*
X166680000Y-104360000D03*
X225210000Y-141660000D03*
X204710000Y-81080000D03*
%TO.N,/Cellular/SIM_VDD*%
X227934600Y-136189600D03*
X226660000Y-80630000D03*
%TO.N,/CM5_HighSpeed/VBUS*%
X189500000Y-134700000D03*
%TO.N,/Cellular/M2_3v3*%
X205860000Y-80630000D03*
X210260000Y-72430000D03*
X229060000Y-80630000D03*
X211060000Y-72430000D03*
X197370000Y-127545000D03*
X217060000Y-80630000D03*
%TO.N,/+3.3v*%
X164970000Y-106780000D03*
X166060000Y-136990000D03*
X157010000Y-99550000D03*
X164510000Y-106790000D03*
X163530000Y-136960000D03*
%TO.N,/Cellular/LED_WWAN*%
X209860000Y-80630000D03*
X233647807Y-82852722D03*
%TO.N,/+5v*%
X190700000Y-150080000D03*
X203563876Y-147793876D03*
X159310000Y-106270000D03*
X153030000Y-95650000D03*
X159510000Y-105300000D03*
X159450000Y-105770000D03*
X159500000Y-107220000D03*
X203512427Y-152427573D03*
X159470000Y-106730000D03*
X159650000Y-107710000D03*
X189387500Y-129700000D03*
%TO.N,/Cellular/SIM_DATA*%
X224581000Y-136138800D03*
X225860000Y-80630000D03*
%TO.N,/Cellular/SIM_CLK*%
X225060000Y-80630000D03*
X219425800Y-136138800D03*
%TO.N,/CM5_GPIO ( Ethernet\u002C GPIO\u002C SDCARD)/TACHO*%
X148040000Y-94500000D03*
X164790000Y-93170000D03*
%TO.N,/Cellular/SIM_RST*%
X215869800Y-136138800D03*
X224260000Y-80630000D03*
%TO.N,/CM5_GPIO ( Ethernet\u002C GPIO\u002C SDCARD)/nPWR_LED*%
X158310000Y-98082682D03*
X154700000Y-97950000D03*
%TO.N,/CM5_HighSpeed/PCIE_PWR_EN*%
X191930000Y-138830000D03*
X199320000Y-91330000D03*
%TD*%
D17*
%TO.N,/Cellular/SIM_VDD*%
X226660000Y-80630000D02*
X226660000Y-134915000D01*
X226660000Y-134915000D02*
X227934600Y-136189600D01*
D18*
%TO.N,/CM5_HighSpeed/VBUS*%
X191820000Y-115430000D02*
X200830000Y-106420000D01*
X200830000Y-73870000D02*
X203200000Y-71500000D01*
X200830000Y-106420000D02*
X200830000Y-73870000D01*
X203200000Y-71500000D02*
X233550000Y-71500000D01*
X239608699Y-77558699D02*
X239608699Y-80970001D01*
X189500000Y-134700000D02*
X191820000Y-132380000D01*
X233550000Y-71500000D02*
X239608699Y-77558699D01*
X191820000Y-132380000D02*
X191820000Y-115430000D01*
D19*
%TO.N,/Cellular/M2_3v3*%
X227622000Y-79192000D02*
X229060000Y-80630000D01*
X217060000Y-80630000D02*
X216559000Y-81131000D01*
X217060000Y-80630000D02*
X217090000Y-80630000D01*
D20*
X210260000Y-76230000D02*
X210260000Y-72430000D01*
D19*
X217060000Y-80630000D02*
X218498000Y-79192000D01*
D20*
X197370000Y-127545000D02*
X197370000Y-127540000D01*
D19*
X216559000Y-81131000D02*
X206361000Y-81131000D01*
X206361000Y-81131000D02*
X205860000Y-80630000D01*
D18*
X205860000Y-80630000D02*
X210260000Y-76230000D01*
X197370000Y-127540000D02*
X205860000Y-119050000D01*
D19*
X218498000Y-79192000D02*
X227622000Y-79192000D01*
D18*
X205860000Y-80630000D02*
X205860000Y-119050000D01*
D19*
X210260000Y-72430000D02*
X211060000Y-72430000D01*
D18*
%TO.N,/+3.3v*%
X157010000Y-99550000D02*
X157010000Y-110000000D01*
X168890000Y-135320000D02*
X167220000Y-136990000D01*
X168890000Y-121880000D02*
X168890000Y-135320000D01*
X163530000Y-136960000D02*
X163560000Y-136990000D01*
X164510000Y-106320000D02*
X164510000Y-101600000D01*
X164960000Y-106790000D02*
X164970000Y-106780000D01*
X157010000Y-110000000D02*
X168890000Y-121880000D01*
X167220000Y-136990000D02*
X166060000Y-136990000D01*
X162460000Y-99550000D02*
X157010000Y-99550000D01*
X165200000Y-136990000D02*
X166060000Y-136990000D01*
X157000000Y-99540000D02*
X157010000Y-99550000D01*
X163560000Y-136990000D02*
X165200000Y-136990000D01*
X164510000Y-101600000D02*
X162460000Y-99550000D01*
X164510000Y-106790000D02*
X164960000Y-106790000D01*
X164970000Y-106780000D02*
X164510000Y-106320000D01*
D21*
%TO.N,/Cellular/LED_WWAN*%
X233647807Y-82172807D02*
X230260600Y-78785600D01*
X211704400Y-78785600D02*
X209860000Y-80630000D01*
X233647807Y-82852722D02*
X233647807Y-82172807D01*
X230260600Y-78785600D02*
X211704400Y-78785600D01*
D22*
%TO.N,/+5v*%
X187820000Y-136720000D02*
X185840000Y-134740000D01*
D23*
X172370000Y-121060000D02*
X160150000Y-108840000D01*
X160150000Y-108840000D02*
X160150000Y-106250000D01*
X172600000Y-137860000D02*
X172370000Y-137860000D01*
D22*
X185840000Y-134740000D02*
X185840000Y-133247500D01*
D23*
X203512427Y-152427573D02*
X201221302Y-150136449D01*
X203563876Y-147793876D02*
X201221302Y-150136449D01*
D22*
X192780000Y-136720000D02*
X187820000Y-136720000D01*
D23*
X172370000Y-123380000D02*
X172370000Y-121060000D01*
X201221302Y-150136449D02*
X196470000Y-150136449D01*
X179845000Y-145105000D02*
X172600000Y-137860000D01*
X205334852Y-154249999D02*
X203512427Y-152427573D01*
X207221301Y-145250001D02*
X206107750Y-145250001D01*
X206107750Y-145250001D02*
X203563876Y-147793876D01*
X207221301Y-154249999D02*
X205334852Y-154249999D01*
X162870000Y-95650000D02*
X153030000Y-95650000D01*
X172370000Y-105150000D02*
X162870000Y-95650000D01*
X184876449Y-150136449D02*
X179845000Y-145105000D01*
X172370000Y-137860000D02*
X172370000Y-123380000D01*
D22*
X196470000Y-150136449D02*
X196470000Y-140410000D01*
X185840000Y-133247500D02*
X189387500Y-129700000D01*
D23*
X196470000Y-150136449D02*
X184876449Y-150136449D01*
D22*
X196470000Y-140410000D02*
X192780000Y-136720000D01*
D23*
X172370000Y-123380000D02*
X172370000Y-105150000D01*
D17*
%TO.N,/Cellular/SIM_DATA*%
X225860000Y-134859800D02*
X225860000Y-80630000D01*
X224581000Y-136138800D02*
X225860000Y-134859800D01*
%TO.N,/Cellular/SIM_CLK*%
X225060000Y-80630000D02*
X225060000Y-130504600D01*
X225060000Y-130504600D02*
X219425800Y-136138800D01*
D21*
%TO.N,/CM5_GPIO ( Ethernet\u002C GPIO\u002C SDCARD)/TACHO*%
X150806000Y-91734000D02*
X148040000Y-94500000D01*
X163354000Y-91734000D02*
X150806000Y-91734000D01*
X164790000Y-93170000D02*
X163354000Y-91734000D01*
D17*
%TO.N,/Cellular/SIM_RST*%
X224260000Y-80630000D02*
X224260000Y-127748600D01*
X224260000Y-127748600D02*
X215869800Y-136138800D01*
D21*
%TO.N,/CM5_GPIO ( Ethernet\u002C GPIO\u002C SDCARD)/nPWR_LED*%
X157110000Y-97950000D02*
X157242682Y-98082682D01*
X157242682Y-98082682D02*
X158310000Y-98082682D01*
X154700000Y-97950000D02*
X157110000Y-97950000D01*
D24*
%TO.N,/CM5_HighSpeed/PCIE_PWR_EN*%
X191930000Y-138830000D02*
X184380000Y-138830000D01*
X181420000Y-135870000D02*
X181420000Y-94770000D01*
X181420000Y-94770000D02*
X185160000Y-91030000D01*
X199020000Y-91030000D02*
X199320000Y-91330000D01*
X185160000Y-91030000D02*
X199020000Y-91030000D01*
X184380000Y-138830000D02*
X181420000Y-135870000D01*
%TD*%
%TA.AperFunction,Conductor*%
%TO.N,GND*%
G36*
X161323321Y-70518907D02*
G01*
X161359285Y-70568407D01*
X161359285Y-70629593D01*
X161323321Y-70679093D01*
X161308087Y-70688194D01*
X161261045Y-70710849D01*
X161022097Y-70825920D01*
X161022092Y-70825923D01*
X160731981Y-71008211D01*
X160464108Y-71221833D01*
X160221833Y-71464108D01*
X160008211Y-71731981D01*
X159825923Y-72022092D01*
X159825916Y-72022104D01*
X159677264Y-72330784D01*
X159677263Y-72330786D01*
X159564103Y-72654179D01*
X159487860Y-72988218D01*
X159449500Y-73328686D01*
X159449500Y-73671313D01*
X159487860Y-74011781D01*
X159564103Y-74345820D01*
X159677263Y-74669213D01*
X159677264Y-74669215D01*
X159825916Y-74977895D01*
X159825920Y-74977902D01*
X159825924Y-74977910D01*
X160008211Y-75268018D01*
X160221834Y-75535893D01*
X160464107Y-75778166D01*
X160731982Y-75991789D01*
X161022090Y-76174076D01*
X161022101Y-76174081D01*
X161022104Y-76174083D01*
X161032817Y-76179242D01*
X161330785Y-76322736D01*
X161481753Y-76375561D01*
X161654179Y-76435896D01*
X161654182Y-76435896D01*
X161654183Y-76435897D01*
X161988217Y-76512139D01*
X162328688Y-76550500D01*
X162328689Y-76550500D01*
X162671311Y-76550500D01*
X162671312Y-76550500D01*
X163011783Y-76512139D01*
X163345817Y-76435897D01*
X163669215Y-76322736D01*
X163977910Y-76174076D01*
X164268018Y-75991789D01*
X164535893Y-75778166D01*
X164778166Y-75535893D01*
X164991789Y-75268018D01*
X165174076Y-74977910D01*
X165322736Y-74669215D01*
X165435897Y-74345817D01*
X165512139Y-74011783D01*
X165550500Y-73671312D01*
X165550500Y-73328688D01*
X165512139Y-72988217D01*
X165435897Y-72654183D01*
X165420274Y-72609536D01*
X165367567Y-72458907D01*
X165322736Y-72330785D01*
X165223471Y-72124660D01*
X165174083Y-72022104D01*
X165174081Y-72022101D01*
X165174076Y-72022090D01*
X164991789Y-71731982D01*
X164778166Y-71464107D01*
X164535893Y-71221834D01*
X164268018Y-71008211D01*
X163977910Y-70825924D01*
X163941313Y-70808300D01*
X163830762Y-70755061D01*
X163691914Y-70688195D01*
X163647691Y-70645913D01*
X163636766Y-70585711D01*
X163663313Y-70530585D01*
X163717193Y-70501591D01*
X163734870Y-70500000D01*
X175901000Y-70500000D01*
X175959191Y-70518907D01*
X175995155Y-70568407D01*
X176000000Y-70599000D01*
X176000000Y-76500000D01*
X191999999Y-76500000D01*
X192000000Y-76500000D01*
X192000000Y-70599000D01*
X192018907Y-70540809D01*
X192068407Y-70504845D01*
X192099000Y-70500000D01*
X194265130Y-70500000D01*
X194323321Y-70518907D01*
X194359285Y-70568407D01*
X194359285Y-70629593D01*
X194323321Y-70679093D01*
X194308087Y-70688194D01*
X194261045Y-70710849D01*
X194022097Y-70825920D01*
X194022092Y-70825923D01*
X193731981Y-71008211D01*
X193464108Y-71221833D01*
X193221833Y-71464108D01*
X193008211Y-71731981D01*
X192825923Y-72022092D01*
X192825916Y-72022104D01*
X192677264Y-72330784D01*
X192677263Y-72330786D01*
X192564103Y-72654179D01*
X192487860Y-72988218D01*
X192449500Y-73328686D01*
X192449500Y-73671313D01*
X192487860Y-74011781D01*
X192564103Y-74345820D01*
X192677263Y-74669213D01*
X192677264Y-74669215D01*
X192825916Y-74977895D01*
X192825920Y-74977902D01*
X192825924Y-74977910D01*
X193008211Y-75268018D01*
X193221834Y-75535893D01*
X193464107Y-75778166D01*
X193731982Y-75991789D01*
X194022090Y-76174076D01*
X194022101Y-76174081D01*
X194022104Y-76174083D01*
X194032817Y-76179242D01*
X194330785Y-76322736D01*
X194481753Y-76375561D01*
X194654179Y-76435896D01*
X194654182Y-76435896D01*
X194654183Y-76435897D01*
X194988217Y-76512139D01*
X195328688Y-76550500D01*
X195328689Y-76550500D01*
X195671311Y-76550500D01*
X195671312Y-76550500D01*
X196011783Y-76512139D01*
X196345817Y-76435897D01*
X196669215Y-76322736D01*
X196977910Y-76174076D01*
X197268018Y-75991789D01*
X197535893Y-75778166D01*
X197778166Y-75535893D01*
X197991789Y-75268018D01*
X198174076Y-74977910D01*
X198322736Y-74669215D01*
X198435897Y-74345817D01*
X198512139Y-74011783D01*
X198550500Y-73671312D01*
X198550500Y-73328688D01*
X198512139Y-72988217D01*
X198435897Y-72654183D01*
X198420274Y-72609536D01*
X198367567Y-72458907D01*
X198322736Y-72330785D01*
X198223471Y-72124660D01*
X198174083Y-72022104D01*
X198174081Y-72022101D01*
X198174076Y-72022090D01*
X197991789Y-71731982D01*
X197778166Y-71464107D01*
X197535893Y-71221834D01*
X197268018Y-71008211D01*
X196977910Y-70825924D01*
X196941313Y-70808300D01*
X196830762Y-70755061D01*
X196691914Y-70688195D01*
X196647691Y-70645913D01*
X196636766Y-70585711D01*
X196663313Y-70530585D01*
X196717193Y-70501591D01*
X196734870Y-70500000D01*
X202789517Y-70500000D01*
X202795370Y-70501901D01*
X202801411Y-70500717D01*
X202824008Y-70511206D01*
X202847708Y-70518907D01*
X202851326Y-70523887D01*
X202856909Y-70526479D01*
X202869024Y-70548246D01*
X202883672Y-70568407D01*
X202883672Y-70574563D01*
X202886665Y-70579941D01*
X202883672Y-70604672D01*
X202883672Y-70629593D01*
X202880053Y-70634573D01*
X202879314Y-70640683D01*
X202867116Y-70652380D01*
X202847708Y-70679093D01*
X202837664Y-70685504D01*
X202832678Y-70688278D01*
X202778189Y-70710849D01*
X202712022Y-70755061D01*
X202708686Y-70757289D01*
X202708677Y-70757295D01*
X202632339Y-70808302D01*
X202508302Y-70932338D01*
X202508303Y-70932339D01*
X202508300Y-70932342D01*
X200262342Y-73178300D01*
X200262339Y-73178303D01*
X200262338Y-73178302D01*
X200138302Y-73302339D01*
X200120697Y-73328688D01*
X200062426Y-73415899D01*
X200062425Y-73415900D01*
X200062424Y-73415901D01*
X200040847Y-73448191D01*
X200040847Y-73448192D01*
X199973721Y-73610249D01*
X199939499Y-73782292D01*
X199939499Y-73962586D01*
X199939500Y-73962607D01*
X199939500Y-90840044D01*
X199920593Y-90898235D01*
X199871093Y-90934199D01*
X199809907Y-90934199D01*
X199770496Y-90910048D01*
X199712357Y-90851909D01*
X199611546Y-90784549D01*
X199499535Y-90738153D01*
X199380615Y-90714498D01*
X199380436Y-90714481D01*
X199380360Y-90714448D01*
X199375851Y-90713551D01*
X199376047Y-90712561D01*
X199324378Y-90689962D01*
X199320152Y-90685978D01*
X199299683Y-90665509D01*
X199195816Y-90605542D01*
X199195815Y-90605541D01*
X199195812Y-90605540D01*
X199079970Y-90574500D01*
X199079968Y-90574500D01*
X185100032Y-90574500D01*
X185100029Y-90574500D01*
X184984187Y-90605540D01*
X184984186Y-90605540D01*
X184880317Y-90665509D01*
X181055507Y-94490319D01*
X181012635Y-94564576D01*
X180995544Y-94594179D01*
X180995540Y-94594187D01*
X180964500Y-94710029D01*
X180964500Y-135929970D01*
X180986079Y-136010501D01*
X180986079Y-136010502D01*
X180995540Y-136045812D01*
X180995540Y-136045813D01*
X180995542Y-136045816D01*
X181055509Y-136149683D01*
X184100317Y-139194491D01*
X184204183Y-139254458D01*
X184217303Y-139257972D01*
X184228667Y-139261018D01*
X184228669Y-139261018D01*
X184320032Y-139285500D01*
X191474693Y-139285500D01*
X191532884Y-139304407D01*
X191537497Y-139307971D01*
X191537642Y-139308090D01*
X191638451Y-139375449D01*
X191750465Y-139421847D01*
X191869379Y-139445500D01*
X191869380Y-139445500D01*
X191990620Y-139445500D01*
X191990621Y-139445500D01*
X192109535Y-139421847D01*
X192221549Y-139375449D01*
X192322358Y-139308090D01*
X192408090Y-139222358D01*
X192475449Y-139121549D01*
X192521847Y-139009535D01*
X192545500Y-138890621D01*
X192545500Y-138769379D01*
X192530355Y-138693238D01*
X192537547Y-138632478D01*
X192579079Y-138587548D01*
X192639089Y-138575611D01*
X192694654Y-138601227D01*
X192697457Y-138603921D01*
X195050504Y-140956968D01*
X195078281Y-141011485D01*
X195079500Y-141026972D01*
X195079500Y-148146949D01*
X195060593Y-148205140D01*
X195011093Y-148241104D01*
X194980500Y-148245949D01*
X185700528Y-148245949D01*
X185642337Y-148227042D01*
X185630524Y-148216953D01*
X174289496Y-136875925D01*
X174261719Y-136821408D01*
X174260500Y-136805921D01*
X174260500Y-105026091D01*
X174260500Y-105026090D01*
X174228153Y-104780390D01*
X174202459Y-104684500D01*
X174164013Y-104541015D01*
X174069176Y-104312059D01*
X173945266Y-104097441D01*
X173794403Y-103900832D01*
X164119168Y-94225597D01*
X164119163Y-94225593D01*
X164119161Y-94225591D01*
X163965446Y-94107642D01*
X163922559Y-94074734D01*
X163922556Y-94074732D01*
X163831065Y-94021909D01*
X163831064Y-94021909D01*
X163707942Y-93950824D01*
X163707937Y-93950822D01*
X163593463Y-93903406D01*
X163478984Y-93855986D01*
X163369983Y-93826780D01*
X163239610Y-93791847D01*
X163239603Y-93791846D01*
X162993911Y-93759500D01*
X162993910Y-93759500D01*
X152906090Y-93759500D01*
X152906088Y-93759500D01*
X152660397Y-93791846D01*
X152660392Y-93791846D01*
X152421022Y-93855986D01*
X152421009Y-93855990D01*
X152192066Y-93950820D01*
X151977437Y-94074736D01*
X151780838Y-94225591D01*
X151605591Y-94400838D01*
X151454736Y-94597437D01*
X151330820Y-94812066D01*
X151235990Y-95041009D01*
X151235986Y-95041022D01*
X151171846Y-95280392D01*
X151171846Y-95280397D01*
X151139500Y-95526088D01*
X151139500Y-95773911D01*
X151171846Y-96019602D01*
X151171846Y-96019607D01*
X151235986Y-96258977D01*
X151235990Y-96258990D01*
X151330820Y-96487933D01*
X151330822Y-96487937D01*
X151330824Y-96487941D01*
X151454734Y-96702559D01*
X151454736Y-96702562D01*
X151605591Y-96899161D01*
X151605593Y-96899163D01*
X151605597Y-96899168D01*
X151780832Y-97074403D01*
X151780836Y-97074406D01*
X151780838Y-97074408D01*
X151977437Y-97225263D01*
X151977441Y-97225266D01*
X152192059Y-97349176D01*
X152421015Y-97444012D01*
X152660390Y-97508153D01*
X152906090Y-97540500D01*
X154055244Y-97540500D01*
X154113435Y-97559407D01*
X154149399Y-97608907D01*
X154149399Y-97670093D01*
X154146708Y-97677386D01*
X154108152Y-97770466D01*
X154084500Y-97889376D01*
X154084500Y-98010623D01*
X154108153Y-98129534D01*
X154108153Y-98129536D01*
X154154549Y-98241546D01*
X154154549Y-98241547D01*
X154221909Y-98342357D01*
X154221910Y-98342358D01*
X154307642Y-98428090D01*
X154408451Y-98495449D01*
X154520465Y-98541847D01*
X154639379Y-98565500D01*
X154639380Y-98565500D01*
X154760620Y-98565500D01*
X154760621Y-98565500D01*
X154879535Y-98541847D01*
X154991549Y-98495449D01*
X155048814Y-98457184D01*
X155103816Y-98440500D01*
X156865821Y-98440500D01*
X156871240Y-98442260D01*
X156876823Y-98441113D01*
X156895791Y-98450237D01*
X156924012Y-98459407D01*
X156932552Y-98466370D01*
X156934220Y-98467892D01*
X156941508Y-98475180D01*
X156943410Y-98476278D01*
X156949020Y-98481397D01*
X156962158Y-98504506D01*
X156977214Y-98526416D01*
X156977099Y-98530786D01*
X156979260Y-98534587D01*
X156976305Y-98561008D01*
X156975608Y-98587580D01*
X156972946Y-98591047D01*
X156972461Y-98595393D01*
X156954541Y-98615030D01*
X156938358Y-98636119D01*
X156933383Y-98638217D01*
X156931219Y-98640590D01*
X156924471Y-98641977D01*
X156901604Y-98651625D01*
X156740249Y-98683721D01*
X156578194Y-98750846D01*
X156578182Y-98750852D01*
X156432340Y-98848303D01*
X156432336Y-98848306D01*
X156308306Y-98972336D01*
X156308303Y-98972340D01*
X156210852Y-99118182D01*
X156210846Y-99118194D01*
X156143721Y-99280249D01*
X156109499Y-99452292D01*
X156109499Y-99627707D01*
X156117598Y-99668421D01*
X156119500Y-99687736D01*
X156119500Y-109908190D01*
X156119499Y-109908216D01*
X156119499Y-110087707D01*
X156153721Y-110259750D01*
X156220847Y-110421807D01*
X156220848Y-110421809D01*
X156220849Y-110421810D01*
X156318303Y-110567661D01*
X156442339Y-110691697D01*
X156442342Y-110691699D01*
X167970504Y-122219861D01*
X167998281Y-122274378D01*
X167999500Y-122289865D01*
X167999500Y-134910135D01*
X167980593Y-134968326D01*
X167970504Y-134980139D01*
X166880139Y-136070504D01*
X166825622Y-136098281D01*
X166810135Y-136099500D01*
X163778281Y-136099500D01*
X163758967Y-136097598D01*
X163617709Y-136069499D01*
X163617707Y-136069499D01*
X163442293Y-136069499D01*
X163442292Y-136069499D01*
X163270249Y-136103721D01*
X163108194Y-136170846D01*
X163108182Y-136170852D01*
X162962340Y-136268303D01*
X162962336Y-136268306D01*
X162838306Y-136392336D01*
X162838303Y-136392340D01*
X162740852Y-136538182D01*
X162740846Y-136538194D01*
X162673721Y-136700249D01*
X162639499Y-136872292D01*
X162639499Y-137047707D01*
X162673721Y-137219750D01*
X162740846Y-137381805D01*
X162740852Y-137381817D01*
X162810540Y-137486110D01*
X162838303Y-137527660D01*
X162838306Y-137527663D01*
X162868301Y-137557658D01*
X162868301Y-137557659D01*
X162916141Y-137605500D01*
X162916142Y-137605500D01*
X162992339Y-137681697D01*
X163079292Y-137739797D01*
X163138182Y-137779147D01*
X163138184Y-137779148D01*
X163138189Y-137779151D01*
X163205315Y-137806954D01*
X163205316Y-137806955D01*
X163257239Y-137828462D01*
X163300251Y-137846279D01*
X163472293Y-137880500D01*
X165112293Y-137880500D01*
X165972293Y-137880500D01*
X167127393Y-137880500D01*
X167127413Y-137880501D01*
X167132293Y-137880501D01*
X167307706Y-137880501D01*
X167307707Y-137880501D01*
X167479749Y-137846279D01*
X167641810Y-137779151D01*
X167787661Y-137681697D01*
X167911697Y-137557661D01*
X167911699Y-137557657D01*
X169457657Y-136011699D01*
X169457661Y-136011697D01*
X169581697Y-135887661D01*
X169679151Y-135741810D01*
X169746279Y-135579749D01*
X169747403Y-135574100D01*
X169780501Y-135407706D01*
X169780501Y-135232293D01*
X169780501Y-135228216D01*
X169780500Y-135228190D01*
X169780500Y-121792294D01*
X169780499Y-121792290D01*
X169746279Y-121620251D01*
X169679151Y-121458190D01*
X169581697Y-121312339D01*
X169457661Y-121188303D01*
X169457657Y-121188300D01*
X157929496Y-109660139D01*
X157901719Y-109605622D01*
X157900500Y-109590135D01*
X157900500Y-100539500D01*
X157919407Y-100481309D01*
X157968907Y-100445345D01*
X157999500Y-100440500D01*
X162050135Y-100440500D01*
X162108326Y-100459407D01*
X162120139Y-100469496D01*
X163590504Y-101939861D01*
X163618281Y-101994378D01*
X163619500Y-102009865D01*
X163619500Y-106228190D01*
X163619499Y-106228216D01*
X163619499Y-106407709D01*
X163644956Y-106535686D01*
X163644956Y-106574314D01*
X163619500Y-106702290D01*
X163619500Y-106877709D01*
X163653721Y-107049748D01*
X163653721Y-107049750D01*
X163720847Y-107211807D01*
X163811620Y-107347660D01*
X163818303Y-107357661D01*
X163942339Y-107481697D01*
X164088190Y-107579151D01*
X164088191Y-107579151D01*
X164088192Y-107579152D01*
X164124904Y-107594358D01*
X164250251Y-107646279D01*
X164422293Y-107680500D01*
X164867393Y-107680500D01*
X164867413Y-107680501D01*
X164872293Y-107680501D01*
X165047706Y-107680501D01*
X165047707Y-107680501D01*
X165219749Y-107646279D01*
X165381810Y-107579151D01*
X165469327Y-107520674D01*
X165527661Y-107481697D01*
X165651697Y-107357661D01*
X165651698Y-107357658D01*
X165657340Y-107352017D01*
X165657343Y-107352012D01*
X165661697Y-107347660D01*
X165759151Y-107201811D01*
X165826279Y-107039749D01*
X165860500Y-106867707D01*
X165860500Y-106692293D01*
X165826279Y-106520251D01*
X165801043Y-106459326D01*
X165759151Y-106358189D01*
X165759147Y-106358181D01*
X165703245Y-106274520D01*
X165661697Y-106212339D01*
X165429496Y-105980138D01*
X165401719Y-105925621D01*
X165400500Y-105910134D01*
X165400500Y-101692607D01*
X165400501Y-101692586D01*
X165400501Y-101512294D01*
X165400501Y-101512293D01*
X165366279Y-101340251D01*
X165299151Y-101178190D01*
X165201697Y-101032339D01*
X165077661Y-100908303D01*
X165077657Y-100908300D01*
X163151699Y-98982342D01*
X163151697Y-98982339D01*
X163027661Y-98858303D01*
X163012699Y-98848306D01*
X162881807Y-98760847D01*
X162719750Y-98693721D01*
X162547707Y-98659499D01*
X162372293Y-98659499D01*
X162367413Y-98659499D01*
X162367393Y-98659500D01*
X158842638Y-98659500D01*
X158784447Y-98640593D01*
X158748483Y-98591093D01*
X158748483Y-98529907D01*
X158772634Y-98490496D01*
X158788090Y-98475040D01*
X158855449Y-98374231D01*
X158901847Y-98262217D01*
X158925500Y-98143303D01*
X158925500Y-98022061D01*
X158901847Y-97903147D01*
X158855450Y-97791135D01*
X158855450Y-97791134D01*
X158790882Y-97694502D01*
X158774273Y-97635613D01*
X158795451Y-97578210D01*
X158846324Y-97544217D01*
X158873197Y-97540500D01*
X162045921Y-97540500D01*
X162104112Y-97559407D01*
X162115925Y-97569496D01*
X170450504Y-105904075D01*
X170478281Y-105958592D01*
X170479500Y-105974079D01*
X170479500Y-116256921D01*
X170460593Y-116315112D01*
X170411093Y-116351076D01*
X170349907Y-116351076D01*
X170310496Y-116326925D01*
X162069496Y-108085925D01*
X162041719Y-108031408D01*
X162040500Y-108015921D01*
X162040500Y-106126091D01*
X162040500Y-106126090D01*
X162008153Y-105880390D01*
X161944012Y-105641015D01*
X161849176Y-105412059D01*
X161725266Y-105197441D01*
X161574403Y-105000832D01*
X161399168Y-104825597D01*
X161399163Y-104825593D01*
X161399161Y-104825591D01*
X161202562Y-104674736D01*
X161202559Y-104674734D01*
X160987941Y-104550824D01*
X160987937Y-104550822D01*
X160987933Y-104550820D01*
X160758990Y-104455990D01*
X160758989Y-104455989D01*
X160758985Y-104455988D01*
X160519610Y-104391847D01*
X160519607Y-104391846D01*
X160519605Y-104391846D01*
X160273911Y-104359500D01*
X160273910Y-104359500D01*
X160026090Y-104359500D01*
X160026088Y-104359500D01*
X159780397Y-104391846D01*
X159780392Y-104391846D01*
X159541022Y-104455986D01*
X159541009Y-104455990D01*
X159312066Y-104550820D01*
X159097437Y-104674736D01*
X158900838Y-104825591D01*
X158725591Y-105000838D01*
X158574736Y-105197437D01*
X158450820Y-105412066D01*
X158355990Y-105641009D01*
X158355986Y-105641022D01*
X158291846Y-105880392D01*
X158291846Y-105880397D01*
X158265550Y-106080138D01*
X158259500Y-106126090D01*
X158259500Y-108716090D01*
X158259500Y-108963910D01*
X158291847Y-109209610D01*
X158326780Y-109339983D01*
X158355986Y-109448984D01*
X158403406Y-109563463D01*
X158403406Y-109563464D01*
X158450821Y-109677937D01*
X158450824Y-109677942D01*
X158486798Y-109740250D01*
X158486798Y-109740251D01*
X158574732Y-109892556D01*
X158574734Y-109892559D01*
X158623679Y-109956346D01*
X158725591Y-110089161D01*
X158725593Y-110089163D01*
X158725597Y-110089168D01*
X170450505Y-121814076D01*
X170478281Y-121868591D01*
X170479500Y-121884078D01*
X170479500Y-137983911D01*
X170511846Y-138229602D01*
X170511846Y-138229607D01*
X170575986Y-138468977D01*
X170575990Y-138468990D01*
X170670820Y-138697933D01*
X170670822Y-138697937D01*
X170670824Y-138697941D01*
X170794734Y-138912559D01*
X170794736Y-138912562D01*
X170945591Y-139109161D01*
X170945593Y-139109163D01*
X170945597Y-139109168D01*
X171120832Y-139284403D01*
X171120836Y-139284406D01*
X171120838Y-139284408D01*
X171239486Y-139375449D01*
X171317441Y-139435266D01*
X171532059Y-139559176D01*
X171532065Y-139559178D01*
X171532066Y-139559179D01*
X171673555Y-139617785D01*
X171705674Y-139639245D01*
X183452046Y-151385617D01*
X183452045Y-151385617D01*
X183627283Y-151560854D01*
X183792599Y-151687705D01*
X183823890Y-151711715D01*
X184038508Y-151835625D01*
X184267464Y-151930461D01*
X184506839Y-151994602D01*
X184752539Y-152026949D01*
X196346090Y-152026949D01*
X200397223Y-152026949D01*
X200455414Y-152045856D01*
X200467227Y-152055945D01*
X202263259Y-153851976D01*
X202263262Y-153851978D01*
X203910448Y-155499166D01*
X203910449Y-155499167D01*
X203910448Y-155499167D01*
X204085686Y-155674404D01*
X204223886Y-155780448D01*
X204282293Y-155825265D01*
X204496911Y-155949175D01*
X204591747Y-155988457D01*
X204725866Y-156044012D01*
X204963342Y-156107643D01*
X204965242Y-156108152D01*
X205210942Y-156140499D01*
X205210943Y-156140499D01*
X207345210Y-156140499D01*
X207345211Y-156140499D01*
X207590911Y-156108152D01*
X207830286Y-156044011D01*
X208059242Y-155949175D01*
X208273860Y-155825265D01*
X208470469Y-155674402D01*
X208645704Y-155499167D01*
X208796567Y-155302558D01*
X208920477Y-155087940D01*
X209015313Y-154858984D01*
X209079454Y-154619609D01*
X209111801Y-154373909D01*
X209111801Y-154126089D01*
X209079454Y-153880389D01*
X209015313Y-153641014D01*
X208920477Y-153412058D01*
X208796567Y-153197440D01*
X208724164Y-153103082D01*
X208645709Y-153000837D01*
X208645707Y-153000835D01*
X208645704Y-153000831D01*
X208470469Y-152825596D01*
X208470464Y-152825592D01*
X208470462Y-152825590D01*
X208273863Y-152674735D01*
X208265535Y-152669927D01*
X208122997Y-152587632D01*
X208059237Y-152550820D01*
X207952196Y-152506483D01*
X207905671Y-152466746D01*
X207891387Y-152407252D01*
X207914802Y-152350724D01*
X207931891Y-152334926D01*
X207940651Y-152328561D01*
X207373519Y-151761429D01*
X207427186Y-151747050D01*
X207548816Y-151676826D01*
X207648127Y-151577515D01*
X207718351Y-151455885D01*
X207732730Y-151402218D01*
X208299863Y-151969351D01*
X208329227Y-151928936D01*
X208421793Y-151747268D01*
X208421795Y-151747262D01*
X208484804Y-151553337D01*
X208516701Y-151351953D01*
X208516701Y-151148046D01*
X208484804Y-150946662D01*
X208421796Y-150752740D01*
X208329230Y-150571068D01*
X208329225Y-150571060D01*
X208299863Y-150530648D01*
X207732730Y-151097779D01*
X207718351Y-151044115D01*
X207648127Y-150922485D01*
X207548816Y-150823174D01*
X207427186Y-150752950D01*
X207373518Y-150738569D01*
X207940652Y-150171436D01*
X207900243Y-150142077D01*
X207900238Y-150142073D01*
X207718560Y-150049504D01*
X207524638Y-149986496D01*
X207323254Y-149954600D01*
X207119348Y-149954600D01*
X206917963Y-149986496D01*
X206724041Y-150049504D01*
X206542363Y-150142073D01*
X206542359Y-150142075D01*
X206501948Y-150171436D01*
X207069082Y-150738570D01*
X207015416Y-150752950D01*
X206893786Y-150823174D01*
X206794475Y-150922485D01*
X206724251Y-151044115D01*
X206709871Y-151097781D01*
X206142737Y-150530647D01*
X206113376Y-150571058D01*
X206113374Y-150571062D01*
X206020805Y-150752740D01*
X205957797Y-150946662D01*
X205925901Y-151148046D01*
X205925901Y-151351953D01*
X205957797Y-151553337D01*
X206020805Y-151747259D01*
X206113374Y-151928937D01*
X206113378Y-151928942D01*
X206142737Y-151969351D01*
X206709870Y-151402217D01*
X206724251Y-151455885D01*
X206794475Y-151577515D01*
X206893786Y-151676826D01*
X207015416Y-151747050D01*
X207069080Y-151761429D01*
X206500008Y-152330503D01*
X206445491Y-152358280D01*
X206430004Y-152359499D01*
X206158931Y-152359499D01*
X206100740Y-152340592D01*
X206088927Y-152330503D01*
X205446129Y-151687705D01*
X204761595Y-151003170D01*
X204761590Y-151003166D01*
X204329482Y-150571058D01*
X203964876Y-150206452D01*
X203937099Y-150151935D01*
X203946670Y-150091503D01*
X203964877Y-150066444D01*
X204132627Y-149898694D01*
X204988279Y-149043044D01*
X204988279Y-149043043D01*
X205756898Y-148274423D01*
X205811414Y-148246647D01*
X205871846Y-148256218D01*
X205915111Y-148299483D01*
X205925901Y-148344428D01*
X205925901Y-148351953D01*
X205957797Y-148553337D01*
X206020805Y-148747259D01*
X206113374Y-148928937D01*
X206113378Y-148928942D01*
X206142737Y-148969351D01*
X206142738Y-148969351D01*
X206709871Y-148402218D01*
X206724251Y-148455885D01*
X206794475Y-148577515D01*
X206893786Y-148676826D01*
X207015416Y-148747050D01*
X207069080Y-148761429D01*
X206501949Y-149328562D01*
X206542361Y-149357924D01*
X206542369Y-149357929D01*
X206724041Y-149450495D01*
X206917963Y-149513503D01*
X207119348Y-149545400D01*
X207323254Y-149545400D01*
X207524638Y-149513503D01*
X207718563Y-149450494D01*
X207718569Y-149450492D01*
X207900237Y-149357926D01*
X207940652Y-149328562D01*
X207373519Y-148761429D01*
X207427186Y-148747050D01*
X207548816Y-148676826D01*
X207648127Y-148577515D01*
X207718351Y-148455885D01*
X207732730Y-148402218D01*
X208299863Y-148969351D01*
X208329227Y-148928936D01*
X208421793Y-148747268D01*
X208421795Y-148747262D01*
X208484804Y-148553337D01*
X208516701Y-148351953D01*
X208516701Y-148148046D01*
X208484804Y-147946662D01*
X208421796Y-147752740D01*
X208329230Y-147571068D01*
X208329225Y-147571060D01*
X208299863Y-147530648D01*
X207732730Y-148097779D01*
X207718351Y-148044115D01*
X207648127Y-147922485D01*
X207548816Y-147823174D01*
X207427186Y-147752950D01*
X207373519Y-147738570D01*
X207940652Y-147171437D01*
X207940652Y-147171436D01*
X207931892Y-147165071D01*
X207895929Y-147115570D01*
X207895930Y-147054384D01*
X207931895Y-147004885D01*
X207952196Y-146993516D01*
X208059242Y-146949177D01*
X208273860Y-146825267D01*
X208470469Y-146674404D01*
X208645704Y-146499169D01*
X208796567Y-146302560D01*
X208920477Y-146087942D01*
X209015313Y-145858986D01*
X209079454Y-145619611D01*
X209111801Y-145373911D01*
X209111801Y-145126091D01*
X209079454Y-144880391D01*
X209015313Y-144641016D01*
X208920477Y-144412060D01*
X208796567Y-144197442D01*
X208645704Y-144000833D01*
X208470469Y-143825598D01*
X208470464Y-143825594D01*
X208470462Y-143825592D01*
X208273863Y-143674737D01*
X208271286Y-143673249D01*
X208059242Y-143550825D01*
X208059238Y-143550823D01*
X208059234Y-143550821D01*
X207830291Y-143455991D01*
X207830290Y-143455990D01*
X207830286Y-143455989D01*
X207590911Y-143391848D01*
X207590908Y-143391847D01*
X207590906Y-143391847D01*
X207345212Y-143359501D01*
X207345211Y-143359501D01*
X206231660Y-143359501D01*
X205983840Y-143359501D01*
X205983838Y-143359501D01*
X205738146Y-143391847D01*
X205738144Y-143391847D01*
X205738140Y-143391848D01*
X205647662Y-143416091D01*
X205498765Y-143455987D01*
X205384287Y-143503407D01*
X205384286Y-143503407D01*
X205269816Y-143550821D01*
X205057765Y-143673249D01*
X205056343Y-143674014D01*
X205055185Y-143674738D01*
X204858588Y-143825592D01*
X202314708Y-146369473D01*
X200467227Y-148216953D01*
X200412710Y-148244730D01*
X200397223Y-148245949D01*
X197959500Y-148245949D01*
X197901309Y-148227042D01*
X197865345Y-148177542D01*
X197860500Y-148146949D01*
X197860500Y-142166191D01*
X204410400Y-142166191D01*
X204410400Y-142333808D01*
X204443100Y-142498197D01*
X204443100Y-142498199D01*
X204507239Y-142653047D01*
X204507245Y-142653058D01*
X204563267Y-142736899D01*
X204600363Y-142792417D01*
X204718883Y-142910937D01*
X204801969Y-142966453D01*
X204858241Y-143004054D01*
X204858252Y-143004060D01*
X204915454Y-143027753D01*
X205013102Y-143068200D01*
X205177494Y-143100900D01*
X205177495Y-143100900D01*
X205345105Y-143100900D01*
X205345106Y-143100900D01*
X205509498Y-143068200D01*
X205664352Y-143004058D01*
X205803717Y-142910937D01*
X205922237Y-142792417D01*
X206015358Y-142653052D01*
X206079500Y-142498198D01*
X206112200Y-142333806D01*
X206112200Y-142166194D01*
X206079500Y-142001802D01*
X206015358Y-141846948D01*
X206015357Y-141846946D01*
X206015354Y-141846941D01*
X205977753Y-141790669D01*
X205922237Y-141707583D01*
X205803717Y-141589063D01*
X205748199Y-141551967D01*
X205664358Y-141495945D01*
X205664347Y-141495939D01*
X205509498Y-141431800D01*
X205345108Y-141399100D01*
X205345106Y-141399100D01*
X205177494Y-141399100D01*
X205177491Y-141399100D01*
X205013102Y-141431800D01*
X205013100Y-141431800D01*
X204858252Y-141495939D01*
X204858241Y-141495945D01*
X204718883Y-141589063D01*
X204718879Y-141589066D01*
X204600366Y-141707579D01*
X204600363Y-141707583D01*
X204507245Y-141846941D01*
X204507239Y-141846952D01*
X204443100Y-142001800D01*
X204443100Y-142001802D01*
X204410400Y-142166191D01*
X197860500Y-142166191D01*
X197860500Y-140300561D01*
X197826263Y-140084394D01*
X197826262Y-140084390D01*
X197758627Y-139876233D01*
X197659263Y-139681219D01*
X197618651Y-139625322D01*
X197530615Y-139504151D01*
X197375850Y-139349385D01*
X197375850Y-139349386D01*
X194104640Y-136078176D01*
X215254300Y-136078176D01*
X215254300Y-136199423D01*
X215277953Y-136318334D01*
X215277953Y-136318336D01*
X215324349Y-136430346D01*
X215324349Y-136430347D01*
X215391709Y-136531157D01*
X215391710Y-136531158D01*
X215477442Y-136616890D01*
X215578251Y-136684249D01*
X215690265Y-136730647D01*
X215809179Y-136754300D01*
X215809180Y-136754300D01*
X215930420Y-136754300D01*
X215930421Y-136754300D01*
X216049335Y-136730647D01*
X216161349Y-136684249D01*
X216262158Y-136616890D01*
X216347890Y-136531158D01*
X216415249Y-136430349D01*
X216461647Y-136318335D01*
X216484388Y-136204001D01*
X216511480Y-136153314D01*
X224426996Y-128237797D01*
X224481513Y-128210021D01*
X224541945Y-128219592D01*
X224585210Y-128262857D01*
X224596000Y-128307802D01*
X224596000Y-130271396D01*
X224577093Y-130329587D01*
X224567004Y-130341400D01*
X219411286Y-135497117D01*
X219360596Y-135524211D01*
X219246265Y-135546953D01*
X219246263Y-135546953D01*
X219134253Y-135593349D01*
X219134252Y-135593349D01*
X219033442Y-135660709D01*
X218947709Y-135746442D01*
X218880349Y-135847252D01*
X218880349Y-135847253D01*
X218833953Y-135959263D01*
X218833953Y-135959265D01*
X218810300Y-136078176D01*
X218810300Y-136199423D01*
X218833953Y-136318334D01*
X218833953Y-136318336D01*
X218880349Y-136430346D01*
X218880349Y-136430347D01*
X218947709Y-136531157D01*
X218947710Y-136531158D01*
X219033442Y-136616890D01*
X219134251Y-136684249D01*
X219246265Y-136730647D01*
X219365179Y-136754300D01*
X219365180Y-136754300D01*
X219486420Y-136754300D01*
X219486421Y-136754300D01*
X219605335Y-136730647D01*
X219717349Y-136684249D01*
X219818158Y-136616890D01*
X219903890Y-136531158D01*
X219971249Y-136430349D01*
X220017647Y-136318335D01*
X220040388Y-136204002D01*
X220067480Y-136153315D01*
X225226996Y-130993800D01*
X225281513Y-130966023D01*
X225341945Y-130975594D01*
X225385210Y-131018859D01*
X225396000Y-131063804D01*
X225396000Y-134626596D01*
X225377093Y-134684787D01*
X225367004Y-134696600D01*
X224566486Y-135497117D01*
X224515796Y-135524211D01*
X224401465Y-135546953D01*
X224401463Y-135546953D01*
X224289453Y-135593349D01*
X224289452Y-135593349D01*
X224188642Y-135660709D01*
X224102909Y-135746442D01*
X224035549Y-135847252D01*
X224035549Y-135847253D01*
X223989153Y-135959263D01*
X223989153Y-135959265D01*
X223965500Y-136078176D01*
X223965500Y-136199423D01*
X223989153Y-136318334D01*
X223989153Y-136318336D01*
X224035549Y-136430346D01*
X224035549Y-136430347D01*
X224102909Y-136531157D01*
X224102910Y-136531158D01*
X224188642Y-136616890D01*
X224289451Y-136684249D01*
X224401465Y-136730647D01*
X224520379Y-136754300D01*
X224520380Y-136754300D01*
X224641620Y-136754300D01*
X224641621Y-136754300D01*
X224760535Y-136730647D01*
X224872549Y-136684249D01*
X224973358Y-136616890D01*
X225059090Y-136531158D01*
X225126449Y-136430349D01*
X225172847Y-136318335D01*
X225195589Y-136203999D01*
X225222679Y-136153315D01*
X226144900Y-135231094D01*
X226144903Y-135231093D01*
X226162399Y-135213597D01*
X226189269Y-135199907D01*
X226216913Y-135185822D01*
X226216914Y-135185822D01*
X226216917Y-135185821D01*
X226248171Y-135190772D01*
X226277345Y-135195393D01*
X226302400Y-135213596D01*
X226830614Y-135741809D01*
X227292917Y-136204112D01*
X227320011Y-136254802D01*
X227342753Y-136369134D01*
X227342753Y-136369136D01*
X227389149Y-136481146D01*
X227389149Y-136481147D01*
X227456509Y-136581957D01*
X227456510Y-136581958D01*
X227542242Y-136667690D01*
X227643051Y-136735049D01*
X227755065Y-136781447D01*
X227873979Y-136805100D01*
X227873980Y-136805100D01*
X227995220Y-136805100D01*
X227995221Y-136805100D01*
X228114135Y-136781447D01*
X228226149Y-136735049D01*
X228326958Y-136667690D01*
X228412690Y-136581958D01*
X228480049Y-136481149D01*
X228526447Y-136369135D01*
X228550100Y-136250221D01*
X228550100Y-136128979D01*
X228526447Y-136010065D01*
X228480050Y-135898053D01*
X228480050Y-135898052D01*
X228412690Y-135797242D01*
X228326957Y-135711509D01*
X228226146Y-135644149D01*
X228114135Y-135597753D01*
X227999802Y-135575011D01*
X227949112Y-135547917D01*
X227152996Y-134751800D01*
X227125219Y-134697283D01*
X227124000Y-134681796D01*
X227124000Y-126829979D01*
X228744500Y-126829979D01*
X228744500Y-127030020D01*
X228783525Y-127226210D01*
X228783525Y-127226212D01*
X228860074Y-127411019D01*
X228864724Y-127417978D01*
X228971209Y-127577344D01*
X229112656Y-127718791D01*
X229278980Y-127829925D01*
X229463789Y-127906475D01*
X229659982Y-127945500D01*
X229659983Y-127945500D01*
X229860017Y-127945500D01*
X229860018Y-127945500D01*
X230056211Y-127906475D01*
X230241020Y-127829925D01*
X230407344Y-127718791D01*
X230548791Y-127577344D01*
X230659925Y-127411020D01*
X230736475Y-127226211D01*
X230775500Y-127030018D01*
X230775500Y-126829982D01*
X230736475Y-126633789D01*
X230659925Y-126448980D01*
X230548791Y-126282656D01*
X230407344Y-126141209D01*
X230241020Y-126030075D01*
X230241021Y-126030075D01*
X230241019Y-126030074D01*
X230056211Y-125953525D01*
X229860020Y-125914500D01*
X229860018Y-125914500D01*
X229659982Y-125914500D01*
X229659979Y-125914500D01*
X229463789Y-125953525D01*
X229463787Y-125953525D01*
X229278980Y-126030074D01*
X229112656Y-126141209D01*
X229112652Y-126141212D01*
X228971212Y-126282652D01*
X228971209Y-126282656D01*
X228860074Y-126448980D01*
X228783525Y-126633787D01*
X228783525Y-126633789D01*
X228744500Y-126829979D01*
X227124000Y-126829979D01*
X227124000Y-89868045D01*
X238313299Y-89868045D01*
X238313299Y-90071952D01*
X238345195Y-90273336D01*
X238408203Y-90467258D01*
X238500772Y-90648936D01*
X238500776Y-90648941D01*
X238530135Y-90689350D01*
X239097268Y-90122216D01*
X239111649Y-90175884D01*
X239181873Y-90297514D01*
X239281184Y-90396825D01*
X239402814Y-90467049D01*
X239456478Y-90481428D01*
X238889347Y-91048561D01*
X238929759Y-91077923D01*
X238929767Y-91077928D01*
X239111439Y-91170494D01*
X239305361Y-91233502D01*
X239506746Y-91265399D01*
X239710652Y-91265399D01*
X239912036Y-91233502D01*
X240105961Y-91170493D01*
X240105967Y-91170491D01*
X240287635Y-91077925D01*
X240328050Y-91048561D01*
X239760917Y-90481428D01*
X239814584Y-90467049D01*
X239936214Y-90396825D01*
X240035525Y-90297514D01*
X240105749Y-90175884D01*
X240120128Y-90122217D01*
X240687261Y-90689350D01*
X240716625Y-90648935D01*
X240809191Y-90467267D01*
X240809193Y-90467261D01*
X240872202Y-90273336D01*
X240904099Y-90071952D01*
X240904099Y-89868045D01*
X240872202Y-89666661D01*
X240809194Y-89472739D01*
X240716628Y-89291067D01*
X240716623Y-89291059D01*
X240687261Y-89250647D01*
X240120128Y-89817778D01*
X240105749Y-89764114D01*
X240035525Y-89642484D01*
X239936214Y-89543173D01*
X239814584Y-89472949D01*
X239760916Y-89458568D01*
X240328050Y-88891435D01*
X240287641Y-88862076D01*
X240287636Y-88862072D01*
X240105958Y-88769503D01*
X239912036Y-88706495D01*
X239710652Y-88674599D01*
X239506746Y-88674599D01*
X239305361Y-88706495D01*
X239111439Y-88769503D01*
X238929761Y-88862072D01*
X238929757Y-88862074D01*
X238889346Y-88891435D01*
X239456480Y-89458569D01*
X239402814Y-89472949D01*
X239281184Y-89543173D01*
X239181873Y-89642484D01*
X239111649Y-89764114D01*
X239097269Y-89817780D01*
X238530135Y-89250646D01*
X238500774Y-89291057D01*
X238500772Y-89291061D01*
X238408203Y-89472739D01*
X238345195Y-89666661D01*
X238313299Y-89868045D01*
X227124000Y-89868045D01*
X227124000Y-86877293D01*
X238430799Y-86877293D01*
X238430799Y-87062706D01*
X238459802Y-87245827D01*
X238459803Y-87245831D01*
X238517093Y-87422150D01*
X238517095Y-87422153D01*
X238517096Y-87422156D01*
X238517097Y-87422157D01*
X238601269Y-87587354D01*
X238710247Y-87737350D01*
X238841349Y-87868452D01*
X238991345Y-87977430D01*
X239156542Y-88061602D01*
X239156544Y-88061602D01*
X239156545Y-88061603D01*
X239156548Y-88061605D01*
X239332867Y-88118895D01*
X239332871Y-88118896D01*
X239515993Y-88147900D01*
X239515996Y-88147900D01*
X239701405Y-88147900D01*
X239884526Y-88118896D01*
X239884530Y-88118895D01*
X240060849Y-88061605D01*
X240060851Y-88061603D01*
X240060856Y-88061602D01*
X240226053Y-87977430D01*
X240376049Y-87868452D01*
X240507151Y-87737350D01*
X240616129Y-87587354D01*
X240700301Y-87422157D01*
X240700302Y-87422152D01*
X240700304Y-87422150D01*
X240757594Y-87245831D01*
X240757595Y-87245827D01*
X240786599Y-87062706D01*
X240786599Y-86877293D01*
X240757595Y-86694172D01*
X240757594Y-86694168D01*
X240700304Y-86517849D01*
X240700302Y-86517846D01*
X240700301Y-86517845D01*
X240700301Y-86517843D01*
X240616129Y-86352646D01*
X240507151Y-86202650D01*
X240376049Y-86071548D01*
X240226053Y-85962570D01*
X240226052Y-85962569D01*
X240226050Y-85962568D01*
X240060852Y-85878396D01*
X240060849Y-85878394D01*
X239884530Y-85821104D01*
X239884526Y-85821103D01*
X239701405Y-85792100D01*
X239701402Y-85792100D01*
X239515996Y-85792100D01*
X239515993Y-85792100D01*
X239332871Y-85821103D01*
X239332867Y-85821104D01*
X239156548Y-85878394D01*
X239156545Y-85878396D01*
X238991347Y-85962568D01*
X238916347Y-86017059D01*
X238841349Y-86071548D01*
X238710247Y-86202650D01*
X238655758Y-86277648D01*
X238601267Y-86352648D01*
X238517095Y-86517846D01*
X238517093Y-86517849D01*
X238459803Y-86694168D01*
X238459802Y-86694172D01*
X238430799Y-86877293D01*
X227124000Y-86877293D01*
X227124000Y-83877293D01*
X238430799Y-83877293D01*
X238430799Y-84062706D01*
X238459802Y-84245827D01*
X238459803Y-84245831D01*
X238517093Y-84422150D01*
X238517095Y-84422153D01*
X238517096Y-84422156D01*
X238517097Y-84422157D01*
X238601269Y-84587354D01*
X238710247Y-84737350D01*
X238841349Y-84868452D01*
X238991345Y-84977430D01*
X239156542Y-85061602D01*
X239156544Y-85061602D01*
X239156545Y-85061603D01*
X239156548Y-85061605D01*
X239332867Y-85118895D01*
X239332871Y-85118896D01*
X239515993Y-85147900D01*
X239515996Y-85147900D01*
X239701405Y-85147900D01*
X239884526Y-85118896D01*
X239884530Y-85118895D01*
X240060849Y-85061605D01*
X240060851Y-85061603D01*
X240060856Y-85061602D01*
X240226053Y-84977430D01*
X240376049Y-84868452D01*
X240507151Y-84737350D01*
X240616129Y-84587354D01*
X240700301Y-84422157D01*
X240700302Y-84422152D01*
X240700304Y-84422150D01*
X240757594Y-84245831D01*
X240757595Y-84245827D01*
X240786599Y-84062706D01*
X240786599Y-83877293D01*
X240757595Y-83694172D01*
X240757594Y-83694168D01*
X240700304Y-83517849D01*
X240700302Y-83517846D01*
X240700301Y-83517845D01*
X240700301Y-83517843D01*
X240616129Y-83352646D01*
X240507151Y-83202650D01*
X240376049Y-83071548D01*
X240226053Y-82962570D01*
X240226052Y-82962569D01*
X240226050Y-82962568D01*
X240060852Y-82878396D01*
X240060849Y-82878394D01*
X239884530Y-82821104D01*
X239884526Y-82821103D01*
X239701405Y-82792100D01*
X239701402Y-82792100D01*
X239515996Y-82792100D01*
X239515993Y-82792100D01*
X239332871Y-82821103D01*
X239332867Y-82821104D01*
X239156548Y-82878394D01*
X239156545Y-82878396D01*
X238991347Y-82962568D01*
X238916347Y-83017059D01*
X238841349Y-83071548D01*
X238710247Y-83202650D01*
X238679421Y-83245079D01*
X238601267Y-83352648D01*
X238517095Y-83517846D01*
X238517093Y-83517849D01*
X238459803Y-83694168D01*
X238459802Y-83694172D01*
X238430799Y-83877293D01*
X227124000Y-83877293D01*
X227124000Y-81073476D01*
X227140685Y-81018474D01*
X227205449Y-80921549D01*
X227251847Y-80809535D01*
X227275500Y-80690621D01*
X227275500Y-80569379D01*
X227251847Y-80450465D01*
X227205450Y-80338453D01*
X227205450Y-80338452D01*
X227138090Y-80237642D01*
X227052357Y-80151909D01*
X226951546Y-80084549D01*
X226839535Y-80038153D01*
X226720623Y-80014500D01*
X226720621Y-80014500D01*
X226599379Y-80014500D01*
X226599376Y-80014500D01*
X226480465Y-80038153D01*
X226480463Y-80038153D01*
X226368454Y-80084549D01*
X226315001Y-80120265D01*
X226256113Y-80136873D01*
X226204999Y-80120265D01*
X226183416Y-80105844D01*
X226151549Y-80084551D01*
X226151546Y-80084549D01*
X226151545Y-80084549D01*
X226039535Y-80038153D01*
X225920623Y-80014500D01*
X225920621Y-80014500D01*
X225799379Y-80014500D01*
X225799376Y-80014500D01*
X225680465Y-80038153D01*
X225680463Y-80038153D01*
X225568454Y-80084549D01*
X225515001Y-80120265D01*
X225456113Y-80136873D01*
X225404999Y-80120265D01*
X225383416Y-80105844D01*
X225351549Y-80084551D01*
X225351546Y-80084549D01*
X225351545Y-80084549D01*
X225239535Y-80038153D01*
X225120623Y-80014500D01*
X225120621Y-80014500D01*
X224999379Y-80014500D01*
X224999376Y-80014500D01*
X224880465Y-80038153D01*
X224880463Y-80038153D01*
X224768454Y-80084549D01*
X224715001Y-80120265D01*
X224656113Y-80136873D01*
X224604999Y-80120265D01*
X224583416Y-80105844D01*
X224551549Y-80084551D01*
X224551546Y-80084549D01*
X224551545Y-80084549D01*
X224439535Y-80038153D01*
X224320623Y-80014500D01*
X224320621Y-80014500D01*
X224199379Y-80014500D01*
X224199376Y-80014500D01*
X224080465Y-80038153D01*
X224080463Y-80038153D01*
X223968453Y-80084549D01*
X223968452Y-80084549D01*
X223867642Y-80151909D01*
X223781909Y-80237642D01*
X223714549Y-80338452D01*
X223714549Y-80338453D01*
X223668153Y-80450463D01*
X223668153Y-80450465D01*
X223644500Y-80569376D01*
X223644500Y-80690623D01*
X223668153Y-80809534D01*
X223668153Y-80809536D01*
X223714549Y-80921546D01*
X223779315Y-81018474D01*
X223796000Y-81073476D01*
X223796000Y-127515396D01*
X223777093Y-127573587D01*
X223767004Y-127585400D01*
X215855286Y-135497117D01*
X215804596Y-135524211D01*
X215690265Y-135546953D01*
X215690263Y-135546953D01*
X215578253Y-135593349D01*
X215578252Y-135593349D01*
X215477442Y-135660709D01*
X215391709Y-135746442D01*
X215324349Y-135847252D01*
X215324349Y-135847253D01*
X215277953Y-135959263D01*
X215277953Y-135959265D01*
X215254300Y-136078176D01*
X194104640Y-136078176D01*
X193685850Y-135659386D01*
X193685846Y-135659383D01*
X193685844Y-135659381D01*
X193508786Y-135530740D01*
X193508780Y-135530736D01*
X193313767Y-135431373D01*
X193105605Y-135363736D01*
X192889438Y-135329500D01*
X192889435Y-135329500D01*
X190368865Y-135329500D01*
X190310674Y-135310593D01*
X190274710Y-135261093D01*
X190274710Y-135199907D01*
X190298861Y-135160496D01*
X190791753Y-134667604D01*
X192387657Y-133071699D01*
X192387661Y-133071697D01*
X192511697Y-132947661D01*
X192570116Y-132860230D01*
X192609151Y-132801811D01*
X192645634Y-132713733D01*
X192676279Y-132639749D01*
X192710500Y-132467707D01*
X192710500Y-123137849D01*
X192729407Y-123079658D01*
X192778907Y-123043694D01*
X192840093Y-123043694D01*
X192889593Y-123079658D01*
X192893311Y-123085156D01*
X193008211Y-123268018D01*
X193221834Y-123535893D01*
X193464107Y-123778166D01*
X193731982Y-123991789D01*
X194022090Y-124174076D01*
X194022101Y-124174081D01*
X194022104Y-124174083D01*
X194124660Y-124223471D01*
X194330785Y-124322736D01*
X194481753Y-124375561D01*
X194654179Y-124435896D01*
X194654182Y-124435896D01*
X194654183Y-124435897D01*
X194988217Y-124512139D01*
X195328688Y-124550500D01*
X195328689Y-124550500D01*
X195671311Y-124550500D01*
X195671312Y-124550500D01*
X196011783Y-124512139D01*
X196345817Y-124435897D01*
X196669215Y-124322736D01*
X196977910Y-124174076D01*
X197268018Y-123991789D01*
X197535893Y-123778166D01*
X197778166Y-123535893D01*
X197991789Y-123268018D01*
X198174076Y-122977910D01*
X198322736Y-122669215D01*
X198435897Y-122345817D01*
X198512139Y-122011783D01*
X198550500Y-121671312D01*
X198550500Y-121328688D01*
X198512139Y-120988217D01*
X198435897Y-120654183D01*
X198322736Y-120330785D01*
X198174076Y-120022090D01*
X197991789Y-119731982D01*
X197778166Y-119464107D01*
X197535893Y-119221834D01*
X197268018Y-119008211D01*
X196977910Y-118825924D01*
X196977902Y-118825920D01*
X196977895Y-118825916D01*
X196669215Y-118677264D01*
X196669213Y-118677263D01*
X196345820Y-118564103D01*
X196011781Y-118487860D01*
X195671313Y-118449500D01*
X195671312Y-118449500D01*
X195328688Y-118449500D01*
X195328686Y-118449500D01*
X194988218Y-118487860D01*
X194654179Y-118564103D01*
X194330786Y-118677263D01*
X194330784Y-118677264D01*
X194022104Y-118825916D01*
X194022092Y-118825923D01*
X193731981Y-119008211D01*
X193464108Y-119221833D01*
X193221833Y-119464108D01*
X193008211Y-119731981D01*
X192893326Y-119914821D01*
X192846357Y-119954033D01*
X192785310Y-119958149D01*
X192733503Y-119925597D01*
X192710724Y-119868810D01*
X192710500Y-119862150D01*
X192710500Y-115839865D01*
X192729407Y-115781674D01*
X192739496Y-115769861D01*
X193771056Y-114738301D01*
X201521697Y-106987661D01*
X201595166Y-106877707D01*
X201619147Y-106841818D01*
X201619153Y-106841806D01*
X201686279Y-106679749D01*
X201720500Y-106507707D01*
X201720500Y-106332293D01*
X201720500Y-76457064D01*
X204419500Y-76457064D01*
X204419500Y-76602935D01*
X204447957Y-76745995D01*
X204447957Y-76745997D01*
X204503775Y-76880755D01*
X204503775Y-76880756D01*
X204544157Y-76941191D01*
X204584816Y-77002041D01*
X204687959Y-77105184D01*
X204809242Y-77186223D01*
X204944004Y-77242043D01*
X205087067Y-77270500D01*
X205087068Y-77270500D01*
X205232932Y-77270500D01*
X205232933Y-77270500D01*
X205375996Y-77242043D01*
X205510758Y-77186223D01*
X205632041Y-77105184D01*
X205735184Y-77002041D01*
X205816223Y-76880758D01*
X205872043Y-76745996D01*
X205900500Y-76602933D01*
X205900500Y-76457067D01*
X205872043Y-76314004D01*
X205816224Y-76179244D01*
X205816224Y-76179243D01*
X205791532Y-76142290D01*
X205735184Y-76057959D01*
X205632041Y-75954816D01*
X205510758Y-75873777D01*
X205510757Y-75873776D01*
X205510755Y-75873775D01*
X205375996Y-75817957D01*
X205232935Y-75789500D01*
X205232933Y-75789500D01*
X205087067Y-75789500D01*
X205087064Y-75789500D01*
X204944004Y-75817957D01*
X204944002Y-75817957D01*
X204809244Y-75873775D01*
X204809243Y-75873775D01*
X204687959Y-75954816D01*
X204687955Y-75954819D01*
X204584819Y-76057955D01*
X204584816Y-76057959D01*
X204503775Y-76179243D01*
X204503775Y-76179244D01*
X204447957Y-76314002D01*
X204447957Y-76314004D01*
X204419500Y-76457064D01*
X201720500Y-76457064D01*
X201720500Y-74279865D01*
X201739407Y-74221674D01*
X201749496Y-74209861D01*
X203539861Y-72419496D01*
X203594378Y-72391719D01*
X203609865Y-72390500D01*
X209520500Y-72390500D01*
X209578691Y-72409407D01*
X209614655Y-72458907D01*
X209619500Y-72489500D01*
X209619500Y-75570134D01*
X209600593Y-75628325D01*
X209590504Y-75640138D01*
X205292339Y-79938303D01*
X205292338Y-79938302D01*
X205168302Y-80062339D01*
X205116746Y-80139500D01*
X205070847Y-80208192D01*
X205003721Y-80370249D01*
X204969499Y-80542292D01*
X204969499Y-80722586D01*
X204969500Y-80722607D01*
X204969500Y-118640135D01*
X204950593Y-118698326D01*
X204940504Y-118710139D01*
X196678306Y-126972336D01*
X196678303Y-126972340D01*
X196580852Y-127118182D01*
X196580846Y-127118194D01*
X196513721Y-127280249D01*
X196479499Y-127452292D01*
X196479499Y-127627707D01*
X196513721Y-127799750D01*
X196580846Y-127961805D01*
X196580852Y-127961817D01*
X196650540Y-128066110D01*
X196678303Y-128107660D01*
X196802340Y-128231697D01*
X196864521Y-128273245D01*
X196948182Y-128329147D01*
X196948194Y-128329153D01*
X196983406Y-128343738D01*
X197110251Y-128396279D01*
X197282293Y-128430501D01*
X197282294Y-128430501D01*
X197457706Y-128430501D01*
X197457707Y-128430501D01*
X197629749Y-128396279D01*
X197791810Y-128329151D01*
X197791812Y-128329149D01*
X197791817Y-128329147D01*
X197833929Y-128301007D01*
X197937660Y-128231697D01*
X199314755Y-126854602D01*
X204794500Y-126854602D01*
X204794500Y-127005397D01*
X204823918Y-127153287D01*
X204823918Y-127153289D01*
X204881621Y-127292597D01*
X204881622Y-127292599D01*
X204881623Y-127292600D01*
X204965397Y-127417978D01*
X205072022Y-127524603D01*
X205197400Y-127608377D01*
X205336712Y-127666082D01*
X205484605Y-127695500D01*
X205484606Y-127695500D01*
X205635394Y-127695500D01*
X205635395Y-127695500D01*
X205783288Y-127666082D01*
X205922600Y-127608377D01*
X206047978Y-127524603D01*
X206154603Y-127417978D01*
X206238377Y-127292600D01*
X206296082Y-127153288D01*
X206325500Y-127005395D01*
X206325500Y-126854605D01*
X206296082Y-126706712D01*
X206238377Y-126567400D01*
X206154603Y-126442022D01*
X206047978Y-126335397D01*
X205922600Y-126251623D01*
X205922599Y-126251622D01*
X205922597Y-126251621D01*
X205783288Y-126193918D01*
X205635397Y-126164500D01*
X205635395Y-126164500D01*
X205484605Y-126164500D01*
X205484602Y-126164500D01*
X205336712Y-126193918D01*
X205336710Y-126193918D01*
X205197402Y-126251621D01*
X205072025Y-126335394D01*
X204965394Y-126442025D01*
X204881621Y-126567402D01*
X204823918Y-126706710D01*
X204823918Y-126706712D01*
X204794500Y-126854602D01*
X199314755Y-126854602D01*
X206422018Y-119747337D01*
X206422023Y-119747334D01*
X206427659Y-119741697D01*
X206427661Y-119741697D01*
X206551697Y-119617661D01*
X206640516Y-119484734D01*
X206649151Y-119471811D01*
X206716279Y-119309749D01*
X206750500Y-119137707D01*
X206750500Y-118962293D01*
X206750500Y-81770500D01*
X206769407Y-81712309D01*
X206818907Y-81676345D01*
X206849500Y-81671500D01*
X216630156Y-81671500D01*
X216630158Y-81671500D01*
X216767625Y-81634666D01*
X216890875Y-81563508D01*
X217213663Y-81240718D01*
X217245776Y-81219261D01*
X217351549Y-81175449D01*
X217452358Y-81108090D01*
X217538090Y-81022358D01*
X217605449Y-80921549D01*
X217649261Y-80815776D01*
X217670717Y-80783663D01*
X218692886Y-79761496D01*
X218747403Y-79733719D01*
X218762890Y-79732500D01*
X227357109Y-79732500D01*
X227415300Y-79751407D01*
X227427113Y-79761496D01*
X228449280Y-80783663D01*
X228470740Y-80815781D01*
X228514550Y-80921548D01*
X228579315Y-81018474D01*
X228581910Y-81022358D01*
X228667642Y-81108090D01*
X228768451Y-81175449D01*
X228880465Y-81221847D01*
X228999379Y-81245500D01*
X228999380Y-81245500D01*
X229120620Y-81245500D01*
X229120621Y-81245500D01*
X229239535Y-81221847D01*
X229351549Y-81175449D01*
X229452358Y-81108090D01*
X229538090Y-81022358D01*
X229605449Y-80921549D01*
X229651847Y-80809535D01*
X229675500Y-80690621D01*
X229675500Y-80569379D01*
X229651847Y-80450465D01*
X229605450Y-80338453D01*
X229605450Y-80338452D01*
X229538090Y-80237642D01*
X229452357Y-80151909D01*
X229351548Y-80084550D01*
X229245781Y-80040740D01*
X229213663Y-80019280D01*
X228639487Y-79445104D01*
X228611710Y-79390587D01*
X228621281Y-79330155D01*
X228664546Y-79286890D01*
X228709491Y-79276100D01*
X230016420Y-79276100D01*
X230074611Y-79295007D01*
X230086424Y-79305096D01*
X233128311Y-82346983D01*
X233131937Y-82354100D01*
X233138400Y-82358796D01*
X233145563Y-82380844D01*
X233156088Y-82401500D01*
X233157307Y-82416987D01*
X233157307Y-82448905D01*
X233140622Y-82503907D01*
X233102361Y-82561166D01*
X233102355Y-82561177D01*
X233055960Y-82673185D01*
X233055960Y-82673187D01*
X233032307Y-82792098D01*
X233032307Y-82913345D01*
X233055960Y-83032256D01*
X233055960Y-83032258D01*
X233102356Y-83144268D01*
X233102356Y-83144269D01*
X233169716Y-83245079D01*
X233169717Y-83245080D01*
X233255449Y-83330812D01*
X233356258Y-83398171D01*
X233468272Y-83444569D01*
X233587186Y-83468222D01*
X233587187Y-83468222D01*
X233708427Y-83468222D01*
X233708428Y-83468222D01*
X233827342Y-83444569D01*
X233939356Y-83398171D01*
X234040165Y-83330812D01*
X234125897Y-83245080D01*
X234193256Y-83144271D01*
X234239654Y-83032257D01*
X234263307Y-82913343D01*
X234263307Y-82792101D01*
X234239654Y-82673187D01*
X234193256Y-82561173D01*
X234193255Y-82561171D01*
X234193252Y-82561166D01*
X234154992Y-82503907D01*
X234138307Y-82448905D01*
X234138307Y-82108232D01*
X234125814Y-82061606D01*
X234104881Y-81983481D01*
X234104879Y-81983478D01*
X234104879Y-81983476D01*
X234040308Y-81871637D01*
X234040304Y-81871632D01*
X233948981Y-81780308D01*
X233948981Y-81780309D01*
X230561774Y-78393102D01*
X230561771Y-78393100D01*
X230561770Y-78393099D01*
X230561769Y-78393098D01*
X230449929Y-78328527D01*
X230449931Y-78328527D01*
X230401527Y-78315557D01*
X230325176Y-78295100D01*
X211639824Y-78295100D01*
X211563472Y-78315557D01*
X211515069Y-78328527D01*
X211403230Y-78393098D01*
X211403229Y-78393099D01*
X209798704Y-79997622D01*
X209748015Y-80024716D01*
X209722949Y-80029702D01*
X209680465Y-80038153D01*
X209680464Y-80038153D01*
X209680461Y-80038154D01*
X209568451Y-80084550D01*
X209467642Y-80151909D01*
X209381909Y-80237642D01*
X209314549Y-80338452D01*
X209314549Y-80338453D01*
X209268153Y-80450463D01*
X209268153Y-80450465D01*
X209256149Y-80510814D01*
X209226252Y-80564198D01*
X209170687Y-80589814D01*
X209159051Y-80590500D01*
X207397865Y-80590500D01*
X207339674Y-80571593D01*
X207303710Y-80522093D01*
X207303710Y-80460907D01*
X207327861Y-80421496D01*
X209118424Y-78630933D01*
X210951697Y-76797660D01*
X211021007Y-76693929D01*
X211049147Y-76651817D01*
X211049153Y-76651805D01*
X211116279Y-76489749D01*
X211127678Y-76432441D01*
X229169500Y-76432441D01*
X229169500Y-76627558D01*
X229207564Y-76818917D01*
X229207564Y-76818919D01*
X229282227Y-76999173D01*
X229282233Y-76999185D01*
X229353058Y-77105180D01*
X229390628Y-77161407D01*
X229528593Y-77299372D01*
X229597757Y-77345586D01*
X229690814Y-77407766D01*
X229690826Y-77407772D01*
X229738645Y-77427579D01*
X229871082Y-77482436D01*
X230062444Y-77520500D01*
X230062445Y-77520500D01*
X230257555Y-77520500D01*
X230257556Y-77520500D01*
X230448918Y-77482436D01*
X230629178Y-77407770D01*
X230629180Y-77407768D01*
X230629185Y-77407766D01*
X230676026Y-77376466D01*
X230791407Y-77299372D01*
X230929372Y-77161407D01*
X231012713Y-77036678D01*
X231037766Y-76999185D01*
X231037772Y-76999173D01*
X231086821Y-76880758D01*
X231112436Y-76818918D01*
X231150500Y-76627556D01*
X231150500Y-76432444D01*
X231112436Y-76241082D01*
X231037770Y-76060822D01*
X231037766Y-76060814D01*
X230966939Y-75954816D01*
X230929372Y-75898593D01*
X230791407Y-75760628D01*
X230745191Y-75729747D01*
X230629185Y-75652233D01*
X230629173Y-75652227D01*
X230448918Y-75577564D01*
X230257558Y-75539500D01*
X230257556Y-75539500D01*
X230062444Y-75539500D01*
X230062441Y-75539500D01*
X229871082Y-75577564D01*
X229871080Y-75577564D01*
X229690826Y-75652227D01*
X229690814Y-75652233D01*
X229528593Y-75760628D01*
X229528589Y-75760631D01*
X229390631Y-75898589D01*
X229390628Y-75898593D01*
X229282233Y-76060814D01*
X229282227Y-76060826D01*
X229207564Y-76241080D01*
X229207564Y-76241082D01*
X229169500Y-76432441D01*
X211127678Y-76432441D01*
X211150501Y-76317706D01*
X211150501Y-76142293D01*
X211116279Y-75970250D01*
X211086596Y-75898589D01*
X211049153Y-75808193D01*
X211049147Y-75808181D01*
X210993245Y-75724520D01*
X210951697Y-75662339D01*
X210929496Y-75640138D01*
X210901719Y-75585621D01*
X210900500Y-75570134D01*
X210900500Y-73144500D01*
X210919407Y-73086309D01*
X210968907Y-73050345D01*
X210999500Y-73045500D01*
X211120620Y-73045500D01*
X211120621Y-73045500D01*
X211239535Y-73021847D01*
X211351549Y-72975449D01*
X211452358Y-72908090D01*
X211538090Y-72822358D01*
X211605449Y-72721549D01*
X211651847Y-72609535D01*
X211675500Y-72490621D01*
X211675500Y-72489500D01*
X211675658Y-72489012D01*
X211675976Y-72485785D01*
X211676684Y-72485854D01*
X211694407Y-72431309D01*
X211743907Y-72395345D01*
X211774500Y-72390500D01*
X233140135Y-72390500D01*
X233198326Y-72409407D01*
X233210139Y-72419496D01*
X238689203Y-77898560D01*
X238716980Y-77953077D01*
X238718199Y-77968564D01*
X238718199Y-80159539D01*
X238699292Y-80217730D01*
X238601267Y-80352648D01*
X238517095Y-80517847D01*
X238517093Y-80517850D01*
X238459803Y-80694169D01*
X238459802Y-80694173D01*
X238430799Y-80877294D01*
X238430799Y-81062707D01*
X238459802Y-81245828D01*
X238459803Y-81245832D01*
X238517093Y-81422151D01*
X238517095Y-81422154D01*
X238589116Y-81563505D01*
X238601269Y-81587355D01*
X238710247Y-81737351D01*
X238841349Y-81868453D01*
X238991345Y-81977431D01*
X239156542Y-82061603D01*
X239156544Y-82061603D01*
X239156545Y-82061604D01*
X239156548Y-82061606D01*
X239332867Y-82118896D01*
X239332871Y-82118897D01*
X239515993Y-82147901D01*
X239515996Y-82147901D01*
X239701405Y-82147901D01*
X239884526Y-82118897D01*
X239884530Y-82118896D01*
X240060849Y-82061606D01*
X240060851Y-82061604D01*
X240060856Y-82061603D01*
X240226053Y-81977431D01*
X240376049Y-81868453D01*
X240507151Y-81737351D01*
X240616129Y-81587355D01*
X240700301Y-81422158D01*
X240700302Y-81422153D01*
X240700304Y-81422151D01*
X240757594Y-81245832D01*
X240757595Y-81245828D01*
X240786599Y-81062707D01*
X240786599Y-80877294D01*
X240757595Y-80694173D01*
X240757594Y-80694169D01*
X240700304Y-80517850D01*
X240700302Y-80517847D01*
X240700301Y-80517846D01*
X240700301Y-80517844D01*
X240616129Y-80352647D01*
X240518105Y-80217728D01*
X240499199Y-80159539D01*
X240499199Y-77470992D01*
X240499198Y-77470989D01*
X240464978Y-77298949D01*
X240418285Y-77186223D01*
X240397852Y-77136892D01*
X240397846Y-77136880D01*
X240341944Y-77053219D01*
X240300396Y-76991038D01*
X234241698Y-70932341D01*
X234241697Y-70932339D01*
X234117661Y-70808303D01*
X234037978Y-70755061D01*
X233971807Y-70710847D01*
X233922597Y-70690464D01*
X233876071Y-70650728D01*
X233861787Y-70591233D01*
X233885202Y-70534705D01*
X233937371Y-70502735D01*
X233960482Y-70500000D01*
X235458992Y-70500000D01*
X235517183Y-70518907D01*
X235528996Y-70528996D01*
X237126081Y-72126081D01*
X237153858Y-72180598D01*
X237154455Y-72207168D01*
X237149500Y-72251147D01*
X237149500Y-72548865D01*
X237182831Y-72844671D01*
X237182832Y-72844677D01*
X237249076Y-73134912D01*
X237347398Y-73415899D01*
X237347399Y-73415901D01*
X237476557Y-73684102D01*
X237476561Y-73684109D01*
X237476565Y-73684117D01*
X237634950Y-73936185D01*
X237820562Y-74168934D01*
X238031066Y-74379438D01*
X238263815Y-74565050D01*
X238515883Y-74723435D01*
X238515894Y-74723440D01*
X238515897Y-74723442D01*
X238750572Y-74836455D01*
X238784099Y-74852601D01*
X238915270Y-74898499D01*
X239065087Y-74950923D01*
X239065090Y-74950923D01*
X239065091Y-74950924D01*
X239355325Y-75017168D01*
X239435096Y-75026156D01*
X239651134Y-75050499D01*
X239651150Y-75050499D01*
X239651151Y-75050500D01*
X239651152Y-75050500D01*
X239948841Y-75050500D01*
X239948849Y-75050500D01*
X239992829Y-75045544D01*
X240052769Y-75057816D01*
X240073917Y-75073917D01*
X242036678Y-77036678D01*
X242064455Y-77091195D01*
X242054884Y-77151627D01*
X242011619Y-77194892D01*
X241951187Y-77204463D01*
X241928789Y-77198146D01*
X241816898Y-77151800D01*
X241652508Y-77119100D01*
X241652506Y-77119100D01*
X241484894Y-77119100D01*
X241484891Y-77119100D01*
X241320502Y-77151800D01*
X241320500Y-77151800D01*
X241165652Y-77215939D01*
X241165641Y-77215945D01*
X241026283Y-77309063D01*
X241026279Y-77309066D01*
X240907766Y-77427579D01*
X240907763Y-77427583D01*
X240814645Y-77566941D01*
X240814639Y-77566952D01*
X240750500Y-77721800D01*
X240750500Y-77721802D01*
X240717800Y-77886191D01*
X240717800Y-78053808D01*
X240750500Y-78218197D01*
X240750500Y-78218199D01*
X240814639Y-78373047D01*
X240814645Y-78373058D01*
X240870667Y-78456899D01*
X240907763Y-78512417D01*
X241026283Y-78630937D01*
X241109369Y-78686453D01*
X241165641Y-78724054D01*
X241165652Y-78724060D01*
X241222854Y-78747753D01*
X241320502Y-78788200D01*
X241484894Y-78820900D01*
X241484895Y-78820900D01*
X241652505Y-78820900D01*
X241652506Y-78820900D01*
X241816898Y-78788200D01*
X241963116Y-78727634D01*
X242024111Y-78722834D01*
X242076280Y-78754804D01*
X242099695Y-78811332D01*
X242100000Y-78819099D01*
X242100000Y-92120900D01*
X242081093Y-92179091D01*
X242031593Y-92215055D01*
X241970407Y-92215055D01*
X241963115Y-92212364D01*
X241816898Y-92151800D01*
X241652508Y-92119100D01*
X241652506Y-92119100D01*
X241484894Y-92119100D01*
X241484891Y-92119100D01*
X241320502Y-92151800D01*
X241320500Y-92151800D01*
X241165652Y-92215939D01*
X241165641Y-92215945D01*
X241026283Y-92309063D01*
X241026279Y-92309066D01*
X240907766Y-92427579D01*
X240907763Y-92427583D01*
X240814645Y-92566941D01*
X240814639Y-92566952D01*
X240750500Y-92721800D01*
X240750500Y-92721802D01*
X240717800Y-92886191D01*
X240717800Y-93053808D01*
X240750500Y-93218197D01*
X240750500Y-93218199D01*
X240814639Y-93373047D01*
X240814645Y-93373058D01*
X240870667Y-93456899D01*
X240907763Y-93512417D01*
X241026283Y-93630937D01*
X241109369Y-93686453D01*
X241165641Y-93724054D01*
X241165652Y-93724060D01*
X241222854Y-93747753D01*
X241320502Y-93788200D01*
X241484894Y-93820900D01*
X241484895Y-93820900D01*
X241652505Y-93820900D01*
X241652506Y-93820900D01*
X241816898Y-93788200D01*
X241963116Y-93727634D01*
X242024111Y-93722834D01*
X242076280Y-93754804D01*
X242099695Y-93811332D01*
X242100000Y-93819099D01*
X242100000Y-152858991D01*
X242081093Y-152917182D01*
X242071004Y-152928995D01*
X241119296Y-153880702D01*
X241064779Y-153908479D01*
X241016594Y-153904142D01*
X240744912Y-153809076D01*
X240454677Y-153742832D01*
X240454671Y-153742831D01*
X240158865Y-153709500D01*
X240158849Y-153709500D01*
X239861151Y-153709500D01*
X239861134Y-153709500D01*
X239565328Y-153742831D01*
X239565322Y-153742832D01*
X239275087Y-153809076D01*
X238994100Y-153907398D01*
X238994097Y-153907399D01*
X238725897Y-154036557D01*
X238725884Y-154036564D01*
X238725883Y-154036565D01*
X238676759Y-154067432D01*
X238473814Y-154194950D01*
X238241062Y-154380565D01*
X238030565Y-154591062D01*
X237844950Y-154823814D01*
X237771312Y-154941009D01*
X237689948Y-155070500D01*
X237686564Y-155075885D01*
X237686557Y-155075897D01*
X237557399Y-155344097D01*
X237557398Y-155344100D01*
X237459076Y-155625087D01*
X237392832Y-155915322D01*
X237392831Y-155915328D01*
X237359500Y-156211134D01*
X237359500Y-156508865D01*
X237392831Y-156804671D01*
X237392832Y-156804677D01*
X237459076Y-157094912D01*
X237554142Y-157366594D01*
X237555515Y-157427764D01*
X237530702Y-157469296D01*
X235529007Y-159470992D01*
X235474490Y-159498769D01*
X235458975Y-159499988D01*
X145841966Y-159475011D01*
X145783781Y-159456087D01*
X145770827Y-159444832D01*
X145350785Y-159010471D01*
X145323925Y-158955496D01*
X145334508Y-158895233D01*
X145378491Y-158852700D01*
X145410869Y-158843272D01*
X145419549Y-158842294D01*
X145709783Y-158776050D01*
X145990775Y-158677727D01*
X146258991Y-158548561D01*
X146511059Y-158390176D01*
X146743808Y-158204564D01*
X146954312Y-157994060D01*
X147139924Y-157761311D01*
X147298309Y-157509243D01*
X147427475Y-157241027D01*
X147453661Y-157166191D01*
X204410400Y-157166191D01*
X204410400Y-157333808D01*
X204443100Y-157498197D01*
X204443100Y-157498199D01*
X204507239Y-157653047D01*
X204507245Y-157653058D01*
X204557230Y-157727864D01*
X204600363Y-157792417D01*
X204718883Y-157910937D01*
X204801969Y-157966453D01*
X204858241Y-158004054D01*
X204858252Y-158004060D01*
X204915454Y-158027753D01*
X205013102Y-158068200D01*
X205177494Y-158100900D01*
X205177495Y-158100900D01*
X205345105Y-158100900D01*
X205345106Y-158100900D01*
X205509498Y-158068200D01*
X205664352Y-158004058D01*
X205803717Y-157910937D01*
X205922237Y-157792417D01*
X206015358Y-157653052D01*
X206079500Y-157498198D01*
X206112200Y-157333806D01*
X206112200Y-157166194D01*
X206079500Y-157001802D01*
X206015358Y-156846948D01*
X206015357Y-156846946D01*
X206015354Y-156846941D01*
X205977753Y-156790669D01*
X205922237Y-156707583D01*
X205803717Y-156589063D01*
X205748199Y-156551967D01*
X205664358Y-156495945D01*
X205664347Y-156495939D01*
X205509498Y-156431800D01*
X205345108Y-156399100D01*
X205345106Y-156399100D01*
X205177494Y-156399100D01*
X205177491Y-156399100D01*
X205013102Y-156431800D01*
X205013100Y-156431800D01*
X204858252Y-156495939D01*
X204858241Y-156495945D01*
X204718883Y-156589063D01*
X204718879Y-156589066D01*
X204600366Y-156707579D01*
X204600363Y-156707583D01*
X204507245Y-156846941D01*
X204507239Y-156846952D01*
X204443100Y-157001800D01*
X204443100Y-157001802D01*
X204410400Y-157166191D01*
X147453661Y-157166191D01*
X147525798Y-156960035D01*
X147592042Y-156669801D01*
X147604026Y-156563438D01*
X147625373Y-156373991D01*
X147625374Y-156373974D01*
X147625374Y-156076277D01*
X147625373Y-156076260D01*
X147592042Y-155780454D01*
X147592041Y-155780448D01*
X147579704Y-155726398D01*
X147525798Y-155490217D01*
X147496957Y-155407795D01*
X147473373Y-155340396D01*
X147427475Y-155209225D01*
X147411329Y-155175698D01*
X147298316Y-154941023D01*
X147298314Y-154941020D01*
X147298309Y-154941009D01*
X147139924Y-154688941D01*
X146954312Y-154456192D01*
X146743808Y-154245688D01*
X146511059Y-154060076D01*
X146258991Y-153901691D01*
X146258983Y-153901687D01*
X146258976Y-153901683D01*
X146224989Y-153885316D01*
X151539500Y-153885316D01*
X151539500Y-155534683D01*
X151542357Y-155570991D01*
X151542358Y-155570996D01*
X151587507Y-155726398D01*
X151669880Y-155865683D01*
X151669881Y-155865684D01*
X151669883Y-155865687D01*
X151784313Y-155980117D01*
X151784315Y-155980118D01*
X151784316Y-155980119D01*
X151798415Y-155988457D01*
X151923605Y-156062494D01*
X152079008Y-156107643D01*
X152115311Y-156110500D01*
X153244688Y-156110499D01*
X153280992Y-156107643D01*
X153436395Y-156062494D01*
X153575687Y-155980117D01*
X153690117Y-155865687D01*
X153772494Y-155726395D01*
X153817643Y-155570992D01*
X153820500Y-155534689D01*
X153820499Y-154350989D01*
X154422000Y-154350989D01*
X154422000Y-154455999D01*
X154422001Y-154456000D01*
X155237749Y-154456000D01*
X155204755Y-154513147D01*
X155170000Y-154642857D01*
X155170000Y-154777143D01*
X155204755Y-154906853D01*
X155237749Y-154964000D01*
X154422001Y-154964000D01*
X154422000Y-154964001D01*
X154422000Y-155069010D01*
X154452974Y-155264577D01*
X154514166Y-155452904D01*
X154604060Y-155629334D01*
X154720450Y-155789530D01*
X154860469Y-155929549D01*
X155020665Y-156045939D01*
X155197095Y-156135833D01*
X155385424Y-156197025D01*
X155385420Y-156197025D01*
X155425999Y-156203451D01*
X155426000Y-156203450D01*
X155426000Y-155152250D01*
X155483147Y-155185245D01*
X155612857Y-155220000D01*
X155747143Y-155220000D01*
X155876853Y-155185245D01*
X155934000Y-155152250D01*
X155934000Y-156203451D01*
X155974577Y-156197025D01*
X156162904Y-156135833D01*
X156339334Y-156045939D01*
X156499530Y-155929549D01*
X156639549Y-155789530D01*
X156755939Y-155629334D01*
X156845833Y-155452904D01*
X156907025Y-155264577D01*
X156938000Y-155069010D01*
X156938000Y-154964001D01*
X156937999Y-154964000D01*
X156122251Y-154964000D01*
X156155245Y-154906853D01*
X156190000Y-154777143D01*
X156190000Y-154642857D01*
X156155245Y-154513147D01*
X156122251Y-154456000D01*
X156937999Y-154456000D01*
X156938000Y-154455999D01*
X156938000Y-154360237D01*
X157539500Y-154360237D01*
X157539500Y-155059762D01*
X157567581Y-155237063D01*
X157602360Y-155344100D01*
X157623057Y-155407800D01*
X157646039Y-155452904D01*
X157704556Y-155567751D01*
X157704558Y-155567755D01*
X157810070Y-155712980D01*
X157810072Y-155712982D01*
X157810075Y-155712986D01*
X157937014Y-155839925D01*
X157937017Y-155839927D01*
X157937019Y-155839929D01*
X158082244Y-155945441D01*
X158082248Y-155945443D01*
X158242200Y-156026943D01*
X158412932Y-156082417D01*
X158412933Y-156082417D01*
X158412936Y-156082418D01*
X158590238Y-156110500D01*
X158590241Y-156110500D01*
X158769762Y-156110500D01*
X158947063Y-156082418D01*
X158947064Y-156082417D01*
X158947068Y-156082417D01*
X159117800Y-156026943D01*
X159277752Y-155945443D01*
X159422986Y-155839925D01*
X159549925Y-155712986D01*
X159655443Y-155567752D01*
X159736943Y-155407800D01*
X159792417Y-155237068D01*
X159792418Y-155237063D01*
X159820500Y-155059762D01*
X159820500Y-154360237D01*
X159792418Y-154182936D01*
X159773948Y-154126089D01*
X159736943Y-154012200D01*
X159655443Y-153852248D01*
X159655441Y-153852244D01*
X159549929Y-153707019D01*
X159549927Y-153707017D01*
X159549925Y-153707014D01*
X159422986Y-153580075D01*
X159422982Y-153580072D01*
X159422980Y-153580070D01*
X159277755Y-153474558D01*
X159277751Y-153474556D01*
X159182744Y-153426148D01*
X159117800Y-153393057D01*
X159117797Y-153393056D01*
X159117795Y-153393055D01*
X158947063Y-153337581D01*
X158769762Y-153309500D01*
X158769759Y-153309500D01*
X158590241Y-153309500D01*
X158590238Y-153309500D01*
X158412936Y-153337581D01*
X158242204Y-153393055D01*
X158082248Y-153474556D01*
X158082244Y-153474558D01*
X157937019Y-153580070D01*
X157810070Y-153707019D01*
X157704558Y-153852244D01*
X157704556Y-153852248D01*
X157623055Y-154012204D01*
X157567581Y-154182936D01*
X157539500Y-154360237D01*
X156938000Y-154360237D01*
X156938000Y-154350989D01*
X156907025Y-154155422D01*
X156845833Y-153967095D01*
X156755939Y-153790665D01*
X156639549Y-153630469D01*
X156499530Y-153490450D01*
X156339334Y-153374060D01*
X156162904Y-153284166D01*
X155974579Y-153222976D01*
X155934000Y-153216548D01*
X155934000Y-154267749D01*
X155876853Y-154234755D01*
X155747143Y-154200000D01*
X155612857Y-154200000D01*
X155483147Y-154234755D01*
X155426000Y-154267749D01*
X155426000Y-153216548D01*
X155425999Y-153216548D01*
X155385420Y-153222976D01*
X155197095Y-153284166D01*
X155020665Y-153374060D01*
X154860469Y-153490450D01*
X154720450Y-153630469D01*
X154604060Y-153790665D01*
X154514166Y-153967095D01*
X154452974Y-154155422D01*
X154422000Y-154350989D01*
X153820499Y-154350989D01*
X153820499Y-153885312D01*
X153817643Y-153849008D01*
X153772494Y-153693605D01*
X153757472Y-153668205D01*
X153690119Y-153554316D01*
X153690118Y-153554315D01*
X153690117Y-153554313D01*
X153575687Y-153439883D01*
X153575684Y-153439881D01*
X153575683Y-153439880D01*
X153436397Y-153357507D01*
X153436396Y-153357506D01*
X153436395Y-153357506D01*
X153280992Y-153312357D01*
X153280991Y-153312356D01*
X153280988Y-153312356D01*
X153259494Y-153310665D01*
X153244689Y-153309500D01*
X153244683Y-153309500D01*
X152115316Y-153309500D01*
X152079008Y-153312357D01*
X152079003Y-153312358D01*
X151923601Y-153357507D01*
X151784316Y-153439880D01*
X151669880Y-153554316D01*
X151587507Y-153693601D01*
X151587507Y-153693602D01*
X151542358Y-153849004D01*
X151542356Y-153849011D01*
X151540470Y-153872972D01*
X151539888Y-153880389D01*
X151539500Y-153885316D01*
X146224989Y-153885316D01*
X145990776Y-153772525D01*
X145990773Y-153772524D01*
X145709786Y-153674202D01*
X145419551Y-153607958D01*
X145419545Y-153607957D01*
X145123739Y-153574626D01*
X145123723Y-153574626D01*
X144826025Y-153574626D01*
X144826008Y-153574626D01*
X144530202Y-153607957D01*
X144530196Y-153607958D01*
X144239961Y-153674202D01*
X143958974Y-153772524D01*
X143958971Y-153772525D01*
X143729889Y-153882845D01*
X143669258Y-153891058D01*
X143615378Y-153862064D01*
X143588831Y-153806938D01*
X143587936Y-153794000D01*
X143587628Y-153707019D01*
X143583950Y-152668694D01*
X148854500Y-152668694D01*
X148854500Y-152831305D01*
X148886224Y-152990790D01*
X148948450Y-153141018D01*
X149001431Y-153220311D01*
X149038792Y-153276225D01*
X149153775Y-153391208D01*
X149288979Y-153481548D01*
X149439211Y-153543776D01*
X149598695Y-153575500D01*
X149598696Y-153575500D01*
X149761304Y-153575500D01*
X149761305Y-153575500D01*
X149920789Y-153543776D01*
X150071021Y-153481548D01*
X150206225Y-153391208D01*
X150321208Y-153276225D01*
X150411548Y-153141021D01*
X150473776Y-152990789D01*
X150505500Y-152831305D01*
X150505500Y-152668695D01*
X150505500Y-152668694D01*
X160854500Y-152668694D01*
X160854500Y-152831305D01*
X160886224Y-152990790D01*
X160948450Y-153141018D01*
X161001431Y-153220311D01*
X161038792Y-153276225D01*
X161153775Y-153391208D01*
X161288979Y-153481548D01*
X161439211Y-153543776D01*
X161598695Y-153575500D01*
X161598696Y-153575500D01*
X161761304Y-153575500D01*
X161761305Y-153575500D01*
X161920789Y-153543776D01*
X162071021Y-153481548D01*
X162206225Y-153391208D01*
X162321208Y-153276225D01*
X162411548Y-153141021D01*
X162473776Y-152990789D01*
X162505500Y-152831305D01*
X162505500Y-152668695D01*
X162473776Y-152509211D01*
X162424046Y-152389151D01*
X162411549Y-152358981D01*
X162379388Y-152310849D01*
X162321208Y-152223775D01*
X162206225Y-152108792D01*
X162180637Y-152091695D01*
X162071018Y-152018450D01*
X161920790Y-151956224D01*
X161761305Y-151924500D01*
X161598695Y-151924500D01*
X161598694Y-151924500D01*
X161439209Y-151956224D01*
X161288981Y-152018450D01*
X161153778Y-152108789D01*
X161038789Y-152223778D01*
X160948450Y-152358981D01*
X160886224Y-152509209D01*
X160854500Y-152668694D01*
X150505500Y-152668694D01*
X150473776Y-152509211D01*
X150424046Y-152389151D01*
X150411549Y-152358981D01*
X150379388Y-152310849D01*
X150321208Y-152223775D01*
X150206225Y-152108792D01*
X150180637Y-152091695D01*
X150071018Y-152018450D01*
X149920790Y-151956224D01*
X149761305Y-151924500D01*
X149598695Y-151924500D01*
X149598694Y-151924500D01*
X149439209Y-151956224D01*
X149288981Y-152018450D01*
X149153778Y-152108789D01*
X149038789Y-152223778D01*
X148948450Y-152358981D01*
X148886224Y-152509209D01*
X148854500Y-152668694D01*
X143583950Y-152668694D01*
X143580062Y-151570886D01*
X163219500Y-151570886D01*
X163219500Y-151829113D01*
X163259892Y-152084146D01*
X163339689Y-152329734D01*
X163454798Y-152555651D01*
X163456918Y-152559810D01*
X163608696Y-152768714D01*
X163791286Y-152951304D01*
X164000190Y-153103082D01*
X164230266Y-153220311D01*
X164475849Y-153300106D01*
X164475850Y-153300106D01*
X164475853Y-153300107D01*
X164730887Y-153340500D01*
X164730890Y-153340500D01*
X164989113Y-153340500D01*
X165244146Y-153300107D01*
X165244147Y-153300106D01*
X165244151Y-153300106D01*
X165489734Y-153220311D01*
X165719810Y-153103082D01*
X165844774Y-153012290D01*
X166539500Y-153012290D01*
X166539500Y-153187709D01*
X166545985Y-153220310D01*
X166569834Y-153340210D01*
X166573721Y-153359748D01*
X166573721Y-153359750D01*
X166640847Y-153521807D01*
X166716876Y-153635594D01*
X166738303Y-153667661D01*
X166862339Y-153791697D01*
X167008190Y-153889151D01*
X167170251Y-153956279D01*
X167342293Y-153990500D01*
X167342294Y-153990500D01*
X167517706Y-153990500D01*
X167517707Y-153990500D01*
X167689749Y-153956279D01*
X167851810Y-153889151D01*
X167997661Y-153791697D01*
X168121697Y-153667661D01*
X168219151Y-153521810D01*
X168286279Y-153359749D01*
X168320500Y-153187707D01*
X168320500Y-153012293D01*
X168320499Y-153012290D01*
X168539500Y-153012290D01*
X168539500Y-153187709D01*
X168545985Y-153220310D01*
X168569834Y-153340210D01*
X168573721Y-153359748D01*
X168573721Y-153359750D01*
X168640847Y-153521807D01*
X168716876Y-153635594D01*
X168738303Y-153667661D01*
X168862339Y-153791697D01*
X169008190Y-153889151D01*
X169170251Y-153956279D01*
X169342293Y-153990500D01*
X169342294Y-153990500D01*
X169517706Y-153990500D01*
X169517707Y-153990500D01*
X169617722Y-153970606D01*
X170918603Y-153970606D01*
X170952535Y-153993279D01*
X171135976Y-154069262D01*
X171330718Y-154107999D01*
X171330722Y-154108000D01*
X171529278Y-154108000D01*
X171529281Y-154107999D01*
X171724022Y-154069262D01*
X171724024Y-154069262D01*
X171907465Y-153993279D01*
X171907467Y-153993278D01*
X171941395Y-153970606D01*
X171429999Y-153459210D01*
X170918603Y-153970606D01*
X169617722Y-153970606D01*
X169689749Y-153956279D01*
X169851810Y-153889151D01*
X169997661Y-153791697D01*
X170121697Y-153667661D01*
X170219151Y-153521810D01*
X170275101Y-153386734D01*
X170314836Y-153340210D01*
X170374331Y-153325926D01*
X170430859Y-153349340D01*
X170457518Y-153390092D01*
X170458876Y-153389530D01*
X170536720Y-153577464D01*
X170559392Y-153611395D01*
X171080000Y-153090788D01*
X171080000Y-153146078D01*
X171103852Y-153235095D01*
X171149930Y-153314905D01*
X171215095Y-153380070D01*
X171294905Y-153426148D01*
X171383922Y-153450000D01*
X171476078Y-153450000D01*
X171565095Y-153426148D01*
X171644905Y-153380070D01*
X171710070Y-153314905D01*
X171756148Y-153235095D01*
X171780000Y-153146078D01*
X171780000Y-153090789D01*
X172300606Y-153611395D01*
X172323278Y-153577467D01*
X172323279Y-153577465D01*
X172401124Y-153389530D01*
X172402681Y-153390175D01*
X172433669Y-153345697D01*
X172491473Y-153325640D01*
X172550027Y-153343391D01*
X172584899Y-153386735D01*
X172640848Y-153521809D01*
X172738300Y-153667657D01*
X172738303Y-153667661D01*
X172862339Y-153791697D01*
X173008190Y-153889151D01*
X173170251Y-153956279D01*
X173342293Y-153990500D01*
X173342294Y-153990500D01*
X173517706Y-153990500D01*
X173517707Y-153990500D01*
X173689749Y-153956279D01*
X173851810Y-153889151D01*
X173997661Y-153791697D01*
X174121697Y-153667661D01*
X174219151Y-153521810D01*
X174286279Y-153359749D01*
X174320500Y-153187707D01*
X174320500Y-153012293D01*
X174286279Y-152840251D01*
X174248896Y-152750000D01*
X174219152Y-152678192D01*
X174212806Y-152668695D01*
X174121697Y-152532339D01*
X173997661Y-152408303D01*
X173996088Y-152407252D01*
X173851807Y-152310847D01*
X173689749Y-152243721D01*
X173517709Y-152209500D01*
X173517707Y-152209500D01*
X173342293Y-152209500D01*
X173342289Y-152209500D01*
X173290057Y-152219890D01*
X173229295Y-152212698D01*
X173184366Y-152171165D01*
X173172429Y-152111155D01*
X173188428Y-152067790D01*
X173219151Y-152021810D01*
X173286279Y-151859749D01*
X173320500Y-151687707D01*
X173320500Y-151512293D01*
X173320499Y-151512290D01*
X174039500Y-151512290D01*
X174039500Y-151687709D01*
X174051346Y-151747262D01*
X174068922Y-151835625D01*
X174073721Y-151859748D01*
X174073721Y-151859750D01*
X174140847Y-152021807D01*
X174227897Y-152152088D01*
X174238303Y-152167661D01*
X174362339Y-152291697D01*
X174508190Y-152389151D01*
X174508191Y-152389151D01*
X174508192Y-152389152D01*
X174554420Y-152408300D01*
X174651906Y-152448680D01*
X174698432Y-152488416D01*
X174712716Y-152547911D01*
X174696337Y-152595145D01*
X174640847Y-152678192D01*
X174573721Y-152840249D01*
X174573721Y-152840251D01*
X174539500Y-153012290D01*
X174539500Y-153187709D01*
X174545985Y-153220310D01*
X174569834Y-153340210D01*
X174573721Y-153359748D01*
X174573721Y-153359750D01*
X174640847Y-153521807D01*
X174716876Y-153635594D01*
X174738303Y-153667661D01*
X174862339Y-153791697D01*
X175008190Y-153889151D01*
X175170251Y-153956279D01*
X175342293Y-153990500D01*
X175342294Y-153990500D01*
X175517706Y-153990500D01*
X175517707Y-153990500D01*
X175689749Y-153956279D01*
X175851810Y-153889151D01*
X175997661Y-153791697D01*
X176121697Y-153667661D01*
X176219151Y-153521810D01*
X176286279Y-153359749D01*
X176320500Y-153187707D01*
X176320500Y-153012293D01*
X176286279Y-152840251D01*
X176248896Y-152750000D01*
X176219152Y-152678192D01*
X176212806Y-152668695D01*
X176121697Y-152532339D01*
X175997661Y-152408303D01*
X175997657Y-152408300D01*
X175851809Y-152310848D01*
X175708092Y-152251319D01*
X175661567Y-152211582D01*
X175647283Y-152152088D01*
X175663662Y-152104855D01*
X175719151Y-152021810D01*
X175786279Y-151859749D01*
X175820500Y-151687707D01*
X175820500Y-151570886D01*
X176359500Y-151570886D01*
X176359500Y-151829113D01*
X176399892Y-152084146D01*
X176479689Y-152329734D01*
X176594798Y-152555651D01*
X176596918Y-152559810D01*
X176748696Y-152768714D01*
X176931286Y-152951304D01*
X177140190Y-153103082D01*
X177370266Y-153220311D01*
X177615849Y-153300106D01*
X177615850Y-153300106D01*
X177615853Y-153300107D01*
X177870887Y-153340500D01*
X177870890Y-153340500D01*
X178129113Y-153340500D01*
X178384146Y-153300107D01*
X178384147Y-153300106D01*
X178384151Y-153300106D01*
X178629734Y-153220311D01*
X178859810Y-153103082D01*
X179068714Y-152951304D01*
X179251304Y-152768714D01*
X179403082Y-152559810D01*
X179520311Y-152329734D01*
X179600106Y-152084151D01*
X179601165Y-152077465D01*
X179640500Y-151829113D01*
X179640500Y-151570886D01*
X179600107Y-151315853D01*
X179596898Y-151305977D01*
X179520311Y-151070266D01*
X179403082Y-150840190D01*
X179251304Y-150631286D01*
X179068714Y-150448696D01*
X178859810Y-150296918D01*
X178859809Y-150296917D01*
X178859807Y-150296916D01*
X178629734Y-150179689D01*
X178384146Y-150099892D01*
X178129113Y-150059500D01*
X178129110Y-150059500D01*
X177870890Y-150059500D01*
X177870887Y-150059500D01*
X177615853Y-150099892D01*
X177370265Y-150179689D01*
X177140192Y-150296916D01*
X176931287Y-150448695D01*
X176748695Y-150631287D01*
X176596916Y-150840192D01*
X176479689Y-151070265D01*
X176399892Y-151315853D01*
X176359500Y-151570886D01*
X175820500Y-151570886D01*
X175820500Y-151512293D01*
X175786279Y-151340251D01*
X175745080Y-151240788D01*
X175719152Y-151178192D01*
X175699009Y-151148046D01*
X175621697Y-151032339D01*
X175497661Y-150908303D01*
X175351810Y-150810849D01*
X175351809Y-150810848D01*
X175351807Y-150810847D01*
X175189749Y-150743721D01*
X175017709Y-150709500D01*
X175017707Y-150709500D01*
X174842293Y-150709500D01*
X174842290Y-150709500D01*
X174670251Y-150743721D01*
X174670249Y-150743721D01*
X174508192Y-150810847D01*
X174362342Y-150908300D01*
X174238300Y-151032342D01*
X174140847Y-151178192D01*
X174073721Y-151340249D01*
X174073721Y-151340251D01*
X174039500Y-151512290D01*
X173320499Y-151512290D01*
X173286279Y-151340251D01*
X173245080Y-151240788D01*
X173219152Y-151178192D01*
X173199009Y-151148046D01*
X173121697Y-151032339D01*
X172997661Y-150908303D01*
X172851810Y-150810849D01*
X172851809Y-150810848D01*
X172851807Y-150810847D01*
X172689749Y-150743721D01*
X172517709Y-150709500D01*
X172517707Y-150709500D01*
X172342293Y-150709500D01*
X172342290Y-150709500D01*
X172170251Y-150743721D01*
X172170249Y-150743721D01*
X172008192Y-150810847D01*
X171862342Y-150908300D01*
X171738300Y-151032342D01*
X171640847Y-151178192D01*
X171573721Y-151340249D01*
X171573721Y-151340251D01*
X171539500Y-151512290D01*
X171539500Y-151687709D01*
X171573720Y-151859747D01*
X171573721Y-151859749D01*
X171611104Y-151950000D01*
X171613223Y-151955114D01*
X171613539Y-151959139D01*
X171615914Y-151962407D01*
X171615914Y-151989303D01*
X171618024Y-152016111D01*
X171615914Y-152019554D01*
X171615914Y-152023593D01*
X171600102Y-152045355D01*
X171586054Y-152068280D01*
X171582324Y-152069824D01*
X171579950Y-152073093D01*
X171554368Y-152081404D01*
X171529526Y-152091695D01*
X171521759Y-152092000D01*
X171338241Y-152092000D01*
X171280050Y-152073093D01*
X171244086Y-152023593D01*
X171244086Y-151962407D01*
X171246777Y-151955114D01*
X171286279Y-151859749D01*
X171320500Y-151687707D01*
X171320500Y-151512293D01*
X171286279Y-151340251D01*
X171245080Y-151240788D01*
X171219152Y-151178192D01*
X171199009Y-151148046D01*
X171121697Y-151032339D01*
X170997661Y-150908303D01*
X170851810Y-150810849D01*
X170851809Y-150810848D01*
X170851807Y-150810847D01*
X170689749Y-150743721D01*
X170517709Y-150709500D01*
X170517707Y-150709500D01*
X170342293Y-150709500D01*
X170342290Y-150709500D01*
X170170251Y-150743721D01*
X170170249Y-150743721D01*
X170008192Y-150810847D01*
X169862342Y-150908300D01*
X169738300Y-151032342D01*
X169640847Y-151178192D01*
X169573721Y-151340249D01*
X169573721Y-151340251D01*
X169539500Y-151512290D01*
X169539500Y-151687709D01*
X169551346Y-151747262D01*
X169568922Y-151835625D01*
X169573721Y-151859748D01*
X169573721Y-151859750D01*
X169640847Y-152021807D01*
X169671572Y-152067791D01*
X169688180Y-152126680D01*
X169667002Y-152184083D01*
X169616128Y-152218075D01*
X169569942Y-152219890D01*
X169517709Y-152209500D01*
X169517707Y-152209500D01*
X169342293Y-152209500D01*
X169342290Y-152209500D01*
X169170251Y-152243721D01*
X169170249Y-152243721D01*
X169008192Y-152310847D01*
X168862342Y-152408300D01*
X168738300Y-152532342D01*
X168640847Y-152678192D01*
X168573721Y-152840249D01*
X168573721Y-152840251D01*
X168539500Y-153012290D01*
X168320499Y-153012290D01*
X168286279Y-152840251D01*
X168219237Y-152678399D01*
X168214437Y-152617404D01*
X168246407Y-152565235D01*
X168272817Y-152549051D01*
X168407465Y-152493279D01*
X168407467Y-152493278D01*
X168441395Y-152470606D01*
X167920790Y-151950000D01*
X167976078Y-151950000D01*
X168065095Y-151926148D01*
X168144905Y-151880070D01*
X168210070Y-151814905D01*
X168256148Y-151735095D01*
X168280000Y-151646078D01*
X168280000Y-151599999D01*
X168289210Y-151599999D01*
X168800606Y-152111395D01*
X168823278Y-152077467D01*
X168823279Y-152077465D01*
X168899262Y-151894024D01*
X168899262Y-151894022D01*
X168937999Y-151699281D01*
X168938000Y-151699277D01*
X168938000Y-151500722D01*
X168937999Y-151500718D01*
X168899262Y-151305977D01*
X168899262Y-151305975D01*
X168823279Y-151122535D01*
X168800606Y-151088603D01*
X168289210Y-151599999D01*
X168280000Y-151599999D01*
X168280000Y-151553922D01*
X168256148Y-151464905D01*
X168210070Y-151385095D01*
X168144905Y-151319930D01*
X168065095Y-151273852D01*
X167976078Y-151250000D01*
X167883922Y-151250000D01*
X167794905Y-151273852D01*
X167715095Y-151319930D01*
X167649930Y-151385095D01*
X167603852Y-151464905D01*
X167580000Y-151553922D01*
X167580000Y-151609210D01*
X167059392Y-151088603D01*
X167036720Y-151122535D01*
X166960737Y-151305975D01*
X166960737Y-151305977D01*
X166922000Y-151500718D01*
X166922000Y-151699281D01*
X166960737Y-151894022D01*
X166960737Y-151894024D01*
X167036719Y-152077462D01*
X167036725Y-152077474D01*
X167085654Y-152150699D01*
X167102263Y-152209587D01*
X167081086Y-152266991D01*
X167041225Y-152297165D01*
X167008190Y-152310848D01*
X166862342Y-152408300D01*
X166738300Y-152532342D01*
X166640847Y-152678192D01*
X166573721Y-152840249D01*
X166573721Y-152840251D01*
X166539500Y-153012290D01*
X165844774Y-153012290D01*
X165928714Y-152951304D01*
X166111304Y-152768714D01*
X166263082Y-152559810D01*
X166380311Y-152329734D01*
X166460106Y-152084151D01*
X166461165Y-152077465D01*
X166500500Y-151829113D01*
X166500500Y-151570886D01*
X166460107Y-151315853D01*
X166456898Y-151305977D01*
X166380311Y-151070266D01*
X166263082Y-150840190D01*
X166182582Y-150729392D01*
X167418603Y-150729392D01*
X167929999Y-151240788D01*
X168441395Y-150729392D01*
X168407464Y-150706720D01*
X168224023Y-150630737D01*
X168029281Y-150592000D01*
X167830718Y-150592000D01*
X167635977Y-150630737D01*
X167635975Y-150630737D01*
X167452535Y-150706720D01*
X167418603Y-150729392D01*
X166182582Y-150729392D01*
X166111304Y-150631286D01*
X165928714Y-150448696D01*
X165719810Y-150296918D01*
X165719809Y-150296917D01*
X165719807Y-150296916D01*
X165489734Y-150179689D01*
X165244146Y-150099892D01*
X164989113Y-150059500D01*
X164989110Y-150059500D01*
X164730890Y-150059500D01*
X164730887Y-150059500D01*
X164475853Y-150099892D01*
X164230265Y-150179689D01*
X164000192Y-150296916D01*
X163791287Y-150448695D01*
X163608695Y-150631287D01*
X163456916Y-150840192D01*
X163339689Y-151070265D01*
X163259892Y-151315853D01*
X163219500Y-151570886D01*
X143580062Y-151570886D01*
X143574139Y-149898694D01*
X148874500Y-149898694D01*
X148874500Y-150061305D01*
X148906224Y-150220790D01*
X148968450Y-150371018D01*
X149020352Y-150448696D01*
X149058792Y-150506225D01*
X149173775Y-150621208D01*
X149308979Y-150711548D01*
X149308980Y-150711548D01*
X149308981Y-150711549D01*
X149352058Y-150729392D01*
X149459211Y-150773776D01*
X149618695Y-150805500D01*
X149618696Y-150805500D01*
X149781304Y-150805500D01*
X149781305Y-150805500D01*
X149940789Y-150773776D01*
X150091021Y-150711548D01*
X150226225Y-150621208D01*
X150341208Y-150506225D01*
X150431548Y-150371021D01*
X150493776Y-150220789D01*
X150525500Y-150061305D01*
X150525500Y-149898695D01*
X150525500Y-149898694D01*
X160874500Y-149898694D01*
X160874500Y-150061305D01*
X160906224Y-150220790D01*
X160968450Y-150371018D01*
X161020352Y-150448696D01*
X161058792Y-150506225D01*
X161173775Y-150621208D01*
X161308979Y-150711548D01*
X161308980Y-150711548D01*
X161308981Y-150711549D01*
X161352058Y-150729392D01*
X161459211Y-150773776D01*
X161618695Y-150805500D01*
X161618696Y-150805500D01*
X161781304Y-150805500D01*
X161781305Y-150805500D01*
X161940789Y-150773776D01*
X162091021Y-150711548D01*
X162226225Y-150621208D01*
X162341208Y-150506225D01*
X162431548Y-150371021D01*
X162493776Y-150220789D01*
X162525500Y-150061305D01*
X162525500Y-149898695D01*
X162493776Y-149739211D01*
X162431548Y-149588979D01*
X162341208Y-149453775D01*
X162226225Y-149338792D01*
X162223459Y-149336944D01*
X162091018Y-149248450D01*
X161940790Y-149186224D01*
X161781305Y-149154500D01*
X161618695Y-149154500D01*
X161618694Y-149154500D01*
X161459209Y-149186224D01*
X161308981Y-149248450D01*
X161173778Y-149338789D01*
X161058789Y-149453778D01*
X160968450Y-149588981D01*
X160906224Y-149739209D01*
X160874500Y-149898694D01*
X150525500Y-149898694D01*
X150493776Y-149739211D01*
X150431548Y-149588979D01*
X150341208Y-149453775D01*
X150226225Y-149338792D01*
X150223459Y-149336944D01*
X150091018Y-149248450D01*
X149940790Y-149186224D01*
X149781305Y-149154500D01*
X149618695Y-149154500D01*
X149618694Y-149154500D01*
X149459209Y-149186224D01*
X149308981Y-149248450D01*
X149173778Y-149338789D01*
X149058789Y-149453778D01*
X148968450Y-149588981D01*
X148906224Y-149739209D01*
X148874500Y-149898694D01*
X143574139Y-149898694D01*
X143566246Y-147670237D01*
X151559500Y-147670237D01*
X151559500Y-148369762D01*
X151587581Y-148547063D01*
X151629744Y-148676826D01*
X151643057Y-148717800D01*
X151658069Y-148747262D01*
X151724556Y-148877751D01*
X151724558Y-148877755D01*
X151830070Y-149022980D01*
X151830072Y-149022982D01*
X151830075Y-149022986D01*
X151957014Y-149149925D01*
X151957017Y-149149927D01*
X151957019Y-149149929D01*
X152102244Y-149255441D01*
X152102248Y-149255443D01*
X152262200Y-149336943D01*
X152432932Y-149392417D01*
X152432933Y-149392417D01*
X152432936Y-149392418D01*
X152610238Y-149420500D01*
X152610241Y-149420500D01*
X152789762Y-149420500D01*
X152967063Y-149392418D01*
X152967064Y-149392417D01*
X152967068Y-149392417D01*
X153137800Y-149336943D01*
X153297752Y-149255443D01*
X153307375Y-149248452D01*
X153442980Y-149149929D01*
X153442986Y-149149925D01*
X153569925Y-149022986D01*
X153675443Y-148877752D01*
X153756943Y-148717800D01*
X153812417Y-148547068D01*
X153812418Y-148547063D01*
X153840500Y-148369762D01*
X153840500Y-147670236D01*
X153840499Y-147670233D01*
X153839035Y-147660989D01*
X154442000Y-147660989D01*
X154442000Y-147765999D01*
X154442001Y-147766000D01*
X155257749Y-147766000D01*
X155224755Y-147823147D01*
X155190000Y-147952857D01*
X155190000Y-148087143D01*
X155224755Y-148216853D01*
X155257749Y-148274000D01*
X154442001Y-148274000D01*
X154442000Y-148274001D01*
X154442000Y-148379010D01*
X154472974Y-148574577D01*
X154534166Y-148762904D01*
X154624060Y-148939334D01*
X154740450Y-149099530D01*
X154880469Y-149239549D01*
X155040665Y-149355939D01*
X155217095Y-149445833D01*
X155405424Y-149507025D01*
X155405420Y-149507025D01*
X155445999Y-149513451D01*
X155446000Y-149513450D01*
X155446000Y-148462250D01*
X155503147Y-148495245D01*
X155632857Y-148530000D01*
X155767143Y-148530000D01*
X155896853Y-148495245D01*
X155954000Y-148462250D01*
X155954000Y-149513451D01*
X155994577Y-149507025D01*
X156182904Y-149445833D01*
X156359334Y-149355939D01*
X156519530Y-149239549D01*
X156659549Y-149099530D01*
X156775939Y-148939334D01*
X156865833Y-148762904D01*
X156927025Y-148574577D01*
X156958000Y-148379010D01*
X156958000Y-148274001D01*
X156957999Y-148274000D01*
X156142251Y-148274000D01*
X156175245Y-148216853D01*
X156210000Y-148087143D01*
X156210000Y-147952857D01*
X156175245Y-147823147D01*
X156142251Y-147766000D01*
X156957999Y-147766000D01*
X156958000Y-147765999D01*
X156958000Y-147660989D01*
X156927025Y-147465422D01*
X156865832Y-147277092D01*
X156846074Y-147238313D01*
X156846073Y-147238312D01*
X156824165Y-147195316D01*
X157559500Y-147195316D01*
X157559500Y-148844683D01*
X157562357Y-148880991D01*
X157562358Y-148880996D01*
X157607507Y-149036398D01*
X157689880Y-149175683D01*
X157689881Y-149175684D01*
X157689883Y-149175687D01*
X157804313Y-149290117D01*
X157943605Y-149372494D01*
X158099008Y-149417643D01*
X158135311Y-149420500D01*
X159264688Y-149420499D01*
X159300992Y-149417643D01*
X159456395Y-149372494D01*
X159595687Y-149290117D01*
X159710117Y-149175687D01*
X159792494Y-149036395D01*
X159837643Y-148880992D01*
X159840500Y-148844689D01*
X159840499Y-147195312D01*
X159837643Y-147159008D01*
X159792494Y-147003605D01*
X159760305Y-146949177D01*
X159710119Y-146864316D01*
X159710118Y-146864315D01*
X159710117Y-146864313D01*
X159595687Y-146749883D01*
X159595684Y-146749881D01*
X159595683Y-146749880D01*
X159456397Y-146667507D01*
X159456396Y-146667506D01*
X159456395Y-146667506D01*
X159300992Y-146622357D01*
X159300991Y-146622356D01*
X159300988Y-146622356D01*
X159279494Y-146620665D01*
X159264689Y-146619500D01*
X159264683Y-146619500D01*
X158135316Y-146619500D01*
X158099008Y-146622357D01*
X158099003Y-146622358D01*
X157943601Y-146667507D01*
X157804316Y-146749880D01*
X157689880Y-146864316D01*
X157607507Y-147003601D01*
X157607507Y-147003602D01*
X157562358Y-147159004D01*
X157562356Y-147159011D01*
X157559500Y-147195316D01*
X156824165Y-147195316D01*
X156775939Y-147100666D01*
X156659549Y-146940469D01*
X156519530Y-146800450D01*
X156359334Y-146684060D01*
X156182904Y-146594166D01*
X155994579Y-146532976D01*
X155954000Y-146526548D01*
X155954000Y-147577749D01*
X155896853Y-147544755D01*
X155767143Y-147510000D01*
X155632857Y-147510000D01*
X155503147Y-147544755D01*
X155446000Y-147577749D01*
X155446000Y-146526548D01*
X155445999Y-146526548D01*
X155405420Y-146532976D01*
X155217095Y-146594166D01*
X155040665Y-146684060D01*
X154880469Y-146800450D01*
X154740450Y-146940469D01*
X154624060Y-147100665D01*
X154534166Y-147277095D01*
X154472974Y-147465422D01*
X154442000Y-147660989D01*
X153839035Y-147660989D01*
X153812418Y-147492936D01*
X153756944Y-147322204D01*
X153756943Y-147322200D01*
X153675443Y-147162248D01*
X153675441Y-147162244D01*
X153569929Y-147017019D01*
X153569927Y-147017017D01*
X153569925Y-147017014D01*
X153442986Y-146890075D01*
X153442982Y-146890072D01*
X153442980Y-146890070D01*
X153297755Y-146784558D01*
X153297751Y-146784556D01*
X153222177Y-146746049D01*
X153137800Y-146703057D01*
X153137797Y-146703056D01*
X153137795Y-146703055D01*
X152967063Y-146647581D01*
X152789762Y-146619500D01*
X152789759Y-146619500D01*
X152610241Y-146619500D01*
X152610238Y-146619500D01*
X152432936Y-146647581D01*
X152262204Y-146703055D01*
X152102248Y-146784556D01*
X152102244Y-146784558D01*
X151957019Y-146890070D01*
X151830070Y-147017019D01*
X151724558Y-147162244D01*
X151724556Y-147162248D01*
X151643055Y-147322204D01*
X151587581Y-147492936D01*
X151559500Y-147670237D01*
X143566246Y-147670237D01*
X143472947Y-121328686D01*
X159449500Y-121328686D01*
X159449500Y-121671313D01*
X159487860Y-122011781D01*
X159564103Y-122345820D01*
X159677263Y-122669213D01*
X159677264Y-122669215D01*
X159825916Y-122977895D01*
X159825920Y-122977902D01*
X159825924Y-122977910D01*
X160008211Y-123268018D01*
X160221834Y-123535893D01*
X160464107Y-123778166D01*
X160731982Y-123991789D01*
X161022090Y-124174076D01*
X161022101Y-124174081D01*
X161022104Y-124174083D01*
X161124660Y-124223471D01*
X161330785Y-124322736D01*
X161481753Y-124375561D01*
X161654179Y-124435896D01*
X161654182Y-124435896D01*
X161654183Y-124435897D01*
X161988217Y-124512139D01*
X162328688Y-124550500D01*
X162328689Y-124550500D01*
X162671311Y-124550500D01*
X162671312Y-124550500D01*
X163011783Y-124512139D01*
X163345817Y-124435897D01*
X163669215Y-124322736D01*
X163977910Y-124174076D01*
X164268018Y-123991789D01*
X164535893Y-123778166D01*
X164778166Y-123535893D01*
X164991789Y-123268018D01*
X165174076Y-122977910D01*
X165322736Y-122669215D01*
X165435897Y-122345817D01*
X165512139Y-122011783D01*
X165550500Y-121671312D01*
X165550500Y-121328688D01*
X165512139Y-120988217D01*
X165435897Y-120654183D01*
X165322736Y-120330785D01*
X165174076Y-120022090D01*
X164991789Y-119731982D01*
X164778166Y-119464107D01*
X164535893Y-119221834D01*
X164268018Y-119008211D01*
X163977910Y-118825924D01*
X163977902Y-118825920D01*
X163977895Y-118825916D01*
X163669215Y-118677264D01*
X163669213Y-118677263D01*
X163345820Y-118564103D01*
X163011781Y-118487860D01*
X162671313Y-118449500D01*
X162671312Y-118449500D01*
X162328688Y-118449500D01*
X162328686Y-118449500D01*
X161988218Y-118487860D01*
X161654179Y-118564103D01*
X161330786Y-118677263D01*
X161330784Y-118677264D01*
X161022104Y-118825916D01*
X161022092Y-118825923D01*
X160731981Y-119008211D01*
X160464108Y-119221833D01*
X160221833Y-119464108D01*
X160008211Y-119731981D01*
X159825923Y-120022092D01*
X159825916Y-120022104D01*
X159677264Y-120330784D01*
X159677263Y-120330786D01*
X159564103Y-120654179D01*
X159487860Y-120988218D01*
X159449500Y-121328686D01*
X143472947Y-121328686D01*
X143377707Y-94439376D01*
X147424500Y-94439376D01*
X147424500Y-94560623D01*
X147448153Y-94679534D01*
X147448153Y-94679536D01*
X147494549Y-94791546D01*
X147494549Y-94791547D01*
X147508255Y-94812059D01*
X147561910Y-94892358D01*
X147647642Y-94978090D01*
X147748451Y-95045449D01*
X147860465Y-95091847D01*
X147979379Y-95115500D01*
X147979380Y-95115500D01*
X148100620Y-95115500D01*
X148100621Y-95115500D01*
X148219535Y-95091847D01*
X148331549Y-95045449D01*
X148432358Y-94978090D01*
X148518090Y-94892358D01*
X148585449Y-94791549D01*
X148631847Y-94679535D01*
X148645283Y-94611983D01*
X148672375Y-94561295D01*
X150980176Y-92253496D01*
X151034693Y-92225719D01*
X151050180Y-92224500D01*
X163109820Y-92224500D01*
X163168011Y-92243407D01*
X163179824Y-92253496D01*
X164157622Y-93231294D01*
X164184715Y-93281982D01*
X164198153Y-93349535D01*
X164198153Y-93349536D01*
X164198154Y-93349538D01*
X164244550Y-93461548D01*
X164278540Y-93512416D01*
X164311910Y-93562358D01*
X164397642Y-93648090D01*
X164498451Y-93715449D01*
X164610465Y-93761847D01*
X164729379Y-93785500D01*
X164729380Y-93785500D01*
X164850620Y-93785500D01*
X164850621Y-93785500D01*
X164969535Y-93761847D01*
X165081549Y-93715449D01*
X165182358Y-93648090D01*
X165268090Y-93562358D01*
X165335449Y-93461549D01*
X165381847Y-93349535D01*
X165405500Y-93230621D01*
X165405500Y-93109379D01*
X165381847Y-92990465D01*
X165335450Y-92878453D01*
X165335450Y-92878452D01*
X165268090Y-92777642D01*
X165182357Y-92691909D01*
X165081548Y-92624550D01*
X164969538Y-92578154D01*
X164969536Y-92578153D01*
X164969535Y-92578153D01*
X164901982Y-92564715D01*
X164851294Y-92537622D01*
X164259171Y-91945499D01*
X163655174Y-91341502D01*
X163655171Y-91341500D01*
X163655170Y-91341499D01*
X163655169Y-91341498D01*
X163543329Y-91276927D01*
X163543331Y-91276927D01*
X163494927Y-91263957D01*
X163418576Y-91243500D01*
X150870576Y-91243500D01*
X150741424Y-91243500D01*
X150665072Y-91263957D01*
X150616669Y-91276927D01*
X150504830Y-91341498D01*
X150504829Y-91341499D01*
X147978704Y-93867622D01*
X147928015Y-93894716D01*
X147902949Y-93899702D01*
X147860465Y-93908153D01*
X147860464Y-93908153D01*
X147860461Y-93908154D01*
X147748451Y-93954550D01*
X147647642Y-94021909D01*
X147561909Y-94107642D01*
X147494549Y-94208452D01*
X147494549Y-94208453D01*
X147448153Y-94320463D01*
X147448153Y-94320465D01*
X147424500Y-94439376D01*
X143377707Y-94439376D01*
X143306864Y-74438152D01*
X143325565Y-74379897D01*
X143374937Y-74343758D01*
X143436122Y-74343542D01*
X143448819Y-74348608D01*
X143460639Y-74354301D01*
X143591810Y-74400199D01*
X143741627Y-74452623D01*
X143741630Y-74452623D01*
X143741631Y-74452624D01*
X144031865Y-74518868D01*
X144111636Y-74527856D01*
X144327674Y-74552199D01*
X144327690Y-74552199D01*
X144327691Y-74552200D01*
X144327692Y-74552200D01*
X144625388Y-74552200D01*
X144625389Y-74552200D01*
X144625390Y-74552199D01*
X144625405Y-74552199D01*
X144814852Y-74530852D01*
X144921215Y-74518868D01*
X145211449Y-74452624D01*
X145492441Y-74354301D01*
X145760657Y-74225135D01*
X146012725Y-74066750D01*
X146245474Y-73881138D01*
X146455978Y-73670634D01*
X146641590Y-73437885D01*
X146799975Y-73185817D01*
X146929141Y-72917601D01*
X147027464Y-72636609D01*
X147093708Y-72346375D01*
X147112387Y-72180598D01*
X147127039Y-72050565D01*
X147127040Y-72050548D01*
X147127040Y-71752851D01*
X147127039Y-71752834D01*
X147093708Y-71457028D01*
X147093707Y-71457022D01*
X147027463Y-71166787D01*
X146945427Y-70932342D01*
X146929141Y-70885799D01*
X146891821Y-70808303D01*
X146811712Y-70641954D01*
X146803499Y-70581323D01*
X146832493Y-70527443D01*
X146887619Y-70500896D01*
X146900908Y-70500000D01*
X161265130Y-70500000D01*
X161323321Y-70518907D01*
G37*
%TD.AperFunction*%
%TA.AperFunction,Conductor*%
G36*
X198677628Y-91493811D02*
G01*
X198703775Y-91500089D01*
X198706396Y-91503158D01*
X198710239Y-91504407D01*
X198743512Y-91546614D01*
X198774550Y-91621548D01*
X198841788Y-91722175D01*
X198841910Y-91722358D01*
X198927642Y-91808090D01*
X199028451Y-91875449D01*
X199140465Y-91921847D01*
X199259379Y-91945500D01*
X199259380Y-91945500D01*
X199380620Y-91945500D01*
X199380621Y-91945500D01*
X199499535Y-91921847D01*
X199611549Y-91875449D01*
X199712358Y-91808090D01*
X199770496Y-91749952D01*
X199825013Y-91722175D01*
X199885445Y-91731746D01*
X199928710Y-91775011D01*
X199939500Y-91819956D01*
X199939500Y-106010134D01*
X199920593Y-106068325D01*
X199910504Y-106080138D01*
X191252341Y-114738301D01*
X191252339Y-114738303D01*
X191252338Y-114738302D01*
X191128302Y-114862339D01*
X191030847Y-115008192D01*
X190963721Y-115170249D01*
X190929499Y-115342292D01*
X190929499Y-115522586D01*
X190929500Y-115522607D01*
X190929500Y-129320970D01*
X190910593Y-129379161D01*
X190861093Y-129415125D01*
X190799907Y-129415125D01*
X190750407Y-129379161D01*
X190736346Y-129351563D01*
X190676130Y-129166239D01*
X190676128Y-129166236D01*
X190676127Y-129166235D01*
X190676127Y-129166233D01*
X190576763Y-128971219D01*
X190448114Y-128794150D01*
X190293350Y-128639386D01*
X190293346Y-128639383D01*
X190293344Y-128639381D01*
X190116286Y-128510740D01*
X190116280Y-128510736D01*
X189921267Y-128411373D01*
X189713105Y-128343736D01*
X189496938Y-128309500D01*
X189496935Y-128309500D01*
X189278066Y-128309500D01*
X189278063Y-128309500D01*
X189061888Y-128343737D01*
X189061884Y-128343738D01*
X188853740Y-128411369D01*
X188853737Y-128411371D01*
X188658719Y-128510736D01*
X188658713Y-128510740D01*
X188481656Y-128639381D01*
X188481651Y-128639386D01*
X184934150Y-132186885D01*
X184934150Y-132186886D01*
X184934149Y-132186885D01*
X184779384Y-132341651D01*
X184650740Y-132518713D01*
X184650736Y-132518719D01*
X184551373Y-132713732D01*
X184483736Y-132921894D01*
X184449500Y-133138061D01*
X184449500Y-134849438D01*
X184483736Y-135065605D01*
X184551373Y-135273767D01*
X184650736Y-135468780D01*
X184650740Y-135468786D01*
X184779381Y-135645844D01*
X184779383Y-135645846D01*
X184779386Y-135645850D01*
X186759386Y-137625850D01*
X186759385Y-137625850D01*
X186914151Y-137780615D01*
X187051631Y-137880501D01*
X187091219Y-137909263D01*
X187286233Y-138008627D01*
X187494390Y-138076262D01*
X187494391Y-138076262D01*
X187494394Y-138076263D01*
X187710562Y-138110500D01*
X187710565Y-138110500D01*
X191572578Y-138110500D01*
X191574304Y-138111061D01*
X191576050Y-138110561D01*
X191603242Y-138120463D01*
X191630769Y-138129407D01*
X191631836Y-138130875D01*
X191633542Y-138131497D01*
X191649720Y-138155491D01*
X191666733Y-138178907D01*
X191666733Y-138180722D01*
X191667748Y-138182228D01*
X191666733Y-138211149D01*
X191666733Y-138240093D01*
X191665665Y-138241562D01*
X191665602Y-138243376D01*
X191648743Y-138264852D01*
X191630769Y-138289593D01*
X191627924Y-138291584D01*
X191627763Y-138291692D01*
X191537642Y-138351910D01*
X191535960Y-138353591D01*
X191530039Y-138357584D01*
X191504886Y-138364791D01*
X191480520Y-138374328D01*
X191474693Y-138374500D01*
X184609682Y-138374500D01*
X184551491Y-138355593D01*
X184539678Y-138345504D01*
X181904496Y-135710322D01*
X181876719Y-135655805D01*
X181875500Y-135640318D01*
X181875500Y-94999682D01*
X181894407Y-94941491D01*
X181904496Y-94929678D01*
X185319678Y-91514496D01*
X185374195Y-91486719D01*
X185389682Y-91485500D01*
X198652048Y-91485500D01*
X198677628Y-91493811D01*
G37*
%TD.AperFunction*%
%TD*%
M02*
