%TF.GenerationSoftware,KiCad,Pcbnew,9.0.1*%
%TF.CreationDate,2025-05-16T02:44:54-04:00*%
%TF.ProjectId,CM5IO,434d3549-4f2e-46b6-9963-61645f706362,rev?*%
%TF.SameCoordinates,Original*%
%TF.FileFunction,Copper,L3,Inr*%
%TF.FilePolarity,Positive*%
%FSLAX46Y46*%
G04 Gerber Fmt 4.6, Leading zero omitted, Abs format (unit mm)*
G04 Created by KiCad (PCBNEW 9.0.1) date 2025-05-16 02:44:54*
%MOMM*%
%LPD*%
G01*
G04 APERTURE LIST*
%TA.AperFunction,ComponentPad*%
%ADD10C,1.574800*%
%TD*%
%TA.AperFunction,ComponentPad*%
%ADD11C,0.450000*%
%TD*%
%TA.AperFunction,ComponentPad*%
%ADD12C,1.000000*%
%TD*%
%TA.AperFunction,ComponentPad*%
%ADD13C,2.500000*%
%TD*%
%TA.AperFunction,ViaPad*%
%ADD14C,0.450000*%
%TD*%
G04 APERTURE END LIST*
D10*
%TO.N,/+5v*%
%TO.C,J2*%
X207221301Y-154249999D03*
%TO.N,GND*%
X207221301Y-151250000D03*
X207221301Y-148250000D03*
%TO.N,/+5v*%
X207221301Y-145250001D03*
%TD*%
%TO.N,/CM5_HighSpeed/VBUS*%
%TO.C,J7*%
X239608699Y-80970001D03*
%TO.N,/CM5_HighSpeed/USB3-0-D_P*%
X239608699Y-83970000D03*
%TO.N,/CM5_HighSpeed/USB3-0-D_N*%
X239608699Y-86970000D03*
%TO.N,GND*%
X239608699Y-89969999D03*
%TD*%
D11*
%TO.N,GND*%
%TO.C,U2*%
X163000000Y-138250000D03*
X163450000Y-138700000D03*
X163000000Y-139150000D03*
X162550000Y-138700000D03*
%TD*%
D10*
%TO.N,Net-(J6-Pin_1)*%
%TO.C,J6*%
X159160001Y-156340000D03*
%TO.N,GND*%
X156160002Y-156340000D03*
%TO.N,Net-(J6-Pin_3)*%
X153160003Y-156340000D03*
%TO.N,Net-(J6-Pin_4)*%
X159160001Y-153340001D03*
%TO.N,GND*%
X156160002Y-153340001D03*
%TO.N,Net-(J6-Pin_6)*%
X153160003Y-153340001D03*
%TD*%
D12*
%TO.N,/CM5_HighSpeed/VBUS*%
%TO.C,J5*%
X174930000Y-151600000D03*
%TO.N,/CM5_HighSpeed/USB3-1-D_P*%
X172430000Y-151600000D03*
%TO.N,/CM5_HighSpeed/USB3-1-D_N*%
X170430000Y-151600000D03*
%TO.N,GND*%
X167930000Y-151600000D03*
%TO.N,/CM5_HighSpeed/USB3-1-RX_N*%
X167430000Y-153100000D03*
%TO.N,/CM5_HighSpeed/USB3-1-RX_P*%
X169430000Y-153100000D03*
%TO.N,GND*%
X171430000Y-153100000D03*
%TO.N,/CM5_HighSpeed/USB3-1-TX_N*%
X173430000Y-153100000D03*
%TO.N,/CM5_HighSpeed/USB3-1-TX_P*%
X175430000Y-153100000D03*
D13*
%TO.N,N/C*%
X178000000Y-151700000D03*
X164860000Y-151700000D03*
%TD*%
D14*
%TO.N,GND*%
X195370000Y-110320000D03*
X213620000Y-121860000D03*
X218420000Y-141010000D03*
X157820000Y-89890000D03*
X167520000Y-139010000D03*
X218030000Y-144710000D03*
X160300000Y-137425000D03*
X162740000Y-103770000D03*
X166560000Y-96120000D03*
X161240000Y-147260000D03*
X158350000Y-101360000D03*
X225210000Y-141660000D03*
X204710000Y-81080000D03*
%TO.N,/PCIe-M2/SIM_VDD*%
X227934600Y-136189600D03*
X226660000Y-80630000D03*
%TO.N,/CM5_HighSpeed/VBUS*%
X189500000Y-134700000D03*
%TO.N,/PCIe-M2/M2_3v3*%
X205860000Y-80630000D03*
X210260000Y-72430000D03*
X229060000Y-80630000D03*
X211060000Y-72430000D03*
X197370000Y-127545000D03*
X217060000Y-80630000D03*
%TO.N,/+3.3v*%
X164500000Y-141200000D03*
X157040000Y-135500000D03*
X157010000Y-99550000D03*
X164510000Y-106790000D03*
X150900000Y-106450000D03*
X165500000Y-135700000D03*
%TO.N,/PCIe-M2/LED_WWAN*%
X209860000Y-80630000D03*
X233647807Y-82852722D03*
%TO.N,/+5v*%
X190700000Y-150080000D03*
X203563876Y-147793876D03*
X159310000Y-106270000D03*
X153030000Y-95650000D03*
X159510000Y-105300000D03*
X159450000Y-105770000D03*
X159500000Y-107220000D03*
X203512427Y-152427573D03*
X159470000Y-106730000D03*
X159650000Y-107710000D03*
%TO.N,/PCIe-M2/SIM_DATA*%
X224581000Y-136138800D03*
X225860000Y-80630000D03*
%TO.N,/PCIe-M2/SIM_CLK*%
X225060000Y-80630000D03*
X219425800Y-136138800D03*
%TO.N,/PCIe-M2/SIM_RST*%
X215869800Y-136138800D03*
X224260000Y-80630000D03*
%TO.N,/CM5_GPIO ( Ethernet\u002C GPIO\u002C SDCARD)/TACHO*%
X148040000Y-94500000D03*
X164790000Y-93170000D03*
%TO.N,/CM5_HighSpeed/PCIE_PWR_EN*%
X191930000Y-138830000D03*
X199320000Y-91330000D03*
%TD*%
%TA.AperFunction,Conductor*%
%TO.N,GND*%
G36*
X161323321Y-70518907D02*
G01*
X161359285Y-70568407D01*
X161359285Y-70629593D01*
X161323321Y-70679093D01*
X161308085Y-70688196D01*
X161022097Y-70825920D01*
X161022092Y-70825923D01*
X160731981Y-71008211D01*
X160464108Y-71221833D01*
X160221833Y-71464108D01*
X160008211Y-71731981D01*
X159825923Y-72022092D01*
X159825916Y-72022104D01*
X159677264Y-72330784D01*
X159677263Y-72330786D01*
X159564103Y-72654179D01*
X159487860Y-72988218D01*
X159449500Y-73328686D01*
X159449500Y-73671313D01*
X159487860Y-74011781D01*
X159564103Y-74345820D01*
X159677263Y-74669213D01*
X159677264Y-74669215D01*
X159825916Y-74977895D01*
X159825920Y-74977902D01*
X159825924Y-74977910D01*
X160008211Y-75268018D01*
X160221834Y-75535893D01*
X160464107Y-75778166D01*
X160731982Y-75991789D01*
X161022090Y-76174076D01*
X161022101Y-76174081D01*
X161022104Y-76174083D01*
X161032817Y-76179242D01*
X161330785Y-76322736D01*
X161433731Y-76358758D01*
X161654179Y-76435896D01*
X161654182Y-76435896D01*
X161654183Y-76435897D01*
X161988217Y-76512139D01*
X162328688Y-76550500D01*
X162328689Y-76550500D01*
X162671311Y-76550500D01*
X162671312Y-76550500D01*
X163011783Y-76512139D01*
X163345817Y-76435897D01*
X163669215Y-76322736D01*
X163977910Y-76174076D01*
X164268018Y-75991789D01*
X164535893Y-75778166D01*
X164778166Y-75535893D01*
X164991789Y-75268018D01*
X165174076Y-74977910D01*
X165322736Y-74669215D01*
X165435897Y-74345817D01*
X165512139Y-74011783D01*
X165550500Y-73671312D01*
X165550500Y-73328688D01*
X165512139Y-72988217D01*
X165435897Y-72654183D01*
X165322736Y-72330785D01*
X165223471Y-72124660D01*
X165174083Y-72022104D01*
X165174081Y-72022101D01*
X165174076Y-72022090D01*
X164991789Y-71731982D01*
X164778166Y-71464107D01*
X164535893Y-71221834D01*
X164268018Y-71008211D01*
X163977910Y-70825924D01*
X163691914Y-70688195D01*
X163647691Y-70645913D01*
X163636766Y-70585711D01*
X163663313Y-70530585D01*
X163717193Y-70501591D01*
X163734870Y-70500000D01*
X175901000Y-70500000D01*
X175959191Y-70518907D01*
X175995155Y-70568407D01*
X176000000Y-70599000D01*
X176000000Y-76500000D01*
X191999999Y-76500000D01*
X192000000Y-76500000D01*
X192000000Y-70599000D01*
X192018907Y-70540809D01*
X192068407Y-70504845D01*
X192099000Y-70500000D01*
X194265130Y-70500000D01*
X194323321Y-70518907D01*
X194359285Y-70568407D01*
X194359285Y-70629593D01*
X194323321Y-70679093D01*
X194308085Y-70688196D01*
X194022097Y-70825920D01*
X194022092Y-70825923D01*
X193731981Y-71008211D01*
X193464108Y-71221833D01*
X193221833Y-71464108D01*
X193008211Y-71731981D01*
X192825923Y-72022092D01*
X192825916Y-72022104D01*
X192677264Y-72330784D01*
X192677263Y-72330786D01*
X192564103Y-72654179D01*
X192487860Y-72988218D01*
X192449500Y-73328686D01*
X192449500Y-73671313D01*
X192487860Y-74011781D01*
X192564103Y-74345820D01*
X192677263Y-74669213D01*
X192677264Y-74669215D01*
X192825916Y-74977895D01*
X192825920Y-74977902D01*
X192825924Y-74977910D01*
X193008211Y-75268018D01*
X193221834Y-75535893D01*
X193464107Y-75778166D01*
X193731982Y-75991789D01*
X194022090Y-76174076D01*
X194022101Y-76174081D01*
X194022104Y-76174083D01*
X194032817Y-76179242D01*
X194330785Y-76322736D01*
X194433731Y-76358758D01*
X194654179Y-76435896D01*
X194654182Y-76435896D01*
X194654183Y-76435897D01*
X194988217Y-76512139D01*
X195328688Y-76550500D01*
X195328689Y-76550500D01*
X195671311Y-76550500D01*
X195671312Y-76550500D01*
X196011783Y-76512139D01*
X196253079Y-76457064D01*
X204419500Y-76457064D01*
X204419500Y-76602935D01*
X204447957Y-76745995D01*
X204447957Y-76745997D01*
X204503775Y-76880755D01*
X204503775Y-76880756D01*
X204544157Y-76941191D01*
X204584816Y-77002041D01*
X204687959Y-77105184D01*
X204809242Y-77186223D01*
X204944004Y-77242043D01*
X205087067Y-77270500D01*
X205087068Y-77270500D01*
X205232932Y-77270500D01*
X205232933Y-77270500D01*
X205375996Y-77242043D01*
X205510758Y-77186223D01*
X205632041Y-77105184D01*
X205735184Y-77002041D01*
X205816223Y-76880758D01*
X205872043Y-76745996D01*
X205900500Y-76602933D01*
X205900500Y-76457067D01*
X205900499Y-76457065D01*
X205900499Y-76457059D01*
X205898477Y-76446892D01*
X205895602Y-76432441D01*
X229169500Y-76432441D01*
X229169500Y-76627558D01*
X229207564Y-76818917D01*
X229207564Y-76818919D01*
X229282227Y-76999173D01*
X229282233Y-76999185D01*
X229353058Y-77105180D01*
X229390628Y-77161407D01*
X229528593Y-77299372D01*
X229597757Y-77345586D01*
X229690814Y-77407766D01*
X229690826Y-77407772D01*
X229738645Y-77427579D01*
X229871082Y-77482436D01*
X230062444Y-77520500D01*
X230062445Y-77520500D01*
X230257555Y-77520500D01*
X230257556Y-77520500D01*
X230448918Y-77482436D01*
X230629178Y-77407770D01*
X230629180Y-77407768D01*
X230629185Y-77407766D01*
X230676026Y-77376466D01*
X230791407Y-77299372D01*
X230929372Y-77161407D01*
X231012713Y-77036678D01*
X231037766Y-76999185D01*
X231037772Y-76999173D01*
X231086821Y-76880758D01*
X231112436Y-76818918D01*
X231150500Y-76627556D01*
X231150500Y-76432444D01*
X231112436Y-76241082D01*
X231037770Y-76060822D01*
X231037766Y-76060814D01*
X230966939Y-75954816D01*
X230929372Y-75898593D01*
X230791407Y-75760628D01*
X230745191Y-75729747D01*
X230629185Y-75652233D01*
X230629173Y-75652227D01*
X230448918Y-75577564D01*
X230257558Y-75539500D01*
X230257556Y-75539500D01*
X230062444Y-75539500D01*
X230062441Y-75539500D01*
X229871082Y-75577564D01*
X229871080Y-75577564D01*
X229690826Y-75652227D01*
X229690814Y-75652233D01*
X229528593Y-75760628D01*
X229528589Y-75760631D01*
X229390631Y-75898589D01*
X229390628Y-75898593D01*
X229282233Y-76060814D01*
X229282227Y-76060826D01*
X229207564Y-76241080D01*
X229207564Y-76241082D01*
X229169500Y-76432441D01*
X205895602Y-76432441D01*
X205880945Y-76358758D01*
X205872043Y-76314004D01*
X205816224Y-76179244D01*
X205816224Y-76179243D01*
X205796032Y-76149025D01*
X205735184Y-76057959D01*
X205632041Y-75954816D01*
X205510758Y-75873777D01*
X205510757Y-75873776D01*
X205510755Y-75873775D01*
X205375996Y-75817957D01*
X205232935Y-75789500D01*
X205232933Y-75789500D01*
X205087067Y-75789500D01*
X205087064Y-75789500D01*
X204944004Y-75817957D01*
X204944002Y-75817957D01*
X204809244Y-75873775D01*
X204809243Y-75873775D01*
X204687959Y-75954816D01*
X204687955Y-75954819D01*
X204584819Y-76057955D01*
X204584816Y-76057959D01*
X204503775Y-76179243D01*
X204503775Y-76179244D01*
X204447957Y-76314002D01*
X204447957Y-76314004D01*
X204419500Y-76457064D01*
X196253079Y-76457064D01*
X196345817Y-76435897D01*
X196669215Y-76322736D01*
X196977910Y-76174076D01*
X197268018Y-75991789D01*
X197535893Y-75778166D01*
X197778166Y-75535893D01*
X197991789Y-75268018D01*
X198174076Y-74977910D01*
X198322736Y-74669215D01*
X198435897Y-74345817D01*
X198512139Y-74011783D01*
X198550500Y-73671312D01*
X198550500Y-73328688D01*
X198512139Y-72988217D01*
X198435897Y-72654183D01*
X198335895Y-72368391D01*
X209634500Y-72368391D01*
X209634500Y-72491608D01*
X209658536Y-72612450D01*
X209705688Y-72726285D01*
X209705689Y-72726286D01*
X209774142Y-72828733D01*
X209861267Y-72915858D01*
X209963714Y-72984311D01*
X210077548Y-73031463D01*
X210198394Y-73055500D01*
X210198396Y-73055500D01*
X210321604Y-73055500D01*
X210321606Y-73055500D01*
X210442452Y-73031463D01*
X210556286Y-72984311D01*
X210604999Y-72951761D01*
X210663886Y-72935153D01*
X210715000Y-72951761D01*
X210763714Y-72984311D01*
X210877548Y-73031463D01*
X210998394Y-73055500D01*
X210998396Y-73055500D01*
X211121604Y-73055500D01*
X211121606Y-73055500D01*
X211242452Y-73031463D01*
X211356286Y-72984311D01*
X211458733Y-72915858D01*
X211545858Y-72828733D01*
X211614311Y-72726286D01*
X211661463Y-72612452D01*
X211685500Y-72491606D01*
X211685500Y-72368394D01*
X211661463Y-72247548D01*
X211614311Y-72133714D01*
X211545858Y-72031267D01*
X211458733Y-71944142D01*
X211356286Y-71875689D01*
X211356287Y-71875689D01*
X211356285Y-71875688D01*
X211242450Y-71828536D01*
X211121608Y-71804500D01*
X211121606Y-71804500D01*
X210998394Y-71804500D01*
X210998391Y-71804500D01*
X210877549Y-71828536D01*
X210763715Y-71875688D01*
X210715001Y-71908238D01*
X210656113Y-71924846D01*
X210604999Y-71908238D01*
X210595214Y-71901700D01*
X210556286Y-71875689D01*
X210442452Y-71828537D01*
X210442450Y-71828536D01*
X210321608Y-71804500D01*
X210321606Y-71804500D01*
X210198394Y-71804500D01*
X210198391Y-71804500D01*
X210077549Y-71828536D01*
X209963714Y-71875688D01*
X209861267Y-71944142D01*
X209861263Y-71944145D01*
X209774145Y-72031263D01*
X209774142Y-72031267D01*
X209705688Y-72133714D01*
X209658536Y-72247549D01*
X209634500Y-72368391D01*
X198335895Y-72368391D01*
X198322736Y-72330785D01*
X198223471Y-72124660D01*
X198174083Y-72022104D01*
X198174081Y-72022101D01*
X198174076Y-72022090D01*
X197991789Y-71731982D01*
X197778166Y-71464107D01*
X197535893Y-71221834D01*
X197268018Y-71008211D01*
X196977910Y-70825924D01*
X196691914Y-70688195D01*
X196647691Y-70645913D01*
X196636766Y-70585711D01*
X196663313Y-70530585D01*
X196717193Y-70501591D01*
X196734870Y-70500000D01*
X235458992Y-70500000D01*
X235517183Y-70518907D01*
X235528996Y-70528996D01*
X237126081Y-72126081D01*
X237153858Y-72180598D01*
X237154455Y-72207168D01*
X237149500Y-72251147D01*
X237149500Y-72548865D01*
X237182831Y-72844671D01*
X237182832Y-72844677D01*
X237249076Y-73134912D01*
X237347398Y-73415899D01*
X237347399Y-73415902D01*
X237476557Y-73684102D01*
X237476561Y-73684109D01*
X237476565Y-73684117D01*
X237634950Y-73936185D01*
X237820562Y-74168934D01*
X238031066Y-74379438D01*
X238263815Y-74565050D01*
X238515883Y-74723435D01*
X238515894Y-74723440D01*
X238515897Y-74723442D01*
X238750572Y-74836455D01*
X238784099Y-74852601D01*
X238915270Y-74898499D01*
X239065087Y-74950923D01*
X239065090Y-74950923D01*
X239065091Y-74950924D01*
X239355325Y-75017168D01*
X239435096Y-75026156D01*
X239651134Y-75050499D01*
X239651150Y-75050499D01*
X239651151Y-75050500D01*
X239651152Y-75050500D01*
X239948841Y-75050500D01*
X239948849Y-75050500D01*
X239992829Y-75045544D01*
X240052769Y-75057816D01*
X240073917Y-75073917D01*
X242036678Y-77036678D01*
X242064455Y-77091195D01*
X242054884Y-77151627D01*
X242011619Y-77194892D01*
X241951187Y-77204463D01*
X241928789Y-77198146D01*
X241816898Y-77151800D01*
X241652508Y-77119100D01*
X241652506Y-77119100D01*
X241484894Y-77119100D01*
X241484891Y-77119100D01*
X241320502Y-77151800D01*
X241320500Y-77151800D01*
X241165652Y-77215939D01*
X241165641Y-77215945D01*
X241026283Y-77309063D01*
X241026279Y-77309066D01*
X240907766Y-77427579D01*
X240907763Y-77427583D01*
X240814645Y-77566941D01*
X240814639Y-77566952D01*
X240750500Y-77721800D01*
X240750500Y-77721802D01*
X240717800Y-77886191D01*
X240717800Y-78053808D01*
X240750500Y-78218197D01*
X240750500Y-78218199D01*
X240814639Y-78373047D01*
X240814645Y-78373058D01*
X240870667Y-78456899D01*
X240907763Y-78512417D01*
X241026283Y-78630937D01*
X241109369Y-78686453D01*
X241165641Y-78724054D01*
X241165652Y-78724060D01*
X241222854Y-78747753D01*
X241320502Y-78788200D01*
X241484894Y-78820900D01*
X241484895Y-78820900D01*
X241652505Y-78820900D01*
X241652506Y-78820900D01*
X241816898Y-78788200D01*
X241963116Y-78727634D01*
X242024111Y-78722834D01*
X242076280Y-78754804D01*
X242099695Y-78811332D01*
X242100000Y-78819099D01*
X242100000Y-92120900D01*
X242081093Y-92179091D01*
X242031593Y-92215055D01*
X241970407Y-92215055D01*
X241963115Y-92212364D01*
X241816898Y-92151800D01*
X241652508Y-92119100D01*
X241652506Y-92119100D01*
X241484894Y-92119100D01*
X241484891Y-92119100D01*
X241320502Y-92151800D01*
X241320500Y-92151800D01*
X241165652Y-92215939D01*
X241165641Y-92215945D01*
X241026283Y-92309063D01*
X241026279Y-92309066D01*
X240907766Y-92427579D01*
X240907763Y-92427583D01*
X240814645Y-92566941D01*
X240814639Y-92566952D01*
X240750500Y-92721800D01*
X240750500Y-92721802D01*
X240717800Y-92886191D01*
X240717800Y-93053808D01*
X240750500Y-93218197D01*
X240750500Y-93218199D01*
X240814639Y-93373047D01*
X240814645Y-93373058D01*
X240870667Y-93456899D01*
X240907763Y-93512417D01*
X241026283Y-93630937D01*
X241109369Y-93686453D01*
X241165641Y-93724054D01*
X241165652Y-93724060D01*
X241222854Y-93747753D01*
X241320502Y-93788200D01*
X241484894Y-93820900D01*
X241484895Y-93820900D01*
X241652505Y-93820900D01*
X241652506Y-93820900D01*
X241816898Y-93788200D01*
X241963116Y-93727634D01*
X242024111Y-93722834D01*
X242076280Y-93754804D01*
X242099695Y-93811332D01*
X242100000Y-93819099D01*
X242100000Y-152858991D01*
X242081093Y-152917182D01*
X242071004Y-152928995D01*
X241119296Y-153880702D01*
X241064779Y-153908479D01*
X241016594Y-153904142D01*
X240744912Y-153809076D01*
X240454677Y-153742832D01*
X240454671Y-153742831D01*
X240158865Y-153709500D01*
X240158849Y-153709500D01*
X239861151Y-153709500D01*
X239861134Y-153709500D01*
X239565328Y-153742831D01*
X239565322Y-153742832D01*
X239275087Y-153809076D01*
X238994100Y-153907398D01*
X238994097Y-153907399D01*
X238725897Y-154036557D01*
X238725884Y-154036564D01*
X238725883Y-154036565D01*
X238686748Y-154061155D01*
X238473814Y-154194950D01*
X238241062Y-154380565D01*
X238030565Y-154591062D01*
X237844950Y-154823814D01*
X237814302Y-154872591D01*
X237706222Y-155044600D01*
X237686564Y-155075885D01*
X237686557Y-155075897D01*
X237557399Y-155344097D01*
X237557398Y-155344100D01*
X237459076Y-155625087D01*
X237392832Y-155915322D01*
X237392831Y-155915328D01*
X237359500Y-156211134D01*
X237359500Y-156508865D01*
X237392831Y-156804671D01*
X237392832Y-156804677D01*
X237459076Y-157094912D01*
X237554142Y-157366594D01*
X237555515Y-157427764D01*
X237530702Y-157469296D01*
X235528996Y-159471004D01*
X235474479Y-159498781D01*
X235458992Y-159500000D01*
X211500000Y-159500000D01*
X148351408Y-159480776D01*
X148313553Y-159473240D01*
X148304437Y-159469464D01*
X148304436Y-159469464D01*
X147576253Y-159469464D01*
X147518062Y-159450557D01*
X147482098Y-159401057D01*
X147477695Y-159373256D01*
X147477465Y-159373272D01*
X147477300Y-159370764D01*
X147477253Y-159370464D01*
X147477253Y-159370038D01*
X147477253Y-159370037D01*
X147448557Y-159152063D01*
X147391654Y-158939700D01*
X147330037Y-158790944D01*
X147307521Y-158736585D01*
X147307519Y-158736581D01*
X147197592Y-158546181D01*
X147115222Y-158438834D01*
X147063758Y-158371765D01*
X147063756Y-158371763D01*
X147063753Y-158371759D01*
X146908292Y-158216298D01*
X146908287Y-158216294D01*
X146908285Y-158216292D01*
X146898143Y-158208510D01*
X146863487Y-158158086D01*
X146865088Y-158096922D01*
X146888406Y-158059965D01*
X146954312Y-157994060D01*
X147139924Y-157761311D01*
X147298309Y-157509243D01*
X147427475Y-157241027D01*
X147525798Y-156960035D01*
X147592042Y-156669801D01*
X147606004Y-156545885D01*
X147625373Y-156373991D01*
X147625374Y-156373974D01*
X147625374Y-156246506D01*
X151972103Y-156246506D01*
X151972103Y-156433493D01*
X152001351Y-156618162D01*
X152059131Y-156795990D01*
X152059131Y-156795991D01*
X152142715Y-156960035D01*
X152144020Y-156962595D01*
X152253924Y-157113865D01*
X152386138Y-157246079D01*
X152537408Y-157355983D01*
X152704008Y-157440870D01*
X152881836Y-157498650D01*
X152881837Y-157498650D01*
X152881840Y-157498651D01*
X153066510Y-157527900D01*
X153066513Y-157527900D01*
X153253496Y-157527900D01*
X153438165Y-157498651D01*
X153438166Y-157498650D01*
X153438170Y-157498650D01*
X153615998Y-157440870D01*
X153782598Y-157355983D01*
X153933868Y-157246079D01*
X154066082Y-157113865D01*
X154175986Y-156962595D01*
X154260873Y-156795995D01*
X154318653Y-156618167D01*
X154323263Y-156589063D01*
X154347903Y-156433493D01*
X154347903Y-156246509D01*
X154346563Y-156238046D01*
X154864602Y-156238046D01*
X154864602Y-156441953D01*
X154896498Y-156643337D01*
X154959506Y-156837259D01*
X155052075Y-157018937D01*
X155052079Y-157018942D01*
X155081438Y-157059351D01*
X155648571Y-156492217D01*
X155662952Y-156545885D01*
X155733176Y-156667515D01*
X155832487Y-156766826D01*
X155954117Y-156837050D01*
X156007781Y-156851429D01*
X155440650Y-157418562D01*
X155481062Y-157447924D01*
X155481070Y-157447929D01*
X155662742Y-157540495D01*
X155856664Y-157603503D01*
X156058049Y-157635400D01*
X156261955Y-157635400D01*
X156463339Y-157603503D01*
X156657264Y-157540494D01*
X156657270Y-157540492D01*
X156838938Y-157447926D01*
X156879353Y-157418562D01*
X156312220Y-156851429D01*
X156365887Y-156837050D01*
X156487517Y-156766826D01*
X156586828Y-156667515D01*
X156657052Y-156545885D01*
X156671431Y-156492218D01*
X157238564Y-157059351D01*
X157267928Y-157018936D01*
X157360494Y-156837268D01*
X157360496Y-156837262D01*
X157423505Y-156643337D01*
X157455402Y-156441953D01*
X157455402Y-156246506D01*
X157972101Y-156246506D01*
X157972101Y-156433493D01*
X158001349Y-156618162D01*
X158059129Y-156795990D01*
X158059129Y-156795991D01*
X158142713Y-156960035D01*
X158144018Y-156962595D01*
X158253922Y-157113865D01*
X158386136Y-157246079D01*
X158537406Y-157355983D01*
X158704006Y-157440870D01*
X158881834Y-157498650D01*
X158881835Y-157498650D01*
X158881838Y-157498651D01*
X159066508Y-157527900D01*
X159066511Y-157527900D01*
X159253494Y-157527900D01*
X159438163Y-157498651D01*
X159438164Y-157498650D01*
X159438168Y-157498650D01*
X159615996Y-157440870D01*
X159782596Y-157355983D01*
X159933866Y-157246079D01*
X160013754Y-157166191D01*
X204410400Y-157166191D01*
X204410400Y-157333808D01*
X204443100Y-157498197D01*
X204443100Y-157498199D01*
X204507239Y-157653047D01*
X204507245Y-157653058D01*
X204557230Y-157727864D01*
X204600363Y-157792417D01*
X204718883Y-157910937D01*
X204801969Y-157966453D01*
X204858241Y-158004054D01*
X204858252Y-158004060D01*
X204915454Y-158027753D01*
X205013102Y-158068200D01*
X205177494Y-158100900D01*
X205177495Y-158100900D01*
X205345105Y-158100900D01*
X205345106Y-158100900D01*
X205509498Y-158068200D01*
X205664352Y-158004058D01*
X205803717Y-157910937D01*
X205922237Y-157792417D01*
X206015358Y-157653052D01*
X206079500Y-157498198D01*
X206112200Y-157333806D01*
X206112200Y-157166194D01*
X206079500Y-157001802D01*
X206015358Y-156846948D01*
X206015357Y-156846946D01*
X206015354Y-156846941D01*
X205961822Y-156766826D01*
X205922237Y-156707583D01*
X205803717Y-156589063D01*
X205739097Y-156545885D01*
X205664358Y-156495945D01*
X205664347Y-156495939D01*
X205509498Y-156431800D01*
X205345108Y-156399100D01*
X205345106Y-156399100D01*
X205177494Y-156399100D01*
X205177491Y-156399100D01*
X205013102Y-156431800D01*
X205013100Y-156431800D01*
X204858252Y-156495939D01*
X204858241Y-156495945D01*
X204718883Y-156589063D01*
X204718879Y-156589066D01*
X204600366Y-156707579D01*
X204600363Y-156707583D01*
X204507245Y-156846941D01*
X204507239Y-156846952D01*
X204443100Y-157001800D01*
X204443100Y-157001802D01*
X204410400Y-157166191D01*
X160013754Y-157166191D01*
X160066080Y-157113865D01*
X160175984Y-156962595D01*
X160260871Y-156795995D01*
X160318651Y-156618167D01*
X160323261Y-156589063D01*
X160347901Y-156433493D01*
X160347901Y-156246506D01*
X160318652Y-156061837D01*
X160310472Y-156036662D01*
X160260871Y-155884005D01*
X160175984Y-155717405D01*
X160066080Y-155566135D01*
X159933866Y-155433921D01*
X159782596Y-155324017D01*
X159782595Y-155324016D01*
X159782593Y-155324015D01*
X159615996Y-155239130D01*
X159438163Y-155181348D01*
X159253494Y-155152100D01*
X159253491Y-155152100D01*
X159066511Y-155152100D01*
X159066508Y-155152100D01*
X158881838Y-155181348D01*
X158704005Y-155239130D01*
X158537408Y-155324015D01*
X158386137Y-155433920D01*
X158253921Y-155566136D01*
X158144016Y-155717407D01*
X158059131Y-155884004D01*
X158001349Y-156061837D01*
X157972101Y-156246506D01*
X157455402Y-156246506D01*
X157455402Y-156238046D01*
X157423505Y-156036662D01*
X157360497Y-155842740D01*
X157267931Y-155661068D01*
X157267926Y-155661060D01*
X157238564Y-155620648D01*
X156671431Y-156187779D01*
X156657052Y-156134115D01*
X156586828Y-156012485D01*
X156487517Y-155913174D01*
X156365887Y-155842950D01*
X156312219Y-155828569D01*
X156879353Y-155261436D01*
X156838944Y-155232077D01*
X156838939Y-155232073D01*
X156657261Y-155139504D01*
X156463339Y-155076496D01*
X156261955Y-155044600D01*
X156058049Y-155044600D01*
X155856664Y-155076496D01*
X155662742Y-155139504D01*
X155481064Y-155232073D01*
X155481060Y-155232075D01*
X155440649Y-155261436D01*
X156007783Y-155828570D01*
X155954117Y-155842950D01*
X155832487Y-155913174D01*
X155733176Y-156012485D01*
X155662952Y-156134115D01*
X155648572Y-156187781D01*
X155081438Y-155620647D01*
X155052077Y-155661058D01*
X155052075Y-155661062D01*
X154959506Y-155842740D01*
X154896498Y-156036662D01*
X154864602Y-156238046D01*
X154346563Y-156238046D01*
X154318654Y-156061837D01*
X154310474Y-156036662D01*
X154260873Y-155884005D01*
X154175986Y-155717405D01*
X154066082Y-155566135D01*
X153933868Y-155433921D01*
X153782598Y-155324017D01*
X153782597Y-155324016D01*
X153782595Y-155324015D01*
X153615998Y-155239130D01*
X153438165Y-155181348D01*
X153253496Y-155152100D01*
X153253493Y-155152100D01*
X153066513Y-155152100D01*
X153066510Y-155152100D01*
X152881840Y-155181348D01*
X152704007Y-155239130D01*
X152537410Y-155324015D01*
X152386139Y-155433920D01*
X152253923Y-155566136D01*
X152144018Y-155717407D01*
X152059133Y-155884004D01*
X152001351Y-156061837D01*
X151972103Y-156246506D01*
X147625374Y-156246506D01*
X147625374Y-156076277D01*
X147625373Y-156076260D01*
X147592042Y-155780454D01*
X147592041Y-155780448D01*
X147577652Y-155717407D01*
X147525798Y-155490217D01*
X147427475Y-155209225D01*
X147298309Y-154941009D01*
X147139924Y-154688941D01*
X146954312Y-154456192D01*
X146743808Y-154245688D01*
X146511059Y-154060076D01*
X146258991Y-153901691D01*
X146258983Y-153901687D01*
X146258976Y-153901683D01*
X145990776Y-153772525D01*
X145990773Y-153772524D01*
X145709786Y-153674202D01*
X145419551Y-153607958D01*
X145419545Y-153607957D01*
X145123739Y-153574626D01*
X145123723Y-153574626D01*
X144826025Y-153574626D01*
X144826008Y-153574626D01*
X144530202Y-153607957D01*
X144530196Y-153607958D01*
X144239961Y-153674202D01*
X143958974Y-153772524D01*
X143958971Y-153772525D01*
X143729889Y-153882845D01*
X143669258Y-153891058D01*
X143615378Y-153862064D01*
X143588831Y-153806938D01*
X143587936Y-153794000D01*
X143587637Y-153709500D01*
X143585997Y-153246507D01*
X151972103Y-153246507D01*
X151972103Y-153433494D01*
X152001351Y-153618163D01*
X152059133Y-153795996D01*
X152115895Y-153907399D01*
X152144020Y-153962596D01*
X152253924Y-154113866D01*
X152386138Y-154246080D01*
X152537408Y-154355984D01*
X152704008Y-154440871D01*
X152881836Y-154498651D01*
X152881837Y-154498651D01*
X152881840Y-154498652D01*
X153066510Y-154527901D01*
X153066513Y-154527901D01*
X153253496Y-154527901D01*
X153438165Y-154498652D01*
X153438166Y-154498651D01*
X153438170Y-154498651D01*
X153615998Y-154440871D01*
X153782598Y-154355984D01*
X153933868Y-154246080D01*
X154066082Y-154113866D01*
X154175986Y-153962596D01*
X154260873Y-153795996D01*
X154318653Y-153618168D01*
X154320270Y-153607957D01*
X154347903Y-153433494D01*
X154347903Y-153246510D01*
X154346563Y-153238047D01*
X154864602Y-153238047D01*
X154864602Y-153441954D01*
X154896498Y-153643338D01*
X154959506Y-153837260D01*
X155052075Y-154018938D01*
X155052079Y-154018943D01*
X155081438Y-154059352D01*
X155648571Y-153492218D01*
X155662952Y-153545886D01*
X155733176Y-153667516D01*
X155832487Y-153766827D01*
X155954117Y-153837051D01*
X156007781Y-153851430D01*
X155440650Y-154418563D01*
X155481062Y-154447925D01*
X155481070Y-154447930D01*
X155662742Y-154540496D01*
X155856664Y-154603504D01*
X156058049Y-154635401D01*
X156261955Y-154635401D01*
X156463339Y-154603504D01*
X156657264Y-154540495D01*
X156657270Y-154540493D01*
X156838938Y-154447927D01*
X156879353Y-154418563D01*
X156312220Y-153851430D01*
X156365887Y-153837051D01*
X156487517Y-153766827D01*
X156586828Y-153667516D01*
X156657052Y-153545886D01*
X156671431Y-153492219D01*
X157238564Y-154059352D01*
X157267928Y-154018937D01*
X157360494Y-153837269D01*
X157360496Y-153837263D01*
X157423505Y-153643338D01*
X157455402Y-153441954D01*
X157455402Y-153246507D01*
X157972101Y-153246507D01*
X157972101Y-153433494D01*
X158001349Y-153618163D01*
X158059131Y-153795996D01*
X158115893Y-153907399D01*
X158144018Y-153962596D01*
X158253922Y-154113866D01*
X158386136Y-154246080D01*
X158537406Y-154355984D01*
X158704006Y-154440871D01*
X158881834Y-154498651D01*
X158881835Y-154498651D01*
X158881838Y-154498652D01*
X159066508Y-154527901D01*
X159066511Y-154527901D01*
X159253494Y-154527901D01*
X159438163Y-154498652D01*
X159438164Y-154498651D01*
X159438168Y-154498651D01*
X159615996Y-154440871D01*
X159782596Y-154355984D01*
X159933866Y-154246080D01*
X160023441Y-154156505D01*
X206033401Y-154156505D01*
X206033401Y-154343492D01*
X206062649Y-154528161D01*
X206087130Y-154603504D01*
X206120431Y-154705994D01*
X206205318Y-154872594D01*
X206315222Y-155023864D01*
X206447436Y-155156078D01*
X206598706Y-155265982D01*
X206765306Y-155350869D01*
X206943134Y-155408649D01*
X206943135Y-155408649D01*
X206943138Y-155408650D01*
X207127808Y-155437899D01*
X207127811Y-155437899D01*
X207314794Y-155437899D01*
X207499463Y-155408650D01*
X207499464Y-155408649D01*
X207499468Y-155408649D01*
X207677296Y-155350869D01*
X207843896Y-155265982D01*
X207995166Y-155156078D01*
X208127380Y-155023864D01*
X208237284Y-154872594D01*
X208322171Y-154705994D01*
X208379951Y-154528166D01*
X208391351Y-154456192D01*
X208409201Y-154343492D01*
X208409201Y-154156505D01*
X208379952Y-153971836D01*
X208379951Y-153971832D01*
X208322171Y-153794004D01*
X208237284Y-153627404D01*
X208127380Y-153476134D01*
X207995166Y-153343920D01*
X207843896Y-153234016D01*
X207843895Y-153234015D01*
X207843893Y-153234014D01*
X207677296Y-153149129D01*
X207499463Y-153091347D01*
X207314794Y-153062099D01*
X207314791Y-153062099D01*
X207127811Y-153062099D01*
X207127808Y-153062099D01*
X206943138Y-153091347D01*
X206765305Y-153149129D01*
X206598708Y-153234014D01*
X206447437Y-153343919D01*
X206315221Y-153476135D01*
X206205316Y-153627406D01*
X206120431Y-153794003D01*
X206062649Y-153971836D01*
X206033401Y-154156505D01*
X160023441Y-154156505D01*
X160066080Y-154113866D01*
X160175984Y-153962596D01*
X160260871Y-153795996D01*
X160318651Y-153618168D01*
X160320268Y-153607957D01*
X160347901Y-153433494D01*
X160347901Y-153246507D01*
X160318652Y-153061838D01*
X160307994Y-153029036D01*
X160260871Y-152884006D01*
X160175984Y-152717406D01*
X160066080Y-152566136D01*
X159933866Y-152433922D01*
X159789039Y-152328699D01*
X161436100Y-152328699D01*
X161436100Y-152471300D01*
X161450840Y-152545400D01*
X161463694Y-152610025D01*
X161463919Y-152611153D01*
X161463919Y-152611155D01*
X161518486Y-152742892D01*
X161585342Y-152842951D01*
X161597710Y-152861460D01*
X161698540Y-152962290D01*
X161817105Y-153041512D01*
X161948846Y-153096081D01*
X162088702Y-153123900D01*
X162088703Y-153123900D01*
X162231297Y-153123900D01*
X162231298Y-153123900D01*
X162371154Y-153096081D01*
X162502895Y-153041512D01*
X162621460Y-152962290D01*
X162722290Y-152861460D01*
X162801512Y-152742895D01*
X162856081Y-152611154D01*
X162883900Y-152471298D01*
X162883900Y-152328702D01*
X162856081Y-152188846D01*
X162824000Y-152111395D01*
X162801513Y-152057107D01*
X162798951Y-152053273D01*
X162722290Y-151938540D01*
X162621460Y-151837710D01*
X162609771Y-151829900D01*
X162502892Y-151758486D01*
X162371154Y-151703919D01*
X162231300Y-151676100D01*
X162231298Y-151676100D01*
X162088702Y-151676100D01*
X162088699Y-151676100D01*
X161948846Y-151703919D01*
X161948844Y-151703919D01*
X161817107Y-151758486D01*
X161698543Y-151837707D01*
X161597707Y-151938543D01*
X161518486Y-152057107D01*
X161463919Y-152188844D01*
X161463919Y-152188846D01*
X161436100Y-152328699D01*
X159789039Y-152328699D01*
X159782596Y-152324018D01*
X159782595Y-152324017D01*
X159782593Y-152324016D01*
X159615996Y-152239131D01*
X159438163Y-152181349D01*
X159253494Y-152152101D01*
X159253491Y-152152101D01*
X159066511Y-152152101D01*
X159066508Y-152152101D01*
X158881838Y-152181349D01*
X158704005Y-152239131D01*
X158537408Y-152324016D01*
X158386137Y-152433921D01*
X158253921Y-152566137D01*
X158144016Y-152717408D01*
X158059131Y-152884005D01*
X158001349Y-153061838D01*
X157972101Y-153246507D01*
X157455402Y-153246507D01*
X157455402Y-153238047D01*
X157423505Y-153036663D01*
X157360497Y-152842741D01*
X157267931Y-152661069D01*
X157267926Y-152661061D01*
X157238564Y-152620649D01*
X156671431Y-153187780D01*
X156657052Y-153134116D01*
X156586828Y-153012486D01*
X156487517Y-152913175D01*
X156365887Y-152842951D01*
X156312219Y-152828570D01*
X156879353Y-152261437D01*
X156838944Y-152232078D01*
X156838939Y-152232074D01*
X156657261Y-152139505D01*
X156463339Y-152076497D01*
X156261955Y-152044601D01*
X156058049Y-152044601D01*
X155856664Y-152076497D01*
X155662742Y-152139505D01*
X155481064Y-152232074D01*
X155481060Y-152232076D01*
X155440649Y-152261437D01*
X156007783Y-152828571D01*
X155954117Y-152842951D01*
X155832487Y-152913175D01*
X155733176Y-153012486D01*
X155662952Y-153134116D01*
X155648572Y-153187782D01*
X155081438Y-152620648D01*
X155052077Y-152661059D01*
X155052075Y-152661063D01*
X154959506Y-152842741D01*
X154896498Y-153036663D01*
X154864602Y-153238047D01*
X154346563Y-153238047D01*
X154318654Y-153061838D01*
X154307996Y-153029036D01*
X154260873Y-152884006D01*
X154175986Y-152717406D01*
X154066082Y-152566136D01*
X153933868Y-152433922D01*
X153782598Y-152324018D01*
X153782597Y-152324017D01*
X153782595Y-152324016D01*
X153615998Y-152239131D01*
X153438165Y-152181349D01*
X153253496Y-152152101D01*
X153253493Y-152152101D01*
X153066513Y-152152101D01*
X153066510Y-152152101D01*
X152881840Y-152181349D01*
X152704007Y-152239131D01*
X152537410Y-152324016D01*
X152386139Y-152433921D01*
X152253923Y-152566137D01*
X152144018Y-152717408D01*
X152059133Y-152884005D01*
X152001351Y-153061838D01*
X151972103Y-153246507D01*
X143585997Y-153246507D01*
X143582746Y-152328699D01*
X149436104Y-152328699D01*
X149436104Y-152471300D01*
X149450844Y-152545400D01*
X149463698Y-152610025D01*
X149463923Y-152611153D01*
X149463923Y-152611155D01*
X149518490Y-152742892D01*
X149585346Y-152842951D01*
X149597714Y-152861460D01*
X149698544Y-152962290D01*
X149817109Y-153041512D01*
X149948850Y-153096081D01*
X150088706Y-153123900D01*
X150088707Y-153123900D01*
X150231301Y-153123900D01*
X150231302Y-153123900D01*
X150371158Y-153096081D01*
X150502899Y-153041512D01*
X150621464Y-152962290D01*
X150722294Y-152861460D01*
X150801516Y-152742895D01*
X150856085Y-152611154D01*
X150883904Y-152471298D01*
X150883904Y-152328702D01*
X150856085Y-152188846D01*
X150824004Y-152111395D01*
X150801517Y-152057107D01*
X150798955Y-152053273D01*
X150722294Y-151938540D01*
X150621464Y-151837710D01*
X150609775Y-151829900D01*
X150502896Y-151758486D01*
X150371158Y-151703919D01*
X150231304Y-151676100D01*
X150231302Y-151676100D01*
X150088706Y-151676100D01*
X150088703Y-151676100D01*
X149948850Y-151703919D01*
X149948848Y-151703919D01*
X149817111Y-151758486D01*
X149698547Y-151837707D01*
X149597711Y-151938543D01*
X149518490Y-152057107D01*
X149463923Y-152188844D01*
X149463923Y-152188846D01*
X149436104Y-152328699D01*
X143582746Y-152328699D01*
X143580165Y-151599999D01*
X143580059Y-151570099D01*
X163209500Y-151570099D01*
X163209500Y-151829900D01*
X163250138Y-152086488D01*
X163329428Y-152330515D01*
X163330421Y-152333572D01*
X163363256Y-152398014D01*
X163446509Y-152561408D01*
X163448366Y-152565051D01*
X163601069Y-152775229D01*
X163784771Y-152958931D01*
X163994949Y-153111634D01*
X164226428Y-153229579D01*
X164473507Y-153309860D01*
X164473508Y-153309860D01*
X164473511Y-153309861D01*
X164730100Y-153350500D01*
X164730103Y-153350500D01*
X164989900Y-153350500D01*
X165246488Y-153309861D01*
X165246489Y-153309860D01*
X165246493Y-153309860D01*
X165493572Y-153229579D01*
X165725051Y-153111634D01*
X165863141Y-153011306D01*
X166529500Y-153011306D01*
X166529500Y-153188693D01*
X166541000Y-153246507D01*
X166562312Y-153353649D01*
X166564106Y-153362665D01*
X166564106Y-153362667D01*
X166631985Y-153526544D01*
X166631985Y-153526545D01*
X166726180Y-153667516D01*
X166730536Y-153674035D01*
X166855965Y-153799464D01*
X167003453Y-153898013D01*
X167003454Y-153898013D01*
X167003455Y-153898014D01*
X167026113Y-153907399D01*
X167167334Y-153965894D01*
X167341309Y-154000500D01*
X167341310Y-154000500D01*
X167518690Y-154000500D01*
X167518691Y-154000500D01*
X167692666Y-153965894D01*
X167856547Y-153898013D01*
X168004035Y-153799464D01*
X168129464Y-153674035D01*
X168228013Y-153526547D01*
X168295894Y-153362666D01*
X168330500Y-153188691D01*
X168330500Y-153011309D01*
X168330499Y-153011306D01*
X168529500Y-153011306D01*
X168529500Y-153188693D01*
X168541000Y-153246507D01*
X168562312Y-153353649D01*
X168564106Y-153362665D01*
X168564106Y-153362667D01*
X168631985Y-153526544D01*
X168631985Y-153526545D01*
X168726180Y-153667516D01*
X168730536Y-153674035D01*
X168855965Y-153799464D01*
X169003453Y-153898013D01*
X169003454Y-153898013D01*
X169003455Y-153898014D01*
X169026113Y-153907399D01*
X169167334Y-153965894D01*
X169341309Y-154000500D01*
X169341310Y-154000500D01*
X169518690Y-154000500D01*
X169518691Y-154000500D01*
X169668977Y-153970606D01*
X170918603Y-153970606D01*
X170952535Y-153993279D01*
X171135976Y-154069262D01*
X171330718Y-154107999D01*
X171330722Y-154108000D01*
X171529278Y-154108000D01*
X171529281Y-154107999D01*
X171724022Y-154069262D01*
X171724024Y-154069262D01*
X171743598Y-154061155D01*
X171907465Y-153993279D01*
X171907467Y-153993278D01*
X171941395Y-153970606D01*
X171429999Y-153459210D01*
X170918603Y-153970606D01*
X169668977Y-153970606D01*
X169692666Y-153965894D01*
X169856547Y-153898013D01*
X170004035Y-153799464D01*
X170129464Y-153674035D01*
X170228013Y-153526547D01*
X170280357Y-153400174D01*
X170320093Y-153353649D01*
X170379588Y-153339365D01*
X170436116Y-153362779D01*
X170463285Y-153400174D01*
X170536721Y-153577466D01*
X170559392Y-153611395D01*
X171080000Y-153090788D01*
X171080000Y-153146078D01*
X171103852Y-153235095D01*
X171149930Y-153314905D01*
X171215095Y-153380070D01*
X171294905Y-153426148D01*
X171383922Y-153450000D01*
X171476078Y-153450000D01*
X171565095Y-153426148D01*
X171644905Y-153380070D01*
X171710070Y-153314905D01*
X171756148Y-153235095D01*
X171780000Y-153146078D01*
X171780000Y-153090789D01*
X172300606Y-153611395D01*
X172323278Y-153577467D01*
X172323279Y-153577465D01*
X172396714Y-153400175D01*
X172436450Y-153353649D01*
X172495945Y-153339365D01*
X172552473Y-153362779D01*
X172579642Y-153400175D01*
X172631985Y-153526544D01*
X172631985Y-153526545D01*
X172726180Y-153667516D01*
X172730536Y-153674035D01*
X172855965Y-153799464D01*
X173003453Y-153898013D01*
X173003454Y-153898013D01*
X173003455Y-153898014D01*
X173026113Y-153907399D01*
X173167334Y-153965894D01*
X173341309Y-154000500D01*
X173341310Y-154000500D01*
X173518690Y-154000500D01*
X173518691Y-154000500D01*
X173692666Y-153965894D01*
X173856547Y-153898013D01*
X174004035Y-153799464D01*
X174129464Y-153674035D01*
X174228013Y-153526547D01*
X174295894Y-153362666D01*
X174330500Y-153188691D01*
X174330500Y-153011309D01*
X174295894Y-152837334D01*
X174228014Y-152673455D01*
X174228014Y-152673454D01*
X174129464Y-152525965D01*
X174004034Y-152400535D01*
X173856544Y-152301985D01*
X173692667Y-152234106D01*
X173692666Y-152234106D01*
X173634674Y-152222570D01*
X173518693Y-152199500D01*
X173518691Y-152199500D01*
X173341309Y-152199500D01*
X173341301Y-152199500D01*
X173311782Y-152205372D01*
X173251021Y-152198179D01*
X173206092Y-152156646D01*
X173194156Y-152096636D01*
X173210156Y-152053271D01*
X173215446Y-152045354D01*
X173228013Y-152026547D01*
X173295894Y-151862666D01*
X173330500Y-151688691D01*
X173330500Y-151511309D01*
X173330499Y-151511306D01*
X174029500Y-151511306D01*
X174029500Y-151688693D01*
X174064106Y-151862665D01*
X174064106Y-151862667D01*
X174131985Y-152026544D01*
X174131985Y-152026545D01*
X174215880Y-152152101D01*
X174230536Y-152174035D01*
X174355965Y-152299464D01*
X174503453Y-152398013D01*
X174503454Y-152398013D01*
X174503455Y-152398014D01*
X174636823Y-152453256D01*
X174683349Y-152492992D01*
X174697633Y-152552487D01*
X174681253Y-152599722D01*
X174631985Y-152673454D01*
X174631985Y-152673455D01*
X174564106Y-152837332D01*
X174564106Y-152837334D01*
X174529500Y-153011306D01*
X174529500Y-153188693D01*
X174541000Y-153246507D01*
X174562312Y-153353649D01*
X174564106Y-153362665D01*
X174564106Y-153362667D01*
X174631985Y-153526544D01*
X174631985Y-153526545D01*
X174726180Y-153667516D01*
X174730536Y-153674035D01*
X174855965Y-153799464D01*
X175003453Y-153898013D01*
X175003454Y-153898013D01*
X175003455Y-153898014D01*
X175026113Y-153907399D01*
X175167334Y-153965894D01*
X175341309Y-154000500D01*
X175341310Y-154000500D01*
X175518690Y-154000500D01*
X175518691Y-154000500D01*
X175692666Y-153965894D01*
X175856547Y-153898013D01*
X176004035Y-153799464D01*
X176129464Y-153674035D01*
X176228013Y-153526547D01*
X176295894Y-153362666D01*
X176330500Y-153188691D01*
X176330500Y-153011309D01*
X176295894Y-152837334D01*
X176228014Y-152673455D01*
X176228014Y-152673454D01*
X176129464Y-152525965D01*
X176004034Y-152400535D01*
X175856546Y-152301986D01*
X175723176Y-152246743D01*
X175676651Y-152207006D01*
X175662367Y-152147512D01*
X175678746Y-152100279D01*
X175728013Y-152026547D01*
X175795894Y-151862666D01*
X175830500Y-151688691D01*
X175830500Y-151570099D01*
X176349500Y-151570099D01*
X176349500Y-151829900D01*
X176390138Y-152086488D01*
X176469428Y-152330515D01*
X176470421Y-152333572D01*
X176503256Y-152398014D01*
X176586509Y-152561408D01*
X176588366Y-152565051D01*
X176741069Y-152775229D01*
X176924771Y-152958931D01*
X177134949Y-153111634D01*
X177366428Y-153229579D01*
X177613507Y-153309860D01*
X177613508Y-153309860D01*
X177613511Y-153309861D01*
X177870100Y-153350500D01*
X177870103Y-153350500D01*
X178129900Y-153350500D01*
X178386488Y-153309861D01*
X178386489Y-153309860D01*
X178386493Y-153309860D01*
X178633572Y-153229579D01*
X178865051Y-153111634D01*
X179075229Y-152958931D01*
X179258931Y-152775229D01*
X179411634Y-152565051D01*
X179513074Y-152365964D01*
X202886927Y-152365964D01*
X202886927Y-152489181D01*
X202910963Y-152610023D01*
X202958115Y-152723858D01*
X202958116Y-152723859D01*
X203026569Y-152826306D01*
X203113694Y-152913431D01*
X203216141Y-152981884D01*
X203329975Y-153029036D01*
X203450821Y-153053073D01*
X203450823Y-153053073D01*
X203574031Y-153053073D01*
X203574033Y-153053073D01*
X203694879Y-153029036D01*
X203808713Y-152981884D01*
X203911160Y-152913431D01*
X203998285Y-152826306D01*
X204066738Y-152723859D01*
X204113890Y-152610025D01*
X204137927Y-152489179D01*
X204137927Y-152365967D01*
X204113890Y-152245121D01*
X204066738Y-152131287D01*
X203998285Y-152028840D01*
X203911160Y-151941715D01*
X203842706Y-151895975D01*
X203808712Y-151873261D01*
X203694877Y-151826109D01*
X203574035Y-151802073D01*
X203574033Y-151802073D01*
X203450821Y-151802073D01*
X203450818Y-151802073D01*
X203329976Y-151826109D01*
X203216141Y-151873261D01*
X203113694Y-151941715D01*
X203113690Y-151941718D01*
X203026572Y-152028836D01*
X203026569Y-152028840D01*
X202958115Y-152131287D01*
X202910963Y-152245122D01*
X202886927Y-152365964D01*
X179513074Y-152365964D01*
X179529579Y-152333572D01*
X179530572Y-152330517D01*
X179530573Y-152330515D01*
X179530573Y-152330512D01*
X179609860Y-152086493D01*
X179611443Y-152076497D01*
X179650500Y-151829900D01*
X179650500Y-151570099D01*
X179609861Y-151313511D01*
X179607412Y-151305975D01*
X179556098Y-151148046D01*
X205925901Y-151148046D01*
X205925901Y-151351953D01*
X205957797Y-151553337D01*
X206020805Y-151747259D01*
X206113374Y-151928937D01*
X206113378Y-151928942D01*
X206142737Y-151969351D01*
X206709870Y-151402217D01*
X206724251Y-151455885D01*
X206794475Y-151577515D01*
X206893786Y-151676826D01*
X207015416Y-151747050D01*
X207069080Y-151761429D01*
X206501949Y-152328562D01*
X206542361Y-152357924D01*
X206542369Y-152357929D01*
X206724041Y-152450495D01*
X206917963Y-152513503D01*
X207119348Y-152545400D01*
X207323254Y-152545400D01*
X207524638Y-152513503D01*
X207718563Y-152450494D01*
X207718569Y-152450492D01*
X207900237Y-152357926D01*
X207940652Y-152328562D01*
X207373519Y-151761429D01*
X207427186Y-151747050D01*
X207548816Y-151676826D01*
X207648127Y-151577515D01*
X207718351Y-151455885D01*
X207732730Y-151402218D01*
X208299863Y-151969351D01*
X208329227Y-151928936D01*
X208421793Y-151747268D01*
X208421795Y-151747262D01*
X208484804Y-151553337D01*
X208516701Y-151351953D01*
X208516701Y-151148046D01*
X208484804Y-150946662D01*
X208421796Y-150752740D01*
X208329230Y-150571068D01*
X208329225Y-150571060D01*
X208299863Y-150530648D01*
X207732730Y-151097779D01*
X207718351Y-151044115D01*
X207648127Y-150922485D01*
X207548816Y-150823174D01*
X207427186Y-150752950D01*
X207373518Y-150738569D01*
X207940652Y-150171436D01*
X207900243Y-150142077D01*
X207900238Y-150142073D01*
X207718560Y-150049504D01*
X207524638Y-149986496D01*
X207323254Y-149954600D01*
X207119348Y-149954600D01*
X206917963Y-149986496D01*
X206724041Y-150049504D01*
X206542363Y-150142073D01*
X206542359Y-150142075D01*
X206501948Y-150171436D01*
X207069082Y-150738570D01*
X207015416Y-150752950D01*
X206893786Y-150823174D01*
X206794475Y-150922485D01*
X206724251Y-151044115D01*
X206709871Y-151097781D01*
X206142737Y-150530647D01*
X206113376Y-150571058D01*
X206113374Y-150571062D01*
X206020805Y-150752740D01*
X205957797Y-150946662D01*
X205925901Y-151148046D01*
X179556098Y-151148046D01*
X179529579Y-151066428D01*
X179411634Y-150834949D01*
X179258931Y-150624771D01*
X179075229Y-150441069D01*
X178865051Y-150288366D01*
X178865050Y-150288365D01*
X178865048Y-150288364D01*
X178757964Y-150233802D01*
X178633572Y-150170421D01*
X178633569Y-150170420D01*
X178633567Y-150170419D01*
X178526259Y-150135553D01*
X178416503Y-150099890D01*
X178386488Y-150090138D01*
X178129900Y-150049500D01*
X178129897Y-150049500D01*
X177870103Y-150049500D01*
X177870100Y-150049500D01*
X177613511Y-150090138D01*
X177366432Y-150170419D01*
X177134951Y-150288364D01*
X176924772Y-150441068D01*
X176741068Y-150624772D01*
X176588364Y-150834951D01*
X176470419Y-151066432D01*
X176390138Y-151313511D01*
X176349500Y-151570099D01*
X175830500Y-151570099D01*
X175830500Y-151511309D01*
X175795894Y-151337334D01*
X175755904Y-151240788D01*
X175728014Y-151173455D01*
X175728014Y-151173454D01*
X175629464Y-151025965D01*
X175504034Y-150900535D01*
X175356544Y-150801985D01*
X175192666Y-150734106D01*
X175018693Y-150699500D01*
X175018691Y-150699500D01*
X174841309Y-150699500D01*
X174841306Y-150699500D01*
X174667334Y-150734106D01*
X174667332Y-150734106D01*
X174503455Y-150801985D01*
X174503454Y-150801985D01*
X174355965Y-150900535D01*
X174230535Y-151025965D01*
X174131985Y-151173454D01*
X174131985Y-151173455D01*
X174064106Y-151337332D01*
X174064106Y-151337334D01*
X174029500Y-151511306D01*
X173330499Y-151511306D01*
X173295894Y-151337334D01*
X173255904Y-151240788D01*
X173228014Y-151173455D01*
X173228014Y-151173454D01*
X173129464Y-151025965D01*
X173004034Y-150900535D01*
X172856544Y-150801985D01*
X172692666Y-150734106D01*
X172518693Y-150699500D01*
X172518691Y-150699500D01*
X172341309Y-150699500D01*
X172341306Y-150699500D01*
X172167334Y-150734106D01*
X172167332Y-150734106D01*
X172003455Y-150801985D01*
X172003454Y-150801985D01*
X171855965Y-150900535D01*
X171730535Y-151025965D01*
X171631985Y-151173454D01*
X171631985Y-151173455D01*
X171564106Y-151337332D01*
X171564106Y-151337334D01*
X171529500Y-151511306D01*
X171529500Y-151688693D01*
X171564106Y-151862665D01*
X171564106Y-151862667D01*
X171602399Y-151955115D01*
X171602715Y-151959139D01*
X171605090Y-151962407D01*
X171605090Y-151989311D01*
X171607199Y-152016112D01*
X171605090Y-152019553D01*
X171605090Y-152023593D01*
X171589279Y-152045354D01*
X171575230Y-152068281D01*
X171571499Y-152069826D01*
X171569126Y-152073093D01*
X171543549Y-152081403D01*
X171518702Y-152091695D01*
X171510935Y-152092000D01*
X171349065Y-152092000D01*
X171290874Y-152073093D01*
X171254910Y-152023593D01*
X171254910Y-151962407D01*
X171257601Y-151955115D01*
X171291505Y-151873261D01*
X171295894Y-151862666D01*
X171330500Y-151688691D01*
X171330500Y-151511309D01*
X171295894Y-151337334D01*
X171255904Y-151240788D01*
X171228014Y-151173455D01*
X171228014Y-151173454D01*
X171129464Y-151025965D01*
X171004034Y-150900535D01*
X170856544Y-150801985D01*
X170692666Y-150734106D01*
X170518693Y-150699500D01*
X170518691Y-150699500D01*
X170341309Y-150699500D01*
X170341306Y-150699500D01*
X170167334Y-150734106D01*
X170167332Y-150734106D01*
X170003455Y-150801985D01*
X170003454Y-150801985D01*
X169855965Y-150900535D01*
X169730535Y-151025965D01*
X169631985Y-151173454D01*
X169631985Y-151173455D01*
X169564106Y-151337332D01*
X169564106Y-151337334D01*
X169529500Y-151511306D01*
X169529500Y-151688693D01*
X169564106Y-151862665D01*
X169564106Y-151862667D01*
X169629090Y-152019553D01*
X169631987Y-152026547D01*
X169644554Y-152045354D01*
X169649845Y-152053273D01*
X169666453Y-152112161D01*
X169645275Y-152169565D01*
X169594401Y-152203557D01*
X169548216Y-152205372D01*
X169518696Y-152199500D01*
X169518691Y-152199500D01*
X169341309Y-152199500D01*
X169341306Y-152199500D01*
X169167334Y-152234106D01*
X169167332Y-152234106D01*
X169003455Y-152301985D01*
X169003454Y-152301985D01*
X168855965Y-152400535D01*
X168730535Y-152525965D01*
X168631985Y-152673454D01*
X168631985Y-152673455D01*
X168564106Y-152837332D01*
X168564106Y-152837334D01*
X168529500Y-153011306D01*
X168330499Y-153011306D01*
X168295894Y-152837334D01*
X168228477Y-152674573D01*
X168223676Y-152613576D01*
X168255646Y-152561408D01*
X168282056Y-152545223D01*
X168407470Y-152493276D01*
X168441395Y-152470606D01*
X167920790Y-151950000D01*
X167976078Y-151950000D01*
X168065095Y-151926148D01*
X168144905Y-151880070D01*
X168210070Y-151814905D01*
X168256148Y-151735095D01*
X168280000Y-151646078D01*
X168280000Y-151599999D01*
X168289210Y-151599999D01*
X168800606Y-152111395D01*
X168823278Y-152077467D01*
X168823279Y-152077465D01*
X168899262Y-151894024D01*
X168899262Y-151894022D01*
X168937999Y-151699281D01*
X168938000Y-151699277D01*
X168938000Y-151500722D01*
X168937999Y-151500718D01*
X168899262Y-151305977D01*
X168899262Y-151305975D01*
X168823279Y-151122535D01*
X168800606Y-151088603D01*
X168289210Y-151599999D01*
X168280000Y-151599999D01*
X168280000Y-151553922D01*
X168256148Y-151464905D01*
X168210070Y-151385095D01*
X168144905Y-151319930D01*
X168065095Y-151273852D01*
X167976078Y-151250000D01*
X167883922Y-151250000D01*
X167794905Y-151273852D01*
X167715095Y-151319930D01*
X167649930Y-151385095D01*
X167603852Y-151464905D01*
X167580000Y-151553922D01*
X167580000Y-151609210D01*
X167059392Y-151088603D01*
X167036720Y-151122535D01*
X166960737Y-151305975D01*
X166960737Y-151305977D01*
X166922000Y-151500718D01*
X166922000Y-151699281D01*
X166960737Y-151894022D01*
X166960737Y-151894024D01*
X167036720Y-152077464D01*
X167079990Y-152142222D01*
X167096598Y-152201110D01*
X167075420Y-152258513D01*
X167035561Y-152288686D01*
X167003458Y-152301984D01*
X167003454Y-152301985D01*
X166855965Y-152400535D01*
X166730535Y-152525965D01*
X166631985Y-152673454D01*
X166631985Y-152673455D01*
X166564106Y-152837332D01*
X166564106Y-152837334D01*
X166529500Y-153011306D01*
X165863141Y-153011306D01*
X165935229Y-152958931D01*
X166118931Y-152775229D01*
X166271634Y-152565051D01*
X166389579Y-152333572D01*
X166469860Y-152086493D01*
X166471443Y-152076497D01*
X166510500Y-151829900D01*
X166510500Y-151570099D01*
X166469861Y-151313511D01*
X166467413Y-151305975D01*
X166389579Y-151066428D01*
X166300086Y-150890788D01*
X166271635Y-150834950D01*
X166264026Y-150824478D01*
X166263079Y-150823174D01*
X166194942Y-150729392D01*
X167418603Y-150729392D01*
X167929999Y-151240788D01*
X168441395Y-150729392D01*
X168407464Y-150706720D01*
X168224023Y-150630737D01*
X168029281Y-150592000D01*
X167830718Y-150592000D01*
X167635977Y-150630737D01*
X167635975Y-150630737D01*
X167452535Y-150706720D01*
X167418603Y-150729392D01*
X166194942Y-150729392D01*
X166118931Y-150624771D01*
X165935229Y-150441069D01*
X165725051Y-150288366D01*
X165725050Y-150288365D01*
X165725048Y-150288364D01*
X165617964Y-150233802D01*
X165493572Y-150170421D01*
X165493569Y-150170420D01*
X165493567Y-150170419D01*
X165246488Y-150090138D01*
X164989900Y-150049500D01*
X164989897Y-150049500D01*
X164730103Y-150049500D01*
X164730100Y-150049500D01*
X164473511Y-150090138D01*
X164226432Y-150170419D01*
X163994951Y-150288364D01*
X163784772Y-150441068D01*
X163601068Y-150624772D01*
X163448364Y-150834951D01*
X163330419Y-151066432D01*
X163250138Y-151313511D01*
X163209500Y-151570099D01*
X143580059Y-151570099D01*
X143580047Y-151566564D01*
X143574564Y-150018391D01*
X190074500Y-150018391D01*
X190074500Y-150141608D01*
X190098536Y-150262450D01*
X190145688Y-150376285D01*
X190145689Y-150376286D01*
X190214142Y-150478733D01*
X190301267Y-150565858D01*
X190403714Y-150634311D01*
X190517548Y-150681463D01*
X190638394Y-150705500D01*
X190638396Y-150705500D01*
X190761604Y-150705500D01*
X190761606Y-150705500D01*
X190882452Y-150681463D01*
X190996286Y-150634311D01*
X191098733Y-150565858D01*
X191185858Y-150478733D01*
X191254311Y-150376286D01*
X191301463Y-150262452D01*
X191325500Y-150141606D01*
X191325500Y-150018394D01*
X191301463Y-149897548D01*
X191254311Y-149783714D01*
X191185858Y-149681267D01*
X191098733Y-149594142D01*
X190996286Y-149525689D01*
X190996287Y-149525689D01*
X190996285Y-149525688D01*
X190882450Y-149478536D01*
X190761608Y-149454500D01*
X190761606Y-149454500D01*
X190638394Y-149454500D01*
X190638391Y-149454500D01*
X190517549Y-149478536D01*
X190403714Y-149525688D01*
X190301267Y-149594142D01*
X190301263Y-149594145D01*
X190214145Y-149681263D01*
X190214142Y-149681267D01*
X190145688Y-149783714D01*
X190098536Y-149897549D01*
X190074500Y-150018391D01*
X143574564Y-150018391D01*
X143571988Y-149291181D01*
X143566467Y-147732267D01*
X202938376Y-147732267D01*
X202938376Y-147855484D01*
X202962412Y-147976326D01*
X203009564Y-148090161D01*
X203009565Y-148090162D01*
X203078018Y-148192609D01*
X203165143Y-148279734D01*
X203267590Y-148348187D01*
X203381424Y-148395339D01*
X203502270Y-148419376D01*
X203502272Y-148419376D01*
X203625480Y-148419376D01*
X203625482Y-148419376D01*
X203746328Y-148395339D01*
X203860162Y-148348187D01*
X203962609Y-148279734D01*
X204049734Y-148192609D01*
X204079510Y-148148046D01*
X205925901Y-148148046D01*
X205925901Y-148351953D01*
X205957797Y-148553337D01*
X206020805Y-148747259D01*
X206113374Y-148928937D01*
X206113378Y-148928942D01*
X206142737Y-148969351D01*
X206709870Y-148402217D01*
X206724251Y-148455885D01*
X206794475Y-148577515D01*
X206893786Y-148676826D01*
X207015416Y-148747050D01*
X207069080Y-148761429D01*
X206501949Y-149328562D01*
X206542361Y-149357924D01*
X206542369Y-149357929D01*
X206724041Y-149450495D01*
X206917963Y-149513503D01*
X207119348Y-149545400D01*
X207323254Y-149545400D01*
X207524638Y-149513503D01*
X207718563Y-149450494D01*
X207718569Y-149450492D01*
X207900237Y-149357926D01*
X207940652Y-149328562D01*
X207373519Y-148761429D01*
X207427186Y-148747050D01*
X207548816Y-148676826D01*
X207648127Y-148577515D01*
X207718351Y-148455885D01*
X207732730Y-148402218D01*
X208299863Y-148969351D01*
X208329227Y-148928936D01*
X208421793Y-148747268D01*
X208421795Y-148747262D01*
X208484804Y-148553337D01*
X208516701Y-148351953D01*
X208516701Y-148148046D01*
X208484804Y-147946662D01*
X208421796Y-147752740D01*
X208329230Y-147571068D01*
X208329225Y-147571060D01*
X208299863Y-147530648D01*
X207732730Y-148097779D01*
X207718351Y-148044115D01*
X207648127Y-147922485D01*
X207548816Y-147823174D01*
X207427186Y-147752950D01*
X207373518Y-147738569D01*
X207940652Y-147171436D01*
X207900243Y-147142077D01*
X207900238Y-147142073D01*
X207718560Y-147049504D01*
X207524638Y-146986496D01*
X207323254Y-146954600D01*
X207119348Y-146954600D01*
X206917963Y-146986496D01*
X206724041Y-147049504D01*
X206542363Y-147142073D01*
X206542359Y-147142075D01*
X206501948Y-147171436D01*
X207069082Y-147738570D01*
X207015416Y-147752950D01*
X206893786Y-147823174D01*
X206794475Y-147922485D01*
X206724251Y-148044115D01*
X206709871Y-148097781D01*
X206142737Y-147530647D01*
X206113376Y-147571058D01*
X206113374Y-147571062D01*
X206020805Y-147752740D01*
X205957797Y-147946662D01*
X205925901Y-148148046D01*
X204079510Y-148148046D01*
X204118187Y-148090162D01*
X204165339Y-147976328D01*
X204189376Y-147855482D01*
X204189376Y-147732270D01*
X204165339Y-147611424D01*
X204118187Y-147497590D01*
X204049734Y-147395143D01*
X203962609Y-147308018D01*
X203860162Y-147239565D01*
X203860163Y-147239565D01*
X203860161Y-147239564D01*
X203746326Y-147192412D01*
X203625484Y-147168376D01*
X203625482Y-147168376D01*
X203502270Y-147168376D01*
X203502267Y-147168376D01*
X203381425Y-147192412D01*
X203267590Y-147239564D01*
X203165143Y-147308018D01*
X203165139Y-147308021D01*
X203078021Y-147395139D01*
X203078018Y-147395143D01*
X203009564Y-147497590D01*
X202962412Y-147611425D01*
X202938376Y-147732267D01*
X143566467Y-147732267D01*
X143566451Y-147727758D01*
X143557344Y-145156507D01*
X206033401Y-145156507D01*
X206033401Y-145343494D01*
X206062649Y-145528163D01*
X206062651Y-145528168D01*
X206120431Y-145705996D01*
X206205318Y-145872596D01*
X206315222Y-146023866D01*
X206447436Y-146156080D01*
X206598706Y-146265984D01*
X206765306Y-146350871D01*
X206943134Y-146408651D01*
X206943135Y-146408651D01*
X206943138Y-146408652D01*
X207127808Y-146437901D01*
X207127811Y-146437901D01*
X207314794Y-146437901D01*
X207499463Y-146408652D01*
X207499464Y-146408651D01*
X207499468Y-146408651D01*
X207677296Y-146350871D01*
X207843896Y-146265984D01*
X207995166Y-146156080D01*
X208127380Y-146023866D01*
X208237284Y-145872596D01*
X208322171Y-145705996D01*
X208379951Y-145528168D01*
X208409201Y-145343491D01*
X208409201Y-145156511D01*
X208409201Y-145156507D01*
X208379952Y-144971838D01*
X208379951Y-144971834D01*
X208322171Y-144794006D01*
X208237284Y-144627406D01*
X208127380Y-144476136D01*
X207995166Y-144343922D01*
X207843896Y-144234018D01*
X207843895Y-144234017D01*
X207843893Y-144234016D01*
X207677296Y-144149131D01*
X207499463Y-144091349D01*
X207314794Y-144062101D01*
X207314791Y-144062101D01*
X207127811Y-144062101D01*
X207127808Y-144062101D01*
X206943138Y-144091349D01*
X206765305Y-144149131D01*
X206598708Y-144234016D01*
X206447437Y-144343921D01*
X206315221Y-144476137D01*
X206205316Y-144627408D01*
X206120431Y-144794005D01*
X206062649Y-144971838D01*
X206033401Y-145156507D01*
X143557344Y-145156507D01*
X143557331Y-145152972D01*
X143546752Y-142166191D01*
X204410400Y-142166191D01*
X204410400Y-142333808D01*
X204443100Y-142498197D01*
X204443100Y-142498199D01*
X204507239Y-142653047D01*
X204507245Y-142653058D01*
X204563267Y-142736899D01*
X204600363Y-142792417D01*
X204718883Y-142910937D01*
X204801969Y-142966453D01*
X204858241Y-143004054D01*
X204858252Y-143004060D01*
X204915454Y-143027753D01*
X205013102Y-143068200D01*
X205177494Y-143100900D01*
X205177495Y-143100900D01*
X205345105Y-143100900D01*
X205345106Y-143100900D01*
X205509498Y-143068200D01*
X205664352Y-143004058D01*
X205803717Y-142910937D01*
X205922237Y-142792417D01*
X206015358Y-142653052D01*
X206079500Y-142498198D01*
X206112200Y-142333806D01*
X206112200Y-142166194D01*
X206079500Y-142001802D01*
X206015358Y-141846948D01*
X206015357Y-141846946D01*
X206015354Y-141846941D01*
X205977753Y-141790669D01*
X205922237Y-141707583D01*
X205803717Y-141589063D01*
X205748199Y-141551967D01*
X205664358Y-141495945D01*
X205664347Y-141495939D01*
X205509498Y-141431800D01*
X205345108Y-141399100D01*
X205345106Y-141399100D01*
X205177494Y-141399100D01*
X205177491Y-141399100D01*
X205013102Y-141431800D01*
X205013100Y-141431800D01*
X204858252Y-141495939D01*
X204858241Y-141495945D01*
X204718883Y-141589063D01*
X204718879Y-141589066D01*
X204600366Y-141707579D01*
X204600363Y-141707583D01*
X204507245Y-141846941D01*
X204507239Y-141846952D01*
X204443100Y-142001800D01*
X204443100Y-142001802D01*
X204410400Y-142166191D01*
X143546752Y-142166191D01*
X143546736Y-142161681D01*
X143543112Y-141138391D01*
X163874500Y-141138391D01*
X163874500Y-141261608D01*
X163898536Y-141382450D01*
X163945688Y-141496285D01*
X163945689Y-141496286D01*
X164014142Y-141598733D01*
X164101267Y-141685858D01*
X164203714Y-141754311D01*
X164317548Y-141801463D01*
X164438394Y-141825500D01*
X164438396Y-141825500D01*
X164561604Y-141825500D01*
X164561606Y-141825500D01*
X164682452Y-141801463D01*
X164796286Y-141754311D01*
X164898733Y-141685858D01*
X164985858Y-141598733D01*
X165054311Y-141496286D01*
X165101463Y-141382452D01*
X165125500Y-141261606D01*
X165125500Y-141138394D01*
X165101463Y-141017548D01*
X165054311Y-140903714D01*
X164985858Y-140801267D01*
X164898733Y-140714142D01*
X164796286Y-140645689D01*
X164796287Y-140645689D01*
X164796285Y-140645688D01*
X164682450Y-140598536D01*
X164561608Y-140574500D01*
X164561606Y-140574500D01*
X164438394Y-140574500D01*
X164438391Y-140574500D01*
X164317549Y-140598536D01*
X164203714Y-140645688D01*
X164101267Y-140714142D01*
X164101263Y-140714145D01*
X164014145Y-140801263D01*
X164014142Y-140801267D01*
X163945688Y-140903714D01*
X163898536Y-141017549D01*
X163874500Y-141138391D01*
X143543112Y-141138391D01*
X143543096Y-141133882D01*
X143538386Y-139804211D01*
X162663987Y-139804211D01*
X162786188Y-139854830D01*
X162786194Y-139854832D01*
X162927803Y-139882999D01*
X162927808Y-139883000D01*
X163072192Y-139883000D01*
X163072196Y-139882999D01*
X163213805Y-139854832D01*
X163213807Y-139854831D01*
X163336012Y-139804211D01*
X163000000Y-139468198D01*
X162663987Y-139804211D01*
X143538386Y-139804211D01*
X143538272Y-139771977D01*
X143536696Y-139327090D01*
X162241107Y-139327090D01*
X162306861Y-139404491D01*
X162309848Y-139411758D01*
X162315823Y-139416861D01*
X162322874Y-139430700D01*
X162345786Y-139486012D01*
X162345787Y-139486012D01*
X162681801Y-139149999D01*
X162661911Y-139130109D01*
X162900000Y-139130109D01*
X162900000Y-139169891D01*
X162915224Y-139206645D01*
X162943355Y-139234776D01*
X162980109Y-139250000D01*
X163019891Y-139250000D01*
X163056645Y-139234776D01*
X163084776Y-139206645D01*
X163100000Y-139169891D01*
X163100000Y-139149999D01*
X163318198Y-139149999D01*
X163654211Y-139486012D01*
X163677123Y-139430701D01*
X163716860Y-139384175D01*
X163730701Y-139377123D01*
X163786012Y-139354211D01*
X163450000Y-139018198D01*
X163420991Y-139047206D01*
X163318198Y-139149999D01*
X163100000Y-139149999D01*
X163100000Y-139130109D01*
X163084776Y-139093355D01*
X163056645Y-139065224D01*
X163019891Y-139050000D01*
X162980109Y-139050000D01*
X162943355Y-139065224D01*
X162915224Y-139093355D01*
X162900000Y-139130109D01*
X162661911Y-139130109D01*
X162579009Y-139047207D01*
X162549999Y-139018198D01*
X162549998Y-139018198D01*
X162241107Y-139327090D01*
X143536696Y-139327090D01*
X143536678Y-139321977D01*
X143534219Y-138627803D01*
X161817000Y-138627803D01*
X161817000Y-138772196D01*
X161845168Y-138913807D01*
X161845168Y-138913809D01*
X161895786Y-139036012D01*
X161895787Y-139036012D01*
X162231800Y-138700000D01*
X162211909Y-138680109D01*
X162450000Y-138680109D01*
X162450000Y-138719891D01*
X162465224Y-138756645D01*
X162493355Y-138784776D01*
X162530109Y-138800000D01*
X162569891Y-138800000D01*
X162606645Y-138784776D01*
X162634776Y-138756645D01*
X162650000Y-138719891D01*
X162650000Y-138699999D01*
X162868198Y-138699999D01*
X162884743Y-138716544D01*
X162884742Y-138716544D01*
X162999999Y-138831801D01*
X163115259Y-138716543D01*
X163131801Y-138699999D01*
X163111911Y-138680109D01*
X163350000Y-138680109D01*
X163350000Y-138719891D01*
X163365224Y-138756645D01*
X163393355Y-138784776D01*
X163430109Y-138800000D01*
X163469891Y-138800000D01*
X163506645Y-138784776D01*
X163534776Y-138756645D01*
X163550000Y-138719891D01*
X163550000Y-138700000D01*
X163768198Y-138700000D01*
X164104211Y-139036012D01*
X164154831Y-138913807D01*
X164154832Y-138913805D01*
X164182999Y-138772196D01*
X164183000Y-138772191D01*
X164183000Y-138768391D01*
X191304500Y-138768391D01*
X191304500Y-138891608D01*
X191328536Y-139012450D01*
X191375688Y-139126285D01*
X191398402Y-139160279D01*
X191444142Y-139228733D01*
X191531267Y-139315858D01*
X191633714Y-139384311D01*
X191747548Y-139431463D01*
X191868394Y-139455500D01*
X191868396Y-139455500D01*
X191991604Y-139455500D01*
X191991606Y-139455500D01*
X192112452Y-139431463D01*
X192226286Y-139384311D01*
X192328733Y-139315858D01*
X192415858Y-139228733D01*
X192484311Y-139126286D01*
X192531463Y-139012452D01*
X192555500Y-138891606D01*
X192555500Y-138768394D01*
X192531463Y-138647548D01*
X192484311Y-138533714D01*
X192415858Y-138431267D01*
X192328733Y-138344142D01*
X192226286Y-138275689D01*
X192226287Y-138275689D01*
X192226285Y-138275688D01*
X192112450Y-138228536D01*
X191991608Y-138204500D01*
X191991606Y-138204500D01*
X191868394Y-138204500D01*
X191868391Y-138204500D01*
X191747549Y-138228536D01*
X191633714Y-138275688D01*
X191531267Y-138344142D01*
X191531263Y-138344145D01*
X191444145Y-138431263D01*
X191444142Y-138431267D01*
X191375688Y-138533714D01*
X191328536Y-138647549D01*
X191304500Y-138768391D01*
X164183000Y-138768391D01*
X164183000Y-138627805D01*
X164182999Y-138627803D01*
X164154832Y-138486194D01*
X164154830Y-138486188D01*
X164104211Y-138363987D01*
X163768198Y-138700000D01*
X163550000Y-138700000D01*
X163550000Y-138680109D01*
X163534776Y-138643355D01*
X163506645Y-138615224D01*
X163469891Y-138600000D01*
X163430109Y-138600000D01*
X163393355Y-138615224D01*
X163365224Y-138643355D01*
X163350000Y-138680109D01*
X163111911Y-138680109D01*
X163059608Y-138627806D01*
X163059608Y-138627807D01*
X162999999Y-138568198D01*
X162868198Y-138699999D01*
X162650000Y-138699999D01*
X162650000Y-138680109D01*
X162634776Y-138643355D01*
X162606645Y-138615224D01*
X162569891Y-138600000D01*
X162530109Y-138600000D01*
X162493355Y-138615224D01*
X162465224Y-138643355D01*
X162450000Y-138680109D01*
X162211909Y-138680109D01*
X161895786Y-138363986D01*
X161845168Y-138486190D01*
X161845168Y-138486192D01*
X161817000Y-138627803D01*
X143534219Y-138627803D01*
X143534203Y-138623294D01*
X143532274Y-138078724D01*
X143532253Y-138072908D01*
X162241107Y-138072908D01*
X162549998Y-138381800D01*
X162665260Y-138266542D01*
X162681800Y-138249998D01*
X162661911Y-138230109D01*
X162900000Y-138230109D01*
X162900000Y-138269891D01*
X162915224Y-138306645D01*
X162943355Y-138334776D01*
X162980109Y-138350000D01*
X163019891Y-138350000D01*
X163056645Y-138334776D01*
X163084776Y-138306645D01*
X163100000Y-138269891D01*
X163100000Y-138249999D01*
X163318198Y-138249999D01*
X163334741Y-138266543D01*
X163449999Y-138381801D01*
X163786012Y-138045787D01*
X163786012Y-138045786D01*
X163730700Y-138022874D01*
X163684175Y-137983137D01*
X163677123Y-137969298D01*
X163654211Y-137913986D01*
X163318198Y-138249999D01*
X163100000Y-138249999D01*
X163100000Y-138230109D01*
X163084776Y-138193355D01*
X163056645Y-138165224D01*
X163019891Y-138150000D01*
X162980109Y-138150000D01*
X162943355Y-138165224D01*
X162915224Y-138193355D01*
X162900000Y-138230109D01*
X162661911Y-138230109D01*
X162345787Y-137913986D01*
X162345785Y-137913986D01*
X162322874Y-137969298D01*
X162306861Y-137995507D01*
X162241107Y-138072908D01*
X143532253Y-138072908D01*
X143530563Y-137595786D01*
X162663986Y-137595786D01*
X163000000Y-137931800D01*
X163336012Y-137595787D01*
X163336012Y-137595786D01*
X163213808Y-137545168D01*
X163072196Y-137517000D01*
X162927803Y-137517000D01*
X162786192Y-137545168D01*
X162786190Y-137545168D01*
X162663986Y-137595786D01*
X143530563Y-137595786D01*
X143522922Y-135438391D01*
X156414500Y-135438391D01*
X156414500Y-135561608D01*
X156438536Y-135682450D01*
X156485688Y-135796285D01*
X156485689Y-135796286D01*
X156554142Y-135898733D01*
X156641267Y-135985858D01*
X156743714Y-136054311D01*
X156857548Y-136101463D01*
X156978394Y-136125500D01*
X156978396Y-136125500D01*
X157101604Y-136125500D01*
X157101606Y-136125500D01*
X157222452Y-136101463D01*
X157336286Y-136054311D01*
X157438733Y-135985858D01*
X157525858Y-135898733D01*
X157594311Y-135796286D01*
X157641463Y-135682452D01*
X157650227Y-135638391D01*
X164874500Y-135638391D01*
X164874500Y-135761608D01*
X164898536Y-135882450D01*
X164945688Y-135996285D01*
X164968402Y-136030279D01*
X165014142Y-136098733D01*
X165101267Y-136185858D01*
X165203714Y-136254311D01*
X165317548Y-136301463D01*
X165438394Y-136325500D01*
X165438396Y-136325500D01*
X165561604Y-136325500D01*
X165561606Y-136325500D01*
X165682452Y-136301463D01*
X165796286Y-136254311D01*
X165898733Y-136185858D01*
X165985858Y-136098733D01*
X166000252Y-136077191D01*
X215244300Y-136077191D01*
X215244300Y-136200408D01*
X215268336Y-136321250D01*
X215315488Y-136435085D01*
X215315489Y-136435086D01*
X215383942Y-136537533D01*
X215471067Y-136624658D01*
X215573514Y-136693111D01*
X215687348Y-136740263D01*
X215808194Y-136764300D01*
X215808196Y-136764300D01*
X215931404Y-136764300D01*
X215931406Y-136764300D01*
X216052252Y-136740263D01*
X216166086Y-136693111D01*
X216268533Y-136624658D01*
X216355658Y-136537533D01*
X216424111Y-136435086D01*
X216471263Y-136321252D01*
X216495300Y-136200406D01*
X216495300Y-136077194D01*
X216495299Y-136077191D01*
X218800300Y-136077191D01*
X218800300Y-136200408D01*
X218824336Y-136321250D01*
X218871488Y-136435085D01*
X218871489Y-136435086D01*
X218939942Y-136537533D01*
X219027067Y-136624658D01*
X219129514Y-136693111D01*
X219243348Y-136740263D01*
X219364194Y-136764300D01*
X219364196Y-136764300D01*
X219487404Y-136764300D01*
X219487406Y-136764300D01*
X219608252Y-136740263D01*
X219722086Y-136693111D01*
X219824533Y-136624658D01*
X219911658Y-136537533D01*
X219980111Y-136435086D01*
X220027263Y-136321252D01*
X220051300Y-136200406D01*
X220051300Y-136077194D01*
X220051299Y-136077191D01*
X223955500Y-136077191D01*
X223955500Y-136200408D01*
X223979536Y-136321250D01*
X224026688Y-136435085D01*
X224026689Y-136435086D01*
X224095142Y-136537533D01*
X224182267Y-136624658D01*
X224284714Y-136693111D01*
X224398548Y-136740263D01*
X224519394Y-136764300D01*
X224519396Y-136764300D01*
X224642604Y-136764300D01*
X224642606Y-136764300D01*
X224763452Y-136740263D01*
X224877286Y-136693111D01*
X224979733Y-136624658D01*
X225066858Y-136537533D01*
X225135311Y-136435086D01*
X225182463Y-136321252D01*
X225206500Y-136200406D01*
X225206500Y-136127991D01*
X227309100Y-136127991D01*
X227309100Y-136251208D01*
X227333136Y-136372050D01*
X227380288Y-136485885D01*
X227380289Y-136485886D01*
X227448742Y-136588333D01*
X227535867Y-136675458D01*
X227638314Y-136743911D01*
X227752148Y-136791063D01*
X227872994Y-136815100D01*
X227872996Y-136815100D01*
X227996204Y-136815100D01*
X227996206Y-136815100D01*
X228117052Y-136791063D01*
X228230886Y-136743911D01*
X228333333Y-136675458D01*
X228420458Y-136588333D01*
X228488911Y-136485886D01*
X228536063Y-136372052D01*
X228560100Y-136251206D01*
X228560100Y-136127994D01*
X228536063Y-136007148D01*
X228488911Y-135893314D01*
X228420458Y-135790867D01*
X228333333Y-135703742D01*
X228235533Y-135638394D01*
X228230885Y-135635288D01*
X228117050Y-135588136D01*
X227996208Y-135564100D01*
X227996206Y-135564100D01*
X227872994Y-135564100D01*
X227872991Y-135564100D01*
X227752149Y-135588136D01*
X227638314Y-135635288D01*
X227535867Y-135703742D01*
X227535863Y-135703745D01*
X227448745Y-135790863D01*
X227448742Y-135790867D01*
X227380288Y-135893314D01*
X227333136Y-136007149D01*
X227309100Y-136127991D01*
X225206500Y-136127991D01*
X225206500Y-136077194D01*
X225182463Y-135956348D01*
X225135311Y-135842514D01*
X225066858Y-135740067D01*
X224979733Y-135652942D01*
X224882746Y-135588137D01*
X224877285Y-135584488D01*
X224763450Y-135537336D01*
X224642608Y-135513300D01*
X224642606Y-135513300D01*
X224519394Y-135513300D01*
X224519391Y-135513300D01*
X224398549Y-135537336D01*
X224284714Y-135584488D01*
X224182267Y-135652942D01*
X224182263Y-135652945D01*
X224095145Y-135740063D01*
X224095142Y-135740067D01*
X224026688Y-135842514D01*
X223979536Y-135956349D01*
X223955500Y-136077191D01*
X220051299Y-136077191D01*
X220027263Y-135956348D01*
X219980111Y-135842514D01*
X219911658Y-135740067D01*
X219824533Y-135652942D01*
X219727546Y-135588137D01*
X219722085Y-135584488D01*
X219608250Y-135537336D01*
X219487408Y-135513300D01*
X219487406Y-135513300D01*
X219364194Y-135513300D01*
X219364191Y-135513300D01*
X219243349Y-135537336D01*
X219129514Y-135584488D01*
X219027067Y-135652942D01*
X219027063Y-135652945D01*
X218939945Y-135740063D01*
X218939942Y-135740067D01*
X218871488Y-135842514D01*
X218824336Y-135956349D01*
X218800300Y-136077191D01*
X216495299Y-136077191D01*
X216471263Y-135956348D01*
X216424111Y-135842514D01*
X216355658Y-135740067D01*
X216268533Y-135652942D01*
X216171546Y-135588137D01*
X216166085Y-135584488D01*
X216052250Y-135537336D01*
X215931408Y-135513300D01*
X215931406Y-135513300D01*
X215808194Y-135513300D01*
X215808191Y-135513300D01*
X215687349Y-135537336D01*
X215573514Y-135584488D01*
X215471067Y-135652942D01*
X215471063Y-135652945D01*
X215383945Y-135740063D01*
X215383942Y-135740067D01*
X215315488Y-135842514D01*
X215268336Y-135956349D01*
X215244300Y-136077191D01*
X166000252Y-136077191D01*
X166054311Y-135996286D01*
X166101463Y-135882452D01*
X166125500Y-135761606D01*
X166125500Y-135638394D01*
X166101463Y-135517548D01*
X166054311Y-135403714D01*
X165985858Y-135301267D01*
X165898733Y-135214142D01*
X165796286Y-135145689D01*
X165796287Y-135145689D01*
X165796285Y-135145688D01*
X165682450Y-135098536D01*
X165561608Y-135074500D01*
X165561606Y-135074500D01*
X165438394Y-135074500D01*
X165438391Y-135074500D01*
X165317549Y-135098536D01*
X165203714Y-135145688D01*
X165101267Y-135214142D01*
X165101263Y-135214145D01*
X165014145Y-135301263D01*
X165014142Y-135301267D01*
X164945688Y-135403714D01*
X164898536Y-135517549D01*
X164874500Y-135638391D01*
X157650227Y-135638391D01*
X157665500Y-135561606D01*
X157665500Y-135438394D01*
X157641463Y-135317548D01*
X157594311Y-135203714D01*
X157525858Y-135101267D01*
X157438733Y-135014142D01*
X157336286Y-134945689D01*
X157336287Y-134945689D01*
X157336285Y-134945688D01*
X157222450Y-134898536D01*
X157101608Y-134874500D01*
X157101606Y-134874500D01*
X156978394Y-134874500D01*
X156978391Y-134874500D01*
X156857549Y-134898536D01*
X156743714Y-134945688D01*
X156641267Y-135014142D01*
X156641263Y-135014145D01*
X156554145Y-135101263D01*
X156554142Y-135101267D01*
X156485688Y-135203714D01*
X156438536Y-135317549D01*
X156414500Y-135438391D01*
X143522922Y-135438391D01*
X143520088Y-134638391D01*
X188874500Y-134638391D01*
X188874500Y-134761608D01*
X188898536Y-134882450D01*
X188945688Y-134996285D01*
X188945689Y-134996286D01*
X189014142Y-135098733D01*
X189101267Y-135185858D01*
X189203714Y-135254311D01*
X189317548Y-135301463D01*
X189438394Y-135325500D01*
X189438396Y-135325500D01*
X189561604Y-135325500D01*
X189561606Y-135325500D01*
X189682452Y-135301463D01*
X189796286Y-135254311D01*
X189898733Y-135185858D01*
X189985858Y-135098733D01*
X190054311Y-134996286D01*
X190101463Y-134882452D01*
X190125500Y-134761606D01*
X190125500Y-134638394D01*
X190101463Y-134517548D01*
X190054311Y-134403714D01*
X189985858Y-134301267D01*
X189898733Y-134214142D01*
X189796286Y-134145689D01*
X189796287Y-134145689D01*
X189796285Y-134145688D01*
X189682450Y-134098536D01*
X189561608Y-134074500D01*
X189561606Y-134074500D01*
X189438394Y-134074500D01*
X189438391Y-134074500D01*
X189317549Y-134098536D01*
X189203714Y-134145688D01*
X189101267Y-134214142D01*
X189101263Y-134214145D01*
X189014145Y-134301263D01*
X189014142Y-134301267D01*
X188945688Y-134403714D01*
X188898536Y-134517549D01*
X188874500Y-134638391D01*
X143520088Y-134638391D01*
X143494746Y-127483391D01*
X196744500Y-127483391D01*
X196744500Y-127606608D01*
X196768536Y-127727450D01*
X196815688Y-127841285D01*
X196815689Y-127841286D01*
X196884142Y-127943733D01*
X196971267Y-128030858D01*
X197073714Y-128099311D01*
X197187548Y-128146463D01*
X197308394Y-128170500D01*
X197308396Y-128170500D01*
X197431604Y-128170500D01*
X197431606Y-128170500D01*
X197552452Y-128146463D01*
X197666286Y-128099311D01*
X197768733Y-128030858D01*
X197855858Y-127943733D01*
X197924311Y-127841286D01*
X197971463Y-127727452D01*
X197995500Y-127606606D01*
X197995500Y-127483394D01*
X197971463Y-127362548D01*
X197924311Y-127248714D01*
X197855858Y-127146267D01*
X197768733Y-127059142D01*
X197666286Y-126990689D01*
X197666287Y-126990689D01*
X197666285Y-126990688D01*
X197552450Y-126943536D01*
X197431608Y-126919500D01*
X197431606Y-126919500D01*
X197308394Y-126919500D01*
X197308391Y-126919500D01*
X197187549Y-126943536D01*
X197073714Y-126990688D01*
X196971267Y-127059142D01*
X196971263Y-127059145D01*
X196884145Y-127146263D01*
X196884142Y-127146267D01*
X196815688Y-127248714D01*
X196768536Y-127362549D01*
X196744500Y-127483391D01*
X143494746Y-127483391D01*
X143492519Y-126854602D01*
X204794500Y-126854602D01*
X204794500Y-127005397D01*
X204814112Y-127103990D01*
X204822521Y-127146267D01*
X204823918Y-127153287D01*
X204823918Y-127153289D01*
X204881621Y-127292597D01*
X204881622Y-127292599D01*
X204881623Y-127292600D01*
X204965397Y-127417978D01*
X205072022Y-127524603D01*
X205197400Y-127608377D01*
X205336712Y-127666082D01*
X205484605Y-127695500D01*
X205484606Y-127695500D01*
X205635394Y-127695500D01*
X205635395Y-127695500D01*
X205783288Y-127666082D01*
X205922600Y-127608377D01*
X206047978Y-127524603D01*
X206154603Y-127417978D01*
X206238377Y-127292600D01*
X206296082Y-127153288D01*
X206325500Y-127005395D01*
X206325500Y-126854605D01*
X206325499Y-126854603D01*
X206325499Y-126854597D01*
X206323479Y-126844442D01*
X206323477Y-126844433D01*
X206320602Y-126829979D01*
X228744500Y-126829979D01*
X228744500Y-127030020D01*
X228783525Y-127226210D01*
X228783525Y-127226212D01*
X228860074Y-127411019D01*
X228864724Y-127417978D01*
X228971209Y-127577344D01*
X229112656Y-127718791D01*
X229278980Y-127829925D01*
X229463789Y-127906475D01*
X229659982Y-127945500D01*
X229659983Y-127945500D01*
X229860017Y-127945500D01*
X229860018Y-127945500D01*
X230056211Y-127906475D01*
X230241020Y-127829925D01*
X230407344Y-127718791D01*
X230548791Y-127577344D01*
X230659925Y-127411020D01*
X230736475Y-127226211D01*
X230775500Y-127030018D01*
X230775500Y-126829982D01*
X230736475Y-126633789D01*
X230659925Y-126448980D01*
X230548791Y-126282656D01*
X230407344Y-126141209D01*
X230241020Y-126030075D01*
X230241021Y-126030075D01*
X230241019Y-126030074D01*
X230056211Y-125953525D01*
X229860020Y-125914500D01*
X229860018Y-125914500D01*
X229659982Y-125914500D01*
X229659979Y-125914500D01*
X229463789Y-125953525D01*
X229463787Y-125953525D01*
X229278980Y-126030074D01*
X229112656Y-126141209D01*
X229112652Y-126141212D01*
X228971212Y-126282652D01*
X228971209Y-126282656D01*
X228860074Y-126448980D01*
X228783525Y-126633787D01*
X228783525Y-126633789D01*
X228744500Y-126829979D01*
X206320602Y-126829979D01*
X206313333Y-126793442D01*
X206296082Y-126706712D01*
X206238377Y-126567400D01*
X206154603Y-126442022D01*
X206047978Y-126335397D01*
X205922600Y-126251623D01*
X205922599Y-126251622D01*
X205922597Y-126251621D01*
X205783288Y-126193918D01*
X205635397Y-126164500D01*
X205635395Y-126164500D01*
X205484605Y-126164500D01*
X205484602Y-126164500D01*
X205336712Y-126193918D01*
X205336710Y-126193918D01*
X205197402Y-126251621D01*
X205072025Y-126335394D01*
X204965394Y-126442025D01*
X204881621Y-126567402D01*
X204823918Y-126706710D01*
X204823918Y-126706712D01*
X204794500Y-126854602D01*
X143492519Y-126854602D01*
X143472946Y-121328686D01*
X159449500Y-121328686D01*
X159449500Y-121671313D01*
X159487860Y-122011781D01*
X159564103Y-122345820D01*
X159677263Y-122669213D01*
X159677264Y-122669215D01*
X159825916Y-122977895D01*
X159825920Y-122977902D01*
X159825924Y-122977910D01*
X160008211Y-123268018D01*
X160221834Y-123535893D01*
X160464107Y-123778166D01*
X160731982Y-123991789D01*
X161022090Y-124174076D01*
X161022101Y-124174081D01*
X161022104Y-124174083D01*
X161124660Y-124223471D01*
X161330785Y-124322736D01*
X161481753Y-124375561D01*
X161654179Y-124435896D01*
X161654182Y-124435896D01*
X161654183Y-124435897D01*
X161988217Y-124512139D01*
X162328688Y-124550500D01*
X162328689Y-124550500D01*
X162671311Y-124550500D01*
X162671312Y-124550500D01*
X163011783Y-124512139D01*
X163345817Y-124435897D01*
X163669215Y-124322736D01*
X163977910Y-124174076D01*
X164268018Y-123991789D01*
X164535893Y-123778166D01*
X164778166Y-123535893D01*
X164991789Y-123268018D01*
X165174076Y-122977910D01*
X165322736Y-122669215D01*
X165435897Y-122345817D01*
X165512139Y-122011783D01*
X165550500Y-121671312D01*
X165550500Y-121328688D01*
X165550500Y-121328686D01*
X192449500Y-121328686D01*
X192449500Y-121671313D01*
X192487860Y-122011781D01*
X192564103Y-122345820D01*
X192677263Y-122669213D01*
X192677264Y-122669215D01*
X192825916Y-122977895D01*
X192825920Y-122977902D01*
X192825924Y-122977910D01*
X193008211Y-123268018D01*
X193221834Y-123535893D01*
X193464107Y-123778166D01*
X193731982Y-123991789D01*
X194022090Y-124174076D01*
X194022101Y-124174081D01*
X194022104Y-124174083D01*
X194124660Y-124223471D01*
X194330785Y-124322736D01*
X194481753Y-124375561D01*
X194654179Y-124435896D01*
X194654182Y-124435896D01*
X194654183Y-124435897D01*
X194988217Y-124512139D01*
X195328688Y-124550500D01*
X195328689Y-124550500D01*
X195671311Y-124550500D01*
X195671312Y-124550500D01*
X196011783Y-124512139D01*
X196345817Y-124435897D01*
X196669215Y-124322736D01*
X196977910Y-124174076D01*
X197268018Y-123991789D01*
X197535893Y-123778166D01*
X197778166Y-123535893D01*
X197991789Y-123268018D01*
X198174076Y-122977910D01*
X198322736Y-122669215D01*
X198435897Y-122345817D01*
X198512139Y-122011783D01*
X198550500Y-121671312D01*
X198550500Y-121328688D01*
X198512139Y-120988217D01*
X198435897Y-120654183D01*
X198322736Y-120330785D01*
X198174076Y-120022090D01*
X197991789Y-119731982D01*
X197778166Y-119464107D01*
X197535893Y-119221834D01*
X197268018Y-119008211D01*
X196977910Y-118825924D01*
X196977902Y-118825920D01*
X196977895Y-118825916D01*
X196669215Y-118677264D01*
X196669213Y-118677263D01*
X196345820Y-118564103D01*
X196011781Y-118487860D01*
X195671313Y-118449500D01*
X195671312Y-118449500D01*
X195328688Y-118449500D01*
X195328686Y-118449500D01*
X194988218Y-118487860D01*
X194654179Y-118564103D01*
X194330786Y-118677263D01*
X194330784Y-118677264D01*
X194022104Y-118825916D01*
X194022092Y-118825923D01*
X193731981Y-119008211D01*
X193464108Y-119221833D01*
X193221833Y-119464108D01*
X193008211Y-119731981D01*
X192825923Y-120022092D01*
X192825916Y-120022104D01*
X192677264Y-120330784D01*
X192677263Y-120330786D01*
X192564103Y-120654179D01*
X192487860Y-120988218D01*
X192449500Y-121328686D01*
X165550500Y-121328686D01*
X165512139Y-120988217D01*
X165435897Y-120654183D01*
X165322736Y-120330785D01*
X165174076Y-120022090D01*
X164991789Y-119731982D01*
X164778166Y-119464107D01*
X164535893Y-119221834D01*
X164268018Y-119008211D01*
X163977910Y-118825924D01*
X163977902Y-118825920D01*
X163977895Y-118825916D01*
X163669215Y-118677264D01*
X163669213Y-118677263D01*
X163345820Y-118564103D01*
X163011781Y-118487860D01*
X162671313Y-118449500D01*
X162671312Y-118449500D01*
X162328688Y-118449500D01*
X162328686Y-118449500D01*
X161988218Y-118487860D01*
X161654179Y-118564103D01*
X161330786Y-118677263D01*
X161330784Y-118677264D01*
X161022104Y-118825916D01*
X161022092Y-118825923D01*
X160731981Y-119008211D01*
X160464108Y-119221833D01*
X160221833Y-119464108D01*
X160008211Y-119731981D01*
X159825923Y-120022092D01*
X159825916Y-120022104D01*
X159677264Y-120330784D01*
X159677263Y-120330786D01*
X159564103Y-120654179D01*
X159487860Y-120988218D01*
X159449500Y-121328686D01*
X143472946Y-121328686D01*
X143420029Y-106388391D01*
X150274500Y-106388391D01*
X150274500Y-106511608D01*
X150298536Y-106632450D01*
X150345688Y-106746285D01*
X150345689Y-106746286D01*
X150414142Y-106848733D01*
X150501267Y-106935858D01*
X150603714Y-107004311D01*
X150717548Y-107051463D01*
X150838394Y-107075500D01*
X150838396Y-107075500D01*
X150961604Y-107075500D01*
X150961606Y-107075500D01*
X151082452Y-107051463D01*
X151196286Y-107004311D01*
X151298733Y-106935858D01*
X151385858Y-106848733D01*
X151454311Y-106746286D01*
X151501463Y-106632452D01*
X151525500Y-106511606D01*
X151525500Y-106388394D01*
X151501463Y-106267548D01*
X151488266Y-106235689D01*
X151476959Y-106208391D01*
X158684500Y-106208391D01*
X158684500Y-106331608D01*
X158708536Y-106452450D01*
X158755688Y-106566285D01*
X158755689Y-106566286D01*
X158824142Y-106668733D01*
X158824143Y-106668734D01*
X158826844Y-106672776D01*
X158825079Y-106673955D01*
X158844328Y-106723126D01*
X158844500Y-106728961D01*
X158844500Y-106791608D01*
X158868537Y-106912451D01*
X158868537Y-106912453D01*
X158894204Y-106974418D01*
X158898786Y-107032639D01*
X158899486Y-107032779D01*
X158898992Y-107035258D01*
X158899005Y-107035414D01*
X158898843Y-107036009D01*
X158874500Y-107158391D01*
X158874500Y-107281608D01*
X158898536Y-107402450D01*
X158945688Y-107516285D01*
X158966447Y-107547352D01*
X159007815Y-107609264D01*
X159024500Y-107664265D01*
X159024500Y-107771608D01*
X159048536Y-107892450D01*
X159095688Y-108006285D01*
X159095689Y-108006286D01*
X159164142Y-108108733D01*
X159251267Y-108195858D01*
X159353714Y-108264311D01*
X159467548Y-108311463D01*
X159588394Y-108335500D01*
X159588396Y-108335500D01*
X159711604Y-108335500D01*
X159711606Y-108335500D01*
X159832452Y-108311463D01*
X159946286Y-108264311D01*
X160048733Y-108195858D01*
X160135858Y-108108733D01*
X160204311Y-108006286D01*
X160251463Y-107892452D01*
X160275500Y-107771606D01*
X160275500Y-107648394D01*
X160251463Y-107527548D01*
X160204311Y-107413714D01*
X160142183Y-107320734D01*
X160125500Y-107265734D01*
X160125500Y-107158396D01*
X160125499Y-107158391D01*
X160109011Y-107075500D01*
X160101463Y-107037548D01*
X160101461Y-107037544D01*
X160101460Y-107037539D01*
X160075796Y-106975584D01*
X160071212Y-106917360D01*
X160070514Y-106917222D01*
X160071006Y-106914745D01*
X160070994Y-106914587D01*
X160071158Y-106913981D01*
X160071461Y-106912456D01*
X160071463Y-106912452D01*
X160095500Y-106791606D01*
X160095500Y-106728391D01*
X163884500Y-106728391D01*
X163884500Y-106851608D01*
X163908536Y-106972450D01*
X163955688Y-107086285D01*
X163955689Y-107086286D01*
X164024142Y-107188733D01*
X164111267Y-107275858D01*
X164213714Y-107344311D01*
X164327548Y-107391463D01*
X164448394Y-107415500D01*
X164448396Y-107415500D01*
X164571604Y-107415500D01*
X164571606Y-107415500D01*
X164692452Y-107391463D01*
X164806286Y-107344311D01*
X164908733Y-107275858D01*
X164995858Y-107188733D01*
X165064311Y-107086286D01*
X165111463Y-106972452D01*
X165135500Y-106851606D01*
X165135500Y-106728394D01*
X165111463Y-106607548D01*
X165064311Y-106493714D01*
X164995858Y-106391267D01*
X164908733Y-106304142D01*
X164806286Y-106235689D01*
X164806287Y-106235689D01*
X164806285Y-106235688D01*
X164692450Y-106188536D01*
X164571608Y-106164500D01*
X164571606Y-106164500D01*
X164448394Y-106164500D01*
X164448391Y-106164500D01*
X164327549Y-106188536D01*
X164213714Y-106235688D01*
X164111267Y-106304142D01*
X164111263Y-106304145D01*
X164024145Y-106391263D01*
X164024142Y-106391267D01*
X163955688Y-106493714D01*
X163908536Y-106607549D01*
X163884500Y-106728391D01*
X160095500Y-106728391D01*
X160095500Y-106668394D01*
X160071463Y-106547548D01*
X160024311Y-106433714D01*
X159955858Y-106331267D01*
X159955856Y-106331265D01*
X159954825Y-106329722D01*
X159954705Y-106329636D01*
X159954644Y-106329451D01*
X159953156Y-106327224D01*
X159953778Y-106326808D01*
X159946359Y-106304171D01*
X159935670Y-106276832D01*
X159935501Y-106271543D01*
X159935500Y-106271346D01*
X159935500Y-106208394D01*
X159935170Y-106206737D01*
X159935138Y-106200347D01*
X159943109Y-106175380D01*
X159948729Y-106149777D01*
X159951809Y-106144859D01*
X160004311Y-106066286D01*
X160051463Y-105952452D01*
X160075500Y-105831606D01*
X160075500Y-105708394D01*
X160062663Y-105643858D01*
X160068296Y-105586663D01*
X160111463Y-105482452D01*
X160135500Y-105361606D01*
X160135500Y-105238394D01*
X160111463Y-105117548D01*
X160064311Y-105003714D01*
X159995858Y-104901267D01*
X159908733Y-104814142D01*
X159806286Y-104745689D01*
X159806287Y-104745689D01*
X159806285Y-104745688D01*
X159692450Y-104698536D01*
X159571608Y-104674500D01*
X159571606Y-104674500D01*
X159448394Y-104674500D01*
X159448391Y-104674500D01*
X159327549Y-104698536D01*
X159213714Y-104745688D01*
X159111267Y-104814142D01*
X159111263Y-104814145D01*
X159024145Y-104901263D01*
X159024142Y-104901267D01*
X158955688Y-105003714D01*
X158908536Y-105117549D01*
X158884500Y-105238391D01*
X158884500Y-105361612D01*
X158897335Y-105426141D01*
X158891701Y-105483338D01*
X158848537Y-105587546D01*
X158848537Y-105587548D01*
X158824500Y-105708391D01*
X158824500Y-105836469D01*
X158823067Y-105836469D01*
X158811272Y-105890219D01*
X158808179Y-105895157D01*
X158755688Y-105973715D01*
X158708536Y-106087549D01*
X158684500Y-106208391D01*
X151476959Y-106208391D01*
X151454311Y-106153714D01*
X151451680Y-106149777D01*
X151385858Y-106051267D01*
X151298733Y-105964142D01*
X151196286Y-105895689D01*
X151196287Y-105895689D01*
X151196285Y-105895688D01*
X151082450Y-105848536D01*
X150961608Y-105824500D01*
X150961606Y-105824500D01*
X150838394Y-105824500D01*
X150838391Y-105824500D01*
X150717549Y-105848536D01*
X150603714Y-105895688D01*
X150501267Y-105964142D01*
X150501263Y-105964145D01*
X150414145Y-106051263D01*
X150414142Y-106051267D01*
X150345688Y-106153714D01*
X150298536Y-106267549D01*
X150274500Y-106388391D01*
X143420029Y-106388391D01*
X143395590Y-99488391D01*
X156384500Y-99488391D01*
X156384500Y-99611608D01*
X156408536Y-99732450D01*
X156455688Y-99846285D01*
X156455689Y-99846286D01*
X156524142Y-99948733D01*
X156611267Y-100035858D01*
X156713714Y-100104311D01*
X156827548Y-100151463D01*
X156948394Y-100175500D01*
X156948396Y-100175500D01*
X157071604Y-100175500D01*
X157071606Y-100175500D01*
X157192452Y-100151463D01*
X157306286Y-100104311D01*
X157408733Y-100035858D01*
X157495858Y-99948733D01*
X157564311Y-99846286D01*
X157611463Y-99732452D01*
X157635500Y-99611606D01*
X157635500Y-99488394D01*
X157611463Y-99367548D01*
X157564311Y-99253714D01*
X157495858Y-99151267D01*
X157408733Y-99064142D01*
X157306286Y-98995689D01*
X157306287Y-98995689D01*
X157306285Y-98995688D01*
X157192450Y-98948536D01*
X157071608Y-98924500D01*
X157071606Y-98924500D01*
X156948394Y-98924500D01*
X156948391Y-98924500D01*
X156827549Y-98948536D01*
X156713714Y-98995688D01*
X156611267Y-99064142D01*
X156611263Y-99064145D01*
X156524145Y-99151263D01*
X156524142Y-99151267D01*
X156455688Y-99253714D01*
X156408536Y-99367549D01*
X156384500Y-99488391D01*
X143395590Y-99488391D01*
X143381776Y-95588391D01*
X152404500Y-95588391D01*
X152404500Y-95711608D01*
X152428536Y-95832450D01*
X152475688Y-95946285D01*
X152475689Y-95946286D01*
X152544142Y-96048733D01*
X152631267Y-96135858D01*
X152733714Y-96204311D01*
X152847548Y-96251463D01*
X152968394Y-96275500D01*
X152968396Y-96275500D01*
X153091604Y-96275500D01*
X153091606Y-96275500D01*
X153212452Y-96251463D01*
X153326286Y-96204311D01*
X153428733Y-96135858D01*
X153515858Y-96048733D01*
X153584311Y-95946286D01*
X153631463Y-95832452D01*
X153655500Y-95711606D01*
X153655500Y-95588394D01*
X153631463Y-95467548D01*
X153584311Y-95353714D01*
X153515858Y-95251267D01*
X153428733Y-95164142D01*
X153360279Y-95118402D01*
X153326285Y-95095688D01*
X153212450Y-95048536D01*
X153091608Y-95024500D01*
X153091606Y-95024500D01*
X152968394Y-95024500D01*
X152968391Y-95024500D01*
X152847549Y-95048536D01*
X152733714Y-95095688D01*
X152631267Y-95164142D01*
X152631263Y-95164145D01*
X152544145Y-95251263D01*
X152544142Y-95251267D01*
X152475688Y-95353714D01*
X152428536Y-95467549D01*
X152404500Y-95588391D01*
X143381776Y-95588391D01*
X143377703Y-94438391D01*
X147414500Y-94438391D01*
X147414500Y-94561608D01*
X147438536Y-94682450D01*
X147485688Y-94796285D01*
X147485689Y-94796286D01*
X147554142Y-94898733D01*
X147641267Y-94985858D01*
X147743714Y-95054311D01*
X147857548Y-95101463D01*
X147978394Y-95125500D01*
X147978396Y-95125500D01*
X148101604Y-95125500D01*
X148101606Y-95125500D01*
X148222452Y-95101463D01*
X148336286Y-95054311D01*
X148438733Y-94985858D01*
X148525858Y-94898733D01*
X148594311Y-94796286D01*
X148641463Y-94682452D01*
X148665500Y-94561606D01*
X148665500Y-94438394D01*
X148641463Y-94317548D01*
X148594311Y-94203714D01*
X148525858Y-94101267D01*
X148438733Y-94014142D01*
X148336286Y-93945689D01*
X148336287Y-93945689D01*
X148336285Y-93945688D01*
X148222450Y-93898536D01*
X148101608Y-93874500D01*
X148101606Y-93874500D01*
X147978394Y-93874500D01*
X147978391Y-93874500D01*
X147857549Y-93898536D01*
X147743714Y-93945688D01*
X147641267Y-94014142D01*
X147641263Y-94014145D01*
X147554145Y-94101263D01*
X147554142Y-94101267D01*
X147485688Y-94203714D01*
X147438536Y-94317549D01*
X147414500Y-94438391D01*
X143377703Y-94438391D01*
X143372992Y-93108391D01*
X164164500Y-93108391D01*
X164164500Y-93231608D01*
X164188536Y-93352450D01*
X164235688Y-93466285D01*
X164235689Y-93466286D01*
X164304142Y-93568733D01*
X164391267Y-93655858D01*
X164493714Y-93724311D01*
X164607548Y-93771463D01*
X164728394Y-93795500D01*
X164728396Y-93795500D01*
X164851604Y-93795500D01*
X164851606Y-93795500D01*
X164972452Y-93771463D01*
X165086286Y-93724311D01*
X165188733Y-93655858D01*
X165275858Y-93568733D01*
X165344311Y-93466286D01*
X165391463Y-93352452D01*
X165415500Y-93231606D01*
X165415500Y-93108394D01*
X165391463Y-92987548D01*
X165344311Y-92873714D01*
X165275858Y-92771267D01*
X165188733Y-92684142D01*
X165086286Y-92615689D01*
X165086287Y-92615689D01*
X165086285Y-92615688D01*
X164972450Y-92568536D01*
X164851608Y-92544500D01*
X164851606Y-92544500D01*
X164728394Y-92544500D01*
X164728391Y-92544500D01*
X164607549Y-92568536D01*
X164493714Y-92615688D01*
X164391267Y-92684142D01*
X164391263Y-92684145D01*
X164304145Y-92771263D01*
X164304142Y-92771267D01*
X164235688Y-92873714D01*
X164188536Y-92987549D01*
X164164500Y-93108391D01*
X143372992Y-93108391D01*
X143366475Y-91268391D01*
X198694500Y-91268391D01*
X198694500Y-91391608D01*
X198718536Y-91512450D01*
X198765688Y-91626285D01*
X198765689Y-91626286D01*
X198834142Y-91728733D01*
X198921267Y-91815858D01*
X199023714Y-91884311D01*
X199137548Y-91931463D01*
X199258394Y-91955500D01*
X199258396Y-91955500D01*
X199381604Y-91955500D01*
X199381606Y-91955500D01*
X199502452Y-91931463D01*
X199616286Y-91884311D01*
X199718733Y-91815858D01*
X199805858Y-91728733D01*
X199874311Y-91626286D01*
X199921463Y-91512452D01*
X199945500Y-91391606D01*
X199945500Y-91268394D01*
X199921463Y-91147548D01*
X199874311Y-91033714D01*
X199805858Y-90931267D01*
X199718733Y-90844142D01*
X199616286Y-90775689D01*
X199616287Y-90775689D01*
X199616285Y-90775688D01*
X199502450Y-90728536D01*
X199381608Y-90704500D01*
X199381606Y-90704500D01*
X199258394Y-90704500D01*
X199258391Y-90704500D01*
X199137549Y-90728536D01*
X199023714Y-90775688D01*
X198921267Y-90844142D01*
X198921263Y-90844145D01*
X198834145Y-90931263D01*
X198834142Y-90931267D01*
X198765688Y-91033714D01*
X198718536Y-91147549D01*
X198694500Y-91268391D01*
X143366475Y-91268391D01*
X143361515Y-89868045D01*
X238313299Y-89868045D01*
X238313299Y-90071952D01*
X238345195Y-90273336D01*
X238408203Y-90467258D01*
X238500772Y-90648936D01*
X238500776Y-90648941D01*
X238530135Y-90689350D01*
X239097268Y-90122216D01*
X239111649Y-90175884D01*
X239181873Y-90297514D01*
X239281184Y-90396825D01*
X239402814Y-90467049D01*
X239456478Y-90481428D01*
X238889347Y-91048561D01*
X238929759Y-91077923D01*
X238929767Y-91077928D01*
X239111439Y-91170494D01*
X239305361Y-91233502D01*
X239506746Y-91265399D01*
X239710652Y-91265399D01*
X239912036Y-91233502D01*
X240105961Y-91170493D01*
X240105967Y-91170491D01*
X240287635Y-91077925D01*
X240328050Y-91048561D01*
X239760917Y-90481428D01*
X239814584Y-90467049D01*
X239936214Y-90396825D01*
X240035525Y-90297514D01*
X240105749Y-90175884D01*
X240120128Y-90122217D01*
X240687261Y-90689350D01*
X240716625Y-90648935D01*
X240809191Y-90467267D01*
X240809193Y-90467261D01*
X240872202Y-90273336D01*
X240904099Y-90071952D01*
X240904099Y-89868045D01*
X240872202Y-89666661D01*
X240809194Y-89472739D01*
X240716628Y-89291067D01*
X240716623Y-89291059D01*
X240687261Y-89250647D01*
X240120128Y-89817778D01*
X240105749Y-89764114D01*
X240035525Y-89642484D01*
X239936214Y-89543173D01*
X239814584Y-89472949D01*
X239760916Y-89458568D01*
X240328050Y-88891435D01*
X240287641Y-88862076D01*
X240287636Y-88862072D01*
X240105958Y-88769503D01*
X239912036Y-88706495D01*
X239710652Y-88674599D01*
X239506746Y-88674599D01*
X239305361Y-88706495D01*
X239111439Y-88769503D01*
X238929761Y-88862072D01*
X238929757Y-88862074D01*
X238889346Y-88891435D01*
X239456480Y-89458569D01*
X239402814Y-89472949D01*
X239281184Y-89543173D01*
X239181873Y-89642484D01*
X239111649Y-89764114D01*
X239097269Y-89817780D01*
X238530135Y-89250646D01*
X238500774Y-89291057D01*
X238500772Y-89291061D01*
X238408203Y-89472739D01*
X238345195Y-89666661D01*
X238313299Y-89868045D01*
X143361515Y-89868045D01*
X143350919Y-86876506D01*
X238420799Y-86876506D01*
X238420799Y-87063493D01*
X238450047Y-87248162D01*
X238450049Y-87248167D01*
X238507829Y-87425995D01*
X238592716Y-87592595D01*
X238702620Y-87743865D01*
X238834834Y-87876079D01*
X238986104Y-87985983D01*
X239152704Y-88070870D01*
X239330532Y-88128650D01*
X239330533Y-88128650D01*
X239330536Y-88128651D01*
X239515206Y-88157900D01*
X239515209Y-88157900D01*
X239702192Y-88157900D01*
X239886861Y-88128651D01*
X239886862Y-88128650D01*
X239886866Y-88128650D01*
X240064694Y-88070870D01*
X240231294Y-87985983D01*
X240382564Y-87876079D01*
X240514778Y-87743865D01*
X240624682Y-87592595D01*
X240709569Y-87425995D01*
X240767349Y-87248167D01*
X240796599Y-87063490D01*
X240796599Y-86876510D01*
X240796599Y-86876506D01*
X240767350Y-86691837D01*
X240767349Y-86691833D01*
X240709569Y-86514005D01*
X240624682Y-86347405D01*
X240514778Y-86196135D01*
X240382564Y-86063921D01*
X240231294Y-85954017D01*
X240231293Y-85954016D01*
X240231291Y-85954015D01*
X240064694Y-85869130D01*
X239886861Y-85811348D01*
X239702192Y-85782100D01*
X239702189Y-85782100D01*
X239515209Y-85782100D01*
X239515206Y-85782100D01*
X239330536Y-85811348D01*
X239152703Y-85869130D01*
X238986106Y-85954015D01*
X238834835Y-86063920D01*
X238702619Y-86196136D01*
X238592714Y-86347407D01*
X238507829Y-86514004D01*
X238450047Y-86691837D01*
X238420799Y-86876506D01*
X143350919Y-86876506D01*
X143340294Y-83876506D01*
X238420799Y-83876506D01*
X238420799Y-84063493D01*
X238450047Y-84248162D01*
X238450049Y-84248167D01*
X238507829Y-84425995D01*
X238592716Y-84592595D01*
X238702620Y-84743865D01*
X238834834Y-84876079D01*
X238986104Y-84985983D01*
X239152704Y-85070870D01*
X239330532Y-85128650D01*
X239330533Y-85128650D01*
X239330536Y-85128651D01*
X239515206Y-85157900D01*
X239515209Y-85157900D01*
X239702192Y-85157900D01*
X239886861Y-85128651D01*
X239886862Y-85128650D01*
X239886866Y-85128650D01*
X240064694Y-85070870D01*
X240231294Y-84985983D01*
X240382564Y-84876079D01*
X240514778Y-84743865D01*
X240624682Y-84592595D01*
X240709569Y-84425995D01*
X240767349Y-84248167D01*
X240796599Y-84063490D01*
X240796599Y-83876510D01*
X240796599Y-83876506D01*
X240767350Y-83691837D01*
X240767349Y-83691833D01*
X240709569Y-83514005D01*
X240624682Y-83347405D01*
X240514778Y-83196135D01*
X240382564Y-83063921D01*
X240231294Y-82954017D01*
X240231293Y-82954016D01*
X240231291Y-82954015D01*
X240064694Y-82869130D01*
X239886861Y-82811348D01*
X239702192Y-82782100D01*
X239702189Y-82782100D01*
X239515209Y-82782100D01*
X239515206Y-82782100D01*
X239330536Y-82811348D01*
X239152703Y-82869130D01*
X238986106Y-82954015D01*
X238834835Y-83063920D01*
X238702619Y-83196136D01*
X238592714Y-83347407D01*
X238507829Y-83514004D01*
X238450047Y-83691837D01*
X238420799Y-83876506D01*
X143340294Y-83876506D01*
X143336450Y-82791113D01*
X233022307Y-82791113D01*
X233022307Y-82914330D01*
X233046343Y-83035172D01*
X233093495Y-83149007D01*
X233093496Y-83149008D01*
X233161949Y-83251455D01*
X233249074Y-83338580D01*
X233351521Y-83407033D01*
X233465355Y-83454185D01*
X233586201Y-83478222D01*
X233586203Y-83478222D01*
X233709411Y-83478222D01*
X233709413Y-83478222D01*
X233830259Y-83454185D01*
X233944093Y-83407033D01*
X234046540Y-83338580D01*
X234133665Y-83251455D01*
X234202118Y-83149008D01*
X234249270Y-83035174D01*
X234273307Y-82914328D01*
X234273307Y-82791116D01*
X234249270Y-82670270D01*
X234202118Y-82556436D01*
X234133665Y-82453989D01*
X234046540Y-82366864D01*
X233944093Y-82298411D01*
X233944094Y-82298411D01*
X233944092Y-82298410D01*
X233830257Y-82251258D01*
X233709415Y-82227222D01*
X233709413Y-82227222D01*
X233586201Y-82227222D01*
X233586198Y-82227222D01*
X233465356Y-82251258D01*
X233351521Y-82298410D01*
X233249074Y-82366864D01*
X233249070Y-82366867D01*
X233161952Y-82453985D01*
X233161949Y-82453989D01*
X233093495Y-82556436D01*
X233046343Y-82670271D01*
X233022307Y-82791113D01*
X143336450Y-82791113D01*
X143328577Y-80568391D01*
X205234500Y-80568391D01*
X205234500Y-80691608D01*
X205258536Y-80812450D01*
X205305688Y-80926285D01*
X205305689Y-80926286D01*
X205374142Y-81028733D01*
X205461267Y-81115858D01*
X205563714Y-81184311D01*
X205677548Y-81231463D01*
X205798394Y-81255500D01*
X205798396Y-81255500D01*
X205921604Y-81255500D01*
X205921606Y-81255500D01*
X206042452Y-81231463D01*
X206156286Y-81184311D01*
X206258733Y-81115858D01*
X206345858Y-81028733D01*
X206414311Y-80926286D01*
X206461463Y-80812452D01*
X206485500Y-80691606D01*
X206485500Y-80568394D01*
X206485499Y-80568391D01*
X209234500Y-80568391D01*
X209234500Y-80691608D01*
X209258536Y-80812450D01*
X209305688Y-80926285D01*
X209305689Y-80926286D01*
X209374142Y-81028733D01*
X209461267Y-81115858D01*
X209563714Y-81184311D01*
X209677548Y-81231463D01*
X209798394Y-81255500D01*
X209798396Y-81255500D01*
X209921604Y-81255500D01*
X209921606Y-81255500D01*
X210042452Y-81231463D01*
X210156286Y-81184311D01*
X210258733Y-81115858D01*
X210345858Y-81028733D01*
X210414311Y-80926286D01*
X210461463Y-80812452D01*
X210485500Y-80691606D01*
X210485500Y-80568394D01*
X210485499Y-80568391D01*
X216434500Y-80568391D01*
X216434500Y-80691608D01*
X216458536Y-80812450D01*
X216505688Y-80926285D01*
X216505689Y-80926286D01*
X216574142Y-81028733D01*
X216661267Y-81115858D01*
X216763714Y-81184311D01*
X216877548Y-81231463D01*
X216998394Y-81255500D01*
X216998396Y-81255500D01*
X217121604Y-81255500D01*
X217121606Y-81255500D01*
X217242452Y-81231463D01*
X217356286Y-81184311D01*
X217458733Y-81115858D01*
X217545858Y-81028733D01*
X217614311Y-80926286D01*
X217661463Y-80812452D01*
X217685500Y-80691606D01*
X217685500Y-80568394D01*
X217685499Y-80568391D01*
X223634500Y-80568391D01*
X223634500Y-80691608D01*
X223658536Y-80812450D01*
X223705688Y-80926285D01*
X223705689Y-80926286D01*
X223774142Y-81028733D01*
X223861267Y-81115858D01*
X223963714Y-81184311D01*
X224077548Y-81231463D01*
X224198394Y-81255500D01*
X224198396Y-81255500D01*
X224321604Y-81255500D01*
X224321606Y-81255500D01*
X224442452Y-81231463D01*
X224556286Y-81184311D01*
X224604999Y-81151761D01*
X224663886Y-81135153D01*
X224715000Y-81151761D01*
X224763714Y-81184311D01*
X224877548Y-81231463D01*
X224998394Y-81255500D01*
X224998396Y-81255500D01*
X225121604Y-81255500D01*
X225121606Y-81255500D01*
X225242452Y-81231463D01*
X225356286Y-81184311D01*
X225404999Y-81151761D01*
X225463886Y-81135153D01*
X225515000Y-81151761D01*
X225563714Y-81184311D01*
X225677548Y-81231463D01*
X225798394Y-81255500D01*
X225798396Y-81255500D01*
X225921604Y-81255500D01*
X225921606Y-81255500D01*
X226042452Y-81231463D01*
X226156286Y-81184311D01*
X226204999Y-81151761D01*
X226263886Y-81135153D01*
X226315000Y-81151761D01*
X226363714Y-81184311D01*
X226477548Y-81231463D01*
X226598394Y-81255500D01*
X226598396Y-81255500D01*
X226721604Y-81255500D01*
X226721606Y-81255500D01*
X226842452Y-81231463D01*
X226956286Y-81184311D01*
X227058733Y-81115858D01*
X227145858Y-81028733D01*
X227214311Y-80926286D01*
X227261463Y-80812452D01*
X227285500Y-80691606D01*
X227285500Y-80568394D01*
X227285499Y-80568391D01*
X228434500Y-80568391D01*
X228434500Y-80691608D01*
X228458536Y-80812450D01*
X228505688Y-80926285D01*
X228505689Y-80926286D01*
X228574142Y-81028733D01*
X228661267Y-81115858D01*
X228763714Y-81184311D01*
X228877548Y-81231463D01*
X228998394Y-81255500D01*
X228998396Y-81255500D01*
X229121604Y-81255500D01*
X229121606Y-81255500D01*
X229242452Y-81231463D01*
X229356286Y-81184311D01*
X229458733Y-81115858D01*
X229545858Y-81028733D01*
X229614311Y-80926286D01*
X229634930Y-80876507D01*
X238420799Y-80876507D01*
X238420799Y-81063494D01*
X238450047Y-81248163D01*
X238450049Y-81248168D01*
X238507829Y-81425996D01*
X238592716Y-81592596D01*
X238702620Y-81743866D01*
X238834834Y-81876080D01*
X238986104Y-81985984D01*
X239152704Y-82070871D01*
X239330532Y-82128651D01*
X239330533Y-82128651D01*
X239330536Y-82128652D01*
X239515206Y-82157901D01*
X239515209Y-82157901D01*
X239702192Y-82157901D01*
X239886861Y-82128652D01*
X239886862Y-82128651D01*
X239886866Y-82128651D01*
X240064694Y-82070871D01*
X240231294Y-81985984D01*
X240382564Y-81876080D01*
X240514778Y-81743866D01*
X240624682Y-81592596D01*
X240709569Y-81425996D01*
X240767349Y-81248168D01*
X240777463Y-81184311D01*
X240796599Y-81063494D01*
X240796599Y-80876507D01*
X240767350Y-80691838D01*
X240767349Y-80691834D01*
X240709569Y-80514006D01*
X240624682Y-80347406D01*
X240514778Y-80196136D01*
X240382564Y-80063922D01*
X240231294Y-79954018D01*
X240231293Y-79954017D01*
X240231291Y-79954016D01*
X240064694Y-79869131D01*
X239886861Y-79811349D01*
X239702192Y-79782101D01*
X239702189Y-79782101D01*
X239515209Y-79782101D01*
X239515206Y-79782101D01*
X239330536Y-79811349D01*
X239152703Y-79869131D01*
X238986106Y-79954016D01*
X238834835Y-80063921D01*
X238702619Y-80196137D01*
X238592714Y-80347408D01*
X238507829Y-80514005D01*
X238450047Y-80691838D01*
X238420799Y-80876507D01*
X229634930Y-80876507D01*
X229661463Y-80812452D01*
X229685500Y-80691606D01*
X229685500Y-80568394D01*
X229661463Y-80447548D01*
X229614311Y-80333714D01*
X229545858Y-80231267D01*
X229458733Y-80144142D01*
X229356286Y-80075689D01*
X229356287Y-80075689D01*
X229356285Y-80075688D01*
X229242450Y-80028536D01*
X229121608Y-80004500D01*
X229121606Y-80004500D01*
X228998394Y-80004500D01*
X228998391Y-80004500D01*
X228877549Y-80028536D01*
X228763714Y-80075688D01*
X228661267Y-80144142D01*
X228661263Y-80144145D01*
X228574145Y-80231263D01*
X228574142Y-80231267D01*
X228505688Y-80333714D01*
X228458536Y-80447549D01*
X228434500Y-80568391D01*
X227285499Y-80568391D01*
X227261463Y-80447548D01*
X227214311Y-80333714D01*
X227145858Y-80231267D01*
X227058733Y-80144142D01*
X226956286Y-80075689D01*
X226956287Y-80075689D01*
X226956285Y-80075688D01*
X226842450Y-80028536D01*
X226721608Y-80004500D01*
X226721606Y-80004500D01*
X226598394Y-80004500D01*
X226598391Y-80004500D01*
X226477549Y-80028536D01*
X226363715Y-80075688D01*
X226315001Y-80108238D01*
X226256113Y-80124846D01*
X226204999Y-80108238D01*
X226200407Y-80105169D01*
X226156286Y-80075689D01*
X226127879Y-80063922D01*
X226042450Y-80028536D01*
X225921608Y-80004500D01*
X225921606Y-80004500D01*
X225798394Y-80004500D01*
X225798391Y-80004500D01*
X225677549Y-80028536D01*
X225563715Y-80075688D01*
X225515001Y-80108238D01*
X225456113Y-80124846D01*
X225404999Y-80108238D01*
X225400407Y-80105169D01*
X225356286Y-80075689D01*
X225327879Y-80063922D01*
X225242450Y-80028536D01*
X225121608Y-80004500D01*
X225121606Y-80004500D01*
X224998394Y-80004500D01*
X224998391Y-80004500D01*
X224877549Y-80028536D01*
X224763715Y-80075688D01*
X224715001Y-80108238D01*
X224656113Y-80124846D01*
X224604999Y-80108238D01*
X224600407Y-80105169D01*
X224556286Y-80075689D01*
X224527879Y-80063922D01*
X224442450Y-80028536D01*
X224321608Y-80004500D01*
X224321606Y-80004500D01*
X224198394Y-80004500D01*
X224198391Y-80004500D01*
X224077549Y-80028536D01*
X223963714Y-80075688D01*
X223861267Y-80144142D01*
X223861263Y-80144145D01*
X223774145Y-80231263D01*
X223774142Y-80231267D01*
X223705688Y-80333714D01*
X223658536Y-80447549D01*
X223634500Y-80568391D01*
X217685499Y-80568391D01*
X217661463Y-80447548D01*
X217614311Y-80333714D01*
X217545858Y-80231267D01*
X217458733Y-80144142D01*
X217356286Y-80075689D01*
X217356287Y-80075689D01*
X217356285Y-80075688D01*
X217242450Y-80028536D01*
X217121608Y-80004500D01*
X217121606Y-80004500D01*
X216998394Y-80004500D01*
X216998391Y-80004500D01*
X216877549Y-80028536D01*
X216763714Y-80075688D01*
X216661267Y-80144142D01*
X216661263Y-80144145D01*
X216574145Y-80231263D01*
X216574142Y-80231267D01*
X216505688Y-80333714D01*
X216458536Y-80447549D01*
X216434500Y-80568391D01*
X210485499Y-80568391D01*
X210461463Y-80447548D01*
X210414311Y-80333714D01*
X210345858Y-80231267D01*
X210258733Y-80144142D01*
X210156286Y-80075689D01*
X210156287Y-80075689D01*
X210156285Y-80075688D01*
X210042450Y-80028536D01*
X209921608Y-80004500D01*
X209921606Y-80004500D01*
X209798394Y-80004500D01*
X209798391Y-80004500D01*
X209677549Y-80028536D01*
X209563714Y-80075688D01*
X209461267Y-80144142D01*
X209461263Y-80144145D01*
X209374145Y-80231263D01*
X209374142Y-80231267D01*
X209305688Y-80333714D01*
X209258536Y-80447549D01*
X209234500Y-80568391D01*
X206485499Y-80568391D01*
X206461463Y-80447548D01*
X206414311Y-80333714D01*
X206345858Y-80231267D01*
X206258733Y-80144142D01*
X206156286Y-80075689D01*
X206156287Y-80075689D01*
X206156285Y-80075688D01*
X206042450Y-80028536D01*
X205921608Y-80004500D01*
X205921606Y-80004500D01*
X205798394Y-80004500D01*
X205798391Y-80004500D01*
X205677549Y-80028536D01*
X205563714Y-80075688D01*
X205461267Y-80144142D01*
X205461263Y-80144145D01*
X205374145Y-80231263D01*
X205374142Y-80231267D01*
X205305688Y-80333714D01*
X205258536Y-80447549D01*
X205234500Y-80568391D01*
X143328577Y-80568391D01*
X143306864Y-74438152D01*
X143325565Y-74379897D01*
X143374937Y-74343758D01*
X143436122Y-74343542D01*
X143448819Y-74348608D01*
X143460639Y-74354301D01*
X143591810Y-74400199D01*
X143741627Y-74452623D01*
X143741630Y-74452623D01*
X143741631Y-74452624D01*
X144031865Y-74518868D01*
X144111636Y-74527856D01*
X144327674Y-74552199D01*
X144327690Y-74552199D01*
X144327691Y-74552200D01*
X144327692Y-74552200D01*
X144625388Y-74552200D01*
X144625389Y-74552200D01*
X144625390Y-74552199D01*
X144625405Y-74552199D01*
X144814852Y-74530852D01*
X144921215Y-74518868D01*
X145211449Y-74452624D01*
X145492441Y-74354301D01*
X145760657Y-74225135D01*
X146012725Y-74066750D01*
X146245474Y-73881138D01*
X146455978Y-73670634D01*
X146641590Y-73437885D01*
X146799975Y-73185817D01*
X146929141Y-72917601D01*
X147027464Y-72636609D01*
X147093708Y-72346375D01*
X147112387Y-72180598D01*
X147127039Y-72050565D01*
X147127040Y-72050548D01*
X147127040Y-71752851D01*
X147127039Y-71752834D01*
X147093708Y-71457028D01*
X147093707Y-71457022D01*
X147027463Y-71166787D01*
X146961188Y-70977384D01*
X146929141Y-70885799D01*
X146866181Y-70755061D01*
X146811712Y-70641954D01*
X146803499Y-70581323D01*
X146832493Y-70527443D01*
X146887619Y-70500896D01*
X146900908Y-70500000D01*
X161265130Y-70500000D01*
X161323321Y-70518907D01*
G37*
%TD.AperFunction*%
%TD*%
M02*
