%TF.GenerationSoftware,KiCad,Pcbnew,9.0.1*%
%TF.CreationDate,2025-05-27T22:41:42-05:00*%
%TF.ProjectId,CM5IO,434d3549-4f2e-46b6-9963-61645f706362,rev?*%
%TF.SameCoordinates,Original*%
%TF.FileFunction,Soldermask,Bot*%
%TF.FilePolarity,Negative*%
%FSLAX46Y46*%
G04 Gerber Fmt 4.6, Leading zero omitted, Abs format (unit mm)*
G04 Created by KiCad (PCBNEW 9.0.1) date 2025-05-27 22:41:42*
%MOMM*%
%LPD*%
G01*
G04 APERTURE LIST*
G04 Aperture macros list*
%AMRoundRect*
0 Rectangle with rounded corners*
0 $1 Rounding radius*
0 $2 $3 $4 $5 $6 $7 $8 $9 X,Y pos of 4 corners*
0 Add a 4 corners polygon primitive as box body*
4,1,4,$2,$3,$4,$5,$6,$7,$8,$9,$2,$3,0*
0 Add four circle primitives for the rounded corners*
1,1,$1+$1,$2,$3*
1,1,$1+$1,$4,$5*
1,1,$1+$1,$6,$7*
1,1,$1+$1,$8,$9*
0 Add four rect primitives between the rounded corners*
20,1,$1+$1,$2,$3,$4,$5,0*
20,1,$1+$1,$4,$5,$6,$7,0*
20,1,$1+$1,$6,$7,$8,$9,0*
20,1,$1+$1,$8,$9,$2,$3,0*%
G04 Aperture macros list end*
%ADD10C,5.300000*%
%ADD11C,1.320800*%
%ADD12C,1.574800*%
%ADD13C,1.600000*%
%ADD14C,1.100000*%
%ADD15C,1.270000*%
%ADD16RoundRect,0.250001X-0.499999X-0.759999X0.499999X-0.759999X0.499999X0.759999X-0.499999X0.759999X0*%
%ADD17O,1.500000X2.020000*%
%ADD18RoundRect,0.250001X0.499999X0.759999X-0.499999X0.759999X-0.499999X-0.759999X0.499999X-0.759999X0*%
%ADD19C,1.650000*%
%ADD20C,1.150000*%
%ADD21C,6.100000*%
%ADD22C,1.000000*%
%ADD23C,2.500000*%
G04 APERTURE END LIST*
D10*
%TO.C,H2*%
X144974874Y-156225126D03*
%TD*%
%TO.C,H3*%
X144476540Y-71901700D03*
%TD*%
%TO.C,H6*%
X239800000Y-72400000D03*
%TD*%
%TO.C,H8*%
X240010000Y-156360000D03*
%TD*%
D11*
%TO.C,J2*%
X205261300Y-142250000D03*
X205261300Y-157250000D03*
D12*
X207221301Y-154249999D03*
X207221301Y-151250000D03*
X207221301Y-148250000D03*
X207221301Y-145250001D03*
%TD*%
D13*
%TO.C,J1*%
X230160000Y-76530000D03*
D14*
X205160000Y-76530000D03*
%TD*%
D11*
%TO.C,J7*%
X241568700Y-92970000D03*
X241568700Y-77970000D03*
D12*
X239608699Y-80970001D03*
X239608699Y-83970000D03*
X239608699Y-86970000D03*
X239608699Y-89969999D03*
%TD*%
D15*
%TO.C,J6*%
X149680000Y-152750000D03*
X161680000Y-152750000D03*
D16*
X152680000Y-154710000D03*
D17*
X155680000Y-154710000D03*
X158680000Y-154710000D03*
%TD*%
D15*
%TO.C,J3*%
X161700000Y-149980000D03*
X149700000Y-149980000D03*
D18*
X158700000Y-148020000D03*
D17*
X155700000Y-148020000D03*
X152700000Y-148020000D03*
%TD*%
D19*
%TO.C,MC1*%
X229760000Y-126930000D03*
D20*
X205560000Y-126930000D03*
%TD*%
D21*
%TO.C,Module1*%
X162500000Y-73500000D03*
X162500000Y-121500000D03*
X195500000Y-73500000D03*
X195500000Y-121500000D03*
%TD*%
D22*
%TO.C,J5*%
X174930000Y-151600000D03*
X172430000Y-151600000D03*
X170430000Y-151600000D03*
X167930000Y-151600000D03*
X167430000Y-153100000D03*
X169430000Y-153100000D03*
X171430000Y-153100000D03*
X173430000Y-153100000D03*
X175430000Y-153100000D03*
D23*
X178000000Y-151700000D03*
X164860000Y-151700000D03*
%TD*%
M02*
