%TF.GenerationSoftware,KiCad,Pcbnew,9.0.1*%
%TF.CreationDate,2025-06-02T23:27:56-04:00*%
%TF.ProjectId,CM5IO,434d3549-4f2e-46b6-9963-61645f706362,rev?*%
%TF.SameCoordinates,Original*%
%TF.FileFunction,Legend,Top*%
%TF.FilePolarity,Positive*%
%FSLAX46Y46*%
G04 Gerber Fmt 4.6, Leading zero omitted, Abs format (unit mm)*
G04 Created by KiCad (PCBNEW 9.0.1) date 2025-06-02 23:27:56*
%MOMM*%
%LPD*%
G01*
G04 APERTURE LIST*
G04 Aperture macros list*
%AMRoundRect*
0 Rectangle with rounded corners*
0 $1 Rounding radius*
0 $2 $3 $4 $5 $6 $7 $8 $9 X,Y pos of 4 corners*
0 Add a 4 corners polygon primitive as box body*
4,1,4,$2,$3,$4,$5,$6,$7,$8,$9,$2,$3,0*
0 Add four circle primitives for the rounded corners*
1,1,$1+$1,$2,$3*
1,1,$1+$1,$4,$5*
1,1,$1+$1,$6,$7*
1,1,$1+$1,$8,$9*
0 Add four rect primitives between the rounded corners*
20,1,$1+$1,$2,$3,$4,$5,0*
20,1,$1+$1,$4,$5,$6,$7,0*
20,1,$1+$1,$6,$7,$8,$9,0*
20,1,$1+$1,$8,$9,$2,$3,0*%
G04 Aperture macros list end*
%ADD10C,0.150000*%
%ADD11C,0.300000*%
%ADD12C,0.100000*%
%ADD13C,0.254000*%
%ADD14C,0.152400*%
%ADD15C,0.000000*%
%ADD16C,0.120000*%
%ADD17C,0.508000*%
%ADD18C,0.200000*%
%ADD19C,0.127000*%
%ADD20R,1.000000X3.000000*%
%ADD21R,0.279400X1.409700*%
%ADD22RoundRect,0.135000X0.185000X-0.135000X0.185000X0.135000X-0.185000X0.135000X-0.185000X-0.135000X0*%
%ADD23RoundRect,0.218750X0.218750X0.256250X-0.218750X0.256250X-0.218750X-0.256250X0.218750X-0.256250X0*%
%ADD24RoundRect,0.100000X-0.100000X0.225000X-0.100000X-0.225000X0.100000X-0.225000X0.100000X0.225000X0*%
%ADD25C,5.300000*%
%ADD26RoundRect,0.250000X0.450000X-0.350000X0.450000X0.350000X-0.450000X0.350000X-0.450000X-0.350000X0*%
%ADD27R,0.300000X0.500000*%
%ADD28R,1.750000X1.050000*%
%ADD29RoundRect,0.250000X-0.250000X-0.475000X0.250000X-0.475000X0.250000X0.475000X-0.250000X0.475000X0*%
%ADD30RoundRect,0.250000X0.250000X0.475000X-0.250000X0.475000X-0.250000X-0.475000X0.250000X-0.475000X0*%
%ADD31C,1.320800*%
%ADD32C,1.574800*%
%ADD33RoundRect,0.140000X-0.170000X0.140000X-0.170000X-0.140000X0.170000X-0.140000X0.170000X0.140000X0*%
%ADD34RoundRect,0.140000X-0.140000X-0.170000X0.140000X-0.170000X0.140000X0.170000X-0.140000X0.170000X0*%
%ADD35RoundRect,0.159000X0.189000X-0.159000X0.189000X0.159000X-0.189000X0.159000X-0.189000X-0.159000X0*%
%ADD36RoundRect,0.225000X0.225000X0.250000X-0.225000X0.250000X-0.225000X-0.250000X0.225000X-0.250000X0*%
%ADD37C,1.600000*%
%ADD38C,1.100000*%
%ADD39RoundRect,0.076200X0.300000X1.000000X-0.300000X1.000000X-0.300000X-1.000000X0.300000X-1.000000X0*%
%ADD40RoundRect,0.076200X1.150000X1.600000X-1.150000X1.600000X-1.150000X-1.600000X1.150000X-1.600000X0*%
%ADD41RoundRect,0.200000X0.275000X-0.200000X0.275000X0.200000X-0.275000X0.200000X-0.275000X-0.200000X0*%
%ADD42RoundRect,0.150000X0.625000X-0.150000X0.625000X0.150000X-0.625000X0.150000X-0.625000X-0.150000X0*%
%ADD43RoundRect,0.250000X0.650000X-0.350000X0.650000X0.350000X-0.650000X0.350000X-0.650000X-0.350000X0*%
%ADD44RoundRect,0.159000X0.159000X0.189000X-0.159000X0.189000X-0.159000X-0.189000X0.159000X-0.189000X0*%
%ADD45RoundRect,0.250000X1.025000X-0.787500X1.025000X0.787500X-1.025000X0.787500X-1.025000X-0.787500X0*%
%ADD46RoundRect,0.159000X-0.189000X0.159000X-0.189000X-0.159000X0.189000X-0.159000X0.189000X0.159000X0*%
%ADD47RoundRect,0.200000X-0.200000X-0.275000X0.200000X-0.275000X0.200000X0.275000X-0.200000X0.275000X0*%
%ADD48C,1.270000*%
%ADD49RoundRect,0.250001X-0.499999X-0.759999X0.499999X-0.759999X0.499999X0.759999X-0.499999X0.759999X0*%
%ADD50O,1.500000X2.020000*%
%ADD51RoundRect,0.150000X-0.150000X0.512500X-0.150000X-0.512500X0.150000X-0.512500X0.150000X0.512500X0*%
%ADD52R,2.950000X3.500000*%
%ADD53RoundRect,0.140000X0.140000X0.170000X-0.140000X0.170000X-0.140000X-0.170000X0.140000X-0.170000X0*%
%ADD54RoundRect,0.218750X-0.218750X-0.256250X0.218750X-0.256250X0.218750X0.256250X-0.218750X0.256250X0*%
%ADD55RoundRect,0.200000X-0.275000X0.200000X-0.275000X-0.200000X0.275000X-0.200000X0.275000X0.200000X0*%
%ADD56RoundRect,0.225000X-0.225000X-0.250000X0.225000X-0.250000X0.225000X0.250000X-0.225000X0.250000X0*%
%ADD57RoundRect,0.250001X0.499999X0.759999X-0.499999X0.759999X-0.499999X-0.759999X0.499999X-0.759999X0*%
%ADD58R,1.200000X0.600000*%
%ADD59RoundRect,0.135000X-0.135000X-0.185000X0.135000X-0.185000X0.135000X0.185000X-0.135000X0.185000X0*%
%ADD60RoundRect,0.135000X0.135000X0.185000X-0.135000X0.185000X-0.135000X-0.185000X0.135000X-0.185000X0*%
%ADD61RoundRect,0.200000X0.200000X0.275000X-0.200000X0.275000X-0.200000X-0.275000X0.200000X-0.275000X0*%
%ADD62RoundRect,0.135000X-0.185000X0.135000X-0.185000X-0.135000X0.185000X-0.135000X0.185000X0.135000X0*%
%ADD63RoundRect,0.225000X-0.250000X0.225000X-0.250000X-0.225000X0.250000X-0.225000X0.250000X0.225000X0*%
%ADD64C,1.650000*%
%ADD65C,1.150000*%
%ADD66R,4.800000X3.000000*%
%ADD67C,6.100000*%
%ADD68R,0.700000X0.200000*%
%ADD69C,1.000000*%
%ADD70C,2.500000*%
%ADD71RoundRect,0.076200X-0.575000X-0.325000X0.575000X-0.325000X0.575000X0.325000X-0.575000X0.325000X0*%
%ADD72RoundRect,0.076200X-0.650000X-0.225000X0.650000X-0.225000X0.650000X0.225000X-0.650000X0.225000X0*%
%ADD73RoundRect,0.076200X-0.850000X-0.700000X0.850000X-0.700000X0.850000X0.700000X-0.850000X0.700000X0*%
%ADD74RoundRect,0.076200X-0.400000X-0.270000X0.400000X-0.270000X0.400000X0.270000X-0.400000X0.270000X0*%
G04 APERTURE END LIST*
D10*
X142991009Y-97259523D02*
X142991009Y-97592856D01*
X143514819Y-97592856D02*
X142514819Y-97592856D01*
X142514819Y-97592856D02*
X142514819Y-97116666D01*
X143229104Y-96783332D02*
X143229104Y-96307142D01*
X143514819Y-96878570D02*
X142514819Y-96545237D01*
X142514819Y-96545237D02*
X143514819Y-96211904D01*
X143514819Y-95878570D02*
X142514819Y-95878570D01*
X142514819Y-95878570D02*
X143514819Y-95307142D01*
X143514819Y-95307142D02*
X142514819Y-95307142D01*
X158748207Y-158109819D02*
X158414874Y-157633628D01*
X158176779Y-158109819D02*
X158176779Y-157109819D01*
X158176779Y-157109819D02*
X158557731Y-157109819D01*
X158557731Y-157109819D02*
X158652969Y-157157438D01*
X158652969Y-157157438D02*
X158700588Y-157205057D01*
X158700588Y-157205057D02*
X158748207Y-157300295D01*
X158748207Y-157300295D02*
X158748207Y-157443152D01*
X158748207Y-157443152D02*
X158700588Y-157538390D01*
X158700588Y-157538390D02*
X158652969Y-157586009D01*
X158652969Y-157586009D02*
X158557731Y-157633628D01*
X158557731Y-157633628D02*
X158176779Y-157633628D01*
X159176779Y-158109819D02*
X159176779Y-157109819D01*
X160176778Y-157157438D02*
X160081540Y-157109819D01*
X160081540Y-157109819D02*
X159938683Y-157109819D01*
X159938683Y-157109819D02*
X159795826Y-157157438D01*
X159795826Y-157157438D02*
X159700588Y-157252676D01*
X159700588Y-157252676D02*
X159652969Y-157347914D01*
X159652969Y-157347914D02*
X159605350Y-157538390D01*
X159605350Y-157538390D02*
X159605350Y-157681247D01*
X159605350Y-157681247D02*
X159652969Y-157871723D01*
X159652969Y-157871723D02*
X159700588Y-157966961D01*
X159700588Y-157966961D02*
X159795826Y-158062200D01*
X159795826Y-158062200D02*
X159938683Y-158109819D01*
X159938683Y-158109819D02*
X160033921Y-158109819D01*
X160033921Y-158109819D02*
X160176778Y-158062200D01*
X160176778Y-158062200D02*
X160224397Y-158014580D01*
X160224397Y-158014580D02*
X160224397Y-157681247D01*
X160224397Y-157681247D02*
X160033921Y-157681247D01*
X160652969Y-158109819D02*
X160652969Y-157109819D01*
X160652969Y-157586009D02*
X161224397Y-157586009D01*
X161224397Y-158109819D02*
X161224397Y-157109819D01*
X161557731Y-157109819D02*
X162129159Y-157109819D01*
X161843445Y-158109819D02*
X161843445Y-157109819D01*
D11*
X236914510Y-75709400D02*
X238057368Y-75709400D01*
X237485939Y-76280828D02*
X237485939Y-75137971D01*
D10*
X149932969Y-145369819D02*
X149456779Y-145369819D01*
X149456779Y-145369819D02*
X149456779Y-144369819D01*
X150266303Y-144846009D02*
X150599636Y-144846009D01*
X150742493Y-145369819D02*
X150266303Y-145369819D01*
X150266303Y-145369819D02*
X150266303Y-144369819D01*
X150266303Y-144369819D02*
X150742493Y-144369819D01*
X151504398Y-144846009D02*
X151171065Y-144846009D01*
X151171065Y-145369819D02*
X151171065Y-144369819D01*
X151171065Y-144369819D02*
X151647255Y-144369819D01*
X151885351Y-144369819D02*
X152456779Y-144369819D01*
X152171065Y-145369819D02*
X152171065Y-144369819D01*
D11*
X183757143Y-108190782D02*
X183852381Y-108095544D01*
X183852381Y-108095544D02*
X184138095Y-108000305D01*
X184138095Y-108000305D02*
X184328571Y-108000305D01*
X184328571Y-108000305D02*
X184614286Y-108095544D01*
X184614286Y-108095544D02*
X184804762Y-108286020D01*
X184804762Y-108286020D02*
X184900000Y-108476496D01*
X184900000Y-108476496D02*
X184995238Y-108857448D01*
X184995238Y-108857448D02*
X184995238Y-109143163D01*
X184995238Y-109143163D02*
X184900000Y-109524115D01*
X184900000Y-109524115D02*
X184804762Y-109714591D01*
X184804762Y-109714591D02*
X184614286Y-109905067D01*
X184614286Y-109905067D02*
X184328571Y-110000305D01*
X184328571Y-110000305D02*
X184138095Y-110000305D01*
X184138095Y-110000305D02*
X183852381Y-109905067D01*
X183852381Y-109905067D02*
X183757143Y-109809829D01*
X182614286Y-108000305D02*
X182804762Y-108095544D01*
X182804762Y-108095544D02*
X182900000Y-108190782D01*
X182900000Y-108190782D02*
X182995238Y-108381258D01*
X182995238Y-108381258D02*
X182995238Y-108952686D01*
X182995238Y-108952686D02*
X182900000Y-109143163D01*
X182900000Y-109143163D02*
X182804762Y-109238401D01*
X182804762Y-109238401D02*
X182614286Y-109333639D01*
X182614286Y-109333639D02*
X182328571Y-109333639D01*
X182328571Y-109333639D02*
X182138095Y-109238401D01*
X182138095Y-109238401D02*
X182042857Y-109143163D01*
X182042857Y-109143163D02*
X181947619Y-108952686D01*
X181947619Y-108952686D02*
X181947619Y-108381258D01*
X181947619Y-108381258D02*
X182042857Y-108190782D01*
X182042857Y-108190782D02*
X182138095Y-108095544D01*
X182138095Y-108095544D02*
X182328571Y-108000305D01*
X182328571Y-108000305D02*
X182614286Y-108000305D01*
X181090476Y-108000305D02*
X181090476Y-109333639D01*
X181090476Y-109143163D02*
X180995238Y-109238401D01*
X180995238Y-109238401D02*
X180804762Y-109333639D01*
X180804762Y-109333639D02*
X180519047Y-109333639D01*
X180519047Y-109333639D02*
X180328571Y-109238401D01*
X180328571Y-109238401D02*
X180233333Y-109047924D01*
X180233333Y-109047924D02*
X180233333Y-108000305D01*
X180233333Y-109047924D02*
X180138095Y-109238401D01*
X180138095Y-109238401D02*
X179947619Y-109333639D01*
X179947619Y-109333639D02*
X179661905Y-109333639D01*
X179661905Y-109333639D02*
X179471428Y-109238401D01*
X179471428Y-109238401D02*
X179376190Y-109047924D01*
X179376190Y-109047924D02*
X179376190Y-108000305D01*
X178423809Y-109333639D02*
X178423809Y-107333639D01*
X178423809Y-109238401D02*
X178233333Y-109333639D01*
X178233333Y-109333639D02*
X177852380Y-109333639D01*
X177852380Y-109333639D02*
X177661904Y-109238401D01*
X177661904Y-109238401D02*
X177566666Y-109143163D01*
X177566666Y-109143163D02*
X177471428Y-108952686D01*
X177471428Y-108952686D02*
X177471428Y-108381258D01*
X177471428Y-108381258D02*
X177566666Y-108190782D01*
X177566666Y-108190782D02*
X177661904Y-108095544D01*
X177661904Y-108095544D02*
X177852380Y-108000305D01*
X177852380Y-108000305D02*
X178233333Y-108000305D01*
X178233333Y-108000305D02*
X178423809Y-108095544D01*
X175757142Y-109333639D02*
X175757142Y-108000305D01*
X176614285Y-109333639D02*
X176614285Y-108286020D01*
X176614285Y-108286020D02*
X176519047Y-108095544D01*
X176519047Y-108095544D02*
X176328571Y-108000305D01*
X176328571Y-108000305D02*
X176042856Y-108000305D01*
X176042856Y-108000305D02*
X175852380Y-108095544D01*
X175852380Y-108095544D02*
X175757142Y-108190782D01*
X175090475Y-109333639D02*
X174328571Y-109333639D01*
X174804761Y-110000305D02*
X174804761Y-108286020D01*
X174804761Y-108286020D02*
X174709523Y-108095544D01*
X174709523Y-108095544D02*
X174519047Y-108000305D01*
X174519047Y-108000305D02*
X174328571Y-108000305D01*
X172899999Y-108095544D02*
X173090475Y-108000305D01*
X173090475Y-108000305D02*
X173471428Y-108000305D01*
X173471428Y-108000305D02*
X173661904Y-108095544D01*
X173661904Y-108095544D02*
X173757142Y-108286020D01*
X173757142Y-108286020D02*
X173757142Y-109047924D01*
X173757142Y-109047924D02*
X173661904Y-109238401D01*
X173661904Y-109238401D02*
X173471428Y-109333639D01*
X173471428Y-109333639D02*
X173090475Y-109333639D01*
X173090475Y-109333639D02*
X172899999Y-109238401D01*
X172899999Y-109238401D02*
X172804761Y-109047924D01*
X172804761Y-109047924D02*
X172804761Y-108857448D01*
X172804761Y-108857448D02*
X173757142Y-108666972D01*
X185376190Y-104780417D02*
X185376190Y-106780417D01*
X185376190Y-106780417D02*
X184709523Y-105351846D01*
X184709523Y-105351846D02*
X184042857Y-106780417D01*
X184042857Y-106780417D02*
X184042857Y-104780417D01*
X182804762Y-104780417D02*
X182995238Y-104875656D01*
X182995238Y-104875656D02*
X183090476Y-104970894D01*
X183090476Y-104970894D02*
X183185714Y-105161370D01*
X183185714Y-105161370D02*
X183185714Y-105732798D01*
X183185714Y-105732798D02*
X183090476Y-105923275D01*
X183090476Y-105923275D02*
X182995238Y-106018513D01*
X182995238Y-106018513D02*
X182804762Y-106113751D01*
X182804762Y-106113751D02*
X182519047Y-106113751D01*
X182519047Y-106113751D02*
X182328571Y-106018513D01*
X182328571Y-106018513D02*
X182233333Y-105923275D01*
X182233333Y-105923275D02*
X182138095Y-105732798D01*
X182138095Y-105732798D02*
X182138095Y-105161370D01*
X182138095Y-105161370D02*
X182233333Y-104970894D01*
X182233333Y-104970894D02*
X182328571Y-104875656D01*
X182328571Y-104875656D02*
X182519047Y-104780417D01*
X182519047Y-104780417D02*
X182804762Y-104780417D01*
X180423809Y-104780417D02*
X180423809Y-106780417D01*
X180423809Y-104875656D02*
X180614285Y-104780417D01*
X180614285Y-104780417D02*
X180995238Y-104780417D01*
X180995238Y-104780417D02*
X181185714Y-104875656D01*
X181185714Y-104875656D02*
X181280952Y-104970894D01*
X181280952Y-104970894D02*
X181376190Y-105161370D01*
X181376190Y-105161370D02*
X181376190Y-105732798D01*
X181376190Y-105732798D02*
X181280952Y-105923275D01*
X181280952Y-105923275D02*
X181185714Y-106018513D01*
X181185714Y-106018513D02*
X180995238Y-106113751D01*
X180995238Y-106113751D02*
X180614285Y-106113751D01*
X180614285Y-106113751D02*
X180423809Y-106018513D01*
X178614285Y-106113751D02*
X178614285Y-104780417D01*
X179471428Y-106113751D02*
X179471428Y-105066132D01*
X179471428Y-105066132D02*
X179376190Y-104875656D01*
X179376190Y-104875656D02*
X179185714Y-104780417D01*
X179185714Y-104780417D02*
X178899999Y-104780417D01*
X178899999Y-104780417D02*
X178709523Y-104875656D01*
X178709523Y-104875656D02*
X178614285Y-104970894D01*
X177376190Y-104780417D02*
X177566666Y-104875656D01*
X177566666Y-104875656D02*
X177661904Y-105066132D01*
X177661904Y-105066132D02*
X177661904Y-106780417D01*
X175852380Y-104875656D02*
X176042856Y-104780417D01*
X176042856Y-104780417D02*
X176423809Y-104780417D01*
X176423809Y-104780417D02*
X176614285Y-104875656D01*
X176614285Y-104875656D02*
X176709523Y-105066132D01*
X176709523Y-105066132D02*
X176709523Y-105828036D01*
X176709523Y-105828036D02*
X176614285Y-106018513D01*
X176614285Y-106018513D02*
X176423809Y-106113751D01*
X176423809Y-106113751D02*
X176042856Y-106113751D01*
X176042856Y-106113751D02*
X175852380Y-106018513D01*
X175852380Y-106018513D02*
X175757142Y-105828036D01*
X175757142Y-105828036D02*
X175757142Y-105637560D01*
X175757142Y-105637560D02*
X176709523Y-105447084D01*
X172423808Y-106780417D02*
X173376189Y-106780417D01*
X173376189Y-106780417D02*
X173471427Y-105828036D01*
X173471427Y-105828036D02*
X173376189Y-105923275D01*
X173376189Y-105923275D02*
X173185713Y-106018513D01*
X173185713Y-106018513D02*
X172709522Y-106018513D01*
X172709522Y-106018513D02*
X172519046Y-105923275D01*
X172519046Y-105923275D02*
X172423808Y-105828036D01*
X172423808Y-105828036D02*
X172328570Y-105637560D01*
X172328570Y-105637560D02*
X172328570Y-105161370D01*
X172328570Y-105161370D02*
X172423808Y-104970894D01*
X172423808Y-104970894D02*
X172519046Y-104875656D01*
X172519046Y-104875656D02*
X172709522Y-104780417D01*
X172709522Y-104780417D02*
X173185713Y-104780417D01*
X173185713Y-104780417D02*
X173376189Y-104875656D01*
X173376189Y-104875656D02*
X173471427Y-104970894D01*
D12*
X152671228Y-132246190D02*
X153147419Y-132246190D01*
X152147419Y-132579523D02*
X152671228Y-132246190D01*
X152671228Y-132246190D02*
X152147419Y-131912857D01*
X153147419Y-131055714D02*
X153147419Y-131627142D01*
X153147419Y-131341428D02*
X152147419Y-131341428D01*
X152147419Y-131341428D02*
X152290276Y-131436666D01*
X152290276Y-131436666D02*
X152385514Y-131531904D01*
X152385514Y-131531904D02*
X152433133Y-131627142D01*
D10*
X158918095Y-127034819D02*
X158918095Y-127844342D01*
X158918095Y-127844342D02*
X158965714Y-127939580D01*
X158965714Y-127939580D02*
X159013333Y-127987200D01*
X159013333Y-127987200D02*
X159108571Y-128034819D01*
X159108571Y-128034819D02*
X159299047Y-128034819D01*
X159299047Y-128034819D02*
X159394285Y-127987200D01*
X159394285Y-127987200D02*
X159441904Y-127939580D01*
X159441904Y-127939580D02*
X159489523Y-127844342D01*
X159489523Y-127844342D02*
X159489523Y-127034819D01*
X160489523Y-128034819D02*
X159918095Y-128034819D01*
X160203809Y-128034819D02*
X160203809Y-127034819D01*
X160203809Y-127034819D02*
X160108571Y-127177676D01*
X160108571Y-127177676D02*
X160013333Y-127272914D01*
X160013333Y-127272914D02*
X159918095Y-127320533D01*
X150957142Y-100854819D02*
X150623809Y-100378628D01*
X150385714Y-100854819D02*
X150385714Y-99854819D01*
X150385714Y-99854819D02*
X150766666Y-99854819D01*
X150766666Y-99854819D02*
X150861904Y-99902438D01*
X150861904Y-99902438D02*
X150909523Y-99950057D01*
X150909523Y-99950057D02*
X150957142Y-100045295D01*
X150957142Y-100045295D02*
X150957142Y-100188152D01*
X150957142Y-100188152D02*
X150909523Y-100283390D01*
X150909523Y-100283390D02*
X150861904Y-100331009D01*
X150861904Y-100331009D02*
X150766666Y-100378628D01*
X150766666Y-100378628D02*
X150385714Y-100378628D01*
X151909523Y-100854819D02*
X151338095Y-100854819D01*
X151623809Y-100854819D02*
X151623809Y-99854819D01*
X151623809Y-99854819D02*
X151528571Y-99997676D01*
X151528571Y-99997676D02*
X151433333Y-100092914D01*
X151433333Y-100092914D02*
X151338095Y-100140533D01*
X152528571Y-99854819D02*
X152623809Y-99854819D01*
X152623809Y-99854819D02*
X152719047Y-99902438D01*
X152719047Y-99902438D02*
X152766666Y-99950057D01*
X152766666Y-99950057D02*
X152814285Y-100045295D01*
X152814285Y-100045295D02*
X152861904Y-100235771D01*
X152861904Y-100235771D02*
X152861904Y-100473866D01*
X152861904Y-100473866D02*
X152814285Y-100664342D01*
X152814285Y-100664342D02*
X152766666Y-100759580D01*
X152766666Y-100759580D02*
X152719047Y-100807200D01*
X152719047Y-100807200D02*
X152623809Y-100854819D01*
X152623809Y-100854819D02*
X152528571Y-100854819D01*
X152528571Y-100854819D02*
X152433333Y-100807200D01*
X152433333Y-100807200D02*
X152385714Y-100759580D01*
X152385714Y-100759580D02*
X152338095Y-100664342D01*
X152338095Y-100664342D02*
X152290476Y-100473866D01*
X152290476Y-100473866D02*
X152290476Y-100235771D01*
X152290476Y-100235771D02*
X152338095Y-100045295D01*
X152338095Y-100045295D02*
X152385714Y-99950057D01*
X152385714Y-99950057D02*
X152433333Y-99902438D01*
X152433333Y-99902438D02*
X152528571Y-99854819D01*
X155661905Y-103354819D02*
X155661905Y-102354819D01*
X155661905Y-102354819D02*
X155900000Y-102354819D01*
X155900000Y-102354819D02*
X156042857Y-102402438D01*
X156042857Y-102402438D02*
X156138095Y-102497676D01*
X156138095Y-102497676D02*
X156185714Y-102592914D01*
X156185714Y-102592914D02*
X156233333Y-102783390D01*
X156233333Y-102783390D02*
X156233333Y-102926247D01*
X156233333Y-102926247D02*
X156185714Y-103116723D01*
X156185714Y-103116723D02*
X156138095Y-103211961D01*
X156138095Y-103211961D02*
X156042857Y-103307200D01*
X156042857Y-103307200D02*
X155900000Y-103354819D01*
X155900000Y-103354819D02*
X155661905Y-103354819D01*
X156614286Y-102450057D02*
X156661905Y-102402438D01*
X156661905Y-102402438D02*
X156757143Y-102354819D01*
X156757143Y-102354819D02*
X156995238Y-102354819D01*
X156995238Y-102354819D02*
X157090476Y-102402438D01*
X157090476Y-102402438D02*
X157138095Y-102450057D01*
X157138095Y-102450057D02*
X157185714Y-102545295D01*
X157185714Y-102545295D02*
X157185714Y-102640533D01*
X157185714Y-102640533D02*
X157138095Y-102783390D01*
X157138095Y-102783390D02*
X156566667Y-103354819D01*
X156566667Y-103354819D02*
X157185714Y-103354819D01*
X150561905Y-103354819D02*
X150561905Y-102354819D01*
X150561905Y-102354819D02*
X150800000Y-102354819D01*
X150800000Y-102354819D02*
X150942857Y-102402438D01*
X150942857Y-102402438D02*
X151038095Y-102497676D01*
X151038095Y-102497676D02*
X151085714Y-102592914D01*
X151085714Y-102592914D02*
X151133333Y-102783390D01*
X151133333Y-102783390D02*
X151133333Y-102926247D01*
X151133333Y-102926247D02*
X151085714Y-103116723D01*
X151085714Y-103116723D02*
X151038095Y-103211961D01*
X151038095Y-103211961D02*
X150942857Y-103307200D01*
X150942857Y-103307200D02*
X150800000Y-103354819D01*
X150800000Y-103354819D02*
X150561905Y-103354819D01*
X152085714Y-103354819D02*
X151514286Y-103354819D01*
X151800000Y-103354819D02*
X151800000Y-102354819D01*
X151800000Y-102354819D02*
X151704762Y-102497676D01*
X151704762Y-102497676D02*
X151609524Y-102592914D01*
X151609524Y-102592914D02*
X151514286Y-102640533D01*
X156233333Y-101654819D02*
X155900000Y-101178628D01*
X155661905Y-101654819D02*
X155661905Y-100654819D01*
X155661905Y-100654819D02*
X156042857Y-100654819D01*
X156042857Y-100654819D02*
X156138095Y-100702438D01*
X156138095Y-100702438D02*
X156185714Y-100750057D01*
X156185714Y-100750057D02*
X156233333Y-100845295D01*
X156233333Y-100845295D02*
X156233333Y-100988152D01*
X156233333Y-100988152D02*
X156185714Y-101083390D01*
X156185714Y-101083390D02*
X156138095Y-101131009D01*
X156138095Y-101131009D02*
X156042857Y-101178628D01*
X156042857Y-101178628D02*
X155661905Y-101178628D01*
X157185714Y-101654819D02*
X156614286Y-101654819D01*
X156900000Y-101654819D02*
X156900000Y-100654819D01*
X156900000Y-100654819D02*
X156804762Y-100797676D01*
X156804762Y-100797676D02*
X156709524Y-100892914D01*
X156709524Y-100892914D02*
X156614286Y-100940533D01*
X151338095Y-97554819D02*
X151338095Y-98364342D01*
X151338095Y-98364342D02*
X151385714Y-98459580D01*
X151385714Y-98459580D02*
X151433333Y-98507200D01*
X151433333Y-98507200D02*
X151528571Y-98554819D01*
X151528571Y-98554819D02*
X151719047Y-98554819D01*
X151719047Y-98554819D02*
X151814285Y-98507200D01*
X151814285Y-98507200D02*
X151861904Y-98459580D01*
X151861904Y-98459580D02*
X151909523Y-98364342D01*
X151909523Y-98364342D02*
X151909523Y-97554819D01*
X152861904Y-97554819D02*
X152385714Y-97554819D01*
X152385714Y-97554819D02*
X152338095Y-98031009D01*
X152338095Y-98031009D02*
X152385714Y-97983390D01*
X152385714Y-97983390D02*
X152480952Y-97935771D01*
X152480952Y-97935771D02*
X152719047Y-97935771D01*
X152719047Y-97935771D02*
X152814285Y-97983390D01*
X152814285Y-97983390D02*
X152861904Y-98031009D01*
X152861904Y-98031009D02*
X152909523Y-98126247D01*
X152909523Y-98126247D02*
X152909523Y-98364342D01*
X152909523Y-98364342D02*
X152861904Y-98459580D01*
X152861904Y-98459580D02*
X152814285Y-98507200D01*
X152814285Y-98507200D02*
X152719047Y-98554819D01*
X152719047Y-98554819D02*
X152480952Y-98554819D01*
X152480952Y-98554819D02*
X152385714Y-98507200D01*
X152385714Y-98507200D02*
X152338095Y-98459580D01*
X165374819Y-103166666D02*
X164898628Y-103499999D01*
X165374819Y-103738094D02*
X164374819Y-103738094D01*
X164374819Y-103738094D02*
X164374819Y-103357142D01*
X164374819Y-103357142D02*
X164422438Y-103261904D01*
X164422438Y-103261904D02*
X164470057Y-103214285D01*
X164470057Y-103214285D02*
X164565295Y-103166666D01*
X164565295Y-103166666D02*
X164708152Y-103166666D01*
X164708152Y-103166666D02*
X164803390Y-103214285D01*
X164803390Y-103214285D02*
X164851009Y-103261904D01*
X164851009Y-103261904D02*
X164898628Y-103357142D01*
X164898628Y-103357142D02*
X164898628Y-103738094D01*
X164374819Y-102261904D02*
X164374819Y-102738094D01*
X164374819Y-102738094D02*
X164851009Y-102785713D01*
X164851009Y-102785713D02*
X164803390Y-102738094D01*
X164803390Y-102738094D02*
X164755771Y-102642856D01*
X164755771Y-102642856D02*
X164755771Y-102404761D01*
X164755771Y-102404761D02*
X164803390Y-102309523D01*
X164803390Y-102309523D02*
X164851009Y-102261904D01*
X164851009Y-102261904D02*
X164946247Y-102214285D01*
X164946247Y-102214285D02*
X165184342Y-102214285D01*
X165184342Y-102214285D02*
X165279580Y-102261904D01*
X165279580Y-102261904D02*
X165327200Y-102309523D01*
X165327200Y-102309523D02*
X165374819Y-102404761D01*
X165374819Y-102404761D02*
X165374819Y-102642856D01*
X165374819Y-102642856D02*
X165327200Y-102738094D01*
X165327200Y-102738094D02*
X165279580Y-102785713D01*
X211995180Y-149416666D02*
X211280895Y-149416666D01*
X211280895Y-149416666D02*
X211138038Y-149369047D01*
X211138038Y-149369047D02*
X211042800Y-149273809D01*
X211042800Y-149273809D02*
X210995180Y-149130952D01*
X210995180Y-149130952D02*
X210995180Y-149035714D01*
X211899942Y-149845238D02*
X211947561Y-149892857D01*
X211947561Y-149892857D02*
X211995180Y-149988095D01*
X211995180Y-149988095D02*
X211995180Y-150226190D01*
X211995180Y-150226190D02*
X211947561Y-150321428D01*
X211947561Y-150321428D02*
X211899942Y-150369047D01*
X211899942Y-150369047D02*
X211804704Y-150416666D01*
X211804704Y-150416666D02*
X211709466Y-150416666D01*
X211709466Y-150416666D02*
X211566609Y-150369047D01*
X211566609Y-150369047D02*
X210995180Y-149797619D01*
X210995180Y-149797619D02*
X210995180Y-150416666D01*
D12*
X155038704Y-143024285D02*
X155076800Y-143062381D01*
X155076800Y-143062381D02*
X155114895Y-143176666D01*
X155114895Y-143176666D02*
X155114895Y-143252857D01*
X155114895Y-143252857D02*
X155076800Y-143367143D01*
X155076800Y-143367143D02*
X155000609Y-143443333D01*
X155000609Y-143443333D02*
X154924419Y-143481428D01*
X154924419Y-143481428D02*
X154772038Y-143519524D01*
X154772038Y-143519524D02*
X154657752Y-143519524D01*
X154657752Y-143519524D02*
X154505371Y-143481428D01*
X154505371Y-143481428D02*
X154429180Y-143443333D01*
X154429180Y-143443333D02*
X154352990Y-143367143D01*
X154352990Y-143367143D02*
X154314895Y-143252857D01*
X154314895Y-143252857D02*
X154314895Y-143176666D01*
X154314895Y-143176666D02*
X154352990Y-143062381D01*
X154352990Y-143062381D02*
X154391085Y-143024285D01*
X155114895Y-142262381D02*
X155114895Y-142719524D01*
X155114895Y-142490952D02*
X154314895Y-142490952D01*
X154314895Y-142490952D02*
X154429180Y-142567143D01*
X154429180Y-142567143D02*
X154505371Y-142643333D01*
X154505371Y-142643333D02*
X154543466Y-142719524D01*
X154391085Y-141957619D02*
X154352990Y-141919523D01*
X154352990Y-141919523D02*
X154314895Y-141843333D01*
X154314895Y-141843333D02*
X154314895Y-141652857D01*
X154314895Y-141652857D02*
X154352990Y-141576666D01*
X154352990Y-141576666D02*
X154391085Y-141538571D01*
X154391085Y-141538571D02*
X154467276Y-141500476D01*
X154467276Y-141500476D02*
X154543466Y-141500476D01*
X154543466Y-141500476D02*
X154657752Y-141538571D01*
X154657752Y-141538571D02*
X155114895Y-141995714D01*
X155114895Y-141995714D02*
X155114895Y-141500476D01*
D10*
X177045833Y-139059580D02*
X176998214Y-139107200D01*
X176998214Y-139107200D02*
X176855357Y-139154819D01*
X176855357Y-139154819D02*
X176760119Y-139154819D01*
X176760119Y-139154819D02*
X176617262Y-139107200D01*
X176617262Y-139107200D02*
X176522024Y-139011961D01*
X176522024Y-139011961D02*
X176474405Y-138916723D01*
X176474405Y-138916723D02*
X176426786Y-138726247D01*
X176426786Y-138726247D02*
X176426786Y-138583390D01*
X176426786Y-138583390D02*
X176474405Y-138392914D01*
X176474405Y-138392914D02*
X176522024Y-138297676D01*
X176522024Y-138297676D02*
X176617262Y-138202438D01*
X176617262Y-138202438D02*
X176760119Y-138154819D01*
X176760119Y-138154819D02*
X176855357Y-138154819D01*
X176855357Y-138154819D02*
X176998214Y-138202438D01*
X176998214Y-138202438D02*
X177045833Y-138250057D01*
X177617262Y-138583390D02*
X177522024Y-138535771D01*
X177522024Y-138535771D02*
X177474405Y-138488152D01*
X177474405Y-138488152D02*
X177426786Y-138392914D01*
X177426786Y-138392914D02*
X177426786Y-138345295D01*
X177426786Y-138345295D02*
X177474405Y-138250057D01*
X177474405Y-138250057D02*
X177522024Y-138202438D01*
X177522024Y-138202438D02*
X177617262Y-138154819D01*
X177617262Y-138154819D02*
X177807738Y-138154819D01*
X177807738Y-138154819D02*
X177902976Y-138202438D01*
X177902976Y-138202438D02*
X177950595Y-138250057D01*
X177950595Y-138250057D02*
X177998214Y-138345295D01*
X177998214Y-138345295D02*
X177998214Y-138392914D01*
X177998214Y-138392914D02*
X177950595Y-138488152D01*
X177950595Y-138488152D02*
X177902976Y-138535771D01*
X177902976Y-138535771D02*
X177807738Y-138583390D01*
X177807738Y-138583390D02*
X177617262Y-138583390D01*
X177617262Y-138583390D02*
X177522024Y-138631009D01*
X177522024Y-138631009D02*
X177474405Y-138678628D01*
X177474405Y-138678628D02*
X177426786Y-138773866D01*
X177426786Y-138773866D02*
X177426786Y-138964342D01*
X177426786Y-138964342D02*
X177474405Y-139059580D01*
X177474405Y-139059580D02*
X177522024Y-139107200D01*
X177522024Y-139107200D02*
X177617262Y-139154819D01*
X177617262Y-139154819D02*
X177807738Y-139154819D01*
X177807738Y-139154819D02*
X177902976Y-139107200D01*
X177902976Y-139107200D02*
X177950595Y-139059580D01*
X177950595Y-139059580D02*
X177998214Y-138964342D01*
X177998214Y-138964342D02*
X177998214Y-138773866D01*
X177998214Y-138773866D02*
X177950595Y-138678628D01*
X177950595Y-138678628D02*
X177902976Y-138631009D01*
X177902976Y-138631009D02*
X177807738Y-138583390D01*
X226493942Y-135256780D02*
X226446323Y-135304400D01*
X226446323Y-135304400D02*
X226303466Y-135352019D01*
X226303466Y-135352019D02*
X226208228Y-135352019D01*
X226208228Y-135352019D02*
X226065371Y-135304400D01*
X226065371Y-135304400D02*
X225970133Y-135209161D01*
X225970133Y-135209161D02*
X225922514Y-135113923D01*
X225922514Y-135113923D02*
X225874895Y-134923447D01*
X225874895Y-134923447D02*
X225874895Y-134780590D01*
X225874895Y-134780590D02*
X225922514Y-134590114D01*
X225922514Y-134590114D02*
X225970133Y-134494876D01*
X225970133Y-134494876D02*
X226065371Y-134399638D01*
X226065371Y-134399638D02*
X226208228Y-134352019D01*
X226208228Y-134352019D02*
X226303466Y-134352019D01*
X226303466Y-134352019D02*
X226446323Y-134399638D01*
X226446323Y-134399638D02*
X226493942Y-134447257D01*
X226874895Y-134447257D02*
X226922514Y-134399638D01*
X226922514Y-134399638D02*
X227017752Y-134352019D01*
X227017752Y-134352019D02*
X227255847Y-134352019D01*
X227255847Y-134352019D02*
X227351085Y-134399638D01*
X227351085Y-134399638D02*
X227398704Y-134447257D01*
X227398704Y-134447257D02*
X227446323Y-134542495D01*
X227446323Y-134542495D02*
X227446323Y-134637733D01*
X227446323Y-134637733D02*
X227398704Y-134780590D01*
X227398704Y-134780590D02*
X226827276Y-135352019D01*
X226827276Y-135352019D02*
X227446323Y-135352019D01*
X228065371Y-134352019D02*
X228160609Y-134352019D01*
X228160609Y-134352019D02*
X228255847Y-134399638D01*
X228255847Y-134399638D02*
X228303466Y-134447257D01*
X228303466Y-134447257D02*
X228351085Y-134542495D01*
X228351085Y-134542495D02*
X228398704Y-134732971D01*
X228398704Y-134732971D02*
X228398704Y-134971066D01*
X228398704Y-134971066D02*
X228351085Y-135161542D01*
X228351085Y-135161542D02*
X228303466Y-135256780D01*
X228303466Y-135256780D02*
X228255847Y-135304400D01*
X228255847Y-135304400D02*
X228160609Y-135352019D01*
X228160609Y-135352019D02*
X228065371Y-135352019D01*
X228065371Y-135352019D02*
X227970133Y-135304400D01*
X227970133Y-135304400D02*
X227922514Y-135256780D01*
X227922514Y-135256780D02*
X227874895Y-135161542D01*
X227874895Y-135161542D02*
X227827276Y-134971066D01*
X227827276Y-134971066D02*
X227827276Y-134732971D01*
X227827276Y-134732971D02*
X227874895Y-134542495D01*
X227874895Y-134542495D02*
X227922514Y-134447257D01*
X227922514Y-134447257D02*
X227970133Y-134399638D01*
X227970133Y-134399638D02*
X228065371Y-134352019D01*
D12*
X152928704Y-143024285D02*
X152966800Y-143062381D01*
X152966800Y-143062381D02*
X153004895Y-143176666D01*
X153004895Y-143176666D02*
X153004895Y-143252857D01*
X153004895Y-143252857D02*
X152966800Y-143367143D01*
X152966800Y-143367143D02*
X152890609Y-143443333D01*
X152890609Y-143443333D02*
X152814419Y-143481428D01*
X152814419Y-143481428D02*
X152662038Y-143519524D01*
X152662038Y-143519524D02*
X152547752Y-143519524D01*
X152547752Y-143519524D02*
X152395371Y-143481428D01*
X152395371Y-143481428D02*
X152319180Y-143443333D01*
X152319180Y-143443333D02*
X152242990Y-143367143D01*
X152242990Y-143367143D02*
X152204895Y-143252857D01*
X152204895Y-143252857D02*
X152204895Y-143176666D01*
X152204895Y-143176666D02*
X152242990Y-143062381D01*
X152242990Y-143062381D02*
X152281085Y-143024285D01*
X152281085Y-142719524D02*
X152242990Y-142681428D01*
X152242990Y-142681428D02*
X152204895Y-142605238D01*
X152204895Y-142605238D02*
X152204895Y-142414762D01*
X152204895Y-142414762D02*
X152242990Y-142338571D01*
X152242990Y-142338571D02*
X152281085Y-142300476D01*
X152281085Y-142300476D02*
X152357276Y-142262381D01*
X152357276Y-142262381D02*
X152433466Y-142262381D01*
X152433466Y-142262381D02*
X152547752Y-142300476D01*
X152547752Y-142300476D02*
X153004895Y-142757619D01*
X153004895Y-142757619D02*
X153004895Y-142262381D01*
X152281085Y-141957619D02*
X152242990Y-141919523D01*
X152242990Y-141919523D02*
X152204895Y-141843333D01*
X152204895Y-141843333D02*
X152204895Y-141652857D01*
X152204895Y-141652857D02*
X152242990Y-141576666D01*
X152242990Y-141576666D02*
X152281085Y-141538571D01*
X152281085Y-141538571D02*
X152357276Y-141500476D01*
X152357276Y-141500476D02*
X152433466Y-141500476D01*
X152433466Y-141500476D02*
X152547752Y-141538571D01*
X152547752Y-141538571D02*
X153004895Y-141995714D01*
X153004895Y-141995714D02*
X153004895Y-141500476D01*
D10*
X221125840Y-78279487D02*
X221125840Y-78995544D01*
X221125840Y-78995544D02*
X221078103Y-79138755D01*
X221078103Y-79138755D02*
X220982629Y-79234230D01*
X220982629Y-79234230D02*
X220839417Y-79281967D01*
X220839417Y-79281967D02*
X220743943Y-79281967D01*
X222128320Y-79281967D02*
X221555474Y-79281967D01*
X221841897Y-79281967D02*
X221841897Y-78279487D01*
X221841897Y-78279487D02*
X221746423Y-78422698D01*
X221746423Y-78422698D02*
X221650948Y-78518172D01*
X221650948Y-78518172D02*
X221555474Y-78565910D01*
X216024419Y-145366857D02*
X215548228Y-145700190D01*
X216024419Y-145938285D02*
X215024419Y-145938285D01*
X215024419Y-145938285D02*
X215024419Y-145557333D01*
X215024419Y-145557333D02*
X215072038Y-145462095D01*
X215072038Y-145462095D02*
X215119657Y-145414476D01*
X215119657Y-145414476D02*
X215214895Y-145366857D01*
X215214895Y-145366857D02*
X215357752Y-145366857D01*
X215357752Y-145366857D02*
X215452990Y-145414476D01*
X215452990Y-145414476D02*
X215500609Y-145462095D01*
X215500609Y-145462095D02*
X215548228Y-145557333D01*
X215548228Y-145557333D02*
X215548228Y-145938285D01*
X216024419Y-144414476D02*
X216024419Y-144985904D01*
X216024419Y-144700190D02*
X215024419Y-144700190D01*
X215024419Y-144700190D02*
X215167276Y-144795428D01*
X215167276Y-144795428D02*
X215262514Y-144890666D01*
X215262514Y-144890666D02*
X215310133Y-144985904D01*
X216024419Y-143938285D02*
X216024419Y-143747809D01*
X216024419Y-143747809D02*
X215976800Y-143652571D01*
X215976800Y-143652571D02*
X215929180Y-143604952D01*
X215929180Y-143604952D02*
X215786323Y-143509714D01*
X215786323Y-143509714D02*
X215595847Y-143462095D01*
X215595847Y-143462095D02*
X215214895Y-143462095D01*
X215214895Y-143462095D02*
X215119657Y-143509714D01*
X215119657Y-143509714D02*
X215072038Y-143557333D01*
X215072038Y-143557333D02*
X215024419Y-143652571D01*
X215024419Y-143652571D02*
X215024419Y-143843047D01*
X215024419Y-143843047D02*
X215072038Y-143938285D01*
X215072038Y-143938285D02*
X215119657Y-143985904D01*
X215119657Y-143985904D02*
X215214895Y-144033523D01*
X215214895Y-144033523D02*
X215452990Y-144033523D01*
X215452990Y-144033523D02*
X215548228Y-143985904D01*
X215548228Y-143985904D02*
X215595847Y-143938285D01*
X215595847Y-143938285D02*
X215643466Y-143843047D01*
X215643466Y-143843047D02*
X215643466Y-143652571D01*
X215643466Y-143652571D02*
X215595847Y-143557333D01*
X215595847Y-143557333D02*
X215548228Y-143509714D01*
X215548228Y-143509714D02*
X215452990Y-143462095D01*
X145095476Y-101074819D02*
X145095476Y-101789104D01*
X145095476Y-101789104D02*
X145047857Y-101931961D01*
X145047857Y-101931961D02*
X144952619Y-102027200D01*
X144952619Y-102027200D02*
X144809762Y-102074819D01*
X144809762Y-102074819D02*
X144714524Y-102074819D01*
X146095476Y-102074819D02*
X145524048Y-102074819D01*
X145809762Y-102074819D02*
X145809762Y-101074819D01*
X145809762Y-101074819D02*
X145714524Y-101217676D01*
X145714524Y-101217676D02*
X145619286Y-101312914D01*
X145619286Y-101312914D02*
X145524048Y-101360533D01*
X146952619Y-101408152D02*
X146952619Y-102074819D01*
X146714524Y-101027200D02*
X146476429Y-101741485D01*
X146476429Y-101741485D02*
X147095476Y-101741485D01*
D12*
X150764285Y-135711295D02*
X150802381Y-135673200D01*
X150802381Y-135673200D02*
X150916666Y-135635104D01*
X150916666Y-135635104D02*
X150992857Y-135635104D01*
X150992857Y-135635104D02*
X151107143Y-135673200D01*
X151107143Y-135673200D02*
X151183333Y-135749390D01*
X151183333Y-135749390D02*
X151221428Y-135825580D01*
X151221428Y-135825580D02*
X151259524Y-135977961D01*
X151259524Y-135977961D02*
X151259524Y-136092247D01*
X151259524Y-136092247D02*
X151221428Y-136244628D01*
X151221428Y-136244628D02*
X151183333Y-136320819D01*
X151183333Y-136320819D02*
X151107143Y-136397009D01*
X151107143Y-136397009D02*
X150992857Y-136435104D01*
X150992857Y-136435104D02*
X150916666Y-136435104D01*
X150916666Y-136435104D02*
X150802381Y-136397009D01*
X150802381Y-136397009D02*
X150764285Y-136358914D01*
X150497619Y-136435104D02*
X150002381Y-136435104D01*
X150002381Y-136435104D02*
X150269047Y-136130342D01*
X150269047Y-136130342D02*
X150154762Y-136130342D01*
X150154762Y-136130342D02*
X150078571Y-136092247D01*
X150078571Y-136092247D02*
X150040476Y-136054152D01*
X150040476Y-136054152D02*
X150002381Y-135977961D01*
X150002381Y-135977961D02*
X150002381Y-135787485D01*
X150002381Y-135787485D02*
X150040476Y-135711295D01*
X150040476Y-135711295D02*
X150078571Y-135673200D01*
X150078571Y-135673200D02*
X150154762Y-135635104D01*
X150154762Y-135635104D02*
X150383333Y-135635104D01*
X150383333Y-135635104D02*
X150459524Y-135673200D01*
X150459524Y-135673200D02*
X150497619Y-135711295D01*
X149697619Y-136358914D02*
X149659523Y-136397009D01*
X149659523Y-136397009D02*
X149583333Y-136435104D01*
X149583333Y-136435104D02*
X149392857Y-136435104D01*
X149392857Y-136435104D02*
X149316666Y-136397009D01*
X149316666Y-136397009D02*
X149278571Y-136358914D01*
X149278571Y-136358914D02*
X149240476Y-136282723D01*
X149240476Y-136282723D02*
X149240476Y-136206533D01*
X149240476Y-136206533D02*
X149278571Y-136092247D01*
X149278571Y-136092247D02*
X149735714Y-135635104D01*
X149735714Y-135635104D02*
X149240476Y-135635104D01*
D10*
X184833333Y-130059580D02*
X184785714Y-130107200D01*
X184785714Y-130107200D02*
X184642857Y-130154819D01*
X184642857Y-130154819D02*
X184547619Y-130154819D01*
X184547619Y-130154819D02*
X184404762Y-130107200D01*
X184404762Y-130107200D02*
X184309524Y-130011961D01*
X184309524Y-130011961D02*
X184261905Y-129916723D01*
X184261905Y-129916723D02*
X184214286Y-129726247D01*
X184214286Y-129726247D02*
X184214286Y-129583390D01*
X184214286Y-129583390D02*
X184261905Y-129392914D01*
X184261905Y-129392914D02*
X184309524Y-129297676D01*
X184309524Y-129297676D02*
X184404762Y-129202438D01*
X184404762Y-129202438D02*
X184547619Y-129154819D01*
X184547619Y-129154819D02*
X184642857Y-129154819D01*
X184642857Y-129154819D02*
X184785714Y-129202438D01*
X184785714Y-129202438D02*
X184833333Y-129250057D01*
X185214286Y-129250057D02*
X185261905Y-129202438D01*
X185261905Y-129202438D02*
X185357143Y-129154819D01*
X185357143Y-129154819D02*
X185595238Y-129154819D01*
X185595238Y-129154819D02*
X185690476Y-129202438D01*
X185690476Y-129202438D02*
X185738095Y-129250057D01*
X185738095Y-129250057D02*
X185785714Y-129345295D01*
X185785714Y-129345295D02*
X185785714Y-129440533D01*
X185785714Y-129440533D02*
X185738095Y-129583390D01*
X185738095Y-129583390D02*
X185166667Y-130154819D01*
X185166667Y-130154819D02*
X185785714Y-130154819D01*
X185733333Y-147119580D02*
X185685714Y-147167200D01*
X185685714Y-147167200D02*
X185542857Y-147214819D01*
X185542857Y-147214819D02*
X185447619Y-147214819D01*
X185447619Y-147214819D02*
X185304762Y-147167200D01*
X185304762Y-147167200D02*
X185209524Y-147071961D01*
X185209524Y-147071961D02*
X185161905Y-146976723D01*
X185161905Y-146976723D02*
X185114286Y-146786247D01*
X185114286Y-146786247D02*
X185114286Y-146643390D01*
X185114286Y-146643390D02*
X185161905Y-146452914D01*
X185161905Y-146452914D02*
X185209524Y-146357676D01*
X185209524Y-146357676D02*
X185304762Y-146262438D01*
X185304762Y-146262438D02*
X185447619Y-146214819D01*
X185447619Y-146214819D02*
X185542857Y-146214819D01*
X185542857Y-146214819D02*
X185685714Y-146262438D01*
X185685714Y-146262438D02*
X185733333Y-146310057D01*
X186066667Y-146214819D02*
X186685714Y-146214819D01*
X186685714Y-146214819D02*
X186352381Y-146595771D01*
X186352381Y-146595771D02*
X186495238Y-146595771D01*
X186495238Y-146595771D02*
X186590476Y-146643390D01*
X186590476Y-146643390D02*
X186638095Y-146691009D01*
X186638095Y-146691009D02*
X186685714Y-146786247D01*
X186685714Y-146786247D02*
X186685714Y-147024342D01*
X186685714Y-147024342D02*
X186638095Y-147119580D01*
X186638095Y-147119580D02*
X186590476Y-147167200D01*
X186590476Y-147167200D02*
X186495238Y-147214819D01*
X186495238Y-147214819D02*
X186209524Y-147214819D01*
X186209524Y-147214819D02*
X186114286Y-147167200D01*
X186114286Y-147167200D02*
X186066667Y-147119580D01*
D12*
X156138704Y-143004285D02*
X156176800Y-143042381D01*
X156176800Y-143042381D02*
X156214895Y-143156666D01*
X156214895Y-143156666D02*
X156214895Y-143232857D01*
X156214895Y-143232857D02*
X156176800Y-143347143D01*
X156176800Y-143347143D02*
X156100609Y-143423333D01*
X156100609Y-143423333D02*
X156024419Y-143461428D01*
X156024419Y-143461428D02*
X155872038Y-143499524D01*
X155872038Y-143499524D02*
X155757752Y-143499524D01*
X155757752Y-143499524D02*
X155605371Y-143461428D01*
X155605371Y-143461428D02*
X155529180Y-143423333D01*
X155529180Y-143423333D02*
X155452990Y-143347143D01*
X155452990Y-143347143D02*
X155414895Y-143232857D01*
X155414895Y-143232857D02*
X155414895Y-143156666D01*
X155414895Y-143156666D02*
X155452990Y-143042381D01*
X155452990Y-143042381D02*
X155491085Y-143004285D01*
X156214895Y-142242381D02*
X156214895Y-142699524D01*
X156214895Y-142470952D02*
X155414895Y-142470952D01*
X155414895Y-142470952D02*
X155529180Y-142547143D01*
X155529180Y-142547143D02*
X155605371Y-142623333D01*
X155605371Y-142623333D02*
X155643466Y-142699524D01*
X155414895Y-141975714D02*
X155414895Y-141480476D01*
X155414895Y-141480476D02*
X155719657Y-141747142D01*
X155719657Y-141747142D02*
X155719657Y-141632857D01*
X155719657Y-141632857D02*
X155757752Y-141556666D01*
X155757752Y-141556666D02*
X155795847Y-141518571D01*
X155795847Y-141518571D02*
X155872038Y-141480476D01*
X155872038Y-141480476D02*
X156062514Y-141480476D01*
X156062514Y-141480476D02*
X156138704Y-141518571D01*
X156138704Y-141518571D02*
X156176800Y-141556666D01*
X156176800Y-141556666D02*
X156214895Y-141632857D01*
X156214895Y-141632857D02*
X156214895Y-141861428D01*
X156214895Y-141861428D02*
X156176800Y-141937619D01*
X156176800Y-141937619D02*
X156138704Y-141975714D01*
D10*
X239063518Y-85803333D02*
X239777803Y-85803333D01*
X239777803Y-85803333D02*
X239920660Y-85850952D01*
X239920660Y-85850952D02*
X240015899Y-85946190D01*
X240015899Y-85946190D02*
X240063518Y-86089047D01*
X240063518Y-86089047D02*
X240063518Y-86184285D01*
X239063518Y-85422380D02*
X239063518Y-84755714D01*
X239063518Y-84755714D02*
X240063518Y-85184285D01*
X223113142Y-135163619D02*
X222779809Y-134687428D01*
X222541714Y-135163619D02*
X222541714Y-134163619D01*
X222541714Y-134163619D02*
X222922666Y-134163619D01*
X222922666Y-134163619D02*
X223017904Y-134211238D01*
X223017904Y-134211238D02*
X223065523Y-134258857D01*
X223065523Y-134258857D02*
X223113142Y-134354095D01*
X223113142Y-134354095D02*
X223113142Y-134496952D01*
X223113142Y-134496952D02*
X223065523Y-134592190D01*
X223065523Y-134592190D02*
X223017904Y-134639809D01*
X223017904Y-134639809D02*
X222922666Y-134687428D01*
X222922666Y-134687428D02*
X222541714Y-134687428D01*
X224065523Y-135163619D02*
X223494095Y-135163619D01*
X223779809Y-135163619D02*
X223779809Y-134163619D01*
X223779809Y-134163619D02*
X223684571Y-134306476D01*
X223684571Y-134306476D02*
X223589333Y-134401714D01*
X223589333Y-134401714D02*
X223494095Y-134449333D01*
X224398857Y-134163619D02*
X225017904Y-134163619D01*
X225017904Y-134163619D02*
X224684571Y-134544571D01*
X224684571Y-134544571D02*
X224827428Y-134544571D01*
X224827428Y-134544571D02*
X224922666Y-134592190D01*
X224922666Y-134592190D02*
X224970285Y-134639809D01*
X224970285Y-134639809D02*
X225017904Y-134735047D01*
X225017904Y-134735047D02*
X225017904Y-134973142D01*
X225017904Y-134973142D02*
X224970285Y-135068380D01*
X224970285Y-135068380D02*
X224922666Y-135116000D01*
X224922666Y-135116000D02*
X224827428Y-135163619D01*
X224827428Y-135163619D02*
X224541714Y-135163619D01*
X224541714Y-135163619D02*
X224446476Y-135116000D01*
X224446476Y-135116000D02*
X224398857Y-135068380D01*
D12*
X153988704Y-143044285D02*
X154026800Y-143082381D01*
X154026800Y-143082381D02*
X154064895Y-143196666D01*
X154064895Y-143196666D02*
X154064895Y-143272857D01*
X154064895Y-143272857D02*
X154026800Y-143387143D01*
X154026800Y-143387143D02*
X153950609Y-143463333D01*
X153950609Y-143463333D02*
X153874419Y-143501428D01*
X153874419Y-143501428D02*
X153722038Y-143539524D01*
X153722038Y-143539524D02*
X153607752Y-143539524D01*
X153607752Y-143539524D02*
X153455371Y-143501428D01*
X153455371Y-143501428D02*
X153379180Y-143463333D01*
X153379180Y-143463333D02*
X153302990Y-143387143D01*
X153302990Y-143387143D02*
X153264895Y-143272857D01*
X153264895Y-143272857D02*
X153264895Y-143196666D01*
X153264895Y-143196666D02*
X153302990Y-143082381D01*
X153302990Y-143082381D02*
X153341085Y-143044285D01*
X153341085Y-142739524D02*
X153302990Y-142701428D01*
X153302990Y-142701428D02*
X153264895Y-142625238D01*
X153264895Y-142625238D02*
X153264895Y-142434762D01*
X153264895Y-142434762D02*
X153302990Y-142358571D01*
X153302990Y-142358571D02*
X153341085Y-142320476D01*
X153341085Y-142320476D02*
X153417276Y-142282381D01*
X153417276Y-142282381D02*
X153493466Y-142282381D01*
X153493466Y-142282381D02*
X153607752Y-142320476D01*
X153607752Y-142320476D02*
X154064895Y-142777619D01*
X154064895Y-142777619D02*
X154064895Y-142282381D01*
X153264895Y-142015714D02*
X153264895Y-141520476D01*
X153264895Y-141520476D02*
X153569657Y-141787142D01*
X153569657Y-141787142D02*
X153569657Y-141672857D01*
X153569657Y-141672857D02*
X153607752Y-141596666D01*
X153607752Y-141596666D02*
X153645847Y-141558571D01*
X153645847Y-141558571D02*
X153722038Y-141520476D01*
X153722038Y-141520476D02*
X153912514Y-141520476D01*
X153912514Y-141520476D02*
X153988704Y-141558571D01*
X153988704Y-141558571D02*
X154026800Y-141596666D01*
X154026800Y-141596666D02*
X154064895Y-141672857D01*
X154064895Y-141672857D02*
X154064895Y-141901428D01*
X154064895Y-141901428D02*
X154026800Y-141977619D01*
X154026800Y-141977619D02*
X153988704Y-142015714D01*
D10*
X147586666Y-152754819D02*
X147586666Y-153469104D01*
X147586666Y-153469104D02*
X147539047Y-153611961D01*
X147539047Y-153611961D02*
X147443809Y-153707200D01*
X147443809Y-153707200D02*
X147300952Y-153754819D01*
X147300952Y-153754819D02*
X147205714Y-153754819D01*
X148491428Y-152754819D02*
X148300952Y-152754819D01*
X148300952Y-152754819D02*
X148205714Y-152802438D01*
X148205714Y-152802438D02*
X148158095Y-152850057D01*
X148158095Y-152850057D02*
X148062857Y-152992914D01*
X148062857Y-152992914D02*
X148015238Y-153183390D01*
X148015238Y-153183390D02*
X148015238Y-153564342D01*
X148015238Y-153564342D02*
X148062857Y-153659580D01*
X148062857Y-153659580D02*
X148110476Y-153707200D01*
X148110476Y-153707200D02*
X148205714Y-153754819D01*
X148205714Y-153754819D02*
X148396190Y-153754819D01*
X148396190Y-153754819D02*
X148491428Y-153707200D01*
X148491428Y-153707200D02*
X148539047Y-153659580D01*
X148539047Y-153659580D02*
X148586666Y-153564342D01*
X148586666Y-153564342D02*
X148586666Y-153326247D01*
X148586666Y-153326247D02*
X148539047Y-153231009D01*
X148539047Y-153231009D02*
X148491428Y-153183390D01*
X148491428Y-153183390D02*
X148396190Y-153135771D01*
X148396190Y-153135771D02*
X148205714Y-153135771D01*
X148205714Y-153135771D02*
X148110476Y-153183390D01*
X148110476Y-153183390D02*
X148062857Y-153231009D01*
X148062857Y-153231009D02*
X148015238Y-153326247D01*
X219607942Y-135163619D02*
X219274609Y-134687428D01*
X219036514Y-135163619D02*
X219036514Y-134163619D01*
X219036514Y-134163619D02*
X219417466Y-134163619D01*
X219417466Y-134163619D02*
X219512704Y-134211238D01*
X219512704Y-134211238D02*
X219560323Y-134258857D01*
X219560323Y-134258857D02*
X219607942Y-134354095D01*
X219607942Y-134354095D02*
X219607942Y-134496952D01*
X219607942Y-134496952D02*
X219560323Y-134592190D01*
X219560323Y-134592190D02*
X219512704Y-134639809D01*
X219512704Y-134639809D02*
X219417466Y-134687428D01*
X219417466Y-134687428D02*
X219036514Y-134687428D01*
X220560323Y-135163619D02*
X219988895Y-135163619D01*
X220274609Y-135163619D02*
X220274609Y-134163619D01*
X220274609Y-134163619D02*
X220179371Y-134306476D01*
X220179371Y-134306476D02*
X220084133Y-134401714D01*
X220084133Y-134401714D02*
X219988895Y-134449333D01*
X220893657Y-134163619D02*
X221560323Y-134163619D01*
X221560323Y-134163619D02*
X221131752Y-135163619D01*
X183838095Y-132654819D02*
X183838095Y-133464342D01*
X183838095Y-133464342D02*
X183885714Y-133559580D01*
X183885714Y-133559580D02*
X183933333Y-133607200D01*
X183933333Y-133607200D02*
X184028571Y-133654819D01*
X184028571Y-133654819D02*
X184219047Y-133654819D01*
X184219047Y-133654819D02*
X184314285Y-133607200D01*
X184314285Y-133607200D02*
X184361904Y-133559580D01*
X184361904Y-133559580D02*
X184409523Y-133464342D01*
X184409523Y-133464342D02*
X184409523Y-132654819D01*
X185314285Y-132654819D02*
X185123809Y-132654819D01*
X185123809Y-132654819D02*
X185028571Y-132702438D01*
X185028571Y-132702438D02*
X184980952Y-132750057D01*
X184980952Y-132750057D02*
X184885714Y-132892914D01*
X184885714Y-132892914D02*
X184838095Y-133083390D01*
X184838095Y-133083390D02*
X184838095Y-133464342D01*
X184838095Y-133464342D02*
X184885714Y-133559580D01*
X184885714Y-133559580D02*
X184933333Y-133607200D01*
X184933333Y-133607200D02*
X185028571Y-133654819D01*
X185028571Y-133654819D02*
X185219047Y-133654819D01*
X185219047Y-133654819D02*
X185314285Y-133607200D01*
X185314285Y-133607200D02*
X185361904Y-133559580D01*
X185361904Y-133559580D02*
X185409523Y-133464342D01*
X185409523Y-133464342D02*
X185409523Y-133226247D01*
X185409523Y-133226247D02*
X185361904Y-133131009D01*
X185361904Y-133131009D02*
X185314285Y-133083390D01*
X185314285Y-133083390D02*
X185219047Y-133035771D01*
X185219047Y-133035771D02*
X185028571Y-133035771D01*
X185028571Y-133035771D02*
X184933333Y-133083390D01*
X184933333Y-133083390D02*
X184885714Y-133131009D01*
X184885714Y-133131009D02*
X184838095Y-133226247D01*
X195768333Y-129804819D02*
X195292143Y-129804819D01*
X195292143Y-129804819D02*
X195292143Y-128804819D01*
X196625476Y-129804819D02*
X196054048Y-129804819D01*
X196339762Y-129804819D02*
X196339762Y-128804819D01*
X196339762Y-128804819D02*
X196244524Y-128947676D01*
X196244524Y-128947676D02*
X196149286Y-129042914D01*
X196149286Y-129042914D02*
X196054048Y-129090533D01*
X200067142Y-148179580D02*
X200019523Y-148227200D01*
X200019523Y-148227200D02*
X199876666Y-148274819D01*
X199876666Y-148274819D02*
X199781428Y-148274819D01*
X199781428Y-148274819D02*
X199638571Y-148227200D01*
X199638571Y-148227200D02*
X199543333Y-148131961D01*
X199543333Y-148131961D02*
X199495714Y-148036723D01*
X199495714Y-148036723D02*
X199448095Y-147846247D01*
X199448095Y-147846247D02*
X199448095Y-147703390D01*
X199448095Y-147703390D02*
X199495714Y-147512914D01*
X199495714Y-147512914D02*
X199543333Y-147417676D01*
X199543333Y-147417676D02*
X199638571Y-147322438D01*
X199638571Y-147322438D02*
X199781428Y-147274819D01*
X199781428Y-147274819D02*
X199876666Y-147274819D01*
X199876666Y-147274819D02*
X200019523Y-147322438D01*
X200019523Y-147322438D02*
X200067142Y-147370057D01*
X201019523Y-148274819D02*
X200448095Y-148274819D01*
X200733809Y-148274819D02*
X200733809Y-147274819D01*
X200733809Y-147274819D02*
X200638571Y-147417676D01*
X200638571Y-147417676D02*
X200543333Y-147512914D01*
X200543333Y-147512914D02*
X200448095Y-147560533D01*
X201590952Y-147703390D02*
X201495714Y-147655771D01*
X201495714Y-147655771D02*
X201448095Y-147608152D01*
X201448095Y-147608152D02*
X201400476Y-147512914D01*
X201400476Y-147512914D02*
X201400476Y-147465295D01*
X201400476Y-147465295D02*
X201448095Y-147370057D01*
X201448095Y-147370057D02*
X201495714Y-147322438D01*
X201495714Y-147322438D02*
X201590952Y-147274819D01*
X201590952Y-147274819D02*
X201781428Y-147274819D01*
X201781428Y-147274819D02*
X201876666Y-147322438D01*
X201876666Y-147322438D02*
X201924285Y-147370057D01*
X201924285Y-147370057D02*
X201971904Y-147465295D01*
X201971904Y-147465295D02*
X201971904Y-147512914D01*
X201971904Y-147512914D02*
X201924285Y-147608152D01*
X201924285Y-147608152D02*
X201876666Y-147655771D01*
X201876666Y-147655771D02*
X201781428Y-147703390D01*
X201781428Y-147703390D02*
X201590952Y-147703390D01*
X201590952Y-147703390D02*
X201495714Y-147751009D01*
X201495714Y-147751009D02*
X201448095Y-147798628D01*
X201448095Y-147798628D02*
X201400476Y-147893866D01*
X201400476Y-147893866D02*
X201400476Y-148084342D01*
X201400476Y-148084342D02*
X201448095Y-148179580D01*
X201448095Y-148179580D02*
X201495714Y-148227200D01*
X201495714Y-148227200D02*
X201590952Y-148274819D01*
X201590952Y-148274819D02*
X201781428Y-148274819D01*
X201781428Y-148274819D02*
X201876666Y-148227200D01*
X201876666Y-148227200D02*
X201924285Y-148179580D01*
X201924285Y-148179580D02*
X201971904Y-148084342D01*
X201971904Y-148084342D02*
X201971904Y-147893866D01*
X201971904Y-147893866D02*
X201924285Y-147798628D01*
X201924285Y-147798628D02*
X201876666Y-147751009D01*
X201876666Y-147751009D02*
X201781428Y-147703390D01*
X184261905Y-127654819D02*
X184261905Y-126654819D01*
X184261905Y-126654819D02*
X184500000Y-126654819D01*
X184500000Y-126654819D02*
X184642857Y-126702438D01*
X184642857Y-126702438D02*
X184738095Y-126797676D01*
X184738095Y-126797676D02*
X184785714Y-126892914D01*
X184785714Y-126892914D02*
X184833333Y-127083390D01*
X184833333Y-127083390D02*
X184833333Y-127226247D01*
X184833333Y-127226247D02*
X184785714Y-127416723D01*
X184785714Y-127416723D02*
X184738095Y-127511961D01*
X184738095Y-127511961D02*
X184642857Y-127607200D01*
X184642857Y-127607200D02*
X184500000Y-127654819D01*
X184500000Y-127654819D02*
X184261905Y-127654819D01*
X185166667Y-126654819D02*
X185785714Y-126654819D01*
X185785714Y-126654819D02*
X185452381Y-127035771D01*
X185452381Y-127035771D02*
X185595238Y-127035771D01*
X185595238Y-127035771D02*
X185690476Y-127083390D01*
X185690476Y-127083390D02*
X185738095Y-127131009D01*
X185738095Y-127131009D02*
X185785714Y-127226247D01*
X185785714Y-127226247D02*
X185785714Y-127464342D01*
X185785714Y-127464342D02*
X185738095Y-127559580D01*
X185738095Y-127559580D02*
X185690476Y-127607200D01*
X185690476Y-127607200D02*
X185595238Y-127654819D01*
X185595238Y-127654819D02*
X185309524Y-127654819D01*
X185309524Y-127654819D02*
X185214286Y-127607200D01*
X185214286Y-127607200D02*
X185166667Y-127559580D01*
X199254819Y-126886666D02*
X198778628Y-127219999D01*
X199254819Y-127458094D02*
X198254819Y-127458094D01*
X198254819Y-127458094D02*
X198254819Y-127077142D01*
X198254819Y-127077142D02*
X198302438Y-126981904D01*
X198302438Y-126981904D02*
X198350057Y-126934285D01*
X198350057Y-126934285D02*
X198445295Y-126886666D01*
X198445295Y-126886666D02*
X198588152Y-126886666D01*
X198588152Y-126886666D02*
X198683390Y-126934285D01*
X198683390Y-126934285D02*
X198731009Y-126981904D01*
X198731009Y-126981904D02*
X198778628Y-127077142D01*
X198778628Y-127077142D02*
X198778628Y-127458094D01*
X198350057Y-126505713D02*
X198302438Y-126458094D01*
X198302438Y-126458094D02*
X198254819Y-126362856D01*
X198254819Y-126362856D02*
X198254819Y-126124761D01*
X198254819Y-126124761D02*
X198302438Y-126029523D01*
X198302438Y-126029523D02*
X198350057Y-125981904D01*
X198350057Y-125981904D02*
X198445295Y-125934285D01*
X198445295Y-125934285D02*
X198540533Y-125934285D01*
X198540533Y-125934285D02*
X198683390Y-125981904D01*
X198683390Y-125981904D02*
X199254819Y-126553332D01*
X199254819Y-126553332D02*
X199254819Y-125934285D01*
X220388933Y-147768380D02*
X220341314Y-147816000D01*
X220341314Y-147816000D02*
X220198457Y-147863619D01*
X220198457Y-147863619D02*
X220103219Y-147863619D01*
X220103219Y-147863619D02*
X219960362Y-147816000D01*
X219960362Y-147816000D02*
X219865124Y-147720761D01*
X219865124Y-147720761D02*
X219817505Y-147625523D01*
X219817505Y-147625523D02*
X219769886Y-147435047D01*
X219769886Y-147435047D02*
X219769886Y-147292190D01*
X219769886Y-147292190D02*
X219817505Y-147101714D01*
X219817505Y-147101714D02*
X219865124Y-147006476D01*
X219865124Y-147006476D02*
X219960362Y-146911238D01*
X219960362Y-146911238D02*
X220103219Y-146863619D01*
X220103219Y-146863619D02*
X220198457Y-146863619D01*
X220198457Y-146863619D02*
X220341314Y-146911238D01*
X220341314Y-146911238D02*
X220388933Y-146958857D01*
X221341314Y-147863619D02*
X220769886Y-147863619D01*
X221055600Y-147863619D02*
X221055600Y-146863619D01*
X221055600Y-146863619D02*
X220960362Y-147006476D01*
X220960362Y-147006476D02*
X220865124Y-147101714D01*
X220865124Y-147101714D02*
X220769886Y-147149333D01*
X147576666Y-147489819D02*
X147576666Y-148204104D01*
X147576666Y-148204104D02*
X147529047Y-148346961D01*
X147529047Y-148346961D02*
X147433809Y-148442200D01*
X147433809Y-148442200D02*
X147290952Y-148489819D01*
X147290952Y-148489819D02*
X147195714Y-148489819D01*
X147957619Y-147489819D02*
X148576666Y-147489819D01*
X148576666Y-147489819D02*
X148243333Y-147870771D01*
X148243333Y-147870771D02*
X148386190Y-147870771D01*
X148386190Y-147870771D02*
X148481428Y-147918390D01*
X148481428Y-147918390D02*
X148529047Y-147966009D01*
X148529047Y-147966009D02*
X148576666Y-148061247D01*
X148576666Y-148061247D02*
X148576666Y-148299342D01*
X148576666Y-148299342D02*
X148529047Y-148394580D01*
X148529047Y-148394580D02*
X148481428Y-148442200D01*
X148481428Y-148442200D02*
X148386190Y-148489819D01*
X148386190Y-148489819D02*
X148100476Y-148489819D01*
X148100476Y-148489819D02*
X148005238Y-148442200D01*
X148005238Y-148442200D02*
X147957619Y-148394580D01*
X219711942Y-141203980D02*
X219664323Y-141251600D01*
X219664323Y-141251600D02*
X219521466Y-141299219D01*
X219521466Y-141299219D02*
X219426228Y-141299219D01*
X219426228Y-141299219D02*
X219283371Y-141251600D01*
X219283371Y-141251600D02*
X219188133Y-141156361D01*
X219188133Y-141156361D02*
X219140514Y-141061123D01*
X219140514Y-141061123D02*
X219092895Y-140870647D01*
X219092895Y-140870647D02*
X219092895Y-140727790D01*
X219092895Y-140727790D02*
X219140514Y-140537314D01*
X219140514Y-140537314D02*
X219188133Y-140442076D01*
X219188133Y-140442076D02*
X219283371Y-140346838D01*
X219283371Y-140346838D02*
X219426228Y-140299219D01*
X219426228Y-140299219D02*
X219521466Y-140299219D01*
X219521466Y-140299219D02*
X219664323Y-140346838D01*
X219664323Y-140346838D02*
X219711942Y-140394457D01*
X220664323Y-141299219D02*
X220092895Y-141299219D01*
X220378609Y-141299219D02*
X220378609Y-140299219D01*
X220378609Y-140299219D02*
X220283371Y-140442076D01*
X220283371Y-140442076D02*
X220188133Y-140537314D01*
X220188133Y-140537314D02*
X220092895Y-140584933D01*
X221140514Y-141299219D02*
X221330990Y-141299219D01*
X221330990Y-141299219D02*
X221426228Y-141251600D01*
X221426228Y-141251600D02*
X221473847Y-141203980D01*
X221473847Y-141203980D02*
X221569085Y-141061123D01*
X221569085Y-141061123D02*
X221616704Y-140870647D01*
X221616704Y-140870647D02*
X221616704Y-140489695D01*
X221616704Y-140489695D02*
X221569085Y-140394457D01*
X221569085Y-140394457D02*
X221521466Y-140346838D01*
X221521466Y-140346838D02*
X221426228Y-140299219D01*
X221426228Y-140299219D02*
X221235752Y-140299219D01*
X221235752Y-140299219D02*
X221140514Y-140346838D01*
X221140514Y-140346838D02*
X221092895Y-140394457D01*
X221092895Y-140394457D02*
X221045276Y-140489695D01*
X221045276Y-140489695D02*
X221045276Y-140727790D01*
X221045276Y-140727790D02*
X221092895Y-140823028D01*
X221092895Y-140823028D02*
X221140514Y-140870647D01*
X221140514Y-140870647D02*
X221235752Y-140918266D01*
X221235752Y-140918266D02*
X221426228Y-140918266D01*
X221426228Y-140918266D02*
X221521466Y-140870647D01*
X221521466Y-140870647D02*
X221569085Y-140823028D01*
X221569085Y-140823028D02*
X221616704Y-140727790D01*
X177045833Y-141459580D02*
X176998214Y-141507200D01*
X176998214Y-141507200D02*
X176855357Y-141554819D01*
X176855357Y-141554819D02*
X176760119Y-141554819D01*
X176760119Y-141554819D02*
X176617262Y-141507200D01*
X176617262Y-141507200D02*
X176522024Y-141411961D01*
X176522024Y-141411961D02*
X176474405Y-141316723D01*
X176474405Y-141316723D02*
X176426786Y-141126247D01*
X176426786Y-141126247D02*
X176426786Y-140983390D01*
X176426786Y-140983390D02*
X176474405Y-140792914D01*
X176474405Y-140792914D02*
X176522024Y-140697676D01*
X176522024Y-140697676D02*
X176617262Y-140602438D01*
X176617262Y-140602438D02*
X176760119Y-140554819D01*
X176760119Y-140554819D02*
X176855357Y-140554819D01*
X176855357Y-140554819D02*
X176998214Y-140602438D01*
X176998214Y-140602438D02*
X177045833Y-140650057D01*
X177379167Y-140554819D02*
X178045833Y-140554819D01*
X178045833Y-140554819D02*
X177617262Y-141554819D01*
X219738933Y-142660104D02*
X219691314Y-142698200D01*
X219691314Y-142698200D02*
X219548457Y-142736295D01*
X219548457Y-142736295D02*
X219453219Y-142736295D01*
X219453219Y-142736295D02*
X219310362Y-142698200D01*
X219310362Y-142698200D02*
X219215124Y-142622009D01*
X219215124Y-142622009D02*
X219167505Y-142545819D01*
X219167505Y-142545819D02*
X219119886Y-142393438D01*
X219119886Y-142393438D02*
X219119886Y-142279152D01*
X219119886Y-142279152D02*
X219167505Y-142126771D01*
X219167505Y-142126771D02*
X219215124Y-142050580D01*
X219215124Y-142050580D02*
X219310362Y-141974390D01*
X219310362Y-141974390D02*
X219453219Y-141936295D01*
X219453219Y-141936295D02*
X219548457Y-141936295D01*
X219548457Y-141936295D02*
X219691314Y-141974390D01*
X219691314Y-141974390D02*
X219738933Y-142012485D01*
X220738933Y-142736295D02*
X220405600Y-142355342D01*
X220167505Y-142736295D02*
X220167505Y-141936295D01*
X220167505Y-141936295D02*
X220548457Y-141936295D01*
X220548457Y-141936295D02*
X220643695Y-141974390D01*
X220643695Y-141974390D02*
X220691314Y-142012485D01*
X220691314Y-142012485D02*
X220738933Y-142088676D01*
X220738933Y-142088676D02*
X220738933Y-142202961D01*
X220738933Y-142202961D02*
X220691314Y-142279152D01*
X220691314Y-142279152D02*
X220643695Y-142317247D01*
X220643695Y-142317247D02*
X220548457Y-142355342D01*
X220548457Y-142355342D02*
X220167505Y-142355342D01*
X221691314Y-142736295D02*
X221119886Y-142736295D01*
X221405600Y-142736295D02*
X221405600Y-141936295D01*
X221405600Y-141936295D02*
X221310362Y-142050580D01*
X221310362Y-142050580D02*
X221215124Y-142126771D01*
X221215124Y-142126771D02*
X221119886Y-142164866D01*
D12*
X150934285Y-129821295D02*
X150972381Y-129783200D01*
X150972381Y-129783200D02*
X151086666Y-129745104D01*
X151086666Y-129745104D02*
X151162857Y-129745104D01*
X151162857Y-129745104D02*
X151277143Y-129783200D01*
X151277143Y-129783200D02*
X151353333Y-129859390D01*
X151353333Y-129859390D02*
X151391428Y-129935580D01*
X151391428Y-129935580D02*
X151429524Y-130087961D01*
X151429524Y-130087961D02*
X151429524Y-130202247D01*
X151429524Y-130202247D02*
X151391428Y-130354628D01*
X151391428Y-130354628D02*
X151353333Y-130430819D01*
X151353333Y-130430819D02*
X151277143Y-130507009D01*
X151277143Y-130507009D02*
X151162857Y-130545104D01*
X151162857Y-130545104D02*
X151086666Y-130545104D01*
X151086666Y-130545104D02*
X150972381Y-130507009D01*
X150972381Y-130507009D02*
X150934285Y-130468914D01*
X150667619Y-130545104D02*
X150172381Y-130545104D01*
X150172381Y-130545104D02*
X150439047Y-130240342D01*
X150439047Y-130240342D02*
X150324762Y-130240342D01*
X150324762Y-130240342D02*
X150248571Y-130202247D01*
X150248571Y-130202247D02*
X150210476Y-130164152D01*
X150210476Y-130164152D02*
X150172381Y-130087961D01*
X150172381Y-130087961D02*
X150172381Y-129897485D01*
X150172381Y-129897485D02*
X150210476Y-129821295D01*
X150210476Y-129821295D02*
X150248571Y-129783200D01*
X150248571Y-129783200D02*
X150324762Y-129745104D01*
X150324762Y-129745104D02*
X150553333Y-129745104D01*
X150553333Y-129745104D02*
X150629524Y-129783200D01*
X150629524Y-129783200D02*
X150667619Y-129821295D01*
X149410476Y-129745104D02*
X149867619Y-129745104D01*
X149639047Y-129745104D02*
X149639047Y-130545104D01*
X149639047Y-130545104D02*
X149715238Y-130430819D01*
X149715238Y-130430819D02*
X149791428Y-130354628D01*
X149791428Y-130354628D02*
X149867619Y-130316533D01*
D10*
X183757142Y-136554819D02*
X183423809Y-136078628D01*
X183185714Y-136554819D02*
X183185714Y-135554819D01*
X183185714Y-135554819D02*
X183566666Y-135554819D01*
X183566666Y-135554819D02*
X183661904Y-135602438D01*
X183661904Y-135602438D02*
X183709523Y-135650057D01*
X183709523Y-135650057D02*
X183757142Y-135745295D01*
X183757142Y-135745295D02*
X183757142Y-135888152D01*
X183757142Y-135888152D02*
X183709523Y-135983390D01*
X183709523Y-135983390D02*
X183661904Y-136031009D01*
X183661904Y-136031009D02*
X183566666Y-136078628D01*
X183566666Y-136078628D02*
X183185714Y-136078628D01*
X184709523Y-136554819D02*
X184138095Y-136554819D01*
X184423809Y-136554819D02*
X184423809Y-135554819D01*
X184423809Y-135554819D02*
X184328571Y-135697676D01*
X184328571Y-135697676D02*
X184233333Y-135792914D01*
X184233333Y-135792914D02*
X184138095Y-135840533D01*
X185090476Y-135650057D02*
X185138095Y-135602438D01*
X185138095Y-135602438D02*
X185233333Y-135554819D01*
X185233333Y-135554819D02*
X185471428Y-135554819D01*
X185471428Y-135554819D02*
X185566666Y-135602438D01*
X185566666Y-135602438D02*
X185614285Y-135650057D01*
X185614285Y-135650057D02*
X185661904Y-135745295D01*
X185661904Y-135745295D02*
X185661904Y-135840533D01*
X185661904Y-135840533D02*
X185614285Y-135983390D01*
X185614285Y-135983390D02*
X185042857Y-136554819D01*
X185042857Y-136554819D02*
X185661904Y-136554819D01*
X234276140Y-78747541D02*
X233942807Y-78271350D01*
X233704712Y-78747541D02*
X233704712Y-77747541D01*
X233704712Y-77747541D02*
X234085664Y-77747541D01*
X234085664Y-77747541D02*
X234180902Y-77795160D01*
X234180902Y-77795160D02*
X234228521Y-77842779D01*
X234228521Y-77842779D02*
X234276140Y-77938017D01*
X234276140Y-77938017D02*
X234276140Y-78080874D01*
X234276140Y-78080874D02*
X234228521Y-78176112D01*
X234228521Y-78176112D02*
X234180902Y-78223731D01*
X234180902Y-78223731D02*
X234085664Y-78271350D01*
X234085664Y-78271350D02*
X233704712Y-78271350D01*
X234609474Y-77747541D02*
X235228521Y-77747541D01*
X235228521Y-77747541D02*
X234895188Y-78128493D01*
X234895188Y-78128493D02*
X235038045Y-78128493D01*
X235038045Y-78128493D02*
X235133283Y-78176112D01*
X235133283Y-78176112D02*
X235180902Y-78223731D01*
X235180902Y-78223731D02*
X235228521Y-78318969D01*
X235228521Y-78318969D02*
X235228521Y-78557064D01*
X235228521Y-78557064D02*
X235180902Y-78652302D01*
X235180902Y-78652302D02*
X235133283Y-78699922D01*
X235133283Y-78699922D02*
X235038045Y-78747541D01*
X235038045Y-78747541D02*
X234752331Y-78747541D01*
X234752331Y-78747541D02*
X234657093Y-78699922D01*
X234657093Y-78699922D02*
X234609474Y-78652302D01*
X200653333Y-152909580D02*
X200605714Y-152957200D01*
X200605714Y-152957200D02*
X200462857Y-153004819D01*
X200462857Y-153004819D02*
X200367619Y-153004819D01*
X200367619Y-153004819D02*
X200224762Y-152957200D01*
X200224762Y-152957200D02*
X200129524Y-152861961D01*
X200129524Y-152861961D02*
X200081905Y-152766723D01*
X200081905Y-152766723D02*
X200034286Y-152576247D01*
X200034286Y-152576247D02*
X200034286Y-152433390D01*
X200034286Y-152433390D02*
X200081905Y-152242914D01*
X200081905Y-152242914D02*
X200129524Y-152147676D01*
X200129524Y-152147676D02*
X200224762Y-152052438D01*
X200224762Y-152052438D02*
X200367619Y-152004819D01*
X200367619Y-152004819D02*
X200462857Y-152004819D01*
X200462857Y-152004819D02*
X200605714Y-152052438D01*
X200605714Y-152052438D02*
X200653333Y-152100057D01*
X201129524Y-153004819D02*
X201320000Y-153004819D01*
X201320000Y-153004819D02*
X201415238Y-152957200D01*
X201415238Y-152957200D02*
X201462857Y-152909580D01*
X201462857Y-152909580D02*
X201558095Y-152766723D01*
X201558095Y-152766723D02*
X201605714Y-152576247D01*
X201605714Y-152576247D02*
X201605714Y-152195295D01*
X201605714Y-152195295D02*
X201558095Y-152100057D01*
X201558095Y-152100057D02*
X201510476Y-152052438D01*
X201510476Y-152052438D02*
X201415238Y-152004819D01*
X201415238Y-152004819D02*
X201224762Y-152004819D01*
X201224762Y-152004819D02*
X201129524Y-152052438D01*
X201129524Y-152052438D02*
X201081905Y-152100057D01*
X201081905Y-152100057D02*
X201034286Y-152195295D01*
X201034286Y-152195295D02*
X201034286Y-152433390D01*
X201034286Y-152433390D02*
X201081905Y-152528628D01*
X201081905Y-152528628D02*
X201129524Y-152576247D01*
X201129524Y-152576247D02*
X201224762Y-152623866D01*
X201224762Y-152623866D02*
X201415238Y-152623866D01*
X201415238Y-152623866D02*
X201510476Y-152576247D01*
X201510476Y-152576247D02*
X201558095Y-152528628D01*
X201558095Y-152528628D02*
X201605714Y-152433390D01*
X216051942Y-135163619D02*
X215718609Y-134687428D01*
X215480514Y-135163619D02*
X215480514Y-134163619D01*
X215480514Y-134163619D02*
X215861466Y-134163619D01*
X215861466Y-134163619D02*
X215956704Y-134211238D01*
X215956704Y-134211238D02*
X216004323Y-134258857D01*
X216004323Y-134258857D02*
X216051942Y-134354095D01*
X216051942Y-134354095D02*
X216051942Y-134496952D01*
X216051942Y-134496952D02*
X216004323Y-134592190D01*
X216004323Y-134592190D02*
X215956704Y-134639809D01*
X215956704Y-134639809D02*
X215861466Y-134687428D01*
X215861466Y-134687428D02*
X215480514Y-134687428D01*
X217004323Y-135163619D02*
X216432895Y-135163619D01*
X216718609Y-135163619D02*
X216718609Y-134163619D01*
X216718609Y-134163619D02*
X216623371Y-134306476D01*
X216623371Y-134306476D02*
X216528133Y-134401714D01*
X216528133Y-134401714D02*
X216432895Y-134449333D01*
X217575752Y-134592190D02*
X217480514Y-134544571D01*
X217480514Y-134544571D02*
X217432895Y-134496952D01*
X217432895Y-134496952D02*
X217385276Y-134401714D01*
X217385276Y-134401714D02*
X217385276Y-134354095D01*
X217385276Y-134354095D02*
X217432895Y-134258857D01*
X217432895Y-134258857D02*
X217480514Y-134211238D01*
X217480514Y-134211238D02*
X217575752Y-134163619D01*
X217575752Y-134163619D02*
X217766228Y-134163619D01*
X217766228Y-134163619D02*
X217861466Y-134211238D01*
X217861466Y-134211238D02*
X217909085Y-134258857D01*
X217909085Y-134258857D02*
X217956704Y-134354095D01*
X217956704Y-134354095D02*
X217956704Y-134401714D01*
X217956704Y-134401714D02*
X217909085Y-134496952D01*
X217909085Y-134496952D02*
X217861466Y-134544571D01*
X217861466Y-134544571D02*
X217766228Y-134592190D01*
X217766228Y-134592190D02*
X217575752Y-134592190D01*
X217575752Y-134592190D02*
X217480514Y-134639809D01*
X217480514Y-134639809D02*
X217432895Y-134687428D01*
X217432895Y-134687428D02*
X217385276Y-134782666D01*
X217385276Y-134782666D02*
X217385276Y-134973142D01*
X217385276Y-134973142D02*
X217432895Y-135068380D01*
X217432895Y-135068380D02*
X217480514Y-135116000D01*
X217480514Y-135116000D02*
X217575752Y-135163619D01*
X217575752Y-135163619D02*
X217766228Y-135163619D01*
X217766228Y-135163619D02*
X217861466Y-135116000D01*
X217861466Y-135116000D02*
X217909085Y-135068380D01*
X217909085Y-135068380D02*
X217956704Y-134973142D01*
X217956704Y-134973142D02*
X217956704Y-134782666D01*
X217956704Y-134782666D02*
X217909085Y-134687428D01*
X217909085Y-134687428D02*
X217861466Y-134639809D01*
X217861466Y-134639809D02*
X217766228Y-134592190D01*
X212787180Y-145366857D02*
X212834800Y-145414476D01*
X212834800Y-145414476D02*
X212882419Y-145557333D01*
X212882419Y-145557333D02*
X212882419Y-145652571D01*
X212882419Y-145652571D02*
X212834800Y-145795428D01*
X212834800Y-145795428D02*
X212739561Y-145890666D01*
X212739561Y-145890666D02*
X212644323Y-145938285D01*
X212644323Y-145938285D02*
X212453847Y-145985904D01*
X212453847Y-145985904D02*
X212310990Y-145985904D01*
X212310990Y-145985904D02*
X212120514Y-145938285D01*
X212120514Y-145938285D02*
X212025276Y-145890666D01*
X212025276Y-145890666D02*
X211930038Y-145795428D01*
X211930038Y-145795428D02*
X211882419Y-145652571D01*
X211882419Y-145652571D02*
X211882419Y-145557333D01*
X211882419Y-145557333D02*
X211930038Y-145414476D01*
X211930038Y-145414476D02*
X211977657Y-145366857D01*
X211977657Y-144985904D02*
X211930038Y-144938285D01*
X211930038Y-144938285D02*
X211882419Y-144843047D01*
X211882419Y-144843047D02*
X211882419Y-144604952D01*
X211882419Y-144604952D02*
X211930038Y-144509714D01*
X211930038Y-144509714D02*
X211977657Y-144462095D01*
X211977657Y-144462095D02*
X212072895Y-144414476D01*
X212072895Y-144414476D02*
X212168133Y-144414476D01*
X212168133Y-144414476D02*
X212310990Y-144462095D01*
X212310990Y-144462095D02*
X212882419Y-145033523D01*
X212882419Y-145033523D02*
X212882419Y-144414476D01*
X212882419Y-143462095D02*
X212882419Y-144033523D01*
X212882419Y-143747809D02*
X211882419Y-143747809D01*
X211882419Y-143747809D02*
X212025276Y-143843047D01*
X212025276Y-143843047D02*
X212120514Y-143938285D01*
X212120514Y-143938285D02*
X212168133Y-144033523D01*
D13*
X215996904Y-130004318D02*
X215996904Y-128734318D01*
X215996904Y-128734318D02*
X216420238Y-129641461D01*
X216420238Y-129641461D02*
X216843571Y-128734318D01*
X216843571Y-128734318D02*
X216843571Y-130004318D01*
X218174048Y-129883365D02*
X218113572Y-129943842D01*
X218113572Y-129943842D02*
X217932143Y-130004318D01*
X217932143Y-130004318D02*
X217811191Y-130004318D01*
X217811191Y-130004318D02*
X217629762Y-129943842D01*
X217629762Y-129943842D02*
X217508810Y-129822889D01*
X217508810Y-129822889D02*
X217448333Y-129701937D01*
X217448333Y-129701937D02*
X217387857Y-129460032D01*
X217387857Y-129460032D02*
X217387857Y-129278603D01*
X217387857Y-129278603D02*
X217448333Y-129036699D01*
X217448333Y-129036699D02*
X217508810Y-128915746D01*
X217508810Y-128915746D02*
X217629762Y-128794794D01*
X217629762Y-128794794D02*
X217811191Y-128734318D01*
X217811191Y-128734318D02*
X217932143Y-128734318D01*
X217932143Y-128734318D02*
X218113572Y-128794794D01*
X218113572Y-128794794D02*
X218174048Y-128855270D01*
X219383572Y-130004318D02*
X218657857Y-130004318D01*
X219020714Y-130004318D02*
X219020714Y-128734318D01*
X219020714Y-128734318D02*
X218899762Y-128915746D01*
X218899762Y-128915746D02*
X218778810Y-129036699D01*
X218778810Y-129036699D02*
X218657857Y-129097175D01*
D10*
X235286666Y-144578019D02*
X235286666Y-145292304D01*
X235286666Y-145292304D02*
X235239047Y-145435161D01*
X235239047Y-145435161D02*
X235143809Y-145530400D01*
X235143809Y-145530400D02*
X235000952Y-145578019D01*
X235000952Y-145578019D02*
X234905714Y-145578019D01*
X236191428Y-144911352D02*
X236191428Y-145578019D01*
X235953333Y-144530400D02*
X235715238Y-145244685D01*
X235715238Y-145244685D02*
X236334285Y-145244685D01*
X216528133Y-138065580D02*
X216480514Y-138113200D01*
X216480514Y-138113200D02*
X216337657Y-138160819D01*
X216337657Y-138160819D02*
X216242419Y-138160819D01*
X216242419Y-138160819D02*
X216099562Y-138113200D01*
X216099562Y-138113200D02*
X216004324Y-138017961D01*
X216004324Y-138017961D02*
X215956705Y-137922723D01*
X215956705Y-137922723D02*
X215909086Y-137732247D01*
X215909086Y-137732247D02*
X215909086Y-137589390D01*
X215909086Y-137589390D02*
X215956705Y-137398914D01*
X215956705Y-137398914D02*
X216004324Y-137303676D01*
X216004324Y-137303676D02*
X216099562Y-137208438D01*
X216099562Y-137208438D02*
X216242419Y-137160819D01*
X216242419Y-137160819D02*
X216337657Y-137160819D01*
X216337657Y-137160819D02*
X216480514Y-137208438D01*
X216480514Y-137208438D02*
X216528133Y-137256057D01*
X217432895Y-137160819D02*
X216956705Y-137160819D01*
X216956705Y-137160819D02*
X216909086Y-137637009D01*
X216909086Y-137637009D02*
X216956705Y-137589390D01*
X216956705Y-137589390D02*
X217051943Y-137541771D01*
X217051943Y-137541771D02*
X217290038Y-137541771D01*
X217290038Y-137541771D02*
X217385276Y-137589390D01*
X217385276Y-137589390D02*
X217432895Y-137637009D01*
X217432895Y-137637009D02*
X217480514Y-137732247D01*
X217480514Y-137732247D02*
X217480514Y-137970342D01*
X217480514Y-137970342D02*
X217432895Y-138065580D01*
X217432895Y-138065580D02*
X217385276Y-138113200D01*
X217385276Y-138113200D02*
X217290038Y-138160819D01*
X217290038Y-138160819D02*
X217051943Y-138160819D01*
X217051943Y-138160819D02*
X216956705Y-138113200D01*
X216956705Y-138113200D02*
X216909086Y-138065580D01*
X233697212Y-81877541D02*
X233697212Y-80877541D01*
X233697212Y-80877541D02*
X233935307Y-80877541D01*
X233935307Y-80877541D02*
X234078164Y-80925160D01*
X234078164Y-80925160D02*
X234173402Y-81020398D01*
X234173402Y-81020398D02*
X234221021Y-81115636D01*
X234221021Y-81115636D02*
X234268640Y-81306112D01*
X234268640Y-81306112D02*
X234268640Y-81448969D01*
X234268640Y-81448969D02*
X234221021Y-81639445D01*
X234221021Y-81639445D02*
X234173402Y-81734683D01*
X234173402Y-81734683D02*
X234078164Y-81829922D01*
X234078164Y-81829922D02*
X233935307Y-81877541D01*
X233935307Y-81877541D02*
X233697212Y-81877541D01*
X235125783Y-80877541D02*
X234935307Y-80877541D01*
X234935307Y-80877541D02*
X234840069Y-80925160D01*
X234840069Y-80925160D02*
X234792450Y-80972779D01*
X234792450Y-80972779D02*
X234697212Y-81115636D01*
X234697212Y-81115636D02*
X234649593Y-81306112D01*
X234649593Y-81306112D02*
X234649593Y-81687064D01*
X234649593Y-81687064D02*
X234697212Y-81782302D01*
X234697212Y-81782302D02*
X234744831Y-81829922D01*
X234744831Y-81829922D02*
X234840069Y-81877541D01*
X234840069Y-81877541D02*
X235030545Y-81877541D01*
X235030545Y-81877541D02*
X235125783Y-81829922D01*
X235125783Y-81829922D02*
X235173402Y-81782302D01*
X235173402Y-81782302D02*
X235221021Y-81687064D01*
X235221021Y-81687064D02*
X235221021Y-81448969D01*
X235221021Y-81448969D02*
X235173402Y-81353731D01*
X235173402Y-81353731D02*
X235125783Y-81306112D01*
X235125783Y-81306112D02*
X235030545Y-81258493D01*
X235030545Y-81258493D02*
X234840069Y-81258493D01*
X234840069Y-81258493D02*
X234744831Y-81306112D01*
X234744831Y-81306112D02*
X234697212Y-81353731D01*
X234697212Y-81353731D02*
X234649593Y-81448969D01*
%TO.C,Y1*%
D12*
X153490000Y-135270000D02*
X157490000Y-135270000D01*
X157490000Y-128270000D01*
X153490000Y-128270000D01*
X153490000Y-135270000D01*
%TO.C,U1*%
X159309999Y-136817250D02*
X158909999Y-136817250D01*
X159109999Y-136617250D01*
X159309999Y-136817250D01*
G36*
X159309999Y-136817250D02*
G01*
X158909999Y-136817250D01*
X159109999Y-136617250D01*
X159309999Y-136817250D01*
G37*
D14*
X158633299Y-130042350D02*
X158633299Y-134792150D01*
X166786699Y-134792150D02*
X166786699Y-130042350D01*
D15*
G36*
X159400498Y-128505650D02*
G01*
X159019498Y-128505650D01*
X159019498Y-128251650D01*
X159400498Y-128251650D01*
X159400498Y-128505650D01*
G37*
G36*
X163900500Y-136582850D02*
G01*
X163519500Y-136582850D01*
X163519500Y-136328850D01*
X163900500Y-136328850D01*
X163900500Y-136582850D01*
G37*
G36*
X164400499Y-128505650D02*
G01*
X164019499Y-128505650D01*
X164019499Y-128251650D01*
X164400499Y-128251650D01*
X164400499Y-128505650D01*
G37*
D16*
%TO.C,R10*%
X152320000Y-102153641D02*
X152320000Y-101846359D01*
X153080000Y-102153641D02*
X153080000Y-101846359D01*
%TO.C,D2*%
X154650000Y-105235000D02*
X156935000Y-105235000D01*
X156935000Y-103765000D02*
X154650000Y-103765000D01*
X156935000Y-105235000D02*
X156935000Y-103765000D01*
%TO.C,D1*%
X151000000Y-105235000D02*
X153285000Y-105235000D01*
X153285000Y-103765000D02*
X151000000Y-103765000D01*
X153285000Y-105235000D02*
X153285000Y-103765000D01*
%TO.C,R1*%
X154520000Y-102153641D02*
X154520000Y-101846359D01*
X155280000Y-102153641D02*
X155280000Y-101846359D01*
%TO.C,U5*%
X153540000Y-98200000D02*
X153540000Y-99600000D01*
X155860000Y-98190000D02*
X155860000Y-99600000D01*
X156140000Y-98060000D02*
X155810000Y-97820000D01*
X156140000Y-97580000D01*
X156140000Y-98060000D01*
G36*
X156140000Y-98060000D02*
G01*
X155810000Y-97820000D01*
X156140000Y-97580000D01*
X156140000Y-98060000D01*
G37*
%TO.C,R5*%
X164235000Y-106007064D02*
X164235000Y-105552936D01*
X165705000Y-106007064D02*
X165705000Y-105552936D01*
%TO.C,U8*%
X193220348Y-143021960D02*
X193220348Y-141021960D01*
X195420348Y-143021960D02*
X195420348Y-141021960D01*
X193230348Y-143641960D02*
X192950348Y-143361960D01*
X193230348Y-143361960D01*
X193230348Y-143641960D01*
G36*
X193230348Y-143641960D02*
G01*
X192950348Y-143361960D01*
X193230348Y-143361960D01*
X193230348Y-143641960D01*
G37*
%TO.C,C6*%
X194038748Y-146065000D02*
X194561252Y-146065000D01*
X194038748Y-147535000D02*
X194561252Y-147535000D01*
%TO.C,C16*%
X198059726Y-142915437D02*
X197537222Y-142915437D01*
X198059726Y-144385437D02*
X197537222Y-144385437D01*
D14*
%TO.C,J2*%
X204631700Y-143018069D02*
X204631700Y-156481931D01*
X206146538Y-157700200D02*
X210448300Y-157700200D01*
X210448300Y-141799800D02*
X206146538Y-141799800D01*
X210448300Y-157700200D02*
X210448300Y-141799800D01*
D17*
X207602301Y-158335200D02*
G75*
G02*
X206840301Y-158335200I-381000J0D01*
G01*
X206840301Y-158335200D02*
G75*
G02*
X207602301Y-158335200I381000J0D01*
G01*
D16*
%TO.C,C10*%
X191730000Y-146832164D02*
X191730000Y-147047836D01*
X192450000Y-146832164D02*
X192450000Y-147047836D01*
%TO.C,C11*%
X191367418Y-144799888D02*
X191583090Y-144799888D01*
X191367418Y-145519888D02*
X191583090Y-145519888D01*
%TO.C,C8*%
X179788748Y-137965000D02*
X180311252Y-137965000D01*
X179788748Y-139435000D02*
X180311252Y-139435000D01*
%TO.C,C20*%
X227300180Y-135679600D02*
X227019020Y-135679600D01*
X227300180Y-136699600D02*
X227019020Y-136699600D01*
D14*
%TO.C,J1*%
X202660000Y-81630000D02*
X202660000Y-75030000D01*
X205060000Y-81630000D02*
X202660000Y-81630000D01*
X220460000Y-71430000D02*
X223260000Y-71430000D01*
X222660000Y-81630000D02*
X220260000Y-81630000D01*
X232660000Y-75030000D02*
X232660000Y-81630000D01*
X232660000Y-81630000D02*
X229860000Y-81630000D01*
D18*
X229560000Y-71057000D02*
G75*
G02*
X229360000Y-71057000I-100000J0D01*
G01*
X229360000Y-71057000D02*
G75*
G02*
X229560000Y-71057000I100000J0D01*
G01*
D16*
%TO.C,R19*%
X216477100Y-144961258D02*
X216477100Y-144486742D01*
X217522100Y-144961258D02*
X217522100Y-144486742D01*
%TO.C,J14*%
X144695000Y-98760000D02*
X144695000Y-94880000D01*
X146665000Y-93710000D02*
X147815000Y-93710000D01*
X146665000Y-99930000D02*
X147815000Y-99930000D01*
X147815000Y-93710000D02*
X147815000Y-94760000D01*
X147815000Y-98880000D02*
X148805000Y-98880000D01*
X147815000Y-99930000D02*
X147815000Y-98880000D01*
%TO.C,C2*%
X188698752Y-128965000D02*
X188176248Y-128965000D01*
X188698752Y-130435000D02*
X188176248Y-130435000D01*
%TO.C,C3*%
X183640000Y-137937500D02*
X183640000Y-145997500D01*
X183640000Y-145997500D02*
X188160000Y-145997500D01*
X188160000Y-145997500D02*
X188160000Y-137937500D01*
%TO.C,C17*%
X198047226Y-140915437D02*
X197524722Y-140915437D01*
X198047226Y-142385437D02*
X197524722Y-142385437D01*
D14*
%TO.C,J7*%
X236381700Y-77519800D02*
X236381700Y-93420200D01*
X236381700Y-93420200D02*
X240683462Y-93420200D01*
X240683462Y-77519800D02*
X236381700Y-77519800D01*
X242198300Y-92201931D02*
X242198300Y-78738069D01*
D17*
X239989699Y-76884800D02*
G75*
G02*
X239227699Y-76884800I-381000J0D01*
G01*
X239227699Y-76884800D02*
G75*
G02*
X239989699Y-76884800I381000J0D01*
G01*
D16*
%TO.C,R13*%
X223518742Y-135616300D02*
X223993258Y-135616300D01*
X223518742Y-136661300D02*
X223993258Y-136661300D01*
%TO.C,J6*%
X149245000Y-153645000D02*
X149245000Y-156720000D01*
X149245000Y-156720000D02*
X162115000Y-156720000D01*
X150665000Y-152130000D02*
X150665000Y-152630000D01*
X150665000Y-152630000D02*
X160695000Y-152630000D01*
X150685000Y-152130000D02*
X150665000Y-152130000D01*
X160695000Y-152130000D02*
X160675000Y-152130000D01*
X160695000Y-152630000D02*
X160695000Y-152130000D01*
X162115000Y-156720000D02*
X162115000Y-153645000D01*
%TO.C,R17*%
X220013542Y-135616300D02*
X220488058Y-135616300D01*
X220013542Y-136661300D02*
X220488058Y-136661300D01*
%TO.C,U6*%
X185940000Y-133262500D02*
X185940000Y-132462500D01*
X185940000Y-133262500D02*
X185940000Y-134062500D01*
X189060000Y-133262500D02*
X189060000Y-132462500D01*
X189060000Y-133262500D02*
X189060000Y-134062500D01*
X189340000Y-132202500D02*
X189010000Y-131962500D01*
X189340000Y-131722500D01*
X189340000Y-132202500D01*
G36*
X189340000Y-132202500D02*
G01*
X189010000Y-131962500D01*
X189340000Y-131722500D01*
X189340000Y-132202500D01*
G37*
%TO.C,L1*%
X192475000Y-131600000D02*
X192475000Y-130750000D01*
X192475000Y-136300000D02*
X192475000Y-135500000D01*
X193085000Y-130140000D02*
X198785000Y-130140000D01*
X198785000Y-136960000D02*
X193135000Y-136960000D01*
X199395000Y-130750000D02*
X199395000Y-131600000D01*
X199395000Y-135500000D02*
X199395000Y-136350000D01*
X192475000Y-130750000D02*
G75*
G02*
X193085000Y-130140000I610000J0D01*
G01*
X193135000Y-136960000D02*
G75*
G02*
X192475000Y-136300000I2J660002D01*
G01*
X198785000Y-130140000D02*
G75*
G02*
X199395000Y-130750000I0J-610000D01*
G01*
X199395000Y-136350000D02*
G75*
G02*
X198785000Y-136960000I-610000J0D01*
G01*
%TO.C,C18*%
X203197836Y-147460000D02*
X202982164Y-147460000D01*
X203197836Y-148180000D02*
X202982164Y-148180000D01*
%TO.C,D3*%
X186515000Y-126265000D02*
X186515000Y-127735000D01*
X186515000Y-127735000D02*
X188800000Y-127735000D01*
X188800000Y-126265000D02*
X186515000Y-126265000D01*
%TO.C,R2*%
X196847500Y-126482742D02*
X196847500Y-126957258D01*
X197892500Y-126482742D02*
X197892500Y-126957258D01*
%TO.C,C1*%
X220415020Y-148328800D02*
X220696180Y-148328800D01*
X220415020Y-149348800D02*
X220696180Y-149348800D01*
%TO.C,J3*%
X149265000Y-146010000D02*
X149265000Y-149085000D01*
X150685000Y-150100000D02*
X150685000Y-150600000D01*
X150685000Y-150600000D02*
X150705000Y-150600000D01*
X160695000Y-150600000D02*
X160715000Y-150600000D01*
X160715000Y-150100000D02*
X150685000Y-150100000D01*
X160715000Y-150600000D02*
X160715000Y-150100000D01*
X162135000Y-146010000D02*
X149265000Y-146010000D01*
X162135000Y-149085000D02*
X162135000Y-146010000D01*
%TO.C,R16*%
X191840348Y-142590601D02*
X191840348Y-142283319D01*
X192600348Y-142590601D02*
X192600348Y-142283319D01*
%TO.C,C19*%
X220161020Y-138676800D02*
X220442180Y-138676800D01*
X220161020Y-139696800D02*
X220442180Y-139696800D01*
%TO.C,C7*%
X179801248Y-140365000D02*
X180323752Y-140365000D01*
X179801248Y-141835000D02*
X180323752Y-141835000D01*
D12*
%TO.C,CR1*%
X219555600Y-143074000D02*
X219855600Y-143074000D01*
X219555600Y-143424000D02*
X219555600Y-143074000D01*
X219555600Y-146024000D02*
X219555600Y-146374000D01*
X219555600Y-146374000D02*
X219905600Y-146374000D01*
X221055600Y-146374000D02*
X221380600Y-146049000D01*
X221230600Y-143074000D02*
X221555600Y-143074000D01*
X221380600Y-146049000D02*
X222080600Y-146049000D01*
X221555600Y-143074000D02*
X221555600Y-143374000D01*
D16*
%TO.C,R15*%
X191321613Y-143619888D02*
X191628895Y-143619888D01*
X191321613Y-144379888D02*
X191628895Y-144379888D01*
D15*
%TO.C,G\u002A\u002A\u002A*%
G36*
X149004950Y-110888088D02*
G01*
X149063219Y-110974327D01*
X149075805Y-111072770D01*
X149042468Y-111168291D01*
X149010026Y-111208722D01*
X148944948Y-111273800D01*
X147536484Y-111273800D01*
X146128020Y-111273800D01*
X146050519Y-111196299D01*
X145993947Y-111120178D01*
X145973018Y-111048435D01*
X145994550Y-110975542D01*
X146050519Y-110900571D01*
X146128020Y-110823070D01*
X147531407Y-110823070D01*
X148934794Y-110823070D01*
X149004950Y-110888088D01*
G37*
G36*
X148063263Y-112614683D02*
G01*
X148149262Y-112675246D01*
X148193891Y-112759490D01*
X148194251Y-112854598D01*
X148147440Y-112947756D01*
X148140502Y-112955962D01*
X148052769Y-113024311D01*
X147958523Y-113041075D01*
X147863092Y-113005769D01*
X147833793Y-112983918D01*
X147768969Y-112902320D01*
X147748087Y-112813878D01*
X147764850Y-112728721D01*
X147812965Y-112656979D01*
X147886135Y-112608782D01*
X147978065Y-112594260D01*
X148063263Y-112614683D01*
G37*
G36*
X149410204Y-117038996D02*
G01*
X149457195Y-117082307D01*
X149513716Y-117176028D01*
X149518077Y-117263917D01*
X149470144Y-117350396D01*
X149448335Y-117373961D01*
X149358842Y-117433540D01*
X149265459Y-117447986D01*
X149179794Y-117421898D01*
X149113454Y-117359874D01*
X149078045Y-117266511D01*
X149075105Y-117226097D01*
X149096625Y-117124327D01*
X149153070Y-117050150D01*
X149232264Y-117008148D01*
X149322033Y-117002903D01*
X149410204Y-117038996D01*
G37*
G36*
X151648961Y-111775519D02*
G01*
X151712213Y-111867744D01*
X151725087Y-111962878D01*
X151687289Y-112053634D01*
X151661383Y-112083669D01*
X151596305Y-112148748D01*
X150838258Y-112148748D01*
X150080211Y-112148748D01*
X150015132Y-112083669D01*
X149959122Y-111996252D01*
X149953889Y-111901848D01*
X149999139Y-111807744D01*
X150027554Y-111775519D01*
X150105055Y-111698018D01*
X150838258Y-111698018D01*
X151571460Y-111698018D01*
X151648961Y-111775519D01*
G37*
G36*
X152531255Y-110888088D02*
G01*
X152589523Y-110974327D01*
X152602109Y-111072770D01*
X152568773Y-111168291D01*
X152536331Y-111208722D01*
X152471253Y-111273800D01*
X151716768Y-111273800D01*
X150962282Y-111273800D01*
X150893642Y-111192225D01*
X150837120Y-111098504D01*
X150832759Y-111010615D01*
X150880693Y-110924136D01*
X150902502Y-110900571D01*
X150980003Y-110823070D01*
X151720551Y-110823070D01*
X152461099Y-110823070D01*
X152531255Y-110888088D01*
G37*
G36*
X157383238Y-110888088D02*
G01*
X157441507Y-110974327D01*
X157454093Y-111072770D01*
X157420756Y-111168291D01*
X157388315Y-111208722D01*
X157323236Y-111273800D01*
X155914772Y-111273800D01*
X154506308Y-111273800D01*
X154428807Y-111196299D01*
X154365915Y-111108201D01*
X154355957Y-111021384D01*
X154398933Y-110933986D01*
X154428807Y-110900571D01*
X154506308Y-110823070D01*
X155909695Y-110823070D01*
X157313082Y-110823070D01*
X157383238Y-110888088D01*
G37*
G36*
X156425974Y-111719550D02*
G01*
X156500944Y-111775519D01*
X156564196Y-111867744D01*
X156577070Y-111962878D01*
X156539273Y-112053634D01*
X156513367Y-112083669D01*
X156429255Y-112136544D01*
X156336136Y-112147991D01*
X156247061Y-112123015D01*
X156175082Y-112066620D01*
X156133252Y-111983812D01*
X156127715Y-111935805D01*
X156149864Y-111852078D01*
X156206179Y-111773889D01*
X156281462Y-111717273D01*
X156353080Y-111698018D01*
X156425974Y-111719550D01*
G37*
G36*
X149384194Y-111727336D02*
G01*
X149448335Y-111775519D01*
X149509375Y-111857587D01*
X149521877Y-111940951D01*
X149487834Y-112039268D01*
X149487046Y-112040798D01*
X149423023Y-112113201D01*
X149334779Y-112149526D01*
X149238865Y-112147597D01*
X149151836Y-112105238D01*
X149132754Y-112087384D01*
X149089939Y-112010573D01*
X149075969Y-111916651D01*
X149092840Y-111829730D01*
X149109090Y-111801774D01*
X149193113Y-111727705D01*
X149287937Y-111702650D01*
X149384194Y-111727336D01*
G37*
G36*
X153823710Y-109982518D02*
G01*
X153862010Y-110013201D01*
X153915738Y-110098397D01*
X153925565Y-110190962D01*
X153896926Y-110278832D01*
X153835260Y-110349946D01*
X153746003Y-110392242D01*
X153688170Y-110398853D01*
X153620486Y-110376261D01*
X153552534Y-110319587D01*
X153499471Y-110245482D01*
X153476453Y-110170599D01*
X153476358Y-110166142D01*
X153498997Y-110071369D01*
X153558169Y-110000418D01*
X153640757Y-109958491D01*
X153733643Y-109950791D01*
X153823710Y-109982518D01*
G37*
G36*
X150956043Y-117924017D02*
G01*
X150982048Y-117944320D01*
X151063623Y-118012961D01*
X151063623Y-118317550D01*
X151063164Y-118448811D01*
X151060248Y-118538423D01*
X151052567Y-118597760D01*
X151037814Y-118638202D01*
X151013681Y-118671123D01*
X150986122Y-118699640D01*
X150899268Y-118761647D01*
X150812193Y-118771323D01*
X150720473Y-118728803D01*
X150694467Y-118708500D01*
X150612892Y-118639859D01*
X150612892Y-118335270D01*
X150613352Y-118204009D01*
X150616268Y-118114398D01*
X150623949Y-118055060D01*
X150638702Y-118014618D01*
X150662834Y-117981697D01*
X150690394Y-117953181D01*
X150777247Y-117891173D01*
X150864323Y-117881497D01*
X150956043Y-117924017D01*
G37*
G36*
X156469215Y-112580834D02*
G01*
X156696103Y-112581625D01*
X156893554Y-112582836D01*
X157056838Y-112584440D01*
X157181226Y-112586406D01*
X157261989Y-112588706D01*
X157294312Y-112591278D01*
X157386072Y-112649083D01*
X157440208Y-112731435D01*
X157454168Y-112825477D01*
X157425396Y-112918351D01*
X157371818Y-112981569D01*
X157290243Y-113050210D01*
X155690241Y-113050210D01*
X154090238Y-113050210D01*
X154008664Y-112981569D01*
X153942773Y-112896688D01*
X153923567Y-112800434D01*
X153951551Y-112705568D01*
X153995492Y-112650499D01*
X154063896Y-112586222D01*
X155659219Y-112581275D01*
X155946043Y-112580630D01*
X156217618Y-112580493D01*
X156469215Y-112580834D01*
G37*
G36*
X147684348Y-110013201D02*
G01*
X147737197Y-110100899D01*
X147749304Y-110206970D01*
X147732957Y-110278354D01*
X147721575Y-110304060D01*
X147705954Y-110325827D01*
X147681898Y-110343981D01*
X147645208Y-110358850D01*
X147591687Y-110370760D01*
X147517139Y-110380041D01*
X147417364Y-110387018D01*
X147288166Y-110392019D01*
X147125347Y-110395372D01*
X146924710Y-110397403D01*
X146682057Y-110398442D01*
X146393191Y-110398813D01*
X146187921Y-110398853D01*
X144809377Y-110398853D01*
X144741587Y-110339197D01*
X144673238Y-110251464D01*
X144656473Y-110157218D01*
X144691779Y-110061787D01*
X144713631Y-110032489D01*
X144784621Y-109948122D01*
X146201945Y-109948122D01*
X147619269Y-109948122D01*
X147684348Y-110013201D01*
G37*
G36*
X152536331Y-110013201D02*
G01*
X152589181Y-110100899D01*
X152601287Y-110206970D01*
X152584940Y-110278354D01*
X152573558Y-110304060D01*
X152557937Y-110325827D01*
X152533881Y-110343981D01*
X152497191Y-110358850D01*
X152443671Y-110370760D01*
X152369122Y-110380041D01*
X152269347Y-110387018D01*
X152140149Y-110392019D01*
X151977330Y-110395372D01*
X151776693Y-110397403D01*
X151534040Y-110398442D01*
X151245174Y-110398813D01*
X151039905Y-110398853D01*
X149661361Y-110398853D01*
X149593570Y-110339197D01*
X149525221Y-110251464D01*
X149508457Y-110157218D01*
X149543763Y-110061787D01*
X149565614Y-110032489D01*
X149636604Y-109948122D01*
X151053928Y-109948122D01*
X152471253Y-109948122D01*
X152536331Y-110013201D01*
G37*
G36*
X146852554Y-111698957D02*
G01*
X147197791Y-111699372D01*
X147493585Y-111700232D01*
X147743518Y-111701616D01*
X147951172Y-111703600D01*
X148120130Y-111706263D01*
X148253974Y-111709681D01*
X148356288Y-111713934D01*
X148430652Y-111719099D01*
X148480651Y-111725252D01*
X148509865Y-111732473D01*
X148515402Y-111735017D01*
X148585324Y-111795417D01*
X148635201Y-111877609D01*
X148649949Y-111941234D01*
X148634356Y-111989025D01*
X148594524Y-112051847D01*
X148582247Y-112067173D01*
X148513607Y-112148748D01*
X146870917Y-112148748D01*
X145228227Y-112148748D01*
X145163149Y-112083669D01*
X145107138Y-111996252D01*
X145101905Y-111901848D01*
X145147155Y-111807744D01*
X145175571Y-111775519D01*
X145253072Y-111698018D01*
X146852554Y-111698957D01*
G37*
G36*
X149499288Y-121726679D02*
G01*
X149518980Y-121734287D01*
X149607571Y-121795324D01*
X149652268Y-121886001D01*
X149658404Y-121947009D01*
X149647411Y-121991992D01*
X149611101Y-122051204D01*
X149544473Y-122131427D01*
X149443782Y-122238158D01*
X149352601Y-122327421D01*
X149268544Y-122402268D01*
X149201670Y-122454184D01*
X149165161Y-122474103D01*
X149086174Y-122471329D01*
X149000597Y-122436541D01*
X148932493Y-122380997D01*
X148916810Y-122357941D01*
X148890975Y-122292596D01*
X148890518Y-122229867D01*
X148919281Y-122160941D01*
X148981106Y-122077008D01*
X149079833Y-121969255D01*
X149091501Y-121957224D01*
X149206102Y-121844285D01*
X149296133Y-121768958D01*
X149369643Y-121727046D01*
X149434679Y-121714352D01*
X149499288Y-121726679D01*
G37*
G36*
X152647093Y-118610866D02*
G01*
X152702144Y-118645307D01*
X152762115Y-118729506D01*
X152783470Y-118824861D01*
X152775716Y-118876994D01*
X152751007Y-118914993D01*
X152696056Y-118979900D01*
X152619253Y-119062295D01*
X152537940Y-119144043D01*
X152422772Y-119251920D01*
X152333805Y-119321668D01*
X152263137Y-119355768D01*
X152202870Y-119356699D01*
X152145104Y-119326942D01*
X152095613Y-119282938D01*
X152039192Y-119215732D01*
X152014065Y-119151763D01*
X152022494Y-119083570D01*
X152066744Y-119003693D01*
X152149080Y-118904670D01*
X152238553Y-118811987D01*
X152336663Y-118715734D01*
X152407800Y-118651961D01*
X152461053Y-118614271D01*
X152505511Y-118596266D01*
X152550261Y-118591549D01*
X152551716Y-118591546D01*
X152647093Y-118610866D01*
G37*
G36*
X149177683Y-118597781D02*
G01*
X149224921Y-118620613D01*
X149284767Y-118666227D01*
X149365737Y-118740810D01*
X149437962Y-118811987D01*
X149550768Y-118930556D01*
X149623767Y-119024308D01*
X149659222Y-119100704D01*
X149659399Y-119167204D01*
X149626562Y-119231269D01*
X149580903Y-119282938D01*
X149520612Y-119334943D01*
X149464343Y-119359599D01*
X149404568Y-119354301D01*
X149333758Y-119316442D01*
X149244385Y-119243418D01*
X149128921Y-119132621D01*
X149119518Y-119123235D01*
X149021330Y-119024074D01*
X148955455Y-118953480D01*
X148916192Y-118903051D01*
X148897840Y-118864383D01*
X148894698Y-118829075D01*
X148899141Y-118798444D01*
X148940710Y-118701949D01*
X149015613Y-118629248D01*
X149109123Y-118593282D01*
X149134535Y-118591546D01*
X149177683Y-118597781D01*
G37*
G36*
X148764875Y-120315550D02*
G01*
X148857386Y-120318658D01*
X148918598Y-120326112D01*
X148959371Y-120339773D01*
X148990568Y-120361503D01*
X149010026Y-120380007D01*
X149066983Y-120468895D01*
X149074578Y-120564476D01*
X149033391Y-120655615D01*
X148993530Y-120697018D01*
X148951840Y-120728767D01*
X148909381Y-120748877D01*
X148852996Y-120759975D01*
X148769529Y-120764692D01*
X148650101Y-120765658D01*
X148492585Y-120761557D01*
X148378418Y-120747320D01*
X148298420Y-120720044D01*
X148243410Y-120676830D01*
X148210060Y-120626604D01*
X148185414Y-120533079D01*
X148211511Y-120441136D01*
X148260854Y-120374583D01*
X148287879Y-120349106D01*
X148320539Y-120332119D01*
X148369384Y-120321919D01*
X148444963Y-120316802D01*
X148557825Y-120315063D01*
X148630201Y-120314928D01*
X148764875Y-120315550D01*
G37*
G36*
X152293539Y-121724224D02*
G01*
X152338841Y-121740863D01*
X152391545Y-121776673D01*
X152461498Y-121838264D01*
X152551832Y-121925627D01*
X152664752Y-122042492D01*
X152738222Y-122134810D01*
X152775042Y-122210078D01*
X152778009Y-122275796D01*
X152749923Y-122339464D01*
X152720713Y-122378160D01*
X152658632Y-122437179D01*
X152591841Y-122460364D01*
X152550729Y-122462527D01*
X152504405Y-122459029D01*
X152461475Y-122444180D01*
X152412653Y-122411450D01*
X152348654Y-122354308D01*
X152260193Y-122266223D01*
X152234923Y-122240401D01*
X152138178Y-122138868D01*
X152074310Y-122064601D01*
X152037190Y-122008946D01*
X152020687Y-121963248D01*
X152018112Y-121934290D01*
X152042060Y-121838278D01*
X152106299Y-121764789D01*
X152199422Y-121724553D01*
X152245798Y-121720147D01*
X152293539Y-121724224D01*
G37*
G36*
X145710066Y-112580328D02*
G01*
X145890897Y-112581213D01*
X146043163Y-112582837D01*
X146160552Y-112585136D01*
X146236751Y-112588046D01*
X146264667Y-112591039D01*
X146351090Y-112646744D01*
X146408085Y-112728481D01*
X146423748Y-112800784D01*
X146422735Y-112861769D01*
X146416540Y-112911904D01*
X146400433Y-112952251D01*
X146369684Y-112983873D01*
X146319561Y-113007833D01*
X146245335Y-113025194D01*
X146142275Y-113037019D01*
X146005649Y-113044370D01*
X145830728Y-113048310D01*
X145612780Y-113049902D01*
X145347076Y-113050209D01*
X145313529Y-113050210D01*
X144386272Y-113050210D01*
X144304697Y-112981569D01*
X144238714Y-112896903D01*
X144222554Y-112801064D01*
X144256663Y-112702219D01*
X144287082Y-112660613D01*
X144351041Y-112586222D01*
X145287969Y-112581036D01*
X145506986Y-112580248D01*
X145710066Y-112580328D01*
G37*
G36*
X153173619Y-120315581D02*
G01*
X153268357Y-120318624D01*
X153330730Y-120325679D01*
X153371065Y-120338370D01*
X153399690Y-120358321D01*
X153415662Y-120374583D01*
X153477603Y-120466858D01*
X153488947Y-120557395D01*
X153463197Y-120632905D01*
X153426586Y-120687730D01*
X153376905Y-120725514D01*
X153304605Y-120749153D01*
X153200141Y-120761546D01*
X153053966Y-120765592D01*
X153025935Y-120765658D01*
X152903697Y-120764616D01*
X152821297Y-120759730D01*
X152765556Y-120748364D01*
X152723300Y-120727880D01*
X152682985Y-120697018D01*
X152617803Y-120612318D01*
X152601605Y-120515173D01*
X152635224Y-120415349D01*
X152656362Y-120384787D01*
X152681274Y-120355568D01*
X152708387Y-120335896D01*
X152747966Y-120323885D01*
X152810277Y-120317645D01*
X152905587Y-120315289D01*
X153036187Y-120314928D01*
X153173619Y-120315581D01*
G37*
G36*
X150921590Y-122302651D02*
G01*
X150978991Y-122334832D01*
X151019042Y-122381855D01*
X151044576Y-122452606D01*
X151058425Y-122555965D01*
X151063424Y-122700818D01*
X151063623Y-122748024D01*
X151062922Y-122879249D01*
X151059484Y-122968687D01*
X151051307Y-123027574D01*
X151036390Y-123067144D01*
X151012732Y-123098632D01*
X150998544Y-123113315D01*
X150912537Y-123167669D01*
X150838258Y-123178393D01*
X150737103Y-123156757D01*
X150677971Y-123113315D01*
X150649857Y-123082036D01*
X150631262Y-123047844D01*
X150620229Y-122999618D01*
X150614803Y-122926242D01*
X150613025Y-122816599D01*
X150612892Y-122743603D01*
X150613744Y-122610095D01*
X150617500Y-122518380D01*
X150625964Y-122457238D01*
X150640937Y-122415446D01*
X150664222Y-122381783D01*
X150672548Y-122372206D01*
X150759009Y-122307870D01*
X150856329Y-122288313D01*
X150921590Y-122302651D01*
G37*
G36*
X155641295Y-109948448D02*
G01*
X155777292Y-109949905D01*
X155875908Y-109953211D01*
X155944966Y-109959087D01*
X155992289Y-109968252D01*
X156025698Y-109981424D01*
X156053017Y-109999322D01*
X156057855Y-110003073D01*
X156114010Y-110077764D01*
X156131075Y-110171514D01*
X156108804Y-110267286D01*
X156062636Y-110333774D01*
X156038938Y-110356132D01*
X156013745Y-110372675D01*
X155979233Y-110384279D01*
X155927581Y-110391819D01*
X155850964Y-110396171D01*
X155741561Y-110398211D01*
X155591548Y-110398815D01*
X155481372Y-110398853D01*
X154965186Y-110398853D01*
X154883611Y-110330212D01*
X154817630Y-110245669D01*
X154800134Y-110150975D01*
X154831702Y-110057264D01*
X154867115Y-110013201D01*
X154890541Y-109991060D01*
X154915420Y-109974615D01*
X154949467Y-109963017D01*
X155000396Y-109955421D01*
X155075921Y-109950980D01*
X155183757Y-109948847D01*
X155331617Y-109948176D01*
X155460095Y-109948122D01*
X155641295Y-109948448D01*
G37*
G36*
X150470417Y-112574896D02*
G01*
X150631926Y-112575059D01*
X150934319Y-112575628D01*
X151221592Y-112576580D01*
X151489270Y-112577874D01*
X151732877Y-112579467D01*
X151947940Y-112581320D01*
X152129984Y-112583391D01*
X152274533Y-112585639D01*
X152377114Y-112588022D01*
X152433251Y-112590501D01*
X152442329Y-112591690D01*
X152533923Y-112648592D01*
X152588019Y-112730579D01*
X152602058Y-112824652D01*
X152573478Y-112917807D01*
X152519208Y-112982096D01*
X152437006Y-113051265D01*
X150594670Y-113044109D01*
X148752334Y-113036953D01*
X148688354Y-112962562D01*
X148633430Y-112865614D01*
X148628131Y-112768892D01*
X148670040Y-112682637D01*
X148756738Y-112617087D01*
X148771482Y-112610491D01*
X148797198Y-112602879D01*
X148837648Y-112596352D01*
X148896502Y-112590839D01*
X148977432Y-112586272D01*
X149084109Y-112582581D01*
X149220203Y-112579694D01*
X149389385Y-112577543D01*
X149595326Y-112576058D01*
X149841698Y-112575168D01*
X150132171Y-112574804D01*
X150470417Y-112574896D01*
G37*
G36*
X154134603Y-111698408D02*
G01*
X154458820Y-111698803D01*
X154733573Y-111699844D01*
X154962421Y-111701614D01*
X155148922Y-111704199D01*
X155296637Y-111707681D01*
X155409125Y-111712145D01*
X155489945Y-111717676D01*
X155542657Y-111724356D01*
X155570820Y-111732271D01*
X155570930Y-111732326D01*
X155649377Y-111798071D01*
X155688575Y-111887103D01*
X155686435Y-111984878D01*
X155640863Y-112076853D01*
X155623283Y-112096396D01*
X155610356Y-112107810D01*
X155593415Y-112117432D01*
X155568136Y-112125417D01*
X155530196Y-112131916D01*
X155475274Y-112137081D01*
X155399045Y-112141067D01*
X155297187Y-112144025D01*
X155165376Y-112146108D01*
X154999291Y-112147468D01*
X154794607Y-112148259D01*
X154547003Y-112148634D01*
X154252154Y-112148744D01*
X154141121Y-112148748D01*
X152711313Y-112148748D01*
X152656362Y-112078889D01*
X152606812Y-111980251D01*
X152607343Y-111881203D01*
X152657122Y-111791510D01*
X152682985Y-111766658D01*
X152764560Y-111698018D01*
X154134603Y-111698408D01*
G37*
G36*
X152154814Y-120707423D02*
G01*
X152096960Y-120952439D01*
X151990760Y-121184421D01*
X151837161Y-121397786D01*
X151771844Y-121467567D01*
X151571866Y-121636193D01*
X151356840Y-121755166D01*
X151121674Y-121826582D01*
X150861275Y-121852537D01*
X150836238Y-121852715D01*
X150575533Y-121827635D01*
X150332144Y-121755143D01*
X150110893Y-121639359D01*
X149916600Y-121484405D01*
X149754085Y-121294402D01*
X149628169Y-121073471D01*
X149543671Y-120825734D01*
X149524383Y-120731156D01*
X149511692Y-120544111D01*
X149976567Y-120544111D01*
X150001591Y-120746265D01*
X150072743Y-120936605D01*
X150184142Y-121105821D01*
X150329905Y-121244604D01*
X150473223Y-121330219D01*
X150611832Y-121372866D01*
X150777404Y-121391763D01*
X150950021Y-121387111D01*
X151109764Y-121359112D01*
X151209448Y-121322763D01*
X151386415Y-121209082D01*
X151525612Y-121064421D01*
X151625731Y-120896303D01*
X151685463Y-120712249D01*
X151703499Y-120519784D01*
X151678530Y-120326430D01*
X151609248Y-120139709D01*
X151494344Y-119967144D01*
X151453178Y-119921726D01*
X151338746Y-119817390D01*
X151223934Y-119747442D01*
X151085453Y-119698447D01*
X151050366Y-119689360D01*
X150918517Y-119662842D01*
X150806198Y-119657748D01*
X150689946Y-119674979D01*
X150570821Y-119707754D01*
X150470629Y-119743113D01*
X150390724Y-119785078D01*
X150312711Y-119845402D01*
X150225850Y-119928167D01*
X150107553Y-120064486D01*
X150030808Y-120201527D01*
X149989264Y-120354982D01*
X149976570Y-120540544D01*
X149976567Y-120544111D01*
X149511692Y-120544111D01*
X149507614Y-120484003D01*
X149538806Y-120246141D01*
X149613121Y-120021956D01*
X149725721Y-119815829D01*
X149871767Y-119632144D01*
X150046423Y-119475284D01*
X150244848Y-119349632D01*
X150462206Y-119259573D01*
X150693658Y-119209488D01*
X150934366Y-119203761D01*
X151166699Y-119243264D01*
X151405283Y-119333355D01*
X151623645Y-119466828D01*
X151813523Y-119636913D01*
X151966657Y-119836837D01*
X152028854Y-119949992D01*
X152121707Y-120200618D01*
X152163378Y-120454956D01*
X152161179Y-120519784D01*
X152154814Y-120707423D01*
G37*
G36*
X144448150Y-116775176D02*
G01*
X144523480Y-116812770D01*
X144635836Y-116872484D01*
X144780892Y-116951912D01*
X144954323Y-117048647D01*
X145151803Y-117160281D01*
X145369007Y-117284407D01*
X145601609Y-117418619D01*
X145772077Y-117517746D01*
X146011448Y-117657212D01*
X146237080Y-117788341D01*
X146444827Y-117908748D01*
X146630547Y-118016046D01*
X146790093Y-118107848D01*
X146919323Y-118181770D01*
X147014093Y-118235425D01*
X147070257Y-118266427D01*
X147084494Y-118273383D01*
X147110843Y-118260266D01*
X147176549Y-118223264D01*
X147275575Y-118165903D01*
X147401883Y-118091710D01*
X147549436Y-118004208D01*
X147712198Y-117906926D01*
X147720085Y-117902193D01*
X147941393Y-117771175D01*
X148122023Y-117668125D01*
X148261178Y-117593470D01*
X148358055Y-117547638D01*
X148411856Y-117531058D01*
X148413726Y-117531003D01*
X148508215Y-117554903D01*
X148584722Y-117617294D01*
X148629168Y-117704210D01*
X148634980Y-117750455D01*
X148625049Y-117826799D01*
X148600932Y-117885077D01*
X148598825Y-117887774D01*
X148563586Y-117916414D01*
X148489986Y-117966426D01*
X148384840Y-118033787D01*
X148254962Y-118114473D01*
X148107167Y-118204459D01*
X147948270Y-118299723D01*
X147785084Y-118396239D01*
X147624425Y-118489984D01*
X147473108Y-118576934D01*
X147337946Y-118653065D01*
X147225755Y-118714353D01*
X147143349Y-118756775D01*
X147097542Y-118776306D01*
X147092664Y-118777141D01*
X147059642Y-118764073D01*
X146985078Y-118726419D01*
X146873124Y-118666499D01*
X146727930Y-118586637D01*
X146553648Y-118489154D01*
X146354429Y-118376371D01*
X146134423Y-118250612D01*
X145897782Y-118114198D01*
X145648656Y-117969452D01*
X145645264Y-117967473D01*
X145351822Y-117796175D01*
X145100918Y-117649203D01*
X144889223Y-117524267D01*
X144713409Y-117419078D01*
X144570150Y-117331348D01*
X144456118Y-117258788D01*
X144367986Y-117199108D01*
X144302425Y-117150020D01*
X144256109Y-117109234D01*
X144225709Y-117074462D01*
X144207899Y-117043414D01*
X144199351Y-117013802D01*
X144196738Y-116983336D01*
X144196608Y-116970931D01*
X144218074Y-116910088D01*
X144271166Y-116844266D01*
X144338931Y-116789739D01*
X144404414Y-116762780D01*
X144414172Y-116762109D01*
X144448150Y-116775176D01*
G37*
G36*
X157388315Y-113539506D02*
G01*
X157440936Y-113626429D01*
X157451638Y-113728011D01*
X157419544Y-113825329D01*
X157402711Y-113849308D01*
X157352029Y-113911901D01*
X153611217Y-113925157D01*
X149870405Y-113938414D01*
X152462160Y-116528627D01*
X155053915Y-119118840D01*
X156061431Y-118309286D01*
X156264312Y-118146891D01*
X156456997Y-117993853D01*
X156635086Y-117853582D01*
X156794184Y-117729486D01*
X156929893Y-117624974D01*
X157037817Y-117543453D01*
X157113558Y-117488334D01*
X157152718Y-117463024D01*
X157153634Y-117462603D01*
X157240651Y-117439506D01*
X157318129Y-117457902D01*
X157393738Y-117513062D01*
X157446534Y-117592226D01*
X157453997Y-117685364D01*
X157417089Y-117780596D01*
X157367224Y-117840405D01*
X157330107Y-117872436D01*
X157255760Y-117934042D01*
X157148446Y-118021776D01*
X157012424Y-118132190D01*
X156851957Y-118261837D01*
X156671304Y-118407270D01*
X156474726Y-118565040D01*
X156266485Y-118731702D01*
X156197467Y-118786838D01*
X155955347Y-118979943D01*
X155750923Y-119142336D01*
X155580643Y-119276624D01*
X155440951Y-119385414D01*
X155328294Y-119471315D01*
X155239117Y-119536933D01*
X155169866Y-119584877D01*
X155116987Y-119617753D01*
X155076925Y-119638169D01*
X155046127Y-119648734D01*
X155021037Y-119652053D01*
X155018087Y-119652089D01*
X155000446Y-119650761D01*
X154980606Y-119645276D01*
X154956189Y-119633379D01*
X154924814Y-119612818D01*
X154884102Y-119581338D01*
X154831673Y-119536687D01*
X154765146Y-119476610D01*
X154682143Y-119398855D01*
X154580284Y-119301168D01*
X154457189Y-119181294D01*
X154310478Y-119036982D01*
X154137771Y-118865976D01*
X153936689Y-118666024D01*
X153704852Y-118434873D01*
X153439880Y-118170268D01*
X153198168Y-117928707D01*
X152947096Y-117677933D01*
X152706629Y-117438122D01*
X152479417Y-117211894D01*
X152268109Y-117001871D01*
X152075356Y-116810674D01*
X151903808Y-116640926D01*
X151756113Y-116495247D01*
X151634923Y-116376260D01*
X151542887Y-116286586D01*
X151482656Y-116228847D01*
X151456878Y-116205664D01*
X151456183Y-116205324D01*
X151429559Y-116218447D01*
X151363729Y-116255418D01*
X151264859Y-116312639D01*
X151139116Y-116386513D01*
X150992665Y-116473443D01*
X150842612Y-116563258D01*
X150627242Y-116690964D01*
X150454224Y-116789755D01*
X150322005Y-116860454D01*
X150229036Y-116903885D01*
X150173763Y-116920872D01*
X150168375Y-116921191D01*
X150077716Y-116898504D01*
X150007516Y-116839587D01*
X149964037Y-116758153D01*
X149953542Y-116667917D01*
X149982293Y-116582593D01*
X150002131Y-116557128D01*
X150039783Y-116527305D01*
X150115665Y-116475475D01*
X150222271Y-116406465D01*
X150352094Y-116325101D01*
X150497630Y-116236211D01*
X150552288Y-116203378D01*
X150700047Y-116114740D01*
X150833617Y-116034088D01*
X150945851Y-115965780D01*
X151029600Y-115914175D01*
X151077718Y-115883631D01*
X151085283Y-115878369D01*
X151084865Y-115863391D01*
X151064420Y-115830643D01*
X151021716Y-115777744D01*
X150954522Y-115702315D01*
X150860608Y-115601974D01*
X150737744Y-115474342D01*
X150583699Y-115317037D01*
X150396242Y-115127680D01*
X150173143Y-114903890D01*
X150157444Y-114888184D01*
X149194689Y-113925157D01*
X146779061Y-113925157D01*
X144363433Y-113925157D01*
X144293277Y-113860140D01*
X144235009Y-113773900D01*
X144222423Y-113675458D01*
X144255759Y-113579936D01*
X144288201Y-113539506D01*
X144353279Y-113474427D01*
X150838258Y-113474427D01*
X157323236Y-113474427D01*
X157388315Y-113539506D01*
G37*
D16*
%TO.C,R12*%
X186953641Y-135720000D02*
X186646359Y-135720000D01*
X186953641Y-136480000D02*
X186646359Y-136480000D01*
%TO.C,R3*%
X234680065Y-79290222D02*
X234205549Y-79290222D01*
X234680065Y-80335222D02*
X234205549Y-80335222D01*
%TO.C,C15*%
X198059726Y-144915437D02*
X197537222Y-144915437D01*
X198059726Y-146385437D02*
X197537222Y-146385437D01*
%TO.C,C14*%
X198059726Y-138915437D02*
X197537222Y-138915437D01*
X198059726Y-140385437D02*
X197537222Y-140385437D01*
%TO.C,C9*%
X203147836Y-152090000D02*
X202932164Y-152090000D01*
X203147836Y-152810000D02*
X202932164Y-152810000D01*
%TO.C,R18*%
X216457542Y-135616300D02*
X216932058Y-135616300D01*
X216457542Y-136661300D02*
X216932058Y-136661300D01*
%TO.C,R14*%
X192790000Y-139276359D02*
X192790000Y-139583641D01*
X193550000Y-139276359D02*
X193550000Y-139583641D01*
%TO.C,C21*%
X213340000Y-144583420D02*
X213340000Y-144864580D01*
X214360000Y-144583420D02*
X214360000Y-144864580D01*
D12*
%TO.C,MC1*%
X203435000Y-127930000D02*
X203435000Y-125930000D01*
X226660000Y-123580000D02*
X208660000Y-123580000D01*
X226660000Y-131530000D02*
X208660000Y-131530000D01*
X231885000Y-127930000D02*
X231885000Y-125930000D01*
D16*
%TO.C,Module1*%
X159000000Y-73500000D02*
X159000000Y-121500000D01*
X160640000Y-88600000D02*
X160640000Y-89600000D01*
X160640000Y-88600000D02*
X163440000Y-88600000D01*
X160640000Y-111400000D02*
X160640000Y-110400000D01*
X160640000Y-111400000D02*
X163440000Y-111400000D01*
X162500000Y-125000000D02*
X195500000Y-125000000D01*
X163440000Y-88600000D02*
X163440000Y-89600000D01*
X163440000Y-111400000D02*
X163440000Y-110400000D01*
X194560000Y-88600000D02*
X194560000Y-89600000D01*
X194560000Y-88600000D02*
X197440000Y-88600000D01*
X194560000Y-111400000D02*
X194560000Y-110400000D01*
X194560000Y-111400000D02*
X197440000Y-111400000D01*
X195500000Y-70000000D02*
X162500000Y-70000000D01*
X197440000Y-88600000D02*
X197440000Y-89600000D01*
X197440000Y-111400000D02*
X197440000Y-110400000D01*
X199000000Y-121500000D02*
X199000000Y-73500000D01*
X159000000Y-73500000D02*
G75*
G02*
X162500000Y-70000000I3499999J1D01*
G01*
X162500000Y-125000000D02*
G75*
G02*
X159000000Y-121500000I-1J3499999D01*
G01*
X195500000Y-70000000D02*
G75*
G02*
X199000000Y-73500000I0J-3500000D01*
G01*
X199000000Y-121500000D02*
G75*
G02*
X195500000Y-125000000I-3500000J0D01*
G01*
D19*
%TO.C,J4*%
X227715000Y-139618200D02*
X229345000Y-139618200D01*
X227715000Y-141273200D02*
X227715000Y-139618200D01*
X227715000Y-152268200D02*
X227715000Y-148913200D01*
X229345000Y-152268200D02*
X227715000Y-152268200D01*
X233285000Y-139618200D02*
X240705000Y-139618200D01*
X233285000Y-152268200D02*
X240705000Y-152268200D01*
X243165000Y-139618200D02*
X243045000Y-139618200D01*
X243165000Y-139618200D02*
X243165000Y-152268200D01*
X243165000Y-152268200D02*
X243045000Y-152268200D01*
D18*
X227050000Y-143188200D02*
G75*
G02*
X226850000Y-143188200I-100000J0D01*
G01*
X226850000Y-143188200D02*
G75*
G02*
X227050000Y-143188200I100000J0D01*
G01*
D16*
%TO.C,C4*%
X193948748Y-143985000D02*
X194471252Y-143985000D01*
X193948748Y-145455000D02*
X194471252Y-145455000D01*
%TO.C,C5*%
X216554220Y-138626000D02*
X216835380Y-138626000D01*
X216554220Y-139646000D02*
X216835380Y-139646000D01*
%TO.C,D6*%
X232950307Y-82117722D02*
X232950307Y-83587722D01*
X232950307Y-83587722D02*
X235235307Y-83587722D01*
X235235307Y-82117722D02*
X232950307Y-82117722D01*
D15*
%TO.C,G\u002A\u002A\u002A*%
G36*
X155957057Y-89124457D02*
G01*
X155975083Y-89569263D01*
X152203660Y-89569263D01*
X148432237Y-89569263D01*
X148305078Y-89407608D01*
X148197733Y-89220615D01*
X148200508Y-89050392D01*
X148314597Y-88865195D01*
X148325973Y-88851791D01*
X148474026Y-88679650D01*
X152206528Y-88679650D01*
X155939031Y-88679650D01*
X155957057Y-89124457D01*
G37*
G36*
X149589031Y-90673611D02*
G01*
X149589031Y-91103080D01*
X149105007Y-91103080D01*
X148777888Y-91087112D01*
X148554530Y-91033560D01*
X148419491Y-90933952D01*
X148357329Y-90779817D01*
X148348955Y-90688287D01*
X148367329Y-90496222D01*
X148446142Y-90365814D01*
X148601638Y-90287156D01*
X148850060Y-90250337D01*
X149077043Y-90244143D01*
X149589031Y-90244143D01*
X149589031Y-90673611D01*
G37*
G36*
X151490964Y-87570665D02*
G01*
X151490964Y-88035447D01*
X150638823Y-88035447D01*
X150287332Y-88033304D01*
X150037013Y-88025305D01*
X149866383Y-88009094D01*
X149753960Y-87982315D01*
X149678260Y-87942612D01*
X149659797Y-87928080D01*
X149518079Y-87744727D01*
X149495960Y-87544475D01*
X149594610Y-87341471D01*
X149609763Y-87323188D01*
X149762168Y-87145833D01*
X150626566Y-87125858D01*
X151490964Y-87105883D01*
X151490964Y-87570665D01*
G37*
G36*
X153167654Y-90244143D02*
G01*
X155969708Y-90244143D01*
X155969708Y-90673611D01*
X155969708Y-91103080D01*
X153191813Y-91103080D01*
X152501938Y-91103054D01*
X151924729Y-91102048D01*
X151450150Y-91098668D01*
X151068163Y-91091521D01*
X150768729Y-91079214D01*
X150541811Y-91060354D01*
X150377373Y-91033547D01*
X150265375Y-90997399D01*
X150195780Y-90950519D01*
X150158551Y-90891511D01*
X150143649Y-90818984D01*
X150141038Y-90731544D01*
X150141205Y-90679641D01*
X150140651Y-90580754D01*
X150145697Y-90498075D01*
X150166411Y-90430156D01*
X150212859Y-90375548D01*
X150295106Y-90332803D01*
X150423219Y-90300472D01*
X150607263Y-90277108D01*
X150857305Y-90261260D01*
X151183410Y-90251482D01*
X151595646Y-90246324D01*
X152104077Y-90244338D01*
X152718769Y-90244075D01*
X153167654Y-90244143D01*
G37*
G36*
X150162871Y-72309369D02*
G01*
X150186202Y-72319058D01*
X150227015Y-72401768D01*
X150259474Y-72575944D01*
X150276856Y-72791332D01*
X150294587Y-73218538D01*
X150018500Y-73252150D01*
X149683744Y-73330995D01*
X149452526Y-73474625D01*
X149322927Y-73685091D01*
X149293028Y-73964444D01*
X149298090Y-74022230D01*
X149387528Y-74316717D01*
X149574137Y-74547783D01*
X149844511Y-74705194D01*
X150185243Y-74778715D01*
X150294587Y-74782883D01*
X150527541Y-74739358D01*
X150820513Y-74616058D01*
X151151896Y-74424827D01*
X151500086Y-74177512D01*
X151705698Y-74009185D01*
X152043028Y-73721197D01*
X152309810Y-73501636D01*
X152525954Y-73336021D01*
X152711367Y-73209866D01*
X152885958Y-73108690D01*
X153065525Y-73019914D01*
X153467721Y-72893019D01*
X153919544Y-72850799D01*
X154381336Y-72893760D01*
X154754205Y-72998445D01*
X155189576Y-73226920D01*
X155541229Y-73540800D01*
X155805003Y-73932073D01*
X155976736Y-74392722D01*
X156052267Y-74914734D01*
X156031366Y-75458152D01*
X156023094Y-75587945D01*
X156015065Y-75828988D01*
X156007419Y-76169829D01*
X156000296Y-76599012D01*
X155993835Y-77105083D01*
X155988176Y-77676588D01*
X155983460Y-78302073D01*
X155979826Y-78970084D01*
X155977413Y-79669166D01*
X155976879Y-79921558D01*
X155974979Y-80615397D01*
X155971871Y-81271873D01*
X155967685Y-81880895D01*
X155962555Y-82432373D01*
X155956611Y-82916215D01*
X155949988Y-83322329D01*
X155942815Y-83640625D01*
X155935226Y-83861012D01*
X155927352Y-83973398D01*
X155923693Y-83986051D01*
X155833149Y-83992124D01*
X155646289Y-84008777D01*
X155388787Y-84033392D01*
X155086321Y-84063351D01*
X154764568Y-84096039D01*
X154449202Y-84128837D01*
X154165902Y-84159127D01*
X153940344Y-84184294D01*
X153798203Y-84201719D01*
X153776350Y-84204935D01*
X153576954Y-84237142D01*
X153576954Y-84994575D01*
X153576954Y-85752007D01*
X154481906Y-86067043D01*
X154820797Y-86185092D01*
X155143137Y-86297506D01*
X155419913Y-86394159D01*
X155622113Y-86464923D01*
X155678282Y-86484651D01*
X155969708Y-86587223D01*
X155969708Y-87311335D01*
X155969708Y-88035447D01*
X154527920Y-88035447D01*
X154069138Y-88034903D01*
X153717166Y-88032441D01*
X153456110Y-88026814D01*
X153270077Y-88016774D01*
X153143174Y-88001077D01*
X153059507Y-87978475D01*
X153003182Y-87947722D01*
X152963427Y-87912742D01*
X152843156Y-87717203D01*
X152836337Y-87503134D01*
X152942705Y-87298098D01*
X152969657Y-87268539D01*
X153037592Y-87214651D01*
X153133910Y-87176585D01*
X153282234Y-87150114D01*
X153506187Y-87131008D01*
X153826550Y-87115157D01*
X154563824Y-87084481D01*
X152656664Y-86375650D01*
X151524254Y-85954769D01*
X148484683Y-84825057D01*
X148484683Y-84560548D01*
X150212972Y-84560548D01*
X150249546Y-84591204D01*
X150362072Y-84641566D01*
X150561155Y-84716504D01*
X150857402Y-84820885D01*
X151184200Y-84933209D01*
X151547059Y-85057707D01*
X151879823Y-85172777D01*
X152161241Y-85270998D01*
X152370057Y-85344949D01*
X152485019Y-85387212D01*
X152487944Y-85388369D01*
X152656664Y-85455598D01*
X152656664Y-84887047D01*
X152656664Y-84318495D01*
X151629007Y-84425489D01*
X151263971Y-84462163D01*
X150920588Y-84494236D01*
X150626537Y-84519301D01*
X150409494Y-84534950D01*
X150325263Y-84538880D01*
X150241747Y-84544730D01*
X150212972Y-84560548D01*
X148484683Y-84560548D01*
X148484683Y-84321925D01*
X148484683Y-83818792D01*
X148745432Y-83784604D01*
X148860523Y-83770789D01*
X149083638Y-83745183D01*
X149400824Y-83709345D01*
X149798128Y-83664835D01*
X150261598Y-83613213D01*
X150777279Y-83556040D01*
X151331221Y-83494874D01*
X151690360Y-83455345D01*
X152249395Y-83393174D01*
X152769005Y-83334003D01*
X153236878Y-83279335D01*
X153640702Y-83230674D01*
X153968164Y-83189522D01*
X154206952Y-83157383D01*
X154344754Y-83135760D01*
X154374539Y-83127635D01*
X154315743Y-83112711D01*
X154147218Y-83082584D01*
X153880750Y-83039066D01*
X153528128Y-82983972D01*
X153101143Y-82919115D01*
X152611581Y-82846308D01*
X152071233Y-82767364D01*
X151491886Y-82684097D01*
X151481534Y-82682621D01*
X150766451Y-82579778D01*
X150165072Y-82491161D01*
X149669390Y-82415399D01*
X149271399Y-82351121D01*
X148963091Y-82296955D01*
X148736462Y-82251530D01*
X148583503Y-82213475D01*
X148496209Y-82181418D01*
X148475254Y-82167734D01*
X148377979Y-82005118D01*
X148369798Y-81804684D01*
X148448133Y-81610178D01*
X148512551Y-81534704D01*
X148663123Y-81393249D01*
X151748903Y-81801250D01*
X152352995Y-81880827D01*
X152922146Y-81955233D01*
X153444391Y-82022941D01*
X153907762Y-82082429D01*
X154300295Y-82132171D01*
X154610022Y-82170642D01*
X154824977Y-82196317D01*
X154933194Y-82207673D01*
X154942051Y-82208097D01*
X154983686Y-82197634D01*
X155012990Y-82155237D01*
X155032089Y-82062835D01*
X155043108Y-81902359D01*
X155048176Y-81655735D01*
X155049417Y-81304894D01*
X155049418Y-81295689D01*
X155049418Y-80384434D01*
X153040118Y-79635844D01*
X152610650Y-79475887D01*
X152496410Y-79433338D01*
X151924405Y-79220397D01*
X151350796Y-79006950D01*
X150992430Y-78873656D01*
X153573439Y-78873656D01*
X154311428Y-79126233D01*
X155049418Y-79378810D01*
X155049418Y-78278592D01*
X155049418Y-77178374D01*
X154788669Y-77211052D01*
X154592742Y-77233550D01*
X154331753Y-77260870D01*
X154067775Y-77286569D01*
X153607630Y-77329408D01*
X153590535Y-78101532D01*
X153573439Y-78873656D01*
X150992430Y-78873656D01*
X150802275Y-78802928D01*
X150305536Y-78618260D01*
X149887269Y-78462876D01*
X149758554Y-78415095D01*
X148486289Y-77942935D01*
X148485867Y-77679971D01*
X150093653Y-77679971D01*
X151329144Y-78101944D01*
X151697146Y-78226967D01*
X152025832Y-78337365D01*
X152297526Y-78427307D01*
X152494553Y-78490958D01*
X152599237Y-78522486D01*
X152610650Y-78524851D01*
X152630898Y-78468500D01*
X152646602Y-78316757D01*
X152655489Y-78096916D01*
X152656664Y-77972886D01*
X152656664Y-77419987D01*
X152426592Y-77451076D01*
X152211779Y-77477313D01*
X151908428Y-77510685D01*
X151550250Y-77547766D01*
X151170956Y-77585133D01*
X150804259Y-77619357D01*
X150562236Y-77640529D01*
X150093653Y-77679971D01*
X148485867Y-77679971D01*
X148485486Y-77442168D01*
X148484683Y-76941402D01*
X148714756Y-76905990D01*
X148830460Y-76890865D01*
X149051755Y-76864417D01*
X149362239Y-76828513D01*
X149745510Y-76785020D01*
X150185164Y-76735805D01*
X150664799Y-76682736D01*
X150969466Y-76649327D01*
X152994104Y-76428076D01*
X153853180Y-76012604D01*
X154168117Y-75854654D01*
X154458354Y-75698770D01*
X154698699Y-75559232D01*
X154863961Y-75450317D01*
X154906764Y-75415434D01*
X155078076Y-75180432D01*
X155161696Y-74899147D01*
X155147313Y-74631420D01*
X155029371Y-74391848D01*
X154818125Y-74176165D01*
X154542885Y-74003597D01*
X154232962Y-73893369D01*
X153975746Y-73862983D01*
X153810233Y-73871648D01*
X153648781Y-73902989D01*
X153478056Y-73965026D01*
X153284723Y-74065779D01*
X153055445Y-74213268D01*
X152776887Y-74415514D01*
X152435715Y-74680535D01*
X152018593Y-75016353D01*
X151907764Y-75106690D01*
X151509598Y-75404126D01*
X151149862Y-75608130D01*
X150802644Y-75729754D01*
X150442031Y-75780046D01*
X150322041Y-75782881D01*
X149822843Y-75730002D01*
X149382546Y-75577811D01*
X149011107Y-75335764D01*
X148718483Y-75013313D01*
X148514629Y-74619915D01*
X148409501Y-74165022D01*
X148397150Y-73955012D01*
X148423763Y-73553439D01*
X148503247Y-73238959D01*
X148645506Y-72982648D01*
X148856358Y-72734945D01*
X149099992Y-72531206D01*
X149340594Y-72406787D01*
X149348783Y-72404223D01*
X149576626Y-72348292D01*
X149814108Y-72311210D01*
X150022449Y-72296921D01*
X150162871Y-72309369D01*
G37*
%TD*%
%LPC*%
D20*
%TO.C,Y1*%
X155490000Y-134420000D03*
X155490000Y-129120000D03*
%TD*%
D21*
%TO.C,U1*%
X159209998Y-135370000D03*
X159710000Y-135370000D03*
X160209999Y-135370000D03*
X160710000Y-135370000D03*
X161209999Y-135370000D03*
X161710001Y-135370000D03*
X162210000Y-135370000D03*
X162709999Y-135370000D03*
X163210001Y-135370000D03*
X163710000Y-135370000D03*
X164209999Y-135370000D03*
X164710000Y-135370000D03*
X165209999Y-135370000D03*
X165710001Y-135370000D03*
X166210000Y-135370000D03*
X166210000Y-129464500D03*
X165709998Y-129464500D03*
X165209999Y-129464500D03*
X164709998Y-129464500D03*
X164209999Y-129464500D03*
X163710000Y-129464500D03*
X163209998Y-129464500D03*
X162709999Y-129464500D03*
X162209997Y-129464500D03*
X161709998Y-129464500D03*
X161209999Y-129464500D03*
X160709998Y-129464500D03*
X160209999Y-129464500D03*
X159709997Y-129464500D03*
X159209998Y-129464500D03*
%TD*%
D22*
%TO.C,R10*%
X152700000Y-102510000D03*
X152700000Y-101490000D03*
%TD*%
D23*
%TO.C,D2*%
X156237500Y-104500000D03*
X154662500Y-104500000D03*
%TD*%
%TO.C,D1*%
X152587500Y-104500000D03*
X151012500Y-104500000D03*
%TD*%
D22*
%TO.C,R1*%
X154900000Y-102510000D03*
X154900000Y-101490000D03*
%TD*%
D24*
%TO.C,U5*%
X155350000Y-97950000D03*
X154700000Y-97950000D03*
X154050000Y-97950000D03*
X154050000Y-99850000D03*
X155350000Y-99850000D03*
%TD*%
D25*
%TO.C,H2*%
X144974874Y-156225126D03*
%TD*%
%TO.C,H3*%
X144476540Y-71901700D03*
%TD*%
%TO.C,H6*%
X239800000Y-72400000D03*
%TD*%
%TO.C,H8*%
X240010000Y-156360000D03*
%TD*%
D26*
%TO.C,R5*%
X164970000Y-106780000D03*
X164970000Y-104780000D03*
%TD*%
D27*
%TO.C,U8*%
X193570348Y-142921960D03*
X194070348Y-142921960D03*
X194570348Y-142921960D03*
X195070348Y-142921960D03*
X195070348Y-141121960D03*
X194570348Y-141121960D03*
X194070348Y-141121960D03*
X193570348Y-141121960D03*
D28*
X194320348Y-142021960D03*
%TD*%
D29*
%TO.C,C6*%
X193350000Y-146800000D03*
X195250000Y-146800000D03*
%TD*%
D30*
%TO.C,C16*%
X198748474Y-143650437D03*
X196848474Y-143650437D03*
%TD*%
D31*
%TO.C,J2*%
X205261300Y-142250000D03*
X205261300Y-157250000D03*
D32*
X207221301Y-154249999D03*
X207221301Y-151250000D03*
X207221301Y-148250000D03*
X207221301Y-145250001D03*
%TD*%
D33*
%TO.C,C10*%
X192090000Y-146460000D03*
X192090000Y-147420000D03*
%TD*%
D34*
%TO.C,C11*%
X190995254Y-145159888D03*
X191955254Y-145159888D03*
%TD*%
D35*
%TO.C,C12*%
X159860000Y-143750000D03*
X159860000Y-142750000D03*
%TD*%
D29*
%TO.C,C8*%
X179100000Y-138700000D03*
X181000000Y-138700000D03*
%TD*%
D36*
%TO.C,C20*%
X227934600Y-136189600D03*
X226384600Y-136189600D03*
%TD*%
D35*
%TO.C,C22*%
X156840000Y-143750000D03*
X156840000Y-142750000D03*
%TD*%
D37*
%TO.C,J1*%
X230160000Y-76530000D03*
D38*
X205160000Y-76530000D03*
D39*
X229460000Y-72430000D03*
X229060000Y-80630000D03*
X228660000Y-72430000D03*
X228260000Y-80630000D03*
X227860000Y-72430000D03*
X227460000Y-80630000D03*
X227060000Y-72430000D03*
X226660000Y-80630000D03*
X226260000Y-72430000D03*
X225860000Y-80630000D03*
X225460000Y-72430000D03*
X225060000Y-80630000D03*
X224660000Y-72430000D03*
X224260000Y-80630000D03*
X223860000Y-72430000D03*
X223460000Y-80630000D03*
X219860000Y-72430000D03*
X219460000Y-80630000D03*
X219060000Y-72430000D03*
X218660000Y-80630000D03*
X218260000Y-72430000D03*
X217860000Y-80630000D03*
X217460000Y-72430000D03*
X217060000Y-80630000D03*
X216660000Y-72430000D03*
X216260000Y-80630000D03*
X215860000Y-72430000D03*
X215460000Y-80630000D03*
X215060000Y-72430000D03*
X214660000Y-80630000D03*
X214260000Y-72430000D03*
X213860000Y-80630000D03*
X213460000Y-72430000D03*
X213060000Y-80630000D03*
X212660000Y-72430000D03*
X212260000Y-80630000D03*
X211860000Y-72430000D03*
X211460000Y-80630000D03*
X211060000Y-72430000D03*
X210660000Y-80630000D03*
X210260000Y-72430000D03*
X209860000Y-80630000D03*
X209460000Y-72430000D03*
X209060000Y-80630000D03*
X208660000Y-72430000D03*
X208260000Y-80630000D03*
X207860000Y-72430000D03*
X207460000Y-80630000D03*
X207060000Y-72430000D03*
X206660000Y-80630000D03*
X206260000Y-72430000D03*
X205860000Y-80630000D03*
D40*
X232310000Y-73030000D03*
X203010000Y-73030000D03*
%TD*%
D41*
%TO.C,R19*%
X216999600Y-145549000D03*
X216999600Y-143899000D03*
%TD*%
D42*
%TO.C,J14*%
X148030000Y-98320000D03*
X148030000Y-97320000D03*
X148030000Y-96320000D03*
X148030000Y-95320000D03*
D43*
X145505000Y-99620000D03*
X145505000Y-94020000D03*
%TD*%
D44*
%TO.C,C32*%
X150750000Y-135000000D03*
X149750000Y-135000000D03*
%TD*%
D30*
%TO.C,C2*%
X189387500Y-129700000D03*
X187487500Y-129700000D03*
%TD*%
D45*
%TO.C,C3*%
X185900000Y-144700000D03*
X185900000Y-138475000D03*
%TD*%
D35*
%TO.C,C13*%
X161920000Y-143750000D03*
X161920000Y-142750000D03*
%TD*%
D30*
%TO.C,C17*%
X198735974Y-141650437D03*
X196835974Y-141650437D03*
%TD*%
D31*
%TO.C,J7*%
X241568700Y-92970000D03*
X241568700Y-77970000D03*
D32*
X239608699Y-80970001D03*
X239608699Y-83970000D03*
X239608699Y-86970000D03*
X239608699Y-89969999D03*
%TD*%
D35*
%TO.C,C27*%
X166940000Y-137920000D03*
X166940000Y-136920000D03*
%TD*%
%TO.C,C29*%
X164390000Y-137930000D03*
X164390000Y-136930000D03*
%TD*%
D46*
%TO.C,C30*%
X165240000Y-136920000D03*
X165240000Y-137920000D03*
%TD*%
D47*
%TO.C,R13*%
X222931000Y-136138800D03*
X224581000Y-136138800D03*
%TD*%
D46*
%TO.C,C28*%
X166090000Y-136920000D03*
X166090000Y-137920000D03*
%TD*%
D35*
%TO.C,C23*%
X158380000Y-143750000D03*
X158380000Y-142750000D03*
%TD*%
%TO.C,C25*%
X163590000Y-137930000D03*
X163590000Y-136930000D03*
%TD*%
D48*
%TO.C,J6*%
X149680000Y-152750000D03*
X161680000Y-152750000D03*
D49*
X152680000Y-154710000D03*
D50*
X155680000Y-154710000D03*
X158680000Y-154710000D03*
%TD*%
D47*
%TO.C,R17*%
X219425800Y-136138800D03*
X221075800Y-136138800D03*
%TD*%
D51*
%TO.C,U6*%
X188450000Y-132125000D03*
X187500000Y-132125000D03*
X186550000Y-132125000D03*
X186550000Y-134400000D03*
X187500000Y-134400000D03*
X188450000Y-134400000D03*
%TD*%
D52*
%TO.C,L1*%
X193210000Y-133550000D03*
X198660000Y-133550000D03*
%TD*%
D53*
%TO.C,C18*%
X203570000Y-147820000D03*
X202610000Y-147820000D03*
%TD*%
D54*
%TO.C,D3*%
X187212500Y-127000000D03*
X188787500Y-127000000D03*
%TD*%
D55*
%TO.C,R2*%
X197370000Y-125895000D03*
X197370000Y-127545000D03*
%TD*%
D56*
%TO.C,C1*%
X219780600Y-148838800D03*
X221330600Y-148838800D03*
%TD*%
D48*
%TO.C,J3*%
X161700000Y-149980000D03*
X149700000Y-149980000D03*
D57*
X158700000Y-148020000D03*
D50*
X155700000Y-148020000D03*
X152700000Y-148020000D03*
%TD*%
D22*
%TO.C,R16*%
X192220348Y-142946960D03*
X192220348Y-141926960D03*
%TD*%
D56*
%TO.C,C19*%
X219526600Y-139186800D03*
X221076600Y-139186800D03*
%TD*%
D29*
%TO.C,C7*%
X179112500Y-141100000D03*
X181012500Y-141100000D03*
%TD*%
D58*
%TO.C,CR1*%
X221705600Y-145674000D03*
X221705600Y-144724000D03*
X221705600Y-143774000D03*
X219405600Y-143774000D03*
X219405600Y-144724000D03*
X219405600Y-145674000D03*
%TD*%
D59*
%TO.C,R15*%
X190965254Y-143999888D03*
X191985254Y-143999888D03*
%TD*%
D35*
%TO.C,C24*%
X161710000Y-137920000D03*
X161710000Y-136920000D03*
%TD*%
D44*
%TO.C,C31*%
X150920000Y-129110000D03*
X149920000Y-129110000D03*
%TD*%
D60*
%TO.C,R12*%
X187310000Y-136100000D03*
X186290000Y-136100000D03*
%TD*%
D61*
%TO.C,R3*%
X235267807Y-79812722D03*
X233617807Y-79812722D03*
%TD*%
D30*
%TO.C,C15*%
X198748474Y-145650437D03*
X196848474Y-145650437D03*
%TD*%
%TO.C,C14*%
X198748474Y-139650437D03*
X196848474Y-139650437D03*
%TD*%
D53*
%TO.C,C9*%
X203520000Y-152450000D03*
X202560000Y-152450000D03*
%TD*%
D35*
%TO.C,C26*%
X162710000Y-137930000D03*
X162710000Y-136930000D03*
%TD*%
D47*
%TO.C,R18*%
X215869800Y-136138800D03*
X217519800Y-136138800D03*
%TD*%
D62*
%TO.C,R14*%
X193170000Y-138920000D03*
X193170000Y-139940000D03*
%TD*%
D63*
%TO.C,C21*%
X213850000Y-143949000D03*
X213850000Y-145499000D03*
%TD*%
D64*
%TO.C,MC1*%
X229760000Y-126930000D03*
D65*
X205560000Y-126930000D03*
D66*
X229760000Y-123780000D03*
X205560000Y-123780000D03*
X229760000Y-130080000D03*
X205560000Y-130080000D03*
%TD*%
D67*
%TO.C,Module1*%
X162500000Y-73500000D03*
X162500000Y-121500000D03*
X195500000Y-73500000D03*
X195500000Y-121500000D03*
D68*
X160460000Y-90200000D03*
X163540000Y-90200000D03*
X160460000Y-90600000D03*
X163540000Y-90600000D03*
X160460000Y-91000000D03*
X163540000Y-91000000D03*
X160460000Y-91400000D03*
X163540000Y-91400000D03*
X160460000Y-91800000D03*
X163540000Y-91800000D03*
X160460000Y-92200000D03*
X163540000Y-92200000D03*
X160460000Y-92600000D03*
X163540000Y-92600000D03*
X160460000Y-93000000D03*
X163540000Y-93000000D03*
X160460000Y-93400000D03*
X163540000Y-93400000D03*
X160460000Y-93800000D03*
X163540000Y-93800000D03*
X160460000Y-94200000D03*
X163540000Y-94200000D03*
X160460000Y-94600000D03*
X163540000Y-94600000D03*
X160460000Y-95000000D03*
X163540000Y-95000000D03*
X160460000Y-95400000D03*
X163540000Y-95400000D03*
X160460000Y-95800000D03*
X163540000Y-95800000D03*
X160460000Y-96200000D03*
X163540000Y-96200000D03*
X160460000Y-96600000D03*
X163540000Y-96600000D03*
X160460000Y-97000000D03*
X163540000Y-97000000D03*
X160460000Y-97400000D03*
X163540000Y-97400000D03*
X160460000Y-97800000D03*
X163540000Y-97800000D03*
X160460000Y-98200000D03*
X163540000Y-98200000D03*
X160460000Y-98600000D03*
X163540000Y-98600000D03*
X160460000Y-99000000D03*
X163540000Y-99000000D03*
X160460000Y-99400000D03*
X163540000Y-99400000D03*
X160460000Y-99800000D03*
X163540000Y-99800000D03*
X160460000Y-100200000D03*
X163540000Y-100200000D03*
X160460000Y-100600000D03*
X163540000Y-100600000D03*
X160460000Y-101000000D03*
X163540000Y-101000000D03*
X160460000Y-101400000D03*
X163540000Y-101400000D03*
X160460000Y-101800000D03*
X163540000Y-101800000D03*
X160460000Y-102200000D03*
X163540000Y-102200000D03*
X160460000Y-102600000D03*
X163540000Y-102600000D03*
X160460000Y-103000000D03*
X163540000Y-103000000D03*
X160460000Y-103400000D03*
X163540000Y-103400000D03*
X160460000Y-103800000D03*
X163540000Y-103800000D03*
X160460000Y-104200000D03*
X163540000Y-104200000D03*
X160460000Y-104600000D03*
X163540000Y-104600000D03*
X160460000Y-105000000D03*
X163540000Y-105000000D03*
X160460000Y-105400000D03*
X163540000Y-105400000D03*
X160460000Y-105800000D03*
X163540000Y-105800000D03*
X160460000Y-106200000D03*
X163540000Y-106200000D03*
X160460000Y-106600000D03*
X163540000Y-106600000D03*
X160460000Y-107000000D03*
X163540000Y-107000000D03*
X160460000Y-107400000D03*
X163540000Y-107400000D03*
X160460000Y-107800000D03*
X163540000Y-107800000D03*
X160460000Y-108200000D03*
X163540000Y-108200000D03*
X160460000Y-108600000D03*
X163540000Y-108600000D03*
X160460000Y-109000000D03*
X163540000Y-109000000D03*
X160460000Y-109400000D03*
X163540000Y-109400000D03*
X160460000Y-109800000D03*
X163540000Y-109800000D03*
X194460000Y-90200000D03*
X197540000Y-90200000D03*
X194460000Y-90600000D03*
X197540000Y-90600000D03*
X194460000Y-91000000D03*
X197540000Y-91000000D03*
X194460000Y-91400000D03*
X197540000Y-91400000D03*
X194460000Y-91800000D03*
X197540000Y-91800000D03*
X194460000Y-92200000D03*
X197540000Y-92200000D03*
X194460000Y-92600000D03*
X197540000Y-92600000D03*
X194460000Y-93000000D03*
X197540000Y-93000000D03*
X194460000Y-93400000D03*
X197540000Y-93400000D03*
X194460000Y-93800000D03*
X197540000Y-93800000D03*
X194460000Y-94200000D03*
X197540000Y-94200000D03*
X194460000Y-94600000D03*
X197540000Y-94600000D03*
X194460000Y-95000000D03*
X197540000Y-95000000D03*
X194460000Y-95400000D03*
X197540000Y-95400000D03*
X194460000Y-95800000D03*
X197540000Y-95800000D03*
X194460000Y-96200000D03*
X197540000Y-96200000D03*
X194460000Y-96600000D03*
X197540000Y-96600000D03*
X194460000Y-97000000D03*
X197540000Y-97000000D03*
X194460000Y-97400000D03*
X197540000Y-97400000D03*
X194460000Y-97800000D03*
X197540000Y-97800000D03*
X194460000Y-98200000D03*
X197540000Y-98200000D03*
X194460000Y-98600000D03*
X197540000Y-98600000D03*
X194460000Y-99000000D03*
X197540000Y-99000000D03*
X194460000Y-99400000D03*
X197540000Y-99400000D03*
X194460000Y-99800000D03*
X197540000Y-99800000D03*
X194460000Y-100200000D03*
X197540000Y-100200000D03*
X194460000Y-100600000D03*
X197540000Y-100600000D03*
X194460000Y-101000000D03*
X197540000Y-101000000D03*
X194460000Y-101400000D03*
X197540000Y-101400000D03*
X194460000Y-101800000D03*
X197540000Y-101800000D03*
X194460000Y-102200000D03*
X197540000Y-102200000D03*
X194460000Y-102600000D03*
X197540000Y-102600000D03*
X194460000Y-103000000D03*
X197540000Y-103000000D03*
X194460000Y-103400000D03*
X197540000Y-103400000D03*
X194460000Y-103800000D03*
X197540000Y-103800000D03*
X194460000Y-104200000D03*
X197540000Y-104200000D03*
X194460000Y-104600000D03*
X197540000Y-104600000D03*
X194460000Y-105000000D03*
X197540000Y-105000000D03*
X194460000Y-105400000D03*
X197540000Y-105400000D03*
X194460000Y-105800000D03*
X197540000Y-105800000D03*
X194460000Y-106200000D03*
X197540000Y-106200000D03*
X194460000Y-106600000D03*
X197540000Y-106600000D03*
X194460000Y-107000000D03*
X197540000Y-107000000D03*
X194460000Y-107400000D03*
X197540000Y-107400000D03*
X194460000Y-107800000D03*
X197540000Y-107800000D03*
X194460000Y-108200000D03*
X197540000Y-108200000D03*
X194460000Y-108600000D03*
X197540000Y-108600000D03*
X194460000Y-109000000D03*
X197540000Y-109000000D03*
X194460000Y-109400000D03*
X197540000Y-109400000D03*
X194460000Y-109800000D03*
X197540000Y-109800000D03*
%TD*%
D69*
%TO.C,J5*%
X174930000Y-151600000D03*
X172430000Y-151600000D03*
X170430000Y-151600000D03*
X167930000Y-151600000D03*
X167430000Y-153100000D03*
X169430000Y-153100000D03*
X171430000Y-153100000D03*
X173430000Y-153100000D03*
X175430000Y-153100000D03*
D70*
X178000000Y-151700000D03*
X164860000Y-151700000D03*
%TD*%
D71*
%TO.C,J4*%
X228145000Y-143188200D03*
X228145000Y-145728200D03*
X228145000Y-148268200D03*
X228145000Y-141918200D03*
X228145000Y-144458200D03*
X228145000Y-146998200D03*
D72*
X230315000Y-152213200D03*
X230315000Y-139673200D03*
X232315000Y-152213200D03*
X232315000Y-139673200D03*
D73*
X241875000Y-152053200D03*
X241875000Y-139843200D03*
D74*
X241295000Y-143403200D03*
X241295000Y-148483200D03*
%TD*%
D29*
%TO.C,C4*%
X193260000Y-144720000D03*
X195160000Y-144720000D03*
%TD*%
D56*
%TO.C,C5*%
X215919800Y-139136000D03*
X217469800Y-139136000D03*
%TD*%
D54*
%TO.C,D6*%
X233647807Y-82852722D03*
X235222807Y-82852722D03*
%TD*%
%LPD*%
M02*
