%TF.GenerationSoftware,KiCad,Pcbnew,9.0.1*%
%TF.CreationDate,2025-04-29T23:59:41-05:00*%
%TF.ProjectId,CM5IO,434d3549-4f2e-46b6-9963-61645f706362,rev?*%
%TF.SameCoordinates,Original*%
%TF.FileFunction,Copper,L3,Inr*%
%TF.FilePolarity,Positive*%
%FSLAX46Y46*%
G04 Gerber Fmt 4.6, Leading zero omitted, Abs format (unit mm)*
G04 Created by KiCad (PCBNEW 9.0.1) date 2025-04-29 23:59:41*
%MOMM*%
%LPD*%
G01*
G04 APERTURE LIST*
G04 Aperture macros list*
%AMRoundRect*
0 Rectangle with rounded corners*
0 $1 Rounding radius*
0 $2 $3 $4 $5 $6 $7 $8 $9 X,Y pos of 4 corners*
0 Add a 4 corners polygon primitive as box body*
4,1,4,$2,$3,$4,$5,$6,$7,$8,$9,$2,$3,0*
0 Add four circle primitives for the rounded corners*
1,1,$1+$1,$2,$3*
1,1,$1+$1,$4,$5*
1,1,$1+$1,$6,$7*
1,1,$1+$1,$8,$9*
0 Add four rect primitives between the rounded corners*
20,1,$1+$1,$2,$3,$4,$5,0*
20,1,$1+$1,$4,$5,$6,$7,0*
20,1,$1+$1,$6,$7,$8,$9,0*
20,1,$1+$1,$8,$9,$2,$3,0*%
G04 Aperture macros list end*
%TA.AperFunction,ComponentPad*%
%ADD10C,2.100000*%
%TD*%
%TA.AperFunction,ComponentPad*%
%ADD11RoundRect,0.250000X0.725000X-0.600000X0.725000X0.600000X-0.725000X0.600000X-0.725000X-0.600000X0*%
%TD*%
%TA.AperFunction,ComponentPad*%
%ADD12O,1.950000X1.700000*%
%TD*%
%TA.AperFunction,ComponentPad*%
%ADD13C,0.450000*%
%TD*%
%TA.AperFunction,ComponentPad*%
%ADD14R,1.700000X1.700000*%
%TD*%
%TA.AperFunction,ComponentPad*%
%ADD15O,1.700000X1.700000*%
%TD*%
%TA.AperFunction,ComponentPad*%
%ADD16C,1.000000*%
%TD*%
%TA.AperFunction,ComponentPad*%
%ADD17C,2.500000*%
%TD*%
%TA.AperFunction,ViaPad*%
%ADD18C,0.450000*%
%TD*%
%TA.AperFunction,Conductor*%
%ADD19C,0.147000*%
%TD*%
%TA.AperFunction,Conductor*%
%ADD20C,0.130000*%
%TD*%
G04 APERTURE END LIST*
D10*
%TO.N,GND*%
%TO.C,J2*%
X215000000Y-155700000D03*
%TO.N,/+5v*%
X212500000Y-155700000D03*
%TD*%
D11*
%TO.N,/CM5_HighSpeed/VBUS*%
%TO.C,J7*%
X240200000Y-85820000D03*
D12*
%TO.N,/CM5_HighSpeed/USB3-0-D_P*%
X240200000Y-83320000D03*
%TO.N,/CM5_HighSpeed/USB3-0-D_N*%
X240200000Y-80820000D03*
%TO.N,GND*%
X240200000Y-78320000D03*
%TD*%
D13*
%TO.N,GND*%
%TO.C,U2*%
X163000000Y-138250000D03*
X163450000Y-138700000D03*
X163000000Y-139150000D03*
X162550000Y-138700000D03*
%TD*%
D14*
%TO.N,Net-(J6-Pin_1)*%
%TO.C,J6*%
X153960000Y-156240000D03*
D15*
%TO.N,Net-(J6-Pin_2)*%
X153960000Y-153700000D03*
%TO.N,GND*%
X156500000Y-156240000D03*
X156500000Y-153700000D03*
%TO.N,Net-(J6-Pin_5)*%
X159040000Y-156240000D03*
%TO.N,Net-(J6-Pin_6)*%
X159040000Y-153700000D03*
%TD*%
D16*
%TO.N,/CM5_HighSpeed/VBUS*%
%TO.C,J5*%
X174930000Y-151600000D03*
%TO.N,/CM5_HighSpeed/USB3-1-D_P*%
X172430000Y-151600000D03*
%TO.N,/CM5_HighSpeed/USB3-1-D_N*%
X170430000Y-151600000D03*
%TO.N,GND*%
X167930000Y-151600000D03*
%TO.N,/CM5_HighSpeed/USB3-1-RX_N*%
X167430000Y-153100000D03*
%TO.N,/CM5_HighSpeed/USB3-1-RX_P*%
X169430000Y-153100000D03*
%TO.N,GND*%
X171430000Y-153100000D03*
%TO.N,/CM5_HighSpeed/USB3-1-TX_N*%
X173430000Y-153100000D03*
%TO.N,/CM5_HighSpeed/USB3-1-TX_P*%
X175430000Y-153100000D03*
D17*
%TO.N,N/C*%
X178000000Y-151700000D03*
X164860000Y-151700000D03*
%TD*%
D18*
%TO.N,GND*%
X192650000Y-104800000D03*
X211500000Y-140200000D03*
X160300000Y-137425000D03*
X189800000Y-95500000D03*
X192000000Y-156700000D03*
X196500000Y-102650000D03*
X220000000Y-145700000D03*
X198650000Y-90800000D03*
X196350000Y-91700000D03*
%TO.N,/PCIe-M2/SIM_VDD*%
X213300000Y-130750000D03*
X224125000Y-143200000D03*
X221800000Y-158100000D03*
%TO.N,/CM5_HighSpeed/VBUS*%
X189500000Y-134700000D03*
%TO.N,/PCIe-M2/M2_3v3*%
X222500000Y-124250000D03*
X197600000Y-144100000D03*
X202450000Y-126950000D03*
X195450000Y-136700000D03*
X210850000Y-126050000D03*
%TO.N,Net-(CR1-I{slash}O1)*%
X236550000Y-156600000D03*
X227750000Y-144925000D03*
X221925000Y-140375000D03*
X215150000Y-141600000D03*
%TO.N,/+3.3v*%
X164500000Y-141200000D03*
X193150000Y-82450000D03*
X157350000Y-95750000D03*
X193150000Y-88400000D03*
X150900000Y-106450000D03*
X165500000Y-135700000D03*
%TO.N,Net-(CR1-I{slash}O3)*%
X224250000Y-158150000D03*
X223050000Y-148450000D03*
%TO.N,Net-(D6-A)*%
X200550000Y-131500000D03*
X194150000Y-131550000D03*
%TO.N,/PCIe-M2/LED_WWAN*%
X230100000Y-130400000D03*
X205000000Y-129400000D03*
%TO.N,/+5v*%
X190700000Y-155450000D03*
X199000000Y-89700000D03*
X184700000Y-152550000D03*
%TO.N,/PCIe-M2/SIM_CLK*%
X215700000Y-150000000D03*
X214900000Y-131950000D03*
%TO.N,/CM5_GPIO ( Ethernet\u002C GPIO\u002C SDCARD)/ID_SC*%
X197550000Y-130200000D03*
X199400000Y-101400000D03*
%TO.N,/CM5_GPIO ( Ethernet\u002C GPIO\u002C SDCARD)/ID_SD*%
X198100000Y-129400000D03*
X191750000Y-98050000D03*
%TO.N,/CM5_GPIO ( Ethernet\u002C GPIO\u002C SDCARD)/GPIO27*%
X195635000Y-110250000D03*
X193100000Y-95550000D03*
%TO.N,/CM5_GPIO ( Ethernet\u002C GPIO\u002C SDCARD)/GPIO20*%
X198750000Y-99650000D03*
X162178447Y-141200000D03*
%TO.N,/CM5_GPIO ( Ethernet\u002C GPIO\u002C SDCARD)/GPIO13*%
X225700000Y-133750000D03*
X195751475Y-99611796D03*
%TO.N,/CM5_GPIO ( Ethernet\u002C GPIO\u002C SDCARD)/GPIO6*%
X196150000Y-98500000D03*
X235050000Y-138800000D03*
%TO.N,/CM5_GPIO ( Ethernet\u002C GPIO\u002C SDCARD)/GPIO19*%
X191335000Y-101700000D03*
X163495460Y-141200000D03*
%TO.N,/CM5_GPIO ( Ethernet\u002C GPIO\u002C SDCARD)/GPIO18*%
X196500000Y-97350000D03*
X162753450Y-141200000D03*
%TO.N,/CM5_GPIO ( Ethernet\u002C GPIO\u002C SDCARD)/GPIO15*%
X215450000Y-133600000D03*
X217650000Y-120600000D03*
%TO.N,/CM5_GPIO ( Ethernet\u002C GPIO\u002C SDCARD)/GPIO14*%
X196229000Y-94000000D03*
X213800000Y-133250000D03*
%TO.N,/CM5_GPIO ( Ethernet\u002C GPIO\u002C SDCARD)/GPIO3*%
X165500000Y-138335000D03*
X195360000Y-93560000D03*
%TO.N,/CM5_GPIO ( Ethernet\u002C GPIO\u002C SDCARD)/GPIO2*%
X192956550Y-93156550D03*
X165500000Y-138910003D03*
%TO.N,/CM5_HighSpeed/USB3-0-D_N*%
X159000000Y-97700000D03*
%TO.N,/CM5_HighSpeed/USB3-0-D_P*%
X159000000Y-98700000D03*
%TO.N,/CM5_HighSpeed/USB2_N*%
X227000000Y-126200000D03*
X164500000Y-104775003D03*
%TO.N,/CM5_HighSpeed/USB2_P*%
X228000000Y-126200000D03*
X164500000Y-104200000D03*
%TO.N,/CM5_GPIO ( Ethernet\u002C GPIO\u002C SDCARD)/TACHO*%
X193000000Y-102000000D03*
X199956550Y-87156550D03*
%TO.N,/CM5_GPIO ( Ethernet\u002C GPIO\u002C SDCARD)/PWM*%
X199700000Y-95500000D03*
X199700000Y-88550000D03*
%TO.N,Net-(Module1A-LED_nACT)*%
X156978500Y-101950000D03*
X196900000Y-100800000D03*
%TO.N,/CM5_GPIO ( Ethernet\u002C GPIO\u002C SDCARD)/nPWR_LED*%
X157400000Y-95150000D03*
X196400000Y-86000000D03*
%TO.N,/CM5_HighSpeed/PCIE_PWR_EN*%
X152750000Y-108000000D03*
X183050000Y-143250000D03*
%TO.N,/CM5_HighSpeed/VBUS_EN*%
X166750000Y-102900000D03*
X184800000Y-131400000D03*
%TD*%
D19*
%TO.N,/CM5_HighSpeed/USB3-0-D_N*%
X236830000Y-77450000D02*
X240200000Y-80820000D01*
X179250000Y-77450000D02*
X236830000Y-77450000D01*
X159000000Y-97700000D02*
X179250000Y-77450000D01*
%TO.N,/CM5_HighSpeed/USB3-0-D_P*%
X159911576Y-97788424D02*
X159000000Y-98700000D01*
X179365152Y-77728000D02*
X159911576Y-97181576D01*
X239020500Y-82140500D02*
X239020500Y-80033652D01*
X239020500Y-80033652D02*
X236714848Y-77728000D01*
X159911576Y-97181576D02*
X159911576Y-97788424D01*
X236714848Y-77728000D02*
X179365152Y-77728000D01*
X240200000Y-83320000D02*
X239020500Y-82140500D01*
D20*
%TO.N,/CM5_HighSpeed/USB2_N*%
X219184000Y-118384000D02*
X178108997Y-118384000D01*
X227000000Y-126200000D02*
X219184000Y-118384000D01*
X178108997Y-118384000D02*
X164500000Y-104775003D01*
%TO.N,/CM5_HighSpeed/USB2_P*%
X178000000Y-117700000D02*
X219500000Y-117700000D01*
X164672313Y-104359003D02*
X164916000Y-104602690D01*
X164916000Y-104616000D02*
X178000000Y-117700000D01*
X219500000Y-117700000D02*
X228000000Y-126200000D01*
X164916000Y-104602690D02*
X164916000Y-104616000D01*
X164659003Y-104359003D02*
X164672313Y-104359003D01*
X164500000Y-104200000D02*
X164659003Y-104359003D01*
%TD*%
%TA.AperFunction,Conductor*%
%TO.N,GND*%
G36*
X156754000Y-155809297D02*
G01*
X156692993Y-155774075D01*
X156565826Y-155740000D01*
X156434174Y-155740000D01*
X156307007Y-155774075D01*
X156246000Y-155809297D01*
X156246000Y-154130702D01*
X156307007Y-154165925D01*
X156434174Y-154200000D01*
X156565826Y-154200000D01*
X156692993Y-154165925D01*
X156754000Y-154130702D01*
X156754000Y-155809297D01*
G37*
%TD.AperFunction*%
%TA.AperFunction,Conductor*%
G36*
X161323321Y-70518907D02*
G01*
X161359285Y-70568407D01*
X161359285Y-70629593D01*
X161323321Y-70679093D01*
X161308085Y-70688196D01*
X161022097Y-70825920D01*
X161022092Y-70825923D01*
X160731981Y-71008211D01*
X160464108Y-71221833D01*
X160221833Y-71464108D01*
X160008211Y-71731981D01*
X159825923Y-72022092D01*
X159825916Y-72022104D01*
X159677264Y-72330784D01*
X159677263Y-72330786D01*
X159564103Y-72654179D01*
X159487860Y-72988218D01*
X159449500Y-73328686D01*
X159449500Y-73671313D01*
X159487860Y-74011781D01*
X159564103Y-74345820D01*
X159677263Y-74669213D01*
X159677264Y-74669215D01*
X159825916Y-74977895D01*
X159825920Y-74977902D01*
X159825924Y-74977910D01*
X160008211Y-75268018D01*
X160221834Y-75535893D01*
X160464107Y-75778166D01*
X160731982Y-75991789D01*
X161022090Y-76174076D01*
X161022101Y-76174081D01*
X161022104Y-76174083D01*
X161124660Y-76223471D01*
X161330785Y-76322736D01*
X161481753Y-76375561D01*
X161654179Y-76435896D01*
X161654182Y-76435896D01*
X161654183Y-76435897D01*
X161988217Y-76512139D01*
X162328688Y-76550500D01*
X162328689Y-76550500D01*
X162671311Y-76550500D01*
X162671312Y-76550500D01*
X163011783Y-76512139D01*
X163345817Y-76435897D01*
X163669215Y-76322736D01*
X163977910Y-76174076D01*
X164268018Y-75991789D01*
X164535893Y-75778166D01*
X164778166Y-75535893D01*
X164991789Y-75268018D01*
X165174076Y-74977910D01*
X165322736Y-74669215D01*
X165435897Y-74345817D01*
X165512139Y-74011783D01*
X165550500Y-73671312D01*
X165550500Y-73328688D01*
X165512139Y-72988217D01*
X165435897Y-72654183D01*
X165322736Y-72330785D01*
X165223471Y-72124660D01*
X165174083Y-72022104D01*
X165174081Y-72022101D01*
X165174076Y-72022090D01*
X164991789Y-71731982D01*
X164778166Y-71464107D01*
X164535893Y-71221834D01*
X164268018Y-71008211D01*
X163977910Y-70825924D01*
X163691914Y-70688195D01*
X163647691Y-70645913D01*
X163636766Y-70585711D01*
X163663313Y-70530585D01*
X163717193Y-70501591D01*
X163734870Y-70500000D01*
X175901000Y-70500000D01*
X175959191Y-70518907D01*
X175995155Y-70568407D01*
X176000000Y-70599000D01*
X176000000Y-76500000D01*
X191999999Y-76500000D01*
X192000000Y-76500000D01*
X192000000Y-70599000D01*
X192018907Y-70540809D01*
X192068407Y-70504845D01*
X192099000Y-70500000D01*
X194265130Y-70500000D01*
X194323321Y-70518907D01*
X194359285Y-70568407D01*
X194359285Y-70629593D01*
X194323321Y-70679093D01*
X194308085Y-70688196D01*
X194022097Y-70825920D01*
X194022092Y-70825923D01*
X193731981Y-71008211D01*
X193464108Y-71221833D01*
X193221833Y-71464108D01*
X193008211Y-71731981D01*
X192825923Y-72022092D01*
X192825916Y-72022104D01*
X192677264Y-72330784D01*
X192677263Y-72330786D01*
X192564103Y-72654179D01*
X192487860Y-72988218D01*
X192449500Y-73328686D01*
X192449500Y-73671313D01*
X192487860Y-74011781D01*
X192564103Y-74345820D01*
X192677263Y-74669213D01*
X192677264Y-74669215D01*
X192825916Y-74977895D01*
X192825920Y-74977902D01*
X192825924Y-74977910D01*
X193008211Y-75268018D01*
X193221834Y-75535893D01*
X193464107Y-75778166D01*
X193731982Y-75991789D01*
X194022090Y-76174076D01*
X194022101Y-76174081D01*
X194022104Y-76174083D01*
X194124660Y-76223471D01*
X194330785Y-76322736D01*
X194481753Y-76375561D01*
X194654179Y-76435896D01*
X194654182Y-76435896D01*
X194654183Y-76435897D01*
X194988217Y-76512139D01*
X195328688Y-76550500D01*
X195328689Y-76550500D01*
X195671311Y-76550500D01*
X195671312Y-76550500D01*
X196011783Y-76512139D01*
X196345817Y-76435897D01*
X196669215Y-76322736D01*
X196977910Y-76174076D01*
X197268018Y-75991789D01*
X197535893Y-75778166D01*
X197778166Y-75535893D01*
X197991789Y-75268018D01*
X198174076Y-74977910D01*
X198322736Y-74669215D01*
X198435897Y-74345817D01*
X198512139Y-74011783D01*
X198550500Y-73671312D01*
X198550500Y-73328688D01*
X198512139Y-72988217D01*
X198435897Y-72654183D01*
X198322736Y-72330785D01*
X198223471Y-72124660D01*
X198174083Y-72022104D01*
X198174081Y-72022101D01*
X198174076Y-72022090D01*
X197991789Y-71731982D01*
X197778166Y-71464107D01*
X197535893Y-71221834D01*
X197268018Y-71008211D01*
X196977910Y-70825924D01*
X196691914Y-70688195D01*
X196647691Y-70645913D01*
X196636766Y-70585711D01*
X196663313Y-70530585D01*
X196717193Y-70501591D01*
X196734870Y-70500000D01*
X235458992Y-70500000D01*
X235517183Y-70518907D01*
X235528996Y-70528996D01*
X237126081Y-72126081D01*
X237153858Y-72180598D01*
X237154455Y-72207168D01*
X237149500Y-72251147D01*
X237149500Y-72548865D01*
X237182831Y-72844671D01*
X237182832Y-72844677D01*
X237249076Y-73134912D01*
X237347398Y-73415899D01*
X237347399Y-73415902D01*
X237476557Y-73684102D01*
X237476561Y-73684109D01*
X237476565Y-73684117D01*
X237634950Y-73936185D01*
X237820562Y-74168934D01*
X238031066Y-74379438D01*
X238263815Y-74565050D01*
X238515883Y-74723435D01*
X238515894Y-74723440D01*
X238515897Y-74723442D01*
X238750572Y-74836455D01*
X238784099Y-74852601D01*
X238915270Y-74898499D01*
X239065087Y-74950923D01*
X239065090Y-74950923D01*
X239065091Y-74950924D01*
X239355325Y-75017168D01*
X239435096Y-75026156D01*
X239651134Y-75050499D01*
X239651150Y-75050499D01*
X239651151Y-75050500D01*
X239651152Y-75050500D01*
X239948841Y-75050500D01*
X239948849Y-75050500D01*
X239992829Y-75045544D01*
X240052769Y-75057816D01*
X240073917Y-75073917D01*
X242071004Y-77071004D01*
X242098781Y-77125521D01*
X242100000Y-77141008D01*
X242100000Y-152858992D01*
X242081093Y-152917183D01*
X242071004Y-152928996D01*
X235528996Y-159471004D01*
X235474479Y-159498781D01*
X235458992Y-159500000D01*
X211500000Y-159500000D01*
X148351408Y-159480776D01*
X148313553Y-159473240D01*
X148304437Y-159469464D01*
X148304436Y-159469464D01*
X147576253Y-159469464D01*
X147518062Y-159450557D01*
X147482098Y-159401057D01*
X147477695Y-159373256D01*
X147477465Y-159373272D01*
X147477300Y-159370764D01*
X147477253Y-159370464D01*
X147477253Y-159370038D01*
X147477253Y-159370037D01*
X147448557Y-159152063D01*
X147391654Y-158939700D01*
X147330037Y-158790944D01*
X147307521Y-158736585D01*
X147301121Y-158725499D01*
X147197592Y-158546181D01*
X147115222Y-158438834D01*
X147063758Y-158371765D01*
X147063756Y-158371763D01*
X147063753Y-158371759D01*
X146908292Y-158216298D01*
X146908287Y-158216294D01*
X146908285Y-158216292D01*
X146898143Y-158208510D01*
X146886488Y-158191552D01*
X146871528Y-158177428D01*
X146869550Y-158166908D01*
X146863487Y-158158086D01*
X146864025Y-158137517D01*
X146860224Y-158117296D01*
X146864798Y-158107990D01*
X146865088Y-158096922D01*
X146886425Y-158062004D01*
X146887395Y-158060975D01*
X146909980Y-158038391D01*
X221174500Y-158038391D01*
X221174500Y-158161608D01*
X221198536Y-158282450D01*
X221245688Y-158396285D01*
X221255303Y-158410675D01*
X221314142Y-158498733D01*
X221401267Y-158585858D01*
X221503714Y-158654311D01*
X221617548Y-158701463D01*
X221738394Y-158725500D01*
X221738396Y-158725500D01*
X221861604Y-158725500D01*
X221861606Y-158725500D01*
X221982452Y-158701463D01*
X222096286Y-158654311D01*
X222198733Y-158585858D01*
X222285858Y-158498733D01*
X222354311Y-158396286D01*
X222401463Y-158282452D01*
X222425500Y-158161606D01*
X222425500Y-158088391D01*
X223624500Y-158088391D01*
X223624500Y-158211608D01*
X223648536Y-158332450D01*
X223695688Y-158446285D01*
X223695689Y-158446286D01*
X223764142Y-158548733D01*
X223851267Y-158635858D01*
X223953714Y-158704311D01*
X224067548Y-158751463D01*
X224188394Y-158775500D01*
X224188396Y-158775500D01*
X224311604Y-158775500D01*
X224311606Y-158775500D01*
X224432452Y-158751463D01*
X224546286Y-158704311D01*
X224648733Y-158635858D01*
X224735858Y-158548733D01*
X224804311Y-158446286D01*
X224851463Y-158332452D01*
X224875500Y-158211606D01*
X224875500Y-158088394D01*
X224851463Y-157967548D01*
X224804311Y-157853714D01*
X224735858Y-157751267D01*
X224648733Y-157664142D01*
X224546286Y-157595689D01*
X224546287Y-157595689D01*
X224546285Y-157595688D01*
X224432450Y-157548536D01*
X224311608Y-157524500D01*
X224311606Y-157524500D01*
X224188394Y-157524500D01*
X224188391Y-157524500D01*
X224067549Y-157548536D01*
X223953714Y-157595688D01*
X223851267Y-157664142D01*
X223851263Y-157664145D01*
X223764145Y-157751263D01*
X223764142Y-157751267D01*
X223695688Y-157853714D01*
X223648536Y-157967549D01*
X223624500Y-158088391D01*
X222425500Y-158088391D01*
X222425500Y-158038394D01*
X222401463Y-157917548D01*
X222354311Y-157803714D01*
X222285858Y-157701267D01*
X222198733Y-157614142D01*
X222118446Y-157560496D01*
X222096285Y-157545688D01*
X221982450Y-157498536D01*
X221861608Y-157474500D01*
X221861606Y-157474500D01*
X221738394Y-157474500D01*
X221738391Y-157474500D01*
X221617549Y-157498536D01*
X221503714Y-157545688D01*
X221401267Y-157614142D01*
X221401263Y-157614145D01*
X221314145Y-157701263D01*
X221314142Y-157701267D01*
X221245688Y-157803714D01*
X221198536Y-157917549D01*
X221174500Y-158038391D01*
X146909980Y-158038391D01*
X146954312Y-157994060D01*
X147139924Y-157761311D01*
X147298309Y-157509243D01*
X147427475Y-157241027D01*
X147525798Y-156960035D01*
X147592042Y-156669801D01*
X147609308Y-156516564D01*
X147625373Y-156373991D01*
X147625374Y-156373974D01*
X147625374Y-156076277D01*
X147625373Y-156076260D01*
X147599736Y-155848733D01*
X147592042Y-155780451D01*
X147525798Y-155490217D01*
X147490169Y-155388396D01*
X147427475Y-155209226D01*
X147427474Y-155209223D01*
X147298316Y-154941023D01*
X147298314Y-154941020D01*
X147298309Y-154941009D01*
X147139924Y-154688941D01*
X146954312Y-154456192D01*
X146743808Y-154245688D01*
X146511059Y-154060076D01*
X146258991Y-153901691D01*
X146258983Y-153901687D01*
X146258976Y-153901683D01*
X145990776Y-153772525D01*
X145990773Y-153772524D01*
X145758182Y-153691137D01*
X145709786Y-153674202D01*
X145419551Y-153607958D01*
X145419545Y-153607957D01*
X145362942Y-153601579D01*
X152709500Y-153601579D01*
X152709500Y-153798420D01*
X152740289Y-153992821D01*
X152801116Y-154180025D01*
X152890473Y-154355401D01*
X152890476Y-154355405D01*
X153006172Y-154514646D01*
X153145354Y-154653828D01*
X153288383Y-154757745D01*
X153304598Y-154769526D01*
X153304600Y-154769527D01*
X153368902Y-154802290D01*
X153412167Y-154845554D01*
X153421739Y-154905986D01*
X153393962Y-154960503D01*
X153339446Y-154988281D01*
X153323958Y-154989500D01*
X153078478Y-154989500D01*
X153078476Y-154989501D01*
X152984700Y-155004352D01*
X152984695Y-155004354D01*
X152871659Y-155061949D01*
X152781949Y-155151659D01*
X152724354Y-155264695D01*
X152709500Y-155358478D01*
X152709500Y-157121521D01*
X152709501Y-157121523D01*
X152724352Y-157215299D01*
X152724354Y-157215304D01*
X152781950Y-157328342D01*
X152871658Y-157418050D01*
X152984696Y-157475646D01*
X153078481Y-157490500D01*
X154841518Y-157490499D01*
X154841521Y-157490499D01*
X154841522Y-157490498D01*
X154888411Y-157483072D01*
X154935299Y-157475647D01*
X154935299Y-157475646D01*
X154935304Y-157475646D01*
X155048342Y-157418050D01*
X155138050Y-157328342D01*
X155195646Y-157215304D01*
X155210500Y-157121519D01*
X155210499Y-157080211D01*
X155229405Y-157022024D01*
X155278904Y-156986059D01*
X155340090Y-156986058D01*
X155389590Y-157022020D01*
X155389591Y-157022022D01*
X155464171Y-157124671D01*
X155615328Y-157275828D01*
X155788247Y-157401462D01*
X155788253Y-157401466D01*
X155978710Y-157498508D01*
X156182002Y-157564561D01*
X156245999Y-157574697D01*
X156246000Y-157574696D01*
X156246000Y-156670702D01*
X156307007Y-156705925D01*
X156434174Y-156740000D01*
X156565826Y-156740000D01*
X156692993Y-156705925D01*
X156754000Y-156670702D01*
X156754000Y-157574697D01*
X156817997Y-157564561D01*
X157021289Y-157498508D01*
X157211746Y-157401466D01*
X157211752Y-157401462D01*
X157384671Y-157275828D01*
X157535828Y-157124671D01*
X157661462Y-156951752D01*
X157661466Y-156951746D01*
X157742114Y-156793464D01*
X157785378Y-156750200D01*
X157845810Y-156740628D01*
X157900327Y-156768405D01*
X157918533Y-156793464D01*
X157970469Y-156895394D01*
X157970473Y-156895401D01*
X157970474Y-156895402D01*
X157970476Y-156895405D01*
X158086172Y-157054646D01*
X158225354Y-157193828D01*
X158384595Y-157309524D01*
X158559975Y-157398884D01*
X158747174Y-157459709D01*
X158747175Y-157459709D01*
X158747178Y-157459710D01*
X158941580Y-157490500D01*
X158941583Y-157490500D01*
X159138420Y-157490500D01*
X159332821Y-157459710D01*
X159332822Y-157459709D01*
X159332826Y-157459709D01*
X159520025Y-157398884D01*
X159695405Y-157309524D01*
X159854646Y-157193828D01*
X159993828Y-157054646D01*
X160109524Y-156895405D01*
X160198884Y-156720025D01*
X160259709Y-156532826D01*
X160266716Y-156488585D01*
X160290500Y-156338420D01*
X160290500Y-156141579D01*
X160259710Y-155947178D01*
X160227723Y-155848732D01*
X160198884Y-155759975D01*
X160109524Y-155584595D01*
X159993828Y-155425354D01*
X159956865Y-155388391D01*
X190074500Y-155388391D01*
X190074500Y-155511608D01*
X190098536Y-155632450D01*
X190145688Y-155746285D01*
X190145689Y-155746286D01*
X190214142Y-155848733D01*
X190301267Y-155935858D01*
X190403714Y-156004311D01*
X190517548Y-156051463D01*
X190638394Y-156075500D01*
X190638396Y-156075500D01*
X190761604Y-156075500D01*
X190761606Y-156075500D01*
X190882452Y-156051463D01*
X190996286Y-156004311D01*
X191098733Y-155935858D01*
X191185858Y-155848733D01*
X191254311Y-155746286D01*
X191301463Y-155632452D01*
X191310735Y-155585839D01*
X211049500Y-155585839D01*
X211049500Y-155814160D01*
X211085214Y-156039655D01*
X211155769Y-156256799D01*
X211259420Y-156460227D01*
X211259424Y-156460233D01*
X211393616Y-156644931D01*
X211393618Y-156644933D01*
X211393621Y-156644937D01*
X211555063Y-156806379D01*
X211555066Y-156806381D01*
X211555068Y-156806383D01*
X211739766Y-156940575D01*
X211739772Y-156940579D01*
X211943201Y-157044231D01*
X212160340Y-157114784D01*
X212160341Y-157114784D01*
X212160344Y-157114785D01*
X212385840Y-157150500D01*
X212385843Y-157150500D01*
X212614160Y-157150500D01*
X212839655Y-157114785D01*
X212839656Y-157114784D01*
X212839660Y-157114784D01*
X213056799Y-157044231D01*
X213260228Y-156940579D01*
X213444937Y-156806379D01*
X213606379Y-156644937D01*
X213606480Y-156644796D01*
X213606529Y-156644761D01*
X213608906Y-156641979D01*
X213609573Y-156642548D01*
X213655970Y-156608823D01*
X213694354Y-156604275D01*
X213733435Y-156607351D01*
X214475016Y-155865769D01*
X214487482Y-155912292D01*
X214559890Y-156037708D01*
X214662292Y-156140110D01*
X214787708Y-156212518D01*
X214834226Y-156224982D01*
X214092647Y-156966562D01*
X214092647Y-156966563D01*
X214183424Y-157032517D01*
X214183430Y-157032521D01*
X214401938Y-157143857D01*
X214635169Y-157219637D01*
X214877380Y-157258000D01*
X215122620Y-157258000D01*
X215364830Y-157219637D01*
X215598061Y-157143857D01*
X215816569Y-157032521D01*
X215816574Y-157032517D01*
X215907351Y-156966563D01*
X215907351Y-156966562D01*
X215165772Y-156224983D01*
X215212292Y-156212518D01*
X215337708Y-156140110D01*
X215440110Y-156037708D01*
X215512518Y-155912292D01*
X215524983Y-155865772D01*
X216266562Y-156607351D01*
X216266563Y-156607351D01*
X216316666Y-156538391D01*
X235924500Y-156538391D01*
X235924500Y-156661608D01*
X235948536Y-156782450D01*
X235995688Y-156896285D01*
X236018402Y-156930279D01*
X236064142Y-156998733D01*
X236151267Y-157085858D01*
X236253714Y-157154311D01*
X236367548Y-157201463D01*
X236488394Y-157225500D01*
X236488396Y-157225500D01*
X236611604Y-157225500D01*
X236611606Y-157225500D01*
X236732452Y-157201463D01*
X236846286Y-157154311D01*
X236948733Y-157085858D01*
X237035858Y-156998733D01*
X237104311Y-156896286D01*
X237151463Y-156782452D01*
X237175500Y-156661606D01*
X237175500Y-156538394D01*
X237151463Y-156417548D01*
X237104311Y-156303714D01*
X237035858Y-156201267D01*
X236948733Y-156114142D01*
X236880279Y-156068402D01*
X236846285Y-156045688D01*
X236732450Y-155998536D01*
X236611608Y-155974500D01*
X236611606Y-155974500D01*
X236488394Y-155974500D01*
X236488391Y-155974500D01*
X236367549Y-155998536D01*
X236253714Y-156045688D01*
X236151267Y-156114142D01*
X236151263Y-156114145D01*
X236064145Y-156201263D01*
X236064142Y-156201267D01*
X235995688Y-156303714D01*
X235948536Y-156417549D01*
X235924500Y-156538391D01*
X216316666Y-156538391D01*
X216332517Y-156516574D01*
X216332524Y-156516564D01*
X216346781Y-156488585D01*
X216443857Y-156298061D01*
X216519637Y-156064830D01*
X216558000Y-155822620D01*
X216558000Y-155577379D01*
X216519637Y-155335169D01*
X216443857Y-155101938D01*
X216332521Y-154883430D01*
X216332517Y-154883424D01*
X216266563Y-154792647D01*
X216266562Y-154792647D01*
X215524982Y-155534226D01*
X215512518Y-155487708D01*
X215440110Y-155362292D01*
X215337708Y-155259890D01*
X215212292Y-155187482D01*
X215165769Y-155175016D01*
X215907351Y-154433436D01*
X215816567Y-154367477D01*
X215598061Y-154256142D01*
X215364830Y-154180362D01*
X215122620Y-154142000D01*
X214877380Y-154142000D01*
X214635169Y-154180362D01*
X214401938Y-154256142D01*
X214183430Y-154367478D01*
X214183426Y-154367480D01*
X214092647Y-154433435D01*
X214834228Y-155175016D01*
X214787708Y-155187482D01*
X214662292Y-155259890D01*
X214559890Y-155362292D01*
X214487482Y-155487708D01*
X214475016Y-155534228D01*
X213733435Y-154792647D01*
X213694352Y-154795723D01*
X213634857Y-154781439D01*
X213609228Y-154757745D01*
X213608906Y-154758021D01*
X213606579Y-154755297D01*
X213606486Y-154755211D01*
X213606379Y-154755063D01*
X213444937Y-154593621D01*
X213444933Y-154593618D01*
X213444931Y-154593616D01*
X213386634Y-154551260D01*
X213386633Y-154551260D01*
X213386632Y-154551259D01*
X213260233Y-154459424D01*
X213260227Y-154459420D01*
X213056799Y-154355769D01*
X212839655Y-154285214D01*
X212614160Y-154249500D01*
X212614157Y-154249500D01*
X212385843Y-154249500D01*
X212385840Y-154249500D01*
X212160344Y-154285214D01*
X211943200Y-154355769D01*
X211739772Y-154459420D01*
X211739766Y-154459424D01*
X211555068Y-154593616D01*
X211393616Y-154755068D01*
X211259424Y-154939766D01*
X211259420Y-154939772D01*
X211155769Y-155143200D01*
X211085214Y-155360344D01*
X211049500Y-155585839D01*
X191310735Y-155585839D01*
X191325500Y-155511606D01*
X191325500Y-155388394D01*
X191301463Y-155267548D01*
X191254311Y-155153714D01*
X191185858Y-155051267D01*
X191098733Y-154964142D01*
X191011697Y-154905986D01*
X190996285Y-154895688D01*
X190882450Y-154848536D01*
X190761608Y-154824500D01*
X190761606Y-154824500D01*
X190638394Y-154824500D01*
X190638391Y-154824500D01*
X190517549Y-154848536D01*
X190403714Y-154895688D01*
X190301267Y-154964142D01*
X190301263Y-154964145D01*
X190214145Y-155051263D01*
X190214142Y-155051267D01*
X190145688Y-155153714D01*
X190098536Y-155267549D01*
X190074500Y-155388391D01*
X159956865Y-155388391D01*
X159854646Y-155286172D01*
X159695405Y-155170476D01*
X159695404Y-155170475D01*
X159695402Y-155170474D01*
X159520025Y-155081116D01*
X159512066Y-155078530D01*
X159467823Y-155064154D01*
X159418324Y-155028191D01*
X159399417Y-154970000D01*
X159418324Y-154911809D01*
X159467823Y-154875845D01*
X159520025Y-154858884D01*
X159695405Y-154769524D01*
X159854646Y-154653828D01*
X159993828Y-154514646D01*
X160109524Y-154355405D01*
X160198884Y-154180025D01*
X160259709Y-153992826D01*
X160263975Y-153965893D01*
X160290500Y-153798420D01*
X160290500Y-153601579D01*
X160259710Y-153407178D01*
X160257435Y-153400175D01*
X160198884Y-153219975D01*
X160109524Y-153044595D01*
X159993828Y-152885354D01*
X159854646Y-152746172D01*
X159695405Y-152630476D01*
X159695404Y-152630475D01*
X159695402Y-152630474D01*
X159520025Y-152541116D01*
X159332821Y-152480289D01*
X159138420Y-152449500D01*
X159138417Y-152449500D01*
X158941583Y-152449500D01*
X158941580Y-152449500D01*
X158747178Y-152480289D01*
X158559974Y-152541116D01*
X158384597Y-152630474D01*
X158225355Y-152746171D01*
X158086171Y-152885355D01*
X157970473Y-153044598D01*
X157970472Y-153044600D01*
X157918533Y-153146536D01*
X157875268Y-153189800D01*
X157814836Y-153199371D01*
X157760320Y-153171593D01*
X157742114Y-153146535D01*
X157661466Y-152988253D01*
X157661462Y-152988247D01*
X157535828Y-152815328D01*
X157384671Y-152664171D01*
X157211752Y-152538537D01*
X157211746Y-152538533D01*
X157021289Y-152441491D01*
X156817996Y-152375438D01*
X156754000Y-152365301D01*
X156754000Y-153269297D01*
X156692993Y-153234075D01*
X156565826Y-153200000D01*
X156434174Y-153200000D01*
X156307007Y-153234075D01*
X156246000Y-153269297D01*
X156246000Y-152365302D01*
X156245999Y-152365301D01*
X156182003Y-152375438D01*
X155978710Y-152441491D01*
X155788253Y-152538533D01*
X155788247Y-152538537D01*
X155615328Y-152664171D01*
X155464171Y-152815328D01*
X155338537Y-152988247D01*
X155338533Y-152988253D01*
X155257885Y-153146535D01*
X155214620Y-153189800D01*
X155154188Y-153199371D01*
X155099671Y-153171593D01*
X155081465Y-153146535D01*
X155029525Y-153044597D01*
X155023173Y-153035854D01*
X154913828Y-152885354D01*
X154774646Y-152746172D01*
X154615405Y-152630476D01*
X154615404Y-152630475D01*
X154615402Y-152630474D01*
X154440025Y-152541116D01*
X154252821Y-152480289D01*
X154058420Y-152449500D01*
X154058417Y-152449500D01*
X153861583Y-152449500D01*
X153861580Y-152449500D01*
X153667178Y-152480289D01*
X153479974Y-152541116D01*
X153304597Y-152630474D01*
X153145355Y-152746171D01*
X153006171Y-152885355D01*
X152890474Y-153044597D01*
X152801116Y-153219974D01*
X152740289Y-153407178D01*
X152709500Y-153601579D01*
X145362942Y-153601579D01*
X145123739Y-153574626D01*
X145123723Y-153574626D01*
X144826025Y-153574626D01*
X144826008Y-153574626D01*
X144530202Y-153607957D01*
X144530196Y-153607958D01*
X144239961Y-153674202D01*
X143958974Y-153772524D01*
X143958971Y-153772525D01*
X143729889Y-153882845D01*
X143669258Y-153891058D01*
X143615378Y-153862064D01*
X143588831Y-153806938D01*
X143587936Y-153794000D01*
X143587254Y-153601579D01*
X143582284Y-152198179D01*
X143580060Y-151570099D01*
X163209500Y-151570099D01*
X163209500Y-151829900D01*
X163250138Y-152086488D01*
X163325091Y-152317167D01*
X163330421Y-152333572D01*
X163363256Y-152398014D01*
X163446509Y-152561408D01*
X163448366Y-152565051D01*
X163601069Y-152775229D01*
X163784771Y-152958931D01*
X163994949Y-153111634D01*
X164226428Y-153229579D01*
X164473507Y-153309860D01*
X164473508Y-153309860D01*
X164473511Y-153309861D01*
X164730100Y-153350500D01*
X164730103Y-153350500D01*
X164989900Y-153350500D01*
X165246488Y-153309861D01*
X165246489Y-153309860D01*
X165246493Y-153309860D01*
X165493572Y-153229579D01*
X165725051Y-153111634D01*
X165863141Y-153011306D01*
X166529500Y-153011306D01*
X166529500Y-153188693D01*
X166535723Y-153219975D01*
X166562312Y-153353649D01*
X166564106Y-153362665D01*
X166564106Y-153362667D01*
X166631985Y-153526544D01*
X166631985Y-153526545D01*
X166730535Y-153674034D01*
X166730536Y-153674035D01*
X166855965Y-153799464D01*
X167003453Y-153898013D01*
X167003454Y-153898013D01*
X167003455Y-153898014D01*
X167040581Y-153913391D01*
X167167334Y-153965894D01*
X167341309Y-154000500D01*
X167341310Y-154000500D01*
X167518690Y-154000500D01*
X167518691Y-154000500D01*
X167692666Y-153965894D01*
X167856547Y-153898013D01*
X168004035Y-153799464D01*
X168129464Y-153674035D01*
X168228013Y-153526547D01*
X168295894Y-153362666D01*
X168330500Y-153188691D01*
X168330500Y-153011309D01*
X168330499Y-153011306D01*
X168529500Y-153011306D01*
X168529500Y-153188693D01*
X168535723Y-153219975D01*
X168562312Y-153353649D01*
X168564106Y-153362665D01*
X168564106Y-153362667D01*
X168631985Y-153526544D01*
X168631985Y-153526545D01*
X168730535Y-153674034D01*
X168730536Y-153674035D01*
X168855965Y-153799464D01*
X169003453Y-153898013D01*
X169003454Y-153898013D01*
X169003455Y-153898014D01*
X169040581Y-153913391D01*
X169167334Y-153965894D01*
X169341309Y-154000500D01*
X169341310Y-154000500D01*
X169518690Y-154000500D01*
X169518691Y-154000500D01*
X169668977Y-153970606D01*
X170918603Y-153970606D01*
X170952535Y-153993279D01*
X171135976Y-154069262D01*
X171330718Y-154107999D01*
X171330722Y-154108000D01*
X171529278Y-154108000D01*
X171529281Y-154107999D01*
X171724022Y-154069262D01*
X171724024Y-154069262D01*
X171907465Y-153993279D01*
X171907467Y-153993278D01*
X171941395Y-153970606D01*
X171429999Y-153459210D01*
X170918603Y-153970606D01*
X169668977Y-153970606D01*
X169692666Y-153965894D01*
X169856547Y-153898013D01*
X170004035Y-153799464D01*
X170129464Y-153674035D01*
X170228013Y-153526547D01*
X170280357Y-153400174D01*
X170320093Y-153353649D01*
X170379588Y-153339365D01*
X170436116Y-153362779D01*
X170463285Y-153400174D01*
X170536721Y-153577466D01*
X170559392Y-153611395D01*
X171080000Y-153090788D01*
X171080000Y-153146078D01*
X171103852Y-153235095D01*
X171149930Y-153314905D01*
X171215095Y-153380070D01*
X171294905Y-153426148D01*
X171383922Y-153450000D01*
X171476078Y-153450000D01*
X171565095Y-153426148D01*
X171644905Y-153380070D01*
X171710070Y-153314905D01*
X171756148Y-153235095D01*
X171780000Y-153146078D01*
X171780000Y-153090789D01*
X172300606Y-153611395D01*
X172323278Y-153577467D01*
X172323279Y-153577465D01*
X172396714Y-153400175D01*
X172436450Y-153353649D01*
X172495945Y-153339365D01*
X172552473Y-153362779D01*
X172579642Y-153400175D01*
X172631985Y-153526544D01*
X172631985Y-153526545D01*
X172730535Y-153674034D01*
X172730536Y-153674035D01*
X172855965Y-153799464D01*
X173003453Y-153898013D01*
X173003454Y-153898013D01*
X173003455Y-153898014D01*
X173040581Y-153913391D01*
X173167334Y-153965894D01*
X173341309Y-154000500D01*
X173341310Y-154000500D01*
X173518690Y-154000500D01*
X173518691Y-154000500D01*
X173692666Y-153965894D01*
X173856547Y-153898013D01*
X174004035Y-153799464D01*
X174129464Y-153674035D01*
X174228013Y-153526547D01*
X174295894Y-153362666D01*
X174330500Y-153188691D01*
X174330500Y-153011309D01*
X174295894Y-152837334D01*
X174228014Y-152673455D01*
X174228014Y-152673454D01*
X174129464Y-152525965D01*
X174004034Y-152400535D01*
X173856544Y-152301985D01*
X173692666Y-152234106D01*
X173518693Y-152199500D01*
X173518691Y-152199500D01*
X173341309Y-152199500D01*
X173341301Y-152199500D01*
X173311782Y-152205372D01*
X173251021Y-152198179D01*
X173206092Y-152156646D01*
X173194156Y-152096636D01*
X173210156Y-152053271D01*
X173215446Y-152045354D01*
X173228013Y-152026547D01*
X173295894Y-151862666D01*
X173330500Y-151688691D01*
X173330500Y-151511309D01*
X173330499Y-151511306D01*
X174029500Y-151511306D01*
X174029500Y-151688693D01*
X174064106Y-151862665D01*
X174064106Y-151862667D01*
X174131985Y-152026544D01*
X174131985Y-152026545D01*
X174216213Y-152152600D01*
X174230536Y-152174035D01*
X174355965Y-152299464D01*
X174503453Y-152398013D01*
X174503454Y-152398013D01*
X174503455Y-152398014D01*
X174636823Y-152453256D01*
X174683349Y-152492992D01*
X174697633Y-152552487D01*
X174681253Y-152599722D01*
X174631985Y-152673454D01*
X174631985Y-152673455D01*
X174564106Y-152837332D01*
X174564106Y-152837334D01*
X174529500Y-153011306D01*
X174529500Y-153188693D01*
X174535723Y-153219975D01*
X174562312Y-153353649D01*
X174564106Y-153362665D01*
X174564106Y-153362667D01*
X174631985Y-153526544D01*
X174631985Y-153526545D01*
X174730535Y-153674034D01*
X174730536Y-153674035D01*
X174855965Y-153799464D01*
X175003453Y-153898013D01*
X175003454Y-153898013D01*
X175003455Y-153898014D01*
X175040581Y-153913391D01*
X175167334Y-153965894D01*
X175341309Y-154000500D01*
X175341310Y-154000500D01*
X175518690Y-154000500D01*
X175518691Y-154000500D01*
X175692666Y-153965894D01*
X175856547Y-153898013D01*
X176004035Y-153799464D01*
X176129464Y-153674035D01*
X176228013Y-153526547D01*
X176295894Y-153362666D01*
X176330500Y-153188691D01*
X176330500Y-153011309D01*
X176295894Y-152837334D01*
X176228014Y-152673455D01*
X176228014Y-152673454D01*
X176129464Y-152525965D01*
X176004034Y-152400535D01*
X175856546Y-152301986D01*
X175723176Y-152246743D01*
X175676651Y-152207006D01*
X175662367Y-152147512D01*
X175678746Y-152100279D01*
X175728013Y-152026547D01*
X175795894Y-151862666D01*
X175830500Y-151688691D01*
X175830500Y-151570099D01*
X176349500Y-151570099D01*
X176349500Y-151829900D01*
X176390138Y-152086488D01*
X176465091Y-152317167D01*
X176470421Y-152333572D01*
X176503256Y-152398014D01*
X176586509Y-152561408D01*
X176588366Y-152565051D01*
X176741069Y-152775229D01*
X176924771Y-152958931D01*
X177134949Y-153111634D01*
X177366428Y-153229579D01*
X177613507Y-153309860D01*
X177613508Y-153309860D01*
X177613511Y-153309861D01*
X177870100Y-153350500D01*
X177870103Y-153350500D01*
X178129900Y-153350500D01*
X178386488Y-153309861D01*
X178386489Y-153309860D01*
X178386493Y-153309860D01*
X178633572Y-153229579D01*
X178865051Y-153111634D01*
X179075229Y-152958931D01*
X179258931Y-152775229D01*
X179411634Y-152565051D01*
X179450694Y-152488391D01*
X184074500Y-152488391D01*
X184074500Y-152611608D01*
X184098536Y-152732450D01*
X184145688Y-152846285D01*
X184145689Y-152846286D01*
X184214142Y-152948733D01*
X184301267Y-153035858D01*
X184403714Y-153104311D01*
X184517548Y-153151463D01*
X184638394Y-153175500D01*
X184638396Y-153175500D01*
X184761604Y-153175500D01*
X184761606Y-153175500D01*
X184882452Y-153151463D01*
X184996286Y-153104311D01*
X185098733Y-153035858D01*
X185185858Y-152948733D01*
X185254311Y-152846286D01*
X185301463Y-152732452D01*
X185325500Y-152611606D01*
X185325500Y-152488394D01*
X185301463Y-152367548D01*
X185254311Y-152253714D01*
X185185858Y-152151267D01*
X185098733Y-152064142D01*
X184996286Y-151995689D01*
X184996287Y-151995689D01*
X184996285Y-151995688D01*
X184882450Y-151948536D01*
X184761608Y-151924500D01*
X184761606Y-151924500D01*
X184638394Y-151924500D01*
X184638391Y-151924500D01*
X184517549Y-151948536D01*
X184403714Y-151995688D01*
X184301267Y-152064142D01*
X184301263Y-152064145D01*
X184214145Y-152151263D01*
X184214142Y-152151267D01*
X184145688Y-152253714D01*
X184098536Y-152367549D01*
X184074500Y-152488391D01*
X179450694Y-152488391D01*
X179529579Y-152333572D01*
X179609860Y-152086493D01*
X179611290Y-152077464D01*
X179650500Y-151829900D01*
X179650500Y-151570099D01*
X179609861Y-151313511D01*
X179607413Y-151305975D01*
X179529579Y-151066428D01*
X179411634Y-150834949D01*
X179258931Y-150624771D01*
X179075229Y-150441069D01*
X178865051Y-150288366D01*
X178865050Y-150288365D01*
X178865048Y-150288364D01*
X178757964Y-150233802D01*
X178633572Y-150170421D01*
X178633569Y-150170420D01*
X178633567Y-150170419D01*
X178386488Y-150090138D01*
X178129900Y-150049500D01*
X178129897Y-150049500D01*
X177870103Y-150049500D01*
X177870100Y-150049500D01*
X177613511Y-150090138D01*
X177366432Y-150170419D01*
X177134951Y-150288364D01*
X176924772Y-150441068D01*
X176741068Y-150624772D01*
X176588364Y-150834951D01*
X176470419Y-151066432D01*
X176390138Y-151313511D01*
X176349500Y-151570099D01*
X175830500Y-151570099D01*
X175830500Y-151511309D01*
X175795894Y-151337334D01*
X175728014Y-151173455D01*
X175728014Y-151173454D01*
X175629464Y-151025965D01*
X175504034Y-150900535D01*
X175356544Y-150801985D01*
X175192666Y-150734106D01*
X175018693Y-150699500D01*
X175018691Y-150699500D01*
X174841309Y-150699500D01*
X174841306Y-150699500D01*
X174667334Y-150734106D01*
X174667332Y-150734106D01*
X174503455Y-150801985D01*
X174503454Y-150801985D01*
X174355965Y-150900535D01*
X174230535Y-151025965D01*
X174131985Y-151173454D01*
X174131985Y-151173455D01*
X174064106Y-151337332D01*
X174064106Y-151337334D01*
X174029500Y-151511306D01*
X173330499Y-151511306D01*
X173295894Y-151337334D01*
X173228014Y-151173455D01*
X173228014Y-151173454D01*
X173129464Y-151025965D01*
X173004034Y-150900535D01*
X172856544Y-150801985D01*
X172692666Y-150734106D01*
X172518693Y-150699500D01*
X172518691Y-150699500D01*
X172341309Y-150699500D01*
X172341306Y-150699500D01*
X172167334Y-150734106D01*
X172167332Y-150734106D01*
X172003455Y-150801985D01*
X172003454Y-150801985D01*
X171855965Y-150900535D01*
X171730535Y-151025965D01*
X171631985Y-151173454D01*
X171631985Y-151173455D01*
X171564106Y-151337332D01*
X171564106Y-151337334D01*
X171529500Y-151511306D01*
X171529500Y-151688693D01*
X171564106Y-151862665D01*
X171564106Y-151862667D01*
X171602399Y-151955115D01*
X171602715Y-151959139D01*
X171605090Y-151962407D01*
X171605090Y-151989311D01*
X171607199Y-152016112D01*
X171605090Y-152019553D01*
X171605090Y-152023593D01*
X171589279Y-152045354D01*
X171575230Y-152068281D01*
X171571499Y-152069826D01*
X171569126Y-152073093D01*
X171543549Y-152081403D01*
X171518702Y-152091695D01*
X171510935Y-152092000D01*
X171349065Y-152092000D01*
X171290874Y-152073093D01*
X171254910Y-152023593D01*
X171254910Y-151962407D01*
X171257601Y-151955115D01*
X171288685Y-151880070D01*
X171295894Y-151862666D01*
X171330500Y-151688691D01*
X171330500Y-151511309D01*
X171295894Y-151337334D01*
X171228014Y-151173455D01*
X171228014Y-151173454D01*
X171129464Y-151025965D01*
X171004034Y-150900535D01*
X170856544Y-150801985D01*
X170692666Y-150734106D01*
X170518693Y-150699500D01*
X170518691Y-150699500D01*
X170341309Y-150699500D01*
X170341306Y-150699500D01*
X170167334Y-150734106D01*
X170167332Y-150734106D01*
X170003455Y-150801985D01*
X170003454Y-150801985D01*
X169855965Y-150900535D01*
X169730535Y-151025965D01*
X169631985Y-151173454D01*
X169631985Y-151173455D01*
X169564106Y-151337332D01*
X169564106Y-151337334D01*
X169529500Y-151511306D01*
X169529500Y-151688693D01*
X169564106Y-151862665D01*
X169564106Y-151862667D01*
X169629090Y-152019553D01*
X169631987Y-152026547D01*
X169644554Y-152045354D01*
X169649845Y-152053273D01*
X169666453Y-152112161D01*
X169645275Y-152169565D01*
X169594401Y-152203557D01*
X169548216Y-152205372D01*
X169518696Y-152199500D01*
X169518691Y-152199500D01*
X169341309Y-152199500D01*
X169341306Y-152199500D01*
X169167334Y-152234106D01*
X169167332Y-152234106D01*
X169003455Y-152301985D01*
X169003454Y-152301985D01*
X168855965Y-152400535D01*
X168730535Y-152525965D01*
X168631985Y-152673454D01*
X168631985Y-152673455D01*
X168564106Y-152837332D01*
X168564106Y-152837334D01*
X168529500Y-153011306D01*
X168330499Y-153011306D01*
X168295894Y-152837334D01*
X168228477Y-152674573D01*
X168223676Y-152613576D01*
X168255646Y-152561408D01*
X168282056Y-152545223D01*
X168407470Y-152493276D01*
X168441395Y-152470606D01*
X167920790Y-151950000D01*
X167976078Y-151950000D01*
X168065095Y-151926148D01*
X168144905Y-151880070D01*
X168210070Y-151814905D01*
X168256148Y-151735095D01*
X168280000Y-151646078D01*
X168280000Y-151599999D01*
X168289210Y-151599999D01*
X168800606Y-152111395D01*
X168823278Y-152077467D01*
X168823279Y-152077465D01*
X168899262Y-151894024D01*
X168899262Y-151894022D01*
X168937999Y-151699281D01*
X168938000Y-151699277D01*
X168938000Y-151500722D01*
X168937999Y-151500718D01*
X168899262Y-151305977D01*
X168899262Y-151305975D01*
X168823279Y-151122535D01*
X168800606Y-151088603D01*
X168289210Y-151599999D01*
X168280000Y-151599999D01*
X168280000Y-151553922D01*
X168256148Y-151464905D01*
X168210070Y-151385095D01*
X168144905Y-151319930D01*
X168065095Y-151273852D01*
X167976078Y-151250000D01*
X167883922Y-151250000D01*
X167794905Y-151273852D01*
X167715095Y-151319930D01*
X167649930Y-151385095D01*
X167603852Y-151464905D01*
X167580000Y-151553922D01*
X167580000Y-151609210D01*
X167059392Y-151088603D01*
X167036720Y-151122535D01*
X166960737Y-151305975D01*
X166960737Y-151305977D01*
X166922000Y-151500718D01*
X166922000Y-151699281D01*
X166960737Y-151894022D01*
X166960737Y-151894024D01*
X167036720Y-152077464D01*
X167079990Y-152142222D01*
X167096598Y-152201110D01*
X167075420Y-152258513D01*
X167035561Y-152288686D01*
X167003458Y-152301984D01*
X167003454Y-152301985D01*
X166855965Y-152400535D01*
X166730535Y-152525965D01*
X166631985Y-152673454D01*
X166631985Y-152673455D01*
X166564106Y-152837332D01*
X166564106Y-152837334D01*
X166529500Y-153011306D01*
X165863141Y-153011306D01*
X165935229Y-152958931D01*
X166118931Y-152775229D01*
X166271634Y-152565051D01*
X166389579Y-152333572D01*
X166469860Y-152086493D01*
X166471290Y-152077464D01*
X166510500Y-151829900D01*
X166510500Y-151570099D01*
X166469861Y-151313511D01*
X166467413Y-151305975D01*
X166389579Y-151066428D01*
X166305052Y-150900535D01*
X166271635Y-150834950D01*
X166264026Y-150824478D01*
X166194942Y-150729392D01*
X167418603Y-150729392D01*
X167929999Y-151240788D01*
X168441395Y-150729392D01*
X168407464Y-150706720D01*
X168224023Y-150630737D01*
X168029281Y-150592000D01*
X167830718Y-150592000D01*
X167635977Y-150630737D01*
X167635975Y-150630737D01*
X167452535Y-150706720D01*
X167418603Y-150729392D01*
X166194942Y-150729392D01*
X166118931Y-150624771D01*
X165935229Y-150441069D01*
X165725051Y-150288366D01*
X165725050Y-150288365D01*
X165725048Y-150288364D01*
X165617964Y-150233802D01*
X165493572Y-150170421D01*
X165493569Y-150170420D01*
X165493567Y-150170419D01*
X165246488Y-150090138D01*
X164989900Y-150049500D01*
X164989897Y-150049500D01*
X164730103Y-150049500D01*
X164730100Y-150049500D01*
X164473511Y-150090138D01*
X164226432Y-150170419D01*
X163994951Y-150288364D01*
X163784772Y-150441068D01*
X163601068Y-150624772D01*
X163448364Y-150834951D01*
X163330419Y-151066432D01*
X163250138Y-151313511D01*
X163209500Y-151570099D01*
X143580060Y-151570099D01*
X143580047Y-151566564D01*
X143572909Y-149551134D01*
X203849500Y-149551134D01*
X203849500Y-149848865D01*
X203882831Y-150144671D01*
X203882832Y-150144677D01*
X203949076Y-150434912D01*
X204047398Y-150715899D01*
X204047399Y-150715902D01*
X204176557Y-150984102D01*
X204176561Y-150984109D01*
X204176565Y-150984117D01*
X204334950Y-151236185D01*
X204520562Y-151468934D01*
X204731066Y-151679438D01*
X204963815Y-151865050D01*
X205215883Y-152023435D01*
X205215894Y-152023440D01*
X205215897Y-152023442D01*
X205367886Y-152096636D01*
X205484099Y-152152601D01*
X205614354Y-152198179D01*
X205765087Y-152250923D01*
X205765090Y-152250923D01*
X205765091Y-152250924D01*
X206055325Y-152317168D01*
X206135096Y-152326156D01*
X206351134Y-152350499D01*
X206351150Y-152350499D01*
X206351151Y-152350500D01*
X206351152Y-152350500D01*
X206648848Y-152350500D01*
X206648849Y-152350500D01*
X206648850Y-152350499D01*
X206648865Y-152350499D01*
X206838312Y-152329152D01*
X206944675Y-152317168D01*
X207234909Y-152250924D01*
X207515901Y-152152601D01*
X207784117Y-152023435D01*
X208036185Y-151865050D01*
X208268934Y-151679438D01*
X208479438Y-151468934D01*
X208665050Y-151236185D01*
X208823435Y-150984117D01*
X208952601Y-150715901D01*
X209050924Y-150434909D01*
X209117168Y-150144675D01*
X209129119Y-150038603D01*
X209140411Y-149938391D01*
X215074500Y-149938391D01*
X215074500Y-150061608D01*
X215098536Y-150182450D01*
X215145688Y-150296285D01*
X215145689Y-150296286D01*
X215214142Y-150398733D01*
X215301267Y-150485858D01*
X215403714Y-150554311D01*
X215517548Y-150601463D01*
X215638394Y-150625500D01*
X215638396Y-150625500D01*
X215761604Y-150625500D01*
X215761606Y-150625500D01*
X215882452Y-150601463D01*
X215996286Y-150554311D01*
X216098733Y-150485858D01*
X216185858Y-150398733D01*
X216254311Y-150296286D01*
X216301463Y-150182452D01*
X216325500Y-150061606D01*
X216325500Y-149938394D01*
X216301463Y-149817548D01*
X216254311Y-149703714D01*
X216185858Y-149601267D01*
X216098733Y-149514142D01*
X215996286Y-149445689D01*
X215996287Y-149445689D01*
X215996285Y-149445688D01*
X215882450Y-149398536D01*
X215761608Y-149374500D01*
X215761606Y-149374500D01*
X215638394Y-149374500D01*
X215638391Y-149374500D01*
X215517549Y-149398536D01*
X215403714Y-149445688D01*
X215301267Y-149514142D01*
X215301263Y-149514145D01*
X215214145Y-149601263D01*
X215214142Y-149601267D01*
X215145688Y-149703714D01*
X215098536Y-149817549D01*
X215074500Y-149938391D01*
X209140411Y-149938391D01*
X209142208Y-149922446D01*
X209150499Y-149848865D01*
X209150500Y-149848848D01*
X209150500Y-149551151D01*
X209150499Y-149551134D01*
X209117168Y-149255328D01*
X209117167Y-149255322D01*
X209050923Y-148965087D01*
X208952601Y-148684100D01*
X208952601Y-148684099D01*
X208823435Y-148415883D01*
X208806161Y-148388391D01*
X222424500Y-148388391D01*
X222424500Y-148511608D01*
X222448536Y-148632450D01*
X222495688Y-148746285D01*
X222495689Y-148746286D01*
X222564142Y-148848733D01*
X222651267Y-148935858D01*
X222753714Y-149004311D01*
X222867548Y-149051463D01*
X222988394Y-149075500D01*
X222988396Y-149075500D01*
X223111604Y-149075500D01*
X223111606Y-149075500D01*
X223232452Y-149051463D01*
X223346286Y-149004311D01*
X223448733Y-148935858D01*
X223535858Y-148848733D01*
X223604311Y-148746286D01*
X223651463Y-148632452D01*
X223675500Y-148511606D01*
X223675500Y-148388394D01*
X223651463Y-148267548D01*
X223604311Y-148153714D01*
X223535858Y-148051267D01*
X223448733Y-147964142D01*
X223346286Y-147895689D01*
X223346287Y-147895689D01*
X223346285Y-147895688D01*
X223232450Y-147848536D01*
X223111608Y-147824500D01*
X223111606Y-147824500D01*
X222988394Y-147824500D01*
X222988391Y-147824500D01*
X222867549Y-147848536D01*
X222753714Y-147895688D01*
X222651267Y-147964142D01*
X222651263Y-147964145D01*
X222564145Y-148051263D01*
X222564142Y-148051267D01*
X222495688Y-148153714D01*
X222448536Y-148267549D01*
X222424500Y-148388391D01*
X208806161Y-148388391D01*
X208665050Y-148163815D01*
X208479438Y-147931066D01*
X208268934Y-147720562D01*
X208036185Y-147534950D01*
X207784117Y-147376565D01*
X207784109Y-147376561D01*
X207784102Y-147376557D01*
X207515902Y-147247399D01*
X207515899Y-147247398D01*
X207234912Y-147149076D01*
X206944677Y-147082832D01*
X206944671Y-147082831D01*
X206648865Y-147049500D01*
X206648849Y-147049500D01*
X206351151Y-147049500D01*
X206351134Y-147049500D01*
X206055328Y-147082831D01*
X206055322Y-147082832D01*
X205765087Y-147149076D01*
X205484100Y-147247398D01*
X205484097Y-147247399D01*
X205215897Y-147376557D01*
X205215885Y-147376564D01*
X204963814Y-147534950D01*
X204731062Y-147720565D01*
X204520565Y-147931062D01*
X204334950Y-148163814D01*
X204222500Y-148342776D01*
X204193840Y-148388391D01*
X204176564Y-148415885D01*
X204176557Y-148415897D01*
X204047399Y-148684097D01*
X204047398Y-148684100D01*
X203949076Y-148965087D01*
X203882832Y-149255322D01*
X203882831Y-149255328D01*
X203849500Y-149551134D01*
X143572909Y-149551134D01*
X143572900Y-149548724D01*
X143556305Y-144863391D01*
X227124500Y-144863391D01*
X227124500Y-144986608D01*
X227148536Y-145107450D01*
X227195688Y-145221285D01*
X227195689Y-145221286D01*
X227264142Y-145323733D01*
X227351267Y-145410858D01*
X227453714Y-145479311D01*
X227567548Y-145526463D01*
X227688394Y-145550500D01*
X227688396Y-145550500D01*
X227811604Y-145550500D01*
X227811606Y-145550500D01*
X227932452Y-145526463D01*
X228046286Y-145479311D01*
X228148733Y-145410858D01*
X228235858Y-145323733D01*
X228304311Y-145221286D01*
X228351463Y-145107452D01*
X228375500Y-144986606D01*
X228375500Y-144863394D01*
X228351463Y-144742548D01*
X228304311Y-144628714D01*
X228235858Y-144526267D01*
X228148733Y-144439142D01*
X228046286Y-144370689D01*
X228046287Y-144370689D01*
X228046285Y-144370688D01*
X227932450Y-144323536D01*
X227811608Y-144299500D01*
X227811606Y-144299500D01*
X227688394Y-144299500D01*
X227688391Y-144299500D01*
X227567549Y-144323536D01*
X227453714Y-144370688D01*
X227351267Y-144439142D01*
X227351263Y-144439145D01*
X227264145Y-144526263D01*
X227264142Y-144526267D01*
X227195688Y-144628714D01*
X227148536Y-144742549D01*
X227124500Y-144863391D01*
X143556305Y-144863391D01*
X143556289Y-144858882D01*
X143553383Y-144038391D01*
X196974500Y-144038391D01*
X196974500Y-144161608D01*
X196998536Y-144282450D01*
X197045688Y-144396285D01*
X197045689Y-144396286D01*
X197114142Y-144498733D01*
X197201267Y-144585858D01*
X197303714Y-144654311D01*
X197417548Y-144701463D01*
X197538394Y-144725500D01*
X197538396Y-144725500D01*
X197661604Y-144725500D01*
X197661606Y-144725500D01*
X197782452Y-144701463D01*
X197896286Y-144654311D01*
X197998733Y-144585858D01*
X198085858Y-144498733D01*
X198154311Y-144396286D01*
X198201463Y-144282452D01*
X198225500Y-144161606D01*
X198225500Y-144038394D01*
X198201463Y-143917548D01*
X198154311Y-143803714D01*
X198085858Y-143701267D01*
X197998733Y-143614142D01*
X197930279Y-143568402D01*
X197896285Y-143545688D01*
X197782450Y-143498536D01*
X197661608Y-143474500D01*
X197661606Y-143474500D01*
X197538394Y-143474500D01*
X197538391Y-143474500D01*
X197417549Y-143498536D01*
X197303714Y-143545688D01*
X197201267Y-143614142D01*
X197201263Y-143614145D01*
X197114145Y-143701263D01*
X197114142Y-143701267D01*
X197045688Y-143803714D01*
X196998536Y-143917549D01*
X196974500Y-144038391D01*
X143553383Y-144038391D01*
X143553367Y-144033882D01*
X143551059Y-143382450D01*
X143550372Y-143188391D01*
X182424500Y-143188391D01*
X182424500Y-143311608D01*
X182448536Y-143432450D01*
X182495688Y-143546285D01*
X182495689Y-143546286D01*
X182564142Y-143648733D01*
X182651267Y-143735858D01*
X182753714Y-143804311D01*
X182867548Y-143851463D01*
X182988394Y-143875500D01*
X182988396Y-143875500D01*
X183111604Y-143875500D01*
X183111606Y-143875500D01*
X183232452Y-143851463D01*
X183346286Y-143804311D01*
X183448733Y-143735858D01*
X183535858Y-143648733D01*
X183604311Y-143546286D01*
X183651463Y-143432452D01*
X183675500Y-143311606D01*
X183675500Y-143188394D01*
X183665554Y-143138391D01*
X223499500Y-143138391D01*
X223499500Y-143261608D01*
X223523536Y-143382450D01*
X223570688Y-143496285D01*
X223570689Y-143496286D01*
X223639142Y-143598733D01*
X223726267Y-143685858D01*
X223828714Y-143754311D01*
X223942548Y-143801463D01*
X224063394Y-143825500D01*
X224063396Y-143825500D01*
X224186604Y-143825500D01*
X224186606Y-143825500D01*
X224307452Y-143801463D01*
X224421286Y-143754311D01*
X224523733Y-143685858D01*
X224610858Y-143598733D01*
X224679311Y-143496286D01*
X224726463Y-143382452D01*
X224750500Y-143261606D01*
X224750500Y-143138394D01*
X224726463Y-143017548D01*
X224679311Y-142903714D01*
X224610858Y-142801267D01*
X224523733Y-142714142D01*
X224455279Y-142668402D01*
X224421285Y-142645688D01*
X224307450Y-142598536D01*
X224186608Y-142574500D01*
X224186606Y-142574500D01*
X224063394Y-142574500D01*
X224063391Y-142574500D01*
X223942549Y-142598536D01*
X223828714Y-142645688D01*
X223726267Y-142714142D01*
X223726263Y-142714145D01*
X223639145Y-142801263D01*
X223639142Y-142801267D01*
X223570688Y-142903714D01*
X223523536Y-143017549D01*
X223499500Y-143138391D01*
X183665554Y-143138391D01*
X183651463Y-143067548D01*
X183604311Y-142953714D01*
X183535858Y-142851267D01*
X183448733Y-142764142D01*
X183346286Y-142695689D01*
X183346287Y-142695689D01*
X183346285Y-142695688D01*
X183232450Y-142648536D01*
X183111608Y-142624500D01*
X183111606Y-142624500D01*
X182988394Y-142624500D01*
X182988391Y-142624500D01*
X182867549Y-142648536D01*
X182753714Y-142695688D01*
X182651267Y-142764142D01*
X182651263Y-142764145D01*
X182564145Y-142851263D01*
X182564142Y-142851267D01*
X182495688Y-142953714D01*
X182448536Y-143067549D01*
X182424500Y-143188391D01*
X143550372Y-143188391D01*
X143543111Y-141138391D01*
X161552947Y-141138391D01*
X161552947Y-141261608D01*
X161576983Y-141382450D01*
X161624135Y-141496285D01*
X161624136Y-141496286D01*
X161692589Y-141598733D01*
X161779714Y-141685858D01*
X161882161Y-141754311D01*
X161995995Y-141801463D01*
X162116841Y-141825500D01*
X162116843Y-141825500D01*
X162240051Y-141825500D01*
X162240053Y-141825500D01*
X162360899Y-141801463D01*
X162428063Y-141773641D01*
X162489058Y-141768841D01*
X162503831Y-141773641D01*
X162570998Y-141801463D01*
X162691844Y-141825500D01*
X162691846Y-141825500D01*
X162815054Y-141825500D01*
X162815056Y-141825500D01*
X162935902Y-141801463D01*
X163049736Y-141754311D01*
X163069454Y-141741135D01*
X163128341Y-141724527D01*
X163179455Y-141741135D01*
X163199174Y-141754311D01*
X163313008Y-141801463D01*
X163433854Y-141825500D01*
X163433856Y-141825500D01*
X163557064Y-141825500D01*
X163557066Y-141825500D01*
X163677912Y-141801463D01*
X163791746Y-141754311D01*
X163894193Y-141685858D01*
X163927727Y-141652323D01*
X163982242Y-141624547D01*
X164042674Y-141634118D01*
X164067731Y-141652322D01*
X164101267Y-141685858D01*
X164203714Y-141754311D01*
X164317548Y-141801463D01*
X164438394Y-141825500D01*
X164438396Y-141825500D01*
X164561604Y-141825500D01*
X164561606Y-141825500D01*
X164682452Y-141801463D01*
X164796286Y-141754311D01*
X164898733Y-141685858D01*
X164985858Y-141598733D01*
X165026177Y-141538391D01*
X214524500Y-141538391D01*
X214524500Y-141661608D01*
X214548536Y-141782450D01*
X214595688Y-141896285D01*
X214595689Y-141896286D01*
X214664142Y-141998733D01*
X214751267Y-142085858D01*
X214853714Y-142154311D01*
X214967548Y-142201463D01*
X215088394Y-142225500D01*
X215088396Y-142225500D01*
X215211604Y-142225500D01*
X215211606Y-142225500D01*
X215332452Y-142201463D01*
X215446286Y-142154311D01*
X215548733Y-142085858D01*
X215635858Y-141998733D01*
X215704311Y-141896286D01*
X215751463Y-141782452D01*
X215775500Y-141661606D01*
X215775500Y-141538394D01*
X215751463Y-141417548D01*
X215704311Y-141303714D01*
X215635858Y-141201267D01*
X215548733Y-141114142D01*
X215446286Y-141045689D01*
X215446287Y-141045689D01*
X215446285Y-141045688D01*
X215332450Y-140998536D01*
X215211608Y-140974500D01*
X215211606Y-140974500D01*
X215088394Y-140974500D01*
X215088391Y-140974500D01*
X214967549Y-140998536D01*
X214853714Y-141045688D01*
X214751267Y-141114142D01*
X214751263Y-141114145D01*
X214664145Y-141201263D01*
X214664142Y-141201267D01*
X214595688Y-141303714D01*
X214548536Y-141417549D01*
X214524500Y-141538391D01*
X165026177Y-141538391D01*
X165054311Y-141496286D01*
X165054314Y-141496279D01*
X165054580Y-141495639D01*
X165086926Y-141417548D01*
X165101463Y-141382452D01*
X165125500Y-141261606D01*
X165125500Y-141138394D01*
X165101463Y-141017548D01*
X165054311Y-140903714D01*
X164985858Y-140801267D01*
X164898733Y-140714142D01*
X164796286Y-140645689D01*
X164796287Y-140645689D01*
X164796285Y-140645688D01*
X164682450Y-140598536D01*
X164561608Y-140574500D01*
X164561606Y-140574500D01*
X164438394Y-140574500D01*
X164438391Y-140574500D01*
X164317549Y-140598536D01*
X164203714Y-140645688D01*
X164101267Y-140714142D01*
X164101263Y-140714145D01*
X164067734Y-140747675D01*
X164013217Y-140775452D01*
X163952785Y-140765881D01*
X163927726Y-140747675D01*
X163894196Y-140714145D01*
X163894193Y-140714142D01*
X163791746Y-140645689D01*
X163791747Y-140645689D01*
X163791745Y-140645688D01*
X163677910Y-140598536D01*
X163557068Y-140574500D01*
X163557066Y-140574500D01*
X163433854Y-140574500D01*
X163433851Y-140574500D01*
X163313009Y-140598536D01*
X163199174Y-140645688D01*
X163179456Y-140658864D01*
X163120568Y-140675472D01*
X163069454Y-140658864D01*
X163049735Y-140645688D01*
X162935900Y-140598536D01*
X162815058Y-140574500D01*
X162815056Y-140574500D01*
X162691844Y-140574500D01*
X162691841Y-140574500D01*
X162570998Y-140598537D01*
X162570996Y-140598537D01*
X162503833Y-140626357D01*
X162442836Y-140631157D01*
X162428063Y-140626357D01*
X162360899Y-140598537D01*
X162240055Y-140574500D01*
X162240053Y-140574500D01*
X162116841Y-140574500D01*
X162116838Y-140574500D01*
X161995996Y-140598536D01*
X161882161Y-140645688D01*
X161779714Y-140714142D01*
X161779710Y-140714145D01*
X161692592Y-140801263D01*
X161692589Y-140801267D01*
X161624135Y-140903714D01*
X161576983Y-141017549D01*
X161552947Y-141138391D01*
X143543111Y-141138391D01*
X143540189Y-140313391D01*
X221299500Y-140313391D01*
X221299500Y-140436608D01*
X221323536Y-140557450D01*
X221370688Y-140671285D01*
X221370689Y-140671286D01*
X221439142Y-140773733D01*
X221526267Y-140860858D01*
X221628714Y-140929311D01*
X221742548Y-140976463D01*
X221863394Y-141000500D01*
X221863396Y-141000500D01*
X221986604Y-141000500D01*
X221986606Y-141000500D01*
X222107452Y-140976463D01*
X222221286Y-140929311D01*
X222323733Y-140860858D01*
X222410858Y-140773733D01*
X222479311Y-140671286D01*
X222526463Y-140557452D01*
X222550500Y-140436606D01*
X222550500Y-140313394D01*
X222526463Y-140192548D01*
X222479311Y-140078714D01*
X222410858Y-139976267D01*
X222323733Y-139889142D01*
X222221286Y-139820689D01*
X222221287Y-139820689D01*
X222221285Y-139820688D01*
X222107450Y-139773536D01*
X221986608Y-139749500D01*
X221986606Y-139749500D01*
X221863394Y-139749500D01*
X221863391Y-139749500D01*
X221742549Y-139773536D01*
X221628714Y-139820688D01*
X221526267Y-139889142D01*
X221526263Y-139889145D01*
X221439145Y-139976263D01*
X221439142Y-139976267D01*
X221370688Y-140078714D01*
X221323536Y-140192549D01*
X221299500Y-140313391D01*
X143540189Y-140313391D01*
X143538995Y-139976263D01*
X143538386Y-139804211D01*
X162663987Y-139804211D01*
X162786188Y-139854830D01*
X162786194Y-139854832D01*
X162927803Y-139882999D01*
X162927808Y-139883000D01*
X163072192Y-139883000D01*
X163072196Y-139882999D01*
X163213805Y-139854832D01*
X163213807Y-139854831D01*
X163336012Y-139804211D01*
X163000000Y-139468198D01*
X162663987Y-139804211D01*
X143538386Y-139804211D01*
X143538272Y-139771977D01*
X143536696Y-139327090D01*
X162241107Y-139327090D01*
X162306861Y-139404491D01*
X162309848Y-139411758D01*
X162315823Y-139416861D01*
X162322874Y-139430700D01*
X162345786Y-139486012D01*
X162345787Y-139486012D01*
X162681801Y-139149999D01*
X162661911Y-139130109D01*
X162900000Y-139130109D01*
X162900000Y-139169891D01*
X162915224Y-139206645D01*
X162943355Y-139234776D01*
X162980109Y-139250000D01*
X163019891Y-139250000D01*
X163056645Y-139234776D01*
X163084776Y-139206645D01*
X163100000Y-139169891D01*
X163100000Y-139149999D01*
X163318198Y-139149999D01*
X163654211Y-139486012D01*
X163677123Y-139430701D01*
X163716860Y-139384175D01*
X163730701Y-139377123D01*
X163786012Y-139354211D01*
X163450000Y-139018198D01*
X163420991Y-139047206D01*
X163318198Y-139149999D01*
X163100000Y-139149999D01*
X163100000Y-139130109D01*
X163084776Y-139093355D01*
X163056645Y-139065224D01*
X163019891Y-139050000D01*
X162980109Y-139050000D01*
X162943355Y-139065224D01*
X162915224Y-139093355D01*
X162900000Y-139130109D01*
X162661911Y-139130109D01*
X162579009Y-139047207D01*
X162549999Y-139018198D01*
X162549998Y-139018198D01*
X162241107Y-139327090D01*
X143536696Y-139327090D01*
X143536678Y-139321977D01*
X143534219Y-138627803D01*
X161817000Y-138627803D01*
X161817000Y-138772196D01*
X161845168Y-138913807D01*
X161845168Y-138913809D01*
X161895786Y-139036012D01*
X161895787Y-139036012D01*
X162231800Y-138700000D01*
X162211909Y-138680109D01*
X162450000Y-138680109D01*
X162450000Y-138719891D01*
X162465224Y-138756645D01*
X162493355Y-138784776D01*
X162530109Y-138800000D01*
X162569891Y-138800000D01*
X162606645Y-138784776D01*
X162634776Y-138756645D01*
X162650000Y-138719891D01*
X162650000Y-138699999D01*
X162868198Y-138699999D01*
X162884743Y-138716544D01*
X162884742Y-138716544D01*
X162999999Y-138831801D01*
X163115259Y-138716543D01*
X163131801Y-138699999D01*
X163111911Y-138680109D01*
X163350000Y-138680109D01*
X163350000Y-138719891D01*
X163365224Y-138756645D01*
X163393355Y-138784776D01*
X163430109Y-138800000D01*
X163469891Y-138800000D01*
X163506645Y-138784776D01*
X163534776Y-138756645D01*
X163550000Y-138719891D01*
X163550000Y-138700000D01*
X163768198Y-138700000D01*
X164104211Y-139036012D01*
X164154831Y-138913807D01*
X164154832Y-138913805D01*
X164182999Y-138772196D01*
X164183000Y-138772191D01*
X164183000Y-138627808D01*
X164182999Y-138627803D01*
X164154832Y-138486194D01*
X164154830Y-138486188D01*
X164104211Y-138363987D01*
X163768198Y-138700000D01*
X163550000Y-138700000D01*
X163550000Y-138680109D01*
X163534776Y-138643355D01*
X163506645Y-138615224D01*
X163469891Y-138600000D01*
X163430109Y-138600000D01*
X163393355Y-138615224D01*
X163365224Y-138643355D01*
X163350000Y-138680109D01*
X163111911Y-138680109D01*
X163049350Y-138617548D01*
X163049350Y-138617549D01*
X162999999Y-138568198D01*
X162868198Y-138699999D01*
X162650000Y-138699999D01*
X162650000Y-138680109D01*
X162634776Y-138643355D01*
X162606645Y-138615224D01*
X162569891Y-138600000D01*
X162530109Y-138600000D01*
X162493355Y-138615224D01*
X162465224Y-138643355D01*
X162450000Y-138680109D01*
X162211909Y-138680109D01*
X161895786Y-138363986D01*
X161845168Y-138486190D01*
X161845168Y-138486192D01*
X161817000Y-138627803D01*
X143534219Y-138627803D01*
X143534203Y-138623294D01*
X143532274Y-138078724D01*
X143532253Y-138072908D01*
X162241107Y-138072908D01*
X162549999Y-138381801D01*
X162681800Y-138250000D01*
X162661909Y-138230109D01*
X162900000Y-138230109D01*
X162900000Y-138269891D01*
X162915224Y-138306645D01*
X162943355Y-138334776D01*
X162980109Y-138350000D01*
X163019891Y-138350000D01*
X163056645Y-138334776D01*
X163084776Y-138306645D01*
X163100000Y-138269891D01*
X163100000Y-138250000D01*
X163318198Y-138250000D01*
X163449999Y-138381801D01*
X163558409Y-138273391D01*
X164874500Y-138273391D01*
X164874500Y-138273394D01*
X164874500Y-138396606D01*
X164898536Y-138517449D01*
X164898537Y-138517451D01*
X164898537Y-138517453D01*
X164926357Y-138584616D01*
X164931158Y-138645612D01*
X164926357Y-138660386D01*
X164898537Y-138727549D01*
X164898537Y-138727551D01*
X164874500Y-138848394D01*
X164874500Y-138971611D01*
X164898536Y-139092453D01*
X164945688Y-139206288D01*
X164945689Y-139206289D01*
X165014142Y-139308736D01*
X165101267Y-139395861D01*
X165203714Y-139464314D01*
X165317548Y-139511466D01*
X165438394Y-139535503D01*
X165438396Y-139535503D01*
X165561604Y-139535503D01*
X165561606Y-139535503D01*
X165682452Y-139511466D01*
X165796286Y-139464314D01*
X165898733Y-139395861D01*
X165985858Y-139308736D01*
X166054311Y-139206289D01*
X166101463Y-139092455D01*
X166125500Y-138971609D01*
X166125500Y-138848397D01*
X166115874Y-138800000D01*
X166107822Y-138759520D01*
X166107821Y-138759518D01*
X166103619Y-138738391D01*
X234424500Y-138738391D01*
X234424500Y-138861608D01*
X234448536Y-138982450D01*
X234495688Y-139096285D01*
X234495689Y-139096286D01*
X234564142Y-139198733D01*
X234651267Y-139285858D01*
X234753714Y-139354311D01*
X234867548Y-139401463D01*
X234988394Y-139425500D01*
X234988396Y-139425500D01*
X235111604Y-139425500D01*
X235111606Y-139425500D01*
X235232452Y-139401463D01*
X235346286Y-139354311D01*
X235448733Y-139285858D01*
X235535858Y-139198733D01*
X235604311Y-139096286D01*
X235651463Y-138982452D01*
X235675500Y-138861606D01*
X235675500Y-138738394D01*
X235651463Y-138617548D01*
X235604311Y-138503714D01*
X235535858Y-138401267D01*
X235448733Y-138314142D01*
X235346286Y-138245689D01*
X235346287Y-138245689D01*
X235346285Y-138245688D01*
X235232450Y-138198536D01*
X235111608Y-138174500D01*
X235111606Y-138174500D01*
X234988394Y-138174500D01*
X234988391Y-138174500D01*
X234867549Y-138198536D01*
X234753714Y-138245688D01*
X234651267Y-138314142D01*
X234651263Y-138314145D01*
X234564145Y-138401263D01*
X234564142Y-138401267D01*
X234495688Y-138503714D01*
X234468979Y-138568198D01*
X234448537Y-138617548D01*
X234424500Y-138738391D01*
X166103619Y-138738391D01*
X166101463Y-138727551D01*
X166072523Y-138657685D01*
X166071566Y-138654924D01*
X166071023Y-138627123D01*
X166068841Y-138599391D01*
X166070390Y-138594623D01*
X166070373Y-138593751D01*
X166070935Y-138592943D01*
X166073639Y-138584622D01*
X166101463Y-138517452D01*
X166125500Y-138396606D01*
X166125500Y-138273394D01*
X166101463Y-138152548D01*
X166054311Y-138038714D01*
X165985858Y-137936267D01*
X165898733Y-137849142D01*
X165796286Y-137780689D01*
X165796287Y-137780689D01*
X165796285Y-137780688D01*
X165682450Y-137733536D01*
X165561608Y-137709500D01*
X165561606Y-137709500D01*
X165438394Y-137709500D01*
X165438391Y-137709500D01*
X165317549Y-137733536D01*
X165203714Y-137780688D01*
X165101267Y-137849142D01*
X165101263Y-137849145D01*
X165014145Y-137936263D01*
X165014142Y-137936267D01*
X164945688Y-138038714D01*
X164898536Y-138152549D01*
X164874500Y-138273391D01*
X163558409Y-138273391D01*
X163786012Y-138045787D01*
X163786012Y-138045786D01*
X163730700Y-138022874D01*
X163684175Y-137983137D01*
X163677123Y-137969298D01*
X163654211Y-137913987D01*
X163318198Y-138250000D01*
X163100000Y-138250000D01*
X163100000Y-138230109D01*
X163084776Y-138193355D01*
X163056645Y-138165224D01*
X163019891Y-138150000D01*
X162980109Y-138150000D01*
X162943355Y-138165224D01*
X162915224Y-138193355D01*
X162900000Y-138230109D01*
X162661909Y-138230109D01*
X162345786Y-137913986D01*
X162345785Y-137913986D01*
X162322874Y-137969298D01*
X162306861Y-137995507D01*
X162241107Y-138072908D01*
X143532253Y-138072908D01*
X143530563Y-137595786D01*
X162663986Y-137595786D01*
X163000000Y-137931800D01*
X163336012Y-137595787D01*
X163336012Y-137595786D01*
X163213808Y-137545168D01*
X163072196Y-137517000D01*
X162927803Y-137517000D01*
X162786192Y-137545168D01*
X162786190Y-137545168D01*
X162663986Y-137595786D01*
X143530563Y-137595786D01*
X143527172Y-136638391D01*
X194824500Y-136638391D01*
X194824500Y-136761608D01*
X194848536Y-136882450D01*
X194895688Y-136996285D01*
X194895689Y-136996286D01*
X194964142Y-137098733D01*
X195051267Y-137185858D01*
X195153714Y-137254311D01*
X195267548Y-137301463D01*
X195388394Y-137325500D01*
X195388396Y-137325500D01*
X195511604Y-137325500D01*
X195511606Y-137325500D01*
X195632452Y-137301463D01*
X195746286Y-137254311D01*
X195848733Y-137185858D01*
X195935858Y-137098733D01*
X196004311Y-136996286D01*
X196051463Y-136882452D01*
X196075500Y-136761606D01*
X196075500Y-136638394D01*
X196051463Y-136517548D01*
X196004311Y-136403714D01*
X195935858Y-136301267D01*
X195848733Y-136214142D01*
X195746286Y-136145689D01*
X195746287Y-136145689D01*
X195746285Y-136145688D01*
X195632450Y-136098536D01*
X195511608Y-136074500D01*
X195511606Y-136074500D01*
X195388394Y-136074500D01*
X195388391Y-136074500D01*
X195267549Y-136098536D01*
X195153714Y-136145688D01*
X195051267Y-136214142D01*
X195051263Y-136214145D01*
X194964145Y-136301263D01*
X194964142Y-136301267D01*
X194895688Y-136403714D01*
X194848536Y-136517549D01*
X194824500Y-136638391D01*
X143527172Y-136638391D01*
X143523630Y-135638391D01*
X164874500Y-135638391D01*
X164874500Y-135761608D01*
X164898536Y-135882450D01*
X164945688Y-135996285D01*
X164945689Y-135996286D01*
X165014142Y-136098733D01*
X165101267Y-136185858D01*
X165203714Y-136254311D01*
X165317548Y-136301463D01*
X165438394Y-136325500D01*
X165438396Y-136325500D01*
X165561604Y-136325500D01*
X165561606Y-136325500D01*
X165682452Y-136301463D01*
X165796286Y-136254311D01*
X165898733Y-136185858D01*
X165985858Y-136098733D01*
X166054311Y-135996286D01*
X166101463Y-135882452D01*
X166125500Y-135761606D01*
X166125500Y-135638394D01*
X166101463Y-135517548D01*
X166054311Y-135403714D01*
X165985858Y-135301267D01*
X165898733Y-135214142D01*
X165796286Y-135145689D01*
X165796287Y-135145689D01*
X165796285Y-135145688D01*
X165682450Y-135098536D01*
X165561608Y-135074500D01*
X165561606Y-135074500D01*
X165438394Y-135074500D01*
X165438391Y-135074500D01*
X165317549Y-135098536D01*
X165203714Y-135145688D01*
X165101267Y-135214142D01*
X165101263Y-135214145D01*
X165014145Y-135301263D01*
X165014142Y-135301267D01*
X164945688Y-135403714D01*
X164898536Y-135517549D01*
X164874500Y-135638391D01*
X143523630Y-135638391D01*
X143520088Y-134638391D01*
X188874500Y-134638391D01*
X188874500Y-134761608D01*
X188898536Y-134882450D01*
X188945688Y-134996285D01*
X188945689Y-134996286D01*
X189014142Y-135098733D01*
X189101267Y-135185858D01*
X189203714Y-135254311D01*
X189317548Y-135301463D01*
X189438394Y-135325500D01*
X189438396Y-135325500D01*
X189561604Y-135325500D01*
X189561606Y-135325500D01*
X189682452Y-135301463D01*
X189796286Y-135254311D01*
X189898733Y-135185858D01*
X189985858Y-135098733D01*
X190054311Y-134996286D01*
X190101463Y-134882452D01*
X190125500Y-134761606D01*
X190125500Y-134638394D01*
X190101463Y-134517548D01*
X190054311Y-134403714D01*
X189985858Y-134301267D01*
X189898733Y-134214142D01*
X189809190Y-134154311D01*
X189796285Y-134145688D01*
X189682450Y-134098536D01*
X189561608Y-134074500D01*
X189561606Y-134074500D01*
X189438394Y-134074500D01*
X189438391Y-134074500D01*
X189317549Y-134098536D01*
X189203714Y-134145688D01*
X189101267Y-134214142D01*
X189101263Y-134214145D01*
X189014145Y-134301263D01*
X189014142Y-134301267D01*
X188945688Y-134403714D01*
X188898536Y-134517549D01*
X188874500Y-134638391D01*
X143520088Y-134638391D01*
X143514952Y-133188391D01*
X213174500Y-133188391D01*
X213174500Y-133311608D01*
X213198536Y-133432450D01*
X213245688Y-133546285D01*
X213268402Y-133580279D01*
X213314142Y-133648733D01*
X213401267Y-133735858D01*
X213503714Y-133804311D01*
X213617548Y-133851463D01*
X213738394Y-133875500D01*
X213738396Y-133875500D01*
X213861604Y-133875500D01*
X213861606Y-133875500D01*
X213982452Y-133851463D01*
X214096286Y-133804311D01*
X214198733Y-133735858D01*
X214285858Y-133648733D01*
X214354311Y-133546286D01*
X214357581Y-133538391D01*
X214824500Y-133538391D01*
X214824500Y-133661608D01*
X214848536Y-133782450D01*
X214895688Y-133896285D01*
X214895689Y-133896286D01*
X214964142Y-133998733D01*
X215051267Y-134085858D01*
X215153714Y-134154311D01*
X215267548Y-134201463D01*
X215388394Y-134225500D01*
X215388396Y-134225500D01*
X215511604Y-134225500D01*
X215511606Y-134225500D01*
X215632452Y-134201463D01*
X215746286Y-134154311D01*
X215848733Y-134085858D01*
X215935858Y-133998733D01*
X216004311Y-133896286D01*
X216051463Y-133782452D01*
X216070172Y-133688391D01*
X225074500Y-133688391D01*
X225074500Y-133811608D01*
X225098536Y-133932450D01*
X225145688Y-134046285D01*
X225145689Y-134046286D01*
X225214142Y-134148733D01*
X225301267Y-134235858D01*
X225403714Y-134304311D01*
X225517548Y-134351463D01*
X225638394Y-134375500D01*
X225638396Y-134375500D01*
X225761604Y-134375500D01*
X225761606Y-134375500D01*
X225882452Y-134351463D01*
X225996286Y-134304311D01*
X226098733Y-134235858D01*
X226185858Y-134148733D01*
X226254311Y-134046286D01*
X226301463Y-133932452D01*
X226325500Y-133811606D01*
X226325500Y-133688394D01*
X226301463Y-133567548D01*
X226254311Y-133453714D01*
X226185858Y-133351267D01*
X226098733Y-133264142D01*
X225996286Y-133195689D01*
X225996287Y-133195689D01*
X225996285Y-133195688D01*
X225882450Y-133148536D01*
X225761608Y-133124500D01*
X225761606Y-133124500D01*
X225638394Y-133124500D01*
X225638391Y-133124500D01*
X225517549Y-133148536D01*
X225403714Y-133195688D01*
X225301267Y-133264142D01*
X225301263Y-133264145D01*
X225214145Y-133351263D01*
X225214142Y-133351267D01*
X225145688Y-133453714D01*
X225098536Y-133567549D01*
X225074500Y-133688391D01*
X216070172Y-133688391D01*
X216075500Y-133661606D01*
X216075500Y-133538394D01*
X216051463Y-133417548D01*
X216004311Y-133303714D01*
X215935858Y-133201267D01*
X215848733Y-133114142D01*
X215746286Y-133045689D01*
X215746287Y-133045689D01*
X215746285Y-133045688D01*
X215632450Y-132998536D01*
X215511608Y-132974500D01*
X215511606Y-132974500D01*
X215388394Y-132974500D01*
X215388391Y-132974500D01*
X215267549Y-132998536D01*
X215153714Y-133045688D01*
X215051267Y-133114142D01*
X215051263Y-133114145D01*
X214964145Y-133201263D01*
X214964142Y-133201267D01*
X214895688Y-133303714D01*
X214848536Y-133417549D01*
X214824500Y-133538391D01*
X214357581Y-133538391D01*
X214401463Y-133432452D01*
X214425500Y-133311606D01*
X214425500Y-133188394D01*
X214401463Y-133067548D01*
X214354311Y-132953714D01*
X214285858Y-132851267D01*
X214198733Y-132764142D01*
X214097027Y-132696184D01*
X214096285Y-132695688D01*
X213982450Y-132648536D01*
X213861608Y-132624500D01*
X213861606Y-132624500D01*
X213738394Y-132624500D01*
X213738391Y-132624500D01*
X213617549Y-132648536D01*
X213503714Y-132695688D01*
X213401267Y-132764142D01*
X213401263Y-132764145D01*
X213314145Y-132851263D01*
X213314142Y-132851267D01*
X213245688Y-132953714D01*
X213198536Y-133067549D01*
X213174500Y-133188391D01*
X143514952Y-133188391D01*
X143508400Y-131338391D01*
X184174500Y-131338391D01*
X184174500Y-131461608D01*
X184198536Y-131582450D01*
X184245688Y-131696285D01*
X184245689Y-131696286D01*
X184314142Y-131798733D01*
X184401267Y-131885858D01*
X184503714Y-131954311D01*
X184617548Y-132001463D01*
X184738394Y-132025500D01*
X184738396Y-132025500D01*
X184861604Y-132025500D01*
X184861606Y-132025500D01*
X184982452Y-132001463D01*
X185096286Y-131954311D01*
X185198733Y-131885858D01*
X185285858Y-131798733D01*
X185354311Y-131696286D01*
X185401463Y-131582452D01*
X185420172Y-131488391D01*
X193524500Y-131488391D01*
X193524500Y-131611608D01*
X193548536Y-131732450D01*
X193595688Y-131846285D01*
X193595689Y-131846286D01*
X193664142Y-131948733D01*
X193751267Y-132035858D01*
X193853714Y-132104311D01*
X193967548Y-132151463D01*
X194088394Y-132175500D01*
X194088396Y-132175500D01*
X194211604Y-132175500D01*
X194211606Y-132175500D01*
X194332452Y-132151463D01*
X194446286Y-132104311D01*
X194548733Y-132035858D01*
X194635858Y-131948733D01*
X194704311Y-131846286D01*
X194751463Y-131732452D01*
X194775500Y-131611606D01*
X194775500Y-131488394D01*
X194765554Y-131438391D01*
X199924500Y-131438391D01*
X199924500Y-131561608D01*
X199948536Y-131682450D01*
X199995688Y-131796285D01*
X199995689Y-131796286D01*
X200064142Y-131898733D01*
X200151267Y-131985858D01*
X200253714Y-132054311D01*
X200367548Y-132101463D01*
X200488394Y-132125500D01*
X200488396Y-132125500D01*
X200611604Y-132125500D01*
X200611606Y-132125500D01*
X200732452Y-132101463D01*
X200846286Y-132054311D01*
X200892486Y-132023441D01*
X208709500Y-132023441D01*
X208709500Y-132218558D01*
X208747564Y-132409917D01*
X208747564Y-132409919D01*
X208822227Y-132590173D01*
X208822233Y-132590185D01*
X208892730Y-132695689D01*
X208930628Y-132752407D01*
X209068593Y-132890372D01*
X209137757Y-132936586D01*
X209230814Y-132998766D01*
X209230826Y-132998772D01*
X209297412Y-133026352D01*
X209411082Y-133073436D01*
X209602444Y-133111500D01*
X209602445Y-133111500D01*
X209797555Y-133111500D01*
X209797556Y-133111500D01*
X209988918Y-133073436D01*
X210169178Y-132998770D01*
X210169180Y-132998768D01*
X210169185Y-132998766D01*
X210236609Y-132953714D01*
X210331407Y-132890372D01*
X210469372Y-132752407D01*
X210554837Y-132624500D01*
X210577766Y-132590185D01*
X210577772Y-132590173D01*
X210626821Y-132471758D01*
X210652436Y-132409918D01*
X210690500Y-132218556D01*
X210690500Y-132023444D01*
X210663636Y-131888391D01*
X214274500Y-131888391D01*
X214274500Y-132011608D01*
X214298536Y-132132450D01*
X214345688Y-132246285D01*
X214345689Y-132246286D01*
X214414142Y-132348733D01*
X214501267Y-132435858D01*
X214603714Y-132504311D01*
X214717548Y-132551463D01*
X214838394Y-132575500D01*
X214838396Y-132575500D01*
X214961604Y-132575500D01*
X214961606Y-132575500D01*
X215082452Y-132551463D01*
X215196286Y-132504311D01*
X215298733Y-132435858D01*
X215385858Y-132348733D01*
X215454311Y-132246286D01*
X215501463Y-132132452D01*
X215517006Y-132054311D01*
X215518249Y-132048064D01*
X233959500Y-132048064D01*
X233959500Y-132193935D01*
X233987957Y-132336995D01*
X233987957Y-132336997D01*
X234043775Y-132471755D01*
X234043775Y-132471756D01*
X234065528Y-132504311D01*
X234124816Y-132593041D01*
X234227959Y-132696184D01*
X234349242Y-132777223D01*
X234484004Y-132833043D01*
X234627067Y-132861500D01*
X234627068Y-132861500D01*
X234772932Y-132861500D01*
X234772933Y-132861500D01*
X234915996Y-132833043D01*
X235050758Y-132777223D01*
X235172041Y-132696184D01*
X235275184Y-132593041D01*
X235356223Y-132471758D01*
X235412043Y-132336996D01*
X235440500Y-132193933D01*
X235440500Y-132048067D01*
X235412043Y-131905004D01*
X235356224Y-131770244D01*
X235356224Y-131770243D01*
X235297563Y-131682452D01*
X235275184Y-131648959D01*
X235172041Y-131545816D01*
X235050758Y-131464777D01*
X235050757Y-131464776D01*
X235050755Y-131464775D01*
X234915996Y-131408957D01*
X234772935Y-131380500D01*
X234772933Y-131380500D01*
X234627067Y-131380500D01*
X234627064Y-131380500D01*
X234484004Y-131408957D01*
X234484002Y-131408957D01*
X234349244Y-131464775D01*
X234349243Y-131464775D01*
X234227959Y-131545816D01*
X234227955Y-131545819D01*
X234124819Y-131648955D01*
X234124816Y-131648959D01*
X234043775Y-131770243D01*
X234043775Y-131770244D01*
X233987957Y-131905002D01*
X233987957Y-131905004D01*
X233959500Y-132048064D01*
X215518249Y-132048064D01*
X215523057Y-132023889D01*
X215523057Y-132023888D01*
X215525499Y-132011610D01*
X215525500Y-132011606D01*
X215525500Y-131888394D01*
X215501463Y-131767548D01*
X215454311Y-131653714D01*
X215385858Y-131551267D01*
X215298733Y-131464142D01*
X215196286Y-131395689D01*
X215196287Y-131395689D01*
X215196285Y-131395688D01*
X215082450Y-131348536D01*
X214961608Y-131324500D01*
X214961606Y-131324500D01*
X214838394Y-131324500D01*
X214838391Y-131324500D01*
X214717549Y-131348536D01*
X214603714Y-131395688D01*
X214501267Y-131464142D01*
X214501263Y-131464145D01*
X214414145Y-131551263D01*
X214414142Y-131551267D01*
X214345688Y-131653714D01*
X214298536Y-131767549D01*
X214274500Y-131888391D01*
X210663636Y-131888391D01*
X210652436Y-131832082D01*
X210596187Y-131696285D01*
X210577772Y-131651826D01*
X210577766Y-131651814D01*
X210510581Y-131551267D01*
X210469372Y-131489593D01*
X210331407Y-131351628D01*
X210280403Y-131317548D01*
X210169185Y-131243233D01*
X210169173Y-131243227D01*
X209988918Y-131168564D01*
X209797558Y-131130500D01*
X209797556Y-131130500D01*
X209602444Y-131130500D01*
X209602441Y-131130500D01*
X209411082Y-131168564D01*
X209411080Y-131168564D01*
X209230826Y-131243227D01*
X209230814Y-131243233D01*
X209068593Y-131351628D01*
X209068589Y-131351631D01*
X208930631Y-131489589D01*
X208930628Y-131489593D01*
X208822233Y-131651814D01*
X208822227Y-131651826D01*
X208747564Y-131832080D01*
X208747564Y-131832082D01*
X208709500Y-132023441D01*
X200892486Y-132023441D01*
X200948733Y-131985858D01*
X201035858Y-131898733D01*
X201104311Y-131796286D01*
X201151463Y-131682452D01*
X201175500Y-131561606D01*
X201175500Y-131438394D01*
X201151463Y-131317548D01*
X201104311Y-131203714D01*
X201035858Y-131101267D01*
X200948733Y-131014142D01*
X200859190Y-130954311D01*
X200846285Y-130945688D01*
X200732450Y-130898536D01*
X200611608Y-130874500D01*
X200611606Y-130874500D01*
X200488394Y-130874500D01*
X200488391Y-130874500D01*
X200367549Y-130898536D01*
X200253714Y-130945688D01*
X200151267Y-131014142D01*
X200151263Y-131014145D01*
X200064145Y-131101263D01*
X200064142Y-131101267D01*
X199995688Y-131203714D01*
X199948536Y-131317549D01*
X199924500Y-131438391D01*
X194765554Y-131438391D01*
X194751463Y-131367548D01*
X194704311Y-131253714D01*
X194635858Y-131151267D01*
X194548733Y-131064142D01*
X194473903Y-131014142D01*
X194446285Y-130995688D01*
X194332450Y-130948536D01*
X194211608Y-130924500D01*
X194211606Y-130924500D01*
X194088394Y-130924500D01*
X194088391Y-130924500D01*
X193967549Y-130948536D01*
X193853714Y-130995688D01*
X193751267Y-131064142D01*
X193751263Y-131064145D01*
X193664145Y-131151263D01*
X193664142Y-131151267D01*
X193595688Y-131253714D01*
X193548536Y-131367549D01*
X193524500Y-131488391D01*
X185420172Y-131488391D01*
X185424981Y-131464217D01*
X185425499Y-131461610D01*
X185425500Y-131461606D01*
X185425500Y-131338394D01*
X185401463Y-131217548D01*
X185354311Y-131103714D01*
X185285858Y-131001267D01*
X185198733Y-130914142D01*
X185096286Y-130845689D01*
X185096287Y-130845689D01*
X185096285Y-130845688D01*
X184982450Y-130798536D01*
X184861608Y-130774500D01*
X184861606Y-130774500D01*
X184738394Y-130774500D01*
X184738391Y-130774500D01*
X184617549Y-130798536D01*
X184503714Y-130845688D01*
X184401267Y-130914142D01*
X184401263Y-130914145D01*
X184314145Y-131001263D01*
X184314142Y-131001267D01*
X184245688Y-131103714D01*
X184198536Y-131217549D01*
X184174500Y-131338391D01*
X143508400Y-131338391D01*
X143504150Y-130138391D01*
X196924500Y-130138391D01*
X196924500Y-130261608D01*
X196948536Y-130382450D01*
X196995688Y-130496285D01*
X196995689Y-130496286D01*
X197064142Y-130598733D01*
X197151267Y-130685858D01*
X197253714Y-130754311D01*
X197367548Y-130801463D01*
X197488394Y-130825500D01*
X197488396Y-130825500D01*
X197611604Y-130825500D01*
X197611606Y-130825500D01*
X197732452Y-130801463D01*
X197846286Y-130754311D01*
X197944942Y-130688391D01*
X212674500Y-130688391D01*
X212674500Y-130811608D01*
X212698536Y-130932450D01*
X212745688Y-131046285D01*
X212745689Y-131046286D01*
X212814142Y-131148733D01*
X212901267Y-131235858D01*
X213003714Y-131304311D01*
X213117548Y-131351463D01*
X213238394Y-131375500D01*
X213238396Y-131375500D01*
X213361604Y-131375500D01*
X213361606Y-131375500D01*
X213482452Y-131351463D01*
X213596286Y-131304311D01*
X213698733Y-131235858D01*
X213785858Y-131148733D01*
X213854311Y-131046286D01*
X213901463Y-130932452D01*
X213925500Y-130811606D01*
X213925500Y-130688394D01*
X213901463Y-130567548D01*
X213854311Y-130453714D01*
X213785858Y-130351267D01*
X213772982Y-130338391D01*
X229474500Y-130338391D01*
X229474500Y-130461608D01*
X229498536Y-130582450D01*
X229545688Y-130696285D01*
X229545689Y-130696286D01*
X229614142Y-130798733D01*
X229701267Y-130885858D01*
X229803714Y-130954311D01*
X229917548Y-131001463D01*
X230038394Y-131025500D01*
X230038396Y-131025500D01*
X230161604Y-131025500D01*
X230161606Y-131025500D01*
X230282452Y-131001463D01*
X230396286Y-130954311D01*
X230498733Y-130885858D01*
X230585858Y-130798733D01*
X230654311Y-130696286D01*
X230701463Y-130582452D01*
X230725500Y-130461606D01*
X230725500Y-130338394D01*
X230701463Y-130217548D01*
X230654311Y-130103714D01*
X230585858Y-130001267D01*
X230498733Y-129914142D01*
X230396286Y-129845689D01*
X230396287Y-129845689D01*
X230396285Y-129845688D01*
X230282450Y-129798536D01*
X230161608Y-129774500D01*
X230161606Y-129774500D01*
X230038394Y-129774500D01*
X230038391Y-129774500D01*
X229917549Y-129798536D01*
X229803714Y-129845688D01*
X229701267Y-129914142D01*
X229701263Y-129914145D01*
X229614145Y-130001263D01*
X229614142Y-130001267D01*
X229545688Y-130103714D01*
X229498536Y-130217549D01*
X229474500Y-130338391D01*
X213772982Y-130338391D01*
X213698733Y-130264142D01*
X213596286Y-130195689D01*
X213596287Y-130195689D01*
X213596285Y-130195688D01*
X213482450Y-130148536D01*
X213361608Y-130124500D01*
X213361606Y-130124500D01*
X213238394Y-130124500D01*
X213238391Y-130124500D01*
X213117549Y-130148536D01*
X213003714Y-130195688D01*
X212901267Y-130264142D01*
X212901263Y-130264145D01*
X212814145Y-130351263D01*
X212814142Y-130351267D01*
X212745688Y-130453714D01*
X212698536Y-130567549D01*
X212674500Y-130688391D01*
X197944942Y-130688391D01*
X197948733Y-130685858D01*
X198035858Y-130598733D01*
X198104311Y-130496286D01*
X198151463Y-130382452D01*
X198175500Y-130261606D01*
X198175500Y-130138394D01*
X198175443Y-130138110D01*
X198172684Y-130124235D01*
X198179876Y-130063474D01*
X198221409Y-130018544D01*
X198250467Y-130007824D01*
X198282452Y-130001463D01*
X198396286Y-129954311D01*
X198498733Y-129885858D01*
X198585858Y-129798733D01*
X198654311Y-129696286D01*
X198701463Y-129582452D01*
X198725500Y-129461606D01*
X198725500Y-129338394D01*
X198725499Y-129338391D01*
X204374500Y-129338391D01*
X204374500Y-129461608D01*
X204398536Y-129582450D01*
X204445688Y-129696285D01*
X204445689Y-129696286D01*
X204514142Y-129798733D01*
X204601267Y-129885858D01*
X204703714Y-129954311D01*
X204817548Y-130001463D01*
X204938394Y-130025500D01*
X204938396Y-130025500D01*
X205061604Y-130025500D01*
X205061606Y-130025500D01*
X205182452Y-130001463D01*
X205296286Y-129954311D01*
X205398733Y-129885858D01*
X205485858Y-129798733D01*
X205554311Y-129696286D01*
X205601463Y-129582452D01*
X205625500Y-129461606D01*
X205625500Y-129338394D01*
X205601463Y-129217548D01*
X205554311Y-129103714D01*
X205485858Y-129001267D01*
X205398733Y-128914142D01*
X205296286Y-128845689D01*
X205296287Y-128845689D01*
X205296285Y-128845688D01*
X205182450Y-128798536D01*
X205061608Y-128774500D01*
X205061606Y-128774500D01*
X204938394Y-128774500D01*
X204938391Y-128774500D01*
X204817549Y-128798536D01*
X204703714Y-128845688D01*
X204601267Y-128914142D01*
X204601263Y-128914145D01*
X204514145Y-129001263D01*
X204514142Y-129001267D01*
X204445688Y-129103714D01*
X204398536Y-129217549D01*
X204374500Y-129338391D01*
X198725499Y-129338391D01*
X198701463Y-129217548D01*
X198654311Y-129103714D01*
X198585858Y-129001267D01*
X198498733Y-128914142D01*
X198396286Y-128845689D01*
X198396287Y-128845689D01*
X198396285Y-128845688D01*
X198282450Y-128798536D01*
X198161608Y-128774500D01*
X198161606Y-128774500D01*
X198038394Y-128774500D01*
X198038391Y-128774500D01*
X197917549Y-128798536D01*
X197803714Y-128845688D01*
X197701267Y-128914142D01*
X197701263Y-128914145D01*
X197614145Y-129001263D01*
X197614142Y-129001267D01*
X197545688Y-129103714D01*
X197498536Y-129217549D01*
X197474500Y-129338391D01*
X197474500Y-129461610D01*
X197477316Y-129475768D01*
X197470121Y-129536529D01*
X197428586Y-129581457D01*
X197399532Y-129592175D01*
X197367548Y-129598537D01*
X197253714Y-129645688D01*
X197151267Y-129714142D01*
X197151263Y-129714145D01*
X197064145Y-129801263D01*
X197064142Y-129801267D01*
X196995688Y-129903714D01*
X196948536Y-130017549D01*
X196924500Y-130138391D01*
X143504150Y-130138391D01*
X143492639Y-126888391D01*
X201824500Y-126888391D01*
X201824500Y-127011608D01*
X201848536Y-127132450D01*
X201895688Y-127246285D01*
X201895689Y-127246286D01*
X201964142Y-127348733D01*
X202051267Y-127435858D01*
X202153714Y-127504311D01*
X202267548Y-127551463D01*
X202388394Y-127575500D01*
X202388396Y-127575500D01*
X202511604Y-127575500D01*
X202511606Y-127575500D01*
X202632452Y-127551463D01*
X202746286Y-127504311D01*
X202848733Y-127435858D01*
X202935858Y-127348733D01*
X203004311Y-127246286D01*
X203051463Y-127132452D01*
X203075500Y-127011606D01*
X203075500Y-126888394D01*
X203051463Y-126767548D01*
X203004311Y-126653714D01*
X202935858Y-126551267D01*
X202848733Y-126464142D01*
X202746286Y-126395689D01*
X202746287Y-126395689D01*
X202746285Y-126395688D01*
X202632450Y-126348536D01*
X202511608Y-126324500D01*
X202511606Y-126324500D01*
X202388394Y-126324500D01*
X202388391Y-126324500D01*
X202267549Y-126348536D01*
X202153714Y-126395688D01*
X202051267Y-126464142D01*
X202051263Y-126464145D01*
X201964145Y-126551263D01*
X201964142Y-126551267D01*
X201895688Y-126653714D01*
X201848536Y-126767549D01*
X201824500Y-126888391D01*
X143492639Y-126888391D01*
X143489451Y-125988391D01*
X210224500Y-125988391D01*
X210224500Y-126111608D01*
X210248536Y-126232450D01*
X210295688Y-126346285D01*
X210295689Y-126346286D01*
X210364142Y-126448733D01*
X210451267Y-126535858D01*
X210553714Y-126604311D01*
X210667548Y-126651463D01*
X210788394Y-126675500D01*
X210788396Y-126675500D01*
X210911604Y-126675500D01*
X210911606Y-126675500D01*
X211032452Y-126651463D01*
X211146286Y-126604311D01*
X211248733Y-126535858D01*
X211335858Y-126448733D01*
X211404311Y-126346286D01*
X211451463Y-126232452D01*
X211475500Y-126111606D01*
X211475500Y-125988394D01*
X211451463Y-125867548D01*
X211404311Y-125753714D01*
X211335858Y-125651267D01*
X211248733Y-125564142D01*
X211146286Y-125495689D01*
X211146287Y-125495689D01*
X211146285Y-125495688D01*
X211032450Y-125448536D01*
X210911608Y-125424500D01*
X210911606Y-125424500D01*
X210788394Y-125424500D01*
X210788391Y-125424500D01*
X210667549Y-125448536D01*
X210553714Y-125495688D01*
X210451267Y-125564142D01*
X210451263Y-125564145D01*
X210364145Y-125651263D01*
X210364142Y-125651267D01*
X210295688Y-125753714D01*
X210248536Y-125867549D01*
X210224500Y-125988391D01*
X143489451Y-125988391D01*
X143472947Y-121328686D01*
X159449500Y-121328686D01*
X159449500Y-121671313D01*
X159487860Y-122011781D01*
X159564103Y-122345820D01*
X159677263Y-122669213D01*
X159677264Y-122669215D01*
X159825916Y-122977895D01*
X159825920Y-122977902D01*
X159825924Y-122977910D01*
X160008211Y-123268018D01*
X160221834Y-123535893D01*
X160464107Y-123778166D01*
X160731982Y-123991789D01*
X161022090Y-124174076D01*
X161022101Y-124174081D01*
X161022104Y-124174083D01*
X161124660Y-124223471D01*
X161330785Y-124322736D01*
X161481753Y-124375561D01*
X161654179Y-124435896D01*
X161654182Y-124435896D01*
X161654183Y-124435897D01*
X161988217Y-124512139D01*
X162328688Y-124550500D01*
X162328689Y-124550500D01*
X162671311Y-124550500D01*
X162671312Y-124550500D01*
X163011783Y-124512139D01*
X163345817Y-124435897D01*
X163669215Y-124322736D01*
X163977910Y-124174076D01*
X164268018Y-123991789D01*
X164535893Y-123778166D01*
X164778166Y-123535893D01*
X164991789Y-123268018D01*
X165174076Y-122977910D01*
X165322736Y-122669215D01*
X165435897Y-122345817D01*
X165512139Y-122011783D01*
X165550500Y-121671312D01*
X165550500Y-121328688D01*
X165512139Y-120988217D01*
X165435897Y-120654183D01*
X165405120Y-120566228D01*
X165322736Y-120330786D01*
X165322736Y-120330785D01*
X165174076Y-120022090D01*
X164991789Y-119731982D01*
X164778166Y-119464107D01*
X164535893Y-119221834D01*
X164268018Y-119008211D01*
X163977910Y-118825924D01*
X163977902Y-118825920D01*
X163977895Y-118825916D01*
X163669215Y-118677264D01*
X163669213Y-118677263D01*
X163345820Y-118564103D01*
X163011781Y-118487860D01*
X162671313Y-118449500D01*
X162671312Y-118449500D01*
X162328688Y-118449500D01*
X162328686Y-118449500D01*
X161988218Y-118487860D01*
X161654179Y-118564103D01*
X161330786Y-118677263D01*
X161330784Y-118677264D01*
X161022104Y-118825916D01*
X161022092Y-118825923D01*
X160731981Y-119008211D01*
X160464108Y-119221833D01*
X160221833Y-119464108D01*
X160008211Y-119731981D01*
X159878791Y-119937951D01*
X159840724Y-119998537D01*
X159825923Y-120022092D01*
X159825916Y-120022104D01*
X159677264Y-120330784D01*
X159677263Y-120330786D01*
X159564103Y-120654179D01*
X159487860Y-120988218D01*
X159449500Y-121328686D01*
X143472947Y-121328686D01*
X143425519Y-107938391D01*
X152124500Y-107938391D01*
X152124500Y-108061608D01*
X152148536Y-108182450D01*
X152195688Y-108296285D01*
X152195689Y-108296286D01*
X152264142Y-108398733D01*
X152351267Y-108485858D01*
X152453714Y-108554311D01*
X152567548Y-108601463D01*
X152688394Y-108625500D01*
X152688396Y-108625500D01*
X152811604Y-108625500D01*
X152811606Y-108625500D01*
X152932452Y-108601463D01*
X153046286Y-108554311D01*
X153148733Y-108485858D01*
X153235858Y-108398733D01*
X153304311Y-108296286D01*
X153351463Y-108182452D01*
X153375500Y-108061606D01*
X153375500Y-107938394D01*
X153351463Y-107817548D01*
X153304311Y-107703714D01*
X153235858Y-107601267D01*
X153148733Y-107514142D01*
X153046286Y-107445689D01*
X153046287Y-107445689D01*
X153046285Y-107445688D01*
X152932450Y-107398536D01*
X152811608Y-107374500D01*
X152811606Y-107374500D01*
X152688394Y-107374500D01*
X152688391Y-107374500D01*
X152567549Y-107398536D01*
X152453714Y-107445688D01*
X152351267Y-107514142D01*
X152351263Y-107514145D01*
X152264145Y-107601263D01*
X152264142Y-107601267D01*
X152195688Y-107703714D01*
X152148536Y-107817549D01*
X152124500Y-107938391D01*
X143425519Y-107938391D01*
X143420029Y-106388391D01*
X150274500Y-106388391D01*
X150274500Y-106511608D01*
X150298536Y-106632450D01*
X150345688Y-106746285D01*
X150345689Y-106746286D01*
X150414142Y-106848733D01*
X150501267Y-106935858D01*
X150603714Y-107004311D01*
X150717548Y-107051463D01*
X150838394Y-107075500D01*
X150838396Y-107075500D01*
X150961604Y-107075500D01*
X150961606Y-107075500D01*
X151082452Y-107051463D01*
X151196286Y-107004311D01*
X151298733Y-106935858D01*
X151385858Y-106848733D01*
X151454311Y-106746286D01*
X151501463Y-106632452D01*
X151525500Y-106511606D01*
X151525500Y-106388394D01*
X151501463Y-106267548D01*
X151454311Y-106153714D01*
X151385858Y-106051267D01*
X151298733Y-105964142D01*
X151196286Y-105895689D01*
X151196287Y-105895689D01*
X151196285Y-105895688D01*
X151082450Y-105848536D01*
X150961608Y-105824500D01*
X150961606Y-105824500D01*
X150838394Y-105824500D01*
X150838391Y-105824500D01*
X150717549Y-105848536D01*
X150603714Y-105895688D01*
X150501267Y-105964142D01*
X150501263Y-105964145D01*
X150414145Y-106051263D01*
X150414142Y-106051267D01*
X150345688Y-106153714D01*
X150298536Y-106267549D01*
X150274500Y-106388391D01*
X143420029Y-106388391D01*
X143412059Y-104138391D01*
X163874500Y-104138391D01*
X163874500Y-104261608D01*
X163898537Y-104382451D01*
X163898537Y-104382453D01*
X163926357Y-104449616D01*
X163931158Y-104510612D01*
X163926357Y-104525386D01*
X163898537Y-104592549D01*
X163898537Y-104592551D01*
X163874500Y-104713394D01*
X163874500Y-104836611D01*
X163898536Y-104957453D01*
X163945688Y-105071288D01*
X163945689Y-105071289D01*
X164014142Y-105173736D01*
X164101267Y-105260861D01*
X164203714Y-105329314D01*
X164317548Y-105376466D01*
X164438394Y-105400503D01*
X164443165Y-105401452D01*
X164442748Y-105403543D01*
X164491098Y-105424665D01*
X164495375Y-105428695D01*
X177736502Y-118669821D01*
X177736504Y-118669824D01*
X177823173Y-118756493D01*
X177890467Y-118795345D01*
X177929320Y-118817777D01*
X178047713Y-118849500D01*
X178170281Y-118849500D01*
X193648074Y-118849500D01*
X193706265Y-118868407D01*
X193742229Y-118917907D01*
X193742229Y-118979093D01*
X193709800Y-119025899D01*
X193539153Y-119161986D01*
X193464108Y-119221833D01*
X193221833Y-119464108D01*
X193008211Y-119731981D01*
X192878791Y-119937951D01*
X192840724Y-119998537D01*
X192825923Y-120022092D01*
X192825916Y-120022104D01*
X192677264Y-120330784D01*
X192677263Y-120330786D01*
X192564103Y-120654179D01*
X192487860Y-120988218D01*
X192449500Y-121328686D01*
X192449500Y-121671313D01*
X192487860Y-122011781D01*
X192564103Y-122345820D01*
X192677263Y-122669213D01*
X192677264Y-122669215D01*
X192825916Y-122977895D01*
X192825920Y-122977902D01*
X192825924Y-122977910D01*
X193008211Y-123268018D01*
X193221834Y-123535893D01*
X193464107Y-123778166D01*
X193731982Y-123991789D01*
X194022090Y-124174076D01*
X194022101Y-124174081D01*
X194022104Y-124174083D01*
X194124660Y-124223471D01*
X194330785Y-124322736D01*
X194481753Y-124375561D01*
X194654179Y-124435896D01*
X194654182Y-124435896D01*
X194654183Y-124435897D01*
X194988217Y-124512139D01*
X195328688Y-124550500D01*
X195328689Y-124550500D01*
X195671311Y-124550500D01*
X195671312Y-124550500D01*
X196011783Y-124512139D01*
X196345817Y-124435897D01*
X196669215Y-124322736D01*
X196948185Y-124188391D01*
X221874500Y-124188391D01*
X221874500Y-124311608D01*
X221898536Y-124432450D01*
X221945688Y-124546285D01*
X221968402Y-124580279D01*
X222014142Y-124648733D01*
X222101267Y-124735858D01*
X222203714Y-124804311D01*
X222317548Y-124851463D01*
X222438394Y-124875500D01*
X222438396Y-124875500D01*
X222561604Y-124875500D01*
X222561606Y-124875500D01*
X222682452Y-124851463D01*
X222796286Y-124804311D01*
X222898733Y-124735858D01*
X222985858Y-124648733D01*
X223054311Y-124546286D01*
X223101463Y-124432452D01*
X223125500Y-124311606D01*
X223125500Y-124188394D01*
X223101463Y-124067548D01*
X223054311Y-123953714D01*
X222985858Y-123851267D01*
X222898733Y-123764142D01*
X222796286Y-123695689D01*
X222796287Y-123695689D01*
X222796285Y-123695688D01*
X222682450Y-123648536D01*
X222561608Y-123624500D01*
X222561606Y-123624500D01*
X222438394Y-123624500D01*
X222438391Y-123624500D01*
X222317549Y-123648536D01*
X222203714Y-123695688D01*
X222101267Y-123764142D01*
X222101263Y-123764145D01*
X222014145Y-123851263D01*
X222014142Y-123851267D01*
X221945688Y-123953714D01*
X221898536Y-124067549D01*
X221874500Y-124188391D01*
X196948185Y-124188391D01*
X196977910Y-124174076D01*
X197268018Y-123991789D01*
X197535893Y-123778166D01*
X197778166Y-123535893D01*
X197991789Y-123268018D01*
X198174076Y-122977910D01*
X198322736Y-122669215D01*
X198435897Y-122345817D01*
X198512139Y-122011783D01*
X198550500Y-121671312D01*
X198550500Y-121328688D01*
X198512139Y-120988217D01*
X198435897Y-120654183D01*
X198395380Y-120538391D01*
X217024500Y-120538391D01*
X217024500Y-120661608D01*
X217048536Y-120782450D01*
X217095688Y-120896285D01*
X217095689Y-120896286D01*
X217164142Y-120998733D01*
X217251267Y-121085858D01*
X217353714Y-121154311D01*
X217467548Y-121201463D01*
X217588394Y-121225500D01*
X217588396Y-121225500D01*
X217711604Y-121225500D01*
X217711606Y-121225500D01*
X217832452Y-121201463D01*
X217946286Y-121154311D01*
X218048733Y-121085858D01*
X218135858Y-120998733D01*
X218204311Y-120896286D01*
X218251463Y-120782452D01*
X218275500Y-120661606D01*
X218275500Y-120538394D01*
X218251463Y-120417548D01*
X218204311Y-120303714D01*
X218135858Y-120201267D01*
X218048733Y-120114142D01*
X217946286Y-120045689D01*
X217946287Y-120045689D01*
X217946285Y-120045688D01*
X217832450Y-119998536D01*
X217711608Y-119974500D01*
X217711606Y-119974500D01*
X217588394Y-119974500D01*
X217588391Y-119974500D01*
X217467549Y-119998536D01*
X217353714Y-120045688D01*
X217251267Y-120114142D01*
X217251263Y-120114145D01*
X217164145Y-120201263D01*
X217164142Y-120201267D01*
X217095688Y-120303714D01*
X217048536Y-120417549D01*
X217024500Y-120538391D01*
X198395380Y-120538391D01*
X198322736Y-120330785D01*
X198174076Y-120022090D01*
X197991789Y-119731982D01*
X197778166Y-119464107D01*
X197535893Y-119221834D01*
X197290199Y-119025900D01*
X197256494Y-118974838D01*
X197259239Y-118913714D01*
X197297387Y-118865877D01*
X197351926Y-118849500D01*
X218950175Y-118849500D01*
X219008366Y-118868407D01*
X219020179Y-118878496D01*
X226346307Y-126204623D01*
X226372968Y-126256950D01*
X226373551Y-126256835D01*
X226373961Y-126258900D01*
X226374084Y-126259140D01*
X226374219Y-126260197D01*
X226398536Y-126382450D01*
X226445688Y-126496285D01*
X226445689Y-126496286D01*
X226514142Y-126598733D01*
X226601267Y-126685858D01*
X226703714Y-126754311D01*
X226817548Y-126801463D01*
X226938394Y-126825500D01*
X226938396Y-126825500D01*
X227061604Y-126825500D01*
X227061606Y-126825500D01*
X227182452Y-126801463D01*
X227296286Y-126754311D01*
X227398733Y-126685858D01*
X227429996Y-126654595D01*
X227484513Y-126626818D01*
X227544945Y-126636389D01*
X227570004Y-126654595D01*
X227601267Y-126685858D01*
X227703714Y-126754311D01*
X227817548Y-126801463D01*
X227938394Y-126825500D01*
X227938396Y-126825500D01*
X228061604Y-126825500D01*
X228061606Y-126825500D01*
X228182452Y-126801463D01*
X228296286Y-126754311D01*
X228398733Y-126685858D01*
X228485858Y-126598733D01*
X228554311Y-126496286D01*
X228601463Y-126382452D01*
X228625500Y-126261606D01*
X228625500Y-126138394D01*
X228601463Y-126017548D01*
X228554311Y-125903714D01*
X228485858Y-125801267D01*
X228398733Y-125714142D01*
X228296286Y-125645689D01*
X228296287Y-125645689D01*
X228296285Y-125645688D01*
X228182450Y-125598536D01*
X228056835Y-125573551D01*
X228057248Y-125571471D01*
X228008861Y-125550302D01*
X228004623Y-125546307D01*
X224129627Y-121671311D01*
X219785824Y-117327507D01*
X219679677Y-117266223D01*
X219561284Y-117234500D01*
X219561282Y-117234500D01*
X178233824Y-117234500D01*
X178175633Y-117215593D01*
X178163820Y-117205504D01*
X171211852Y-110253535D01*
X171146708Y-110188391D01*
X195009500Y-110188391D01*
X195009500Y-110311608D01*
X195033536Y-110432450D01*
X195080688Y-110546285D01*
X195080689Y-110546286D01*
X195149142Y-110648733D01*
X195236267Y-110735858D01*
X195338714Y-110804311D01*
X195452548Y-110851463D01*
X195573394Y-110875500D01*
X195573396Y-110875500D01*
X195696604Y-110875500D01*
X195696606Y-110875500D01*
X195817452Y-110851463D01*
X195931286Y-110804311D01*
X196033733Y-110735858D01*
X196120858Y-110648733D01*
X196189311Y-110546286D01*
X196236463Y-110432452D01*
X196260500Y-110311606D01*
X196260500Y-110188394D01*
X196236463Y-110067548D01*
X196189311Y-109953714D01*
X196120858Y-109851267D01*
X196033733Y-109764142D01*
X195931286Y-109695689D01*
X195931287Y-109695689D01*
X195931285Y-109695688D01*
X195817450Y-109648536D01*
X195696608Y-109624500D01*
X195696606Y-109624500D01*
X195573394Y-109624500D01*
X195573391Y-109624500D01*
X195452549Y-109648536D01*
X195338714Y-109695688D01*
X195236267Y-109764142D01*
X195236263Y-109764145D01*
X195149145Y-109851263D01*
X195149142Y-109851267D01*
X195080688Y-109953714D01*
X195033536Y-110067549D01*
X195009500Y-110188391D01*
X171146708Y-110188391D01*
X165315888Y-104357571D01*
X165300158Y-104337071D01*
X165288493Y-104316866D01*
X165288490Y-104316863D01*
X165201824Y-104230196D01*
X165201824Y-104230197D01*
X165150578Y-104178951D01*
X165123484Y-104128260D01*
X165101463Y-104017550D01*
X165101463Y-104017549D01*
X165101463Y-104017548D01*
X165054311Y-103903714D01*
X164985858Y-103801267D01*
X164898733Y-103714142D01*
X164796286Y-103645689D01*
X164796287Y-103645689D01*
X164796285Y-103645688D01*
X164682450Y-103598536D01*
X164561608Y-103574500D01*
X164561606Y-103574500D01*
X164438394Y-103574500D01*
X164438391Y-103574500D01*
X164317549Y-103598536D01*
X164203714Y-103645688D01*
X164101267Y-103714142D01*
X164101263Y-103714145D01*
X164014145Y-103801263D01*
X164014142Y-103801267D01*
X163945688Y-103903714D01*
X163898536Y-104017549D01*
X163874500Y-104138391D01*
X143412059Y-104138391D01*
X143407455Y-102838391D01*
X166124500Y-102838391D01*
X166124500Y-102961608D01*
X166148536Y-103082450D01*
X166195688Y-103196285D01*
X166195689Y-103196286D01*
X166264142Y-103298733D01*
X166351267Y-103385858D01*
X166453714Y-103454311D01*
X166567548Y-103501463D01*
X166688394Y-103525500D01*
X166688396Y-103525500D01*
X166811604Y-103525500D01*
X166811606Y-103525500D01*
X166932452Y-103501463D01*
X167046286Y-103454311D01*
X167148733Y-103385858D01*
X167235858Y-103298733D01*
X167304311Y-103196286D01*
X167351463Y-103082452D01*
X167375500Y-102961606D01*
X167375500Y-102838394D01*
X167351463Y-102717548D01*
X167304311Y-102603714D01*
X167235858Y-102501267D01*
X167148733Y-102414142D01*
X167080279Y-102368402D01*
X167046285Y-102345688D01*
X166932450Y-102298536D01*
X166811608Y-102274500D01*
X166811606Y-102274500D01*
X166688394Y-102274500D01*
X166688391Y-102274500D01*
X166567549Y-102298536D01*
X166453714Y-102345688D01*
X166351267Y-102414142D01*
X166351263Y-102414145D01*
X166264145Y-102501263D01*
X166264142Y-102501267D01*
X166195688Y-102603714D01*
X166148536Y-102717549D01*
X166124500Y-102838391D01*
X143407455Y-102838391D01*
X143404090Y-101888391D01*
X156353000Y-101888391D01*
X156353000Y-102011608D01*
X156377036Y-102132450D01*
X156424188Y-102246285D01*
X156424189Y-102246286D01*
X156492642Y-102348733D01*
X156579767Y-102435858D01*
X156682214Y-102504311D01*
X156796048Y-102551463D01*
X156916894Y-102575500D01*
X156916896Y-102575500D01*
X157040104Y-102575500D01*
X157040106Y-102575500D01*
X157160952Y-102551463D01*
X157274786Y-102504311D01*
X157377233Y-102435858D01*
X157464358Y-102348733D01*
X157532811Y-102246286D01*
X157579963Y-102132452D01*
X157604000Y-102011606D01*
X157604000Y-101888394D01*
X157579963Y-101767548D01*
X157550445Y-101696285D01*
X157540144Y-101671416D01*
X157532811Y-101653714D01*
X157522572Y-101638391D01*
X190709500Y-101638391D01*
X190709500Y-101761608D01*
X190733536Y-101882450D01*
X190780688Y-101996285D01*
X190800209Y-102025500D01*
X190849142Y-102098733D01*
X190936267Y-102185858D01*
X191038714Y-102254311D01*
X191152548Y-102301463D01*
X191273394Y-102325500D01*
X191273396Y-102325500D01*
X191396604Y-102325500D01*
X191396606Y-102325500D01*
X191517452Y-102301463D01*
X191631286Y-102254311D01*
X191733733Y-102185858D01*
X191820858Y-102098733D01*
X191889311Y-101996286D01*
X191913292Y-101938391D01*
X192374500Y-101938391D01*
X192374500Y-102061608D01*
X192398536Y-102182450D01*
X192445688Y-102296285D01*
X192465209Y-102325500D01*
X192514142Y-102398733D01*
X192601267Y-102485858D01*
X192703714Y-102554311D01*
X192817548Y-102601463D01*
X192938394Y-102625500D01*
X192938396Y-102625500D01*
X193061604Y-102625500D01*
X193061606Y-102625500D01*
X193182452Y-102601463D01*
X193296286Y-102554311D01*
X193398733Y-102485858D01*
X193485858Y-102398733D01*
X193554311Y-102296286D01*
X193601463Y-102182452D01*
X193625500Y-102061606D01*
X193625500Y-101938394D01*
X193601463Y-101817548D01*
X193554311Y-101703714D01*
X193485858Y-101601267D01*
X193398733Y-101514142D01*
X193323903Y-101464142D01*
X193296285Y-101445688D01*
X193182450Y-101398536D01*
X193061608Y-101374500D01*
X193061606Y-101374500D01*
X192938394Y-101374500D01*
X192938391Y-101374500D01*
X192817549Y-101398536D01*
X192703714Y-101445688D01*
X192601267Y-101514142D01*
X192601263Y-101514145D01*
X192514145Y-101601263D01*
X192514142Y-101601267D01*
X192445688Y-101703714D01*
X192398536Y-101817549D01*
X192374500Y-101938391D01*
X191913292Y-101938391D01*
X191936463Y-101882452D01*
X191960500Y-101761606D01*
X191960500Y-101638394D01*
X191936463Y-101517548D01*
X191889311Y-101403714D01*
X191820858Y-101301267D01*
X191733733Y-101214142D01*
X191631286Y-101145689D01*
X191631287Y-101145689D01*
X191631285Y-101145688D01*
X191517450Y-101098536D01*
X191396608Y-101074500D01*
X191396606Y-101074500D01*
X191273394Y-101074500D01*
X191273391Y-101074500D01*
X191152549Y-101098536D01*
X191038714Y-101145688D01*
X190936267Y-101214142D01*
X190936263Y-101214145D01*
X190849145Y-101301263D01*
X190849142Y-101301267D01*
X190780688Y-101403714D01*
X190733536Y-101517549D01*
X190709500Y-101638391D01*
X157522572Y-101638391D01*
X157464358Y-101551267D01*
X157377233Y-101464142D01*
X157308779Y-101418402D01*
X157274785Y-101395688D01*
X157160950Y-101348536D01*
X157040108Y-101324500D01*
X157040106Y-101324500D01*
X156916894Y-101324500D01*
X156916891Y-101324500D01*
X156796049Y-101348536D01*
X156682214Y-101395688D01*
X156579767Y-101464142D01*
X156579763Y-101464145D01*
X156492645Y-101551263D01*
X156492642Y-101551267D01*
X156424188Y-101653714D01*
X156377036Y-101767549D01*
X156353000Y-101888391D01*
X143404090Y-101888391D01*
X143400017Y-100738391D01*
X196274500Y-100738391D01*
X196274500Y-100861608D01*
X196298536Y-100982450D01*
X196345688Y-101096285D01*
X196345689Y-101096286D01*
X196414142Y-101198733D01*
X196501267Y-101285858D01*
X196603714Y-101354311D01*
X196717548Y-101401463D01*
X196838394Y-101425500D01*
X196838396Y-101425500D01*
X196961604Y-101425500D01*
X196961606Y-101425500D01*
X197082452Y-101401463D01*
X197196286Y-101354311D01*
X197220112Y-101338391D01*
X198774500Y-101338391D01*
X198774500Y-101461608D01*
X198798536Y-101582450D01*
X198845688Y-101696285D01*
X198845689Y-101696286D01*
X198914142Y-101798733D01*
X199001267Y-101885858D01*
X199103714Y-101954311D01*
X199217548Y-102001463D01*
X199338394Y-102025500D01*
X199338396Y-102025500D01*
X199461604Y-102025500D01*
X199461606Y-102025500D01*
X199582452Y-102001463D01*
X199696286Y-101954311D01*
X199798733Y-101885858D01*
X199885858Y-101798733D01*
X199954311Y-101696286D01*
X200001463Y-101582452D01*
X200025500Y-101461606D01*
X200025500Y-101338394D01*
X200001463Y-101217548D01*
X199954311Y-101103714D01*
X199885858Y-101001267D01*
X199798733Y-100914142D01*
X199730279Y-100868402D01*
X199696285Y-100845688D01*
X199582450Y-100798536D01*
X199461608Y-100774500D01*
X199461606Y-100774500D01*
X199338394Y-100774500D01*
X199338391Y-100774500D01*
X199217549Y-100798536D01*
X199103714Y-100845688D01*
X199001267Y-100914142D01*
X199001263Y-100914145D01*
X198914145Y-101001263D01*
X198914142Y-101001267D01*
X198845688Y-101103714D01*
X198798536Y-101217549D01*
X198774500Y-101338391D01*
X197220112Y-101338391D01*
X197298733Y-101285858D01*
X197385858Y-101198733D01*
X197454311Y-101096286D01*
X197501463Y-100982452D01*
X197525500Y-100861606D01*
X197525500Y-100738394D01*
X197501463Y-100617548D01*
X197454311Y-100503714D01*
X197385858Y-100401267D01*
X197298733Y-100314142D01*
X197230279Y-100268402D01*
X197196285Y-100245688D01*
X197082450Y-100198536D01*
X196961608Y-100174500D01*
X196961606Y-100174500D01*
X196838394Y-100174500D01*
X196838391Y-100174500D01*
X196717549Y-100198536D01*
X196603714Y-100245688D01*
X196501267Y-100314142D01*
X196501263Y-100314145D01*
X196414145Y-100401263D01*
X196414142Y-100401267D01*
X196345688Y-100503714D01*
X196298536Y-100617549D01*
X196274500Y-100738391D01*
X143400017Y-100738391D01*
X143395808Y-99550187D01*
X195125975Y-99550187D01*
X195125975Y-99673404D01*
X195150011Y-99794246D01*
X195197163Y-99908081D01*
X195197164Y-99908082D01*
X195265617Y-100010529D01*
X195352742Y-100097654D01*
X195455189Y-100166107D01*
X195569023Y-100213259D01*
X195689869Y-100237296D01*
X195689871Y-100237296D01*
X195813079Y-100237296D01*
X195813081Y-100237296D01*
X195933927Y-100213259D01*
X196047761Y-100166107D01*
X196150208Y-100097654D01*
X196237333Y-100010529D01*
X196305786Y-99908082D01*
X196352938Y-99794248D01*
X196376975Y-99673402D01*
X196376975Y-99588391D01*
X198124500Y-99588391D01*
X198124500Y-99711608D01*
X198148536Y-99832450D01*
X198195688Y-99946285D01*
X198195689Y-99946286D01*
X198264142Y-100048733D01*
X198351267Y-100135858D01*
X198453714Y-100204311D01*
X198567548Y-100251463D01*
X198688394Y-100275500D01*
X198688396Y-100275500D01*
X198811604Y-100275500D01*
X198811606Y-100275500D01*
X198932452Y-100251463D01*
X199046286Y-100204311D01*
X199148733Y-100135858D01*
X199235858Y-100048733D01*
X199304311Y-99946286D01*
X199351463Y-99832452D01*
X199375500Y-99711606D01*
X199375500Y-99588394D01*
X199351463Y-99467548D01*
X199304311Y-99353714D01*
X199235858Y-99251267D01*
X199148733Y-99164142D01*
X199080279Y-99118402D01*
X199046285Y-99095688D01*
X198932450Y-99048536D01*
X198811608Y-99024500D01*
X198811606Y-99024500D01*
X198688394Y-99024500D01*
X198688391Y-99024500D01*
X198567549Y-99048536D01*
X198453714Y-99095688D01*
X198351267Y-99164142D01*
X198351263Y-99164145D01*
X198264145Y-99251263D01*
X198264142Y-99251267D01*
X198195688Y-99353714D01*
X198148536Y-99467549D01*
X198124500Y-99588391D01*
X196376975Y-99588391D01*
X196376975Y-99550190D01*
X196352938Y-99429344D01*
X196305786Y-99315510D01*
X196264985Y-99254448D01*
X196248378Y-99195561D01*
X196269556Y-99138158D01*
X196320429Y-99104165D01*
X196327988Y-99102350D01*
X196332452Y-99101463D01*
X196446286Y-99054311D01*
X196548733Y-98985858D01*
X196635858Y-98898733D01*
X196704311Y-98796286D01*
X196751463Y-98682452D01*
X196775500Y-98561606D01*
X196775500Y-98438394D01*
X196751463Y-98317548D01*
X196704311Y-98203714D01*
X196635858Y-98101267D01*
X196635855Y-98101264D01*
X196634579Y-98099354D01*
X196617970Y-98040466D01*
X196639147Y-97983062D01*
X196679009Y-97952888D01*
X196682446Y-97951464D01*
X196682452Y-97951463D01*
X196796286Y-97904311D01*
X196898733Y-97835858D01*
X196985858Y-97748733D01*
X197054311Y-97646286D01*
X197101463Y-97532452D01*
X197125500Y-97411606D01*
X197125500Y-97288394D01*
X197101463Y-97167548D01*
X197054311Y-97053714D01*
X196985858Y-96951267D01*
X196898733Y-96864142D01*
X196796286Y-96795689D01*
X196796287Y-96795689D01*
X196796285Y-96795688D01*
X196682450Y-96748536D01*
X196561608Y-96724500D01*
X196561606Y-96724500D01*
X196438394Y-96724500D01*
X196438391Y-96724500D01*
X196317549Y-96748536D01*
X196203714Y-96795688D01*
X196101267Y-96864142D01*
X196101263Y-96864145D01*
X196014145Y-96951263D01*
X196014142Y-96951267D01*
X195945688Y-97053714D01*
X195898536Y-97167549D01*
X195874500Y-97288391D01*
X195874500Y-97411608D01*
X195898536Y-97532450D01*
X195945688Y-97646285D01*
X195949017Y-97651267D01*
X196014141Y-97748732D01*
X196015420Y-97750645D01*
X196032029Y-97809533D01*
X196010852Y-97866937D01*
X195970991Y-97897111D01*
X195853714Y-97945688D01*
X195751267Y-98014142D01*
X195751263Y-98014145D01*
X195664145Y-98101263D01*
X195664142Y-98101267D01*
X195595688Y-98203714D01*
X195548536Y-98317549D01*
X195524500Y-98438391D01*
X195524500Y-98561608D01*
X195548536Y-98682450D01*
X195595688Y-98796284D01*
X195636488Y-98857346D01*
X195653096Y-98916234D01*
X195631918Y-98973638D01*
X195581044Y-99007630D01*
X195573490Y-99009444D01*
X195569027Y-99010331D01*
X195569025Y-99010332D01*
X195455189Y-99057484D01*
X195352742Y-99125938D01*
X195352738Y-99125941D01*
X195265620Y-99213059D01*
X195265617Y-99213063D01*
X195197163Y-99315510D01*
X195150011Y-99429345D01*
X195125975Y-99550187D01*
X143395808Y-99550187D01*
X143389037Y-97638391D01*
X158374500Y-97638391D01*
X158374500Y-97761608D01*
X158398536Y-97882450D01*
X158445688Y-97996285D01*
X158445689Y-97996286D01*
X158514142Y-98098733D01*
X158514145Y-98098736D01*
X158545405Y-98129996D01*
X158573182Y-98184513D01*
X158563611Y-98244945D01*
X158545405Y-98270004D01*
X158514145Y-98301263D01*
X158514142Y-98301267D01*
X158445688Y-98403714D01*
X158398536Y-98517549D01*
X158374500Y-98638391D01*
X158374500Y-98761608D01*
X158398536Y-98882450D01*
X158445688Y-98996285D01*
X158455074Y-99010332D01*
X158514142Y-99098733D01*
X158601267Y-99185858D01*
X158703714Y-99254311D01*
X158817548Y-99301463D01*
X158938394Y-99325500D01*
X158938396Y-99325500D01*
X159061604Y-99325500D01*
X159061606Y-99325500D01*
X159182452Y-99301463D01*
X159296286Y-99254311D01*
X159398733Y-99185858D01*
X159485858Y-99098733D01*
X159554311Y-98996286D01*
X159601463Y-98882452D01*
X159623805Y-98770126D01*
X159650896Y-98719440D01*
X160290870Y-98079467D01*
X160343454Y-97988391D01*
X191124500Y-97988391D01*
X191124500Y-98111608D01*
X191148536Y-98232450D01*
X191195688Y-98346285D01*
X191195689Y-98346286D01*
X191264142Y-98448733D01*
X191351267Y-98535858D01*
X191453714Y-98604311D01*
X191567548Y-98651463D01*
X191688394Y-98675500D01*
X191688396Y-98675500D01*
X191811604Y-98675500D01*
X191811606Y-98675500D01*
X191932452Y-98651463D01*
X192046286Y-98604311D01*
X192148733Y-98535858D01*
X192235858Y-98448733D01*
X192304311Y-98346286D01*
X192351463Y-98232452D01*
X192375500Y-98111606D01*
X192375500Y-97988394D01*
X192351463Y-97867548D01*
X192304311Y-97753714D01*
X192235858Y-97651267D01*
X192148733Y-97564142D01*
X192046286Y-97495689D01*
X192046287Y-97495689D01*
X192046285Y-97495688D01*
X191932450Y-97448536D01*
X191811608Y-97424500D01*
X191811606Y-97424500D01*
X191688394Y-97424500D01*
X191688391Y-97424500D01*
X191567549Y-97448536D01*
X191453714Y-97495688D01*
X191351267Y-97564142D01*
X191351263Y-97564145D01*
X191264145Y-97651263D01*
X191264142Y-97651267D01*
X191195688Y-97753714D01*
X191148536Y-97867549D01*
X191124500Y-97988391D01*
X160343454Y-97988391D01*
X160353274Y-97971382D01*
X160358230Y-97952888D01*
X160377102Y-97882452D01*
X160385576Y-97850827D01*
X160385576Y-97726021D01*
X160385576Y-97418921D01*
X160404483Y-97360730D01*
X160414572Y-97348917D01*
X162275098Y-95488391D01*
X192474500Y-95488391D01*
X192474500Y-95611608D01*
X192498536Y-95732450D01*
X192545688Y-95846285D01*
X192545689Y-95846286D01*
X192614142Y-95948733D01*
X192701267Y-96035858D01*
X192803714Y-96104311D01*
X192917548Y-96151463D01*
X193038394Y-96175500D01*
X193038396Y-96175500D01*
X193161604Y-96175500D01*
X193161606Y-96175500D01*
X193282452Y-96151463D01*
X193396286Y-96104311D01*
X193498733Y-96035858D01*
X193585858Y-95948733D01*
X193654311Y-95846286D01*
X193701463Y-95732452D01*
X193725500Y-95611606D01*
X193725500Y-95488394D01*
X193717598Y-95448669D01*
X193715554Y-95438391D01*
X199074500Y-95438391D01*
X199074500Y-95561608D01*
X199098536Y-95682450D01*
X199145688Y-95796285D01*
X199155927Y-95811608D01*
X199214142Y-95898733D01*
X199301267Y-95985858D01*
X199403714Y-96054311D01*
X199517548Y-96101463D01*
X199638394Y-96125500D01*
X199638396Y-96125500D01*
X199761604Y-96125500D01*
X199761606Y-96125500D01*
X199882452Y-96101463D01*
X199996286Y-96054311D01*
X200098733Y-95985858D01*
X200185858Y-95898733D01*
X200254311Y-95796286D01*
X200301463Y-95682452D01*
X200325500Y-95561606D01*
X200325500Y-95438394D01*
X200301463Y-95317548D01*
X200254311Y-95203714D01*
X200185858Y-95101267D01*
X200098733Y-95014142D01*
X200029000Y-94967548D01*
X199996285Y-94945688D01*
X199882450Y-94898536D01*
X199761608Y-94874500D01*
X199761606Y-94874500D01*
X199638394Y-94874500D01*
X199638391Y-94874500D01*
X199517549Y-94898536D01*
X199403714Y-94945688D01*
X199301267Y-95014142D01*
X199301263Y-95014145D01*
X199214145Y-95101263D01*
X199214142Y-95101267D01*
X199145688Y-95203714D01*
X199098536Y-95317549D01*
X199074500Y-95438391D01*
X193715554Y-95438391D01*
X193701463Y-95367550D01*
X193701463Y-95367549D01*
X193701463Y-95367548D01*
X193654311Y-95253714D01*
X193585858Y-95151267D01*
X193498733Y-95064142D01*
X193396286Y-94995689D01*
X193396287Y-94995689D01*
X193396285Y-94995688D01*
X193282450Y-94948536D01*
X193161608Y-94924500D01*
X193161606Y-94924500D01*
X193038394Y-94924500D01*
X193038391Y-94924500D01*
X192917549Y-94948536D01*
X192803714Y-94995688D01*
X192701267Y-95064142D01*
X192701263Y-95064145D01*
X192614145Y-95151263D01*
X192614142Y-95151267D01*
X192545688Y-95253714D01*
X192498536Y-95367549D01*
X192474500Y-95488391D01*
X162275098Y-95488391D01*
X164668548Y-93094941D01*
X192331050Y-93094941D01*
X192331050Y-93218158D01*
X192355086Y-93339000D01*
X192402238Y-93452835D01*
X192402239Y-93452836D01*
X192470692Y-93555283D01*
X192557817Y-93642408D01*
X192660264Y-93710861D01*
X192774098Y-93758013D01*
X192894944Y-93782050D01*
X192894946Y-93782050D01*
X193018154Y-93782050D01*
X193018156Y-93782050D01*
X193139002Y-93758013D01*
X193252836Y-93710861D01*
X193355283Y-93642408D01*
X193442408Y-93555283D01*
X193480422Y-93498391D01*
X194734500Y-93498391D01*
X194734500Y-93621608D01*
X194758536Y-93742450D01*
X194805688Y-93856285D01*
X194805689Y-93856286D01*
X194874142Y-93958733D01*
X194961267Y-94045858D01*
X195063714Y-94114311D01*
X195177548Y-94161463D01*
X195298394Y-94185500D01*
X195298396Y-94185500D01*
X195421604Y-94185500D01*
X195421606Y-94185500D01*
X195533345Y-94163274D01*
X195594103Y-94170466D01*
X195639033Y-94211998D01*
X195644120Y-94222486D01*
X195674688Y-94296285D01*
X195674689Y-94296286D01*
X195743142Y-94398733D01*
X195830267Y-94485858D01*
X195932714Y-94554311D01*
X196046548Y-94601463D01*
X196167394Y-94625500D01*
X196167396Y-94625500D01*
X196290604Y-94625500D01*
X196290606Y-94625500D01*
X196411452Y-94601463D01*
X196525286Y-94554311D01*
X196627733Y-94485858D01*
X196714858Y-94398733D01*
X196783311Y-94296286D01*
X196830463Y-94182452D01*
X196854500Y-94061606D01*
X196854500Y-93938394D01*
X196830463Y-93817548D01*
X196783311Y-93703714D01*
X196714858Y-93601267D01*
X196627733Y-93514142D01*
X196559279Y-93468402D01*
X196525285Y-93445688D01*
X196411450Y-93398536D01*
X196290608Y-93374500D01*
X196290606Y-93374500D01*
X196167394Y-93374500D01*
X196167389Y-93374500D01*
X196055656Y-93396725D01*
X195994895Y-93389533D01*
X195949966Y-93348000D01*
X195944879Y-93337512D01*
X195914312Y-93263716D01*
X195914312Y-93263715D01*
X195883868Y-93218153D01*
X195845858Y-93161267D01*
X195758733Y-93074142D01*
X195656286Y-93005689D01*
X195656287Y-93005689D01*
X195656285Y-93005688D01*
X195542450Y-92958536D01*
X195421608Y-92934500D01*
X195421606Y-92934500D01*
X195298394Y-92934500D01*
X195298391Y-92934500D01*
X195177549Y-92958536D01*
X195063714Y-93005688D01*
X194961267Y-93074142D01*
X194961263Y-93074145D01*
X194874145Y-93161263D01*
X194874142Y-93161267D01*
X194805688Y-93263714D01*
X194758536Y-93377549D01*
X194734500Y-93498391D01*
X193480422Y-93498391D01*
X193510861Y-93452836D01*
X193558013Y-93339002D01*
X193582050Y-93218156D01*
X193582050Y-93094944D01*
X193558013Y-92974098D01*
X193510861Y-92860264D01*
X193442408Y-92757817D01*
X193355283Y-92670692D01*
X193252836Y-92602239D01*
X193252837Y-92602239D01*
X193252835Y-92602238D01*
X193139000Y-92555086D01*
X193018158Y-92531050D01*
X193018156Y-92531050D01*
X192894944Y-92531050D01*
X192894941Y-92531050D01*
X192774099Y-92555086D01*
X192660264Y-92602238D01*
X192557817Y-92670692D01*
X192557813Y-92670695D01*
X192470695Y-92757813D01*
X192470692Y-92757817D01*
X192402238Y-92860264D01*
X192355086Y-92974099D01*
X192331050Y-93094941D01*
X164668548Y-93094941D01*
X168125098Y-89638391D01*
X198374500Y-89638391D01*
X198374500Y-89761608D01*
X198398536Y-89882450D01*
X198445688Y-89996285D01*
X198445689Y-89996286D01*
X198514142Y-90098733D01*
X198601267Y-90185858D01*
X198703714Y-90254311D01*
X198817548Y-90301463D01*
X198938394Y-90325500D01*
X198938396Y-90325500D01*
X199061604Y-90325500D01*
X199061606Y-90325500D01*
X199182452Y-90301463D01*
X199296286Y-90254311D01*
X199398733Y-90185858D01*
X199485858Y-90098733D01*
X199554311Y-89996286D01*
X199601463Y-89882452D01*
X199625500Y-89761606D01*
X199625500Y-89638394D01*
X199601463Y-89517548D01*
X199554311Y-89403714D01*
X199498345Y-89319955D01*
X199481737Y-89261070D01*
X199502914Y-89203666D01*
X199553788Y-89169673D01*
X199599974Y-89167858D01*
X199638394Y-89175500D01*
X199638396Y-89175500D01*
X199761604Y-89175500D01*
X199761606Y-89175500D01*
X199882452Y-89151463D01*
X199996286Y-89104311D01*
X200098733Y-89035858D01*
X200185858Y-88948733D01*
X200254311Y-88846286D01*
X200301463Y-88732452D01*
X200325500Y-88611606D01*
X200325500Y-88488394D01*
X200301463Y-88367548D01*
X200254311Y-88253714D01*
X200185858Y-88151267D01*
X200098733Y-88064142D01*
X199996286Y-87995689D01*
X199996287Y-87995689D01*
X199996285Y-87995688D01*
X199940337Y-87972514D01*
X199893812Y-87932777D01*
X199879528Y-87873282D01*
X199902943Y-87816755D01*
X199955112Y-87784785D01*
X199978223Y-87782050D01*
X200018154Y-87782050D01*
X200018156Y-87782050D01*
X200139002Y-87758013D01*
X200252836Y-87710861D01*
X200355283Y-87642408D01*
X200442408Y-87555283D01*
X200510861Y-87452836D01*
X200558013Y-87339002D01*
X200582050Y-87218156D01*
X200582050Y-87094944D01*
X200558013Y-86974098D01*
X200510861Y-86860264D01*
X200442408Y-86757817D01*
X200355283Y-86670692D01*
X200252836Y-86602239D01*
X200252837Y-86602239D01*
X200252835Y-86602238D01*
X200139000Y-86555086D01*
X200018158Y-86531050D01*
X200018156Y-86531050D01*
X199894944Y-86531050D01*
X199894941Y-86531050D01*
X199774099Y-86555086D01*
X199660264Y-86602238D01*
X199557817Y-86670692D01*
X199557813Y-86670695D01*
X199470695Y-86757813D01*
X199470692Y-86757817D01*
X199402238Y-86860264D01*
X199355086Y-86974099D01*
X199331050Y-87094941D01*
X199331050Y-87218158D01*
X199355086Y-87339000D01*
X199402238Y-87452835D01*
X199402239Y-87452836D01*
X199470692Y-87555283D01*
X199557817Y-87642408D01*
X199660264Y-87710861D01*
X199716213Y-87734036D01*
X199762738Y-87773773D01*
X199777022Y-87833268D01*
X199753607Y-87889795D01*
X199701438Y-87921765D01*
X199678327Y-87924500D01*
X199638391Y-87924500D01*
X199517549Y-87948536D01*
X199403714Y-87995688D01*
X199301267Y-88064142D01*
X199301263Y-88064145D01*
X199214145Y-88151263D01*
X199214142Y-88151267D01*
X199145688Y-88253714D01*
X199098536Y-88367549D01*
X199074500Y-88488391D01*
X199074500Y-88611608D01*
X199098536Y-88732450D01*
X199145688Y-88846285D01*
X199145689Y-88846286D01*
X199201653Y-88930042D01*
X199218262Y-88988929D01*
X199197085Y-89046333D01*
X199146211Y-89080326D01*
X199100026Y-89082141D01*
X199061612Y-89074500D01*
X199061606Y-89074500D01*
X198938394Y-89074500D01*
X198938391Y-89074500D01*
X198817549Y-89098536D01*
X198703714Y-89145688D01*
X198601267Y-89214142D01*
X198601263Y-89214145D01*
X198514145Y-89301263D01*
X198514142Y-89301267D01*
X198445688Y-89403714D01*
X198398536Y-89517549D01*
X198374500Y-89638391D01*
X168125098Y-89638391D01*
X169425098Y-88338391D01*
X192524500Y-88338391D01*
X192524500Y-88461608D01*
X192548536Y-88582450D01*
X192595688Y-88696285D01*
X192595689Y-88696286D01*
X192664142Y-88798733D01*
X192751267Y-88885858D01*
X192853714Y-88954311D01*
X192967548Y-89001463D01*
X193088394Y-89025500D01*
X193088396Y-89025500D01*
X193211604Y-89025500D01*
X193211606Y-89025500D01*
X193332452Y-89001463D01*
X193446286Y-88954311D01*
X193548733Y-88885858D01*
X193635858Y-88798733D01*
X193704311Y-88696286D01*
X193751463Y-88582452D01*
X193775500Y-88461606D01*
X193775500Y-88338394D01*
X193751463Y-88217548D01*
X193704311Y-88103714D01*
X193635858Y-88001267D01*
X193548733Y-87914142D01*
X193446286Y-87845689D01*
X193446287Y-87845689D01*
X193446285Y-87845688D01*
X193332450Y-87798536D01*
X193211608Y-87774500D01*
X193211606Y-87774500D01*
X193088394Y-87774500D01*
X193088391Y-87774500D01*
X192967549Y-87798536D01*
X192853714Y-87845688D01*
X192751267Y-87914142D01*
X192751263Y-87914145D01*
X192664145Y-88001263D01*
X192664142Y-88001267D01*
X192595688Y-88103714D01*
X192548536Y-88217549D01*
X192524500Y-88338391D01*
X169425098Y-88338391D01*
X171825098Y-85938391D01*
X195774500Y-85938391D01*
X195774500Y-86061608D01*
X195798536Y-86182450D01*
X195845688Y-86296285D01*
X195845689Y-86296286D01*
X195914142Y-86398733D01*
X196001267Y-86485858D01*
X196103714Y-86554311D01*
X196217548Y-86601463D01*
X196338394Y-86625500D01*
X196338396Y-86625500D01*
X196461604Y-86625500D01*
X196461606Y-86625500D01*
X196582452Y-86601463D01*
X196696286Y-86554311D01*
X196798733Y-86485858D01*
X196885858Y-86398733D01*
X196954311Y-86296286D01*
X197001463Y-86182452D01*
X197025500Y-86061606D01*
X197025500Y-85938394D01*
X197001463Y-85817548D01*
X196954311Y-85703714D01*
X196885858Y-85601267D01*
X196798733Y-85514142D01*
X196696286Y-85445689D01*
X196696287Y-85445689D01*
X196696285Y-85445688D01*
X196582450Y-85398536D01*
X196461608Y-85374500D01*
X196461606Y-85374500D01*
X196338394Y-85374500D01*
X196338391Y-85374500D01*
X196217549Y-85398536D01*
X196103714Y-85445688D01*
X196001267Y-85514142D01*
X196001263Y-85514145D01*
X195914145Y-85601263D01*
X195914142Y-85601267D01*
X195845688Y-85703714D01*
X195798536Y-85817549D01*
X195774500Y-85938391D01*
X171825098Y-85938391D01*
X175375098Y-82388391D01*
X192524500Y-82388391D01*
X192524500Y-82511608D01*
X192548536Y-82632450D01*
X192595688Y-82746285D01*
X192595689Y-82746286D01*
X192664142Y-82848733D01*
X192751267Y-82935858D01*
X192853714Y-83004311D01*
X192967548Y-83051463D01*
X193088394Y-83075500D01*
X193088396Y-83075500D01*
X193211604Y-83075500D01*
X193211606Y-83075500D01*
X193332452Y-83051463D01*
X193446286Y-83004311D01*
X193548733Y-82935858D01*
X193635858Y-82848733D01*
X193704311Y-82746286D01*
X193751463Y-82632452D01*
X193775500Y-82511606D01*
X193775500Y-82388394D01*
X193751463Y-82267548D01*
X193704311Y-82153714D01*
X193635858Y-82051267D01*
X193548733Y-81964142D01*
X193446286Y-81895689D01*
X193446287Y-81895689D01*
X193446285Y-81895688D01*
X193332450Y-81848536D01*
X193211608Y-81824500D01*
X193211606Y-81824500D01*
X193088394Y-81824500D01*
X193088391Y-81824500D01*
X192967549Y-81848536D01*
X192853714Y-81895688D01*
X192751267Y-81964142D01*
X192751263Y-81964145D01*
X192664145Y-82051263D01*
X192664142Y-82051267D01*
X192595688Y-82153714D01*
X192548536Y-82267549D01*
X192524500Y-82388391D01*
X175375098Y-82388391D01*
X176142510Y-81620979D01*
X209084500Y-81620979D01*
X209084500Y-81821020D01*
X209123525Y-82017210D01*
X209123525Y-82017212D01*
X209200074Y-82202019D01*
X209204724Y-82208978D01*
X209311209Y-82368344D01*
X209452656Y-82509791D01*
X209618980Y-82620925D01*
X209803789Y-82697475D01*
X209999982Y-82736500D01*
X209999983Y-82736500D01*
X210200017Y-82736500D01*
X210200018Y-82736500D01*
X210396211Y-82697475D01*
X210581020Y-82620925D01*
X210747344Y-82509791D01*
X210888791Y-82368344D01*
X210999925Y-82202020D01*
X211076475Y-82017211D01*
X211115500Y-81821018D01*
X211115500Y-81645602D01*
X233534500Y-81645602D01*
X233534500Y-81796397D01*
X233563918Y-81944287D01*
X233563918Y-81944289D01*
X233621621Y-82083597D01*
X233701336Y-82202901D01*
X233705397Y-82208978D01*
X233812022Y-82315603D01*
X233937400Y-82399377D01*
X234076712Y-82457082D01*
X234224605Y-82486500D01*
X234224606Y-82486500D01*
X234375394Y-82486500D01*
X234375395Y-82486500D01*
X234523288Y-82457082D01*
X234662600Y-82399377D01*
X234787978Y-82315603D01*
X234894603Y-82208978D01*
X234978377Y-82083600D01*
X235036082Y-81944288D01*
X235065500Y-81796395D01*
X235065500Y-81645605D01*
X235036082Y-81497712D01*
X234978377Y-81358400D01*
X234894603Y-81233022D01*
X234787978Y-81126397D01*
X234767667Y-81112826D01*
X234662597Y-81042621D01*
X234523288Y-80984918D01*
X234375397Y-80955500D01*
X234375395Y-80955500D01*
X234224605Y-80955500D01*
X234224602Y-80955500D01*
X234076712Y-80984918D01*
X234076710Y-80984918D01*
X233937402Y-81042621D01*
X233812025Y-81126394D01*
X233705394Y-81233025D01*
X233621621Y-81358402D01*
X233563918Y-81497710D01*
X233563918Y-81497712D01*
X233534500Y-81645602D01*
X211115500Y-81645602D01*
X211115500Y-81620982D01*
X211076475Y-81424789D01*
X210999925Y-81239980D01*
X210888791Y-81073656D01*
X210747344Y-80932209D01*
X210581020Y-80821075D01*
X210581021Y-80821075D01*
X210581019Y-80821074D01*
X210396211Y-80744525D01*
X210200020Y-80705500D01*
X210200018Y-80705500D01*
X209999982Y-80705500D01*
X209999979Y-80705500D01*
X209803789Y-80744525D01*
X209803787Y-80744525D01*
X209618980Y-80821074D01*
X209452656Y-80932209D01*
X209452652Y-80932212D01*
X209311212Y-81073652D01*
X209311209Y-81073656D01*
X209200074Y-81239980D01*
X209123525Y-81424787D01*
X209123525Y-81424789D01*
X209084500Y-81620979D01*
X176142510Y-81620979D01*
X179532493Y-78230996D01*
X179587010Y-78203219D01*
X179602497Y-78202000D01*
X236477503Y-78202000D01*
X236535694Y-78220907D01*
X236547507Y-78230996D01*
X238517504Y-80200993D01*
X238545281Y-80255510D01*
X238546500Y-80270997D01*
X238546500Y-82078097D01*
X238546500Y-82202903D01*
X238576698Y-82315605D01*
X238578803Y-82323460D01*
X238641204Y-82431541D01*
X238641206Y-82431543D01*
X238910324Y-82700662D01*
X238938101Y-82755178D01*
X238928531Y-82815607D01*
X238916116Y-82839973D01*
X238855289Y-83027178D01*
X238824500Y-83221579D01*
X238824500Y-83418420D01*
X238855289Y-83612821D01*
X238855291Y-83612826D01*
X238916116Y-83800025D01*
X239005476Y-83975405D01*
X239121172Y-84134646D01*
X239260354Y-84273828D01*
X239419595Y-84389524D01*
X239419597Y-84389525D01*
X239422742Y-84391810D01*
X239422040Y-84392776D01*
X239458634Y-84435620D01*
X239463438Y-84496616D01*
X239431471Y-84548786D01*
X239377357Y-84571205D01*
X239377410Y-84571493D01*
X239376073Y-84571737D01*
X239374949Y-84572203D01*
X239372441Y-84572400D01*
X239372432Y-84572401D01*
X239372431Y-84572402D01*
X239372429Y-84572402D01*
X239372427Y-84572403D01*
X239214602Y-84618256D01*
X239073136Y-84701918D01*
X238956918Y-84818136D01*
X238873256Y-84959602D01*
X238827403Y-85117427D01*
X238827401Y-85117434D01*
X238824500Y-85154311D01*
X238824500Y-86485688D01*
X238827401Y-86522565D01*
X238827401Y-86522568D01*
X238827402Y-86522569D01*
X238873256Y-86680398D01*
X238956919Y-86821865D01*
X239073135Y-86938081D01*
X239214602Y-87021744D01*
X239372431Y-87067598D01*
X239409306Y-87070500D01*
X239409311Y-87070500D01*
X240990689Y-87070500D01*
X240990694Y-87070500D01*
X241027569Y-87067598D01*
X241185398Y-87021744D01*
X241326865Y-86938081D01*
X241443081Y-86821865D01*
X241526744Y-86680398D01*
X241572598Y-86522569D01*
X241575500Y-86485694D01*
X241575500Y-85154306D01*
X241572598Y-85117431D01*
X241526744Y-84959602D01*
X241443081Y-84818135D01*
X241326865Y-84701919D01*
X241185398Y-84618256D01*
X241027569Y-84572402D01*
X241027566Y-84572401D01*
X241027558Y-84572400D01*
X241025051Y-84572203D01*
X241023926Y-84571737D01*
X241022590Y-84571493D01*
X241022642Y-84571205D01*
X240968525Y-84548784D01*
X240936560Y-84496612D01*
X240941366Y-84435616D01*
X240977960Y-84392776D01*
X240977258Y-84391810D01*
X240980402Y-84389525D01*
X240980405Y-84389524D01*
X241139646Y-84273828D01*
X241278828Y-84134646D01*
X241394524Y-83975405D01*
X241483884Y-83800025D01*
X241544709Y-83612826D01*
X241575500Y-83418417D01*
X241575500Y-83221583D01*
X241575500Y-83221579D01*
X241544710Y-83027178D01*
X241515037Y-82935854D01*
X241483884Y-82839975D01*
X241394524Y-82664595D01*
X241278828Y-82505354D01*
X241139646Y-82366172D01*
X240980405Y-82250476D01*
X240980404Y-82250475D01*
X240980402Y-82250474D01*
X240801559Y-82159350D01*
X240802115Y-82158257D01*
X240759345Y-82121736D01*
X240745055Y-82062243D01*
X240768464Y-82005712D01*
X240801937Y-81981392D01*
X240801559Y-81980650D01*
X240872922Y-81944289D01*
X240980405Y-81889524D01*
X241139646Y-81773828D01*
X241278828Y-81634646D01*
X241394524Y-81475405D01*
X241483884Y-81300025D01*
X241544709Y-81112826D01*
X241550913Y-81073656D01*
X241575500Y-80918420D01*
X241575500Y-80721579D01*
X241544710Y-80527178D01*
X241544709Y-80527174D01*
X241483884Y-80339975D01*
X241394524Y-80164595D01*
X241278828Y-80005354D01*
X241139646Y-79866172D01*
X240980405Y-79750476D01*
X240980401Y-79750473D01*
X240980394Y-79750469D01*
X240917716Y-79718533D01*
X240874451Y-79675269D01*
X240864880Y-79614837D01*
X240892658Y-79560320D01*
X240917717Y-79542114D01*
X241036741Y-79481469D01*
X241036752Y-79481462D01*
X241209671Y-79355828D01*
X241360828Y-79204671D01*
X241486462Y-79031752D01*
X241486466Y-79031746D01*
X241583508Y-78841289D01*
X241649561Y-78637996D01*
X241659698Y-78574000D01*
X240601836Y-78574000D01*
X240642630Y-78503343D01*
X240675000Y-78382535D01*
X240675000Y-78257465D01*
X240642630Y-78136657D01*
X240601836Y-78066000D01*
X241659698Y-78066000D01*
X241659698Y-78065999D01*
X241649561Y-78002003D01*
X241583508Y-77798710D01*
X241486466Y-77608253D01*
X241486462Y-77608247D01*
X241360828Y-77435328D01*
X241209671Y-77284171D01*
X241036752Y-77158537D01*
X241036746Y-77158533D01*
X240846289Y-77061491D01*
X240642997Y-76995438D01*
X240454000Y-76965503D01*
X240454000Y-77918163D01*
X240383343Y-77877370D01*
X240262535Y-77845000D01*
X240137465Y-77845000D01*
X240016657Y-77877370D01*
X239946000Y-77918163D01*
X239946000Y-76965503D01*
X239945999Y-76965503D01*
X239757002Y-76995438D01*
X239553710Y-77061491D01*
X239363253Y-77158533D01*
X239363247Y-77158537D01*
X239190328Y-77284171D01*
X239039171Y-77435328D01*
X238913537Y-77608247D01*
X238913533Y-77608253D01*
X238816491Y-77798710D01*
X238750438Y-78002003D01*
X238740301Y-78065999D01*
X238740302Y-78066000D01*
X239798164Y-78066000D01*
X239757370Y-78136657D01*
X239725000Y-78257465D01*
X239725000Y-78382535D01*
X239757370Y-78503343D01*
X239798164Y-78574000D01*
X238725607Y-78574000D01*
X238704267Y-78587077D01*
X238643270Y-78582276D01*
X238611153Y-78560816D01*
X238215931Y-78165594D01*
X237849047Y-77798710D01*
X237121043Y-77070706D01*
X237121036Y-77070702D01*
X237012960Y-77008303D01*
X237012959Y-77008302D01*
X237012958Y-77008302D01*
X236892403Y-76976000D01*
X179312403Y-76976000D01*
X179187597Y-76976000D01*
X179115053Y-76995438D01*
X179067038Y-77008303D01*
X178958961Y-77070702D01*
X178958960Y-77070703D01*
X158980561Y-97049101D01*
X158929871Y-97076195D01*
X158817549Y-97098536D01*
X158703714Y-97145688D01*
X158601267Y-97214142D01*
X158601263Y-97214145D01*
X158514145Y-97301263D01*
X158514142Y-97301267D01*
X158445688Y-97403714D01*
X158398536Y-97517549D01*
X158374500Y-97638391D01*
X143389037Y-97638391D01*
X143382130Y-95688391D01*
X156724500Y-95688391D01*
X156724500Y-95811608D01*
X156748536Y-95932450D01*
X156795688Y-96046285D01*
X156795689Y-96046286D01*
X156864142Y-96148733D01*
X156951267Y-96235858D01*
X157053714Y-96304311D01*
X157167548Y-96351463D01*
X157288394Y-96375500D01*
X157288396Y-96375500D01*
X157411604Y-96375500D01*
X157411606Y-96375500D01*
X157532452Y-96351463D01*
X157646286Y-96304311D01*
X157748733Y-96235858D01*
X157835858Y-96148733D01*
X157904311Y-96046286D01*
X157951463Y-95932452D01*
X157975500Y-95811606D01*
X157975500Y-95688394D01*
X157951463Y-95567548D01*
X157941795Y-95544210D01*
X157936995Y-95483215D01*
X157950946Y-95451320D01*
X157954311Y-95446286D01*
X158001463Y-95332452D01*
X158025500Y-95211606D01*
X158025500Y-95088394D01*
X158001463Y-94967548D01*
X157954311Y-94853714D01*
X157885858Y-94751267D01*
X157798733Y-94664142D01*
X157730279Y-94618402D01*
X157696285Y-94595688D01*
X157582450Y-94548536D01*
X157461608Y-94524500D01*
X157461606Y-94524500D01*
X157338394Y-94524500D01*
X157338391Y-94524500D01*
X157217549Y-94548536D01*
X157103714Y-94595688D01*
X157001267Y-94664142D01*
X157001263Y-94664145D01*
X156914145Y-94751263D01*
X156914142Y-94751267D01*
X156845688Y-94853714D01*
X156798536Y-94967549D01*
X156774500Y-95088391D01*
X156774500Y-95211608D01*
X156798536Y-95332449D01*
X156798539Y-95332459D01*
X156808203Y-95355789D01*
X156813004Y-95416786D01*
X156799059Y-95448669D01*
X156795689Y-95453712D01*
X156748536Y-95567549D01*
X156724500Y-95688391D01*
X143382130Y-95688391D01*
X143306864Y-74438152D01*
X143325565Y-74379897D01*
X143374937Y-74343758D01*
X143436122Y-74343542D01*
X143448819Y-74348608D01*
X143460639Y-74354301D01*
X143591810Y-74400199D01*
X143741627Y-74452623D01*
X143741630Y-74452623D01*
X143741631Y-74452624D01*
X144031865Y-74518868D01*
X144111636Y-74527856D01*
X144327674Y-74552199D01*
X144327690Y-74552199D01*
X144327691Y-74552200D01*
X144327692Y-74552200D01*
X144625388Y-74552200D01*
X144625389Y-74552200D01*
X144625390Y-74552199D01*
X144625405Y-74552199D01*
X144814852Y-74530852D01*
X144921215Y-74518868D01*
X145211449Y-74452624D01*
X145492441Y-74354301D01*
X145760657Y-74225135D01*
X146012725Y-74066750D01*
X146245474Y-73881138D01*
X146455978Y-73670634D01*
X146641590Y-73437885D01*
X146799975Y-73185817D01*
X146929141Y-72917601D01*
X147027464Y-72636609D01*
X147093708Y-72346375D01*
X147112387Y-72180598D01*
X147127039Y-72050565D01*
X147127040Y-72050548D01*
X147127040Y-71752851D01*
X147127039Y-71752834D01*
X147093708Y-71457028D01*
X147093707Y-71457022D01*
X147027463Y-71166787D01*
X146961188Y-70977384D01*
X146929141Y-70885799D01*
X146866181Y-70755061D01*
X146811712Y-70641954D01*
X146803499Y-70581323D01*
X146832493Y-70527443D01*
X146887619Y-70500896D01*
X146900908Y-70500000D01*
X161265130Y-70500000D01*
X161323321Y-70518907D01*
G37*
%TD.AperFunction*%
%TD*%
M02*
