%TF.GenerationSoftware,KiCad,Pcbnew,9.0.1*%
%TF.CreationDate,2025-05-16T02:44:54-04:00*%
%TF.ProjectId,CM5IO,434d3549-4f2e-46b6-9963-61645f706362,rev?*%
%TF.SameCoordinates,Original*%
%TF.FileFunction,Legend,Bot*%
%TF.FilePolarity,Positive*%
%FSLAX46Y46*%
G04 Gerber Fmt 4.6, Leading zero omitted, Abs format (unit mm)*
G04 Created by KiCad (PCBNEW 9.0.1) date 2025-05-16 02:44:54*
%MOMM*%
%LPD*%
G01*
G04 APERTURE LIST*
%ADD10C,0.508000*%
%ADD11C,5.300000*%
%ADD12C,1.320800*%
%ADD13C,1.574800*%
%ADD14C,1.600000*%
%ADD15C,1.100000*%
%ADD16C,1.066800*%
%ADD17C,1.650000*%
%ADD18C,1.150000*%
%ADD19C,6.100000*%
%ADD20C,1.000000*%
%ADD21C,2.500000*%
G04 APERTURE END LIST*
D10*
%TO.C,J2*%
X207602301Y-158335200D02*
G75*
G02*
X206840301Y-158335200I-381000J0D01*
G01*
X206840301Y-158335200D02*
G75*
G02*
X207602301Y-158335200I381000J0D01*
G01*
%TO.C,J7*%
X239989699Y-76884800D02*
G75*
G02*
X239227699Y-76884800I-381000J0D01*
G01*
X239227699Y-76884800D02*
G75*
G02*
X239989699Y-76884800I381000J0D01*
G01*
%TO.C,J6*%
X163881602Y-156340000D02*
G75*
G02*
X163119602Y-156340000I-381000J0D01*
G01*
X163119602Y-156340000D02*
G75*
G02*
X163881602Y-156340000I381000J0D01*
G01*
%TD*%
%LPC*%
D11*
%TO.C,H2*%
X144974874Y-156225126D03*
%TD*%
%TO.C,H3*%
X144476540Y-71901700D03*
%TD*%
%TO.C,H6*%
X239800000Y-72400000D03*
%TD*%
%TO.C,H8*%
X240010000Y-156360000D03*
%TD*%
D12*
%TO.C,J2*%
X205261300Y-142250000D03*
X205261300Y-157250000D03*
D13*
X207221301Y-154249999D03*
X207221301Y-151250000D03*
X207221301Y-148250000D03*
X207221301Y-145250001D03*
%TD*%
D14*
%TO.C,J1*%
X230160000Y-76530000D03*
D15*
X205160000Y-76530000D03*
%TD*%
D12*
%TO.C,J7*%
X241568700Y-92970000D03*
X241568700Y-77970000D03*
D13*
X239608699Y-80970001D03*
X239608699Y-83970000D03*
X239608699Y-86970000D03*
X239608699Y-89969999D03*
%TD*%
D16*
%TO.C,J6*%
X150160004Y-152400000D03*
X162160000Y-152400000D03*
D13*
X159160001Y-156340000D03*
X156160002Y-156340000D03*
X153160003Y-156340000D03*
X159160001Y-153340001D03*
X156160002Y-153340001D03*
X153160003Y-153340001D03*
%TD*%
D17*
%TO.C,MC1*%
X229760000Y-126930000D03*
D18*
X205560000Y-126930000D03*
%TD*%
D19*
%TO.C,Module1*%
X162500000Y-73500000D03*
X162500000Y-121500000D03*
X195500000Y-73500000D03*
X195500000Y-121500000D03*
%TD*%
D20*
%TO.C,J5*%
X174930000Y-151600000D03*
X172430000Y-151600000D03*
X170430000Y-151600000D03*
X167930000Y-151600000D03*
X167430000Y-153100000D03*
X169430000Y-153100000D03*
X171430000Y-153100000D03*
X173430000Y-153100000D03*
X175430000Y-153100000D03*
D21*
X178000000Y-151700000D03*
X164860000Y-151700000D03*
%TD*%
%LPD*%
M02*
