%TF.GenerationSoftware,KiCad,Pcbnew,9.0.1*%
%TF.CreationDate,2025-06-02T23:27:56-04:00*%
%TF.ProjectId,CM5IO,434d3549-4f2e-46b6-9963-61645f706362,rev?*%
%TF.SameCoordinates,Original*%
%TF.FileFunction,Copper,L3,Inr*%
%TF.FilePolarity,Positive*%
%FSLAX46Y46*%
G04 Gerber Fmt 4.6, Leading zero omitted, Abs format (unit mm)*
G04 Created by KiCad (PCBNEW 9.0.1) date 2025-06-02 23:27:56*
%MOMM*%
%LPD*%
G01*
G04 APERTURE LIST*
G04 Aperture macros list*
%AMRoundRect*
0 Rectangle with rounded corners*
0 $1 Rounding radius*
0 $2 $3 $4 $5 $6 $7 $8 $9 X,Y pos of 4 corners*
0 Add a 4 corners polygon primitive as box body*
4,1,4,$2,$3,$4,$5,$6,$7,$8,$9,$2,$3,0*
0 Add four circle primitives for the rounded corners*
1,1,$1+$1,$2,$3*
1,1,$1+$1,$4,$5*
1,1,$1+$1,$6,$7*
1,1,$1+$1,$8,$9*
0 Add four rect primitives between the rounded corners*
20,1,$1+$1,$2,$3,$4,$5,0*
20,1,$1+$1,$4,$5,$6,$7,0*
20,1,$1+$1,$6,$7,$8,$9,0*
20,1,$1+$1,$8,$9,$2,$3,0*%
G04 Aperture macros list end*
%TA.AperFunction,ComponentPad*%
%ADD10C,1.574800*%
%TD*%
%TA.AperFunction,ComponentPad*%
%ADD11RoundRect,0.250001X-0.499999X-0.759999X0.499999X-0.759999X0.499999X0.759999X-0.499999X0.759999X0*%
%TD*%
%TA.AperFunction,ComponentPad*%
%ADD12O,1.500000X2.020000*%
%TD*%
%TA.AperFunction,ComponentPad*%
%ADD13RoundRect,0.250001X0.499999X0.759999X-0.499999X0.759999X-0.499999X-0.759999X0.499999X-0.759999X0*%
%TD*%
%TA.AperFunction,ComponentPad*%
%ADD14C,1.000000*%
%TD*%
%TA.AperFunction,ComponentPad*%
%ADD15C,2.500000*%
%TD*%
%TA.AperFunction,ViaPad*%
%ADD16C,0.450000*%
%TD*%
G04 APERTURE END LIST*
D10*
%TO.N,/+5v*%
%TO.C,J2*%
X207221301Y-154249999D03*
%TO.N,GND*%
X207221301Y-151250000D03*
X207221301Y-148250000D03*
%TO.N,/+5v*%
X207221301Y-145250001D03*
%TD*%
%TO.N,/CM5_HighSpeed/VBUS*%
%TO.C,J7*%
X239608699Y-80970001D03*
%TO.N,/CM5_HighSpeed/USB3-0-D_P*%
X239608699Y-83970000D03*
%TO.N,/CM5_HighSpeed/USB3-0-D_N*%
X239608699Y-86970000D03*
%TO.N,GND*%
X239608699Y-89969999D03*
%TD*%
D11*
%TO.N,/CM5_GPIO ( Ethernet\u002C GPIO\u002C SDCARD)/Audio/RN*%
%TO.C,J6*%
X152680000Y-154710000D03*
D12*
%TO.N,GND*%
X155680000Y-154710000D03*
%TO.N,/CM5_GPIO ( Ethernet\u002C GPIO\u002C SDCARD)/Audio/RP*%
X158680000Y-154710000D03*
%TD*%
D13*
%TO.N,/CM5_GPIO ( Ethernet\u002C GPIO\u002C SDCARD)/Audio/LP*%
%TO.C,J3*%
X158700000Y-148020000D03*
D12*
%TO.N,GND*%
X155700000Y-148020000D03*
%TO.N,/CM5_GPIO ( Ethernet\u002C GPIO\u002C SDCARD)/Audio/LN*%
X152700000Y-148020000D03*
%TD*%
D14*
%TO.N,/CM5_HighSpeed/VBUS*%
%TO.C,J5*%
X174930000Y-151600000D03*
%TO.N,/CM5_HighSpeed/USB3-1-D_P*%
X172430000Y-151600000D03*
%TO.N,/CM5_HighSpeed/USB3-1-D_N*%
X170430000Y-151600000D03*
%TO.N,GND*%
X167930000Y-151600000D03*
%TO.N,/CM5_HighSpeed/USB3-1-RX_N*%
X167430000Y-153100000D03*
%TO.N,/CM5_HighSpeed/USB3-1-RX_P*%
X169430000Y-153100000D03*
%TO.N,GND*%
X171430000Y-153100000D03*
%TO.N,/CM5_HighSpeed/USB3-1-TX_N*%
X173430000Y-153100000D03*
%TO.N,/CM5_HighSpeed/USB3-1-TX_P*%
X175430000Y-153100000D03*
D15*
%TO.N,N/C*%
X178000000Y-151700000D03*
X164860000Y-151700000D03*
%TD*%
D16*
%TO.N,GND*%
X195370000Y-110320000D03*
X213620000Y-121860000D03*
X218420000Y-141010000D03*
X157820000Y-89890000D03*
X218030000Y-144710000D03*
X165830000Y-109430000D03*
X168090000Y-96640000D03*
X159300000Y-100400000D03*
X166680000Y-104360000D03*
X225210000Y-141660000D03*
X204710000Y-81080000D03*
%TO.N,/Cellular/SIM_VDD*%
X227934600Y-136189600D03*
X226660000Y-80630000D03*
%TO.N,/CM5_HighSpeed/VBUS*%
X189500000Y-134700000D03*
%TO.N,/Cellular/M2_3v3*%
X205860000Y-80630000D03*
X210260000Y-72430000D03*
X229060000Y-80630000D03*
X211060000Y-72430000D03*
X197370000Y-127545000D03*
X217060000Y-80630000D03*
%TO.N,/+3.3v*%
X164970000Y-106780000D03*
X166060000Y-136990000D03*
X157010000Y-99550000D03*
X164510000Y-106790000D03*
X163530000Y-136960000D03*
%TO.N,/Cellular/LED_WWAN*%
X209860000Y-80630000D03*
X233647807Y-82852722D03*
%TO.N,/+5v*%
X190700000Y-150080000D03*
X203563876Y-147793876D03*
X159310000Y-106270000D03*
X153030000Y-95650000D03*
X159510000Y-105300000D03*
X159450000Y-105770000D03*
X159500000Y-107220000D03*
X203512427Y-152427573D03*
X159470000Y-106730000D03*
X159650000Y-107710000D03*
X189387500Y-129700000D03*
%TO.N,/Cellular/SIM_DATA*%
X224581000Y-136138800D03*
X225860000Y-80630000D03*
%TO.N,/Cellular/SIM_CLK*%
X225060000Y-80630000D03*
X219425800Y-136138800D03*
%TO.N,/CM5_GPIO ( Ethernet\u002C GPIO\u002C SDCARD)/TACHO*%
X148040000Y-94500000D03*
X164790000Y-93170000D03*
%TO.N,/Cellular/SIM_RST*%
X215869800Y-136138800D03*
X224260000Y-80630000D03*
%TO.N,/CM5_GPIO ( Ethernet\u002C GPIO\u002C SDCARD)/nPWR_LED*%
X158310000Y-98082682D03*
X154700000Y-97950000D03*
%TO.N,/CM5_HighSpeed/PCIE_PWR_EN*%
X191930000Y-138830000D03*
X199320000Y-91330000D03*
%TD*%
%TA.AperFunction,Conductor*%
%TO.N,GND*%
G36*
X161323321Y-70518907D02*
G01*
X161359285Y-70568407D01*
X161359285Y-70629593D01*
X161323321Y-70679093D01*
X161308085Y-70688196D01*
X161022097Y-70825920D01*
X161022092Y-70825923D01*
X160731981Y-71008211D01*
X160464108Y-71221833D01*
X160221833Y-71464108D01*
X160008211Y-71731981D01*
X159825923Y-72022092D01*
X159825916Y-72022104D01*
X159677264Y-72330784D01*
X159677263Y-72330786D01*
X159564103Y-72654179D01*
X159487860Y-72988218D01*
X159449500Y-73328686D01*
X159449500Y-73671313D01*
X159487860Y-74011781D01*
X159564103Y-74345820D01*
X159677263Y-74669213D01*
X159677264Y-74669215D01*
X159825916Y-74977895D01*
X159825920Y-74977902D01*
X159825924Y-74977910D01*
X160008211Y-75268018D01*
X160221834Y-75535893D01*
X160464107Y-75778166D01*
X160731982Y-75991789D01*
X161022090Y-76174076D01*
X161022101Y-76174081D01*
X161022104Y-76174083D01*
X161032817Y-76179242D01*
X161330785Y-76322736D01*
X161433731Y-76358758D01*
X161654179Y-76435896D01*
X161654182Y-76435896D01*
X161654183Y-76435897D01*
X161988217Y-76512139D01*
X162328688Y-76550500D01*
X162328689Y-76550500D01*
X162671311Y-76550500D01*
X162671312Y-76550500D01*
X163011783Y-76512139D01*
X163345817Y-76435897D01*
X163669215Y-76322736D01*
X163977910Y-76174076D01*
X164268018Y-75991789D01*
X164535893Y-75778166D01*
X164778166Y-75535893D01*
X164991789Y-75268018D01*
X165174076Y-74977910D01*
X165322736Y-74669215D01*
X165435897Y-74345817D01*
X165512139Y-74011783D01*
X165550500Y-73671312D01*
X165550500Y-73328688D01*
X165512139Y-72988217D01*
X165435897Y-72654183D01*
X165322736Y-72330785D01*
X165223471Y-72124660D01*
X165174083Y-72022104D01*
X165174081Y-72022101D01*
X165174076Y-72022090D01*
X164991789Y-71731982D01*
X164778166Y-71464107D01*
X164535893Y-71221834D01*
X164268018Y-71008211D01*
X163977910Y-70825924D01*
X163691914Y-70688195D01*
X163647691Y-70645913D01*
X163636766Y-70585711D01*
X163663313Y-70530585D01*
X163717193Y-70501591D01*
X163734870Y-70500000D01*
X175901000Y-70500000D01*
X175959191Y-70518907D01*
X175995155Y-70568407D01*
X176000000Y-70599000D01*
X176000000Y-76500000D01*
X191999999Y-76500000D01*
X192000000Y-76500000D01*
X192000000Y-70599000D01*
X192018907Y-70540809D01*
X192068407Y-70504845D01*
X192099000Y-70500000D01*
X194265130Y-70500000D01*
X194323321Y-70518907D01*
X194359285Y-70568407D01*
X194359285Y-70629593D01*
X194323321Y-70679093D01*
X194308085Y-70688196D01*
X194022097Y-70825920D01*
X194022092Y-70825923D01*
X193731981Y-71008211D01*
X193464108Y-71221833D01*
X193221833Y-71464108D01*
X193008211Y-71731981D01*
X192825923Y-72022092D01*
X192825916Y-72022104D01*
X192677264Y-72330784D01*
X192677263Y-72330786D01*
X192564103Y-72654179D01*
X192487860Y-72988218D01*
X192449500Y-73328686D01*
X192449500Y-73671313D01*
X192487860Y-74011781D01*
X192564103Y-74345820D01*
X192677263Y-74669213D01*
X192677264Y-74669215D01*
X192825916Y-74977895D01*
X192825920Y-74977902D01*
X192825924Y-74977910D01*
X193008211Y-75268018D01*
X193221834Y-75535893D01*
X193464107Y-75778166D01*
X193731982Y-75991789D01*
X194022090Y-76174076D01*
X194022101Y-76174081D01*
X194022104Y-76174083D01*
X194032817Y-76179242D01*
X194330785Y-76322736D01*
X194433731Y-76358758D01*
X194654179Y-76435896D01*
X194654182Y-76435896D01*
X194654183Y-76435897D01*
X194988217Y-76512139D01*
X195328688Y-76550500D01*
X195328689Y-76550500D01*
X195671311Y-76550500D01*
X195671312Y-76550500D01*
X196011783Y-76512139D01*
X196253079Y-76457064D01*
X204419500Y-76457064D01*
X204419500Y-76602935D01*
X204447957Y-76745995D01*
X204447957Y-76745997D01*
X204503775Y-76880755D01*
X204503775Y-76880756D01*
X204544157Y-76941191D01*
X204584816Y-77002041D01*
X204687959Y-77105184D01*
X204809242Y-77186223D01*
X204944004Y-77242043D01*
X205087067Y-77270500D01*
X205087068Y-77270500D01*
X205232932Y-77270500D01*
X205232933Y-77270500D01*
X205375996Y-77242043D01*
X205510758Y-77186223D01*
X205632041Y-77105184D01*
X205735184Y-77002041D01*
X205816223Y-76880758D01*
X205872043Y-76745996D01*
X205900500Y-76602933D01*
X205900500Y-76457067D01*
X205900499Y-76457065D01*
X205900499Y-76457059D01*
X205898477Y-76446892D01*
X205895602Y-76432441D01*
X229169500Y-76432441D01*
X229169500Y-76627558D01*
X229207564Y-76818917D01*
X229207564Y-76818919D01*
X229282227Y-76999173D01*
X229282233Y-76999185D01*
X229353058Y-77105180D01*
X229390628Y-77161407D01*
X229528593Y-77299372D01*
X229597757Y-77345586D01*
X229690814Y-77407766D01*
X229690826Y-77407772D01*
X229738645Y-77427579D01*
X229871082Y-77482436D01*
X230062444Y-77520500D01*
X230062445Y-77520500D01*
X230257555Y-77520500D01*
X230257556Y-77520500D01*
X230448918Y-77482436D01*
X230629178Y-77407770D01*
X230629180Y-77407768D01*
X230629185Y-77407766D01*
X230676026Y-77376466D01*
X230791407Y-77299372D01*
X230929372Y-77161407D01*
X231012713Y-77036678D01*
X231037766Y-76999185D01*
X231037772Y-76999173D01*
X231086821Y-76880758D01*
X231112436Y-76818918D01*
X231150500Y-76627556D01*
X231150500Y-76432444D01*
X231112436Y-76241082D01*
X231037770Y-76060822D01*
X231037766Y-76060814D01*
X230966939Y-75954816D01*
X230929372Y-75898593D01*
X230791407Y-75760628D01*
X230745191Y-75729747D01*
X230629185Y-75652233D01*
X230629173Y-75652227D01*
X230448918Y-75577564D01*
X230257558Y-75539500D01*
X230257556Y-75539500D01*
X230062444Y-75539500D01*
X230062441Y-75539500D01*
X229871082Y-75577564D01*
X229871080Y-75577564D01*
X229690826Y-75652227D01*
X229690814Y-75652233D01*
X229528593Y-75760628D01*
X229528589Y-75760631D01*
X229390631Y-75898589D01*
X229390628Y-75898593D01*
X229282233Y-76060814D01*
X229282227Y-76060826D01*
X229207564Y-76241080D01*
X229207564Y-76241082D01*
X229169500Y-76432441D01*
X205895602Y-76432441D01*
X205880945Y-76358758D01*
X205872043Y-76314004D01*
X205816224Y-76179244D01*
X205816224Y-76179243D01*
X205796032Y-76149025D01*
X205735184Y-76057959D01*
X205632041Y-75954816D01*
X205510758Y-75873777D01*
X205510757Y-75873776D01*
X205510755Y-75873775D01*
X205375996Y-75817957D01*
X205232935Y-75789500D01*
X205232933Y-75789500D01*
X205087067Y-75789500D01*
X205087064Y-75789500D01*
X204944004Y-75817957D01*
X204944002Y-75817957D01*
X204809244Y-75873775D01*
X204809243Y-75873775D01*
X204687959Y-75954816D01*
X204687955Y-75954819D01*
X204584819Y-76057955D01*
X204584816Y-76057959D01*
X204503775Y-76179243D01*
X204503775Y-76179244D01*
X204447957Y-76314002D01*
X204447957Y-76314004D01*
X204419500Y-76457064D01*
X196253079Y-76457064D01*
X196345817Y-76435897D01*
X196669215Y-76322736D01*
X196977910Y-76174076D01*
X197268018Y-75991789D01*
X197535893Y-75778166D01*
X197778166Y-75535893D01*
X197991789Y-75268018D01*
X198174076Y-74977910D01*
X198322736Y-74669215D01*
X198435897Y-74345817D01*
X198512139Y-74011783D01*
X198550500Y-73671312D01*
X198550500Y-73328688D01*
X198512139Y-72988217D01*
X198435897Y-72654183D01*
X198335895Y-72368391D01*
X209634500Y-72368391D01*
X209634500Y-72491608D01*
X209658536Y-72612450D01*
X209705688Y-72726285D01*
X209705689Y-72726286D01*
X209774142Y-72828733D01*
X209861267Y-72915858D01*
X209963714Y-72984311D01*
X210077548Y-73031463D01*
X210198394Y-73055500D01*
X210198396Y-73055500D01*
X210321604Y-73055500D01*
X210321606Y-73055500D01*
X210442452Y-73031463D01*
X210556286Y-72984311D01*
X210604999Y-72951761D01*
X210663886Y-72935153D01*
X210715000Y-72951761D01*
X210763714Y-72984311D01*
X210877548Y-73031463D01*
X210998394Y-73055500D01*
X210998396Y-73055500D01*
X211121604Y-73055500D01*
X211121606Y-73055500D01*
X211242452Y-73031463D01*
X211356286Y-72984311D01*
X211458733Y-72915858D01*
X211545858Y-72828733D01*
X211614311Y-72726286D01*
X211661463Y-72612452D01*
X211685500Y-72491606D01*
X211685500Y-72368394D01*
X211661463Y-72247548D01*
X211614311Y-72133714D01*
X211545858Y-72031267D01*
X211458733Y-71944142D01*
X211356286Y-71875689D01*
X211356287Y-71875689D01*
X211356285Y-71875688D01*
X211242450Y-71828536D01*
X211121608Y-71804500D01*
X211121606Y-71804500D01*
X210998394Y-71804500D01*
X210998391Y-71804500D01*
X210877549Y-71828536D01*
X210763715Y-71875688D01*
X210715001Y-71908238D01*
X210656113Y-71924846D01*
X210604999Y-71908238D01*
X210595214Y-71901700D01*
X210556286Y-71875689D01*
X210442452Y-71828537D01*
X210442450Y-71828536D01*
X210321608Y-71804500D01*
X210321606Y-71804500D01*
X210198394Y-71804500D01*
X210198391Y-71804500D01*
X210077549Y-71828536D01*
X209963714Y-71875688D01*
X209861267Y-71944142D01*
X209861263Y-71944145D01*
X209774145Y-72031263D01*
X209774142Y-72031267D01*
X209705688Y-72133714D01*
X209658536Y-72247549D01*
X209634500Y-72368391D01*
X198335895Y-72368391D01*
X198322736Y-72330785D01*
X198223471Y-72124660D01*
X198174083Y-72022104D01*
X198174081Y-72022101D01*
X198174076Y-72022090D01*
X197991789Y-71731982D01*
X197778166Y-71464107D01*
X197535893Y-71221834D01*
X197268018Y-71008211D01*
X196977910Y-70825924D01*
X196691914Y-70688195D01*
X196647691Y-70645913D01*
X196636766Y-70585711D01*
X196663313Y-70530585D01*
X196717193Y-70501591D01*
X196734870Y-70500000D01*
X235458992Y-70500000D01*
X235517183Y-70518907D01*
X235528996Y-70528996D01*
X237126081Y-72126081D01*
X237153858Y-72180598D01*
X237154455Y-72207168D01*
X237149500Y-72251147D01*
X237149500Y-72548865D01*
X237182831Y-72844671D01*
X237182832Y-72844677D01*
X237249076Y-73134912D01*
X237347398Y-73415899D01*
X237347399Y-73415902D01*
X237476557Y-73684102D01*
X237476561Y-73684109D01*
X237476565Y-73684117D01*
X237634950Y-73936185D01*
X237820562Y-74168934D01*
X238031066Y-74379438D01*
X238263815Y-74565050D01*
X238515883Y-74723435D01*
X238515894Y-74723440D01*
X238515897Y-74723442D01*
X238750572Y-74836455D01*
X238784099Y-74852601D01*
X238915270Y-74898499D01*
X239065087Y-74950923D01*
X239065090Y-74950923D01*
X239065091Y-74950924D01*
X239355325Y-75017168D01*
X239435096Y-75026156D01*
X239651134Y-75050499D01*
X239651150Y-75050499D01*
X239651151Y-75050500D01*
X239651152Y-75050500D01*
X239948841Y-75050500D01*
X239948849Y-75050500D01*
X239992829Y-75045544D01*
X240052769Y-75057816D01*
X240073917Y-75073917D01*
X242036678Y-77036678D01*
X242064455Y-77091195D01*
X242054884Y-77151627D01*
X242011619Y-77194892D01*
X241951187Y-77204463D01*
X241928789Y-77198146D01*
X241816898Y-77151800D01*
X241652508Y-77119100D01*
X241652506Y-77119100D01*
X241484894Y-77119100D01*
X241484891Y-77119100D01*
X241320502Y-77151800D01*
X241320500Y-77151800D01*
X241165652Y-77215939D01*
X241165641Y-77215945D01*
X241026283Y-77309063D01*
X241026279Y-77309066D01*
X240907766Y-77427579D01*
X240907763Y-77427583D01*
X240814645Y-77566941D01*
X240814639Y-77566952D01*
X240750500Y-77721800D01*
X240750500Y-77721802D01*
X240717800Y-77886191D01*
X240717800Y-78053808D01*
X240750500Y-78218197D01*
X240750500Y-78218199D01*
X240814639Y-78373047D01*
X240814645Y-78373058D01*
X240870667Y-78456899D01*
X240907763Y-78512417D01*
X241026283Y-78630937D01*
X241109369Y-78686453D01*
X241165641Y-78724054D01*
X241165652Y-78724060D01*
X241222854Y-78747753D01*
X241320502Y-78788200D01*
X241484894Y-78820900D01*
X241484895Y-78820900D01*
X241652505Y-78820900D01*
X241652506Y-78820900D01*
X241816898Y-78788200D01*
X241963116Y-78727634D01*
X242024111Y-78722834D01*
X242076280Y-78754804D01*
X242099695Y-78811332D01*
X242100000Y-78819099D01*
X242100000Y-92120900D01*
X242081093Y-92179091D01*
X242031593Y-92215055D01*
X241970407Y-92215055D01*
X241963115Y-92212364D01*
X241816898Y-92151800D01*
X241652508Y-92119100D01*
X241652506Y-92119100D01*
X241484894Y-92119100D01*
X241484891Y-92119100D01*
X241320502Y-92151800D01*
X241320500Y-92151800D01*
X241165652Y-92215939D01*
X241165641Y-92215945D01*
X241026283Y-92309063D01*
X241026279Y-92309066D01*
X240907766Y-92427579D01*
X240907763Y-92427583D01*
X240814645Y-92566941D01*
X240814639Y-92566952D01*
X240750500Y-92721800D01*
X240750500Y-92721802D01*
X240717800Y-92886191D01*
X240717800Y-93053808D01*
X240750500Y-93218197D01*
X240750500Y-93218199D01*
X240814639Y-93373047D01*
X240814645Y-93373058D01*
X240870667Y-93456899D01*
X240907763Y-93512417D01*
X241026283Y-93630937D01*
X241109369Y-93686453D01*
X241165641Y-93724054D01*
X241165652Y-93724060D01*
X241222854Y-93747753D01*
X241320502Y-93788200D01*
X241484894Y-93820900D01*
X241484895Y-93820900D01*
X241652505Y-93820900D01*
X241652506Y-93820900D01*
X241816898Y-93788200D01*
X241963116Y-93727634D01*
X242024111Y-93722834D01*
X242076280Y-93754804D01*
X242099695Y-93811332D01*
X242100000Y-93819099D01*
X242100000Y-152858991D01*
X242081093Y-152917182D01*
X242071004Y-152928995D01*
X241119296Y-153880702D01*
X241064779Y-153908479D01*
X241016594Y-153904142D01*
X240744912Y-153809076D01*
X240454677Y-153742832D01*
X240454671Y-153742831D01*
X240158865Y-153709500D01*
X240158849Y-153709500D01*
X239861151Y-153709500D01*
X239861134Y-153709500D01*
X239565328Y-153742831D01*
X239565322Y-153742832D01*
X239275087Y-153809076D01*
X238994100Y-153907398D01*
X238994097Y-153907399D01*
X238725897Y-154036557D01*
X238725884Y-154036564D01*
X238725883Y-154036565D01*
X238686748Y-154061155D01*
X238473814Y-154194950D01*
X238241062Y-154380565D01*
X238030565Y-154591062D01*
X237844950Y-154823814D01*
X237771312Y-154941009D01*
X237689948Y-155070500D01*
X237686564Y-155075885D01*
X237686557Y-155075897D01*
X237557399Y-155344097D01*
X237557398Y-155344100D01*
X237459076Y-155625087D01*
X237392832Y-155915322D01*
X237392831Y-155915328D01*
X237359500Y-156211134D01*
X237359500Y-156508865D01*
X237392831Y-156804671D01*
X237392832Y-156804677D01*
X237459076Y-157094912D01*
X237554142Y-157366594D01*
X237555515Y-157427764D01*
X237530702Y-157469296D01*
X235528996Y-159471004D01*
X235474479Y-159498781D01*
X235458992Y-159500000D01*
X211500000Y-159500000D01*
X145842028Y-159480012D01*
X145783843Y-159461087D01*
X145770816Y-159449755D01*
X145347245Y-159010781D01*
X145320446Y-158955779D01*
X145331095Y-158895527D01*
X145375125Y-158853042D01*
X145407406Y-158843662D01*
X145419549Y-158842294D01*
X145709783Y-158776050D01*
X145990775Y-158677727D01*
X146258991Y-158548561D01*
X146511059Y-158390176D01*
X146743808Y-158204564D01*
X146954312Y-157994060D01*
X147139924Y-157761311D01*
X147298309Y-157509243D01*
X147427475Y-157241027D01*
X147453661Y-157166191D01*
X204410400Y-157166191D01*
X204410400Y-157333808D01*
X204443100Y-157498197D01*
X204443100Y-157498199D01*
X204507239Y-157653047D01*
X204507245Y-157653058D01*
X204557230Y-157727864D01*
X204600363Y-157792417D01*
X204718883Y-157910937D01*
X204801969Y-157966453D01*
X204858241Y-158004054D01*
X204858252Y-158004060D01*
X204915454Y-158027753D01*
X205013102Y-158068200D01*
X205177494Y-158100900D01*
X205177495Y-158100900D01*
X205345105Y-158100900D01*
X205345106Y-158100900D01*
X205509498Y-158068200D01*
X205664352Y-158004058D01*
X205803717Y-157910937D01*
X205922237Y-157792417D01*
X206015358Y-157653052D01*
X206079500Y-157498198D01*
X206112200Y-157333806D01*
X206112200Y-157166194D01*
X206079500Y-157001802D01*
X206015358Y-156846948D01*
X206015357Y-156846946D01*
X206015354Y-156846941D01*
X205977753Y-156790669D01*
X205922237Y-156707583D01*
X205803717Y-156589063D01*
X205748199Y-156551967D01*
X205664358Y-156495945D01*
X205664347Y-156495939D01*
X205509498Y-156431800D01*
X205345108Y-156399100D01*
X205345106Y-156399100D01*
X205177494Y-156399100D01*
X205177491Y-156399100D01*
X205013102Y-156431800D01*
X205013100Y-156431800D01*
X204858252Y-156495939D01*
X204858241Y-156495945D01*
X204718883Y-156589063D01*
X204718879Y-156589066D01*
X204600366Y-156707579D01*
X204600363Y-156707583D01*
X204507245Y-156846941D01*
X204507239Y-156846952D01*
X204443100Y-157001800D01*
X204443100Y-157001802D01*
X204410400Y-157166191D01*
X147453661Y-157166191D01*
X147525798Y-156960035D01*
X147592042Y-156669801D01*
X147604026Y-156563438D01*
X147625373Y-156373991D01*
X147625374Y-156373974D01*
X147625374Y-156076277D01*
X147625373Y-156076260D01*
X147592042Y-155780454D01*
X147592041Y-155780448D01*
X147580617Y-155730397D01*
X147525798Y-155490217D01*
X147498302Y-155411639D01*
X147438037Y-155239409D01*
X147427475Y-155209225D01*
X147401881Y-155156078D01*
X147298316Y-154941023D01*
X147298314Y-154941020D01*
X147298309Y-154941009D01*
X147139924Y-154688941D01*
X146954312Y-154456192D01*
X146743808Y-154245688D01*
X146511059Y-154060076D01*
X146258991Y-153901691D01*
X146258988Y-153901689D01*
X146258976Y-153901683D01*
X146222903Y-153884311D01*
X151529500Y-153884311D01*
X151529500Y-155535688D01*
X151532401Y-155572565D01*
X151532401Y-155572568D01*
X151532402Y-155572569D01*
X151543159Y-155609596D01*
X151575090Y-155719502D01*
X151578256Y-155730397D01*
X151661919Y-155871864D01*
X151778136Y-155988081D01*
X151919603Y-156071744D01*
X152077431Y-156117598D01*
X152114306Y-156120500D01*
X152114311Y-156120500D01*
X153245689Y-156120500D01*
X153245694Y-156120500D01*
X153282569Y-156117598D01*
X153440397Y-156071744D01*
X153581864Y-155988081D01*
X153698081Y-155871864D01*
X153781744Y-155730397D01*
X153827598Y-155572569D01*
X153830500Y-155535694D01*
X153830500Y-154350989D01*
X154422000Y-154350989D01*
X154422000Y-154455999D01*
X154422001Y-154456000D01*
X155237749Y-154456000D01*
X155204755Y-154513147D01*
X155170000Y-154642857D01*
X155170000Y-154777143D01*
X155204755Y-154906853D01*
X155237749Y-154964000D01*
X154422001Y-154964000D01*
X154422000Y-154964001D01*
X154422000Y-155069010D01*
X154452974Y-155264577D01*
X154514166Y-155452904D01*
X154604060Y-155629334D01*
X154720450Y-155789530D01*
X154860469Y-155929549D01*
X155020665Y-156045939D01*
X155197095Y-156135833D01*
X155385424Y-156197025D01*
X155385420Y-156197025D01*
X155425999Y-156203451D01*
X155426000Y-156203450D01*
X155426000Y-155152250D01*
X155483147Y-155185245D01*
X155612857Y-155220000D01*
X155747143Y-155220000D01*
X155876853Y-155185245D01*
X155934000Y-155152250D01*
X155934000Y-156203451D01*
X155974577Y-156197025D01*
X156162904Y-156135833D01*
X156339334Y-156045939D01*
X156499530Y-155929549D01*
X156639549Y-155789530D01*
X156755939Y-155629334D01*
X156845833Y-155452904D01*
X156907025Y-155264577D01*
X156938000Y-155069010D01*
X156938000Y-154964001D01*
X156937999Y-154964000D01*
X156122251Y-154964000D01*
X156155245Y-154906853D01*
X156190000Y-154777143D01*
X156190000Y-154642857D01*
X156155245Y-154513147D01*
X156122251Y-154456000D01*
X156937999Y-154456000D01*
X156938000Y-154455999D01*
X156938000Y-154359450D01*
X157529500Y-154359450D01*
X157529500Y-155060549D01*
X157557828Y-155239406D01*
X157613788Y-155411637D01*
X157676998Y-155535694D01*
X157696004Y-155572994D01*
X157802447Y-155719501D01*
X157930499Y-155847553D01*
X158077006Y-155953996D01*
X158238361Y-156036211D01*
X158410591Y-156092171D01*
X158482136Y-156103502D01*
X158589451Y-156120500D01*
X158589454Y-156120500D01*
X158770549Y-156120500D01*
X158859977Y-156106335D01*
X158949409Y-156092171D01*
X159121639Y-156036211D01*
X159282994Y-155953996D01*
X159429501Y-155847553D01*
X159557553Y-155719501D01*
X159663996Y-155572994D01*
X159746211Y-155411639D01*
X159802171Y-155239409D01*
X159828071Y-155075883D01*
X159830500Y-155060549D01*
X159830500Y-154359450D01*
X159806997Y-154211061D01*
X159802171Y-154180591D01*
X159794345Y-154156505D01*
X206033401Y-154156505D01*
X206033401Y-154343492D01*
X206062649Y-154528161D01*
X206099916Y-154642857D01*
X206120431Y-154705994D01*
X206205318Y-154872594D01*
X206315222Y-155023864D01*
X206447436Y-155156078D01*
X206598706Y-155265982D01*
X206765306Y-155350869D01*
X206943134Y-155408649D01*
X206943135Y-155408649D01*
X206943138Y-155408650D01*
X207127808Y-155437899D01*
X207127811Y-155437899D01*
X207314794Y-155437899D01*
X207499463Y-155408650D01*
X207499464Y-155408649D01*
X207499468Y-155408649D01*
X207677296Y-155350869D01*
X207843896Y-155265982D01*
X207995166Y-155156078D01*
X208127380Y-155023864D01*
X208237284Y-154872594D01*
X208322171Y-154705994D01*
X208379951Y-154528166D01*
X208391351Y-154456192D01*
X208409201Y-154343492D01*
X208409201Y-154156505D01*
X208379952Y-153971836D01*
X208379951Y-153971832D01*
X208322171Y-153794004D01*
X208237284Y-153627404D01*
X208127380Y-153476134D01*
X207995166Y-153343920D01*
X207843896Y-153234016D01*
X207843895Y-153234015D01*
X207843893Y-153234014D01*
X207677296Y-153149129D01*
X207499463Y-153091347D01*
X207314794Y-153062099D01*
X207314791Y-153062099D01*
X207127811Y-153062099D01*
X207127808Y-153062099D01*
X206943138Y-153091347D01*
X206765305Y-153149129D01*
X206598708Y-153234014D01*
X206447437Y-153343919D01*
X206315221Y-153476135D01*
X206205316Y-153627406D01*
X206120431Y-153794003D01*
X206062649Y-153971836D01*
X206033401Y-154156505D01*
X159794345Y-154156505D01*
X159746211Y-154008361D01*
X159663996Y-153847006D01*
X159557553Y-153700499D01*
X159429501Y-153572447D01*
X159282994Y-153466004D01*
X159282993Y-153466003D01*
X159282991Y-153466002D01*
X159121637Y-153383788D01*
X158949406Y-153327828D01*
X158770549Y-153299500D01*
X158770546Y-153299500D01*
X158589454Y-153299500D01*
X158589451Y-153299500D01*
X158410593Y-153327828D01*
X158238362Y-153383788D01*
X158077008Y-153466002D01*
X158038771Y-153493783D01*
X157930499Y-153572447D01*
X157802447Y-153700499D01*
X157750118Y-153772524D01*
X157696002Y-153847008D01*
X157613788Y-154008362D01*
X157557828Y-154180593D01*
X157529500Y-154359450D01*
X156938000Y-154359450D01*
X156938000Y-154350989D01*
X156907025Y-154155422D01*
X156845833Y-153967095D01*
X156755939Y-153790665D01*
X156639549Y-153630469D01*
X156499530Y-153490450D01*
X156339334Y-153374060D01*
X156162904Y-153284166D01*
X155974579Y-153222976D01*
X155934000Y-153216548D01*
X155934000Y-154267749D01*
X155876853Y-154234755D01*
X155747143Y-154200000D01*
X155612857Y-154200000D01*
X155483147Y-154234755D01*
X155426000Y-154267749D01*
X155426000Y-153216548D01*
X155425999Y-153216548D01*
X155385420Y-153222976D01*
X155197095Y-153284166D01*
X155020665Y-153374060D01*
X154860469Y-153490450D01*
X154720450Y-153630469D01*
X154604060Y-153790665D01*
X154514166Y-153967095D01*
X154452974Y-154155422D01*
X154422000Y-154350989D01*
X153830500Y-154350989D01*
X153830500Y-153884306D01*
X153827598Y-153847431D01*
X153781744Y-153689603D01*
X153698081Y-153548136D01*
X153581864Y-153431919D01*
X153440397Y-153348256D01*
X153440396Y-153348255D01*
X153440395Y-153348255D01*
X153308239Y-153309860D01*
X153282569Y-153302402D01*
X153282568Y-153302401D01*
X153282565Y-153302401D01*
X153259140Y-153300558D01*
X153245694Y-153299500D01*
X152114306Y-153299500D01*
X152101773Y-153300486D01*
X152077434Y-153302401D01*
X152077427Y-153302403D01*
X151919604Y-153348255D01*
X151778137Y-153431918D01*
X151661918Y-153548137D01*
X151578255Y-153689604D01*
X151532403Y-153847427D01*
X151532401Y-153847434D01*
X151529500Y-153884311D01*
X146222903Y-153884311D01*
X145990776Y-153772525D01*
X145990773Y-153772524D01*
X145709786Y-153674202D01*
X145419551Y-153607958D01*
X145419545Y-153607957D01*
X145123739Y-153574626D01*
X145123723Y-153574626D01*
X144826025Y-153574626D01*
X144826008Y-153574626D01*
X144530202Y-153607957D01*
X144530196Y-153607958D01*
X144239961Y-153674202D01*
X143958974Y-153772524D01*
X143958971Y-153772525D01*
X143729889Y-153882845D01*
X143669258Y-153891058D01*
X143615378Y-153862064D01*
X143588831Y-153806938D01*
X143587936Y-153794000D01*
X143587159Y-153574626D01*
X143583950Y-152668694D01*
X148854500Y-152668694D01*
X148854500Y-152831305D01*
X148886224Y-152990790D01*
X148948450Y-153141018D01*
X149010587Y-153234014D01*
X149038792Y-153276225D01*
X149153775Y-153391208D01*
X149288979Y-153481548D01*
X149439211Y-153543776D01*
X149598695Y-153575500D01*
X149598696Y-153575500D01*
X149761304Y-153575500D01*
X149761305Y-153575500D01*
X149920789Y-153543776D01*
X150071021Y-153481548D01*
X150206225Y-153391208D01*
X150321208Y-153276225D01*
X150411548Y-153141021D01*
X150473776Y-152990789D01*
X150505500Y-152831305D01*
X150505500Y-152668695D01*
X150505500Y-152668694D01*
X160854500Y-152668694D01*
X160854500Y-152831305D01*
X160886224Y-152990790D01*
X160948450Y-153141018D01*
X161010587Y-153234014D01*
X161038792Y-153276225D01*
X161153775Y-153391208D01*
X161288979Y-153481548D01*
X161439211Y-153543776D01*
X161598695Y-153575500D01*
X161598696Y-153575500D01*
X161761304Y-153575500D01*
X161761305Y-153575500D01*
X161920789Y-153543776D01*
X162071021Y-153481548D01*
X162206225Y-153391208D01*
X162321208Y-153276225D01*
X162411548Y-153141021D01*
X162473776Y-152990789D01*
X162505500Y-152831305D01*
X162505500Y-152668695D01*
X162473776Y-152509211D01*
X162440990Y-152430059D01*
X162411549Y-152358981D01*
X162394571Y-152333572D01*
X162321208Y-152223775D01*
X162206225Y-152108792D01*
X162193481Y-152100277D01*
X162071018Y-152018450D01*
X161920790Y-151956224D01*
X161761305Y-151924500D01*
X161598695Y-151924500D01*
X161598694Y-151924500D01*
X161439209Y-151956224D01*
X161288981Y-152018450D01*
X161153778Y-152108789D01*
X161038789Y-152223778D01*
X160948450Y-152358981D01*
X160886224Y-152509209D01*
X160854500Y-152668694D01*
X150505500Y-152668694D01*
X150473776Y-152509211D01*
X150440990Y-152430059D01*
X150411549Y-152358981D01*
X150394571Y-152333572D01*
X150321208Y-152223775D01*
X150206225Y-152108792D01*
X150193481Y-152100277D01*
X150071018Y-152018450D01*
X149920790Y-151956224D01*
X149761305Y-151924500D01*
X149598695Y-151924500D01*
X149598694Y-151924500D01*
X149439209Y-151956224D01*
X149288981Y-152018450D01*
X149153778Y-152108789D01*
X149038789Y-152223778D01*
X148948450Y-152358981D01*
X148886224Y-152509209D01*
X148854500Y-152668694D01*
X143583950Y-152668694D01*
X143580059Y-151570099D01*
X163209500Y-151570099D01*
X163209500Y-151829900D01*
X163250138Y-152086488D01*
X163329428Y-152330515D01*
X163330421Y-152333572D01*
X163363256Y-152398014D01*
X163446509Y-152561408D01*
X163448366Y-152565051D01*
X163601069Y-152775229D01*
X163784771Y-152958931D01*
X163994949Y-153111634D01*
X164226428Y-153229579D01*
X164473507Y-153309860D01*
X164473508Y-153309860D01*
X164473511Y-153309861D01*
X164730100Y-153350500D01*
X164730103Y-153350500D01*
X164989900Y-153350500D01*
X165246488Y-153309861D01*
X165246489Y-153309860D01*
X165246493Y-153309860D01*
X165493572Y-153229579D01*
X165725051Y-153111634D01*
X165863141Y-153011306D01*
X166529500Y-153011306D01*
X166529500Y-153188693D01*
X166537633Y-153229579D01*
X166562312Y-153353649D01*
X166564106Y-153362665D01*
X166564106Y-153362667D01*
X166631985Y-153526544D01*
X166631985Y-153526545D01*
X166686384Y-153607958D01*
X166730536Y-153674035D01*
X166855965Y-153799464D01*
X167003453Y-153898013D01*
X167003454Y-153898013D01*
X167003455Y-153898014D01*
X167026113Y-153907399D01*
X167167334Y-153965894D01*
X167341309Y-154000500D01*
X167341310Y-154000500D01*
X167518690Y-154000500D01*
X167518691Y-154000500D01*
X167692666Y-153965894D01*
X167856547Y-153898013D01*
X168004035Y-153799464D01*
X168129464Y-153674035D01*
X168228013Y-153526547D01*
X168295894Y-153362666D01*
X168330500Y-153188691D01*
X168330500Y-153011309D01*
X168330499Y-153011306D01*
X168529500Y-153011306D01*
X168529500Y-153188693D01*
X168537633Y-153229579D01*
X168562312Y-153353649D01*
X168564106Y-153362665D01*
X168564106Y-153362667D01*
X168631985Y-153526544D01*
X168631985Y-153526545D01*
X168686384Y-153607958D01*
X168730536Y-153674035D01*
X168855965Y-153799464D01*
X169003453Y-153898013D01*
X169003454Y-153898013D01*
X169003455Y-153898014D01*
X169026113Y-153907399D01*
X169167334Y-153965894D01*
X169341309Y-154000500D01*
X169341310Y-154000500D01*
X169518690Y-154000500D01*
X169518691Y-154000500D01*
X169668977Y-153970606D01*
X170918603Y-153970606D01*
X170952535Y-153993279D01*
X171135976Y-154069262D01*
X171330718Y-154107999D01*
X171330722Y-154108000D01*
X171529278Y-154108000D01*
X171529281Y-154107999D01*
X171724022Y-154069262D01*
X171724024Y-154069262D01*
X171743598Y-154061155D01*
X171907465Y-153993279D01*
X171907467Y-153993278D01*
X171941395Y-153970606D01*
X171429999Y-153459210D01*
X170918603Y-153970606D01*
X169668977Y-153970606D01*
X169692666Y-153965894D01*
X169856547Y-153898013D01*
X170004035Y-153799464D01*
X170129464Y-153674035D01*
X170228013Y-153526547D01*
X170280357Y-153400174D01*
X170320093Y-153353649D01*
X170379588Y-153339365D01*
X170436116Y-153362779D01*
X170463285Y-153400174D01*
X170536721Y-153577466D01*
X170559392Y-153611395D01*
X171080000Y-153090788D01*
X171080000Y-153146078D01*
X171103852Y-153235095D01*
X171149930Y-153314905D01*
X171215095Y-153380070D01*
X171294905Y-153426148D01*
X171383922Y-153450000D01*
X171476078Y-153450000D01*
X171565095Y-153426148D01*
X171644905Y-153380070D01*
X171710070Y-153314905D01*
X171756148Y-153235095D01*
X171780000Y-153146078D01*
X171780000Y-153090789D01*
X172300606Y-153611395D01*
X172323278Y-153577467D01*
X172323279Y-153577465D01*
X172396714Y-153400175D01*
X172436450Y-153353649D01*
X172495945Y-153339365D01*
X172552473Y-153362779D01*
X172579642Y-153400175D01*
X172631985Y-153526544D01*
X172631985Y-153526545D01*
X172686384Y-153607958D01*
X172730536Y-153674035D01*
X172855965Y-153799464D01*
X173003453Y-153898013D01*
X173003454Y-153898013D01*
X173003455Y-153898014D01*
X173026113Y-153907399D01*
X173167334Y-153965894D01*
X173341309Y-154000500D01*
X173341310Y-154000500D01*
X173518690Y-154000500D01*
X173518691Y-154000500D01*
X173692666Y-153965894D01*
X173856547Y-153898013D01*
X174004035Y-153799464D01*
X174129464Y-153674035D01*
X174228013Y-153526547D01*
X174295894Y-153362666D01*
X174330500Y-153188691D01*
X174330500Y-153011309D01*
X174295894Y-152837334D01*
X174248891Y-152723858D01*
X174228014Y-152673455D01*
X174228014Y-152673454D01*
X174129464Y-152525965D01*
X174004034Y-152400535D01*
X173856544Y-152301985D01*
X173692666Y-152234106D01*
X173518693Y-152199500D01*
X173518691Y-152199500D01*
X173341309Y-152199500D01*
X173341301Y-152199500D01*
X173311782Y-152205372D01*
X173251021Y-152198179D01*
X173206092Y-152156646D01*
X173194156Y-152096636D01*
X173210156Y-152053271D01*
X173215446Y-152045354D01*
X173228013Y-152026547D01*
X173295894Y-151862666D01*
X173330500Y-151688691D01*
X173330500Y-151511309D01*
X173330499Y-151511306D01*
X174029500Y-151511306D01*
X174029500Y-151688693D01*
X174064106Y-151862665D01*
X174064106Y-151862667D01*
X174131985Y-152026544D01*
X174131985Y-152026545D01*
X174230535Y-152174034D01*
X174230536Y-152174035D01*
X174355965Y-152299464D01*
X174503453Y-152398013D01*
X174503454Y-152398013D01*
X174503455Y-152398014D01*
X174636823Y-152453256D01*
X174683349Y-152492992D01*
X174697633Y-152552487D01*
X174681253Y-152599722D01*
X174631985Y-152673454D01*
X174631985Y-152673455D01*
X174564106Y-152837332D01*
X174564106Y-152837334D01*
X174529500Y-153011306D01*
X174529500Y-153188693D01*
X174537633Y-153229579D01*
X174562312Y-153353649D01*
X174564106Y-153362665D01*
X174564106Y-153362667D01*
X174631985Y-153526544D01*
X174631985Y-153526545D01*
X174686384Y-153607958D01*
X174730536Y-153674035D01*
X174855965Y-153799464D01*
X175003453Y-153898013D01*
X175003454Y-153898013D01*
X175003455Y-153898014D01*
X175026113Y-153907399D01*
X175167334Y-153965894D01*
X175341309Y-154000500D01*
X175341310Y-154000500D01*
X175518690Y-154000500D01*
X175518691Y-154000500D01*
X175692666Y-153965894D01*
X175856547Y-153898013D01*
X176004035Y-153799464D01*
X176129464Y-153674035D01*
X176228013Y-153526547D01*
X176295894Y-153362666D01*
X176330500Y-153188691D01*
X176330500Y-153011309D01*
X176295894Y-152837334D01*
X176248891Y-152723858D01*
X176228014Y-152673455D01*
X176228014Y-152673454D01*
X176129464Y-152525965D01*
X176004034Y-152400535D01*
X175856546Y-152301986D01*
X175723176Y-152246743D01*
X175676651Y-152207006D01*
X175662367Y-152147512D01*
X175678746Y-152100279D01*
X175728013Y-152026547D01*
X175795894Y-151862666D01*
X175830500Y-151688691D01*
X175830500Y-151570099D01*
X176349500Y-151570099D01*
X176349500Y-151829900D01*
X176390138Y-152086488D01*
X176469428Y-152330515D01*
X176470421Y-152333572D01*
X176503256Y-152398014D01*
X176586509Y-152561408D01*
X176588366Y-152565051D01*
X176741069Y-152775229D01*
X176924771Y-152958931D01*
X177134949Y-153111634D01*
X177366428Y-153229579D01*
X177613507Y-153309860D01*
X177613508Y-153309860D01*
X177613511Y-153309861D01*
X177870100Y-153350500D01*
X177870103Y-153350500D01*
X178129900Y-153350500D01*
X178386488Y-153309861D01*
X178386489Y-153309860D01*
X178386493Y-153309860D01*
X178633572Y-153229579D01*
X178865051Y-153111634D01*
X179075229Y-152958931D01*
X179258931Y-152775229D01*
X179411634Y-152565051D01*
X179513074Y-152365964D01*
X202886927Y-152365964D01*
X202886927Y-152489181D01*
X202910963Y-152610023D01*
X202958115Y-152723858D01*
X202958116Y-152723859D01*
X203026569Y-152826306D01*
X203113694Y-152913431D01*
X203216141Y-152981884D01*
X203329975Y-153029036D01*
X203450821Y-153053073D01*
X203450823Y-153053073D01*
X203574031Y-153053073D01*
X203574033Y-153053073D01*
X203694879Y-153029036D01*
X203808713Y-152981884D01*
X203911160Y-152913431D01*
X203998285Y-152826306D01*
X204066738Y-152723859D01*
X204113890Y-152610025D01*
X204137927Y-152489179D01*
X204137927Y-152365967D01*
X204113890Y-152245121D01*
X204066738Y-152131287D01*
X203998285Y-152028840D01*
X203911160Y-151941715D01*
X203842706Y-151895975D01*
X203808712Y-151873261D01*
X203694877Y-151826109D01*
X203574035Y-151802073D01*
X203574033Y-151802073D01*
X203450821Y-151802073D01*
X203450818Y-151802073D01*
X203329976Y-151826109D01*
X203216141Y-151873261D01*
X203113694Y-151941715D01*
X203113690Y-151941718D01*
X203026572Y-152028836D01*
X203026569Y-152028840D01*
X202958115Y-152131287D01*
X202910963Y-152245122D01*
X202886927Y-152365964D01*
X179513074Y-152365964D01*
X179529579Y-152333572D01*
X179530572Y-152330517D01*
X179530573Y-152330515D01*
X179530573Y-152330512D01*
X179609860Y-152086493D01*
X179611290Y-152077464D01*
X179650500Y-151829900D01*
X179650500Y-151570099D01*
X179609861Y-151313511D01*
X179607412Y-151305975D01*
X179556098Y-151148046D01*
X205925901Y-151148046D01*
X205925901Y-151351953D01*
X205957797Y-151553337D01*
X206020805Y-151747259D01*
X206113374Y-151928937D01*
X206113378Y-151928942D01*
X206142737Y-151969351D01*
X206709870Y-151402217D01*
X206724251Y-151455885D01*
X206794475Y-151577515D01*
X206893786Y-151676826D01*
X207015416Y-151747050D01*
X207069080Y-151761429D01*
X206501949Y-152328562D01*
X206542361Y-152357924D01*
X206542369Y-152357929D01*
X206724041Y-152450495D01*
X206917963Y-152513503D01*
X207119348Y-152545400D01*
X207323254Y-152545400D01*
X207524638Y-152513503D01*
X207718563Y-152450494D01*
X207718569Y-152450492D01*
X207900237Y-152357926D01*
X207940652Y-152328562D01*
X207373519Y-151761429D01*
X207427186Y-151747050D01*
X207548816Y-151676826D01*
X207648127Y-151577515D01*
X207718351Y-151455885D01*
X207732730Y-151402218D01*
X208299863Y-151969351D01*
X208329227Y-151928936D01*
X208421793Y-151747268D01*
X208421795Y-151747262D01*
X208484804Y-151553337D01*
X208516701Y-151351953D01*
X208516701Y-151148046D01*
X208484804Y-150946662D01*
X208421796Y-150752740D01*
X208329230Y-150571068D01*
X208329225Y-150571060D01*
X208299863Y-150530648D01*
X207732730Y-151097779D01*
X207718351Y-151044115D01*
X207648127Y-150922485D01*
X207548816Y-150823174D01*
X207427186Y-150752950D01*
X207373518Y-150738569D01*
X207940652Y-150171436D01*
X207900243Y-150142077D01*
X207900238Y-150142073D01*
X207718560Y-150049504D01*
X207524638Y-149986496D01*
X207323254Y-149954600D01*
X207119348Y-149954600D01*
X206917963Y-149986496D01*
X206724041Y-150049504D01*
X206542363Y-150142073D01*
X206542359Y-150142075D01*
X206501948Y-150171436D01*
X207069082Y-150738570D01*
X207015416Y-150752950D01*
X206893786Y-150823174D01*
X206794475Y-150922485D01*
X206724251Y-151044115D01*
X206709871Y-151097781D01*
X206142737Y-150530647D01*
X206113376Y-150571058D01*
X206113374Y-150571062D01*
X206020805Y-150752740D01*
X205957797Y-150946662D01*
X205925901Y-151148046D01*
X179556098Y-151148046D01*
X179529579Y-151066428D01*
X179411634Y-150834949D01*
X179258931Y-150624771D01*
X179075229Y-150441069D01*
X178865051Y-150288366D01*
X178865050Y-150288365D01*
X178865048Y-150288364D01*
X178732424Y-150220789D01*
X178633572Y-150170421D01*
X178633569Y-150170420D01*
X178633567Y-150170419D01*
X178526259Y-150135553D01*
X178416503Y-150099890D01*
X178386488Y-150090138D01*
X178129900Y-150049500D01*
X178129897Y-150049500D01*
X177870103Y-150049500D01*
X177870100Y-150049500D01*
X177613511Y-150090138D01*
X177366432Y-150170419D01*
X177134951Y-150288364D01*
X176924772Y-150441068D01*
X176741068Y-150624772D01*
X176588364Y-150834951D01*
X176470419Y-151066432D01*
X176390138Y-151313511D01*
X176349500Y-151570099D01*
X175830500Y-151570099D01*
X175830500Y-151511309D01*
X175795894Y-151337334D01*
X175755904Y-151240788D01*
X175728014Y-151173455D01*
X175728014Y-151173454D01*
X175629464Y-151025965D01*
X175504034Y-150900535D01*
X175356544Y-150801985D01*
X175192666Y-150734106D01*
X175018693Y-150699500D01*
X175018691Y-150699500D01*
X174841309Y-150699500D01*
X174841306Y-150699500D01*
X174667334Y-150734106D01*
X174667332Y-150734106D01*
X174503455Y-150801985D01*
X174503454Y-150801985D01*
X174355965Y-150900535D01*
X174230535Y-151025965D01*
X174131985Y-151173454D01*
X174131985Y-151173455D01*
X174064106Y-151337332D01*
X174064106Y-151337334D01*
X174029500Y-151511306D01*
X173330499Y-151511306D01*
X173295894Y-151337334D01*
X173255904Y-151240788D01*
X173228014Y-151173455D01*
X173228014Y-151173454D01*
X173129464Y-151025965D01*
X173004034Y-150900535D01*
X172856544Y-150801985D01*
X172692666Y-150734106D01*
X172518693Y-150699500D01*
X172518691Y-150699500D01*
X172341309Y-150699500D01*
X172341306Y-150699500D01*
X172167334Y-150734106D01*
X172167332Y-150734106D01*
X172003455Y-150801985D01*
X172003454Y-150801985D01*
X171855965Y-150900535D01*
X171730535Y-151025965D01*
X171631985Y-151173454D01*
X171631985Y-151173455D01*
X171564106Y-151337332D01*
X171564106Y-151337334D01*
X171529500Y-151511306D01*
X171529500Y-151688693D01*
X171564106Y-151862665D01*
X171564106Y-151862667D01*
X171602399Y-151955115D01*
X171602715Y-151959139D01*
X171605090Y-151962407D01*
X171605090Y-151989311D01*
X171607199Y-152016112D01*
X171605090Y-152019553D01*
X171605090Y-152023593D01*
X171589279Y-152045354D01*
X171575230Y-152068281D01*
X171571499Y-152069826D01*
X171569126Y-152073093D01*
X171543549Y-152081403D01*
X171518702Y-152091695D01*
X171510935Y-152092000D01*
X171349065Y-152092000D01*
X171290874Y-152073093D01*
X171254910Y-152023593D01*
X171254910Y-151962407D01*
X171257601Y-151955115D01*
X171291505Y-151873261D01*
X171295894Y-151862666D01*
X171330500Y-151688691D01*
X171330500Y-151511309D01*
X171295894Y-151337334D01*
X171255904Y-151240788D01*
X171228014Y-151173455D01*
X171228014Y-151173454D01*
X171129464Y-151025965D01*
X171004034Y-150900535D01*
X170856544Y-150801985D01*
X170692666Y-150734106D01*
X170518693Y-150699500D01*
X170518691Y-150699500D01*
X170341309Y-150699500D01*
X170341306Y-150699500D01*
X170167334Y-150734106D01*
X170167332Y-150734106D01*
X170003455Y-150801985D01*
X170003454Y-150801985D01*
X169855965Y-150900535D01*
X169730535Y-151025965D01*
X169631985Y-151173454D01*
X169631985Y-151173455D01*
X169564106Y-151337332D01*
X169564106Y-151337334D01*
X169529500Y-151511306D01*
X169529500Y-151688693D01*
X169564106Y-151862665D01*
X169564106Y-151862667D01*
X169630763Y-152023593D01*
X169631987Y-152026547D01*
X169644554Y-152045354D01*
X169649845Y-152053273D01*
X169666453Y-152112161D01*
X169645275Y-152169565D01*
X169594401Y-152203557D01*
X169548216Y-152205372D01*
X169518696Y-152199500D01*
X169518691Y-152199500D01*
X169341309Y-152199500D01*
X169341306Y-152199500D01*
X169167334Y-152234106D01*
X169167332Y-152234106D01*
X169003455Y-152301985D01*
X169003454Y-152301985D01*
X168855965Y-152400535D01*
X168730535Y-152525965D01*
X168631985Y-152673454D01*
X168631985Y-152673455D01*
X168564106Y-152837332D01*
X168564106Y-152837334D01*
X168529500Y-153011306D01*
X168330499Y-153011306D01*
X168295894Y-152837334D01*
X168248891Y-152723858D01*
X168228477Y-152674573D01*
X168223676Y-152613576D01*
X168255646Y-152561408D01*
X168282056Y-152545223D01*
X168407470Y-152493276D01*
X168441395Y-152470606D01*
X167920790Y-151950000D01*
X167976078Y-151950000D01*
X168065095Y-151926148D01*
X168144905Y-151880070D01*
X168210070Y-151814905D01*
X168256148Y-151735095D01*
X168280000Y-151646078D01*
X168280000Y-151599999D01*
X168289210Y-151599999D01*
X168800606Y-152111395D01*
X168823278Y-152077467D01*
X168823279Y-152077465D01*
X168899262Y-151894024D01*
X168899262Y-151894022D01*
X168937999Y-151699281D01*
X168938000Y-151699277D01*
X168938000Y-151500722D01*
X168937999Y-151500718D01*
X168899262Y-151305977D01*
X168899262Y-151305975D01*
X168823279Y-151122535D01*
X168800606Y-151088603D01*
X168289210Y-151599999D01*
X168280000Y-151599999D01*
X168280000Y-151553922D01*
X168256148Y-151464905D01*
X168210070Y-151385095D01*
X168144905Y-151319930D01*
X168065095Y-151273852D01*
X167976078Y-151250000D01*
X167883922Y-151250000D01*
X167794905Y-151273852D01*
X167715095Y-151319930D01*
X167649930Y-151385095D01*
X167603852Y-151464905D01*
X167580000Y-151553922D01*
X167580000Y-151609210D01*
X167059392Y-151088603D01*
X167036720Y-151122535D01*
X166960737Y-151305975D01*
X166960737Y-151305977D01*
X166922000Y-151500718D01*
X166922000Y-151699281D01*
X166960737Y-151894022D01*
X166960737Y-151894024D01*
X167036720Y-152077464D01*
X167079990Y-152142222D01*
X167096598Y-152201110D01*
X167075420Y-152258513D01*
X167035561Y-152288686D01*
X167003458Y-152301984D01*
X167003454Y-152301985D01*
X166855965Y-152400535D01*
X166730535Y-152525965D01*
X166631985Y-152673454D01*
X166631985Y-152673455D01*
X166564106Y-152837332D01*
X166564106Y-152837334D01*
X166529500Y-153011306D01*
X165863141Y-153011306D01*
X165935229Y-152958931D01*
X166118931Y-152775229D01*
X166271634Y-152565051D01*
X166389579Y-152333572D01*
X166469860Y-152086493D01*
X166471290Y-152077464D01*
X166510500Y-151829900D01*
X166510500Y-151570099D01*
X166469861Y-151313511D01*
X166467413Y-151305975D01*
X166389579Y-151066428D01*
X166296033Y-150882834D01*
X166271635Y-150834950D01*
X166264026Y-150824478D01*
X166250237Y-150805499D01*
X166194942Y-150729392D01*
X167418603Y-150729392D01*
X167929999Y-151240788D01*
X168441395Y-150729392D01*
X168407464Y-150706720D01*
X168224023Y-150630737D01*
X168029281Y-150592000D01*
X167830718Y-150592000D01*
X167635977Y-150630737D01*
X167635975Y-150630737D01*
X167452535Y-150706720D01*
X167418603Y-150729392D01*
X166194942Y-150729392D01*
X166118931Y-150624771D01*
X165935229Y-150441069D01*
X165725051Y-150288366D01*
X165725050Y-150288365D01*
X165725048Y-150288364D01*
X165592424Y-150220789D01*
X165493572Y-150170421D01*
X165493569Y-150170420D01*
X165493567Y-150170419D01*
X165246488Y-150090138D01*
X164989900Y-150049500D01*
X164989897Y-150049500D01*
X164730103Y-150049500D01*
X164730100Y-150049500D01*
X164473511Y-150090138D01*
X164226432Y-150170419D01*
X163994951Y-150288364D01*
X163784772Y-150441068D01*
X163601068Y-150624772D01*
X163448364Y-150834951D01*
X163330419Y-151066432D01*
X163250138Y-151313511D01*
X163209500Y-151570099D01*
X143580059Y-151570099D01*
X143574139Y-149898694D01*
X148874500Y-149898694D01*
X148874500Y-150061305D01*
X148906224Y-150220790D01*
X148968450Y-150371018D01*
X149040424Y-150478736D01*
X149058792Y-150506225D01*
X149173775Y-150621208D01*
X149308979Y-150711548D01*
X149308980Y-150711548D01*
X149308981Y-150711549D01*
X149352058Y-150729392D01*
X149459211Y-150773776D01*
X149618695Y-150805500D01*
X149618696Y-150805500D01*
X149781304Y-150805500D01*
X149781305Y-150805500D01*
X149940789Y-150773776D01*
X150091021Y-150711548D01*
X150226225Y-150621208D01*
X150341208Y-150506225D01*
X150431548Y-150371021D01*
X150493776Y-150220789D01*
X150525500Y-150061305D01*
X150525500Y-149898695D01*
X150525500Y-149898694D01*
X160874500Y-149898694D01*
X160874500Y-150061305D01*
X160906224Y-150220790D01*
X160968450Y-150371018D01*
X161040424Y-150478736D01*
X161058792Y-150506225D01*
X161173775Y-150621208D01*
X161308979Y-150711548D01*
X161308980Y-150711548D01*
X161308981Y-150711549D01*
X161352058Y-150729392D01*
X161459211Y-150773776D01*
X161618695Y-150805500D01*
X161618696Y-150805500D01*
X161781304Y-150805500D01*
X161781305Y-150805500D01*
X161940789Y-150773776D01*
X162091021Y-150711548D01*
X162226225Y-150621208D01*
X162341208Y-150506225D01*
X162431548Y-150371021D01*
X162493776Y-150220789D01*
X162525500Y-150061305D01*
X162525500Y-150018391D01*
X190074500Y-150018391D01*
X190074500Y-150141608D01*
X190098536Y-150262450D01*
X190145688Y-150376285D01*
X190145689Y-150376286D01*
X190214142Y-150478733D01*
X190301267Y-150565858D01*
X190403714Y-150634311D01*
X190517548Y-150681463D01*
X190638394Y-150705500D01*
X190638396Y-150705500D01*
X190761604Y-150705500D01*
X190761606Y-150705500D01*
X190882452Y-150681463D01*
X190996286Y-150634311D01*
X191098733Y-150565858D01*
X191185858Y-150478733D01*
X191254311Y-150376286D01*
X191301463Y-150262452D01*
X191325500Y-150141606D01*
X191325500Y-150018394D01*
X191301463Y-149897548D01*
X191254311Y-149783714D01*
X191185858Y-149681267D01*
X191098733Y-149594142D01*
X190996286Y-149525689D01*
X190996287Y-149525689D01*
X190996285Y-149525688D01*
X190882450Y-149478536D01*
X190761608Y-149454500D01*
X190761606Y-149454500D01*
X190638394Y-149454500D01*
X190638391Y-149454500D01*
X190517549Y-149478536D01*
X190403714Y-149525688D01*
X190301267Y-149594142D01*
X190301263Y-149594145D01*
X190214145Y-149681263D01*
X190214142Y-149681267D01*
X190145688Y-149783714D01*
X190098536Y-149897549D01*
X190074500Y-150018391D01*
X162525500Y-150018391D01*
X162525500Y-149898695D01*
X162493776Y-149739211D01*
X162431548Y-149588979D01*
X162341208Y-149453775D01*
X162226225Y-149338792D01*
X162165296Y-149298081D01*
X162091018Y-149248450D01*
X161940790Y-149186224D01*
X161781305Y-149154500D01*
X161618695Y-149154500D01*
X161618694Y-149154500D01*
X161459209Y-149186224D01*
X161308981Y-149248450D01*
X161173778Y-149338789D01*
X161058789Y-149453778D01*
X160968450Y-149588981D01*
X160906224Y-149739209D01*
X160874500Y-149898694D01*
X150525500Y-149898694D01*
X150493776Y-149739211D01*
X150431548Y-149588979D01*
X150341208Y-149453775D01*
X150226225Y-149338792D01*
X150165296Y-149298081D01*
X150091018Y-149248450D01*
X149940790Y-149186224D01*
X149781305Y-149154500D01*
X149618695Y-149154500D01*
X149618694Y-149154500D01*
X149459209Y-149186224D01*
X149308981Y-149248450D01*
X149173778Y-149338789D01*
X149058789Y-149453778D01*
X148968450Y-149588981D01*
X148906224Y-149739209D01*
X148874500Y-149898694D01*
X143574139Y-149898694D01*
X143566243Y-147669450D01*
X151549500Y-147669450D01*
X151549500Y-148370549D01*
X151577828Y-148549406D01*
X151633788Y-148721637D01*
X151696998Y-148845694D01*
X151716004Y-148882994D01*
X151822447Y-149029501D01*
X151950499Y-149157553D01*
X152097006Y-149263996D01*
X152258361Y-149346211D01*
X152430591Y-149402171D01*
X152502136Y-149413502D01*
X152609451Y-149430500D01*
X152609454Y-149430500D01*
X152790549Y-149430500D01*
X152879977Y-149416335D01*
X152969409Y-149402171D01*
X153141639Y-149346211D01*
X153302994Y-149263996D01*
X153449501Y-149157553D01*
X153577553Y-149029501D01*
X153683996Y-148882994D01*
X153766211Y-148721639D01*
X153822171Y-148549409D01*
X153842766Y-148419375D01*
X153850500Y-148370549D01*
X153850500Y-147669452D01*
X153849160Y-147660989D01*
X154442000Y-147660989D01*
X154442000Y-147765999D01*
X154442001Y-147766000D01*
X155257749Y-147766000D01*
X155224755Y-147823147D01*
X155190000Y-147952857D01*
X155190000Y-148087143D01*
X155224755Y-148216853D01*
X155257749Y-148274000D01*
X154442001Y-148274000D01*
X154442000Y-148274001D01*
X154442000Y-148379010D01*
X154472974Y-148574577D01*
X154534166Y-148762904D01*
X154624060Y-148939334D01*
X154740450Y-149099530D01*
X154880469Y-149239549D01*
X155040665Y-149355939D01*
X155217095Y-149445833D01*
X155405424Y-149507025D01*
X155405420Y-149507025D01*
X155445999Y-149513451D01*
X155446000Y-149513450D01*
X155446000Y-148462250D01*
X155503147Y-148495245D01*
X155632857Y-148530000D01*
X155767143Y-148530000D01*
X155896853Y-148495245D01*
X155954000Y-148462250D01*
X155954000Y-149513451D01*
X155994577Y-149507025D01*
X156182904Y-149445833D01*
X156359334Y-149355939D01*
X156519530Y-149239549D01*
X156659549Y-149099530D01*
X156775939Y-148939334D01*
X156865833Y-148762904D01*
X156927025Y-148574577D01*
X156958000Y-148379010D01*
X156958000Y-148274001D01*
X156957999Y-148274000D01*
X156142251Y-148274000D01*
X156175245Y-148216853D01*
X156210000Y-148087143D01*
X156210000Y-147952857D01*
X156175245Y-147823147D01*
X156142251Y-147766000D01*
X156957999Y-147766000D01*
X156958000Y-147765999D01*
X156958000Y-147660989D01*
X156927025Y-147465422D01*
X156865832Y-147277092D01*
X156845562Y-147237308D01*
X156845561Y-147237307D01*
X156823653Y-147194311D01*
X157549500Y-147194311D01*
X157549500Y-148845688D01*
X157552401Y-148882565D01*
X157552401Y-148882568D01*
X157552402Y-148882569D01*
X157563159Y-148919596D01*
X157595090Y-149029502D01*
X157598256Y-149040397D01*
X157681919Y-149181864D01*
X157798136Y-149298081D01*
X157939603Y-149381744D01*
X158097431Y-149427598D01*
X158134306Y-149430500D01*
X158134311Y-149430500D01*
X159265689Y-149430500D01*
X159265694Y-149430500D01*
X159302569Y-149427598D01*
X159460397Y-149381744D01*
X159601864Y-149298081D01*
X159718081Y-149181864D01*
X159801744Y-149040397D01*
X159847598Y-148882569D01*
X159850500Y-148845694D01*
X159850500Y-147732267D01*
X202938376Y-147732267D01*
X202938376Y-147855484D01*
X202962412Y-147976326D01*
X203009564Y-148090161D01*
X203009565Y-148090162D01*
X203078018Y-148192609D01*
X203165143Y-148279734D01*
X203267590Y-148348187D01*
X203381424Y-148395339D01*
X203502270Y-148419376D01*
X203502272Y-148419376D01*
X203625480Y-148419376D01*
X203625482Y-148419376D01*
X203746328Y-148395339D01*
X203860162Y-148348187D01*
X203962609Y-148279734D01*
X204049734Y-148192609D01*
X204079510Y-148148046D01*
X205925901Y-148148046D01*
X205925901Y-148351953D01*
X205957797Y-148553337D01*
X206020805Y-148747259D01*
X206113374Y-148928937D01*
X206113378Y-148928942D01*
X206142737Y-148969351D01*
X206709870Y-148402217D01*
X206724251Y-148455885D01*
X206794475Y-148577515D01*
X206893786Y-148676826D01*
X207015416Y-148747050D01*
X207069080Y-148761429D01*
X206501949Y-149328562D01*
X206542361Y-149357924D01*
X206542369Y-149357929D01*
X206724041Y-149450495D01*
X206917963Y-149513503D01*
X207119348Y-149545400D01*
X207323254Y-149545400D01*
X207524638Y-149513503D01*
X207718563Y-149450494D01*
X207718569Y-149450492D01*
X207900237Y-149357926D01*
X207940652Y-149328562D01*
X207373519Y-148761429D01*
X207427186Y-148747050D01*
X207548816Y-148676826D01*
X207648127Y-148577515D01*
X207718351Y-148455885D01*
X207732730Y-148402218D01*
X208299863Y-148969351D01*
X208329227Y-148928936D01*
X208421793Y-148747268D01*
X208421795Y-148747262D01*
X208484804Y-148553337D01*
X208516701Y-148351953D01*
X208516701Y-148148046D01*
X208484804Y-147946662D01*
X208421796Y-147752740D01*
X208329230Y-147571068D01*
X208329225Y-147571060D01*
X208299863Y-147530648D01*
X207732730Y-148097779D01*
X207718351Y-148044115D01*
X207648127Y-147922485D01*
X207548816Y-147823174D01*
X207427186Y-147752950D01*
X207373518Y-147738569D01*
X207940652Y-147171436D01*
X207900243Y-147142077D01*
X207900238Y-147142073D01*
X207718560Y-147049504D01*
X207524638Y-146986496D01*
X207323254Y-146954600D01*
X207119348Y-146954600D01*
X206917963Y-146986496D01*
X206724041Y-147049504D01*
X206542363Y-147142073D01*
X206542359Y-147142075D01*
X206501948Y-147171436D01*
X207069082Y-147738570D01*
X207015416Y-147752950D01*
X206893786Y-147823174D01*
X206794475Y-147922485D01*
X206724251Y-148044115D01*
X206709871Y-148097781D01*
X206142737Y-147530647D01*
X206113376Y-147571058D01*
X206113374Y-147571062D01*
X206020805Y-147752740D01*
X205957797Y-147946662D01*
X205925901Y-148148046D01*
X204079510Y-148148046D01*
X204118187Y-148090162D01*
X204165339Y-147976328D01*
X204189376Y-147855482D01*
X204189376Y-147732270D01*
X204165339Y-147611424D01*
X204118187Y-147497590D01*
X204049734Y-147395143D01*
X203962609Y-147308018D01*
X203860162Y-147239565D01*
X203860163Y-147239565D01*
X203860161Y-147239564D01*
X203746326Y-147192412D01*
X203625484Y-147168376D01*
X203625482Y-147168376D01*
X203502270Y-147168376D01*
X203502267Y-147168376D01*
X203381425Y-147192412D01*
X203267590Y-147239564D01*
X203165143Y-147308018D01*
X203165139Y-147308021D01*
X203078021Y-147395139D01*
X203078018Y-147395143D01*
X203009564Y-147497590D01*
X202962412Y-147611425D01*
X202938376Y-147732267D01*
X159850500Y-147732267D01*
X159850500Y-147194306D01*
X159847598Y-147157431D01*
X159801744Y-146999603D01*
X159718081Y-146858136D01*
X159601864Y-146741919D01*
X159460397Y-146658256D01*
X159460396Y-146658255D01*
X159460395Y-146658255D01*
X159302572Y-146612403D01*
X159302569Y-146612402D01*
X159302568Y-146612401D01*
X159302565Y-146612401D01*
X159279140Y-146610558D01*
X159265694Y-146609500D01*
X158134306Y-146609500D01*
X158121773Y-146610486D01*
X158097434Y-146612401D01*
X158097427Y-146612403D01*
X157939604Y-146658255D01*
X157798137Y-146741918D01*
X157681918Y-146858137D01*
X157598255Y-146999604D01*
X157552403Y-147157427D01*
X157552401Y-147157434D01*
X157549500Y-147194311D01*
X156823653Y-147194311D01*
X156775939Y-147100666D01*
X156659549Y-146940469D01*
X156519530Y-146800450D01*
X156359334Y-146684060D01*
X156182904Y-146594166D01*
X155994579Y-146532976D01*
X155954000Y-146526548D01*
X155954000Y-147577749D01*
X155896853Y-147544755D01*
X155767143Y-147510000D01*
X155632857Y-147510000D01*
X155503147Y-147544755D01*
X155446000Y-147577749D01*
X155446000Y-146526548D01*
X155445999Y-146526548D01*
X155405420Y-146532976D01*
X155217095Y-146594166D01*
X155040665Y-146684060D01*
X154880469Y-146800450D01*
X154740450Y-146940469D01*
X154624060Y-147100665D01*
X154534166Y-147277095D01*
X154472974Y-147465422D01*
X154442000Y-147660989D01*
X153849160Y-147660989D01*
X153825245Y-147510000D01*
X153822171Y-147490591D01*
X153766211Y-147318361D01*
X153683996Y-147157006D01*
X153577553Y-147010499D01*
X153449501Y-146882447D01*
X153302994Y-146776004D01*
X153302993Y-146776003D01*
X153302991Y-146776002D01*
X153141637Y-146693788D01*
X152969406Y-146637828D01*
X152790549Y-146609500D01*
X152790546Y-146609500D01*
X152609454Y-146609500D01*
X152609451Y-146609500D01*
X152430593Y-146637828D01*
X152258362Y-146693788D01*
X152097008Y-146776002D01*
X152023752Y-146829225D01*
X151950499Y-146882447D01*
X151822447Y-147010499D01*
X151769225Y-147083752D01*
X151716002Y-147157008D01*
X151633788Y-147318362D01*
X151577828Y-147490593D01*
X151549500Y-147669450D01*
X143566243Y-147669450D01*
X143557342Y-145156507D01*
X206033401Y-145156507D01*
X206033401Y-145343494D01*
X206062649Y-145528163D01*
X206062651Y-145528168D01*
X206120431Y-145705996D01*
X206205318Y-145872596D01*
X206315222Y-146023866D01*
X206447436Y-146156080D01*
X206598706Y-146265984D01*
X206765306Y-146350871D01*
X206943134Y-146408651D01*
X206943135Y-146408651D01*
X206943138Y-146408652D01*
X207127808Y-146437901D01*
X207127811Y-146437901D01*
X207314794Y-146437901D01*
X207499463Y-146408652D01*
X207499464Y-146408651D01*
X207499468Y-146408651D01*
X207677296Y-146350871D01*
X207843896Y-146265984D01*
X207995166Y-146156080D01*
X208127380Y-146023866D01*
X208237284Y-145872596D01*
X208322171Y-145705996D01*
X208379951Y-145528168D01*
X208409201Y-145343491D01*
X208409201Y-145156511D01*
X208409201Y-145156507D01*
X208379952Y-144971838D01*
X208379951Y-144971834D01*
X208322171Y-144794006D01*
X208237284Y-144627406D01*
X208127380Y-144476136D01*
X207995166Y-144343922D01*
X207843896Y-144234018D01*
X207843895Y-144234017D01*
X207843893Y-144234016D01*
X207677296Y-144149131D01*
X207499463Y-144091349D01*
X207314794Y-144062101D01*
X207314791Y-144062101D01*
X207127811Y-144062101D01*
X207127808Y-144062101D01*
X206943138Y-144091349D01*
X206765305Y-144149131D01*
X206598708Y-144234016D01*
X206447437Y-144343921D01*
X206315221Y-144476137D01*
X206205316Y-144627408D01*
X206120431Y-144794005D01*
X206062649Y-144971838D01*
X206033401Y-145156507D01*
X143557342Y-145156507D01*
X143546751Y-142166191D01*
X204410400Y-142166191D01*
X204410400Y-142333808D01*
X204443100Y-142498197D01*
X204443100Y-142498199D01*
X204507239Y-142653047D01*
X204507245Y-142653058D01*
X204563267Y-142736899D01*
X204600363Y-142792417D01*
X204718883Y-142910937D01*
X204801969Y-142966453D01*
X204858241Y-143004054D01*
X204858252Y-143004060D01*
X204915454Y-143027753D01*
X205013102Y-143068200D01*
X205177494Y-143100900D01*
X205177495Y-143100900D01*
X205345105Y-143100900D01*
X205345106Y-143100900D01*
X205509498Y-143068200D01*
X205664352Y-143004058D01*
X205803717Y-142910937D01*
X205922237Y-142792417D01*
X206015358Y-142653052D01*
X206079500Y-142498198D01*
X206112200Y-142333806D01*
X206112200Y-142166194D01*
X206079500Y-142001802D01*
X206015358Y-141846948D01*
X206015357Y-141846946D01*
X206015354Y-141846941D01*
X205977753Y-141790669D01*
X205922237Y-141707583D01*
X205803717Y-141589063D01*
X205748199Y-141551967D01*
X205664358Y-141495945D01*
X205664347Y-141495939D01*
X205509498Y-141431800D01*
X205345108Y-141399100D01*
X205345106Y-141399100D01*
X205177494Y-141399100D01*
X205177491Y-141399100D01*
X205013102Y-141431800D01*
X205013100Y-141431800D01*
X204858252Y-141495939D01*
X204858241Y-141495945D01*
X204718883Y-141589063D01*
X204718879Y-141589066D01*
X204600366Y-141707579D01*
X204600363Y-141707583D01*
X204507245Y-141846941D01*
X204507239Y-141846952D01*
X204443100Y-142001800D01*
X204443100Y-142001802D01*
X204410400Y-142166191D01*
X143546751Y-142166191D01*
X143534716Y-138768391D01*
X191304500Y-138768391D01*
X191304500Y-138891608D01*
X191328536Y-139012450D01*
X191375688Y-139126285D01*
X191375689Y-139126286D01*
X191444142Y-139228733D01*
X191531267Y-139315858D01*
X191633714Y-139384311D01*
X191747548Y-139431463D01*
X191868394Y-139455500D01*
X191868396Y-139455500D01*
X191991604Y-139455500D01*
X191991606Y-139455500D01*
X192112452Y-139431463D01*
X192226286Y-139384311D01*
X192328733Y-139315858D01*
X192415858Y-139228733D01*
X192484311Y-139126286D01*
X192531463Y-139012452D01*
X192555500Y-138891606D01*
X192555500Y-138768394D01*
X192531463Y-138647548D01*
X192484311Y-138533714D01*
X192415858Y-138431267D01*
X192328733Y-138344142D01*
X192226286Y-138275689D01*
X192226287Y-138275689D01*
X192226285Y-138275688D01*
X192112450Y-138228536D01*
X191991608Y-138204500D01*
X191991606Y-138204500D01*
X191868394Y-138204500D01*
X191868391Y-138204500D01*
X191747549Y-138228536D01*
X191633714Y-138275688D01*
X191531267Y-138344142D01*
X191531263Y-138344145D01*
X191444145Y-138431263D01*
X191444142Y-138431267D01*
X191375688Y-138533714D01*
X191328536Y-138647549D01*
X191304500Y-138768391D01*
X143534716Y-138768391D01*
X143528093Y-136898391D01*
X162904500Y-136898391D01*
X162904500Y-137021608D01*
X162928536Y-137142450D01*
X162975688Y-137256285D01*
X162975689Y-137256286D01*
X163044142Y-137358733D01*
X163131267Y-137445858D01*
X163233714Y-137514311D01*
X163347548Y-137561463D01*
X163468394Y-137585500D01*
X163468396Y-137585500D01*
X163591604Y-137585500D01*
X163591606Y-137585500D01*
X163712452Y-137561463D01*
X163826286Y-137514311D01*
X163928733Y-137445858D01*
X164015858Y-137358733D01*
X164084311Y-137256286D01*
X164131463Y-137142452D01*
X164155500Y-137021606D01*
X164155500Y-136928391D01*
X165434500Y-136928391D01*
X165434500Y-137051608D01*
X165458536Y-137172450D01*
X165505688Y-137286285D01*
X165505689Y-137286286D01*
X165574142Y-137388733D01*
X165661267Y-137475858D01*
X165763714Y-137544311D01*
X165877548Y-137591463D01*
X165998394Y-137615500D01*
X165998396Y-137615500D01*
X166121604Y-137615500D01*
X166121606Y-137615500D01*
X166242452Y-137591463D01*
X166356286Y-137544311D01*
X166458733Y-137475858D01*
X166545858Y-137388733D01*
X166614311Y-137286286D01*
X166661463Y-137172452D01*
X166685500Y-137051606D01*
X166685500Y-136928394D01*
X166661463Y-136807548D01*
X166614311Y-136693714D01*
X166545858Y-136591267D01*
X166458733Y-136504142D01*
X166356286Y-136435689D01*
X166356287Y-136435689D01*
X166356285Y-136435688D01*
X166242450Y-136388536D01*
X166121608Y-136364500D01*
X166121606Y-136364500D01*
X165998394Y-136364500D01*
X165998391Y-136364500D01*
X165877549Y-136388536D01*
X165763714Y-136435688D01*
X165661267Y-136504142D01*
X165661263Y-136504145D01*
X165574145Y-136591263D01*
X165574142Y-136591267D01*
X165505688Y-136693714D01*
X165458536Y-136807549D01*
X165434500Y-136928391D01*
X164155500Y-136928391D01*
X164155500Y-136898394D01*
X164131463Y-136777548D01*
X164084311Y-136663714D01*
X164015858Y-136561267D01*
X163928733Y-136474142D01*
X163826286Y-136405689D01*
X163826287Y-136405689D01*
X163826285Y-136405688D01*
X163712450Y-136358536D01*
X163591608Y-136334500D01*
X163591606Y-136334500D01*
X163468394Y-136334500D01*
X163468391Y-136334500D01*
X163347549Y-136358536D01*
X163233714Y-136405688D01*
X163131267Y-136474142D01*
X163131263Y-136474145D01*
X163044145Y-136561263D01*
X163044142Y-136561267D01*
X162975688Y-136663714D01*
X162928536Y-136777549D01*
X162904500Y-136898391D01*
X143528093Y-136898391D01*
X143525184Y-136077191D01*
X215244300Y-136077191D01*
X215244300Y-136200408D01*
X215268336Y-136321250D01*
X215315488Y-136435085D01*
X215315489Y-136435086D01*
X215383942Y-136537533D01*
X215471067Y-136624658D01*
X215573514Y-136693111D01*
X215687348Y-136740263D01*
X215808194Y-136764300D01*
X215808196Y-136764300D01*
X215931404Y-136764300D01*
X215931406Y-136764300D01*
X216052252Y-136740263D01*
X216166086Y-136693111D01*
X216268533Y-136624658D01*
X216355658Y-136537533D01*
X216424111Y-136435086D01*
X216471263Y-136321252D01*
X216495300Y-136200406D01*
X216495300Y-136077194D01*
X216495299Y-136077191D01*
X218800300Y-136077191D01*
X218800300Y-136200408D01*
X218824336Y-136321250D01*
X218871488Y-136435085D01*
X218871489Y-136435086D01*
X218939942Y-136537533D01*
X219027067Y-136624658D01*
X219129514Y-136693111D01*
X219243348Y-136740263D01*
X219364194Y-136764300D01*
X219364196Y-136764300D01*
X219487404Y-136764300D01*
X219487406Y-136764300D01*
X219608252Y-136740263D01*
X219722086Y-136693111D01*
X219824533Y-136624658D01*
X219911658Y-136537533D01*
X219980111Y-136435086D01*
X220027263Y-136321252D01*
X220051300Y-136200406D01*
X220051300Y-136077194D01*
X220051299Y-136077191D01*
X223955500Y-136077191D01*
X223955500Y-136200408D01*
X223979536Y-136321250D01*
X224026688Y-136435085D01*
X224026689Y-136435086D01*
X224095142Y-136537533D01*
X224182267Y-136624658D01*
X224284714Y-136693111D01*
X224398548Y-136740263D01*
X224519394Y-136764300D01*
X224519396Y-136764300D01*
X224642604Y-136764300D01*
X224642606Y-136764300D01*
X224763452Y-136740263D01*
X224877286Y-136693111D01*
X224979733Y-136624658D01*
X225066858Y-136537533D01*
X225135311Y-136435086D01*
X225182463Y-136321252D01*
X225206500Y-136200406D01*
X225206500Y-136127991D01*
X227309100Y-136127991D01*
X227309100Y-136251208D01*
X227333136Y-136372050D01*
X227380288Y-136485885D01*
X227380289Y-136485886D01*
X227448742Y-136588333D01*
X227535867Y-136675458D01*
X227638314Y-136743911D01*
X227752148Y-136791063D01*
X227872994Y-136815100D01*
X227872996Y-136815100D01*
X227996204Y-136815100D01*
X227996206Y-136815100D01*
X228117052Y-136791063D01*
X228230886Y-136743911D01*
X228333333Y-136675458D01*
X228420458Y-136588333D01*
X228488911Y-136485886D01*
X228536063Y-136372052D01*
X228560100Y-136251206D01*
X228560100Y-136127994D01*
X228536063Y-136007148D01*
X228488911Y-135893314D01*
X228420458Y-135790867D01*
X228333333Y-135703742D01*
X228230886Y-135635289D01*
X228230887Y-135635289D01*
X228230885Y-135635288D01*
X228117050Y-135588136D01*
X227996208Y-135564100D01*
X227996206Y-135564100D01*
X227872994Y-135564100D01*
X227872991Y-135564100D01*
X227752149Y-135588136D01*
X227638314Y-135635288D01*
X227535867Y-135703742D01*
X227535863Y-135703745D01*
X227448745Y-135790863D01*
X227448742Y-135790867D01*
X227380288Y-135893314D01*
X227333136Y-136007149D01*
X227309100Y-136127991D01*
X225206500Y-136127991D01*
X225206500Y-136077194D01*
X225182463Y-135956348D01*
X225135311Y-135842514D01*
X225066858Y-135740067D01*
X224979733Y-135652942D01*
X224882746Y-135588137D01*
X224877285Y-135584488D01*
X224763450Y-135537336D01*
X224642608Y-135513300D01*
X224642606Y-135513300D01*
X224519394Y-135513300D01*
X224519391Y-135513300D01*
X224398549Y-135537336D01*
X224284714Y-135584488D01*
X224182267Y-135652942D01*
X224182263Y-135652945D01*
X224095145Y-135740063D01*
X224095142Y-135740067D01*
X224026688Y-135842514D01*
X223979536Y-135956349D01*
X223955500Y-136077191D01*
X220051299Y-136077191D01*
X220027263Y-135956348D01*
X219980111Y-135842514D01*
X219911658Y-135740067D01*
X219824533Y-135652942D01*
X219727546Y-135588137D01*
X219722085Y-135584488D01*
X219608250Y-135537336D01*
X219487408Y-135513300D01*
X219487406Y-135513300D01*
X219364194Y-135513300D01*
X219364191Y-135513300D01*
X219243349Y-135537336D01*
X219129514Y-135584488D01*
X219027067Y-135652942D01*
X219027063Y-135652945D01*
X218939945Y-135740063D01*
X218939942Y-135740067D01*
X218871488Y-135842514D01*
X218824336Y-135956349D01*
X218800300Y-136077191D01*
X216495299Y-136077191D01*
X216471263Y-135956348D01*
X216424111Y-135842514D01*
X216355658Y-135740067D01*
X216268533Y-135652942D01*
X216171546Y-135588137D01*
X216166085Y-135584488D01*
X216052250Y-135537336D01*
X215931408Y-135513300D01*
X215931406Y-135513300D01*
X215808194Y-135513300D01*
X215808191Y-135513300D01*
X215687349Y-135537336D01*
X215573514Y-135584488D01*
X215471067Y-135652942D01*
X215471063Y-135652945D01*
X215383945Y-135740063D01*
X215383942Y-135740067D01*
X215315488Y-135842514D01*
X215268336Y-135956349D01*
X215244300Y-136077191D01*
X143525184Y-136077191D01*
X143520088Y-134638391D01*
X188874500Y-134638391D01*
X188874500Y-134761608D01*
X188898536Y-134882450D01*
X188945688Y-134996285D01*
X188945689Y-134996286D01*
X189014142Y-135098733D01*
X189101267Y-135185858D01*
X189203714Y-135254311D01*
X189317548Y-135301463D01*
X189438394Y-135325500D01*
X189438396Y-135325500D01*
X189561604Y-135325500D01*
X189561606Y-135325500D01*
X189682452Y-135301463D01*
X189796286Y-135254311D01*
X189898733Y-135185858D01*
X189985858Y-135098733D01*
X190054311Y-134996286D01*
X190101463Y-134882452D01*
X190125500Y-134761606D01*
X190125500Y-134638394D01*
X190101463Y-134517548D01*
X190054311Y-134403714D01*
X189985858Y-134301267D01*
X189898733Y-134214142D01*
X189796286Y-134145689D01*
X189796287Y-134145689D01*
X189796285Y-134145688D01*
X189682450Y-134098536D01*
X189561608Y-134074500D01*
X189561606Y-134074500D01*
X189438394Y-134074500D01*
X189438391Y-134074500D01*
X189317549Y-134098536D01*
X189203714Y-134145688D01*
X189101267Y-134214142D01*
X189101263Y-134214145D01*
X189014145Y-134301263D01*
X189014142Y-134301267D01*
X188945688Y-134403714D01*
X188898536Y-134517549D01*
X188874500Y-134638391D01*
X143520088Y-134638391D01*
X143502378Y-129638391D01*
X188762000Y-129638391D01*
X188762000Y-129761608D01*
X188786036Y-129882450D01*
X188833188Y-129996285D01*
X188833189Y-129996286D01*
X188901642Y-130098733D01*
X188988767Y-130185858D01*
X189091214Y-130254311D01*
X189205048Y-130301463D01*
X189325894Y-130325500D01*
X189325896Y-130325500D01*
X189449104Y-130325500D01*
X189449106Y-130325500D01*
X189569952Y-130301463D01*
X189683786Y-130254311D01*
X189786233Y-130185858D01*
X189873358Y-130098733D01*
X189941811Y-129996286D01*
X189988963Y-129882452D01*
X190013000Y-129761606D01*
X190013000Y-129638394D01*
X189988963Y-129517548D01*
X189941811Y-129403714D01*
X189873358Y-129301267D01*
X189786233Y-129214142D01*
X189683786Y-129145689D01*
X189683787Y-129145689D01*
X189683785Y-129145688D01*
X189569950Y-129098536D01*
X189449108Y-129074500D01*
X189449106Y-129074500D01*
X189325894Y-129074500D01*
X189325891Y-129074500D01*
X189205049Y-129098536D01*
X189091214Y-129145688D01*
X188988767Y-129214142D01*
X188988763Y-129214145D01*
X188901645Y-129301263D01*
X188901642Y-129301267D01*
X188833188Y-129403714D01*
X188786036Y-129517549D01*
X188762000Y-129638391D01*
X143502378Y-129638391D01*
X143494745Y-127483391D01*
X196744500Y-127483391D01*
X196744500Y-127606608D01*
X196768536Y-127727450D01*
X196815688Y-127841285D01*
X196815689Y-127841286D01*
X196884142Y-127943733D01*
X196971267Y-128030858D01*
X197073714Y-128099311D01*
X197187548Y-128146463D01*
X197308394Y-128170500D01*
X197308396Y-128170500D01*
X197431604Y-128170500D01*
X197431606Y-128170500D01*
X197552452Y-128146463D01*
X197666286Y-128099311D01*
X197768733Y-128030858D01*
X197855858Y-127943733D01*
X197924311Y-127841286D01*
X197971463Y-127727452D01*
X197995500Y-127606606D01*
X197995500Y-127483394D01*
X197971463Y-127362548D01*
X197924311Y-127248714D01*
X197855858Y-127146267D01*
X197768733Y-127059142D01*
X197666286Y-126990689D01*
X197666287Y-126990689D01*
X197666285Y-126990688D01*
X197552450Y-126943536D01*
X197431608Y-126919500D01*
X197431606Y-126919500D01*
X197308394Y-126919500D01*
X197308391Y-126919500D01*
X197187549Y-126943536D01*
X197073714Y-126990688D01*
X196971267Y-127059142D01*
X196971263Y-127059145D01*
X196884145Y-127146263D01*
X196884142Y-127146267D01*
X196815688Y-127248714D01*
X196768536Y-127362549D01*
X196744500Y-127483391D01*
X143494745Y-127483391D01*
X143492518Y-126854602D01*
X204794500Y-126854602D01*
X204794500Y-127005397D01*
X204814112Y-127103990D01*
X204822521Y-127146267D01*
X204823918Y-127153287D01*
X204823918Y-127153289D01*
X204881621Y-127292597D01*
X204881622Y-127292599D01*
X204881623Y-127292600D01*
X204965397Y-127417978D01*
X205072022Y-127524603D01*
X205197400Y-127608377D01*
X205336712Y-127666082D01*
X205484605Y-127695500D01*
X205484606Y-127695500D01*
X205635394Y-127695500D01*
X205635395Y-127695500D01*
X205783288Y-127666082D01*
X205922600Y-127608377D01*
X206047978Y-127524603D01*
X206154603Y-127417978D01*
X206238377Y-127292600D01*
X206296082Y-127153288D01*
X206325500Y-127005395D01*
X206325500Y-126854605D01*
X206325499Y-126854603D01*
X206325499Y-126854597D01*
X206323479Y-126844442D01*
X206323477Y-126844433D01*
X206320602Y-126829979D01*
X228744500Y-126829979D01*
X228744500Y-127030020D01*
X228783525Y-127226210D01*
X228783525Y-127226212D01*
X228860074Y-127411019D01*
X228864724Y-127417978D01*
X228971209Y-127577344D01*
X229112656Y-127718791D01*
X229278980Y-127829925D01*
X229463789Y-127906475D01*
X229659982Y-127945500D01*
X229659983Y-127945500D01*
X229860017Y-127945500D01*
X229860018Y-127945500D01*
X230056211Y-127906475D01*
X230241020Y-127829925D01*
X230407344Y-127718791D01*
X230548791Y-127577344D01*
X230659925Y-127411020D01*
X230736475Y-127226211D01*
X230775500Y-127030018D01*
X230775500Y-126829982D01*
X230736475Y-126633789D01*
X230659925Y-126448980D01*
X230548791Y-126282656D01*
X230407344Y-126141209D01*
X230241020Y-126030075D01*
X230241021Y-126030075D01*
X230241019Y-126030074D01*
X230056211Y-125953525D01*
X229860020Y-125914500D01*
X229860018Y-125914500D01*
X229659982Y-125914500D01*
X229659979Y-125914500D01*
X229463789Y-125953525D01*
X229463787Y-125953525D01*
X229278980Y-126030074D01*
X229112656Y-126141209D01*
X229112652Y-126141212D01*
X228971212Y-126282652D01*
X228971209Y-126282656D01*
X228860074Y-126448980D01*
X228783525Y-126633787D01*
X228783525Y-126633789D01*
X228744500Y-126829979D01*
X206320602Y-126829979D01*
X206313333Y-126793442D01*
X206296082Y-126706712D01*
X206238377Y-126567400D01*
X206154603Y-126442022D01*
X206047978Y-126335397D01*
X205922600Y-126251623D01*
X205922599Y-126251622D01*
X205922597Y-126251621D01*
X205783288Y-126193918D01*
X205635397Y-126164500D01*
X205635395Y-126164500D01*
X205484605Y-126164500D01*
X205484602Y-126164500D01*
X205336712Y-126193918D01*
X205336710Y-126193918D01*
X205197402Y-126251621D01*
X205072025Y-126335394D01*
X204965394Y-126442025D01*
X204881621Y-126567402D01*
X204823918Y-126706710D01*
X204823918Y-126706712D01*
X204794500Y-126854602D01*
X143492518Y-126854602D01*
X143472946Y-121328686D01*
X159449500Y-121328686D01*
X159449500Y-121671313D01*
X159487860Y-122011781D01*
X159564103Y-122345820D01*
X159677263Y-122669213D01*
X159677264Y-122669215D01*
X159825916Y-122977895D01*
X159825920Y-122977902D01*
X159825924Y-122977910D01*
X160008211Y-123268018D01*
X160221834Y-123535893D01*
X160464107Y-123778166D01*
X160731982Y-123991789D01*
X161022090Y-124174076D01*
X161022101Y-124174081D01*
X161022104Y-124174083D01*
X161124660Y-124223471D01*
X161330785Y-124322736D01*
X161481753Y-124375561D01*
X161654179Y-124435896D01*
X161654182Y-124435896D01*
X161654183Y-124435897D01*
X161988217Y-124512139D01*
X162328688Y-124550500D01*
X162328689Y-124550500D01*
X162671311Y-124550500D01*
X162671312Y-124550500D01*
X163011783Y-124512139D01*
X163345817Y-124435897D01*
X163669215Y-124322736D01*
X163977910Y-124174076D01*
X164268018Y-123991789D01*
X164535893Y-123778166D01*
X164778166Y-123535893D01*
X164991789Y-123268018D01*
X165174076Y-122977910D01*
X165322736Y-122669215D01*
X165435897Y-122345817D01*
X165512139Y-122011783D01*
X165550500Y-121671312D01*
X165550500Y-121328688D01*
X165550500Y-121328686D01*
X192449500Y-121328686D01*
X192449500Y-121671313D01*
X192487860Y-122011781D01*
X192564103Y-122345820D01*
X192677263Y-122669213D01*
X192677264Y-122669215D01*
X192825916Y-122977895D01*
X192825920Y-122977902D01*
X192825924Y-122977910D01*
X193008211Y-123268018D01*
X193221834Y-123535893D01*
X193464107Y-123778166D01*
X193731982Y-123991789D01*
X194022090Y-124174076D01*
X194022101Y-124174081D01*
X194022104Y-124174083D01*
X194124660Y-124223471D01*
X194330785Y-124322736D01*
X194481753Y-124375561D01*
X194654179Y-124435896D01*
X194654182Y-124435896D01*
X194654183Y-124435897D01*
X194988217Y-124512139D01*
X195328688Y-124550500D01*
X195328689Y-124550500D01*
X195671311Y-124550500D01*
X195671312Y-124550500D01*
X196011783Y-124512139D01*
X196345817Y-124435897D01*
X196669215Y-124322736D01*
X196977910Y-124174076D01*
X197268018Y-123991789D01*
X197535893Y-123778166D01*
X197778166Y-123535893D01*
X197991789Y-123268018D01*
X198174076Y-122977910D01*
X198322736Y-122669215D01*
X198435897Y-122345817D01*
X198512139Y-122011783D01*
X198550500Y-121671312D01*
X198550500Y-121328688D01*
X198512139Y-120988217D01*
X198435897Y-120654183D01*
X198322736Y-120330785D01*
X198174076Y-120022090D01*
X197991789Y-119731982D01*
X197778166Y-119464107D01*
X197535893Y-119221834D01*
X197268018Y-119008211D01*
X196977910Y-118825924D01*
X196977902Y-118825920D01*
X196977895Y-118825916D01*
X196669215Y-118677264D01*
X196669213Y-118677263D01*
X196345820Y-118564103D01*
X196011781Y-118487860D01*
X195671313Y-118449500D01*
X195671312Y-118449500D01*
X195328688Y-118449500D01*
X195328686Y-118449500D01*
X194988218Y-118487860D01*
X194654179Y-118564103D01*
X194330786Y-118677263D01*
X194330784Y-118677264D01*
X194022104Y-118825916D01*
X194022092Y-118825923D01*
X193731981Y-119008211D01*
X193464108Y-119221833D01*
X193221833Y-119464108D01*
X193008211Y-119731981D01*
X192825923Y-120022092D01*
X192825916Y-120022104D01*
X192677264Y-120330784D01*
X192677263Y-120330786D01*
X192564103Y-120654179D01*
X192487860Y-120988218D01*
X192449500Y-121328686D01*
X165550500Y-121328686D01*
X165512139Y-120988217D01*
X165435897Y-120654183D01*
X165322736Y-120330785D01*
X165174076Y-120022090D01*
X164991789Y-119731982D01*
X164778166Y-119464107D01*
X164535893Y-119221834D01*
X164268018Y-119008211D01*
X163977910Y-118825924D01*
X163977902Y-118825920D01*
X163977895Y-118825916D01*
X163669215Y-118677264D01*
X163669213Y-118677263D01*
X163345820Y-118564103D01*
X163011781Y-118487860D01*
X162671313Y-118449500D01*
X162671312Y-118449500D01*
X162328688Y-118449500D01*
X162328686Y-118449500D01*
X161988218Y-118487860D01*
X161654179Y-118564103D01*
X161330786Y-118677263D01*
X161330784Y-118677264D01*
X161022104Y-118825916D01*
X161022092Y-118825923D01*
X160731981Y-119008211D01*
X160464108Y-119221833D01*
X160221833Y-119464108D01*
X160008211Y-119731981D01*
X159825923Y-120022092D01*
X159825916Y-120022104D01*
X159677264Y-120330784D01*
X159677263Y-120330786D01*
X159564103Y-120654179D01*
X159487860Y-120988218D01*
X159449500Y-121328686D01*
X143472946Y-121328686D01*
X143419391Y-106208391D01*
X158684500Y-106208391D01*
X158684500Y-106331608D01*
X158708536Y-106452450D01*
X158755688Y-106566285D01*
X158755689Y-106566286D01*
X158824142Y-106668733D01*
X158824143Y-106668734D01*
X158826844Y-106672776D01*
X158825079Y-106673955D01*
X158844328Y-106723126D01*
X158844500Y-106728961D01*
X158844500Y-106791608D01*
X158868537Y-106912451D01*
X158868537Y-106912453D01*
X158894204Y-106974418D01*
X158898786Y-107032639D01*
X158899486Y-107032779D01*
X158898992Y-107035258D01*
X158899005Y-107035414D01*
X158898843Y-107036009D01*
X158874500Y-107158391D01*
X158874500Y-107281608D01*
X158898536Y-107402450D01*
X158945688Y-107516285D01*
X158966447Y-107547352D01*
X159007815Y-107609264D01*
X159024500Y-107664265D01*
X159024500Y-107771608D01*
X159048536Y-107892450D01*
X159095688Y-108006285D01*
X159095689Y-108006286D01*
X159164142Y-108108733D01*
X159251267Y-108195858D01*
X159353714Y-108264311D01*
X159467548Y-108311463D01*
X159588394Y-108335500D01*
X159588396Y-108335500D01*
X159711604Y-108335500D01*
X159711606Y-108335500D01*
X159832452Y-108311463D01*
X159946286Y-108264311D01*
X160048733Y-108195858D01*
X160135858Y-108108733D01*
X160204311Y-108006286D01*
X160251463Y-107892452D01*
X160275500Y-107771606D01*
X160275500Y-107648394D01*
X160251463Y-107527548D01*
X160204311Y-107413714D01*
X160142183Y-107320734D01*
X160125500Y-107265734D01*
X160125500Y-107158396D01*
X160125499Y-107158391D01*
X160101463Y-107037550D01*
X160101463Y-107037548D01*
X160101461Y-107037544D01*
X160101460Y-107037539D01*
X160075796Y-106975584D01*
X160071212Y-106917360D01*
X160070514Y-106917222D01*
X160071006Y-106914745D01*
X160070994Y-106914587D01*
X160071158Y-106913981D01*
X160071461Y-106912456D01*
X160071463Y-106912452D01*
X160095500Y-106791606D01*
X160095500Y-106728391D01*
X163884500Y-106728391D01*
X163884500Y-106851608D01*
X163908536Y-106972450D01*
X163955688Y-107086285D01*
X163955689Y-107086286D01*
X164024142Y-107188733D01*
X164111267Y-107275858D01*
X164213714Y-107344311D01*
X164327548Y-107391463D01*
X164448394Y-107415500D01*
X164448396Y-107415500D01*
X164571604Y-107415500D01*
X164571606Y-107415500D01*
X164692452Y-107391463D01*
X164714181Y-107382461D01*
X164775176Y-107377658D01*
X164782863Y-107380156D01*
X164782895Y-107380051D01*
X164787542Y-107381460D01*
X164787548Y-107381463D01*
X164908394Y-107405500D01*
X164908396Y-107405500D01*
X165031604Y-107405500D01*
X165031606Y-107405500D01*
X165152452Y-107381463D01*
X165266286Y-107334311D01*
X165368733Y-107265858D01*
X165455858Y-107178733D01*
X165524311Y-107076286D01*
X165571463Y-106962452D01*
X165595500Y-106841606D01*
X165595500Y-106718394D01*
X165571463Y-106597548D01*
X165524311Y-106483714D01*
X165455858Y-106381267D01*
X165368733Y-106294142D01*
X165266286Y-106225689D01*
X165266287Y-106225689D01*
X165266285Y-106225688D01*
X165152450Y-106178536D01*
X165031608Y-106154500D01*
X165031606Y-106154500D01*
X164908394Y-106154500D01*
X164908391Y-106154500D01*
X164787548Y-106178537D01*
X164787546Y-106178537D01*
X164765811Y-106187540D01*
X164704814Y-106192339D01*
X164697133Y-106189843D01*
X164697102Y-106189948D01*
X164692454Y-106188538D01*
X164692452Y-106188537D01*
X164627467Y-106175611D01*
X164571608Y-106164500D01*
X164571606Y-106164500D01*
X164448394Y-106164500D01*
X164448391Y-106164500D01*
X164327549Y-106188536D01*
X164213714Y-106235688D01*
X164111267Y-106304142D01*
X164111263Y-106304145D01*
X164024145Y-106391263D01*
X164024142Y-106391267D01*
X163955688Y-106493714D01*
X163908536Y-106607549D01*
X163884500Y-106728391D01*
X160095500Y-106728391D01*
X160095500Y-106668394D01*
X160071463Y-106547548D01*
X160024311Y-106433714D01*
X159955858Y-106331267D01*
X159955856Y-106331265D01*
X159954825Y-106329722D01*
X159954705Y-106329636D01*
X159954644Y-106329451D01*
X159953156Y-106327224D01*
X159953778Y-106326808D01*
X159946359Y-106304171D01*
X159935670Y-106276832D01*
X159935501Y-106271543D01*
X159935500Y-106271346D01*
X159935500Y-106208394D01*
X159935170Y-106206737D01*
X159935138Y-106200347D01*
X159943109Y-106175380D01*
X159948729Y-106149777D01*
X159951809Y-106144859D01*
X160004311Y-106066286D01*
X160051463Y-105952452D01*
X160075500Y-105831606D01*
X160075500Y-105708394D01*
X160062663Y-105643858D01*
X160068296Y-105586663D01*
X160111463Y-105482452D01*
X160135500Y-105361606D01*
X160135500Y-105238394D01*
X160111463Y-105117548D01*
X160064311Y-105003714D01*
X159995858Y-104901267D01*
X159908733Y-104814142D01*
X159806286Y-104745689D01*
X159806287Y-104745689D01*
X159806285Y-104745688D01*
X159692450Y-104698536D01*
X159571608Y-104674500D01*
X159571606Y-104674500D01*
X159448394Y-104674500D01*
X159448391Y-104674500D01*
X159327549Y-104698536D01*
X159213714Y-104745688D01*
X159111267Y-104814142D01*
X159111263Y-104814145D01*
X159024145Y-104901263D01*
X159024142Y-104901267D01*
X158955688Y-105003714D01*
X158908536Y-105117549D01*
X158884500Y-105238391D01*
X158884500Y-105361612D01*
X158897335Y-105426141D01*
X158891701Y-105483338D01*
X158848537Y-105587546D01*
X158848537Y-105587548D01*
X158824500Y-105708391D01*
X158824500Y-105836469D01*
X158823067Y-105836469D01*
X158811272Y-105890219D01*
X158808179Y-105895157D01*
X158755688Y-105973715D01*
X158708536Y-106087549D01*
X158684500Y-106208391D01*
X143419391Y-106208391D01*
X143395589Y-99488391D01*
X156384500Y-99488391D01*
X156384500Y-99611608D01*
X156408536Y-99732450D01*
X156455688Y-99846285D01*
X156455689Y-99846286D01*
X156524142Y-99948733D01*
X156611267Y-100035858D01*
X156713714Y-100104311D01*
X156827548Y-100151463D01*
X156948394Y-100175500D01*
X156948396Y-100175500D01*
X157071604Y-100175500D01*
X157071606Y-100175500D01*
X157192452Y-100151463D01*
X157306286Y-100104311D01*
X157408733Y-100035858D01*
X157495858Y-99948733D01*
X157564311Y-99846286D01*
X157611463Y-99732452D01*
X157635500Y-99611606D01*
X157635500Y-99488394D01*
X157611463Y-99367548D01*
X157564311Y-99253714D01*
X157495858Y-99151267D01*
X157408733Y-99064142D01*
X157306286Y-98995689D01*
X157306287Y-98995689D01*
X157306285Y-98995688D01*
X157192450Y-98948536D01*
X157071608Y-98924500D01*
X157071606Y-98924500D01*
X156948394Y-98924500D01*
X156948391Y-98924500D01*
X156827549Y-98948536D01*
X156713714Y-98995688D01*
X156611267Y-99064142D01*
X156611263Y-99064145D01*
X156524145Y-99151263D01*
X156524142Y-99151267D01*
X156455688Y-99253714D01*
X156408536Y-99367549D01*
X156384500Y-99488391D01*
X143395589Y-99488391D01*
X143389922Y-97888391D01*
X154074500Y-97888391D01*
X154074500Y-98011608D01*
X154098536Y-98132450D01*
X154145688Y-98246285D01*
X154158283Y-98265134D01*
X154214142Y-98348733D01*
X154301267Y-98435858D01*
X154403714Y-98504311D01*
X154517548Y-98551463D01*
X154638394Y-98575500D01*
X154638396Y-98575500D01*
X154761604Y-98575500D01*
X154761606Y-98575500D01*
X154882452Y-98551463D01*
X154996286Y-98504311D01*
X155098733Y-98435858D01*
X155185858Y-98348733D01*
X155254311Y-98246286D01*
X155301463Y-98132452D01*
X155323617Y-98021073D01*
X157684500Y-98021073D01*
X157684500Y-98144290D01*
X157708536Y-98265132D01*
X157755688Y-98378967D01*
X157755689Y-98378968D01*
X157824142Y-98481415D01*
X157911267Y-98568540D01*
X158013714Y-98636993D01*
X158127548Y-98684145D01*
X158248394Y-98708182D01*
X158248396Y-98708182D01*
X158371604Y-98708182D01*
X158371606Y-98708182D01*
X158492452Y-98684145D01*
X158606286Y-98636993D01*
X158708733Y-98568540D01*
X158795858Y-98481415D01*
X158864311Y-98378968D01*
X158911463Y-98265134D01*
X158935500Y-98144288D01*
X158935500Y-98021076D01*
X158911463Y-97900230D01*
X158864311Y-97786396D01*
X158795858Y-97683949D01*
X158708733Y-97596824D01*
X158606286Y-97528371D01*
X158606287Y-97528371D01*
X158606285Y-97528370D01*
X158492450Y-97481218D01*
X158371608Y-97457182D01*
X158371606Y-97457182D01*
X158248394Y-97457182D01*
X158248391Y-97457182D01*
X158127549Y-97481218D01*
X158013714Y-97528370D01*
X157911267Y-97596824D01*
X157911263Y-97596827D01*
X157824145Y-97683945D01*
X157824142Y-97683949D01*
X157755688Y-97786396D01*
X157708536Y-97900231D01*
X157684500Y-98021073D01*
X155323617Y-98021073D01*
X155325500Y-98011606D01*
X155325500Y-97888394D01*
X155301463Y-97767548D01*
X155254311Y-97653714D01*
X155185858Y-97551267D01*
X155098733Y-97464142D01*
X154996286Y-97395689D01*
X154996287Y-97395689D01*
X154996285Y-97395688D01*
X154882450Y-97348536D01*
X154761608Y-97324500D01*
X154761606Y-97324500D01*
X154638394Y-97324500D01*
X154638391Y-97324500D01*
X154517549Y-97348536D01*
X154403714Y-97395688D01*
X154301267Y-97464142D01*
X154301263Y-97464145D01*
X154214145Y-97551263D01*
X154214142Y-97551267D01*
X154145688Y-97653714D01*
X154098536Y-97767549D01*
X154074500Y-97888391D01*
X143389922Y-97888391D01*
X143381776Y-95588391D01*
X152404500Y-95588391D01*
X152404500Y-95711608D01*
X152428536Y-95832450D01*
X152475688Y-95946285D01*
X152475689Y-95946286D01*
X152544142Y-96048733D01*
X152631267Y-96135858D01*
X152733714Y-96204311D01*
X152847548Y-96251463D01*
X152968394Y-96275500D01*
X152968396Y-96275500D01*
X153091604Y-96275500D01*
X153091606Y-96275500D01*
X153212452Y-96251463D01*
X153326286Y-96204311D01*
X153428733Y-96135858D01*
X153515858Y-96048733D01*
X153584311Y-95946286D01*
X153631463Y-95832452D01*
X153655500Y-95711606D01*
X153655500Y-95588394D01*
X153631463Y-95467548D01*
X153584311Y-95353714D01*
X153515858Y-95251267D01*
X153428733Y-95164142D01*
X153360279Y-95118402D01*
X153326285Y-95095688D01*
X153212450Y-95048536D01*
X153091608Y-95024500D01*
X153091606Y-95024500D01*
X152968394Y-95024500D01*
X152968391Y-95024500D01*
X152847549Y-95048536D01*
X152733714Y-95095688D01*
X152631267Y-95164142D01*
X152631263Y-95164145D01*
X152544145Y-95251263D01*
X152544142Y-95251267D01*
X152475688Y-95353714D01*
X152428536Y-95467549D01*
X152404500Y-95588391D01*
X143381776Y-95588391D01*
X143377703Y-94438391D01*
X147414500Y-94438391D01*
X147414500Y-94561608D01*
X147438536Y-94682450D01*
X147485688Y-94796285D01*
X147485689Y-94796286D01*
X147554142Y-94898733D01*
X147641267Y-94985858D01*
X147743714Y-95054311D01*
X147857548Y-95101463D01*
X147978394Y-95125500D01*
X147978396Y-95125500D01*
X148101604Y-95125500D01*
X148101606Y-95125500D01*
X148222452Y-95101463D01*
X148336286Y-95054311D01*
X148438733Y-94985858D01*
X148525858Y-94898733D01*
X148594311Y-94796286D01*
X148641463Y-94682452D01*
X148665500Y-94561606D01*
X148665500Y-94438394D01*
X148641463Y-94317548D01*
X148594311Y-94203714D01*
X148525858Y-94101267D01*
X148438733Y-94014142D01*
X148336286Y-93945689D01*
X148336287Y-93945689D01*
X148336285Y-93945688D01*
X148222450Y-93898536D01*
X148101608Y-93874500D01*
X148101606Y-93874500D01*
X147978394Y-93874500D01*
X147978391Y-93874500D01*
X147857549Y-93898536D01*
X147743714Y-93945688D01*
X147641267Y-94014142D01*
X147641263Y-94014145D01*
X147554145Y-94101263D01*
X147554142Y-94101267D01*
X147485688Y-94203714D01*
X147438536Y-94317549D01*
X147414500Y-94438391D01*
X143377703Y-94438391D01*
X143372992Y-93108391D01*
X164164500Y-93108391D01*
X164164500Y-93231608D01*
X164188536Y-93352450D01*
X164235688Y-93466285D01*
X164235689Y-93466286D01*
X164304142Y-93568733D01*
X164391267Y-93655858D01*
X164493714Y-93724311D01*
X164607548Y-93771463D01*
X164728394Y-93795500D01*
X164728396Y-93795500D01*
X164851604Y-93795500D01*
X164851606Y-93795500D01*
X164972452Y-93771463D01*
X165086286Y-93724311D01*
X165188733Y-93655858D01*
X165275858Y-93568733D01*
X165344311Y-93466286D01*
X165391463Y-93352452D01*
X165415500Y-93231606D01*
X165415500Y-93108394D01*
X165391463Y-92987548D01*
X165344311Y-92873714D01*
X165275858Y-92771267D01*
X165188733Y-92684142D01*
X165086286Y-92615689D01*
X165086287Y-92615689D01*
X165086285Y-92615688D01*
X164972450Y-92568536D01*
X164851608Y-92544500D01*
X164851606Y-92544500D01*
X164728394Y-92544500D01*
X164728391Y-92544500D01*
X164607549Y-92568536D01*
X164493714Y-92615688D01*
X164391267Y-92684142D01*
X164391263Y-92684145D01*
X164304145Y-92771263D01*
X164304142Y-92771267D01*
X164235688Y-92873714D01*
X164188536Y-92987549D01*
X164164500Y-93108391D01*
X143372992Y-93108391D01*
X143366475Y-91268391D01*
X198694500Y-91268391D01*
X198694500Y-91391608D01*
X198718536Y-91512450D01*
X198765688Y-91626285D01*
X198765689Y-91626286D01*
X198834142Y-91728733D01*
X198921267Y-91815858D01*
X199023714Y-91884311D01*
X199137548Y-91931463D01*
X199258394Y-91955500D01*
X199258396Y-91955500D01*
X199381604Y-91955500D01*
X199381606Y-91955500D01*
X199502452Y-91931463D01*
X199616286Y-91884311D01*
X199718733Y-91815858D01*
X199805858Y-91728733D01*
X199874311Y-91626286D01*
X199921463Y-91512452D01*
X199945500Y-91391606D01*
X199945500Y-91268394D01*
X199921463Y-91147548D01*
X199874311Y-91033714D01*
X199805858Y-90931267D01*
X199718733Y-90844142D01*
X199616286Y-90775689D01*
X199616287Y-90775689D01*
X199616285Y-90775688D01*
X199502450Y-90728536D01*
X199381608Y-90704500D01*
X199381606Y-90704500D01*
X199258394Y-90704500D01*
X199258391Y-90704500D01*
X199137549Y-90728536D01*
X199023714Y-90775688D01*
X198921267Y-90844142D01*
X198921263Y-90844145D01*
X198834145Y-90931263D01*
X198834142Y-90931267D01*
X198765688Y-91033714D01*
X198718536Y-91147549D01*
X198694500Y-91268391D01*
X143366475Y-91268391D01*
X143361515Y-89868045D01*
X238313299Y-89868045D01*
X238313299Y-90071952D01*
X238345195Y-90273336D01*
X238408203Y-90467258D01*
X238500772Y-90648936D01*
X238500776Y-90648941D01*
X238530135Y-90689350D01*
X239097268Y-90122216D01*
X239111649Y-90175884D01*
X239181873Y-90297514D01*
X239281184Y-90396825D01*
X239402814Y-90467049D01*
X239456478Y-90481428D01*
X238889347Y-91048561D01*
X238929759Y-91077923D01*
X238929767Y-91077928D01*
X239111439Y-91170494D01*
X239305361Y-91233502D01*
X239506746Y-91265399D01*
X239710652Y-91265399D01*
X239912036Y-91233502D01*
X240105961Y-91170493D01*
X240105967Y-91170491D01*
X240287635Y-91077925D01*
X240328050Y-91048561D01*
X239760917Y-90481428D01*
X239814584Y-90467049D01*
X239936214Y-90396825D01*
X240035525Y-90297514D01*
X240105749Y-90175884D01*
X240120128Y-90122217D01*
X240687261Y-90689350D01*
X240716625Y-90648935D01*
X240809191Y-90467267D01*
X240809193Y-90467261D01*
X240872202Y-90273336D01*
X240904099Y-90071952D01*
X240904099Y-89868045D01*
X240872202Y-89666661D01*
X240809194Y-89472739D01*
X240716628Y-89291067D01*
X240716623Y-89291059D01*
X240687261Y-89250647D01*
X240120128Y-89817778D01*
X240105749Y-89764114D01*
X240035525Y-89642484D01*
X239936214Y-89543173D01*
X239814584Y-89472949D01*
X239760916Y-89458568D01*
X240328050Y-88891435D01*
X240287641Y-88862076D01*
X240287636Y-88862072D01*
X240105958Y-88769503D01*
X239912036Y-88706495D01*
X239710652Y-88674599D01*
X239506746Y-88674599D01*
X239305361Y-88706495D01*
X239111439Y-88769503D01*
X238929761Y-88862072D01*
X238929757Y-88862074D01*
X238889346Y-88891435D01*
X239456480Y-89458569D01*
X239402814Y-89472949D01*
X239281184Y-89543173D01*
X239181873Y-89642484D01*
X239111649Y-89764114D01*
X239097269Y-89817780D01*
X238530135Y-89250646D01*
X238500774Y-89291057D01*
X238500772Y-89291061D01*
X238408203Y-89472739D01*
X238345195Y-89666661D01*
X238313299Y-89868045D01*
X143361515Y-89868045D01*
X143350919Y-86876506D01*
X238420799Y-86876506D01*
X238420799Y-87063493D01*
X238450047Y-87248162D01*
X238450049Y-87248167D01*
X238507829Y-87425995D01*
X238592716Y-87592595D01*
X238702620Y-87743865D01*
X238834834Y-87876079D01*
X238986104Y-87985983D01*
X239152704Y-88070870D01*
X239330532Y-88128650D01*
X239330533Y-88128650D01*
X239330536Y-88128651D01*
X239515206Y-88157900D01*
X239515209Y-88157900D01*
X239702192Y-88157900D01*
X239886861Y-88128651D01*
X239886862Y-88128650D01*
X239886866Y-88128650D01*
X240064694Y-88070870D01*
X240231294Y-87985983D01*
X240382564Y-87876079D01*
X240514778Y-87743865D01*
X240624682Y-87592595D01*
X240709569Y-87425995D01*
X240767349Y-87248167D01*
X240796599Y-87063490D01*
X240796599Y-86876510D01*
X240796599Y-86876506D01*
X240767350Y-86691837D01*
X240767349Y-86691833D01*
X240709569Y-86514005D01*
X240624682Y-86347405D01*
X240514778Y-86196135D01*
X240382564Y-86063921D01*
X240231294Y-85954017D01*
X240231293Y-85954016D01*
X240231291Y-85954015D01*
X240064694Y-85869130D01*
X239886861Y-85811348D01*
X239702192Y-85782100D01*
X239702189Y-85782100D01*
X239515209Y-85782100D01*
X239515206Y-85782100D01*
X239330536Y-85811348D01*
X239152703Y-85869130D01*
X238986106Y-85954015D01*
X238834835Y-86063920D01*
X238702619Y-86196136D01*
X238592714Y-86347407D01*
X238507829Y-86514004D01*
X238450047Y-86691837D01*
X238420799Y-86876506D01*
X143350919Y-86876506D01*
X143340294Y-83876506D01*
X238420799Y-83876506D01*
X238420799Y-84063493D01*
X238450047Y-84248162D01*
X238450049Y-84248167D01*
X238507829Y-84425995D01*
X238592716Y-84592595D01*
X238702620Y-84743865D01*
X238834834Y-84876079D01*
X238986104Y-84985983D01*
X239152704Y-85070870D01*
X239330532Y-85128650D01*
X239330533Y-85128650D01*
X239330536Y-85128651D01*
X239515206Y-85157900D01*
X239515209Y-85157900D01*
X239702192Y-85157900D01*
X239886861Y-85128651D01*
X239886862Y-85128650D01*
X239886866Y-85128650D01*
X240064694Y-85070870D01*
X240231294Y-84985983D01*
X240382564Y-84876079D01*
X240514778Y-84743865D01*
X240624682Y-84592595D01*
X240709569Y-84425995D01*
X240767349Y-84248167D01*
X240796599Y-84063490D01*
X240796599Y-83876510D01*
X240796599Y-83876506D01*
X240767350Y-83691837D01*
X240767349Y-83691833D01*
X240709569Y-83514005D01*
X240624682Y-83347405D01*
X240514778Y-83196135D01*
X240382564Y-83063921D01*
X240231294Y-82954017D01*
X240231293Y-82954016D01*
X240231291Y-82954015D01*
X240064694Y-82869130D01*
X239886861Y-82811348D01*
X239702192Y-82782100D01*
X239702189Y-82782100D01*
X239515209Y-82782100D01*
X239515206Y-82782100D01*
X239330536Y-82811348D01*
X239152703Y-82869130D01*
X238986106Y-82954015D01*
X238834835Y-83063920D01*
X238702619Y-83196136D01*
X238592714Y-83347407D01*
X238507829Y-83514004D01*
X238450047Y-83691837D01*
X238420799Y-83876506D01*
X143340294Y-83876506D01*
X143336450Y-82791113D01*
X233022307Y-82791113D01*
X233022307Y-82914330D01*
X233046343Y-83035172D01*
X233093495Y-83149007D01*
X233093496Y-83149008D01*
X233161949Y-83251455D01*
X233249074Y-83338580D01*
X233351521Y-83407033D01*
X233465355Y-83454185D01*
X233586201Y-83478222D01*
X233586203Y-83478222D01*
X233709411Y-83478222D01*
X233709413Y-83478222D01*
X233830259Y-83454185D01*
X233944093Y-83407033D01*
X234046540Y-83338580D01*
X234133665Y-83251455D01*
X234202118Y-83149008D01*
X234249270Y-83035174D01*
X234273307Y-82914328D01*
X234273307Y-82791116D01*
X234249270Y-82670270D01*
X234202118Y-82556436D01*
X234133665Y-82453989D01*
X234046540Y-82366864D01*
X233944093Y-82298411D01*
X233944094Y-82298411D01*
X233944092Y-82298410D01*
X233830257Y-82251258D01*
X233709415Y-82227222D01*
X233709413Y-82227222D01*
X233586201Y-82227222D01*
X233586198Y-82227222D01*
X233465356Y-82251258D01*
X233351521Y-82298410D01*
X233249074Y-82366864D01*
X233249070Y-82366867D01*
X233161952Y-82453985D01*
X233161949Y-82453989D01*
X233093495Y-82556436D01*
X233046343Y-82670271D01*
X233022307Y-82791113D01*
X143336450Y-82791113D01*
X143328577Y-80568391D01*
X205234500Y-80568391D01*
X205234500Y-80691608D01*
X205258536Y-80812450D01*
X205305688Y-80926285D01*
X205305689Y-80926286D01*
X205374142Y-81028733D01*
X205461267Y-81115858D01*
X205563714Y-81184311D01*
X205677548Y-81231463D01*
X205798394Y-81255500D01*
X205798396Y-81255500D01*
X205921604Y-81255500D01*
X205921606Y-81255500D01*
X206042452Y-81231463D01*
X206156286Y-81184311D01*
X206258733Y-81115858D01*
X206345858Y-81028733D01*
X206414311Y-80926286D01*
X206461463Y-80812452D01*
X206485500Y-80691606D01*
X206485500Y-80568394D01*
X206485499Y-80568391D01*
X209234500Y-80568391D01*
X209234500Y-80691608D01*
X209258536Y-80812450D01*
X209305688Y-80926285D01*
X209305689Y-80926286D01*
X209374142Y-81028733D01*
X209461267Y-81115858D01*
X209563714Y-81184311D01*
X209677548Y-81231463D01*
X209798394Y-81255500D01*
X209798396Y-81255500D01*
X209921604Y-81255500D01*
X209921606Y-81255500D01*
X210042452Y-81231463D01*
X210156286Y-81184311D01*
X210258733Y-81115858D01*
X210345858Y-81028733D01*
X210414311Y-80926286D01*
X210461463Y-80812452D01*
X210485500Y-80691606D01*
X210485500Y-80568394D01*
X210485499Y-80568391D01*
X216434500Y-80568391D01*
X216434500Y-80691608D01*
X216458536Y-80812450D01*
X216505688Y-80926285D01*
X216505689Y-80926286D01*
X216574142Y-81028733D01*
X216661267Y-81115858D01*
X216763714Y-81184311D01*
X216877548Y-81231463D01*
X216998394Y-81255500D01*
X216998396Y-81255500D01*
X217121604Y-81255500D01*
X217121606Y-81255500D01*
X217242452Y-81231463D01*
X217356286Y-81184311D01*
X217458733Y-81115858D01*
X217545858Y-81028733D01*
X217614311Y-80926286D01*
X217661463Y-80812452D01*
X217685500Y-80691606D01*
X217685500Y-80568394D01*
X217685499Y-80568391D01*
X223634500Y-80568391D01*
X223634500Y-80691608D01*
X223658536Y-80812450D01*
X223705688Y-80926285D01*
X223705689Y-80926286D01*
X223774142Y-81028733D01*
X223861267Y-81115858D01*
X223963714Y-81184311D01*
X224077548Y-81231463D01*
X224198394Y-81255500D01*
X224198396Y-81255500D01*
X224321604Y-81255500D01*
X224321606Y-81255500D01*
X224442452Y-81231463D01*
X224556286Y-81184311D01*
X224604999Y-81151761D01*
X224663886Y-81135153D01*
X224715000Y-81151761D01*
X224763714Y-81184311D01*
X224877548Y-81231463D01*
X224998394Y-81255500D01*
X224998396Y-81255500D01*
X225121604Y-81255500D01*
X225121606Y-81255500D01*
X225242452Y-81231463D01*
X225356286Y-81184311D01*
X225404999Y-81151761D01*
X225463886Y-81135153D01*
X225515000Y-81151761D01*
X225563714Y-81184311D01*
X225677548Y-81231463D01*
X225798394Y-81255500D01*
X225798396Y-81255500D01*
X225921604Y-81255500D01*
X225921606Y-81255500D01*
X226042452Y-81231463D01*
X226156286Y-81184311D01*
X226204999Y-81151761D01*
X226263886Y-81135153D01*
X226315000Y-81151761D01*
X226363714Y-81184311D01*
X226477548Y-81231463D01*
X226598394Y-81255500D01*
X226598396Y-81255500D01*
X226721604Y-81255500D01*
X226721606Y-81255500D01*
X226842452Y-81231463D01*
X226956286Y-81184311D01*
X227058733Y-81115858D01*
X227145858Y-81028733D01*
X227214311Y-80926286D01*
X227261463Y-80812452D01*
X227285500Y-80691606D01*
X227285500Y-80568394D01*
X227285499Y-80568391D01*
X228434500Y-80568391D01*
X228434500Y-80691608D01*
X228458536Y-80812450D01*
X228505688Y-80926285D01*
X228505689Y-80926286D01*
X228574142Y-81028733D01*
X228661267Y-81115858D01*
X228763714Y-81184311D01*
X228877548Y-81231463D01*
X228998394Y-81255500D01*
X228998396Y-81255500D01*
X229121604Y-81255500D01*
X229121606Y-81255500D01*
X229242452Y-81231463D01*
X229356286Y-81184311D01*
X229458733Y-81115858D01*
X229545858Y-81028733D01*
X229614311Y-80926286D01*
X229634930Y-80876507D01*
X238420799Y-80876507D01*
X238420799Y-81063494D01*
X238450047Y-81248163D01*
X238450049Y-81248168D01*
X238507829Y-81425996D01*
X238592716Y-81592596D01*
X238702620Y-81743866D01*
X238834834Y-81876080D01*
X238986104Y-81985984D01*
X239152704Y-82070871D01*
X239330532Y-82128651D01*
X239330533Y-82128651D01*
X239330536Y-82128652D01*
X239515206Y-82157901D01*
X239515209Y-82157901D01*
X239702192Y-82157901D01*
X239886861Y-82128652D01*
X239886862Y-82128651D01*
X239886866Y-82128651D01*
X240064694Y-82070871D01*
X240231294Y-81985984D01*
X240382564Y-81876080D01*
X240514778Y-81743866D01*
X240624682Y-81592596D01*
X240709569Y-81425996D01*
X240767349Y-81248168D01*
X240777463Y-81184311D01*
X240796599Y-81063494D01*
X240796599Y-80876507D01*
X240767350Y-80691838D01*
X240767349Y-80691834D01*
X240709569Y-80514006D01*
X240624682Y-80347406D01*
X240514778Y-80196136D01*
X240382564Y-80063922D01*
X240231294Y-79954018D01*
X240231293Y-79954017D01*
X240231291Y-79954016D01*
X240064694Y-79869131D01*
X239886861Y-79811349D01*
X239702192Y-79782101D01*
X239702189Y-79782101D01*
X239515209Y-79782101D01*
X239515206Y-79782101D01*
X239330536Y-79811349D01*
X239152703Y-79869131D01*
X238986106Y-79954016D01*
X238834835Y-80063921D01*
X238702619Y-80196137D01*
X238592714Y-80347408D01*
X238507829Y-80514005D01*
X238450047Y-80691838D01*
X238420799Y-80876507D01*
X229634930Y-80876507D01*
X229661463Y-80812452D01*
X229685500Y-80691606D01*
X229685500Y-80568394D01*
X229661463Y-80447548D01*
X229614311Y-80333714D01*
X229545858Y-80231267D01*
X229458733Y-80144142D01*
X229356286Y-80075689D01*
X229356287Y-80075689D01*
X229356285Y-80075688D01*
X229242450Y-80028536D01*
X229121608Y-80004500D01*
X229121606Y-80004500D01*
X228998394Y-80004500D01*
X228998391Y-80004500D01*
X228877549Y-80028536D01*
X228763714Y-80075688D01*
X228661267Y-80144142D01*
X228661263Y-80144145D01*
X228574145Y-80231263D01*
X228574142Y-80231267D01*
X228505688Y-80333714D01*
X228458536Y-80447549D01*
X228434500Y-80568391D01*
X227285499Y-80568391D01*
X227261463Y-80447548D01*
X227214311Y-80333714D01*
X227145858Y-80231267D01*
X227058733Y-80144142D01*
X226956286Y-80075689D01*
X226956287Y-80075689D01*
X226956285Y-80075688D01*
X226842450Y-80028536D01*
X226721608Y-80004500D01*
X226721606Y-80004500D01*
X226598394Y-80004500D01*
X226598391Y-80004500D01*
X226477549Y-80028536D01*
X226363715Y-80075688D01*
X226315001Y-80108238D01*
X226256113Y-80124846D01*
X226204999Y-80108238D01*
X226200407Y-80105169D01*
X226156286Y-80075689D01*
X226127879Y-80063922D01*
X226042450Y-80028536D01*
X225921608Y-80004500D01*
X225921606Y-80004500D01*
X225798394Y-80004500D01*
X225798391Y-80004500D01*
X225677549Y-80028536D01*
X225563715Y-80075688D01*
X225515001Y-80108238D01*
X225456113Y-80124846D01*
X225404999Y-80108238D01*
X225400407Y-80105169D01*
X225356286Y-80075689D01*
X225327879Y-80063922D01*
X225242450Y-80028536D01*
X225121608Y-80004500D01*
X225121606Y-80004500D01*
X224998394Y-80004500D01*
X224998391Y-80004500D01*
X224877549Y-80028536D01*
X224763715Y-80075688D01*
X224715001Y-80108238D01*
X224656113Y-80124846D01*
X224604999Y-80108238D01*
X224600407Y-80105169D01*
X224556286Y-80075689D01*
X224527879Y-80063922D01*
X224442450Y-80028536D01*
X224321608Y-80004500D01*
X224321606Y-80004500D01*
X224198394Y-80004500D01*
X224198391Y-80004500D01*
X224077549Y-80028536D01*
X223963714Y-80075688D01*
X223861267Y-80144142D01*
X223861263Y-80144145D01*
X223774145Y-80231263D01*
X223774142Y-80231267D01*
X223705688Y-80333714D01*
X223658536Y-80447549D01*
X223634500Y-80568391D01*
X217685499Y-80568391D01*
X217661463Y-80447548D01*
X217614311Y-80333714D01*
X217545858Y-80231267D01*
X217458733Y-80144142D01*
X217356286Y-80075689D01*
X217356287Y-80075689D01*
X217356285Y-80075688D01*
X217242450Y-80028536D01*
X217121608Y-80004500D01*
X217121606Y-80004500D01*
X216998394Y-80004500D01*
X216998391Y-80004500D01*
X216877549Y-80028536D01*
X216763714Y-80075688D01*
X216661267Y-80144142D01*
X216661263Y-80144145D01*
X216574145Y-80231263D01*
X216574142Y-80231267D01*
X216505688Y-80333714D01*
X216458536Y-80447549D01*
X216434500Y-80568391D01*
X210485499Y-80568391D01*
X210461463Y-80447548D01*
X210414311Y-80333714D01*
X210345858Y-80231267D01*
X210258733Y-80144142D01*
X210156286Y-80075689D01*
X210156287Y-80075689D01*
X210156285Y-80075688D01*
X210042450Y-80028536D01*
X209921608Y-80004500D01*
X209921606Y-80004500D01*
X209798394Y-80004500D01*
X209798391Y-80004500D01*
X209677549Y-80028536D01*
X209563714Y-80075688D01*
X209461267Y-80144142D01*
X209461263Y-80144145D01*
X209374145Y-80231263D01*
X209374142Y-80231267D01*
X209305688Y-80333714D01*
X209258536Y-80447549D01*
X209234500Y-80568391D01*
X206485499Y-80568391D01*
X206461463Y-80447548D01*
X206414311Y-80333714D01*
X206345858Y-80231267D01*
X206258733Y-80144142D01*
X206156286Y-80075689D01*
X206156287Y-80075689D01*
X206156285Y-80075688D01*
X206042450Y-80028536D01*
X205921608Y-80004500D01*
X205921606Y-80004500D01*
X205798394Y-80004500D01*
X205798391Y-80004500D01*
X205677549Y-80028536D01*
X205563714Y-80075688D01*
X205461267Y-80144142D01*
X205461263Y-80144145D01*
X205374145Y-80231263D01*
X205374142Y-80231267D01*
X205305688Y-80333714D01*
X205258536Y-80447549D01*
X205234500Y-80568391D01*
X143328577Y-80568391D01*
X143306864Y-74438152D01*
X143325565Y-74379897D01*
X143374937Y-74343758D01*
X143436122Y-74343542D01*
X143448819Y-74348608D01*
X143460639Y-74354301D01*
X143591810Y-74400199D01*
X143741627Y-74452623D01*
X143741630Y-74452623D01*
X143741631Y-74452624D01*
X144031865Y-74518868D01*
X144111636Y-74527856D01*
X144327674Y-74552199D01*
X144327690Y-74552199D01*
X144327691Y-74552200D01*
X144327692Y-74552200D01*
X144625388Y-74552200D01*
X144625389Y-74552200D01*
X144625390Y-74552199D01*
X144625405Y-74552199D01*
X144814852Y-74530852D01*
X144921215Y-74518868D01*
X145211449Y-74452624D01*
X145492441Y-74354301D01*
X145760657Y-74225135D01*
X146012725Y-74066750D01*
X146245474Y-73881138D01*
X146455978Y-73670634D01*
X146641590Y-73437885D01*
X146799975Y-73185817D01*
X146929141Y-72917601D01*
X147027464Y-72636609D01*
X147093708Y-72346375D01*
X147112387Y-72180598D01*
X147127039Y-72050565D01*
X147127040Y-72050548D01*
X147127040Y-71752851D01*
X147127039Y-71752834D01*
X147093708Y-71457028D01*
X147093707Y-71457022D01*
X147027463Y-71166787D01*
X146961188Y-70977384D01*
X146929141Y-70885799D01*
X146866181Y-70755061D01*
X146811712Y-70641954D01*
X146803499Y-70581323D01*
X146832493Y-70527443D01*
X146887619Y-70500896D01*
X146900908Y-70500000D01*
X161265130Y-70500000D01*
X161323321Y-70518907D01*
G37*
%TD.AperFunction*%
%TD*%
M02*
