M48
; DRILL file {KiCad 9.0.1} date 2025-04-28T09:38:44-0500
; FORMAT={-:-/ absolute / inch / decimal}
; #@! TF.CreationDate,2025-04-28T09:38:44-05:00
; #@! TF.GenerationSoftware,Kicad,Pcbnew,9.0.1
; #@! TF.FileFunction,Plated,1,4,PTH
FMAT,2
INCH
; #@! TA.AperFunction,Plated,PTH,ViaDrill
T1C0.0079
; #@! TA.AperFunction,Plated,PTH,ComponentDrill
T2C0.0079
; #@! TA.AperFunction,Plated,PTH,ComponentDrill
T3C0.0276
; #@! TA.AperFunction,Plated,PTH,ComponentDrill
T4C0.0374
; #@! TA.AperFunction,Plated,PTH,ComponentDrill
T5C0.0394
; #@! TA.AperFunction,Plated,PTH,ComponentDrill
T6C0.0433
; #@! TA.AperFunction,Plated,PTH,ComponentDrill
T7C0.0906
%
G90
G05
T1
X5.9409Y-4.1909
X6.0138Y-4.252
X6.1803Y-4.0138
X6.1949Y-3.7697
X6.1969Y-3.7461
X6.2598Y-3.8465
X6.2598Y-3.8858
X6.311Y-5.4104
X6.385Y-5.5591
X6.4076Y-5.5591
X6.4368Y-5.5591
X6.4764Y-4.1024
X6.4764Y-4.125
X6.4764Y-5.5591
X6.5157Y-5.3425
X6.5157Y-5.4463
X6.5157Y-5.4689
X6.565Y-4.0512
X7.2067Y-5.6398
X7.2717Y-6.0059
X7.2756Y-5.1732
X7.4606Y-5.3031
X7.4724Y-3.7598
X7.5079Y-6.1201
X7.5329Y-4.0039
X7.5492Y-3.8602
X7.5591Y-6.1693
X7.5846Y-4.126
X7.5967Y-3.6676
X7.5984Y-4.0157
X7.6024Y-3.7618
X7.6043Y-3.2461
X7.6043Y-3.4803
X7.6437Y-5.1791
X7.6913Y-3.6835
X7.6949Y-5.3819
X7.7022Y-4.3406
X7.7068Y-3.9217
X7.7224Y-3.878
X7.7256Y-3.7008
X7.7303Y-3.6102
X7.7323Y-3.3858
X7.7362Y-3.8327
X7.7362Y-4.0413
X7.752Y-3.9685
X7.7776Y-5.126
X7.7795Y-5.6732
X7.7992Y-5.0945
X7.8209Y-3.5748
X7.8248Y-3.9232
X7.8346Y-3.5315
X7.8504Y-3.9921
X7.8622Y-3.4862
X7.8622Y-3.7598
X7.8723Y-3.4314
X7.8957Y-5.1772
X7.9705Y-4.998
X8.0709Y-5.0945
X8.3012Y-4.9626
X8.3268Y-5.5197
X8.3976Y-5.1476
X8.4173Y-5.2461
X8.4606Y-5.1949
X8.4705Y-5.5748
X8.4823Y-5.2598
X8.4921Y-5.9055
X8.5689Y-4.748
X8.6614Y-5.7362
X8.7323Y-6.2244
X8.7372Y-5.5266
X8.7598Y-4.8917
X8.7815Y-5.8445
X8.8238Y-5.6378
X8.8287Y-6.2264
X8.8858Y-5.2657
X8.937Y-4.9685
X8.9665Y-5.7057
X8.9764Y-4.9685
X9.0591Y-5.1339
X9.2539Y-5.4646
X9.313Y-6.1654
T2
X6.3996Y-5.4606
X6.4173Y-5.4429
X6.4173Y-5.4783
X6.435Y-5.4606
T3
X6.5917Y-6.0276
X6.6114Y-5.9685
X6.6705Y-6.0276
X6.7098Y-5.9685
X6.7492Y-6.0276
X6.7886Y-5.9685
X6.828Y-6.0276
X6.887Y-5.9685
X6.9067Y-6.0276
T4
X9.4567Y-3.0835
X9.4567Y-3.1819
X9.4567Y-3.2803
X9.4567Y-3.3787
T5
X6.0614Y-6.0512
X6.0614Y-6.1512
X6.1614Y-6.0512
X6.1614Y-6.1512
X6.2614Y-6.0512
X6.2614Y-6.1512
T6
X8.3661Y-6.1299
X8.4646Y-6.1299
T7
X6.4906Y-5.9724
X7.0079Y-5.9724
M30
