%TF.GenerationSoftware,KiCad,Pcbnew,9.0.1*%
%TF.CreationDate,2025-04-28T00:22:19-05:00*%
%TF.ProjectId,CM5IO,434d3549-4f2e-46b6-9963-61645f706362,rev?*%
%TF.SameCoordinates,Original*%
%TF.FileFunction,Soldermask,Top*%
%TF.FilePolarity,Negative*%
%FSLAX46Y46*%
G04 Gerber Fmt 4.6, Leading zero omitted, Abs format (unit mm)*
G04 Created by KiCad (PCBNEW 9.0.1) date 2025-04-28 00:22:19*
%MOMM*%
%LPD*%
G01*
G04 APERTURE LIST*
G04 Aperture macros list*
%AMRoundRect*
0 Rectangle with rounded corners*
0 $1 Rounding radius*
0 $2 $3 $4 $5 $6 $7 $8 $9 X,Y pos of 4 corners*
0 Add a 4 corners polygon primitive as box body*
4,1,4,$2,$3,$4,$5,$6,$7,$8,$9,$2,$3,0*
0 Add four circle primitives for the rounded corners*
1,1,$1+$1,$2,$3*
1,1,$1+$1,$4,$5*
1,1,$1+$1,$6,$7*
1,1,$1+$1,$8,$9*
0 Add four rect primitives between the rounded corners*
20,1,$1+$1,$2,$3,$4,$5,0*
20,1,$1+$1,$4,$5,$6,$7,0*
20,1,$1+$1,$6,$7,$8,$9,0*
20,1,$1+$1,$8,$9,$2,$3,0*%
G04 Aperture macros list end*
%ADD10C,0.010000*%
%ADD11RoundRect,0.135000X0.185000X-0.135000X0.185000X0.135000X-0.185000X0.135000X-0.185000X-0.135000X0*%
%ADD12RoundRect,0.218750X0.218750X0.256250X-0.218750X0.256250X-0.218750X-0.256250X0.218750X-0.256250X0*%
%ADD13RoundRect,0.100000X-0.100000X0.225000X-0.100000X-0.225000X0.100000X-0.225000X0.100000X0.225000X0*%
%ADD14C,5.300000*%
%ADD15RoundRect,0.250000X-0.350000X-0.450000X0.350000X-0.450000X0.350000X0.450000X-0.350000X0.450000X0*%
%ADD16R,0.300000X0.500000*%
%ADD17R,1.750000X1.050000*%
%ADD18RoundRect,0.250000X-0.250000X-0.475000X0.250000X-0.475000X0.250000X0.475000X-0.250000X0.475000X0*%
%ADD19RoundRect,0.250000X0.250000X0.475000X-0.250000X0.475000X-0.250000X-0.475000X0.250000X-0.475000X0*%
%ADD20RoundRect,0.250000X0.550000X-1.500000X0.550000X1.500000X-0.550000X1.500000X-0.550000X-1.500000X0*%
%ADD21C,2.100000*%
%ADD22R,0.600000X0.800000*%
%ADD23RoundRect,0.140000X-0.170000X0.140000X-0.170000X-0.140000X0.170000X-0.140000X0.170000X0.140000X0*%
%ADD24RoundRect,0.140000X-0.140000X-0.170000X0.140000X-0.170000X0.140000X0.170000X-0.140000X0.170000X0*%
%ADD25RoundRect,0.200000X-0.200000X-0.275000X0.200000X-0.275000X0.200000X0.275000X-0.200000X0.275000X0*%
%ADD26RoundRect,0.225000X-0.225000X-0.250000X0.225000X-0.250000X0.225000X0.250000X-0.225000X0.250000X0*%
%ADD27RoundRect,0.076200X-0.300000X-1.000000X0.300000X-1.000000X0.300000X1.000000X-0.300000X1.000000X0*%
%ADD28RoundRect,0.076200X-1.150000X-1.600000X1.150000X-1.600000X1.150000X1.600000X-1.150000X1.600000X0*%
%ADD29RoundRect,0.150000X0.625000X-0.150000X0.625000X0.150000X-0.625000X0.150000X-0.625000X-0.150000X0*%
%ADD30RoundRect,0.250000X0.650000X-0.350000X0.650000X0.350000X-0.650000X0.350000X-0.650000X-0.350000X0*%
%ADD31RoundRect,0.140000X0.170000X-0.140000X0.170000X0.140000X-0.170000X0.140000X-0.170000X-0.140000X0*%
%ADD32RoundRect,0.250000X1.025000X-0.787500X1.025000X0.787500X-1.025000X0.787500X-1.025000X-0.787500X0*%
%ADD33RoundRect,0.250000X0.725000X-0.600000X0.725000X0.600000X-0.725000X0.600000X-0.725000X-0.600000X0*%
%ADD34O,1.950000X1.700000*%
%ADD35RoundRect,0.150000X-0.150000X0.512500X-0.150000X-0.512500X0.150000X-0.512500X0.150000X0.512500X0*%
%ADD36RoundRect,0.500000X-0.500000X-0.900000X0.500000X-0.900000X0.500000X0.900000X-0.500000X0.900000X0*%
%ADD37RoundRect,0.140000X0.140000X0.170000X-0.140000X0.170000X-0.140000X-0.170000X0.140000X-0.170000X0*%
%ADD38RoundRect,0.218750X-0.218750X-0.256250X0.218750X-0.256250X0.218750X0.256250X-0.218750X0.256250X0*%
%ADD39RoundRect,0.150000X0.150000X-0.800000X0.150000X0.800000X-0.150000X0.800000X-0.150000X-0.800000X0*%
%ADD40R,1.200000X0.600000*%
%ADD41RoundRect,0.135000X-0.135000X-0.185000X0.135000X-0.185000X0.135000X0.185000X-0.135000X0.185000X0*%
%ADD42RoundRect,0.135000X0.135000X0.185000X-0.135000X0.185000X-0.135000X-0.185000X0.135000X-0.185000X0*%
%ADD43R,1.700000X1.700000*%
%ADD44O,1.700000X1.700000*%
%ADD45R,1.200000X1.200000*%
%ADD46RoundRect,0.135000X-0.185000X0.135000X-0.185000X-0.135000X0.185000X-0.135000X0.185000X0.135000X0*%
%ADD47RoundRect,0.250000X-0.550000X1.500000X-0.550000X-1.500000X0.550000X-1.500000X0.550000X1.500000X0*%
%ADD48R,4.800000X3.000000*%
%ADD49C,6.100000*%
%ADD50R,0.700000X0.200000*%
%ADD51C,1.000000*%
%ADD52C,2.500000*%
%ADD53RoundRect,0.076200X-0.575000X-0.325000X0.575000X-0.325000X0.575000X0.325000X-0.575000X0.325000X0*%
%ADD54RoundRect,0.076200X-0.650000X-0.225000X0.650000X-0.225000X0.650000X0.225000X-0.650000X0.225000X0*%
%ADD55RoundRect,0.076200X-0.850000X-0.700000X0.850000X-0.700000X0.850000X0.700000X-0.850000X0.700000X0*%
%ADD56RoundRect,0.076200X-0.400000X-0.270000X0.400000X-0.270000X0.400000X0.270000X-0.400000X0.270000X0*%
G04 APERTURE END LIST*
D10*
%TO.C,U2*%
X161928000Y-137756000D02*
X161930000Y-137756000D01*
X161933000Y-137757000D01*
X161935000Y-137757000D01*
X161938000Y-137758000D01*
X161940000Y-137759000D01*
X161943000Y-137760000D01*
X161945000Y-137762000D01*
X161947000Y-137763000D01*
X161949000Y-137765000D01*
X161951000Y-137766000D01*
X161953000Y-137768000D01*
X161955000Y-137770000D01*
X161957000Y-137772000D01*
X161959000Y-137774000D01*
X161960000Y-137776000D01*
X161962000Y-137778000D01*
X161963000Y-137780000D01*
X161965000Y-137782000D01*
X161966000Y-137785000D01*
X161967000Y-137787000D01*
X161968000Y-137790000D01*
X161968000Y-137792000D01*
X161969000Y-137795000D01*
X161969000Y-137797000D01*
X161970000Y-137800000D01*
X161970000Y-137802000D01*
X161970000Y-137805000D01*
X161970000Y-138095000D01*
X161970000Y-138098000D01*
X161970000Y-138100000D01*
X161969000Y-138103000D01*
X161969000Y-138105000D01*
X161968000Y-138108000D01*
X161968000Y-138110000D01*
X161967000Y-138113000D01*
X161966000Y-138115000D01*
X161965000Y-138118000D01*
X161963000Y-138120000D01*
X161962000Y-138122000D01*
X161960000Y-138124000D01*
X161959000Y-138126000D01*
X161957000Y-138128000D01*
X161955000Y-138130000D01*
X161953000Y-138132000D01*
X161951000Y-138134000D01*
X161949000Y-138135000D01*
X161947000Y-138137000D01*
X161945000Y-138138000D01*
X161943000Y-138140000D01*
X161940000Y-138141000D01*
X161938000Y-138142000D01*
X161935000Y-138143000D01*
X161933000Y-138143000D01*
X161930000Y-138144000D01*
X161928000Y-138144000D01*
X161925000Y-138145000D01*
X161923000Y-138145000D01*
X161920000Y-138145000D01*
X161280000Y-138145000D01*
X161277000Y-138145000D01*
X161275000Y-138145000D01*
X161272000Y-138144000D01*
X161270000Y-138144000D01*
X161267000Y-138143000D01*
X161265000Y-138143000D01*
X161262000Y-138142000D01*
X161260000Y-138141000D01*
X161257000Y-138140000D01*
X161255000Y-138138000D01*
X161253000Y-138137000D01*
X161251000Y-138135000D01*
X161249000Y-138134000D01*
X161247000Y-138132000D01*
X161245000Y-138130000D01*
X161243000Y-138128000D01*
X161241000Y-138126000D01*
X161240000Y-138124000D01*
X161238000Y-138122000D01*
X161237000Y-138120000D01*
X161235000Y-138118000D01*
X161234000Y-138115000D01*
X161233000Y-138113000D01*
X161232000Y-138110000D01*
X161232000Y-138108000D01*
X161231000Y-138105000D01*
X161231000Y-138103000D01*
X161230000Y-138100000D01*
X161230000Y-138098000D01*
X161230000Y-138095000D01*
X161230000Y-137805000D01*
X161230000Y-137802000D01*
X161230000Y-137800000D01*
X161231000Y-137797000D01*
X161231000Y-137795000D01*
X161232000Y-137792000D01*
X161232000Y-137790000D01*
X161233000Y-137787000D01*
X161234000Y-137785000D01*
X161235000Y-137782000D01*
X161237000Y-137780000D01*
X161238000Y-137778000D01*
X161240000Y-137776000D01*
X161241000Y-137774000D01*
X161243000Y-137772000D01*
X161245000Y-137770000D01*
X161247000Y-137768000D01*
X161249000Y-137766000D01*
X161251000Y-137765000D01*
X161253000Y-137763000D01*
X161255000Y-137762000D01*
X161257000Y-137760000D01*
X161260000Y-137759000D01*
X161262000Y-137758000D01*
X161265000Y-137757000D01*
X161267000Y-137757000D01*
X161270000Y-137756000D01*
X161272000Y-137756000D01*
X161275000Y-137755000D01*
X161277000Y-137755000D01*
X161280000Y-137755000D01*
X161920000Y-137755000D01*
X161923000Y-137755000D01*
X161925000Y-137755000D01*
X161928000Y-137756000D01*
G36*
X161928000Y-137756000D02*
G01*
X161930000Y-137756000D01*
X161933000Y-137757000D01*
X161935000Y-137757000D01*
X161938000Y-137758000D01*
X161940000Y-137759000D01*
X161943000Y-137760000D01*
X161945000Y-137762000D01*
X161947000Y-137763000D01*
X161949000Y-137765000D01*
X161951000Y-137766000D01*
X161953000Y-137768000D01*
X161955000Y-137770000D01*
X161957000Y-137772000D01*
X161959000Y-137774000D01*
X161960000Y-137776000D01*
X161962000Y-137778000D01*
X161963000Y-137780000D01*
X161965000Y-137782000D01*
X161966000Y-137785000D01*
X161967000Y-137787000D01*
X161968000Y-137790000D01*
X161968000Y-137792000D01*
X161969000Y-137795000D01*
X161969000Y-137797000D01*
X161970000Y-137800000D01*
X161970000Y-137802000D01*
X161970000Y-137805000D01*
X161970000Y-138095000D01*
X161970000Y-138098000D01*
X161970000Y-138100000D01*
X161969000Y-138103000D01*
X161969000Y-138105000D01*
X161968000Y-138108000D01*
X161968000Y-138110000D01*
X161967000Y-138113000D01*
X161966000Y-138115000D01*
X161965000Y-138118000D01*
X161963000Y-138120000D01*
X161962000Y-138122000D01*
X161960000Y-138124000D01*
X161959000Y-138126000D01*
X161957000Y-138128000D01*
X161955000Y-138130000D01*
X161953000Y-138132000D01*
X161951000Y-138134000D01*
X161949000Y-138135000D01*
X161947000Y-138137000D01*
X161945000Y-138138000D01*
X161943000Y-138140000D01*
X161940000Y-138141000D01*
X161938000Y-138142000D01*
X161935000Y-138143000D01*
X161933000Y-138143000D01*
X161930000Y-138144000D01*
X161928000Y-138144000D01*
X161925000Y-138145000D01*
X161923000Y-138145000D01*
X161920000Y-138145000D01*
X161280000Y-138145000D01*
X161277000Y-138145000D01*
X161275000Y-138145000D01*
X161272000Y-138144000D01*
X161270000Y-138144000D01*
X161267000Y-138143000D01*
X161265000Y-138143000D01*
X161262000Y-138142000D01*
X161260000Y-138141000D01*
X161257000Y-138140000D01*
X161255000Y-138138000D01*
X161253000Y-138137000D01*
X161251000Y-138135000D01*
X161249000Y-138134000D01*
X161247000Y-138132000D01*
X161245000Y-138130000D01*
X161243000Y-138128000D01*
X161241000Y-138126000D01*
X161240000Y-138124000D01*
X161238000Y-138122000D01*
X161237000Y-138120000D01*
X161235000Y-138118000D01*
X161234000Y-138115000D01*
X161233000Y-138113000D01*
X161232000Y-138110000D01*
X161232000Y-138108000D01*
X161231000Y-138105000D01*
X161231000Y-138103000D01*
X161230000Y-138100000D01*
X161230000Y-138098000D01*
X161230000Y-138095000D01*
X161230000Y-137805000D01*
X161230000Y-137802000D01*
X161230000Y-137800000D01*
X161231000Y-137797000D01*
X161231000Y-137795000D01*
X161232000Y-137792000D01*
X161232000Y-137790000D01*
X161233000Y-137787000D01*
X161234000Y-137785000D01*
X161235000Y-137782000D01*
X161237000Y-137780000D01*
X161238000Y-137778000D01*
X161240000Y-137776000D01*
X161241000Y-137774000D01*
X161243000Y-137772000D01*
X161245000Y-137770000D01*
X161247000Y-137768000D01*
X161249000Y-137766000D01*
X161251000Y-137765000D01*
X161253000Y-137763000D01*
X161255000Y-137762000D01*
X161257000Y-137760000D01*
X161260000Y-137759000D01*
X161262000Y-137758000D01*
X161265000Y-137757000D01*
X161267000Y-137757000D01*
X161270000Y-137756000D01*
X161272000Y-137756000D01*
X161275000Y-137755000D01*
X161277000Y-137755000D01*
X161280000Y-137755000D01*
X161920000Y-137755000D01*
X161923000Y-137755000D01*
X161925000Y-137755000D01*
X161928000Y-137756000D01*
G37*
X161928000Y-138256000D02*
X161930000Y-138256000D01*
X161933000Y-138257000D01*
X161935000Y-138257000D01*
X161938000Y-138258000D01*
X161940000Y-138259000D01*
X161943000Y-138260000D01*
X161945000Y-138262000D01*
X161947000Y-138263000D01*
X161949000Y-138265000D01*
X161951000Y-138266000D01*
X161953000Y-138268000D01*
X161955000Y-138270000D01*
X161957000Y-138272000D01*
X161959000Y-138274000D01*
X161960000Y-138276000D01*
X161962000Y-138278000D01*
X161963000Y-138280000D01*
X161965000Y-138282000D01*
X161966000Y-138285000D01*
X161967000Y-138287000D01*
X161968000Y-138290000D01*
X161968000Y-138292000D01*
X161969000Y-138295000D01*
X161969000Y-138297000D01*
X161970000Y-138300000D01*
X161970000Y-138302000D01*
X161970000Y-138305000D01*
X161970000Y-138595000D01*
X161970000Y-138598000D01*
X161970000Y-138600000D01*
X161969000Y-138603000D01*
X161969000Y-138605000D01*
X161968000Y-138608000D01*
X161968000Y-138610000D01*
X161967000Y-138613000D01*
X161966000Y-138615000D01*
X161965000Y-138618000D01*
X161963000Y-138620000D01*
X161962000Y-138622000D01*
X161960000Y-138624000D01*
X161959000Y-138626000D01*
X161957000Y-138628000D01*
X161955000Y-138630000D01*
X161953000Y-138632000D01*
X161951000Y-138634000D01*
X161949000Y-138635000D01*
X161947000Y-138637000D01*
X161945000Y-138638000D01*
X161943000Y-138640000D01*
X161940000Y-138641000D01*
X161938000Y-138642000D01*
X161935000Y-138643000D01*
X161933000Y-138643000D01*
X161930000Y-138644000D01*
X161928000Y-138644000D01*
X161925000Y-138645000D01*
X161923000Y-138645000D01*
X161920000Y-138645000D01*
X161280000Y-138645000D01*
X161277000Y-138645000D01*
X161275000Y-138645000D01*
X161272000Y-138644000D01*
X161270000Y-138644000D01*
X161267000Y-138643000D01*
X161265000Y-138643000D01*
X161262000Y-138642000D01*
X161260000Y-138641000D01*
X161257000Y-138640000D01*
X161255000Y-138638000D01*
X161253000Y-138637000D01*
X161251000Y-138635000D01*
X161249000Y-138634000D01*
X161247000Y-138632000D01*
X161245000Y-138630000D01*
X161243000Y-138628000D01*
X161241000Y-138626000D01*
X161240000Y-138624000D01*
X161238000Y-138622000D01*
X161237000Y-138620000D01*
X161235000Y-138618000D01*
X161234000Y-138615000D01*
X161233000Y-138613000D01*
X161232000Y-138610000D01*
X161232000Y-138608000D01*
X161231000Y-138605000D01*
X161231000Y-138603000D01*
X161230000Y-138600000D01*
X161230000Y-138598000D01*
X161230000Y-138595000D01*
X161230000Y-138305000D01*
X161230000Y-138302000D01*
X161230000Y-138300000D01*
X161231000Y-138297000D01*
X161231000Y-138295000D01*
X161232000Y-138292000D01*
X161232000Y-138290000D01*
X161233000Y-138287000D01*
X161234000Y-138285000D01*
X161235000Y-138282000D01*
X161237000Y-138280000D01*
X161238000Y-138278000D01*
X161240000Y-138276000D01*
X161241000Y-138274000D01*
X161243000Y-138272000D01*
X161245000Y-138270000D01*
X161247000Y-138268000D01*
X161249000Y-138266000D01*
X161251000Y-138265000D01*
X161253000Y-138263000D01*
X161255000Y-138262000D01*
X161257000Y-138260000D01*
X161260000Y-138259000D01*
X161262000Y-138258000D01*
X161265000Y-138257000D01*
X161267000Y-138257000D01*
X161270000Y-138256000D01*
X161272000Y-138256000D01*
X161275000Y-138255000D01*
X161277000Y-138255000D01*
X161280000Y-138255000D01*
X161920000Y-138255000D01*
X161923000Y-138255000D01*
X161925000Y-138255000D01*
X161928000Y-138256000D01*
G36*
X161928000Y-138256000D02*
G01*
X161930000Y-138256000D01*
X161933000Y-138257000D01*
X161935000Y-138257000D01*
X161938000Y-138258000D01*
X161940000Y-138259000D01*
X161943000Y-138260000D01*
X161945000Y-138262000D01*
X161947000Y-138263000D01*
X161949000Y-138265000D01*
X161951000Y-138266000D01*
X161953000Y-138268000D01*
X161955000Y-138270000D01*
X161957000Y-138272000D01*
X161959000Y-138274000D01*
X161960000Y-138276000D01*
X161962000Y-138278000D01*
X161963000Y-138280000D01*
X161965000Y-138282000D01*
X161966000Y-138285000D01*
X161967000Y-138287000D01*
X161968000Y-138290000D01*
X161968000Y-138292000D01*
X161969000Y-138295000D01*
X161969000Y-138297000D01*
X161970000Y-138300000D01*
X161970000Y-138302000D01*
X161970000Y-138305000D01*
X161970000Y-138595000D01*
X161970000Y-138598000D01*
X161970000Y-138600000D01*
X161969000Y-138603000D01*
X161969000Y-138605000D01*
X161968000Y-138608000D01*
X161968000Y-138610000D01*
X161967000Y-138613000D01*
X161966000Y-138615000D01*
X161965000Y-138618000D01*
X161963000Y-138620000D01*
X161962000Y-138622000D01*
X161960000Y-138624000D01*
X161959000Y-138626000D01*
X161957000Y-138628000D01*
X161955000Y-138630000D01*
X161953000Y-138632000D01*
X161951000Y-138634000D01*
X161949000Y-138635000D01*
X161947000Y-138637000D01*
X161945000Y-138638000D01*
X161943000Y-138640000D01*
X161940000Y-138641000D01*
X161938000Y-138642000D01*
X161935000Y-138643000D01*
X161933000Y-138643000D01*
X161930000Y-138644000D01*
X161928000Y-138644000D01*
X161925000Y-138645000D01*
X161923000Y-138645000D01*
X161920000Y-138645000D01*
X161280000Y-138645000D01*
X161277000Y-138645000D01*
X161275000Y-138645000D01*
X161272000Y-138644000D01*
X161270000Y-138644000D01*
X161267000Y-138643000D01*
X161265000Y-138643000D01*
X161262000Y-138642000D01*
X161260000Y-138641000D01*
X161257000Y-138640000D01*
X161255000Y-138638000D01*
X161253000Y-138637000D01*
X161251000Y-138635000D01*
X161249000Y-138634000D01*
X161247000Y-138632000D01*
X161245000Y-138630000D01*
X161243000Y-138628000D01*
X161241000Y-138626000D01*
X161240000Y-138624000D01*
X161238000Y-138622000D01*
X161237000Y-138620000D01*
X161235000Y-138618000D01*
X161234000Y-138615000D01*
X161233000Y-138613000D01*
X161232000Y-138610000D01*
X161232000Y-138608000D01*
X161231000Y-138605000D01*
X161231000Y-138603000D01*
X161230000Y-138600000D01*
X161230000Y-138598000D01*
X161230000Y-138595000D01*
X161230000Y-138305000D01*
X161230000Y-138302000D01*
X161230000Y-138300000D01*
X161231000Y-138297000D01*
X161231000Y-138295000D01*
X161232000Y-138292000D01*
X161232000Y-138290000D01*
X161233000Y-138287000D01*
X161234000Y-138285000D01*
X161235000Y-138282000D01*
X161237000Y-138280000D01*
X161238000Y-138278000D01*
X161240000Y-138276000D01*
X161241000Y-138274000D01*
X161243000Y-138272000D01*
X161245000Y-138270000D01*
X161247000Y-138268000D01*
X161249000Y-138266000D01*
X161251000Y-138265000D01*
X161253000Y-138263000D01*
X161255000Y-138262000D01*
X161257000Y-138260000D01*
X161260000Y-138259000D01*
X161262000Y-138258000D01*
X161265000Y-138257000D01*
X161267000Y-138257000D01*
X161270000Y-138256000D01*
X161272000Y-138256000D01*
X161275000Y-138255000D01*
X161277000Y-138255000D01*
X161280000Y-138255000D01*
X161920000Y-138255000D01*
X161923000Y-138255000D01*
X161925000Y-138255000D01*
X161928000Y-138256000D01*
G37*
X161928000Y-138756000D02*
X161930000Y-138756000D01*
X161933000Y-138757000D01*
X161935000Y-138757000D01*
X161938000Y-138758000D01*
X161940000Y-138759000D01*
X161943000Y-138760000D01*
X161945000Y-138762000D01*
X161947000Y-138763000D01*
X161949000Y-138765000D01*
X161951000Y-138766000D01*
X161953000Y-138768000D01*
X161955000Y-138770000D01*
X161957000Y-138772000D01*
X161959000Y-138774000D01*
X161960000Y-138776000D01*
X161962000Y-138778000D01*
X161963000Y-138780000D01*
X161965000Y-138782000D01*
X161966000Y-138785000D01*
X161967000Y-138787000D01*
X161968000Y-138790000D01*
X161968000Y-138792000D01*
X161969000Y-138795000D01*
X161969000Y-138797000D01*
X161970000Y-138800000D01*
X161970000Y-138802000D01*
X161970000Y-138805000D01*
X161970000Y-139095000D01*
X161970000Y-139098000D01*
X161970000Y-139100000D01*
X161969000Y-139103000D01*
X161969000Y-139105000D01*
X161968000Y-139108000D01*
X161968000Y-139110000D01*
X161967000Y-139113000D01*
X161966000Y-139115000D01*
X161965000Y-139118000D01*
X161963000Y-139120000D01*
X161962000Y-139122000D01*
X161960000Y-139124000D01*
X161959000Y-139126000D01*
X161957000Y-139128000D01*
X161955000Y-139130000D01*
X161953000Y-139132000D01*
X161951000Y-139134000D01*
X161949000Y-139135000D01*
X161947000Y-139137000D01*
X161945000Y-139138000D01*
X161943000Y-139140000D01*
X161940000Y-139141000D01*
X161938000Y-139142000D01*
X161935000Y-139143000D01*
X161933000Y-139143000D01*
X161930000Y-139144000D01*
X161928000Y-139144000D01*
X161925000Y-139145000D01*
X161923000Y-139145000D01*
X161920000Y-139145000D01*
X161280000Y-139145000D01*
X161277000Y-139145000D01*
X161275000Y-139145000D01*
X161272000Y-139144000D01*
X161270000Y-139144000D01*
X161267000Y-139143000D01*
X161265000Y-139143000D01*
X161262000Y-139142000D01*
X161260000Y-139141000D01*
X161257000Y-139140000D01*
X161255000Y-139138000D01*
X161253000Y-139137000D01*
X161251000Y-139135000D01*
X161249000Y-139134000D01*
X161247000Y-139132000D01*
X161245000Y-139130000D01*
X161243000Y-139128000D01*
X161241000Y-139126000D01*
X161240000Y-139124000D01*
X161238000Y-139122000D01*
X161237000Y-139120000D01*
X161235000Y-139118000D01*
X161234000Y-139115000D01*
X161233000Y-139113000D01*
X161232000Y-139110000D01*
X161232000Y-139108000D01*
X161231000Y-139105000D01*
X161231000Y-139103000D01*
X161230000Y-139100000D01*
X161230000Y-139098000D01*
X161230000Y-139095000D01*
X161230000Y-138805000D01*
X161230000Y-138802000D01*
X161230000Y-138800000D01*
X161231000Y-138797000D01*
X161231000Y-138795000D01*
X161232000Y-138792000D01*
X161232000Y-138790000D01*
X161233000Y-138787000D01*
X161234000Y-138785000D01*
X161235000Y-138782000D01*
X161237000Y-138780000D01*
X161238000Y-138778000D01*
X161240000Y-138776000D01*
X161241000Y-138774000D01*
X161243000Y-138772000D01*
X161245000Y-138770000D01*
X161247000Y-138768000D01*
X161249000Y-138766000D01*
X161251000Y-138765000D01*
X161253000Y-138763000D01*
X161255000Y-138762000D01*
X161257000Y-138760000D01*
X161260000Y-138759000D01*
X161262000Y-138758000D01*
X161265000Y-138757000D01*
X161267000Y-138757000D01*
X161270000Y-138756000D01*
X161272000Y-138756000D01*
X161275000Y-138755000D01*
X161277000Y-138755000D01*
X161280000Y-138755000D01*
X161920000Y-138755000D01*
X161923000Y-138755000D01*
X161925000Y-138755000D01*
X161928000Y-138756000D01*
G36*
X161928000Y-138756000D02*
G01*
X161930000Y-138756000D01*
X161933000Y-138757000D01*
X161935000Y-138757000D01*
X161938000Y-138758000D01*
X161940000Y-138759000D01*
X161943000Y-138760000D01*
X161945000Y-138762000D01*
X161947000Y-138763000D01*
X161949000Y-138765000D01*
X161951000Y-138766000D01*
X161953000Y-138768000D01*
X161955000Y-138770000D01*
X161957000Y-138772000D01*
X161959000Y-138774000D01*
X161960000Y-138776000D01*
X161962000Y-138778000D01*
X161963000Y-138780000D01*
X161965000Y-138782000D01*
X161966000Y-138785000D01*
X161967000Y-138787000D01*
X161968000Y-138790000D01*
X161968000Y-138792000D01*
X161969000Y-138795000D01*
X161969000Y-138797000D01*
X161970000Y-138800000D01*
X161970000Y-138802000D01*
X161970000Y-138805000D01*
X161970000Y-139095000D01*
X161970000Y-139098000D01*
X161970000Y-139100000D01*
X161969000Y-139103000D01*
X161969000Y-139105000D01*
X161968000Y-139108000D01*
X161968000Y-139110000D01*
X161967000Y-139113000D01*
X161966000Y-139115000D01*
X161965000Y-139118000D01*
X161963000Y-139120000D01*
X161962000Y-139122000D01*
X161960000Y-139124000D01*
X161959000Y-139126000D01*
X161957000Y-139128000D01*
X161955000Y-139130000D01*
X161953000Y-139132000D01*
X161951000Y-139134000D01*
X161949000Y-139135000D01*
X161947000Y-139137000D01*
X161945000Y-139138000D01*
X161943000Y-139140000D01*
X161940000Y-139141000D01*
X161938000Y-139142000D01*
X161935000Y-139143000D01*
X161933000Y-139143000D01*
X161930000Y-139144000D01*
X161928000Y-139144000D01*
X161925000Y-139145000D01*
X161923000Y-139145000D01*
X161920000Y-139145000D01*
X161280000Y-139145000D01*
X161277000Y-139145000D01*
X161275000Y-139145000D01*
X161272000Y-139144000D01*
X161270000Y-139144000D01*
X161267000Y-139143000D01*
X161265000Y-139143000D01*
X161262000Y-139142000D01*
X161260000Y-139141000D01*
X161257000Y-139140000D01*
X161255000Y-139138000D01*
X161253000Y-139137000D01*
X161251000Y-139135000D01*
X161249000Y-139134000D01*
X161247000Y-139132000D01*
X161245000Y-139130000D01*
X161243000Y-139128000D01*
X161241000Y-139126000D01*
X161240000Y-139124000D01*
X161238000Y-139122000D01*
X161237000Y-139120000D01*
X161235000Y-139118000D01*
X161234000Y-139115000D01*
X161233000Y-139113000D01*
X161232000Y-139110000D01*
X161232000Y-139108000D01*
X161231000Y-139105000D01*
X161231000Y-139103000D01*
X161230000Y-139100000D01*
X161230000Y-139098000D01*
X161230000Y-139095000D01*
X161230000Y-138805000D01*
X161230000Y-138802000D01*
X161230000Y-138800000D01*
X161231000Y-138797000D01*
X161231000Y-138795000D01*
X161232000Y-138792000D01*
X161232000Y-138790000D01*
X161233000Y-138787000D01*
X161234000Y-138785000D01*
X161235000Y-138782000D01*
X161237000Y-138780000D01*
X161238000Y-138778000D01*
X161240000Y-138776000D01*
X161241000Y-138774000D01*
X161243000Y-138772000D01*
X161245000Y-138770000D01*
X161247000Y-138768000D01*
X161249000Y-138766000D01*
X161251000Y-138765000D01*
X161253000Y-138763000D01*
X161255000Y-138762000D01*
X161257000Y-138760000D01*
X161260000Y-138759000D01*
X161262000Y-138758000D01*
X161265000Y-138757000D01*
X161267000Y-138757000D01*
X161270000Y-138756000D01*
X161272000Y-138756000D01*
X161275000Y-138755000D01*
X161277000Y-138755000D01*
X161280000Y-138755000D01*
X161920000Y-138755000D01*
X161923000Y-138755000D01*
X161925000Y-138755000D01*
X161928000Y-138756000D01*
G37*
X161928000Y-139256000D02*
X161930000Y-139256000D01*
X161933000Y-139257000D01*
X161935000Y-139257000D01*
X161938000Y-139258000D01*
X161940000Y-139259000D01*
X161943000Y-139260000D01*
X161945000Y-139262000D01*
X161947000Y-139263000D01*
X161949000Y-139265000D01*
X161951000Y-139266000D01*
X161953000Y-139268000D01*
X161955000Y-139270000D01*
X161957000Y-139272000D01*
X161959000Y-139274000D01*
X161960000Y-139276000D01*
X161962000Y-139278000D01*
X161963000Y-139280000D01*
X161965000Y-139282000D01*
X161966000Y-139285000D01*
X161967000Y-139287000D01*
X161968000Y-139290000D01*
X161968000Y-139292000D01*
X161969000Y-139295000D01*
X161969000Y-139297000D01*
X161970000Y-139300000D01*
X161970000Y-139302000D01*
X161970000Y-139305000D01*
X161970000Y-139595000D01*
X161970000Y-139598000D01*
X161970000Y-139600000D01*
X161969000Y-139603000D01*
X161969000Y-139605000D01*
X161968000Y-139608000D01*
X161968000Y-139610000D01*
X161967000Y-139613000D01*
X161966000Y-139615000D01*
X161965000Y-139618000D01*
X161963000Y-139620000D01*
X161962000Y-139622000D01*
X161960000Y-139624000D01*
X161959000Y-139626000D01*
X161957000Y-139628000D01*
X161955000Y-139630000D01*
X161953000Y-139632000D01*
X161951000Y-139634000D01*
X161949000Y-139635000D01*
X161947000Y-139637000D01*
X161945000Y-139638000D01*
X161943000Y-139640000D01*
X161940000Y-139641000D01*
X161938000Y-139642000D01*
X161935000Y-139643000D01*
X161933000Y-139643000D01*
X161930000Y-139644000D01*
X161928000Y-139644000D01*
X161925000Y-139645000D01*
X161923000Y-139645000D01*
X161920000Y-139645000D01*
X161280000Y-139645000D01*
X161277000Y-139645000D01*
X161275000Y-139645000D01*
X161272000Y-139644000D01*
X161270000Y-139644000D01*
X161267000Y-139643000D01*
X161265000Y-139643000D01*
X161262000Y-139642000D01*
X161260000Y-139641000D01*
X161257000Y-139640000D01*
X161255000Y-139638000D01*
X161253000Y-139637000D01*
X161251000Y-139635000D01*
X161249000Y-139634000D01*
X161247000Y-139632000D01*
X161245000Y-139630000D01*
X161243000Y-139628000D01*
X161241000Y-139626000D01*
X161240000Y-139624000D01*
X161238000Y-139622000D01*
X161237000Y-139620000D01*
X161235000Y-139618000D01*
X161234000Y-139615000D01*
X161233000Y-139613000D01*
X161232000Y-139610000D01*
X161232000Y-139608000D01*
X161231000Y-139605000D01*
X161231000Y-139603000D01*
X161230000Y-139600000D01*
X161230000Y-139598000D01*
X161230000Y-139595000D01*
X161230000Y-139305000D01*
X161230000Y-139302000D01*
X161230000Y-139300000D01*
X161231000Y-139297000D01*
X161231000Y-139295000D01*
X161232000Y-139292000D01*
X161232000Y-139290000D01*
X161233000Y-139287000D01*
X161234000Y-139285000D01*
X161235000Y-139282000D01*
X161237000Y-139280000D01*
X161238000Y-139278000D01*
X161240000Y-139276000D01*
X161241000Y-139274000D01*
X161243000Y-139272000D01*
X161245000Y-139270000D01*
X161247000Y-139268000D01*
X161249000Y-139266000D01*
X161251000Y-139265000D01*
X161253000Y-139263000D01*
X161255000Y-139262000D01*
X161257000Y-139260000D01*
X161260000Y-139259000D01*
X161262000Y-139258000D01*
X161265000Y-139257000D01*
X161267000Y-139257000D01*
X161270000Y-139256000D01*
X161272000Y-139256000D01*
X161275000Y-139255000D01*
X161277000Y-139255000D01*
X161280000Y-139255000D01*
X161920000Y-139255000D01*
X161923000Y-139255000D01*
X161925000Y-139255000D01*
X161928000Y-139256000D01*
G36*
X161928000Y-139256000D02*
G01*
X161930000Y-139256000D01*
X161933000Y-139257000D01*
X161935000Y-139257000D01*
X161938000Y-139258000D01*
X161940000Y-139259000D01*
X161943000Y-139260000D01*
X161945000Y-139262000D01*
X161947000Y-139263000D01*
X161949000Y-139265000D01*
X161951000Y-139266000D01*
X161953000Y-139268000D01*
X161955000Y-139270000D01*
X161957000Y-139272000D01*
X161959000Y-139274000D01*
X161960000Y-139276000D01*
X161962000Y-139278000D01*
X161963000Y-139280000D01*
X161965000Y-139282000D01*
X161966000Y-139285000D01*
X161967000Y-139287000D01*
X161968000Y-139290000D01*
X161968000Y-139292000D01*
X161969000Y-139295000D01*
X161969000Y-139297000D01*
X161970000Y-139300000D01*
X161970000Y-139302000D01*
X161970000Y-139305000D01*
X161970000Y-139595000D01*
X161970000Y-139598000D01*
X161970000Y-139600000D01*
X161969000Y-139603000D01*
X161969000Y-139605000D01*
X161968000Y-139608000D01*
X161968000Y-139610000D01*
X161967000Y-139613000D01*
X161966000Y-139615000D01*
X161965000Y-139618000D01*
X161963000Y-139620000D01*
X161962000Y-139622000D01*
X161960000Y-139624000D01*
X161959000Y-139626000D01*
X161957000Y-139628000D01*
X161955000Y-139630000D01*
X161953000Y-139632000D01*
X161951000Y-139634000D01*
X161949000Y-139635000D01*
X161947000Y-139637000D01*
X161945000Y-139638000D01*
X161943000Y-139640000D01*
X161940000Y-139641000D01*
X161938000Y-139642000D01*
X161935000Y-139643000D01*
X161933000Y-139643000D01*
X161930000Y-139644000D01*
X161928000Y-139644000D01*
X161925000Y-139645000D01*
X161923000Y-139645000D01*
X161920000Y-139645000D01*
X161280000Y-139645000D01*
X161277000Y-139645000D01*
X161275000Y-139645000D01*
X161272000Y-139644000D01*
X161270000Y-139644000D01*
X161267000Y-139643000D01*
X161265000Y-139643000D01*
X161262000Y-139642000D01*
X161260000Y-139641000D01*
X161257000Y-139640000D01*
X161255000Y-139638000D01*
X161253000Y-139637000D01*
X161251000Y-139635000D01*
X161249000Y-139634000D01*
X161247000Y-139632000D01*
X161245000Y-139630000D01*
X161243000Y-139628000D01*
X161241000Y-139626000D01*
X161240000Y-139624000D01*
X161238000Y-139622000D01*
X161237000Y-139620000D01*
X161235000Y-139618000D01*
X161234000Y-139615000D01*
X161233000Y-139613000D01*
X161232000Y-139610000D01*
X161232000Y-139608000D01*
X161231000Y-139605000D01*
X161231000Y-139603000D01*
X161230000Y-139600000D01*
X161230000Y-139598000D01*
X161230000Y-139595000D01*
X161230000Y-139305000D01*
X161230000Y-139302000D01*
X161230000Y-139300000D01*
X161231000Y-139297000D01*
X161231000Y-139295000D01*
X161232000Y-139292000D01*
X161232000Y-139290000D01*
X161233000Y-139287000D01*
X161234000Y-139285000D01*
X161235000Y-139282000D01*
X161237000Y-139280000D01*
X161238000Y-139278000D01*
X161240000Y-139276000D01*
X161241000Y-139274000D01*
X161243000Y-139272000D01*
X161245000Y-139270000D01*
X161247000Y-139268000D01*
X161249000Y-139266000D01*
X161251000Y-139265000D01*
X161253000Y-139263000D01*
X161255000Y-139262000D01*
X161257000Y-139260000D01*
X161260000Y-139259000D01*
X161262000Y-139258000D01*
X161265000Y-139257000D01*
X161267000Y-139257000D01*
X161270000Y-139256000D01*
X161272000Y-139256000D01*
X161275000Y-139255000D01*
X161277000Y-139255000D01*
X161280000Y-139255000D01*
X161920000Y-139255000D01*
X161923000Y-139255000D01*
X161925000Y-139255000D01*
X161928000Y-139256000D01*
G37*
X162403000Y-136931000D02*
X162405000Y-136931000D01*
X162408000Y-136932000D01*
X162410000Y-136932000D01*
X162413000Y-136933000D01*
X162415000Y-136934000D01*
X162418000Y-136935000D01*
X162420000Y-136937000D01*
X162422000Y-136938000D01*
X162424000Y-136940000D01*
X162426000Y-136941000D01*
X162428000Y-136943000D01*
X162430000Y-136945000D01*
X162432000Y-136947000D01*
X162434000Y-136949000D01*
X162435000Y-136951000D01*
X162437000Y-136953000D01*
X162438000Y-136955000D01*
X162440000Y-136957000D01*
X162441000Y-136960000D01*
X162442000Y-136962000D01*
X162443000Y-136965000D01*
X162443000Y-136967000D01*
X162444000Y-136970000D01*
X162444000Y-136972000D01*
X162445000Y-136975000D01*
X162445000Y-136977000D01*
X162445000Y-136980000D01*
X162445000Y-137620000D01*
X162445000Y-137623000D01*
X162445000Y-137625000D01*
X162444000Y-137628000D01*
X162444000Y-137630000D01*
X162443000Y-137633000D01*
X162443000Y-137635000D01*
X162442000Y-137638000D01*
X162441000Y-137640000D01*
X162440000Y-137643000D01*
X162438000Y-137645000D01*
X162437000Y-137647000D01*
X162435000Y-137649000D01*
X162434000Y-137651000D01*
X162432000Y-137653000D01*
X162430000Y-137655000D01*
X162428000Y-137657000D01*
X162426000Y-137659000D01*
X162424000Y-137660000D01*
X162422000Y-137662000D01*
X162420000Y-137663000D01*
X162418000Y-137665000D01*
X162415000Y-137666000D01*
X162413000Y-137667000D01*
X162410000Y-137668000D01*
X162408000Y-137668000D01*
X162405000Y-137669000D01*
X162403000Y-137669000D01*
X162400000Y-137670000D01*
X162398000Y-137670000D01*
X162395000Y-137670000D01*
X162105000Y-137670000D01*
X162102000Y-137670000D01*
X162100000Y-137670000D01*
X162097000Y-137669000D01*
X162095000Y-137669000D01*
X162092000Y-137668000D01*
X162090000Y-137668000D01*
X162087000Y-137667000D01*
X162085000Y-137666000D01*
X162082000Y-137665000D01*
X162080000Y-137663000D01*
X162078000Y-137662000D01*
X162076000Y-137660000D01*
X162074000Y-137659000D01*
X162072000Y-137657000D01*
X162070000Y-137655000D01*
X162068000Y-137653000D01*
X162066000Y-137651000D01*
X162065000Y-137649000D01*
X162063000Y-137647000D01*
X162062000Y-137645000D01*
X162060000Y-137643000D01*
X162059000Y-137640000D01*
X162058000Y-137638000D01*
X162057000Y-137635000D01*
X162057000Y-137633000D01*
X162056000Y-137630000D01*
X162056000Y-137628000D01*
X162055000Y-137625000D01*
X162055000Y-137623000D01*
X162055000Y-137620000D01*
X162055000Y-136980000D01*
X162055000Y-136977000D01*
X162055000Y-136975000D01*
X162056000Y-136972000D01*
X162056000Y-136970000D01*
X162057000Y-136967000D01*
X162057000Y-136965000D01*
X162058000Y-136962000D01*
X162059000Y-136960000D01*
X162060000Y-136957000D01*
X162062000Y-136955000D01*
X162063000Y-136953000D01*
X162065000Y-136951000D01*
X162066000Y-136949000D01*
X162068000Y-136947000D01*
X162070000Y-136945000D01*
X162072000Y-136943000D01*
X162074000Y-136941000D01*
X162076000Y-136940000D01*
X162078000Y-136938000D01*
X162080000Y-136937000D01*
X162082000Y-136935000D01*
X162085000Y-136934000D01*
X162087000Y-136933000D01*
X162090000Y-136932000D01*
X162092000Y-136932000D01*
X162095000Y-136931000D01*
X162097000Y-136931000D01*
X162100000Y-136930000D01*
X162102000Y-136930000D01*
X162105000Y-136930000D01*
X162395000Y-136930000D01*
X162398000Y-136930000D01*
X162400000Y-136930000D01*
X162403000Y-136931000D01*
G36*
X162403000Y-136931000D02*
G01*
X162405000Y-136931000D01*
X162408000Y-136932000D01*
X162410000Y-136932000D01*
X162413000Y-136933000D01*
X162415000Y-136934000D01*
X162418000Y-136935000D01*
X162420000Y-136937000D01*
X162422000Y-136938000D01*
X162424000Y-136940000D01*
X162426000Y-136941000D01*
X162428000Y-136943000D01*
X162430000Y-136945000D01*
X162432000Y-136947000D01*
X162434000Y-136949000D01*
X162435000Y-136951000D01*
X162437000Y-136953000D01*
X162438000Y-136955000D01*
X162440000Y-136957000D01*
X162441000Y-136960000D01*
X162442000Y-136962000D01*
X162443000Y-136965000D01*
X162443000Y-136967000D01*
X162444000Y-136970000D01*
X162444000Y-136972000D01*
X162445000Y-136975000D01*
X162445000Y-136977000D01*
X162445000Y-136980000D01*
X162445000Y-137620000D01*
X162445000Y-137623000D01*
X162445000Y-137625000D01*
X162444000Y-137628000D01*
X162444000Y-137630000D01*
X162443000Y-137633000D01*
X162443000Y-137635000D01*
X162442000Y-137638000D01*
X162441000Y-137640000D01*
X162440000Y-137643000D01*
X162438000Y-137645000D01*
X162437000Y-137647000D01*
X162435000Y-137649000D01*
X162434000Y-137651000D01*
X162432000Y-137653000D01*
X162430000Y-137655000D01*
X162428000Y-137657000D01*
X162426000Y-137659000D01*
X162424000Y-137660000D01*
X162422000Y-137662000D01*
X162420000Y-137663000D01*
X162418000Y-137665000D01*
X162415000Y-137666000D01*
X162413000Y-137667000D01*
X162410000Y-137668000D01*
X162408000Y-137668000D01*
X162405000Y-137669000D01*
X162403000Y-137669000D01*
X162400000Y-137670000D01*
X162398000Y-137670000D01*
X162395000Y-137670000D01*
X162105000Y-137670000D01*
X162102000Y-137670000D01*
X162100000Y-137670000D01*
X162097000Y-137669000D01*
X162095000Y-137669000D01*
X162092000Y-137668000D01*
X162090000Y-137668000D01*
X162087000Y-137667000D01*
X162085000Y-137666000D01*
X162082000Y-137665000D01*
X162080000Y-137663000D01*
X162078000Y-137662000D01*
X162076000Y-137660000D01*
X162074000Y-137659000D01*
X162072000Y-137657000D01*
X162070000Y-137655000D01*
X162068000Y-137653000D01*
X162066000Y-137651000D01*
X162065000Y-137649000D01*
X162063000Y-137647000D01*
X162062000Y-137645000D01*
X162060000Y-137643000D01*
X162059000Y-137640000D01*
X162058000Y-137638000D01*
X162057000Y-137635000D01*
X162057000Y-137633000D01*
X162056000Y-137630000D01*
X162056000Y-137628000D01*
X162055000Y-137625000D01*
X162055000Y-137623000D01*
X162055000Y-137620000D01*
X162055000Y-136980000D01*
X162055000Y-136977000D01*
X162055000Y-136975000D01*
X162056000Y-136972000D01*
X162056000Y-136970000D01*
X162057000Y-136967000D01*
X162057000Y-136965000D01*
X162058000Y-136962000D01*
X162059000Y-136960000D01*
X162060000Y-136957000D01*
X162062000Y-136955000D01*
X162063000Y-136953000D01*
X162065000Y-136951000D01*
X162066000Y-136949000D01*
X162068000Y-136947000D01*
X162070000Y-136945000D01*
X162072000Y-136943000D01*
X162074000Y-136941000D01*
X162076000Y-136940000D01*
X162078000Y-136938000D01*
X162080000Y-136937000D01*
X162082000Y-136935000D01*
X162085000Y-136934000D01*
X162087000Y-136933000D01*
X162090000Y-136932000D01*
X162092000Y-136932000D01*
X162095000Y-136931000D01*
X162097000Y-136931000D01*
X162100000Y-136930000D01*
X162102000Y-136930000D01*
X162105000Y-136930000D01*
X162395000Y-136930000D01*
X162398000Y-136930000D01*
X162400000Y-136930000D01*
X162403000Y-136931000D01*
G37*
X162403000Y-139731000D02*
X162405000Y-139731000D01*
X162408000Y-139732000D01*
X162410000Y-139732000D01*
X162413000Y-139733000D01*
X162415000Y-139734000D01*
X162418000Y-139735000D01*
X162420000Y-139737000D01*
X162422000Y-139738000D01*
X162424000Y-139740000D01*
X162426000Y-139741000D01*
X162428000Y-139743000D01*
X162430000Y-139745000D01*
X162432000Y-139747000D01*
X162434000Y-139749000D01*
X162435000Y-139751000D01*
X162437000Y-139753000D01*
X162438000Y-139755000D01*
X162440000Y-139757000D01*
X162441000Y-139760000D01*
X162442000Y-139762000D01*
X162443000Y-139765000D01*
X162443000Y-139767000D01*
X162444000Y-139770000D01*
X162444000Y-139772000D01*
X162445000Y-139775000D01*
X162445000Y-139777000D01*
X162445000Y-139780000D01*
X162445000Y-140420000D01*
X162445000Y-140423000D01*
X162445000Y-140425000D01*
X162444000Y-140428000D01*
X162444000Y-140430000D01*
X162443000Y-140433000D01*
X162443000Y-140435000D01*
X162442000Y-140438000D01*
X162441000Y-140440000D01*
X162440000Y-140443000D01*
X162438000Y-140445000D01*
X162437000Y-140447000D01*
X162435000Y-140449000D01*
X162434000Y-140451000D01*
X162432000Y-140453000D01*
X162430000Y-140455000D01*
X162428000Y-140457000D01*
X162426000Y-140459000D01*
X162424000Y-140460000D01*
X162422000Y-140462000D01*
X162420000Y-140463000D01*
X162418000Y-140465000D01*
X162415000Y-140466000D01*
X162413000Y-140467000D01*
X162410000Y-140468000D01*
X162408000Y-140468000D01*
X162405000Y-140469000D01*
X162403000Y-140469000D01*
X162400000Y-140470000D01*
X162398000Y-140470000D01*
X162395000Y-140470000D01*
X162105000Y-140470000D01*
X162102000Y-140470000D01*
X162100000Y-140470000D01*
X162097000Y-140469000D01*
X162095000Y-140469000D01*
X162092000Y-140468000D01*
X162090000Y-140468000D01*
X162087000Y-140467000D01*
X162085000Y-140466000D01*
X162082000Y-140465000D01*
X162080000Y-140463000D01*
X162078000Y-140462000D01*
X162076000Y-140460000D01*
X162074000Y-140459000D01*
X162072000Y-140457000D01*
X162070000Y-140455000D01*
X162068000Y-140453000D01*
X162066000Y-140451000D01*
X162065000Y-140449000D01*
X162063000Y-140447000D01*
X162062000Y-140445000D01*
X162060000Y-140443000D01*
X162059000Y-140440000D01*
X162058000Y-140438000D01*
X162057000Y-140435000D01*
X162057000Y-140433000D01*
X162056000Y-140430000D01*
X162056000Y-140428000D01*
X162055000Y-140425000D01*
X162055000Y-140423000D01*
X162055000Y-140420000D01*
X162055000Y-139780000D01*
X162055000Y-139777000D01*
X162055000Y-139775000D01*
X162056000Y-139772000D01*
X162056000Y-139770000D01*
X162057000Y-139767000D01*
X162057000Y-139765000D01*
X162058000Y-139762000D01*
X162059000Y-139760000D01*
X162060000Y-139757000D01*
X162062000Y-139755000D01*
X162063000Y-139753000D01*
X162065000Y-139751000D01*
X162066000Y-139749000D01*
X162068000Y-139747000D01*
X162070000Y-139745000D01*
X162072000Y-139743000D01*
X162074000Y-139741000D01*
X162076000Y-139740000D01*
X162078000Y-139738000D01*
X162080000Y-139737000D01*
X162082000Y-139735000D01*
X162085000Y-139734000D01*
X162087000Y-139733000D01*
X162090000Y-139732000D01*
X162092000Y-139732000D01*
X162095000Y-139731000D01*
X162097000Y-139731000D01*
X162100000Y-139730000D01*
X162102000Y-139730000D01*
X162105000Y-139730000D01*
X162395000Y-139730000D01*
X162398000Y-139730000D01*
X162400000Y-139730000D01*
X162403000Y-139731000D01*
G36*
X162403000Y-139731000D02*
G01*
X162405000Y-139731000D01*
X162408000Y-139732000D01*
X162410000Y-139732000D01*
X162413000Y-139733000D01*
X162415000Y-139734000D01*
X162418000Y-139735000D01*
X162420000Y-139737000D01*
X162422000Y-139738000D01*
X162424000Y-139740000D01*
X162426000Y-139741000D01*
X162428000Y-139743000D01*
X162430000Y-139745000D01*
X162432000Y-139747000D01*
X162434000Y-139749000D01*
X162435000Y-139751000D01*
X162437000Y-139753000D01*
X162438000Y-139755000D01*
X162440000Y-139757000D01*
X162441000Y-139760000D01*
X162442000Y-139762000D01*
X162443000Y-139765000D01*
X162443000Y-139767000D01*
X162444000Y-139770000D01*
X162444000Y-139772000D01*
X162445000Y-139775000D01*
X162445000Y-139777000D01*
X162445000Y-139780000D01*
X162445000Y-140420000D01*
X162445000Y-140423000D01*
X162445000Y-140425000D01*
X162444000Y-140428000D01*
X162444000Y-140430000D01*
X162443000Y-140433000D01*
X162443000Y-140435000D01*
X162442000Y-140438000D01*
X162441000Y-140440000D01*
X162440000Y-140443000D01*
X162438000Y-140445000D01*
X162437000Y-140447000D01*
X162435000Y-140449000D01*
X162434000Y-140451000D01*
X162432000Y-140453000D01*
X162430000Y-140455000D01*
X162428000Y-140457000D01*
X162426000Y-140459000D01*
X162424000Y-140460000D01*
X162422000Y-140462000D01*
X162420000Y-140463000D01*
X162418000Y-140465000D01*
X162415000Y-140466000D01*
X162413000Y-140467000D01*
X162410000Y-140468000D01*
X162408000Y-140468000D01*
X162405000Y-140469000D01*
X162403000Y-140469000D01*
X162400000Y-140470000D01*
X162398000Y-140470000D01*
X162395000Y-140470000D01*
X162105000Y-140470000D01*
X162102000Y-140470000D01*
X162100000Y-140470000D01*
X162097000Y-140469000D01*
X162095000Y-140469000D01*
X162092000Y-140468000D01*
X162090000Y-140468000D01*
X162087000Y-140467000D01*
X162085000Y-140466000D01*
X162082000Y-140465000D01*
X162080000Y-140463000D01*
X162078000Y-140462000D01*
X162076000Y-140460000D01*
X162074000Y-140459000D01*
X162072000Y-140457000D01*
X162070000Y-140455000D01*
X162068000Y-140453000D01*
X162066000Y-140451000D01*
X162065000Y-140449000D01*
X162063000Y-140447000D01*
X162062000Y-140445000D01*
X162060000Y-140443000D01*
X162059000Y-140440000D01*
X162058000Y-140438000D01*
X162057000Y-140435000D01*
X162057000Y-140433000D01*
X162056000Y-140430000D01*
X162056000Y-140428000D01*
X162055000Y-140425000D01*
X162055000Y-140423000D01*
X162055000Y-140420000D01*
X162055000Y-139780000D01*
X162055000Y-139777000D01*
X162055000Y-139775000D01*
X162056000Y-139772000D01*
X162056000Y-139770000D01*
X162057000Y-139767000D01*
X162057000Y-139765000D01*
X162058000Y-139762000D01*
X162059000Y-139760000D01*
X162060000Y-139757000D01*
X162062000Y-139755000D01*
X162063000Y-139753000D01*
X162065000Y-139751000D01*
X162066000Y-139749000D01*
X162068000Y-139747000D01*
X162070000Y-139745000D01*
X162072000Y-139743000D01*
X162074000Y-139741000D01*
X162076000Y-139740000D01*
X162078000Y-139738000D01*
X162080000Y-139737000D01*
X162082000Y-139735000D01*
X162085000Y-139734000D01*
X162087000Y-139733000D01*
X162090000Y-139732000D01*
X162092000Y-139732000D01*
X162095000Y-139731000D01*
X162097000Y-139731000D01*
X162100000Y-139730000D01*
X162102000Y-139730000D01*
X162105000Y-139730000D01*
X162395000Y-139730000D01*
X162398000Y-139730000D01*
X162400000Y-139730000D01*
X162403000Y-139731000D01*
G37*
X163728000Y-137931000D02*
X163730000Y-137931000D01*
X163733000Y-137932000D01*
X163735000Y-137932000D01*
X163738000Y-137933000D01*
X163740000Y-137934000D01*
X163743000Y-137935000D01*
X163745000Y-137937000D01*
X163747000Y-137938000D01*
X163749000Y-137940000D01*
X163751000Y-137941000D01*
X163753000Y-137943000D01*
X163755000Y-137945000D01*
X163757000Y-137947000D01*
X163759000Y-137949000D01*
X163760000Y-137951000D01*
X163762000Y-137953000D01*
X163763000Y-137955000D01*
X163765000Y-137957000D01*
X163766000Y-137960000D01*
X163767000Y-137962000D01*
X163768000Y-137965000D01*
X163768000Y-137967000D01*
X163769000Y-137970000D01*
X163769000Y-137972000D01*
X163770000Y-137975000D01*
X163770000Y-137977000D01*
X163770000Y-137980000D01*
X163770000Y-139420000D01*
X163770000Y-139423000D01*
X163770000Y-139425000D01*
X163769000Y-139428000D01*
X163769000Y-139430000D01*
X163768000Y-139433000D01*
X163768000Y-139435000D01*
X163767000Y-139438000D01*
X163766000Y-139440000D01*
X163765000Y-139443000D01*
X163763000Y-139445000D01*
X163762000Y-139447000D01*
X163760000Y-139449000D01*
X163759000Y-139451000D01*
X163757000Y-139453000D01*
X163755000Y-139455000D01*
X163753000Y-139457000D01*
X163751000Y-139459000D01*
X163749000Y-139460000D01*
X163747000Y-139462000D01*
X163745000Y-139463000D01*
X163743000Y-139465000D01*
X163740000Y-139466000D01*
X163738000Y-139467000D01*
X163735000Y-139468000D01*
X163733000Y-139468000D01*
X163730000Y-139469000D01*
X163728000Y-139469000D01*
X163725000Y-139470000D01*
X163723000Y-139470000D01*
X163720000Y-139470000D01*
X162280000Y-139470000D01*
X162277000Y-139470000D01*
X162275000Y-139470000D01*
X162272000Y-139469000D01*
X162270000Y-139469000D01*
X162267000Y-139468000D01*
X162265000Y-139468000D01*
X162262000Y-139467000D01*
X162260000Y-139466000D01*
X162257000Y-139465000D01*
X162255000Y-139463000D01*
X162253000Y-139462000D01*
X162251000Y-139460000D01*
X162249000Y-139459000D01*
X162247000Y-139457000D01*
X162245000Y-139455000D01*
X162243000Y-139453000D01*
X162241000Y-139451000D01*
X162240000Y-139449000D01*
X162238000Y-139447000D01*
X162237000Y-139445000D01*
X162235000Y-139443000D01*
X162234000Y-139440000D01*
X162233000Y-139438000D01*
X162232000Y-139435000D01*
X162232000Y-139433000D01*
X162231000Y-139430000D01*
X162231000Y-139428000D01*
X162230000Y-139425000D01*
X162230000Y-139423000D01*
X162230000Y-139420000D01*
X162230000Y-137980000D01*
X162230000Y-137977000D01*
X162230000Y-137975000D01*
X162231000Y-137972000D01*
X162231000Y-137970000D01*
X162232000Y-137967000D01*
X162232000Y-137965000D01*
X162233000Y-137962000D01*
X162234000Y-137960000D01*
X162235000Y-137957000D01*
X162237000Y-137955000D01*
X162238000Y-137953000D01*
X162240000Y-137951000D01*
X162241000Y-137949000D01*
X162243000Y-137947000D01*
X162245000Y-137945000D01*
X162247000Y-137943000D01*
X162249000Y-137941000D01*
X162251000Y-137940000D01*
X162253000Y-137938000D01*
X162255000Y-137937000D01*
X162257000Y-137935000D01*
X162260000Y-137934000D01*
X162262000Y-137933000D01*
X162265000Y-137932000D01*
X162267000Y-137932000D01*
X162270000Y-137931000D01*
X162272000Y-137931000D01*
X162275000Y-137930000D01*
X162277000Y-137930000D01*
X162280000Y-137930000D01*
X163720000Y-137930000D01*
X163723000Y-137930000D01*
X163725000Y-137930000D01*
X163728000Y-137931000D01*
G36*
X163728000Y-137931000D02*
G01*
X163730000Y-137931000D01*
X163733000Y-137932000D01*
X163735000Y-137932000D01*
X163738000Y-137933000D01*
X163740000Y-137934000D01*
X163743000Y-137935000D01*
X163745000Y-137937000D01*
X163747000Y-137938000D01*
X163749000Y-137940000D01*
X163751000Y-137941000D01*
X163753000Y-137943000D01*
X163755000Y-137945000D01*
X163757000Y-137947000D01*
X163759000Y-137949000D01*
X163760000Y-137951000D01*
X163762000Y-137953000D01*
X163763000Y-137955000D01*
X163765000Y-137957000D01*
X163766000Y-137960000D01*
X163767000Y-137962000D01*
X163768000Y-137965000D01*
X163768000Y-137967000D01*
X163769000Y-137970000D01*
X163769000Y-137972000D01*
X163770000Y-137975000D01*
X163770000Y-137977000D01*
X163770000Y-137980000D01*
X163770000Y-139420000D01*
X163770000Y-139423000D01*
X163770000Y-139425000D01*
X163769000Y-139428000D01*
X163769000Y-139430000D01*
X163768000Y-139433000D01*
X163768000Y-139435000D01*
X163767000Y-139438000D01*
X163766000Y-139440000D01*
X163765000Y-139443000D01*
X163763000Y-139445000D01*
X163762000Y-139447000D01*
X163760000Y-139449000D01*
X163759000Y-139451000D01*
X163757000Y-139453000D01*
X163755000Y-139455000D01*
X163753000Y-139457000D01*
X163751000Y-139459000D01*
X163749000Y-139460000D01*
X163747000Y-139462000D01*
X163745000Y-139463000D01*
X163743000Y-139465000D01*
X163740000Y-139466000D01*
X163738000Y-139467000D01*
X163735000Y-139468000D01*
X163733000Y-139468000D01*
X163730000Y-139469000D01*
X163728000Y-139469000D01*
X163725000Y-139470000D01*
X163723000Y-139470000D01*
X163720000Y-139470000D01*
X162280000Y-139470000D01*
X162277000Y-139470000D01*
X162275000Y-139470000D01*
X162272000Y-139469000D01*
X162270000Y-139469000D01*
X162267000Y-139468000D01*
X162265000Y-139468000D01*
X162262000Y-139467000D01*
X162260000Y-139466000D01*
X162257000Y-139465000D01*
X162255000Y-139463000D01*
X162253000Y-139462000D01*
X162251000Y-139460000D01*
X162249000Y-139459000D01*
X162247000Y-139457000D01*
X162245000Y-139455000D01*
X162243000Y-139453000D01*
X162241000Y-139451000D01*
X162240000Y-139449000D01*
X162238000Y-139447000D01*
X162237000Y-139445000D01*
X162235000Y-139443000D01*
X162234000Y-139440000D01*
X162233000Y-139438000D01*
X162232000Y-139435000D01*
X162232000Y-139433000D01*
X162231000Y-139430000D01*
X162231000Y-139428000D01*
X162230000Y-139425000D01*
X162230000Y-139423000D01*
X162230000Y-139420000D01*
X162230000Y-137980000D01*
X162230000Y-137977000D01*
X162230000Y-137975000D01*
X162231000Y-137972000D01*
X162231000Y-137970000D01*
X162232000Y-137967000D01*
X162232000Y-137965000D01*
X162233000Y-137962000D01*
X162234000Y-137960000D01*
X162235000Y-137957000D01*
X162237000Y-137955000D01*
X162238000Y-137953000D01*
X162240000Y-137951000D01*
X162241000Y-137949000D01*
X162243000Y-137947000D01*
X162245000Y-137945000D01*
X162247000Y-137943000D01*
X162249000Y-137941000D01*
X162251000Y-137940000D01*
X162253000Y-137938000D01*
X162255000Y-137937000D01*
X162257000Y-137935000D01*
X162260000Y-137934000D01*
X162262000Y-137933000D01*
X162265000Y-137932000D01*
X162267000Y-137932000D01*
X162270000Y-137931000D01*
X162272000Y-137931000D01*
X162275000Y-137930000D01*
X162277000Y-137930000D01*
X162280000Y-137930000D01*
X163720000Y-137930000D01*
X163723000Y-137930000D01*
X163725000Y-137930000D01*
X163728000Y-137931000D01*
G37*
X162903000Y-136931000D02*
X162905000Y-136931000D01*
X162908000Y-136932000D01*
X162910000Y-136932000D01*
X162913000Y-136933000D01*
X162915000Y-136934000D01*
X162918000Y-136935000D01*
X162920000Y-136937000D01*
X162922000Y-136938000D01*
X162924000Y-136940000D01*
X162926000Y-136941000D01*
X162928000Y-136943000D01*
X162930000Y-136945000D01*
X162932000Y-136947000D01*
X162934000Y-136949000D01*
X162935000Y-136951000D01*
X162937000Y-136953000D01*
X162938000Y-136955000D01*
X162940000Y-136957000D01*
X162941000Y-136960000D01*
X162942000Y-136962000D01*
X162943000Y-136965000D01*
X162943000Y-136967000D01*
X162944000Y-136970000D01*
X162944000Y-136972000D01*
X162945000Y-136975000D01*
X162945000Y-136977000D01*
X162945000Y-136980000D01*
X162945000Y-137620000D01*
X162945000Y-137623000D01*
X162945000Y-137625000D01*
X162944000Y-137628000D01*
X162944000Y-137630000D01*
X162943000Y-137633000D01*
X162943000Y-137635000D01*
X162942000Y-137638000D01*
X162941000Y-137640000D01*
X162940000Y-137643000D01*
X162938000Y-137645000D01*
X162937000Y-137647000D01*
X162935000Y-137649000D01*
X162934000Y-137651000D01*
X162932000Y-137653000D01*
X162930000Y-137655000D01*
X162928000Y-137657000D01*
X162926000Y-137659000D01*
X162924000Y-137660000D01*
X162922000Y-137662000D01*
X162920000Y-137663000D01*
X162918000Y-137665000D01*
X162915000Y-137666000D01*
X162913000Y-137667000D01*
X162910000Y-137668000D01*
X162908000Y-137668000D01*
X162905000Y-137669000D01*
X162903000Y-137669000D01*
X162900000Y-137670000D01*
X162898000Y-137670000D01*
X162895000Y-137670000D01*
X162605000Y-137670000D01*
X162602000Y-137670000D01*
X162600000Y-137670000D01*
X162597000Y-137669000D01*
X162595000Y-137669000D01*
X162592000Y-137668000D01*
X162590000Y-137668000D01*
X162587000Y-137667000D01*
X162585000Y-137666000D01*
X162582000Y-137665000D01*
X162580000Y-137663000D01*
X162578000Y-137662000D01*
X162576000Y-137660000D01*
X162574000Y-137659000D01*
X162572000Y-137657000D01*
X162570000Y-137655000D01*
X162568000Y-137653000D01*
X162566000Y-137651000D01*
X162565000Y-137649000D01*
X162563000Y-137647000D01*
X162562000Y-137645000D01*
X162560000Y-137643000D01*
X162559000Y-137640000D01*
X162558000Y-137638000D01*
X162557000Y-137635000D01*
X162557000Y-137633000D01*
X162556000Y-137630000D01*
X162556000Y-137628000D01*
X162555000Y-137625000D01*
X162555000Y-137623000D01*
X162555000Y-137620000D01*
X162555000Y-136980000D01*
X162555000Y-136977000D01*
X162555000Y-136975000D01*
X162556000Y-136972000D01*
X162556000Y-136970000D01*
X162557000Y-136967000D01*
X162557000Y-136965000D01*
X162558000Y-136962000D01*
X162559000Y-136960000D01*
X162560000Y-136957000D01*
X162562000Y-136955000D01*
X162563000Y-136953000D01*
X162565000Y-136951000D01*
X162566000Y-136949000D01*
X162568000Y-136947000D01*
X162570000Y-136945000D01*
X162572000Y-136943000D01*
X162574000Y-136941000D01*
X162576000Y-136940000D01*
X162578000Y-136938000D01*
X162580000Y-136937000D01*
X162582000Y-136935000D01*
X162585000Y-136934000D01*
X162587000Y-136933000D01*
X162590000Y-136932000D01*
X162592000Y-136932000D01*
X162595000Y-136931000D01*
X162597000Y-136931000D01*
X162600000Y-136930000D01*
X162602000Y-136930000D01*
X162605000Y-136930000D01*
X162895000Y-136930000D01*
X162898000Y-136930000D01*
X162900000Y-136930000D01*
X162903000Y-136931000D01*
G36*
X162903000Y-136931000D02*
G01*
X162905000Y-136931000D01*
X162908000Y-136932000D01*
X162910000Y-136932000D01*
X162913000Y-136933000D01*
X162915000Y-136934000D01*
X162918000Y-136935000D01*
X162920000Y-136937000D01*
X162922000Y-136938000D01*
X162924000Y-136940000D01*
X162926000Y-136941000D01*
X162928000Y-136943000D01*
X162930000Y-136945000D01*
X162932000Y-136947000D01*
X162934000Y-136949000D01*
X162935000Y-136951000D01*
X162937000Y-136953000D01*
X162938000Y-136955000D01*
X162940000Y-136957000D01*
X162941000Y-136960000D01*
X162942000Y-136962000D01*
X162943000Y-136965000D01*
X162943000Y-136967000D01*
X162944000Y-136970000D01*
X162944000Y-136972000D01*
X162945000Y-136975000D01*
X162945000Y-136977000D01*
X162945000Y-136980000D01*
X162945000Y-137620000D01*
X162945000Y-137623000D01*
X162945000Y-137625000D01*
X162944000Y-137628000D01*
X162944000Y-137630000D01*
X162943000Y-137633000D01*
X162943000Y-137635000D01*
X162942000Y-137638000D01*
X162941000Y-137640000D01*
X162940000Y-137643000D01*
X162938000Y-137645000D01*
X162937000Y-137647000D01*
X162935000Y-137649000D01*
X162934000Y-137651000D01*
X162932000Y-137653000D01*
X162930000Y-137655000D01*
X162928000Y-137657000D01*
X162926000Y-137659000D01*
X162924000Y-137660000D01*
X162922000Y-137662000D01*
X162920000Y-137663000D01*
X162918000Y-137665000D01*
X162915000Y-137666000D01*
X162913000Y-137667000D01*
X162910000Y-137668000D01*
X162908000Y-137668000D01*
X162905000Y-137669000D01*
X162903000Y-137669000D01*
X162900000Y-137670000D01*
X162898000Y-137670000D01*
X162895000Y-137670000D01*
X162605000Y-137670000D01*
X162602000Y-137670000D01*
X162600000Y-137670000D01*
X162597000Y-137669000D01*
X162595000Y-137669000D01*
X162592000Y-137668000D01*
X162590000Y-137668000D01*
X162587000Y-137667000D01*
X162585000Y-137666000D01*
X162582000Y-137665000D01*
X162580000Y-137663000D01*
X162578000Y-137662000D01*
X162576000Y-137660000D01*
X162574000Y-137659000D01*
X162572000Y-137657000D01*
X162570000Y-137655000D01*
X162568000Y-137653000D01*
X162566000Y-137651000D01*
X162565000Y-137649000D01*
X162563000Y-137647000D01*
X162562000Y-137645000D01*
X162560000Y-137643000D01*
X162559000Y-137640000D01*
X162558000Y-137638000D01*
X162557000Y-137635000D01*
X162557000Y-137633000D01*
X162556000Y-137630000D01*
X162556000Y-137628000D01*
X162555000Y-137625000D01*
X162555000Y-137623000D01*
X162555000Y-137620000D01*
X162555000Y-136980000D01*
X162555000Y-136977000D01*
X162555000Y-136975000D01*
X162556000Y-136972000D01*
X162556000Y-136970000D01*
X162557000Y-136967000D01*
X162557000Y-136965000D01*
X162558000Y-136962000D01*
X162559000Y-136960000D01*
X162560000Y-136957000D01*
X162562000Y-136955000D01*
X162563000Y-136953000D01*
X162565000Y-136951000D01*
X162566000Y-136949000D01*
X162568000Y-136947000D01*
X162570000Y-136945000D01*
X162572000Y-136943000D01*
X162574000Y-136941000D01*
X162576000Y-136940000D01*
X162578000Y-136938000D01*
X162580000Y-136937000D01*
X162582000Y-136935000D01*
X162585000Y-136934000D01*
X162587000Y-136933000D01*
X162590000Y-136932000D01*
X162592000Y-136932000D01*
X162595000Y-136931000D01*
X162597000Y-136931000D01*
X162600000Y-136930000D01*
X162602000Y-136930000D01*
X162605000Y-136930000D01*
X162895000Y-136930000D01*
X162898000Y-136930000D01*
X162900000Y-136930000D01*
X162903000Y-136931000D01*
G37*
X162903000Y-139731000D02*
X162905000Y-139731000D01*
X162908000Y-139732000D01*
X162910000Y-139732000D01*
X162913000Y-139733000D01*
X162915000Y-139734000D01*
X162918000Y-139735000D01*
X162920000Y-139737000D01*
X162922000Y-139738000D01*
X162924000Y-139740000D01*
X162926000Y-139741000D01*
X162928000Y-139743000D01*
X162930000Y-139745000D01*
X162932000Y-139747000D01*
X162934000Y-139749000D01*
X162935000Y-139751000D01*
X162937000Y-139753000D01*
X162938000Y-139755000D01*
X162940000Y-139757000D01*
X162941000Y-139760000D01*
X162942000Y-139762000D01*
X162943000Y-139765000D01*
X162943000Y-139767000D01*
X162944000Y-139770000D01*
X162944000Y-139772000D01*
X162945000Y-139775000D01*
X162945000Y-139777000D01*
X162945000Y-139780000D01*
X162945000Y-140420000D01*
X162945000Y-140423000D01*
X162945000Y-140425000D01*
X162944000Y-140428000D01*
X162944000Y-140430000D01*
X162943000Y-140433000D01*
X162943000Y-140435000D01*
X162942000Y-140438000D01*
X162941000Y-140440000D01*
X162940000Y-140443000D01*
X162938000Y-140445000D01*
X162937000Y-140447000D01*
X162935000Y-140449000D01*
X162934000Y-140451000D01*
X162932000Y-140453000D01*
X162930000Y-140455000D01*
X162928000Y-140457000D01*
X162926000Y-140459000D01*
X162924000Y-140460000D01*
X162922000Y-140462000D01*
X162920000Y-140463000D01*
X162918000Y-140465000D01*
X162915000Y-140466000D01*
X162913000Y-140467000D01*
X162910000Y-140468000D01*
X162908000Y-140468000D01*
X162905000Y-140469000D01*
X162903000Y-140469000D01*
X162900000Y-140470000D01*
X162898000Y-140470000D01*
X162895000Y-140470000D01*
X162605000Y-140470000D01*
X162602000Y-140470000D01*
X162600000Y-140470000D01*
X162597000Y-140469000D01*
X162595000Y-140469000D01*
X162592000Y-140468000D01*
X162590000Y-140468000D01*
X162587000Y-140467000D01*
X162585000Y-140466000D01*
X162582000Y-140465000D01*
X162580000Y-140463000D01*
X162578000Y-140462000D01*
X162576000Y-140460000D01*
X162574000Y-140459000D01*
X162572000Y-140457000D01*
X162570000Y-140455000D01*
X162568000Y-140453000D01*
X162566000Y-140451000D01*
X162565000Y-140449000D01*
X162563000Y-140447000D01*
X162562000Y-140445000D01*
X162560000Y-140443000D01*
X162559000Y-140440000D01*
X162558000Y-140438000D01*
X162557000Y-140435000D01*
X162557000Y-140433000D01*
X162556000Y-140430000D01*
X162556000Y-140428000D01*
X162555000Y-140425000D01*
X162555000Y-140423000D01*
X162555000Y-140420000D01*
X162555000Y-139780000D01*
X162555000Y-139777000D01*
X162555000Y-139775000D01*
X162556000Y-139772000D01*
X162556000Y-139770000D01*
X162557000Y-139767000D01*
X162557000Y-139765000D01*
X162558000Y-139762000D01*
X162559000Y-139760000D01*
X162560000Y-139757000D01*
X162562000Y-139755000D01*
X162563000Y-139753000D01*
X162565000Y-139751000D01*
X162566000Y-139749000D01*
X162568000Y-139747000D01*
X162570000Y-139745000D01*
X162572000Y-139743000D01*
X162574000Y-139741000D01*
X162576000Y-139740000D01*
X162578000Y-139738000D01*
X162580000Y-139737000D01*
X162582000Y-139735000D01*
X162585000Y-139734000D01*
X162587000Y-139733000D01*
X162590000Y-139732000D01*
X162592000Y-139732000D01*
X162595000Y-139731000D01*
X162597000Y-139731000D01*
X162600000Y-139730000D01*
X162602000Y-139730000D01*
X162605000Y-139730000D01*
X162895000Y-139730000D01*
X162898000Y-139730000D01*
X162900000Y-139730000D01*
X162903000Y-139731000D01*
G36*
X162903000Y-139731000D02*
G01*
X162905000Y-139731000D01*
X162908000Y-139732000D01*
X162910000Y-139732000D01*
X162913000Y-139733000D01*
X162915000Y-139734000D01*
X162918000Y-139735000D01*
X162920000Y-139737000D01*
X162922000Y-139738000D01*
X162924000Y-139740000D01*
X162926000Y-139741000D01*
X162928000Y-139743000D01*
X162930000Y-139745000D01*
X162932000Y-139747000D01*
X162934000Y-139749000D01*
X162935000Y-139751000D01*
X162937000Y-139753000D01*
X162938000Y-139755000D01*
X162940000Y-139757000D01*
X162941000Y-139760000D01*
X162942000Y-139762000D01*
X162943000Y-139765000D01*
X162943000Y-139767000D01*
X162944000Y-139770000D01*
X162944000Y-139772000D01*
X162945000Y-139775000D01*
X162945000Y-139777000D01*
X162945000Y-139780000D01*
X162945000Y-140420000D01*
X162945000Y-140423000D01*
X162945000Y-140425000D01*
X162944000Y-140428000D01*
X162944000Y-140430000D01*
X162943000Y-140433000D01*
X162943000Y-140435000D01*
X162942000Y-140438000D01*
X162941000Y-140440000D01*
X162940000Y-140443000D01*
X162938000Y-140445000D01*
X162937000Y-140447000D01*
X162935000Y-140449000D01*
X162934000Y-140451000D01*
X162932000Y-140453000D01*
X162930000Y-140455000D01*
X162928000Y-140457000D01*
X162926000Y-140459000D01*
X162924000Y-140460000D01*
X162922000Y-140462000D01*
X162920000Y-140463000D01*
X162918000Y-140465000D01*
X162915000Y-140466000D01*
X162913000Y-140467000D01*
X162910000Y-140468000D01*
X162908000Y-140468000D01*
X162905000Y-140469000D01*
X162903000Y-140469000D01*
X162900000Y-140470000D01*
X162898000Y-140470000D01*
X162895000Y-140470000D01*
X162605000Y-140470000D01*
X162602000Y-140470000D01*
X162600000Y-140470000D01*
X162597000Y-140469000D01*
X162595000Y-140469000D01*
X162592000Y-140468000D01*
X162590000Y-140468000D01*
X162587000Y-140467000D01*
X162585000Y-140466000D01*
X162582000Y-140465000D01*
X162580000Y-140463000D01*
X162578000Y-140462000D01*
X162576000Y-140460000D01*
X162574000Y-140459000D01*
X162572000Y-140457000D01*
X162570000Y-140455000D01*
X162568000Y-140453000D01*
X162566000Y-140451000D01*
X162565000Y-140449000D01*
X162563000Y-140447000D01*
X162562000Y-140445000D01*
X162560000Y-140443000D01*
X162559000Y-140440000D01*
X162558000Y-140438000D01*
X162557000Y-140435000D01*
X162557000Y-140433000D01*
X162556000Y-140430000D01*
X162556000Y-140428000D01*
X162555000Y-140425000D01*
X162555000Y-140423000D01*
X162555000Y-140420000D01*
X162555000Y-139780000D01*
X162555000Y-139777000D01*
X162555000Y-139775000D01*
X162556000Y-139772000D01*
X162556000Y-139770000D01*
X162557000Y-139767000D01*
X162557000Y-139765000D01*
X162558000Y-139762000D01*
X162559000Y-139760000D01*
X162560000Y-139757000D01*
X162562000Y-139755000D01*
X162563000Y-139753000D01*
X162565000Y-139751000D01*
X162566000Y-139749000D01*
X162568000Y-139747000D01*
X162570000Y-139745000D01*
X162572000Y-139743000D01*
X162574000Y-139741000D01*
X162576000Y-139740000D01*
X162578000Y-139738000D01*
X162580000Y-139737000D01*
X162582000Y-139735000D01*
X162585000Y-139734000D01*
X162587000Y-139733000D01*
X162590000Y-139732000D01*
X162592000Y-139732000D01*
X162595000Y-139731000D01*
X162597000Y-139731000D01*
X162600000Y-139730000D01*
X162602000Y-139730000D01*
X162605000Y-139730000D01*
X162895000Y-139730000D01*
X162898000Y-139730000D01*
X162900000Y-139730000D01*
X162903000Y-139731000D01*
G37*
X163403000Y-136931000D02*
X163405000Y-136931000D01*
X163408000Y-136932000D01*
X163410000Y-136932000D01*
X163413000Y-136933000D01*
X163415000Y-136934000D01*
X163418000Y-136935000D01*
X163420000Y-136937000D01*
X163422000Y-136938000D01*
X163424000Y-136940000D01*
X163426000Y-136941000D01*
X163428000Y-136943000D01*
X163430000Y-136945000D01*
X163432000Y-136947000D01*
X163434000Y-136949000D01*
X163435000Y-136951000D01*
X163437000Y-136953000D01*
X163438000Y-136955000D01*
X163440000Y-136957000D01*
X163441000Y-136960000D01*
X163442000Y-136962000D01*
X163443000Y-136965000D01*
X163443000Y-136967000D01*
X163444000Y-136970000D01*
X163444000Y-136972000D01*
X163445000Y-136975000D01*
X163445000Y-136977000D01*
X163445000Y-136980000D01*
X163445000Y-137620000D01*
X163445000Y-137623000D01*
X163445000Y-137625000D01*
X163444000Y-137628000D01*
X163444000Y-137630000D01*
X163443000Y-137633000D01*
X163443000Y-137635000D01*
X163442000Y-137638000D01*
X163441000Y-137640000D01*
X163440000Y-137643000D01*
X163438000Y-137645000D01*
X163437000Y-137647000D01*
X163435000Y-137649000D01*
X163434000Y-137651000D01*
X163432000Y-137653000D01*
X163430000Y-137655000D01*
X163428000Y-137657000D01*
X163426000Y-137659000D01*
X163424000Y-137660000D01*
X163422000Y-137662000D01*
X163420000Y-137663000D01*
X163418000Y-137665000D01*
X163415000Y-137666000D01*
X163413000Y-137667000D01*
X163410000Y-137668000D01*
X163408000Y-137668000D01*
X163405000Y-137669000D01*
X163403000Y-137669000D01*
X163400000Y-137670000D01*
X163398000Y-137670000D01*
X163395000Y-137670000D01*
X163105000Y-137670000D01*
X163102000Y-137670000D01*
X163100000Y-137670000D01*
X163097000Y-137669000D01*
X163095000Y-137669000D01*
X163092000Y-137668000D01*
X163090000Y-137668000D01*
X163087000Y-137667000D01*
X163085000Y-137666000D01*
X163082000Y-137665000D01*
X163080000Y-137663000D01*
X163078000Y-137662000D01*
X163076000Y-137660000D01*
X163074000Y-137659000D01*
X163072000Y-137657000D01*
X163070000Y-137655000D01*
X163068000Y-137653000D01*
X163066000Y-137651000D01*
X163065000Y-137649000D01*
X163063000Y-137647000D01*
X163062000Y-137645000D01*
X163060000Y-137643000D01*
X163059000Y-137640000D01*
X163058000Y-137638000D01*
X163057000Y-137635000D01*
X163057000Y-137633000D01*
X163056000Y-137630000D01*
X163056000Y-137628000D01*
X163055000Y-137625000D01*
X163055000Y-137623000D01*
X163055000Y-137620000D01*
X163055000Y-136980000D01*
X163055000Y-136977000D01*
X163055000Y-136975000D01*
X163056000Y-136972000D01*
X163056000Y-136970000D01*
X163057000Y-136967000D01*
X163057000Y-136965000D01*
X163058000Y-136962000D01*
X163059000Y-136960000D01*
X163060000Y-136957000D01*
X163062000Y-136955000D01*
X163063000Y-136953000D01*
X163065000Y-136951000D01*
X163066000Y-136949000D01*
X163068000Y-136947000D01*
X163070000Y-136945000D01*
X163072000Y-136943000D01*
X163074000Y-136941000D01*
X163076000Y-136940000D01*
X163078000Y-136938000D01*
X163080000Y-136937000D01*
X163082000Y-136935000D01*
X163085000Y-136934000D01*
X163087000Y-136933000D01*
X163090000Y-136932000D01*
X163092000Y-136932000D01*
X163095000Y-136931000D01*
X163097000Y-136931000D01*
X163100000Y-136930000D01*
X163102000Y-136930000D01*
X163105000Y-136930000D01*
X163395000Y-136930000D01*
X163398000Y-136930000D01*
X163400000Y-136930000D01*
X163403000Y-136931000D01*
G36*
X163403000Y-136931000D02*
G01*
X163405000Y-136931000D01*
X163408000Y-136932000D01*
X163410000Y-136932000D01*
X163413000Y-136933000D01*
X163415000Y-136934000D01*
X163418000Y-136935000D01*
X163420000Y-136937000D01*
X163422000Y-136938000D01*
X163424000Y-136940000D01*
X163426000Y-136941000D01*
X163428000Y-136943000D01*
X163430000Y-136945000D01*
X163432000Y-136947000D01*
X163434000Y-136949000D01*
X163435000Y-136951000D01*
X163437000Y-136953000D01*
X163438000Y-136955000D01*
X163440000Y-136957000D01*
X163441000Y-136960000D01*
X163442000Y-136962000D01*
X163443000Y-136965000D01*
X163443000Y-136967000D01*
X163444000Y-136970000D01*
X163444000Y-136972000D01*
X163445000Y-136975000D01*
X163445000Y-136977000D01*
X163445000Y-136980000D01*
X163445000Y-137620000D01*
X163445000Y-137623000D01*
X163445000Y-137625000D01*
X163444000Y-137628000D01*
X163444000Y-137630000D01*
X163443000Y-137633000D01*
X163443000Y-137635000D01*
X163442000Y-137638000D01*
X163441000Y-137640000D01*
X163440000Y-137643000D01*
X163438000Y-137645000D01*
X163437000Y-137647000D01*
X163435000Y-137649000D01*
X163434000Y-137651000D01*
X163432000Y-137653000D01*
X163430000Y-137655000D01*
X163428000Y-137657000D01*
X163426000Y-137659000D01*
X163424000Y-137660000D01*
X163422000Y-137662000D01*
X163420000Y-137663000D01*
X163418000Y-137665000D01*
X163415000Y-137666000D01*
X163413000Y-137667000D01*
X163410000Y-137668000D01*
X163408000Y-137668000D01*
X163405000Y-137669000D01*
X163403000Y-137669000D01*
X163400000Y-137670000D01*
X163398000Y-137670000D01*
X163395000Y-137670000D01*
X163105000Y-137670000D01*
X163102000Y-137670000D01*
X163100000Y-137670000D01*
X163097000Y-137669000D01*
X163095000Y-137669000D01*
X163092000Y-137668000D01*
X163090000Y-137668000D01*
X163087000Y-137667000D01*
X163085000Y-137666000D01*
X163082000Y-137665000D01*
X163080000Y-137663000D01*
X163078000Y-137662000D01*
X163076000Y-137660000D01*
X163074000Y-137659000D01*
X163072000Y-137657000D01*
X163070000Y-137655000D01*
X163068000Y-137653000D01*
X163066000Y-137651000D01*
X163065000Y-137649000D01*
X163063000Y-137647000D01*
X163062000Y-137645000D01*
X163060000Y-137643000D01*
X163059000Y-137640000D01*
X163058000Y-137638000D01*
X163057000Y-137635000D01*
X163057000Y-137633000D01*
X163056000Y-137630000D01*
X163056000Y-137628000D01*
X163055000Y-137625000D01*
X163055000Y-137623000D01*
X163055000Y-137620000D01*
X163055000Y-136980000D01*
X163055000Y-136977000D01*
X163055000Y-136975000D01*
X163056000Y-136972000D01*
X163056000Y-136970000D01*
X163057000Y-136967000D01*
X163057000Y-136965000D01*
X163058000Y-136962000D01*
X163059000Y-136960000D01*
X163060000Y-136957000D01*
X163062000Y-136955000D01*
X163063000Y-136953000D01*
X163065000Y-136951000D01*
X163066000Y-136949000D01*
X163068000Y-136947000D01*
X163070000Y-136945000D01*
X163072000Y-136943000D01*
X163074000Y-136941000D01*
X163076000Y-136940000D01*
X163078000Y-136938000D01*
X163080000Y-136937000D01*
X163082000Y-136935000D01*
X163085000Y-136934000D01*
X163087000Y-136933000D01*
X163090000Y-136932000D01*
X163092000Y-136932000D01*
X163095000Y-136931000D01*
X163097000Y-136931000D01*
X163100000Y-136930000D01*
X163102000Y-136930000D01*
X163105000Y-136930000D01*
X163395000Y-136930000D01*
X163398000Y-136930000D01*
X163400000Y-136930000D01*
X163403000Y-136931000D01*
G37*
X163403000Y-139731000D02*
X163405000Y-139731000D01*
X163408000Y-139732000D01*
X163410000Y-139732000D01*
X163413000Y-139733000D01*
X163415000Y-139734000D01*
X163418000Y-139735000D01*
X163420000Y-139737000D01*
X163422000Y-139738000D01*
X163424000Y-139740000D01*
X163426000Y-139741000D01*
X163428000Y-139743000D01*
X163430000Y-139745000D01*
X163432000Y-139747000D01*
X163434000Y-139749000D01*
X163435000Y-139751000D01*
X163437000Y-139753000D01*
X163438000Y-139755000D01*
X163440000Y-139757000D01*
X163441000Y-139760000D01*
X163442000Y-139762000D01*
X163443000Y-139765000D01*
X163443000Y-139767000D01*
X163444000Y-139770000D01*
X163444000Y-139772000D01*
X163445000Y-139775000D01*
X163445000Y-139777000D01*
X163445000Y-139780000D01*
X163445000Y-140420000D01*
X163445000Y-140423000D01*
X163445000Y-140425000D01*
X163444000Y-140428000D01*
X163444000Y-140430000D01*
X163443000Y-140433000D01*
X163443000Y-140435000D01*
X163442000Y-140438000D01*
X163441000Y-140440000D01*
X163440000Y-140443000D01*
X163438000Y-140445000D01*
X163437000Y-140447000D01*
X163435000Y-140449000D01*
X163434000Y-140451000D01*
X163432000Y-140453000D01*
X163430000Y-140455000D01*
X163428000Y-140457000D01*
X163426000Y-140459000D01*
X163424000Y-140460000D01*
X163422000Y-140462000D01*
X163420000Y-140463000D01*
X163418000Y-140465000D01*
X163415000Y-140466000D01*
X163413000Y-140467000D01*
X163410000Y-140468000D01*
X163408000Y-140468000D01*
X163405000Y-140469000D01*
X163403000Y-140469000D01*
X163400000Y-140470000D01*
X163398000Y-140470000D01*
X163395000Y-140470000D01*
X163105000Y-140470000D01*
X163102000Y-140470000D01*
X163100000Y-140470000D01*
X163097000Y-140469000D01*
X163095000Y-140469000D01*
X163092000Y-140468000D01*
X163090000Y-140468000D01*
X163087000Y-140467000D01*
X163085000Y-140466000D01*
X163082000Y-140465000D01*
X163080000Y-140463000D01*
X163078000Y-140462000D01*
X163076000Y-140460000D01*
X163074000Y-140459000D01*
X163072000Y-140457000D01*
X163070000Y-140455000D01*
X163068000Y-140453000D01*
X163066000Y-140451000D01*
X163065000Y-140449000D01*
X163063000Y-140447000D01*
X163062000Y-140445000D01*
X163060000Y-140443000D01*
X163059000Y-140440000D01*
X163058000Y-140438000D01*
X163057000Y-140435000D01*
X163057000Y-140433000D01*
X163056000Y-140430000D01*
X163056000Y-140428000D01*
X163055000Y-140425000D01*
X163055000Y-140423000D01*
X163055000Y-140420000D01*
X163055000Y-139780000D01*
X163055000Y-139777000D01*
X163055000Y-139775000D01*
X163056000Y-139772000D01*
X163056000Y-139770000D01*
X163057000Y-139767000D01*
X163057000Y-139765000D01*
X163058000Y-139762000D01*
X163059000Y-139760000D01*
X163060000Y-139757000D01*
X163062000Y-139755000D01*
X163063000Y-139753000D01*
X163065000Y-139751000D01*
X163066000Y-139749000D01*
X163068000Y-139747000D01*
X163070000Y-139745000D01*
X163072000Y-139743000D01*
X163074000Y-139741000D01*
X163076000Y-139740000D01*
X163078000Y-139738000D01*
X163080000Y-139737000D01*
X163082000Y-139735000D01*
X163085000Y-139734000D01*
X163087000Y-139733000D01*
X163090000Y-139732000D01*
X163092000Y-139732000D01*
X163095000Y-139731000D01*
X163097000Y-139731000D01*
X163100000Y-139730000D01*
X163102000Y-139730000D01*
X163105000Y-139730000D01*
X163395000Y-139730000D01*
X163398000Y-139730000D01*
X163400000Y-139730000D01*
X163403000Y-139731000D01*
G36*
X163403000Y-139731000D02*
G01*
X163405000Y-139731000D01*
X163408000Y-139732000D01*
X163410000Y-139732000D01*
X163413000Y-139733000D01*
X163415000Y-139734000D01*
X163418000Y-139735000D01*
X163420000Y-139737000D01*
X163422000Y-139738000D01*
X163424000Y-139740000D01*
X163426000Y-139741000D01*
X163428000Y-139743000D01*
X163430000Y-139745000D01*
X163432000Y-139747000D01*
X163434000Y-139749000D01*
X163435000Y-139751000D01*
X163437000Y-139753000D01*
X163438000Y-139755000D01*
X163440000Y-139757000D01*
X163441000Y-139760000D01*
X163442000Y-139762000D01*
X163443000Y-139765000D01*
X163443000Y-139767000D01*
X163444000Y-139770000D01*
X163444000Y-139772000D01*
X163445000Y-139775000D01*
X163445000Y-139777000D01*
X163445000Y-139780000D01*
X163445000Y-140420000D01*
X163445000Y-140423000D01*
X163445000Y-140425000D01*
X163444000Y-140428000D01*
X163444000Y-140430000D01*
X163443000Y-140433000D01*
X163443000Y-140435000D01*
X163442000Y-140438000D01*
X163441000Y-140440000D01*
X163440000Y-140443000D01*
X163438000Y-140445000D01*
X163437000Y-140447000D01*
X163435000Y-140449000D01*
X163434000Y-140451000D01*
X163432000Y-140453000D01*
X163430000Y-140455000D01*
X163428000Y-140457000D01*
X163426000Y-140459000D01*
X163424000Y-140460000D01*
X163422000Y-140462000D01*
X163420000Y-140463000D01*
X163418000Y-140465000D01*
X163415000Y-140466000D01*
X163413000Y-140467000D01*
X163410000Y-140468000D01*
X163408000Y-140468000D01*
X163405000Y-140469000D01*
X163403000Y-140469000D01*
X163400000Y-140470000D01*
X163398000Y-140470000D01*
X163395000Y-140470000D01*
X163105000Y-140470000D01*
X163102000Y-140470000D01*
X163100000Y-140470000D01*
X163097000Y-140469000D01*
X163095000Y-140469000D01*
X163092000Y-140468000D01*
X163090000Y-140468000D01*
X163087000Y-140467000D01*
X163085000Y-140466000D01*
X163082000Y-140465000D01*
X163080000Y-140463000D01*
X163078000Y-140462000D01*
X163076000Y-140460000D01*
X163074000Y-140459000D01*
X163072000Y-140457000D01*
X163070000Y-140455000D01*
X163068000Y-140453000D01*
X163066000Y-140451000D01*
X163065000Y-140449000D01*
X163063000Y-140447000D01*
X163062000Y-140445000D01*
X163060000Y-140443000D01*
X163059000Y-140440000D01*
X163058000Y-140438000D01*
X163057000Y-140435000D01*
X163057000Y-140433000D01*
X163056000Y-140430000D01*
X163056000Y-140428000D01*
X163055000Y-140425000D01*
X163055000Y-140423000D01*
X163055000Y-140420000D01*
X163055000Y-139780000D01*
X163055000Y-139777000D01*
X163055000Y-139775000D01*
X163056000Y-139772000D01*
X163056000Y-139770000D01*
X163057000Y-139767000D01*
X163057000Y-139765000D01*
X163058000Y-139762000D01*
X163059000Y-139760000D01*
X163060000Y-139757000D01*
X163062000Y-139755000D01*
X163063000Y-139753000D01*
X163065000Y-139751000D01*
X163066000Y-139749000D01*
X163068000Y-139747000D01*
X163070000Y-139745000D01*
X163072000Y-139743000D01*
X163074000Y-139741000D01*
X163076000Y-139740000D01*
X163078000Y-139738000D01*
X163080000Y-139737000D01*
X163082000Y-139735000D01*
X163085000Y-139734000D01*
X163087000Y-139733000D01*
X163090000Y-139732000D01*
X163092000Y-139732000D01*
X163095000Y-139731000D01*
X163097000Y-139731000D01*
X163100000Y-139730000D01*
X163102000Y-139730000D01*
X163105000Y-139730000D01*
X163395000Y-139730000D01*
X163398000Y-139730000D01*
X163400000Y-139730000D01*
X163403000Y-139731000D01*
G37*
X163903000Y-136931000D02*
X163905000Y-136931000D01*
X163908000Y-136932000D01*
X163910000Y-136932000D01*
X163913000Y-136933000D01*
X163915000Y-136934000D01*
X163918000Y-136935000D01*
X163920000Y-136937000D01*
X163922000Y-136938000D01*
X163924000Y-136940000D01*
X163926000Y-136941000D01*
X163928000Y-136943000D01*
X163930000Y-136945000D01*
X163932000Y-136947000D01*
X163934000Y-136949000D01*
X163935000Y-136951000D01*
X163937000Y-136953000D01*
X163938000Y-136955000D01*
X163940000Y-136957000D01*
X163941000Y-136960000D01*
X163942000Y-136962000D01*
X163943000Y-136965000D01*
X163943000Y-136967000D01*
X163944000Y-136970000D01*
X163944000Y-136972000D01*
X163945000Y-136975000D01*
X163945000Y-136977000D01*
X163945000Y-136980000D01*
X163945000Y-137620000D01*
X163945000Y-137623000D01*
X163945000Y-137625000D01*
X163944000Y-137628000D01*
X163944000Y-137630000D01*
X163943000Y-137633000D01*
X163943000Y-137635000D01*
X163942000Y-137638000D01*
X163941000Y-137640000D01*
X163940000Y-137643000D01*
X163938000Y-137645000D01*
X163937000Y-137647000D01*
X163935000Y-137649000D01*
X163934000Y-137651000D01*
X163932000Y-137653000D01*
X163930000Y-137655000D01*
X163928000Y-137657000D01*
X163926000Y-137659000D01*
X163924000Y-137660000D01*
X163922000Y-137662000D01*
X163920000Y-137663000D01*
X163918000Y-137665000D01*
X163915000Y-137666000D01*
X163913000Y-137667000D01*
X163910000Y-137668000D01*
X163908000Y-137668000D01*
X163905000Y-137669000D01*
X163903000Y-137669000D01*
X163900000Y-137670000D01*
X163898000Y-137670000D01*
X163895000Y-137670000D01*
X163605000Y-137670000D01*
X163602000Y-137670000D01*
X163600000Y-137670000D01*
X163597000Y-137669000D01*
X163595000Y-137669000D01*
X163592000Y-137668000D01*
X163590000Y-137668000D01*
X163587000Y-137667000D01*
X163585000Y-137666000D01*
X163582000Y-137665000D01*
X163580000Y-137663000D01*
X163578000Y-137662000D01*
X163576000Y-137660000D01*
X163574000Y-137659000D01*
X163572000Y-137657000D01*
X163570000Y-137655000D01*
X163568000Y-137653000D01*
X163566000Y-137651000D01*
X163565000Y-137649000D01*
X163563000Y-137647000D01*
X163562000Y-137645000D01*
X163560000Y-137643000D01*
X163559000Y-137640000D01*
X163558000Y-137638000D01*
X163557000Y-137635000D01*
X163557000Y-137633000D01*
X163556000Y-137630000D01*
X163556000Y-137628000D01*
X163555000Y-137625000D01*
X163555000Y-137623000D01*
X163555000Y-137620000D01*
X163555000Y-136980000D01*
X163555000Y-136977000D01*
X163555000Y-136975000D01*
X163556000Y-136972000D01*
X163556000Y-136970000D01*
X163557000Y-136967000D01*
X163557000Y-136965000D01*
X163558000Y-136962000D01*
X163559000Y-136960000D01*
X163560000Y-136957000D01*
X163562000Y-136955000D01*
X163563000Y-136953000D01*
X163565000Y-136951000D01*
X163566000Y-136949000D01*
X163568000Y-136947000D01*
X163570000Y-136945000D01*
X163572000Y-136943000D01*
X163574000Y-136941000D01*
X163576000Y-136940000D01*
X163578000Y-136938000D01*
X163580000Y-136937000D01*
X163582000Y-136935000D01*
X163585000Y-136934000D01*
X163587000Y-136933000D01*
X163590000Y-136932000D01*
X163592000Y-136932000D01*
X163595000Y-136931000D01*
X163597000Y-136931000D01*
X163600000Y-136930000D01*
X163602000Y-136930000D01*
X163605000Y-136930000D01*
X163895000Y-136930000D01*
X163898000Y-136930000D01*
X163900000Y-136930000D01*
X163903000Y-136931000D01*
G36*
X163903000Y-136931000D02*
G01*
X163905000Y-136931000D01*
X163908000Y-136932000D01*
X163910000Y-136932000D01*
X163913000Y-136933000D01*
X163915000Y-136934000D01*
X163918000Y-136935000D01*
X163920000Y-136937000D01*
X163922000Y-136938000D01*
X163924000Y-136940000D01*
X163926000Y-136941000D01*
X163928000Y-136943000D01*
X163930000Y-136945000D01*
X163932000Y-136947000D01*
X163934000Y-136949000D01*
X163935000Y-136951000D01*
X163937000Y-136953000D01*
X163938000Y-136955000D01*
X163940000Y-136957000D01*
X163941000Y-136960000D01*
X163942000Y-136962000D01*
X163943000Y-136965000D01*
X163943000Y-136967000D01*
X163944000Y-136970000D01*
X163944000Y-136972000D01*
X163945000Y-136975000D01*
X163945000Y-136977000D01*
X163945000Y-136980000D01*
X163945000Y-137620000D01*
X163945000Y-137623000D01*
X163945000Y-137625000D01*
X163944000Y-137628000D01*
X163944000Y-137630000D01*
X163943000Y-137633000D01*
X163943000Y-137635000D01*
X163942000Y-137638000D01*
X163941000Y-137640000D01*
X163940000Y-137643000D01*
X163938000Y-137645000D01*
X163937000Y-137647000D01*
X163935000Y-137649000D01*
X163934000Y-137651000D01*
X163932000Y-137653000D01*
X163930000Y-137655000D01*
X163928000Y-137657000D01*
X163926000Y-137659000D01*
X163924000Y-137660000D01*
X163922000Y-137662000D01*
X163920000Y-137663000D01*
X163918000Y-137665000D01*
X163915000Y-137666000D01*
X163913000Y-137667000D01*
X163910000Y-137668000D01*
X163908000Y-137668000D01*
X163905000Y-137669000D01*
X163903000Y-137669000D01*
X163900000Y-137670000D01*
X163898000Y-137670000D01*
X163895000Y-137670000D01*
X163605000Y-137670000D01*
X163602000Y-137670000D01*
X163600000Y-137670000D01*
X163597000Y-137669000D01*
X163595000Y-137669000D01*
X163592000Y-137668000D01*
X163590000Y-137668000D01*
X163587000Y-137667000D01*
X163585000Y-137666000D01*
X163582000Y-137665000D01*
X163580000Y-137663000D01*
X163578000Y-137662000D01*
X163576000Y-137660000D01*
X163574000Y-137659000D01*
X163572000Y-137657000D01*
X163570000Y-137655000D01*
X163568000Y-137653000D01*
X163566000Y-137651000D01*
X163565000Y-137649000D01*
X163563000Y-137647000D01*
X163562000Y-137645000D01*
X163560000Y-137643000D01*
X163559000Y-137640000D01*
X163558000Y-137638000D01*
X163557000Y-137635000D01*
X163557000Y-137633000D01*
X163556000Y-137630000D01*
X163556000Y-137628000D01*
X163555000Y-137625000D01*
X163555000Y-137623000D01*
X163555000Y-137620000D01*
X163555000Y-136980000D01*
X163555000Y-136977000D01*
X163555000Y-136975000D01*
X163556000Y-136972000D01*
X163556000Y-136970000D01*
X163557000Y-136967000D01*
X163557000Y-136965000D01*
X163558000Y-136962000D01*
X163559000Y-136960000D01*
X163560000Y-136957000D01*
X163562000Y-136955000D01*
X163563000Y-136953000D01*
X163565000Y-136951000D01*
X163566000Y-136949000D01*
X163568000Y-136947000D01*
X163570000Y-136945000D01*
X163572000Y-136943000D01*
X163574000Y-136941000D01*
X163576000Y-136940000D01*
X163578000Y-136938000D01*
X163580000Y-136937000D01*
X163582000Y-136935000D01*
X163585000Y-136934000D01*
X163587000Y-136933000D01*
X163590000Y-136932000D01*
X163592000Y-136932000D01*
X163595000Y-136931000D01*
X163597000Y-136931000D01*
X163600000Y-136930000D01*
X163602000Y-136930000D01*
X163605000Y-136930000D01*
X163895000Y-136930000D01*
X163898000Y-136930000D01*
X163900000Y-136930000D01*
X163903000Y-136931000D01*
G37*
X163903000Y-139731000D02*
X163905000Y-139731000D01*
X163908000Y-139732000D01*
X163910000Y-139732000D01*
X163913000Y-139733000D01*
X163915000Y-139734000D01*
X163918000Y-139735000D01*
X163920000Y-139737000D01*
X163922000Y-139738000D01*
X163924000Y-139740000D01*
X163926000Y-139741000D01*
X163928000Y-139743000D01*
X163930000Y-139745000D01*
X163932000Y-139747000D01*
X163934000Y-139749000D01*
X163935000Y-139751000D01*
X163937000Y-139753000D01*
X163938000Y-139755000D01*
X163940000Y-139757000D01*
X163941000Y-139760000D01*
X163942000Y-139762000D01*
X163943000Y-139765000D01*
X163943000Y-139767000D01*
X163944000Y-139770000D01*
X163944000Y-139772000D01*
X163945000Y-139775000D01*
X163945000Y-139777000D01*
X163945000Y-139780000D01*
X163945000Y-140420000D01*
X163945000Y-140423000D01*
X163945000Y-140425000D01*
X163944000Y-140428000D01*
X163944000Y-140430000D01*
X163943000Y-140433000D01*
X163943000Y-140435000D01*
X163942000Y-140438000D01*
X163941000Y-140440000D01*
X163940000Y-140443000D01*
X163938000Y-140445000D01*
X163937000Y-140447000D01*
X163935000Y-140449000D01*
X163934000Y-140451000D01*
X163932000Y-140453000D01*
X163930000Y-140455000D01*
X163928000Y-140457000D01*
X163926000Y-140459000D01*
X163924000Y-140460000D01*
X163922000Y-140462000D01*
X163920000Y-140463000D01*
X163918000Y-140465000D01*
X163915000Y-140466000D01*
X163913000Y-140467000D01*
X163910000Y-140468000D01*
X163908000Y-140468000D01*
X163905000Y-140469000D01*
X163903000Y-140469000D01*
X163900000Y-140470000D01*
X163898000Y-140470000D01*
X163895000Y-140470000D01*
X163605000Y-140470000D01*
X163602000Y-140470000D01*
X163600000Y-140470000D01*
X163597000Y-140469000D01*
X163595000Y-140469000D01*
X163592000Y-140468000D01*
X163590000Y-140468000D01*
X163587000Y-140467000D01*
X163585000Y-140466000D01*
X163582000Y-140465000D01*
X163580000Y-140463000D01*
X163578000Y-140462000D01*
X163576000Y-140460000D01*
X163574000Y-140459000D01*
X163572000Y-140457000D01*
X163570000Y-140455000D01*
X163568000Y-140453000D01*
X163566000Y-140451000D01*
X163565000Y-140449000D01*
X163563000Y-140447000D01*
X163562000Y-140445000D01*
X163560000Y-140443000D01*
X163559000Y-140440000D01*
X163558000Y-140438000D01*
X163557000Y-140435000D01*
X163557000Y-140433000D01*
X163556000Y-140430000D01*
X163556000Y-140428000D01*
X163555000Y-140425000D01*
X163555000Y-140423000D01*
X163555000Y-140420000D01*
X163555000Y-139780000D01*
X163555000Y-139777000D01*
X163555000Y-139775000D01*
X163556000Y-139772000D01*
X163556000Y-139770000D01*
X163557000Y-139767000D01*
X163557000Y-139765000D01*
X163558000Y-139762000D01*
X163559000Y-139760000D01*
X163560000Y-139757000D01*
X163562000Y-139755000D01*
X163563000Y-139753000D01*
X163565000Y-139751000D01*
X163566000Y-139749000D01*
X163568000Y-139747000D01*
X163570000Y-139745000D01*
X163572000Y-139743000D01*
X163574000Y-139741000D01*
X163576000Y-139740000D01*
X163578000Y-139738000D01*
X163580000Y-139737000D01*
X163582000Y-139735000D01*
X163585000Y-139734000D01*
X163587000Y-139733000D01*
X163590000Y-139732000D01*
X163592000Y-139732000D01*
X163595000Y-139731000D01*
X163597000Y-139731000D01*
X163600000Y-139730000D01*
X163602000Y-139730000D01*
X163605000Y-139730000D01*
X163895000Y-139730000D01*
X163898000Y-139730000D01*
X163900000Y-139730000D01*
X163903000Y-139731000D01*
G36*
X163903000Y-139731000D02*
G01*
X163905000Y-139731000D01*
X163908000Y-139732000D01*
X163910000Y-139732000D01*
X163913000Y-139733000D01*
X163915000Y-139734000D01*
X163918000Y-139735000D01*
X163920000Y-139737000D01*
X163922000Y-139738000D01*
X163924000Y-139740000D01*
X163926000Y-139741000D01*
X163928000Y-139743000D01*
X163930000Y-139745000D01*
X163932000Y-139747000D01*
X163934000Y-139749000D01*
X163935000Y-139751000D01*
X163937000Y-139753000D01*
X163938000Y-139755000D01*
X163940000Y-139757000D01*
X163941000Y-139760000D01*
X163942000Y-139762000D01*
X163943000Y-139765000D01*
X163943000Y-139767000D01*
X163944000Y-139770000D01*
X163944000Y-139772000D01*
X163945000Y-139775000D01*
X163945000Y-139777000D01*
X163945000Y-139780000D01*
X163945000Y-140420000D01*
X163945000Y-140423000D01*
X163945000Y-140425000D01*
X163944000Y-140428000D01*
X163944000Y-140430000D01*
X163943000Y-140433000D01*
X163943000Y-140435000D01*
X163942000Y-140438000D01*
X163941000Y-140440000D01*
X163940000Y-140443000D01*
X163938000Y-140445000D01*
X163937000Y-140447000D01*
X163935000Y-140449000D01*
X163934000Y-140451000D01*
X163932000Y-140453000D01*
X163930000Y-140455000D01*
X163928000Y-140457000D01*
X163926000Y-140459000D01*
X163924000Y-140460000D01*
X163922000Y-140462000D01*
X163920000Y-140463000D01*
X163918000Y-140465000D01*
X163915000Y-140466000D01*
X163913000Y-140467000D01*
X163910000Y-140468000D01*
X163908000Y-140468000D01*
X163905000Y-140469000D01*
X163903000Y-140469000D01*
X163900000Y-140470000D01*
X163898000Y-140470000D01*
X163895000Y-140470000D01*
X163605000Y-140470000D01*
X163602000Y-140470000D01*
X163600000Y-140470000D01*
X163597000Y-140469000D01*
X163595000Y-140469000D01*
X163592000Y-140468000D01*
X163590000Y-140468000D01*
X163587000Y-140467000D01*
X163585000Y-140466000D01*
X163582000Y-140465000D01*
X163580000Y-140463000D01*
X163578000Y-140462000D01*
X163576000Y-140460000D01*
X163574000Y-140459000D01*
X163572000Y-140457000D01*
X163570000Y-140455000D01*
X163568000Y-140453000D01*
X163566000Y-140451000D01*
X163565000Y-140449000D01*
X163563000Y-140447000D01*
X163562000Y-140445000D01*
X163560000Y-140443000D01*
X163559000Y-140440000D01*
X163558000Y-140438000D01*
X163557000Y-140435000D01*
X163557000Y-140433000D01*
X163556000Y-140430000D01*
X163556000Y-140428000D01*
X163555000Y-140425000D01*
X163555000Y-140423000D01*
X163555000Y-140420000D01*
X163555000Y-139780000D01*
X163555000Y-139777000D01*
X163555000Y-139775000D01*
X163556000Y-139772000D01*
X163556000Y-139770000D01*
X163557000Y-139767000D01*
X163557000Y-139765000D01*
X163558000Y-139762000D01*
X163559000Y-139760000D01*
X163560000Y-139757000D01*
X163562000Y-139755000D01*
X163563000Y-139753000D01*
X163565000Y-139751000D01*
X163566000Y-139749000D01*
X163568000Y-139747000D01*
X163570000Y-139745000D01*
X163572000Y-139743000D01*
X163574000Y-139741000D01*
X163576000Y-139740000D01*
X163578000Y-139738000D01*
X163580000Y-139737000D01*
X163582000Y-139735000D01*
X163585000Y-139734000D01*
X163587000Y-139733000D01*
X163590000Y-139732000D01*
X163592000Y-139732000D01*
X163595000Y-139731000D01*
X163597000Y-139731000D01*
X163600000Y-139730000D01*
X163602000Y-139730000D01*
X163605000Y-139730000D01*
X163895000Y-139730000D01*
X163898000Y-139730000D01*
X163900000Y-139730000D01*
X163903000Y-139731000D01*
G37*
X164728000Y-137756000D02*
X164730000Y-137756000D01*
X164733000Y-137757000D01*
X164735000Y-137757000D01*
X164738000Y-137758000D01*
X164740000Y-137759000D01*
X164743000Y-137760000D01*
X164745000Y-137762000D01*
X164747000Y-137763000D01*
X164749000Y-137765000D01*
X164751000Y-137766000D01*
X164753000Y-137768000D01*
X164755000Y-137770000D01*
X164757000Y-137772000D01*
X164759000Y-137774000D01*
X164760000Y-137776000D01*
X164762000Y-137778000D01*
X164763000Y-137780000D01*
X164765000Y-137782000D01*
X164766000Y-137785000D01*
X164767000Y-137787000D01*
X164768000Y-137790000D01*
X164768000Y-137792000D01*
X164769000Y-137795000D01*
X164769000Y-137797000D01*
X164770000Y-137800000D01*
X164770000Y-137802000D01*
X164770000Y-137805000D01*
X164770000Y-138095000D01*
X164770000Y-138098000D01*
X164770000Y-138100000D01*
X164769000Y-138103000D01*
X164769000Y-138105000D01*
X164768000Y-138108000D01*
X164768000Y-138110000D01*
X164767000Y-138113000D01*
X164766000Y-138115000D01*
X164765000Y-138118000D01*
X164763000Y-138120000D01*
X164762000Y-138122000D01*
X164760000Y-138124000D01*
X164759000Y-138126000D01*
X164757000Y-138128000D01*
X164755000Y-138130000D01*
X164753000Y-138132000D01*
X164751000Y-138134000D01*
X164749000Y-138135000D01*
X164747000Y-138137000D01*
X164745000Y-138138000D01*
X164743000Y-138140000D01*
X164740000Y-138141000D01*
X164738000Y-138142000D01*
X164735000Y-138143000D01*
X164733000Y-138143000D01*
X164730000Y-138144000D01*
X164728000Y-138144000D01*
X164725000Y-138145000D01*
X164723000Y-138145000D01*
X164720000Y-138145000D01*
X164080000Y-138145000D01*
X164077000Y-138145000D01*
X164075000Y-138145000D01*
X164072000Y-138144000D01*
X164070000Y-138144000D01*
X164067000Y-138143000D01*
X164065000Y-138143000D01*
X164062000Y-138142000D01*
X164060000Y-138141000D01*
X164057000Y-138140000D01*
X164055000Y-138138000D01*
X164053000Y-138137000D01*
X164051000Y-138135000D01*
X164049000Y-138134000D01*
X164047000Y-138132000D01*
X164045000Y-138130000D01*
X164043000Y-138128000D01*
X164041000Y-138126000D01*
X164040000Y-138124000D01*
X164038000Y-138122000D01*
X164037000Y-138120000D01*
X164035000Y-138118000D01*
X164034000Y-138115000D01*
X164033000Y-138113000D01*
X164032000Y-138110000D01*
X164032000Y-138108000D01*
X164031000Y-138105000D01*
X164031000Y-138103000D01*
X164030000Y-138100000D01*
X164030000Y-138098000D01*
X164030000Y-138095000D01*
X164030000Y-137805000D01*
X164030000Y-137802000D01*
X164030000Y-137800000D01*
X164031000Y-137797000D01*
X164031000Y-137795000D01*
X164032000Y-137792000D01*
X164032000Y-137790000D01*
X164033000Y-137787000D01*
X164034000Y-137785000D01*
X164035000Y-137782000D01*
X164037000Y-137780000D01*
X164038000Y-137778000D01*
X164040000Y-137776000D01*
X164041000Y-137774000D01*
X164043000Y-137772000D01*
X164045000Y-137770000D01*
X164047000Y-137768000D01*
X164049000Y-137766000D01*
X164051000Y-137765000D01*
X164053000Y-137763000D01*
X164055000Y-137762000D01*
X164057000Y-137760000D01*
X164060000Y-137759000D01*
X164062000Y-137758000D01*
X164065000Y-137757000D01*
X164067000Y-137757000D01*
X164070000Y-137756000D01*
X164072000Y-137756000D01*
X164075000Y-137755000D01*
X164077000Y-137755000D01*
X164080000Y-137755000D01*
X164720000Y-137755000D01*
X164723000Y-137755000D01*
X164725000Y-137755000D01*
X164728000Y-137756000D01*
G36*
X164728000Y-137756000D02*
G01*
X164730000Y-137756000D01*
X164733000Y-137757000D01*
X164735000Y-137757000D01*
X164738000Y-137758000D01*
X164740000Y-137759000D01*
X164743000Y-137760000D01*
X164745000Y-137762000D01*
X164747000Y-137763000D01*
X164749000Y-137765000D01*
X164751000Y-137766000D01*
X164753000Y-137768000D01*
X164755000Y-137770000D01*
X164757000Y-137772000D01*
X164759000Y-137774000D01*
X164760000Y-137776000D01*
X164762000Y-137778000D01*
X164763000Y-137780000D01*
X164765000Y-137782000D01*
X164766000Y-137785000D01*
X164767000Y-137787000D01*
X164768000Y-137790000D01*
X164768000Y-137792000D01*
X164769000Y-137795000D01*
X164769000Y-137797000D01*
X164770000Y-137800000D01*
X164770000Y-137802000D01*
X164770000Y-137805000D01*
X164770000Y-138095000D01*
X164770000Y-138098000D01*
X164770000Y-138100000D01*
X164769000Y-138103000D01*
X164769000Y-138105000D01*
X164768000Y-138108000D01*
X164768000Y-138110000D01*
X164767000Y-138113000D01*
X164766000Y-138115000D01*
X164765000Y-138118000D01*
X164763000Y-138120000D01*
X164762000Y-138122000D01*
X164760000Y-138124000D01*
X164759000Y-138126000D01*
X164757000Y-138128000D01*
X164755000Y-138130000D01*
X164753000Y-138132000D01*
X164751000Y-138134000D01*
X164749000Y-138135000D01*
X164747000Y-138137000D01*
X164745000Y-138138000D01*
X164743000Y-138140000D01*
X164740000Y-138141000D01*
X164738000Y-138142000D01*
X164735000Y-138143000D01*
X164733000Y-138143000D01*
X164730000Y-138144000D01*
X164728000Y-138144000D01*
X164725000Y-138145000D01*
X164723000Y-138145000D01*
X164720000Y-138145000D01*
X164080000Y-138145000D01*
X164077000Y-138145000D01*
X164075000Y-138145000D01*
X164072000Y-138144000D01*
X164070000Y-138144000D01*
X164067000Y-138143000D01*
X164065000Y-138143000D01*
X164062000Y-138142000D01*
X164060000Y-138141000D01*
X164057000Y-138140000D01*
X164055000Y-138138000D01*
X164053000Y-138137000D01*
X164051000Y-138135000D01*
X164049000Y-138134000D01*
X164047000Y-138132000D01*
X164045000Y-138130000D01*
X164043000Y-138128000D01*
X164041000Y-138126000D01*
X164040000Y-138124000D01*
X164038000Y-138122000D01*
X164037000Y-138120000D01*
X164035000Y-138118000D01*
X164034000Y-138115000D01*
X164033000Y-138113000D01*
X164032000Y-138110000D01*
X164032000Y-138108000D01*
X164031000Y-138105000D01*
X164031000Y-138103000D01*
X164030000Y-138100000D01*
X164030000Y-138098000D01*
X164030000Y-138095000D01*
X164030000Y-137805000D01*
X164030000Y-137802000D01*
X164030000Y-137800000D01*
X164031000Y-137797000D01*
X164031000Y-137795000D01*
X164032000Y-137792000D01*
X164032000Y-137790000D01*
X164033000Y-137787000D01*
X164034000Y-137785000D01*
X164035000Y-137782000D01*
X164037000Y-137780000D01*
X164038000Y-137778000D01*
X164040000Y-137776000D01*
X164041000Y-137774000D01*
X164043000Y-137772000D01*
X164045000Y-137770000D01*
X164047000Y-137768000D01*
X164049000Y-137766000D01*
X164051000Y-137765000D01*
X164053000Y-137763000D01*
X164055000Y-137762000D01*
X164057000Y-137760000D01*
X164060000Y-137759000D01*
X164062000Y-137758000D01*
X164065000Y-137757000D01*
X164067000Y-137757000D01*
X164070000Y-137756000D01*
X164072000Y-137756000D01*
X164075000Y-137755000D01*
X164077000Y-137755000D01*
X164080000Y-137755000D01*
X164720000Y-137755000D01*
X164723000Y-137755000D01*
X164725000Y-137755000D01*
X164728000Y-137756000D01*
G37*
X164728000Y-138256000D02*
X164730000Y-138256000D01*
X164733000Y-138257000D01*
X164735000Y-138257000D01*
X164738000Y-138258000D01*
X164740000Y-138259000D01*
X164743000Y-138260000D01*
X164745000Y-138262000D01*
X164747000Y-138263000D01*
X164749000Y-138265000D01*
X164751000Y-138266000D01*
X164753000Y-138268000D01*
X164755000Y-138270000D01*
X164757000Y-138272000D01*
X164759000Y-138274000D01*
X164760000Y-138276000D01*
X164762000Y-138278000D01*
X164763000Y-138280000D01*
X164765000Y-138282000D01*
X164766000Y-138285000D01*
X164767000Y-138287000D01*
X164768000Y-138290000D01*
X164768000Y-138292000D01*
X164769000Y-138295000D01*
X164769000Y-138297000D01*
X164770000Y-138300000D01*
X164770000Y-138302000D01*
X164770000Y-138305000D01*
X164770000Y-138595000D01*
X164770000Y-138598000D01*
X164770000Y-138600000D01*
X164769000Y-138603000D01*
X164769000Y-138605000D01*
X164768000Y-138608000D01*
X164768000Y-138610000D01*
X164767000Y-138613000D01*
X164766000Y-138615000D01*
X164765000Y-138618000D01*
X164763000Y-138620000D01*
X164762000Y-138622000D01*
X164760000Y-138624000D01*
X164759000Y-138626000D01*
X164757000Y-138628000D01*
X164755000Y-138630000D01*
X164753000Y-138632000D01*
X164751000Y-138634000D01*
X164749000Y-138635000D01*
X164747000Y-138637000D01*
X164745000Y-138638000D01*
X164743000Y-138640000D01*
X164740000Y-138641000D01*
X164738000Y-138642000D01*
X164735000Y-138643000D01*
X164733000Y-138643000D01*
X164730000Y-138644000D01*
X164728000Y-138644000D01*
X164725000Y-138645000D01*
X164723000Y-138645000D01*
X164720000Y-138645000D01*
X164080000Y-138645000D01*
X164077000Y-138645000D01*
X164075000Y-138645000D01*
X164072000Y-138644000D01*
X164070000Y-138644000D01*
X164067000Y-138643000D01*
X164065000Y-138643000D01*
X164062000Y-138642000D01*
X164060000Y-138641000D01*
X164057000Y-138640000D01*
X164055000Y-138638000D01*
X164053000Y-138637000D01*
X164051000Y-138635000D01*
X164049000Y-138634000D01*
X164047000Y-138632000D01*
X164045000Y-138630000D01*
X164043000Y-138628000D01*
X164041000Y-138626000D01*
X164040000Y-138624000D01*
X164038000Y-138622000D01*
X164037000Y-138620000D01*
X164035000Y-138618000D01*
X164034000Y-138615000D01*
X164033000Y-138613000D01*
X164032000Y-138610000D01*
X164032000Y-138608000D01*
X164031000Y-138605000D01*
X164031000Y-138603000D01*
X164030000Y-138600000D01*
X164030000Y-138598000D01*
X164030000Y-138595000D01*
X164030000Y-138305000D01*
X164030000Y-138302000D01*
X164030000Y-138300000D01*
X164031000Y-138297000D01*
X164031000Y-138295000D01*
X164032000Y-138292000D01*
X164032000Y-138290000D01*
X164033000Y-138287000D01*
X164034000Y-138285000D01*
X164035000Y-138282000D01*
X164037000Y-138280000D01*
X164038000Y-138278000D01*
X164040000Y-138276000D01*
X164041000Y-138274000D01*
X164043000Y-138272000D01*
X164045000Y-138270000D01*
X164047000Y-138268000D01*
X164049000Y-138266000D01*
X164051000Y-138265000D01*
X164053000Y-138263000D01*
X164055000Y-138262000D01*
X164057000Y-138260000D01*
X164060000Y-138259000D01*
X164062000Y-138258000D01*
X164065000Y-138257000D01*
X164067000Y-138257000D01*
X164070000Y-138256000D01*
X164072000Y-138256000D01*
X164075000Y-138255000D01*
X164077000Y-138255000D01*
X164080000Y-138255000D01*
X164720000Y-138255000D01*
X164723000Y-138255000D01*
X164725000Y-138255000D01*
X164728000Y-138256000D01*
G36*
X164728000Y-138256000D02*
G01*
X164730000Y-138256000D01*
X164733000Y-138257000D01*
X164735000Y-138257000D01*
X164738000Y-138258000D01*
X164740000Y-138259000D01*
X164743000Y-138260000D01*
X164745000Y-138262000D01*
X164747000Y-138263000D01*
X164749000Y-138265000D01*
X164751000Y-138266000D01*
X164753000Y-138268000D01*
X164755000Y-138270000D01*
X164757000Y-138272000D01*
X164759000Y-138274000D01*
X164760000Y-138276000D01*
X164762000Y-138278000D01*
X164763000Y-138280000D01*
X164765000Y-138282000D01*
X164766000Y-138285000D01*
X164767000Y-138287000D01*
X164768000Y-138290000D01*
X164768000Y-138292000D01*
X164769000Y-138295000D01*
X164769000Y-138297000D01*
X164770000Y-138300000D01*
X164770000Y-138302000D01*
X164770000Y-138305000D01*
X164770000Y-138595000D01*
X164770000Y-138598000D01*
X164770000Y-138600000D01*
X164769000Y-138603000D01*
X164769000Y-138605000D01*
X164768000Y-138608000D01*
X164768000Y-138610000D01*
X164767000Y-138613000D01*
X164766000Y-138615000D01*
X164765000Y-138618000D01*
X164763000Y-138620000D01*
X164762000Y-138622000D01*
X164760000Y-138624000D01*
X164759000Y-138626000D01*
X164757000Y-138628000D01*
X164755000Y-138630000D01*
X164753000Y-138632000D01*
X164751000Y-138634000D01*
X164749000Y-138635000D01*
X164747000Y-138637000D01*
X164745000Y-138638000D01*
X164743000Y-138640000D01*
X164740000Y-138641000D01*
X164738000Y-138642000D01*
X164735000Y-138643000D01*
X164733000Y-138643000D01*
X164730000Y-138644000D01*
X164728000Y-138644000D01*
X164725000Y-138645000D01*
X164723000Y-138645000D01*
X164720000Y-138645000D01*
X164080000Y-138645000D01*
X164077000Y-138645000D01*
X164075000Y-138645000D01*
X164072000Y-138644000D01*
X164070000Y-138644000D01*
X164067000Y-138643000D01*
X164065000Y-138643000D01*
X164062000Y-138642000D01*
X164060000Y-138641000D01*
X164057000Y-138640000D01*
X164055000Y-138638000D01*
X164053000Y-138637000D01*
X164051000Y-138635000D01*
X164049000Y-138634000D01*
X164047000Y-138632000D01*
X164045000Y-138630000D01*
X164043000Y-138628000D01*
X164041000Y-138626000D01*
X164040000Y-138624000D01*
X164038000Y-138622000D01*
X164037000Y-138620000D01*
X164035000Y-138618000D01*
X164034000Y-138615000D01*
X164033000Y-138613000D01*
X164032000Y-138610000D01*
X164032000Y-138608000D01*
X164031000Y-138605000D01*
X164031000Y-138603000D01*
X164030000Y-138600000D01*
X164030000Y-138598000D01*
X164030000Y-138595000D01*
X164030000Y-138305000D01*
X164030000Y-138302000D01*
X164030000Y-138300000D01*
X164031000Y-138297000D01*
X164031000Y-138295000D01*
X164032000Y-138292000D01*
X164032000Y-138290000D01*
X164033000Y-138287000D01*
X164034000Y-138285000D01*
X164035000Y-138282000D01*
X164037000Y-138280000D01*
X164038000Y-138278000D01*
X164040000Y-138276000D01*
X164041000Y-138274000D01*
X164043000Y-138272000D01*
X164045000Y-138270000D01*
X164047000Y-138268000D01*
X164049000Y-138266000D01*
X164051000Y-138265000D01*
X164053000Y-138263000D01*
X164055000Y-138262000D01*
X164057000Y-138260000D01*
X164060000Y-138259000D01*
X164062000Y-138258000D01*
X164065000Y-138257000D01*
X164067000Y-138257000D01*
X164070000Y-138256000D01*
X164072000Y-138256000D01*
X164075000Y-138255000D01*
X164077000Y-138255000D01*
X164080000Y-138255000D01*
X164720000Y-138255000D01*
X164723000Y-138255000D01*
X164725000Y-138255000D01*
X164728000Y-138256000D01*
G37*
X164728000Y-138756000D02*
X164730000Y-138756000D01*
X164733000Y-138757000D01*
X164735000Y-138757000D01*
X164738000Y-138758000D01*
X164740000Y-138759000D01*
X164743000Y-138760000D01*
X164745000Y-138762000D01*
X164747000Y-138763000D01*
X164749000Y-138765000D01*
X164751000Y-138766000D01*
X164753000Y-138768000D01*
X164755000Y-138770000D01*
X164757000Y-138772000D01*
X164759000Y-138774000D01*
X164760000Y-138776000D01*
X164762000Y-138778000D01*
X164763000Y-138780000D01*
X164765000Y-138782000D01*
X164766000Y-138785000D01*
X164767000Y-138787000D01*
X164768000Y-138790000D01*
X164768000Y-138792000D01*
X164769000Y-138795000D01*
X164769000Y-138797000D01*
X164770000Y-138800000D01*
X164770000Y-138802000D01*
X164770000Y-138805000D01*
X164770000Y-139095000D01*
X164770000Y-139098000D01*
X164770000Y-139100000D01*
X164769000Y-139103000D01*
X164769000Y-139105000D01*
X164768000Y-139108000D01*
X164768000Y-139110000D01*
X164767000Y-139113000D01*
X164766000Y-139115000D01*
X164765000Y-139118000D01*
X164763000Y-139120000D01*
X164762000Y-139122000D01*
X164760000Y-139124000D01*
X164759000Y-139126000D01*
X164757000Y-139128000D01*
X164755000Y-139130000D01*
X164753000Y-139132000D01*
X164751000Y-139134000D01*
X164749000Y-139135000D01*
X164747000Y-139137000D01*
X164745000Y-139138000D01*
X164743000Y-139140000D01*
X164740000Y-139141000D01*
X164738000Y-139142000D01*
X164735000Y-139143000D01*
X164733000Y-139143000D01*
X164730000Y-139144000D01*
X164728000Y-139144000D01*
X164725000Y-139145000D01*
X164723000Y-139145000D01*
X164720000Y-139145000D01*
X164080000Y-139145000D01*
X164077000Y-139145000D01*
X164075000Y-139145000D01*
X164072000Y-139144000D01*
X164070000Y-139144000D01*
X164067000Y-139143000D01*
X164065000Y-139143000D01*
X164062000Y-139142000D01*
X164060000Y-139141000D01*
X164057000Y-139140000D01*
X164055000Y-139138000D01*
X164053000Y-139137000D01*
X164051000Y-139135000D01*
X164049000Y-139134000D01*
X164047000Y-139132000D01*
X164045000Y-139130000D01*
X164043000Y-139128000D01*
X164041000Y-139126000D01*
X164040000Y-139124000D01*
X164038000Y-139122000D01*
X164037000Y-139120000D01*
X164035000Y-139118000D01*
X164034000Y-139115000D01*
X164033000Y-139113000D01*
X164032000Y-139110000D01*
X164032000Y-139108000D01*
X164031000Y-139105000D01*
X164031000Y-139103000D01*
X164030000Y-139100000D01*
X164030000Y-139098000D01*
X164030000Y-139095000D01*
X164030000Y-138805000D01*
X164030000Y-138802000D01*
X164030000Y-138800000D01*
X164031000Y-138797000D01*
X164031000Y-138795000D01*
X164032000Y-138792000D01*
X164032000Y-138790000D01*
X164033000Y-138787000D01*
X164034000Y-138785000D01*
X164035000Y-138782000D01*
X164037000Y-138780000D01*
X164038000Y-138778000D01*
X164040000Y-138776000D01*
X164041000Y-138774000D01*
X164043000Y-138772000D01*
X164045000Y-138770000D01*
X164047000Y-138768000D01*
X164049000Y-138766000D01*
X164051000Y-138765000D01*
X164053000Y-138763000D01*
X164055000Y-138762000D01*
X164057000Y-138760000D01*
X164060000Y-138759000D01*
X164062000Y-138758000D01*
X164065000Y-138757000D01*
X164067000Y-138757000D01*
X164070000Y-138756000D01*
X164072000Y-138756000D01*
X164075000Y-138755000D01*
X164077000Y-138755000D01*
X164080000Y-138755000D01*
X164720000Y-138755000D01*
X164723000Y-138755000D01*
X164725000Y-138755000D01*
X164728000Y-138756000D01*
G36*
X164728000Y-138756000D02*
G01*
X164730000Y-138756000D01*
X164733000Y-138757000D01*
X164735000Y-138757000D01*
X164738000Y-138758000D01*
X164740000Y-138759000D01*
X164743000Y-138760000D01*
X164745000Y-138762000D01*
X164747000Y-138763000D01*
X164749000Y-138765000D01*
X164751000Y-138766000D01*
X164753000Y-138768000D01*
X164755000Y-138770000D01*
X164757000Y-138772000D01*
X164759000Y-138774000D01*
X164760000Y-138776000D01*
X164762000Y-138778000D01*
X164763000Y-138780000D01*
X164765000Y-138782000D01*
X164766000Y-138785000D01*
X164767000Y-138787000D01*
X164768000Y-138790000D01*
X164768000Y-138792000D01*
X164769000Y-138795000D01*
X164769000Y-138797000D01*
X164770000Y-138800000D01*
X164770000Y-138802000D01*
X164770000Y-138805000D01*
X164770000Y-139095000D01*
X164770000Y-139098000D01*
X164770000Y-139100000D01*
X164769000Y-139103000D01*
X164769000Y-139105000D01*
X164768000Y-139108000D01*
X164768000Y-139110000D01*
X164767000Y-139113000D01*
X164766000Y-139115000D01*
X164765000Y-139118000D01*
X164763000Y-139120000D01*
X164762000Y-139122000D01*
X164760000Y-139124000D01*
X164759000Y-139126000D01*
X164757000Y-139128000D01*
X164755000Y-139130000D01*
X164753000Y-139132000D01*
X164751000Y-139134000D01*
X164749000Y-139135000D01*
X164747000Y-139137000D01*
X164745000Y-139138000D01*
X164743000Y-139140000D01*
X164740000Y-139141000D01*
X164738000Y-139142000D01*
X164735000Y-139143000D01*
X164733000Y-139143000D01*
X164730000Y-139144000D01*
X164728000Y-139144000D01*
X164725000Y-139145000D01*
X164723000Y-139145000D01*
X164720000Y-139145000D01*
X164080000Y-139145000D01*
X164077000Y-139145000D01*
X164075000Y-139145000D01*
X164072000Y-139144000D01*
X164070000Y-139144000D01*
X164067000Y-139143000D01*
X164065000Y-139143000D01*
X164062000Y-139142000D01*
X164060000Y-139141000D01*
X164057000Y-139140000D01*
X164055000Y-139138000D01*
X164053000Y-139137000D01*
X164051000Y-139135000D01*
X164049000Y-139134000D01*
X164047000Y-139132000D01*
X164045000Y-139130000D01*
X164043000Y-139128000D01*
X164041000Y-139126000D01*
X164040000Y-139124000D01*
X164038000Y-139122000D01*
X164037000Y-139120000D01*
X164035000Y-139118000D01*
X164034000Y-139115000D01*
X164033000Y-139113000D01*
X164032000Y-139110000D01*
X164032000Y-139108000D01*
X164031000Y-139105000D01*
X164031000Y-139103000D01*
X164030000Y-139100000D01*
X164030000Y-139098000D01*
X164030000Y-139095000D01*
X164030000Y-138805000D01*
X164030000Y-138802000D01*
X164030000Y-138800000D01*
X164031000Y-138797000D01*
X164031000Y-138795000D01*
X164032000Y-138792000D01*
X164032000Y-138790000D01*
X164033000Y-138787000D01*
X164034000Y-138785000D01*
X164035000Y-138782000D01*
X164037000Y-138780000D01*
X164038000Y-138778000D01*
X164040000Y-138776000D01*
X164041000Y-138774000D01*
X164043000Y-138772000D01*
X164045000Y-138770000D01*
X164047000Y-138768000D01*
X164049000Y-138766000D01*
X164051000Y-138765000D01*
X164053000Y-138763000D01*
X164055000Y-138762000D01*
X164057000Y-138760000D01*
X164060000Y-138759000D01*
X164062000Y-138758000D01*
X164065000Y-138757000D01*
X164067000Y-138757000D01*
X164070000Y-138756000D01*
X164072000Y-138756000D01*
X164075000Y-138755000D01*
X164077000Y-138755000D01*
X164080000Y-138755000D01*
X164720000Y-138755000D01*
X164723000Y-138755000D01*
X164725000Y-138755000D01*
X164728000Y-138756000D01*
G37*
X164728000Y-139256000D02*
X164730000Y-139256000D01*
X164733000Y-139257000D01*
X164735000Y-139257000D01*
X164738000Y-139258000D01*
X164740000Y-139259000D01*
X164743000Y-139260000D01*
X164745000Y-139262000D01*
X164747000Y-139263000D01*
X164749000Y-139265000D01*
X164751000Y-139266000D01*
X164753000Y-139268000D01*
X164755000Y-139270000D01*
X164757000Y-139272000D01*
X164759000Y-139274000D01*
X164760000Y-139276000D01*
X164762000Y-139278000D01*
X164763000Y-139280000D01*
X164765000Y-139282000D01*
X164766000Y-139285000D01*
X164767000Y-139287000D01*
X164768000Y-139290000D01*
X164768000Y-139292000D01*
X164769000Y-139295000D01*
X164769000Y-139297000D01*
X164770000Y-139300000D01*
X164770000Y-139302000D01*
X164770000Y-139305000D01*
X164770000Y-139595000D01*
X164770000Y-139598000D01*
X164770000Y-139600000D01*
X164769000Y-139603000D01*
X164769000Y-139605000D01*
X164768000Y-139608000D01*
X164768000Y-139610000D01*
X164767000Y-139613000D01*
X164766000Y-139615000D01*
X164765000Y-139618000D01*
X164763000Y-139620000D01*
X164762000Y-139622000D01*
X164760000Y-139624000D01*
X164759000Y-139626000D01*
X164757000Y-139628000D01*
X164755000Y-139630000D01*
X164753000Y-139632000D01*
X164751000Y-139634000D01*
X164749000Y-139635000D01*
X164747000Y-139637000D01*
X164745000Y-139638000D01*
X164743000Y-139640000D01*
X164740000Y-139641000D01*
X164738000Y-139642000D01*
X164735000Y-139643000D01*
X164733000Y-139643000D01*
X164730000Y-139644000D01*
X164728000Y-139644000D01*
X164725000Y-139645000D01*
X164723000Y-139645000D01*
X164720000Y-139645000D01*
X164080000Y-139645000D01*
X164077000Y-139645000D01*
X164075000Y-139645000D01*
X164072000Y-139644000D01*
X164070000Y-139644000D01*
X164067000Y-139643000D01*
X164065000Y-139643000D01*
X164062000Y-139642000D01*
X164060000Y-139641000D01*
X164057000Y-139640000D01*
X164055000Y-139638000D01*
X164053000Y-139637000D01*
X164051000Y-139635000D01*
X164049000Y-139634000D01*
X164047000Y-139632000D01*
X164045000Y-139630000D01*
X164043000Y-139628000D01*
X164041000Y-139626000D01*
X164040000Y-139624000D01*
X164038000Y-139622000D01*
X164037000Y-139620000D01*
X164035000Y-139618000D01*
X164034000Y-139615000D01*
X164033000Y-139613000D01*
X164032000Y-139610000D01*
X164032000Y-139608000D01*
X164031000Y-139605000D01*
X164031000Y-139603000D01*
X164030000Y-139600000D01*
X164030000Y-139598000D01*
X164030000Y-139595000D01*
X164030000Y-139305000D01*
X164030000Y-139302000D01*
X164030000Y-139300000D01*
X164031000Y-139297000D01*
X164031000Y-139295000D01*
X164032000Y-139292000D01*
X164032000Y-139290000D01*
X164033000Y-139287000D01*
X164034000Y-139285000D01*
X164035000Y-139282000D01*
X164037000Y-139280000D01*
X164038000Y-139278000D01*
X164040000Y-139276000D01*
X164041000Y-139274000D01*
X164043000Y-139272000D01*
X164045000Y-139270000D01*
X164047000Y-139268000D01*
X164049000Y-139266000D01*
X164051000Y-139265000D01*
X164053000Y-139263000D01*
X164055000Y-139262000D01*
X164057000Y-139260000D01*
X164060000Y-139259000D01*
X164062000Y-139258000D01*
X164065000Y-139257000D01*
X164067000Y-139257000D01*
X164070000Y-139256000D01*
X164072000Y-139256000D01*
X164075000Y-139255000D01*
X164077000Y-139255000D01*
X164080000Y-139255000D01*
X164720000Y-139255000D01*
X164723000Y-139255000D01*
X164725000Y-139255000D01*
X164728000Y-139256000D01*
G36*
X164728000Y-139256000D02*
G01*
X164730000Y-139256000D01*
X164733000Y-139257000D01*
X164735000Y-139257000D01*
X164738000Y-139258000D01*
X164740000Y-139259000D01*
X164743000Y-139260000D01*
X164745000Y-139262000D01*
X164747000Y-139263000D01*
X164749000Y-139265000D01*
X164751000Y-139266000D01*
X164753000Y-139268000D01*
X164755000Y-139270000D01*
X164757000Y-139272000D01*
X164759000Y-139274000D01*
X164760000Y-139276000D01*
X164762000Y-139278000D01*
X164763000Y-139280000D01*
X164765000Y-139282000D01*
X164766000Y-139285000D01*
X164767000Y-139287000D01*
X164768000Y-139290000D01*
X164768000Y-139292000D01*
X164769000Y-139295000D01*
X164769000Y-139297000D01*
X164770000Y-139300000D01*
X164770000Y-139302000D01*
X164770000Y-139305000D01*
X164770000Y-139595000D01*
X164770000Y-139598000D01*
X164770000Y-139600000D01*
X164769000Y-139603000D01*
X164769000Y-139605000D01*
X164768000Y-139608000D01*
X164768000Y-139610000D01*
X164767000Y-139613000D01*
X164766000Y-139615000D01*
X164765000Y-139618000D01*
X164763000Y-139620000D01*
X164762000Y-139622000D01*
X164760000Y-139624000D01*
X164759000Y-139626000D01*
X164757000Y-139628000D01*
X164755000Y-139630000D01*
X164753000Y-139632000D01*
X164751000Y-139634000D01*
X164749000Y-139635000D01*
X164747000Y-139637000D01*
X164745000Y-139638000D01*
X164743000Y-139640000D01*
X164740000Y-139641000D01*
X164738000Y-139642000D01*
X164735000Y-139643000D01*
X164733000Y-139643000D01*
X164730000Y-139644000D01*
X164728000Y-139644000D01*
X164725000Y-139645000D01*
X164723000Y-139645000D01*
X164720000Y-139645000D01*
X164080000Y-139645000D01*
X164077000Y-139645000D01*
X164075000Y-139645000D01*
X164072000Y-139644000D01*
X164070000Y-139644000D01*
X164067000Y-139643000D01*
X164065000Y-139643000D01*
X164062000Y-139642000D01*
X164060000Y-139641000D01*
X164057000Y-139640000D01*
X164055000Y-139638000D01*
X164053000Y-139637000D01*
X164051000Y-139635000D01*
X164049000Y-139634000D01*
X164047000Y-139632000D01*
X164045000Y-139630000D01*
X164043000Y-139628000D01*
X164041000Y-139626000D01*
X164040000Y-139624000D01*
X164038000Y-139622000D01*
X164037000Y-139620000D01*
X164035000Y-139618000D01*
X164034000Y-139615000D01*
X164033000Y-139613000D01*
X164032000Y-139610000D01*
X164032000Y-139608000D01*
X164031000Y-139605000D01*
X164031000Y-139603000D01*
X164030000Y-139600000D01*
X164030000Y-139598000D01*
X164030000Y-139595000D01*
X164030000Y-139305000D01*
X164030000Y-139302000D01*
X164030000Y-139300000D01*
X164031000Y-139297000D01*
X164031000Y-139295000D01*
X164032000Y-139292000D01*
X164032000Y-139290000D01*
X164033000Y-139287000D01*
X164034000Y-139285000D01*
X164035000Y-139282000D01*
X164037000Y-139280000D01*
X164038000Y-139278000D01*
X164040000Y-139276000D01*
X164041000Y-139274000D01*
X164043000Y-139272000D01*
X164045000Y-139270000D01*
X164047000Y-139268000D01*
X164049000Y-139266000D01*
X164051000Y-139265000D01*
X164053000Y-139263000D01*
X164055000Y-139262000D01*
X164057000Y-139260000D01*
X164060000Y-139259000D01*
X164062000Y-139258000D01*
X164065000Y-139257000D01*
X164067000Y-139257000D01*
X164070000Y-139256000D01*
X164072000Y-139256000D01*
X164075000Y-139255000D01*
X164077000Y-139255000D01*
X164080000Y-139255000D01*
X164720000Y-139255000D01*
X164723000Y-139255000D01*
X164725000Y-139255000D01*
X164728000Y-139256000D01*
G37*
X161903000Y-136931000D02*
X161905000Y-136931000D01*
X161908000Y-136932000D01*
X161910000Y-136932000D01*
X161913000Y-136933000D01*
X161915000Y-136934000D01*
X161918000Y-136935000D01*
X161920000Y-136937000D01*
X161922000Y-136938000D01*
X161924000Y-136940000D01*
X161926000Y-136941000D01*
X161928000Y-136943000D01*
X161930000Y-136945000D01*
X161932000Y-136947000D01*
X161934000Y-136949000D01*
X161935000Y-136951000D01*
X161937000Y-136953000D01*
X161938000Y-136955000D01*
X161940000Y-136957000D01*
X161941000Y-136960000D01*
X161942000Y-136962000D01*
X161943000Y-136965000D01*
X161943000Y-136967000D01*
X161944000Y-136970000D01*
X161944000Y-136972000D01*
X161945000Y-136975000D01*
X161945000Y-136977000D01*
X161945000Y-136980000D01*
X161945000Y-137595000D01*
X161945000Y-137598000D01*
X161945000Y-137600000D01*
X161944000Y-137603000D01*
X161944000Y-137605000D01*
X161943000Y-137608000D01*
X161943000Y-137610000D01*
X161942000Y-137613000D01*
X161941000Y-137615000D01*
X161940000Y-137618000D01*
X161938000Y-137620000D01*
X161937000Y-137622000D01*
X161935000Y-137624000D01*
X161934000Y-137626000D01*
X161932000Y-137628000D01*
X161930000Y-137630000D01*
X161928000Y-137632000D01*
X161926000Y-137634000D01*
X161924000Y-137635000D01*
X161922000Y-137637000D01*
X161920000Y-137638000D01*
X161918000Y-137640000D01*
X161915000Y-137641000D01*
X161913000Y-137642000D01*
X161910000Y-137643000D01*
X161908000Y-137643000D01*
X161905000Y-137644000D01*
X161903000Y-137644000D01*
X161900000Y-137645000D01*
X161898000Y-137645000D01*
X161895000Y-137645000D01*
X161280000Y-137645000D01*
X161277000Y-137645000D01*
X161275000Y-137645000D01*
X161272000Y-137644000D01*
X161270000Y-137644000D01*
X161267000Y-137643000D01*
X161265000Y-137643000D01*
X161262000Y-137642000D01*
X161260000Y-137641000D01*
X161257000Y-137640000D01*
X161255000Y-137638000D01*
X161253000Y-137637000D01*
X161251000Y-137635000D01*
X161249000Y-137634000D01*
X161247000Y-137632000D01*
X161245000Y-137630000D01*
X161243000Y-137628000D01*
X161241000Y-137626000D01*
X161240000Y-137624000D01*
X161238000Y-137622000D01*
X161237000Y-137620000D01*
X161235000Y-137618000D01*
X161234000Y-137615000D01*
X161233000Y-137613000D01*
X161232000Y-137610000D01*
X161232000Y-137608000D01*
X161231000Y-137605000D01*
X161231000Y-137603000D01*
X161230000Y-137600000D01*
X161230000Y-137598000D01*
X161230000Y-137595000D01*
X161230000Y-137380000D01*
X161230000Y-137377000D01*
X161230000Y-137375000D01*
X161231000Y-137372000D01*
X161231000Y-137370000D01*
X161232000Y-137367000D01*
X161232000Y-137365000D01*
X161233000Y-137362000D01*
X161234000Y-137360000D01*
X161235000Y-137357000D01*
X161237000Y-137355000D01*
X161238000Y-137353000D01*
X161240000Y-137351000D01*
X161241000Y-137349000D01*
X161243000Y-137347000D01*
X161245000Y-137345000D01*
X161247000Y-137343000D01*
X161249000Y-137341000D01*
X161251000Y-137340000D01*
X161253000Y-137338000D01*
X161255000Y-137337000D01*
X161257000Y-137335000D01*
X161260000Y-137334000D01*
X161262000Y-137333000D01*
X161265000Y-137332000D01*
X161267000Y-137332000D01*
X161270000Y-137331000D01*
X161272000Y-137331000D01*
X161275000Y-137330000D01*
X161277000Y-137330000D01*
X161280000Y-137330000D01*
X161630000Y-137330000D01*
X161630000Y-136980000D01*
X161630000Y-136977000D01*
X161630000Y-136975000D01*
X161631000Y-136972000D01*
X161631000Y-136970000D01*
X161632000Y-136967000D01*
X161632000Y-136965000D01*
X161633000Y-136962000D01*
X161634000Y-136960000D01*
X161635000Y-136957000D01*
X161637000Y-136955000D01*
X161638000Y-136953000D01*
X161640000Y-136951000D01*
X161641000Y-136949000D01*
X161643000Y-136947000D01*
X161645000Y-136945000D01*
X161647000Y-136943000D01*
X161649000Y-136941000D01*
X161651000Y-136940000D01*
X161653000Y-136938000D01*
X161655000Y-136937000D01*
X161657000Y-136935000D01*
X161660000Y-136934000D01*
X161662000Y-136933000D01*
X161665000Y-136932000D01*
X161667000Y-136932000D01*
X161670000Y-136931000D01*
X161672000Y-136931000D01*
X161675000Y-136930000D01*
X161677000Y-136930000D01*
X161680000Y-136930000D01*
X161895000Y-136930000D01*
X161898000Y-136930000D01*
X161900000Y-136930000D01*
X161903000Y-136931000D01*
G36*
X161903000Y-136931000D02*
G01*
X161905000Y-136931000D01*
X161908000Y-136932000D01*
X161910000Y-136932000D01*
X161913000Y-136933000D01*
X161915000Y-136934000D01*
X161918000Y-136935000D01*
X161920000Y-136937000D01*
X161922000Y-136938000D01*
X161924000Y-136940000D01*
X161926000Y-136941000D01*
X161928000Y-136943000D01*
X161930000Y-136945000D01*
X161932000Y-136947000D01*
X161934000Y-136949000D01*
X161935000Y-136951000D01*
X161937000Y-136953000D01*
X161938000Y-136955000D01*
X161940000Y-136957000D01*
X161941000Y-136960000D01*
X161942000Y-136962000D01*
X161943000Y-136965000D01*
X161943000Y-136967000D01*
X161944000Y-136970000D01*
X161944000Y-136972000D01*
X161945000Y-136975000D01*
X161945000Y-136977000D01*
X161945000Y-136980000D01*
X161945000Y-137595000D01*
X161945000Y-137598000D01*
X161945000Y-137600000D01*
X161944000Y-137603000D01*
X161944000Y-137605000D01*
X161943000Y-137608000D01*
X161943000Y-137610000D01*
X161942000Y-137613000D01*
X161941000Y-137615000D01*
X161940000Y-137618000D01*
X161938000Y-137620000D01*
X161937000Y-137622000D01*
X161935000Y-137624000D01*
X161934000Y-137626000D01*
X161932000Y-137628000D01*
X161930000Y-137630000D01*
X161928000Y-137632000D01*
X161926000Y-137634000D01*
X161924000Y-137635000D01*
X161922000Y-137637000D01*
X161920000Y-137638000D01*
X161918000Y-137640000D01*
X161915000Y-137641000D01*
X161913000Y-137642000D01*
X161910000Y-137643000D01*
X161908000Y-137643000D01*
X161905000Y-137644000D01*
X161903000Y-137644000D01*
X161900000Y-137645000D01*
X161898000Y-137645000D01*
X161895000Y-137645000D01*
X161280000Y-137645000D01*
X161277000Y-137645000D01*
X161275000Y-137645000D01*
X161272000Y-137644000D01*
X161270000Y-137644000D01*
X161267000Y-137643000D01*
X161265000Y-137643000D01*
X161262000Y-137642000D01*
X161260000Y-137641000D01*
X161257000Y-137640000D01*
X161255000Y-137638000D01*
X161253000Y-137637000D01*
X161251000Y-137635000D01*
X161249000Y-137634000D01*
X161247000Y-137632000D01*
X161245000Y-137630000D01*
X161243000Y-137628000D01*
X161241000Y-137626000D01*
X161240000Y-137624000D01*
X161238000Y-137622000D01*
X161237000Y-137620000D01*
X161235000Y-137618000D01*
X161234000Y-137615000D01*
X161233000Y-137613000D01*
X161232000Y-137610000D01*
X161232000Y-137608000D01*
X161231000Y-137605000D01*
X161231000Y-137603000D01*
X161230000Y-137600000D01*
X161230000Y-137598000D01*
X161230000Y-137595000D01*
X161230000Y-137380000D01*
X161230000Y-137377000D01*
X161230000Y-137375000D01*
X161231000Y-137372000D01*
X161231000Y-137370000D01*
X161232000Y-137367000D01*
X161232000Y-137365000D01*
X161233000Y-137362000D01*
X161234000Y-137360000D01*
X161235000Y-137357000D01*
X161237000Y-137355000D01*
X161238000Y-137353000D01*
X161240000Y-137351000D01*
X161241000Y-137349000D01*
X161243000Y-137347000D01*
X161245000Y-137345000D01*
X161247000Y-137343000D01*
X161249000Y-137341000D01*
X161251000Y-137340000D01*
X161253000Y-137338000D01*
X161255000Y-137337000D01*
X161257000Y-137335000D01*
X161260000Y-137334000D01*
X161262000Y-137333000D01*
X161265000Y-137332000D01*
X161267000Y-137332000D01*
X161270000Y-137331000D01*
X161272000Y-137331000D01*
X161275000Y-137330000D01*
X161277000Y-137330000D01*
X161280000Y-137330000D01*
X161630000Y-137330000D01*
X161630000Y-136980000D01*
X161630000Y-136977000D01*
X161630000Y-136975000D01*
X161631000Y-136972000D01*
X161631000Y-136970000D01*
X161632000Y-136967000D01*
X161632000Y-136965000D01*
X161633000Y-136962000D01*
X161634000Y-136960000D01*
X161635000Y-136957000D01*
X161637000Y-136955000D01*
X161638000Y-136953000D01*
X161640000Y-136951000D01*
X161641000Y-136949000D01*
X161643000Y-136947000D01*
X161645000Y-136945000D01*
X161647000Y-136943000D01*
X161649000Y-136941000D01*
X161651000Y-136940000D01*
X161653000Y-136938000D01*
X161655000Y-136937000D01*
X161657000Y-136935000D01*
X161660000Y-136934000D01*
X161662000Y-136933000D01*
X161665000Y-136932000D01*
X161667000Y-136932000D01*
X161670000Y-136931000D01*
X161672000Y-136931000D01*
X161675000Y-136930000D01*
X161677000Y-136930000D01*
X161680000Y-136930000D01*
X161895000Y-136930000D01*
X161898000Y-136930000D01*
X161900000Y-136930000D01*
X161903000Y-136931000D01*
G37*
X161903000Y-139756000D02*
X161905000Y-139756000D01*
X161908000Y-139757000D01*
X161910000Y-139757000D01*
X161913000Y-139758000D01*
X161915000Y-139759000D01*
X161918000Y-139760000D01*
X161920000Y-139762000D01*
X161922000Y-139763000D01*
X161924000Y-139765000D01*
X161926000Y-139766000D01*
X161928000Y-139768000D01*
X161930000Y-139770000D01*
X161932000Y-139772000D01*
X161934000Y-139774000D01*
X161935000Y-139776000D01*
X161937000Y-139778000D01*
X161938000Y-139780000D01*
X161940000Y-139782000D01*
X161941000Y-139785000D01*
X161942000Y-139787000D01*
X161943000Y-139790000D01*
X161943000Y-139792000D01*
X161944000Y-139795000D01*
X161944000Y-139797000D01*
X161945000Y-139800000D01*
X161945000Y-139802000D01*
X161945000Y-139805000D01*
X161945000Y-140420000D01*
X161945000Y-140423000D01*
X161945000Y-140425000D01*
X161944000Y-140428000D01*
X161944000Y-140430000D01*
X161943000Y-140433000D01*
X161943000Y-140435000D01*
X161942000Y-140438000D01*
X161941000Y-140440000D01*
X161940000Y-140443000D01*
X161938000Y-140445000D01*
X161937000Y-140447000D01*
X161935000Y-140449000D01*
X161934000Y-140451000D01*
X161932000Y-140453000D01*
X161930000Y-140455000D01*
X161928000Y-140457000D01*
X161926000Y-140459000D01*
X161924000Y-140460000D01*
X161922000Y-140462000D01*
X161920000Y-140463000D01*
X161918000Y-140465000D01*
X161915000Y-140466000D01*
X161913000Y-140467000D01*
X161910000Y-140468000D01*
X161908000Y-140468000D01*
X161905000Y-140469000D01*
X161903000Y-140469000D01*
X161900000Y-140470000D01*
X161898000Y-140470000D01*
X161895000Y-140470000D01*
X161680000Y-140470000D01*
X161677000Y-140470000D01*
X161675000Y-140470000D01*
X161672000Y-140469000D01*
X161670000Y-140469000D01*
X161667000Y-140468000D01*
X161665000Y-140468000D01*
X161662000Y-140467000D01*
X161660000Y-140466000D01*
X161657000Y-140465000D01*
X161655000Y-140463000D01*
X161653000Y-140462000D01*
X161651000Y-140460000D01*
X161649000Y-140459000D01*
X161647000Y-140457000D01*
X161645000Y-140455000D01*
X161643000Y-140453000D01*
X161641000Y-140451000D01*
X161640000Y-140449000D01*
X161638000Y-140447000D01*
X161637000Y-140445000D01*
X161635000Y-140443000D01*
X161634000Y-140440000D01*
X161633000Y-140438000D01*
X161632000Y-140435000D01*
X161632000Y-140433000D01*
X161631000Y-140430000D01*
X161631000Y-140428000D01*
X161630000Y-140425000D01*
X161630000Y-140423000D01*
X161630000Y-140420000D01*
X161630000Y-140070000D01*
X161280000Y-140070000D01*
X161277000Y-140070000D01*
X161275000Y-140070000D01*
X161272000Y-140069000D01*
X161270000Y-140069000D01*
X161267000Y-140068000D01*
X161265000Y-140068000D01*
X161262000Y-140067000D01*
X161260000Y-140066000D01*
X161257000Y-140065000D01*
X161255000Y-140063000D01*
X161253000Y-140062000D01*
X161251000Y-140060000D01*
X161249000Y-140059000D01*
X161247000Y-140057000D01*
X161245000Y-140055000D01*
X161243000Y-140053000D01*
X161241000Y-140051000D01*
X161240000Y-140049000D01*
X161238000Y-140047000D01*
X161237000Y-140045000D01*
X161235000Y-140043000D01*
X161234000Y-140040000D01*
X161233000Y-140038000D01*
X161232000Y-140035000D01*
X161232000Y-140033000D01*
X161231000Y-140030000D01*
X161231000Y-140028000D01*
X161230000Y-140025000D01*
X161230000Y-140023000D01*
X161230000Y-140020000D01*
X161230000Y-139805000D01*
X161230000Y-139802000D01*
X161230000Y-139800000D01*
X161231000Y-139797000D01*
X161231000Y-139795000D01*
X161232000Y-139792000D01*
X161232000Y-139790000D01*
X161233000Y-139787000D01*
X161234000Y-139785000D01*
X161235000Y-139782000D01*
X161237000Y-139780000D01*
X161238000Y-139778000D01*
X161240000Y-139776000D01*
X161241000Y-139774000D01*
X161243000Y-139772000D01*
X161245000Y-139770000D01*
X161247000Y-139768000D01*
X161249000Y-139766000D01*
X161251000Y-139765000D01*
X161253000Y-139763000D01*
X161255000Y-139762000D01*
X161257000Y-139760000D01*
X161260000Y-139759000D01*
X161262000Y-139758000D01*
X161265000Y-139757000D01*
X161267000Y-139757000D01*
X161270000Y-139756000D01*
X161272000Y-139756000D01*
X161275000Y-139755000D01*
X161277000Y-139755000D01*
X161280000Y-139755000D01*
X161895000Y-139755000D01*
X161898000Y-139755000D01*
X161900000Y-139755000D01*
X161903000Y-139756000D01*
G36*
X161903000Y-139756000D02*
G01*
X161905000Y-139756000D01*
X161908000Y-139757000D01*
X161910000Y-139757000D01*
X161913000Y-139758000D01*
X161915000Y-139759000D01*
X161918000Y-139760000D01*
X161920000Y-139762000D01*
X161922000Y-139763000D01*
X161924000Y-139765000D01*
X161926000Y-139766000D01*
X161928000Y-139768000D01*
X161930000Y-139770000D01*
X161932000Y-139772000D01*
X161934000Y-139774000D01*
X161935000Y-139776000D01*
X161937000Y-139778000D01*
X161938000Y-139780000D01*
X161940000Y-139782000D01*
X161941000Y-139785000D01*
X161942000Y-139787000D01*
X161943000Y-139790000D01*
X161943000Y-139792000D01*
X161944000Y-139795000D01*
X161944000Y-139797000D01*
X161945000Y-139800000D01*
X161945000Y-139802000D01*
X161945000Y-139805000D01*
X161945000Y-140420000D01*
X161945000Y-140423000D01*
X161945000Y-140425000D01*
X161944000Y-140428000D01*
X161944000Y-140430000D01*
X161943000Y-140433000D01*
X161943000Y-140435000D01*
X161942000Y-140438000D01*
X161941000Y-140440000D01*
X161940000Y-140443000D01*
X161938000Y-140445000D01*
X161937000Y-140447000D01*
X161935000Y-140449000D01*
X161934000Y-140451000D01*
X161932000Y-140453000D01*
X161930000Y-140455000D01*
X161928000Y-140457000D01*
X161926000Y-140459000D01*
X161924000Y-140460000D01*
X161922000Y-140462000D01*
X161920000Y-140463000D01*
X161918000Y-140465000D01*
X161915000Y-140466000D01*
X161913000Y-140467000D01*
X161910000Y-140468000D01*
X161908000Y-140468000D01*
X161905000Y-140469000D01*
X161903000Y-140469000D01*
X161900000Y-140470000D01*
X161898000Y-140470000D01*
X161895000Y-140470000D01*
X161680000Y-140470000D01*
X161677000Y-140470000D01*
X161675000Y-140470000D01*
X161672000Y-140469000D01*
X161670000Y-140469000D01*
X161667000Y-140468000D01*
X161665000Y-140468000D01*
X161662000Y-140467000D01*
X161660000Y-140466000D01*
X161657000Y-140465000D01*
X161655000Y-140463000D01*
X161653000Y-140462000D01*
X161651000Y-140460000D01*
X161649000Y-140459000D01*
X161647000Y-140457000D01*
X161645000Y-140455000D01*
X161643000Y-140453000D01*
X161641000Y-140451000D01*
X161640000Y-140449000D01*
X161638000Y-140447000D01*
X161637000Y-140445000D01*
X161635000Y-140443000D01*
X161634000Y-140440000D01*
X161633000Y-140438000D01*
X161632000Y-140435000D01*
X161632000Y-140433000D01*
X161631000Y-140430000D01*
X161631000Y-140428000D01*
X161630000Y-140425000D01*
X161630000Y-140423000D01*
X161630000Y-140420000D01*
X161630000Y-140070000D01*
X161280000Y-140070000D01*
X161277000Y-140070000D01*
X161275000Y-140070000D01*
X161272000Y-140069000D01*
X161270000Y-140069000D01*
X161267000Y-140068000D01*
X161265000Y-140068000D01*
X161262000Y-140067000D01*
X161260000Y-140066000D01*
X161257000Y-140065000D01*
X161255000Y-140063000D01*
X161253000Y-140062000D01*
X161251000Y-140060000D01*
X161249000Y-140059000D01*
X161247000Y-140057000D01*
X161245000Y-140055000D01*
X161243000Y-140053000D01*
X161241000Y-140051000D01*
X161240000Y-140049000D01*
X161238000Y-140047000D01*
X161237000Y-140045000D01*
X161235000Y-140043000D01*
X161234000Y-140040000D01*
X161233000Y-140038000D01*
X161232000Y-140035000D01*
X161232000Y-140033000D01*
X161231000Y-140030000D01*
X161231000Y-140028000D01*
X161230000Y-140025000D01*
X161230000Y-140023000D01*
X161230000Y-140020000D01*
X161230000Y-139805000D01*
X161230000Y-139802000D01*
X161230000Y-139800000D01*
X161231000Y-139797000D01*
X161231000Y-139795000D01*
X161232000Y-139792000D01*
X161232000Y-139790000D01*
X161233000Y-139787000D01*
X161234000Y-139785000D01*
X161235000Y-139782000D01*
X161237000Y-139780000D01*
X161238000Y-139778000D01*
X161240000Y-139776000D01*
X161241000Y-139774000D01*
X161243000Y-139772000D01*
X161245000Y-139770000D01*
X161247000Y-139768000D01*
X161249000Y-139766000D01*
X161251000Y-139765000D01*
X161253000Y-139763000D01*
X161255000Y-139762000D01*
X161257000Y-139760000D01*
X161260000Y-139759000D01*
X161262000Y-139758000D01*
X161265000Y-139757000D01*
X161267000Y-139757000D01*
X161270000Y-139756000D01*
X161272000Y-139756000D01*
X161275000Y-139755000D01*
X161277000Y-139755000D01*
X161280000Y-139755000D01*
X161895000Y-139755000D01*
X161898000Y-139755000D01*
X161900000Y-139755000D01*
X161903000Y-139756000D01*
G37*
X164328000Y-136931000D02*
X164330000Y-136931000D01*
X164333000Y-136932000D01*
X164335000Y-136932000D01*
X164338000Y-136933000D01*
X164340000Y-136934000D01*
X164343000Y-136935000D01*
X164345000Y-136937000D01*
X164347000Y-136938000D01*
X164349000Y-136940000D01*
X164351000Y-136941000D01*
X164353000Y-136943000D01*
X164355000Y-136945000D01*
X164357000Y-136947000D01*
X164359000Y-136949000D01*
X164360000Y-136951000D01*
X164362000Y-136953000D01*
X164363000Y-136955000D01*
X164365000Y-136957000D01*
X164366000Y-136960000D01*
X164367000Y-136962000D01*
X164368000Y-136965000D01*
X164368000Y-136967000D01*
X164369000Y-136970000D01*
X164369000Y-136972000D01*
X164370000Y-136975000D01*
X164370000Y-136977000D01*
X164370000Y-136980000D01*
X164370000Y-137330000D01*
X164720000Y-137330000D01*
X164723000Y-137330000D01*
X164725000Y-137330000D01*
X164728000Y-137331000D01*
X164730000Y-137331000D01*
X164733000Y-137332000D01*
X164735000Y-137332000D01*
X164738000Y-137333000D01*
X164740000Y-137334000D01*
X164743000Y-137335000D01*
X164745000Y-137337000D01*
X164747000Y-137338000D01*
X164749000Y-137340000D01*
X164751000Y-137341000D01*
X164753000Y-137343000D01*
X164755000Y-137345000D01*
X164757000Y-137347000D01*
X164759000Y-137349000D01*
X164760000Y-137351000D01*
X164762000Y-137353000D01*
X164763000Y-137355000D01*
X164765000Y-137357000D01*
X164766000Y-137360000D01*
X164767000Y-137362000D01*
X164768000Y-137365000D01*
X164768000Y-137367000D01*
X164769000Y-137370000D01*
X164769000Y-137372000D01*
X164770000Y-137375000D01*
X164770000Y-137377000D01*
X164770000Y-137380000D01*
X164770000Y-137595000D01*
X164770000Y-137598000D01*
X164770000Y-137600000D01*
X164769000Y-137603000D01*
X164769000Y-137605000D01*
X164768000Y-137608000D01*
X164768000Y-137610000D01*
X164767000Y-137613000D01*
X164766000Y-137615000D01*
X164765000Y-137618000D01*
X164763000Y-137620000D01*
X164762000Y-137622000D01*
X164760000Y-137624000D01*
X164759000Y-137626000D01*
X164757000Y-137628000D01*
X164755000Y-137630000D01*
X164753000Y-137632000D01*
X164751000Y-137634000D01*
X164749000Y-137635000D01*
X164747000Y-137637000D01*
X164745000Y-137638000D01*
X164743000Y-137640000D01*
X164740000Y-137641000D01*
X164738000Y-137642000D01*
X164735000Y-137643000D01*
X164733000Y-137643000D01*
X164730000Y-137644000D01*
X164728000Y-137644000D01*
X164725000Y-137645000D01*
X164723000Y-137645000D01*
X164720000Y-137645000D01*
X164105000Y-137645000D01*
X164102000Y-137645000D01*
X164100000Y-137645000D01*
X164097000Y-137644000D01*
X164095000Y-137644000D01*
X164092000Y-137643000D01*
X164090000Y-137643000D01*
X164087000Y-137642000D01*
X164085000Y-137641000D01*
X164082000Y-137640000D01*
X164080000Y-137638000D01*
X164078000Y-137637000D01*
X164076000Y-137635000D01*
X164074000Y-137634000D01*
X164072000Y-137632000D01*
X164070000Y-137630000D01*
X164068000Y-137628000D01*
X164066000Y-137626000D01*
X164065000Y-137624000D01*
X164063000Y-137622000D01*
X164062000Y-137620000D01*
X164060000Y-137618000D01*
X164059000Y-137615000D01*
X164058000Y-137613000D01*
X164057000Y-137610000D01*
X164057000Y-137608000D01*
X164056000Y-137605000D01*
X164056000Y-137603000D01*
X164055000Y-137600000D01*
X164055000Y-137598000D01*
X164055000Y-137595000D01*
X164055000Y-136980000D01*
X164055000Y-136977000D01*
X164055000Y-136975000D01*
X164056000Y-136972000D01*
X164056000Y-136970000D01*
X164057000Y-136967000D01*
X164057000Y-136965000D01*
X164058000Y-136962000D01*
X164059000Y-136960000D01*
X164060000Y-136957000D01*
X164062000Y-136955000D01*
X164063000Y-136953000D01*
X164065000Y-136951000D01*
X164066000Y-136949000D01*
X164068000Y-136947000D01*
X164070000Y-136945000D01*
X164072000Y-136943000D01*
X164074000Y-136941000D01*
X164076000Y-136940000D01*
X164078000Y-136938000D01*
X164080000Y-136937000D01*
X164082000Y-136935000D01*
X164085000Y-136934000D01*
X164087000Y-136933000D01*
X164090000Y-136932000D01*
X164092000Y-136932000D01*
X164095000Y-136931000D01*
X164097000Y-136931000D01*
X164100000Y-136930000D01*
X164102000Y-136930000D01*
X164105000Y-136930000D01*
X164320000Y-136930000D01*
X164323000Y-136930000D01*
X164325000Y-136930000D01*
X164328000Y-136931000D01*
G36*
X164328000Y-136931000D02*
G01*
X164330000Y-136931000D01*
X164333000Y-136932000D01*
X164335000Y-136932000D01*
X164338000Y-136933000D01*
X164340000Y-136934000D01*
X164343000Y-136935000D01*
X164345000Y-136937000D01*
X164347000Y-136938000D01*
X164349000Y-136940000D01*
X164351000Y-136941000D01*
X164353000Y-136943000D01*
X164355000Y-136945000D01*
X164357000Y-136947000D01*
X164359000Y-136949000D01*
X164360000Y-136951000D01*
X164362000Y-136953000D01*
X164363000Y-136955000D01*
X164365000Y-136957000D01*
X164366000Y-136960000D01*
X164367000Y-136962000D01*
X164368000Y-136965000D01*
X164368000Y-136967000D01*
X164369000Y-136970000D01*
X164369000Y-136972000D01*
X164370000Y-136975000D01*
X164370000Y-136977000D01*
X164370000Y-136980000D01*
X164370000Y-137330000D01*
X164720000Y-137330000D01*
X164723000Y-137330000D01*
X164725000Y-137330000D01*
X164728000Y-137331000D01*
X164730000Y-137331000D01*
X164733000Y-137332000D01*
X164735000Y-137332000D01*
X164738000Y-137333000D01*
X164740000Y-137334000D01*
X164743000Y-137335000D01*
X164745000Y-137337000D01*
X164747000Y-137338000D01*
X164749000Y-137340000D01*
X164751000Y-137341000D01*
X164753000Y-137343000D01*
X164755000Y-137345000D01*
X164757000Y-137347000D01*
X164759000Y-137349000D01*
X164760000Y-137351000D01*
X164762000Y-137353000D01*
X164763000Y-137355000D01*
X164765000Y-137357000D01*
X164766000Y-137360000D01*
X164767000Y-137362000D01*
X164768000Y-137365000D01*
X164768000Y-137367000D01*
X164769000Y-137370000D01*
X164769000Y-137372000D01*
X164770000Y-137375000D01*
X164770000Y-137377000D01*
X164770000Y-137380000D01*
X164770000Y-137595000D01*
X164770000Y-137598000D01*
X164770000Y-137600000D01*
X164769000Y-137603000D01*
X164769000Y-137605000D01*
X164768000Y-137608000D01*
X164768000Y-137610000D01*
X164767000Y-137613000D01*
X164766000Y-137615000D01*
X164765000Y-137618000D01*
X164763000Y-137620000D01*
X164762000Y-137622000D01*
X164760000Y-137624000D01*
X164759000Y-137626000D01*
X164757000Y-137628000D01*
X164755000Y-137630000D01*
X164753000Y-137632000D01*
X164751000Y-137634000D01*
X164749000Y-137635000D01*
X164747000Y-137637000D01*
X164745000Y-137638000D01*
X164743000Y-137640000D01*
X164740000Y-137641000D01*
X164738000Y-137642000D01*
X164735000Y-137643000D01*
X164733000Y-137643000D01*
X164730000Y-137644000D01*
X164728000Y-137644000D01*
X164725000Y-137645000D01*
X164723000Y-137645000D01*
X164720000Y-137645000D01*
X164105000Y-137645000D01*
X164102000Y-137645000D01*
X164100000Y-137645000D01*
X164097000Y-137644000D01*
X164095000Y-137644000D01*
X164092000Y-137643000D01*
X164090000Y-137643000D01*
X164087000Y-137642000D01*
X164085000Y-137641000D01*
X164082000Y-137640000D01*
X164080000Y-137638000D01*
X164078000Y-137637000D01*
X164076000Y-137635000D01*
X164074000Y-137634000D01*
X164072000Y-137632000D01*
X164070000Y-137630000D01*
X164068000Y-137628000D01*
X164066000Y-137626000D01*
X164065000Y-137624000D01*
X164063000Y-137622000D01*
X164062000Y-137620000D01*
X164060000Y-137618000D01*
X164059000Y-137615000D01*
X164058000Y-137613000D01*
X164057000Y-137610000D01*
X164057000Y-137608000D01*
X164056000Y-137605000D01*
X164056000Y-137603000D01*
X164055000Y-137600000D01*
X164055000Y-137598000D01*
X164055000Y-137595000D01*
X164055000Y-136980000D01*
X164055000Y-136977000D01*
X164055000Y-136975000D01*
X164056000Y-136972000D01*
X164056000Y-136970000D01*
X164057000Y-136967000D01*
X164057000Y-136965000D01*
X164058000Y-136962000D01*
X164059000Y-136960000D01*
X164060000Y-136957000D01*
X164062000Y-136955000D01*
X164063000Y-136953000D01*
X164065000Y-136951000D01*
X164066000Y-136949000D01*
X164068000Y-136947000D01*
X164070000Y-136945000D01*
X164072000Y-136943000D01*
X164074000Y-136941000D01*
X164076000Y-136940000D01*
X164078000Y-136938000D01*
X164080000Y-136937000D01*
X164082000Y-136935000D01*
X164085000Y-136934000D01*
X164087000Y-136933000D01*
X164090000Y-136932000D01*
X164092000Y-136932000D01*
X164095000Y-136931000D01*
X164097000Y-136931000D01*
X164100000Y-136930000D01*
X164102000Y-136930000D01*
X164105000Y-136930000D01*
X164320000Y-136930000D01*
X164323000Y-136930000D01*
X164325000Y-136930000D01*
X164328000Y-136931000D01*
G37*
X164728000Y-139756000D02*
X164730000Y-139756000D01*
X164733000Y-139757000D01*
X164735000Y-139757000D01*
X164738000Y-139758000D01*
X164740000Y-139759000D01*
X164743000Y-139760000D01*
X164745000Y-139762000D01*
X164747000Y-139763000D01*
X164749000Y-139765000D01*
X164751000Y-139766000D01*
X164753000Y-139768000D01*
X164755000Y-139770000D01*
X164757000Y-139772000D01*
X164759000Y-139774000D01*
X164760000Y-139776000D01*
X164762000Y-139778000D01*
X164763000Y-139780000D01*
X164765000Y-139782000D01*
X164766000Y-139785000D01*
X164767000Y-139787000D01*
X164768000Y-139790000D01*
X164768000Y-139792000D01*
X164769000Y-139795000D01*
X164769000Y-139797000D01*
X164770000Y-139800000D01*
X164770000Y-139802000D01*
X164770000Y-139805000D01*
X164770000Y-140020000D01*
X164770000Y-140023000D01*
X164770000Y-140025000D01*
X164769000Y-140028000D01*
X164769000Y-140030000D01*
X164768000Y-140033000D01*
X164768000Y-140035000D01*
X164767000Y-140038000D01*
X164766000Y-140040000D01*
X164765000Y-140043000D01*
X164763000Y-140045000D01*
X164762000Y-140047000D01*
X164760000Y-140049000D01*
X164759000Y-140051000D01*
X164757000Y-140053000D01*
X164755000Y-140055000D01*
X164753000Y-140057000D01*
X164751000Y-140059000D01*
X164749000Y-140060000D01*
X164747000Y-140062000D01*
X164745000Y-140063000D01*
X164743000Y-140065000D01*
X164740000Y-140066000D01*
X164738000Y-140067000D01*
X164735000Y-140068000D01*
X164733000Y-140068000D01*
X164730000Y-140069000D01*
X164728000Y-140069000D01*
X164725000Y-140070000D01*
X164723000Y-140070000D01*
X164720000Y-140070000D01*
X164370000Y-140070000D01*
X164370000Y-140420000D01*
X164370000Y-140423000D01*
X164370000Y-140425000D01*
X164369000Y-140428000D01*
X164369000Y-140430000D01*
X164368000Y-140433000D01*
X164368000Y-140435000D01*
X164367000Y-140438000D01*
X164366000Y-140440000D01*
X164365000Y-140443000D01*
X164363000Y-140445000D01*
X164362000Y-140447000D01*
X164360000Y-140449000D01*
X164359000Y-140451000D01*
X164357000Y-140453000D01*
X164355000Y-140455000D01*
X164353000Y-140457000D01*
X164351000Y-140459000D01*
X164349000Y-140460000D01*
X164347000Y-140462000D01*
X164345000Y-140463000D01*
X164343000Y-140465000D01*
X164340000Y-140466000D01*
X164338000Y-140467000D01*
X164335000Y-140468000D01*
X164333000Y-140468000D01*
X164330000Y-140469000D01*
X164328000Y-140469000D01*
X164325000Y-140470000D01*
X164323000Y-140470000D01*
X164320000Y-140470000D01*
X164105000Y-140470000D01*
X164102000Y-140470000D01*
X164100000Y-140470000D01*
X164097000Y-140469000D01*
X164095000Y-140469000D01*
X164092000Y-140468000D01*
X164090000Y-140468000D01*
X164087000Y-140467000D01*
X164085000Y-140466000D01*
X164082000Y-140465000D01*
X164080000Y-140463000D01*
X164078000Y-140462000D01*
X164076000Y-140460000D01*
X164074000Y-140459000D01*
X164072000Y-140457000D01*
X164070000Y-140455000D01*
X164068000Y-140453000D01*
X164066000Y-140451000D01*
X164065000Y-140449000D01*
X164063000Y-140447000D01*
X164062000Y-140445000D01*
X164060000Y-140443000D01*
X164059000Y-140440000D01*
X164058000Y-140438000D01*
X164057000Y-140435000D01*
X164057000Y-140433000D01*
X164056000Y-140430000D01*
X164056000Y-140428000D01*
X164055000Y-140425000D01*
X164055000Y-140423000D01*
X164055000Y-140420000D01*
X164055000Y-139805000D01*
X164055000Y-139802000D01*
X164055000Y-139800000D01*
X164056000Y-139797000D01*
X164056000Y-139795000D01*
X164057000Y-139792000D01*
X164057000Y-139790000D01*
X164058000Y-139787000D01*
X164059000Y-139785000D01*
X164060000Y-139782000D01*
X164062000Y-139780000D01*
X164063000Y-139778000D01*
X164065000Y-139776000D01*
X164066000Y-139774000D01*
X164068000Y-139772000D01*
X164070000Y-139770000D01*
X164072000Y-139768000D01*
X164074000Y-139766000D01*
X164076000Y-139765000D01*
X164078000Y-139763000D01*
X164080000Y-139762000D01*
X164082000Y-139760000D01*
X164085000Y-139759000D01*
X164087000Y-139758000D01*
X164090000Y-139757000D01*
X164092000Y-139757000D01*
X164095000Y-139756000D01*
X164097000Y-139756000D01*
X164100000Y-139755000D01*
X164102000Y-139755000D01*
X164105000Y-139755000D01*
X164720000Y-139755000D01*
X164723000Y-139755000D01*
X164725000Y-139755000D01*
X164728000Y-139756000D01*
G36*
X164728000Y-139756000D02*
G01*
X164730000Y-139756000D01*
X164733000Y-139757000D01*
X164735000Y-139757000D01*
X164738000Y-139758000D01*
X164740000Y-139759000D01*
X164743000Y-139760000D01*
X164745000Y-139762000D01*
X164747000Y-139763000D01*
X164749000Y-139765000D01*
X164751000Y-139766000D01*
X164753000Y-139768000D01*
X164755000Y-139770000D01*
X164757000Y-139772000D01*
X164759000Y-139774000D01*
X164760000Y-139776000D01*
X164762000Y-139778000D01*
X164763000Y-139780000D01*
X164765000Y-139782000D01*
X164766000Y-139785000D01*
X164767000Y-139787000D01*
X164768000Y-139790000D01*
X164768000Y-139792000D01*
X164769000Y-139795000D01*
X164769000Y-139797000D01*
X164770000Y-139800000D01*
X164770000Y-139802000D01*
X164770000Y-139805000D01*
X164770000Y-140020000D01*
X164770000Y-140023000D01*
X164770000Y-140025000D01*
X164769000Y-140028000D01*
X164769000Y-140030000D01*
X164768000Y-140033000D01*
X164768000Y-140035000D01*
X164767000Y-140038000D01*
X164766000Y-140040000D01*
X164765000Y-140043000D01*
X164763000Y-140045000D01*
X164762000Y-140047000D01*
X164760000Y-140049000D01*
X164759000Y-140051000D01*
X164757000Y-140053000D01*
X164755000Y-140055000D01*
X164753000Y-140057000D01*
X164751000Y-140059000D01*
X164749000Y-140060000D01*
X164747000Y-140062000D01*
X164745000Y-140063000D01*
X164743000Y-140065000D01*
X164740000Y-140066000D01*
X164738000Y-140067000D01*
X164735000Y-140068000D01*
X164733000Y-140068000D01*
X164730000Y-140069000D01*
X164728000Y-140069000D01*
X164725000Y-140070000D01*
X164723000Y-140070000D01*
X164720000Y-140070000D01*
X164370000Y-140070000D01*
X164370000Y-140420000D01*
X164370000Y-140423000D01*
X164370000Y-140425000D01*
X164369000Y-140428000D01*
X164369000Y-140430000D01*
X164368000Y-140433000D01*
X164368000Y-140435000D01*
X164367000Y-140438000D01*
X164366000Y-140440000D01*
X164365000Y-140443000D01*
X164363000Y-140445000D01*
X164362000Y-140447000D01*
X164360000Y-140449000D01*
X164359000Y-140451000D01*
X164357000Y-140453000D01*
X164355000Y-140455000D01*
X164353000Y-140457000D01*
X164351000Y-140459000D01*
X164349000Y-140460000D01*
X164347000Y-140462000D01*
X164345000Y-140463000D01*
X164343000Y-140465000D01*
X164340000Y-140466000D01*
X164338000Y-140467000D01*
X164335000Y-140468000D01*
X164333000Y-140468000D01*
X164330000Y-140469000D01*
X164328000Y-140469000D01*
X164325000Y-140470000D01*
X164323000Y-140470000D01*
X164320000Y-140470000D01*
X164105000Y-140470000D01*
X164102000Y-140470000D01*
X164100000Y-140470000D01*
X164097000Y-140469000D01*
X164095000Y-140469000D01*
X164092000Y-140468000D01*
X164090000Y-140468000D01*
X164087000Y-140467000D01*
X164085000Y-140466000D01*
X164082000Y-140465000D01*
X164080000Y-140463000D01*
X164078000Y-140462000D01*
X164076000Y-140460000D01*
X164074000Y-140459000D01*
X164072000Y-140457000D01*
X164070000Y-140455000D01*
X164068000Y-140453000D01*
X164066000Y-140451000D01*
X164065000Y-140449000D01*
X164063000Y-140447000D01*
X164062000Y-140445000D01*
X164060000Y-140443000D01*
X164059000Y-140440000D01*
X164058000Y-140438000D01*
X164057000Y-140435000D01*
X164057000Y-140433000D01*
X164056000Y-140430000D01*
X164056000Y-140428000D01*
X164055000Y-140425000D01*
X164055000Y-140423000D01*
X164055000Y-140420000D01*
X164055000Y-139805000D01*
X164055000Y-139802000D01*
X164055000Y-139800000D01*
X164056000Y-139797000D01*
X164056000Y-139795000D01*
X164057000Y-139792000D01*
X164057000Y-139790000D01*
X164058000Y-139787000D01*
X164059000Y-139785000D01*
X164060000Y-139782000D01*
X164062000Y-139780000D01*
X164063000Y-139778000D01*
X164065000Y-139776000D01*
X164066000Y-139774000D01*
X164068000Y-139772000D01*
X164070000Y-139770000D01*
X164072000Y-139768000D01*
X164074000Y-139766000D01*
X164076000Y-139765000D01*
X164078000Y-139763000D01*
X164080000Y-139762000D01*
X164082000Y-139760000D01*
X164085000Y-139759000D01*
X164087000Y-139758000D01*
X164090000Y-139757000D01*
X164092000Y-139757000D01*
X164095000Y-139756000D01*
X164097000Y-139756000D01*
X164100000Y-139755000D01*
X164102000Y-139755000D01*
X164105000Y-139755000D01*
X164720000Y-139755000D01*
X164723000Y-139755000D01*
X164725000Y-139755000D01*
X164728000Y-139756000D01*
G37*
%TD*%
D11*
%TO.C,R10*%
X152700000Y-102510000D03*
X152700000Y-101490000D03*
%TD*%
D12*
%TO.C,D2*%
X156237500Y-104500000D03*
X154662500Y-104500000D03*
%TD*%
%TO.C,D1*%
X152587500Y-104500000D03*
X151012500Y-104500000D03*
%TD*%
D11*
%TO.C,R1*%
X154900000Y-102510000D03*
X154900000Y-101490000D03*
%TD*%
D13*
%TO.C,U5*%
X155350000Y-97950000D03*
X154700000Y-97950000D03*
X154050000Y-97950000D03*
X154050000Y-99850000D03*
X155350000Y-99850000D03*
%TD*%
D14*
%TO.C,H2*%
X144974874Y-156225126D03*
%TD*%
%TO.C,H3*%
X144476540Y-71901700D03*
%TD*%
%TO.C,H6*%
X239800000Y-72400000D03*
%TD*%
%TO.C,H8*%
X206500000Y-149700000D03*
%TD*%
D15*
%TO.C,R5*%
X195000000Y-81500000D03*
X197000000Y-81500000D03*
%TD*%
D16*
%TO.C,U8*%
X193550000Y-153042500D03*
X194050000Y-153042500D03*
X194550000Y-153042500D03*
X195050000Y-153042500D03*
X195050000Y-151242500D03*
X194550000Y-151242500D03*
X194050000Y-151242500D03*
X193550000Y-151242500D03*
D17*
X194300000Y-152142500D03*
%TD*%
D18*
%TO.C,C6*%
X193800000Y-157142500D03*
X195700000Y-157142500D03*
%TD*%
D19*
%TO.C,C16*%
X199200000Y-155142500D03*
X197300000Y-155142500D03*
%TD*%
D20*
%TO.C,C30*%
X158075000Y-131425000D03*
X158075000Y-125825000D03*
%TD*%
D21*
%TO.C,J2*%
X215000000Y-155700000D03*
X212500000Y-155700000D03*
%TD*%
D22*
%TO.C,C13*%
X162800000Y-135700000D03*
X164200000Y-135700000D03*
%TD*%
D23*
%TO.C,C10*%
X192200000Y-154747500D03*
X192200000Y-155707500D03*
%TD*%
D24*
%TO.C,C11*%
X190020000Y-154042500D03*
X190980000Y-154042500D03*
%TD*%
D25*
%TO.C,R11*%
X188175000Y-157000000D03*
X189825000Y-157000000D03*
%TD*%
D18*
%TO.C,C8*%
X179100000Y-138700000D03*
X181000000Y-138700000D03*
%TD*%
D26*
%TO.C,C20*%
X218225000Y-144000000D03*
X219775000Y-144000000D03*
%TD*%
D27*
%TO.C,J1*%
X210400000Y-136221000D03*
X210800000Y-128021000D03*
X211200000Y-136221000D03*
X211600000Y-128021000D03*
X212000000Y-136221000D03*
X212400000Y-128021000D03*
X212800000Y-136221000D03*
X213200000Y-128021000D03*
X213600000Y-136221000D03*
X214000000Y-128021000D03*
X214400000Y-136221000D03*
X214800000Y-128021000D03*
X215200000Y-136221000D03*
X215600000Y-128021000D03*
X216000000Y-136221000D03*
X216400000Y-128021000D03*
X220000000Y-136221000D03*
X220400000Y-128021000D03*
X220800000Y-136221000D03*
X221200000Y-128021000D03*
X221600000Y-136221000D03*
X222000000Y-128021000D03*
X222400000Y-136221000D03*
X222800000Y-128021000D03*
X223200000Y-136221000D03*
X223600000Y-128021000D03*
X224000000Y-136221000D03*
X224400000Y-128021000D03*
X224800000Y-136221000D03*
X225200000Y-128021000D03*
X225600000Y-136221000D03*
X226000000Y-128021000D03*
X226400000Y-136221000D03*
X226800000Y-128021000D03*
X227200000Y-136221000D03*
X227600000Y-128021000D03*
X228000000Y-136221000D03*
X228400000Y-128021000D03*
X228800000Y-136221000D03*
X229200000Y-128021000D03*
X229600000Y-136221000D03*
X230000000Y-128021000D03*
X230400000Y-136221000D03*
X230800000Y-128021000D03*
X231200000Y-136221000D03*
X231600000Y-128021000D03*
X232000000Y-136221000D03*
X232400000Y-128021000D03*
X232800000Y-136221000D03*
X233200000Y-128021000D03*
X233600000Y-136221000D03*
X234000000Y-128021000D03*
D28*
X207550000Y-135621000D03*
X236850000Y-135621000D03*
%TD*%
D25*
%TO.C,R19*%
X218175000Y-147000000D03*
X219825000Y-147000000D03*
%TD*%
D29*
%TO.C,J14*%
X204025000Y-82000000D03*
X204025000Y-81000000D03*
X204025000Y-80000000D03*
X204025000Y-79000000D03*
D30*
X201500000Y-83300000D03*
X201500000Y-77700000D03*
%TD*%
D31*
%TO.C,C31*%
X159675000Y-133660000D03*
X159675000Y-132700000D03*
%TD*%
D19*
%TO.C,C2*%
X189387500Y-129700000D03*
X187487500Y-129700000D03*
%TD*%
D32*
%TO.C,C3*%
X185900000Y-144700000D03*
X185900000Y-138475000D03*
%TD*%
D19*
%TO.C,C17*%
X199187500Y-153142500D03*
X197287500Y-153142500D03*
%TD*%
D33*
%TO.C,J7*%
X240200000Y-85820000D03*
D34*
X240200000Y-83320000D03*
X240200000Y-80820000D03*
X240200000Y-78320000D03*
%TD*%
D25*
%TO.C,R13*%
X213175000Y-147000000D03*
X214825000Y-147000000D03*
%TD*%
D24*
%TO.C,C26*%
X157040000Y-134200000D03*
X158000000Y-134200000D03*
%TD*%
D25*
%TO.C,R17*%
X218175000Y-150000000D03*
X219825000Y-150000000D03*
%TD*%
D35*
%TO.C,U6*%
X188450000Y-132125000D03*
X187500000Y-132125000D03*
X186550000Y-132125000D03*
X186550000Y-134400000D03*
X187500000Y-134400000D03*
X188450000Y-134400000D03*
%TD*%
D36*
%TO.C,L1*%
X193400000Y-147242500D03*
X197900000Y-147242500D03*
%TD*%
D37*
%TO.C,C18*%
X184710000Y-149650000D03*
X183750000Y-149650000D03*
%TD*%
D38*
%TO.C,D3*%
X187212500Y-127000000D03*
X188787500Y-127000000D03*
%TD*%
D25*
%TO.C,R2*%
X199175000Y-127000000D03*
X200825000Y-127000000D03*
%TD*%
D39*
%TO.C,U1*%
X195280000Y-140650000D03*
X196550000Y-140650000D03*
X197820000Y-140650000D03*
X199090000Y-140650000D03*
X199090000Y-133650000D03*
X197820000Y-133650000D03*
X196550000Y-133650000D03*
X195280000Y-133650000D03*
%TD*%
D24*
%TO.C,C25*%
X157040000Y-135500000D03*
X158000000Y-135500000D03*
%TD*%
D26*
%TO.C,C1*%
X213225000Y-144000000D03*
X214775000Y-144000000D03*
%TD*%
D11*
%TO.C,R16*%
X192200000Y-153067500D03*
X192200000Y-152047500D03*
%TD*%
D26*
%TO.C,C19*%
X223225000Y-156000000D03*
X224775000Y-156000000D03*
%TD*%
D18*
%TO.C,C7*%
X179112500Y-141100000D03*
X181012500Y-141100000D03*
%TD*%
D40*
%TO.C,CR1*%
X234750000Y-157850000D03*
X234750000Y-156900000D03*
X234750000Y-155950000D03*
X232450000Y-155950000D03*
X232450000Y-156900000D03*
X232450000Y-157850000D03*
%TD*%
D41*
%TO.C,R15*%
X189990000Y-153042500D03*
X191010000Y-153042500D03*
%TD*%
D42*
%TO.C,R12*%
X187310000Y-136100000D03*
X186290000Y-136100000D03*
%TD*%
D43*
%TO.C,J6*%
X153960000Y-156240000D03*
D44*
X153960000Y-153700000D03*
X156500000Y-156240000D03*
X156500000Y-153700000D03*
X159040000Y-156240000D03*
X159040000Y-153700000D03*
%TD*%
D25*
%TO.C,R3*%
X194175000Y-130000000D03*
X195825000Y-130000000D03*
%TD*%
D19*
%TO.C,C15*%
X199200000Y-157142500D03*
X197300000Y-157142500D03*
%TD*%
D45*
%TO.C,C24*%
X153450000Y-138200000D03*
X155550000Y-138200000D03*
%TD*%
D19*
%TO.C,C14*%
X199200000Y-151142500D03*
X197300000Y-151142500D03*
%TD*%
D37*
%TO.C,C9*%
X184700000Y-151100000D03*
X183740000Y-151100000D03*
%TD*%
D25*
%TO.C,R18*%
X218175000Y-140000000D03*
X219825000Y-140000000D03*
%TD*%
D20*
%TO.C,C28*%
X165275000Y-132750000D03*
X165275000Y-127150000D03*
%TD*%
D46*
%TO.C,R14*%
X191600000Y-149947500D03*
X191600000Y-150967500D03*
%TD*%
D47*
%TO.C,C27*%
X153000000Y-143200000D03*
X153000000Y-148800000D03*
%TD*%
D26*
%TO.C,C21*%
X228225000Y-157000000D03*
X229775000Y-157000000D03*
%TD*%
D48*
%TO.C,MC1*%
X210100000Y-84871000D03*
X234300000Y-84871000D03*
X210100000Y-78571000D03*
X234300000Y-78571000D03*
%TD*%
D24*
%TO.C,C29*%
X166900000Y-134100000D03*
X167860000Y-134100000D03*
%TD*%
D49*
%TO.C,Module1*%
X195500000Y-121500000D03*
X195500000Y-73500000D03*
X162500000Y-121500000D03*
X162500000Y-73500000D03*
D50*
X197540000Y-104800000D03*
X194460000Y-104800000D03*
X197540000Y-104400000D03*
X194460000Y-104400000D03*
X197540000Y-104000000D03*
X194460000Y-104000000D03*
X197540000Y-103600000D03*
X194460000Y-103600000D03*
X197540000Y-103200000D03*
X194460000Y-103200000D03*
X197540000Y-102800000D03*
X194460000Y-102800000D03*
X197540000Y-102400000D03*
X194460000Y-102400000D03*
X197540000Y-102000000D03*
X194460000Y-102000000D03*
X197540000Y-101600000D03*
X194460000Y-101600000D03*
X197540000Y-101200000D03*
X194460000Y-101200000D03*
X197540000Y-100800000D03*
X194460000Y-100800000D03*
X197540000Y-100400000D03*
X194460000Y-100400000D03*
X197540000Y-100000000D03*
X194460000Y-100000000D03*
X197540000Y-99600000D03*
X194460000Y-99600000D03*
X197540000Y-99200000D03*
X194460000Y-99200000D03*
X197540000Y-98800000D03*
X194460000Y-98800000D03*
X197540000Y-98400000D03*
X194460000Y-98400000D03*
X197540000Y-98000000D03*
X194460000Y-98000000D03*
X197540000Y-97600000D03*
X194460000Y-97600000D03*
X197540000Y-97200000D03*
X194460000Y-97200000D03*
X197540000Y-96800000D03*
X194460000Y-96800000D03*
X197540000Y-96400000D03*
X194460000Y-96400000D03*
X197540000Y-96000000D03*
X194460000Y-96000000D03*
X197540000Y-95600000D03*
X194460000Y-95600000D03*
X197540000Y-95200000D03*
X194460000Y-95200000D03*
X197540000Y-94800000D03*
X194460000Y-94800000D03*
X197540000Y-94400000D03*
X194460000Y-94400000D03*
X197540000Y-94000000D03*
X194460000Y-94000000D03*
X197540000Y-93600000D03*
X194460000Y-93600000D03*
X197540000Y-93200000D03*
X194460000Y-93200000D03*
X197540000Y-92800000D03*
X194460000Y-92800000D03*
X197540000Y-92400000D03*
X194460000Y-92400000D03*
X197540000Y-92000000D03*
X194460000Y-92000000D03*
X197540000Y-91600000D03*
X194460000Y-91600000D03*
X197540000Y-91200000D03*
X194460000Y-91200000D03*
X197540000Y-90800000D03*
X194460000Y-90800000D03*
X197540000Y-90400000D03*
X194460000Y-90400000D03*
X197540000Y-90000000D03*
X194460000Y-90000000D03*
X197540000Y-89600000D03*
X194460000Y-89600000D03*
X197540000Y-89200000D03*
X194460000Y-89200000D03*
X197540000Y-88800000D03*
X194460000Y-88800000D03*
X197540000Y-88400000D03*
X194460000Y-88400000D03*
X197540000Y-88000000D03*
X194460000Y-88000000D03*
X197540000Y-87600000D03*
X194460000Y-87600000D03*
X197540000Y-87200000D03*
X194460000Y-87200000D03*
X197540000Y-86800000D03*
X194460000Y-86800000D03*
X197540000Y-86400000D03*
X194460000Y-86400000D03*
X197540000Y-86000000D03*
X194460000Y-86000000D03*
X197540000Y-85600000D03*
X194460000Y-85600000D03*
X197540000Y-85200000D03*
X194460000Y-85200000D03*
X163540000Y-104800000D03*
X160460000Y-104800000D03*
X163540000Y-104400000D03*
X160460000Y-104400000D03*
X163540000Y-104000000D03*
X160460000Y-104000000D03*
X163540000Y-103600000D03*
X160460000Y-103600000D03*
X163540000Y-103200000D03*
X160460000Y-103200000D03*
X163540000Y-102800000D03*
X160460000Y-102800000D03*
X163540000Y-102400000D03*
X160460000Y-102400000D03*
X163540000Y-102000000D03*
X160460000Y-102000000D03*
X163540000Y-101600000D03*
X160460000Y-101600000D03*
X163540000Y-101200000D03*
X160460000Y-101200000D03*
X163540000Y-100800000D03*
X160460000Y-100800000D03*
X163540000Y-100400000D03*
X160460000Y-100400000D03*
X163540000Y-100000000D03*
X160460000Y-100000000D03*
X163540000Y-99600000D03*
X160460000Y-99600000D03*
X163540000Y-99200000D03*
X160460000Y-99200000D03*
X163540000Y-98800000D03*
X160460000Y-98800000D03*
X163540000Y-98400000D03*
X160460000Y-98400000D03*
X163540000Y-98000000D03*
X160460000Y-98000000D03*
X163540000Y-97600000D03*
X160460000Y-97600000D03*
X163540000Y-97200000D03*
X160460000Y-97200000D03*
X163540000Y-96800000D03*
X160460000Y-96800000D03*
X163540000Y-96400000D03*
X160460000Y-96400000D03*
X163540000Y-96000000D03*
X160460000Y-96000000D03*
X163540000Y-95600000D03*
X160460000Y-95600000D03*
X163540000Y-95200000D03*
X160460000Y-95200000D03*
X163540000Y-94800000D03*
X160460000Y-94800000D03*
X163540000Y-94400000D03*
X160460000Y-94400000D03*
X163540000Y-94000000D03*
X160460000Y-94000000D03*
X163540000Y-93600000D03*
X160460000Y-93600000D03*
X163540000Y-93200000D03*
X160460000Y-93200000D03*
X163540000Y-92800000D03*
X160460000Y-92800000D03*
X163540000Y-92400000D03*
X160460000Y-92400000D03*
X163540000Y-92000000D03*
X160460000Y-92000000D03*
X163540000Y-91600000D03*
X160460000Y-91600000D03*
X163540000Y-91200000D03*
X160460000Y-91200000D03*
X163540000Y-90800000D03*
X160460000Y-90800000D03*
X163540000Y-90400000D03*
X160460000Y-90400000D03*
X163540000Y-90000000D03*
X160460000Y-90000000D03*
X163540000Y-89600000D03*
X160460000Y-89600000D03*
X163540000Y-89200000D03*
X160460000Y-89200000D03*
X163540000Y-88800000D03*
X160460000Y-88800000D03*
X163540000Y-88400000D03*
X160460000Y-88400000D03*
X163540000Y-88000000D03*
X160460000Y-88000000D03*
X163540000Y-87600000D03*
X160460000Y-87600000D03*
X163540000Y-87200000D03*
X160460000Y-87200000D03*
X163540000Y-86800000D03*
X160460000Y-86800000D03*
X163540000Y-86400000D03*
X160460000Y-86400000D03*
X163540000Y-86000000D03*
X160460000Y-86000000D03*
X163540000Y-85600000D03*
X160460000Y-85600000D03*
X163540000Y-85200000D03*
X160460000Y-85200000D03*
%TD*%
D51*
%TO.C,J5*%
X174930000Y-151600000D03*
X172430000Y-151600000D03*
X170430000Y-151600000D03*
X167930000Y-151600000D03*
X167430000Y-153100000D03*
X169430000Y-153100000D03*
X171430000Y-153100000D03*
X173430000Y-153100000D03*
X175430000Y-153100000D03*
D52*
X178000000Y-151700000D03*
X164860000Y-151700000D03*
%TD*%
D53*
%TO.C,J4*%
X226775000Y-143040000D03*
X226775000Y-145580000D03*
X226775000Y-148120000D03*
X226775000Y-141770000D03*
X226775000Y-144310000D03*
X226775000Y-146850000D03*
D54*
X228945000Y-152065000D03*
X228945000Y-139525000D03*
X230945000Y-152065000D03*
X230945000Y-139525000D03*
D55*
X240505000Y-151905000D03*
X240505000Y-139695000D03*
D56*
X239925000Y-143255000D03*
X239925000Y-148335000D03*
%TD*%
D24*
%TO.C,C23*%
X222520000Y-126000000D03*
X223480000Y-126000000D03*
%TD*%
D38*
%TO.C,D4*%
X202212500Y-157000000D03*
X203787500Y-157000000D03*
%TD*%
D18*
%TO.C,C4*%
X193800000Y-155142500D03*
X195700000Y-155142500D03*
%TD*%
D22*
%TO.C,C12*%
X161500000Y-135700000D03*
X160100000Y-135700000D03*
%TD*%
D26*
%TO.C,C5*%
X213225000Y-140000000D03*
X214775000Y-140000000D03*
%TD*%
D38*
%TO.C,D6*%
X199212500Y-130000000D03*
X200787500Y-130000000D03*
%TD*%
M02*
