M48
; DRILL file {KiCad 9.0.1} date 2025-05-16T02:44:54-0400
; FORMAT={-:-/ absolute / inch / decimal}
; #@! TF.CreationDate,2025-05-16T02:44:54-04:00
; #@! TF.GenerationSoftware,Kicad,Pcbnew,9.0.1
; #@! TF.FileFunction,Plated,1,4,PTH
FMAT,2
INCH
; #@! TA.AperFunction,Plated,PTH,ViaDrill
T1C0.0079
; #@! TA.AperFunction,Plated,PTH,ComponentDrill
T2C0.0079
; #@! TA.AperFunction,Plated,PTH,ComponentDrill
T3C0.0276
; #@! TA.AperFunction,Plated,PTH,ComponentDrill
T4C0.0420
; #@! TA.AperFunction,Plated,PTH,ComponentDrill
T5C0.0906
%
G90
G05
T1
X5.8283Y-3.7205
X5.9409Y-4.1909
X6.0248Y-3.7657
X6.1815Y-3.9193
X6.1827Y-5.3346
X6.2134Y-3.539
X6.2343Y-3.9906
X6.272Y-4.1839
X6.2776Y-4.1642
X6.2783Y-4.202
X6.2795Y-4.2213
X6.2799Y-4.1457
X6.2854Y-4.2406
X6.311Y-5.4104
X6.348Y-5.7976
X6.4071Y-4.0854
X6.4764Y-5.5591
X6.4768Y-4.2043
X6.4878Y-3.6681
X6.5157Y-5.3425
X6.5575Y-3.7843
X6.5953Y-5.4728
X7.4606Y-5.3031
X7.5079Y-5.9087
X7.5563Y-5.4657
X7.6917Y-4.3433
X7.7705Y-5.0215
X7.8472Y-3.5957
X8.0123Y-6.0011
X8.0143Y-5.8187
X8.0594Y-3.1921
X8.1047Y-3.1744
X8.2622Y-3.1744
X8.278Y-2.8516
X8.3094Y-2.8516
X8.4102Y-4.7976
X8.4988Y-5.3598
X8.5457Y-3.1744
X8.5839Y-5.6972
X8.5992Y-5.5516
X8.6388Y-5.3598
X8.8291Y-3.1744
X8.8418Y-5.3598
X8.8606Y-3.1744
X8.8665Y-5.5772
X8.8921Y-3.1744
X8.9236Y-3.1744
X8.9738Y-5.3618
X9.0181Y-3.1744
X9.1987Y-3.2619
T2
X6.3996Y-5.4606
X6.4173Y-5.4429
X6.4173Y-5.4783
X6.435Y-5.4606
T3
X6.5917Y-6.0276
X6.6114Y-5.9685
X6.6705Y-6.0276
X6.7098Y-5.9685
X6.7492Y-6.0276
X6.7886Y-5.9685
X6.828Y-6.0276
X6.887Y-5.9685
X6.9067Y-6.0276
T4
X6.0299Y-6.037
X6.0299Y-6.1551
X6.148Y-6.037
X6.148Y-6.1551
X6.2661Y-6.037
X6.2661Y-6.1551
X8.1583Y-5.7185
X8.1583Y-5.8366
X8.1583Y-5.9547
X8.1583Y-6.0728
X9.4334Y-3.1878
X9.4334Y-3.3059
X9.4334Y-3.424
X9.4334Y-3.5421
T5
X6.4906Y-5.9724
X7.0079Y-5.9724
M30
