%TF.GenerationSoftware,KiCad,Pcbnew,9.0.1*%
%TF.CreationDate,2025-05-27T22:41:42-05:00*%
%TF.ProjectId,CM5IO,434d3549-4f2e-46b6-9963-61645f706362,rev?*%
%TF.SameCoordinates,Original*%
%TF.FileFunction,Soldermask,Top*%
%TF.FilePolarity,Negative*%
%FSLAX46Y46*%
G04 Gerber Fmt 4.6, Leading zero omitted, Abs format (unit mm)*
G04 Created by KiCad (PCBNEW 9.0.1) date 2025-05-27 22:41:42*
%MOMM*%
%LPD*%
G01*
G04 APERTURE LIST*
G04 Aperture macros list*
%AMRoundRect*
0 Rectangle with rounded corners*
0 $1 Rounding radius*
0 $2 $3 $4 $5 $6 $7 $8 $9 X,Y pos of 4 corners*
0 Add a 4 corners polygon primitive as box body*
4,1,4,$2,$3,$4,$5,$6,$7,$8,$9,$2,$3,0*
0 Add four circle primitives for the rounded corners*
1,1,$1+$1,$2,$3*
1,1,$1+$1,$4,$5*
1,1,$1+$1,$6,$7*
1,1,$1+$1,$8,$9*
0 Add four rect primitives between the rounded corners*
20,1,$1+$1,$2,$3,$4,$5,0*
20,1,$1+$1,$4,$5,$6,$7,0*
20,1,$1+$1,$6,$7,$8,$9,0*
20,1,$1+$1,$8,$9,$2,$3,0*%
G04 Aperture macros list end*
%ADD10RoundRect,0.135000X0.185000X-0.135000X0.185000X0.135000X-0.185000X0.135000X-0.185000X-0.135000X0*%
%ADD11RoundRect,0.218750X0.218750X0.256250X-0.218750X0.256250X-0.218750X-0.256250X0.218750X-0.256250X0*%
%ADD12RoundRect,0.100000X-0.100000X0.225000X-0.100000X-0.225000X0.100000X-0.225000X0.100000X0.225000X0*%
%ADD13C,5.300000*%
%ADD14RoundRect,0.250000X0.450000X-0.350000X0.450000X0.350000X-0.450000X0.350000X-0.450000X-0.350000X0*%
%ADD15R,0.300000X0.500000*%
%ADD16R,1.750000X1.050000*%
%ADD17RoundRect,0.250000X-0.250000X-0.475000X0.250000X-0.475000X0.250000X0.475000X-0.250000X0.475000X0*%
%ADD18R,0.279400X1.409700*%
%ADD19RoundRect,0.250000X0.250000X0.475000X-0.250000X0.475000X-0.250000X-0.475000X0.250000X-0.475000X0*%
%ADD20C,1.574800*%
%ADD21RoundRect,0.140000X-0.170000X0.140000X-0.170000X-0.140000X0.170000X-0.140000X0.170000X0.140000X0*%
%ADD22RoundRect,0.140000X-0.140000X-0.170000X0.140000X-0.170000X0.140000X0.170000X-0.140000X0.170000X0*%
%ADD23RoundRect,0.159000X0.189000X-0.159000X0.189000X0.159000X-0.189000X0.159000X-0.189000X-0.159000X0*%
%ADD24RoundRect,0.225000X0.225000X0.250000X-0.225000X0.250000X-0.225000X-0.250000X0.225000X-0.250000X0*%
%ADD25RoundRect,0.076200X0.300000X1.000000X-0.300000X1.000000X-0.300000X-1.000000X0.300000X-1.000000X0*%
%ADD26RoundRect,0.076200X1.150000X1.600000X-1.150000X1.600000X-1.150000X-1.600000X1.150000X-1.600000X0*%
%ADD27RoundRect,0.200000X0.275000X-0.200000X0.275000X0.200000X-0.275000X0.200000X-0.275000X-0.200000X0*%
%ADD28RoundRect,0.150000X0.625000X-0.150000X0.625000X0.150000X-0.625000X0.150000X-0.625000X-0.150000X0*%
%ADD29RoundRect,0.250000X0.650000X-0.350000X0.650000X0.350000X-0.650000X0.350000X-0.650000X-0.350000X0*%
%ADD30RoundRect,0.250000X1.025000X-0.787500X1.025000X0.787500X-1.025000X0.787500X-1.025000X-0.787500X0*%
%ADD31RoundRect,0.159000X-0.189000X0.159000X-0.189000X-0.159000X0.189000X-0.159000X0.189000X0.159000X0*%
%ADD32RoundRect,0.200000X-0.200000X-0.275000X0.200000X-0.275000X0.200000X0.275000X-0.200000X0.275000X0*%
%ADD33RoundRect,0.250001X-0.499999X-0.759999X0.499999X-0.759999X0.499999X0.759999X-0.499999X0.759999X0*%
%ADD34O,1.500000X2.020000*%
%ADD35RoundRect,0.150000X-0.150000X0.512500X-0.150000X-0.512500X0.150000X-0.512500X0.150000X0.512500X0*%
%ADD36RoundRect,0.140000X0.140000X0.170000X-0.140000X0.170000X-0.140000X-0.170000X0.140000X-0.170000X0*%
%ADD37RoundRect,0.218750X-0.218750X-0.256250X0.218750X-0.256250X0.218750X0.256250X-0.218750X0.256250X0*%
%ADD38RoundRect,0.200000X-0.275000X0.200000X-0.275000X-0.200000X0.275000X-0.200000X0.275000X0.200000X0*%
%ADD39RoundRect,0.225000X-0.225000X-0.250000X0.225000X-0.250000X0.225000X0.250000X-0.225000X0.250000X0*%
%ADD40RoundRect,0.250001X0.499999X0.759999X-0.499999X0.759999X-0.499999X-0.759999X0.499999X-0.759999X0*%
%ADD41R,1.200000X0.600000*%
%ADD42RoundRect,0.135000X-0.135000X-0.185000X0.135000X-0.185000X0.135000X0.185000X-0.135000X0.185000X0*%
%ADD43RoundRect,0.135000X0.135000X0.185000X-0.135000X0.185000X-0.135000X-0.185000X0.135000X-0.185000X0*%
%ADD44RoundRect,0.200000X0.200000X0.275000X-0.200000X0.275000X-0.200000X-0.275000X0.200000X-0.275000X0*%
%ADD45RoundRect,0.135000X-0.185000X0.135000X-0.185000X-0.135000X0.185000X-0.135000X0.185000X0.135000X0*%
%ADD46RoundRect,0.225000X-0.250000X0.225000X-0.250000X-0.225000X0.250000X-0.225000X0.250000X0.225000X0*%
%ADD47R,4.800000X3.000000*%
%ADD48C,6.100000*%
%ADD49R,0.700000X0.200000*%
%ADD50C,1.000000*%
%ADD51C,2.500000*%
%ADD52RoundRect,0.076200X-0.575000X-0.325000X0.575000X-0.325000X0.575000X0.325000X-0.575000X0.325000X0*%
%ADD53RoundRect,0.076200X-0.650000X-0.225000X0.650000X-0.225000X0.650000X0.225000X-0.650000X0.225000X0*%
%ADD54RoundRect,0.076200X-0.850000X-0.700000X0.850000X-0.700000X0.850000X0.700000X-0.850000X0.700000X0*%
%ADD55RoundRect,0.076200X-0.400000X-0.270000X0.400000X-0.270000X0.400000X0.270000X-0.400000X0.270000X0*%
%ADD56R,2.950000X3.500000*%
G04 APERTURE END LIST*
D10*
%TO.C,R10*%
X152700000Y-102510000D03*
X152700000Y-101490000D03*
%TD*%
D11*
%TO.C,D2*%
X156237500Y-104500000D03*
X154662500Y-104500000D03*
%TD*%
%TO.C,D1*%
X152587500Y-104500000D03*
X151012500Y-104500000D03*
%TD*%
D10*
%TO.C,R1*%
X154900000Y-102510000D03*
X154900000Y-101490000D03*
%TD*%
D12*
%TO.C,U5*%
X155350000Y-97950000D03*
X154700000Y-97950000D03*
X154050000Y-97950000D03*
X154050000Y-99850000D03*
X155350000Y-99850000D03*
%TD*%
D13*
%TO.C,H2*%
X144974874Y-156225126D03*
%TD*%
%TO.C,H3*%
X144476540Y-71901700D03*
%TD*%
%TO.C,H6*%
X239800000Y-72400000D03*
%TD*%
%TO.C,H8*%
X240010000Y-156360000D03*
%TD*%
D14*
%TO.C,R5*%
X164970000Y-106780000D03*
X164970000Y-104780000D03*
%TD*%
D15*
%TO.C,U8*%
X193570348Y-142921960D03*
X194070348Y-142921960D03*
X194570348Y-142921960D03*
X195070348Y-142921960D03*
X195070348Y-141121960D03*
X194570348Y-141121960D03*
X194070348Y-141121960D03*
X193570348Y-141121960D03*
D16*
X194320348Y-142021960D03*
%TD*%
D17*
%TO.C,C6*%
X193350000Y-146800000D03*
X195250000Y-146800000D03*
%TD*%
D18*
%TO.C,U1*%
X159209998Y-135370000D03*
X159710000Y-135370000D03*
X160209999Y-135370000D03*
X160710000Y-135370000D03*
X161209999Y-135370000D03*
X161710001Y-135370000D03*
X162210000Y-135370000D03*
X162709999Y-135370000D03*
X163210001Y-135370000D03*
X163710000Y-135370000D03*
X164209999Y-135370000D03*
X164710000Y-135370000D03*
X165209999Y-135370000D03*
X165710001Y-135370000D03*
X166210000Y-135370000D03*
X166210000Y-129464500D03*
X165709998Y-129464500D03*
X165209999Y-129464500D03*
X164709998Y-129464500D03*
X164209999Y-129464500D03*
X163710000Y-129464500D03*
X163209998Y-129464500D03*
X162709999Y-129464500D03*
X162209997Y-129464500D03*
X161709998Y-129464500D03*
X161209999Y-129464500D03*
X160709998Y-129464500D03*
X160209999Y-129464500D03*
X159709997Y-129464500D03*
X159209998Y-129464500D03*
%TD*%
D19*
%TO.C,C16*%
X198748474Y-143650437D03*
X196848474Y-143650437D03*
%TD*%
D20*
%TO.C,J2*%
X207221301Y-154249999D03*
X207221301Y-151250000D03*
X207221301Y-148250000D03*
X207221301Y-145250001D03*
%TD*%
D21*
%TO.C,C10*%
X192090000Y-146460000D03*
X192090000Y-147420000D03*
%TD*%
D22*
%TO.C,C11*%
X190995254Y-145159888D03*
X191955254Y-145159888D03*
%TD*%
D23*
%TO.C,C12*%
X159860000Y-143750000D03*
X159860000Y-142750000D03*
%TD*%
D17*
%TO.C,C8*%
X179100000Y-138700000D03*
X181000000Y-138700000D03*
%TD*%
D24*
%TO.C,C20*%
X227934600Y-136189600D03*
X226384600Y-136189600D03*
%TD*%
D23*
%TO.C,C22*%
X156840000Y-143750000D03*
X156840000Y-142750000D03*
%TD*%
D25*
%TO.C,J1*%
X229460000Y-72430000D03*
X229060000Y-80630000D03*
X228660000Y-72430000D03*
X228260000Y-80630000D03*
X227860000Y-72430000D03*
X227460000Y-80630000D03*
X227060000Y-72430000D03*
X226660000Y-80630000D03*
X226260000Y-72430000D03*
X225860000Y-80630000D03*
X225460000Y-72430000D03*
X225060000Y-80630000D03*
X224660000Y-72430000D03*
X224260000Y-80630000D03*
X223860000Y-72430000D03*
X223460000Y-80630000D03*
X219860000Y-72430000D03*
X219460000Y-80630000D03*
X219060000Y-72430000D03*
X218660000Y-80630000D03*
X218260000Y-72430000D03*
X217860000Y-80630000D03*
X217460000Y-72430000D03*
X217060000Y-80630000D03*
X216660000Y-72430000D03*
X216260000Y-80630000D03*
X215860000Y-72430000D03*
X215460000Y-80630000D03*
X215060000Y-72430000D03*
X214660000Y-80630000D03*
X214260000Y-72430000D03*
X213860000Y-80630000D03*
X213460000Y-72430000D03*
X213060000Y-80630000D03*
X212660000Y-72430000D03*
X212260000Y-80630000D03*
X211860000Y-72430000D03*
X211460000Y-80630000D03*
X211060000Y-72430000D03*
X210660000Y-80630000D03*
X210260000Y-72430000D03*
X209860000Y-80630000D03*
X209460000Y-72430000D03*
X209060000Y-80630000D03*
X208660000Y-72430000D03*
X208260000Y-80630000D03*
X207860000Y-72430000D03*
X207460000Y-80630000D03*
X207060000Y-72430000D03*
X206660000Y-80630000D03*
X206260000Y-72430000D03*
X205860000Y-80630000D03*
D26*
X232310000Y-73030000D03*
X203010000Y-73030000D03*
%TD*%
D27*
%TO.C,R19*%
X216999600Y-145549000D03*
X216999600Y-143899000D03*
%TD*%
D28*
%TO.C,J14*%
X148030000Y-98320000D03*
X148030000Y-97320000D03*
X148030000Y-96320000D03*
X148030000Y-95320000D03*
D29*
X145505000Y-99620000D03*
X145505000Y-94020000D03*
%TD*%
D19*
%TO.C,C2*%
X189387500Y-129700000D03*
X187487500Y-129700000D03*
%TD*%
D30*
%TO.C,C3*%
X185900000Y-144700000D03*
X185900000Y-138475000D03*
%TD*%
D23*
%TO.C,C13*%
X161920000Y-143750000D03*
X161920000Y-142750000D03*
%TD*%
D19*
%TO.C,C17*%
X198735974Y-141650437D03*
X196835974Y-141650437D03*
%TD*%
D20*
%TO.C,J7*%
X239608699Y-80970001D03*
X239608699Y-83970000D03*
X239608699Y-86970000D03*
X239608699Y-89969999D03*
%TD*%
D23*
%TO.C,C27*%
X166940000Y-137920000D03*
X166940000Y-136920000D03*
%TD*%
%TO.C,C29*%
X164390000Y-137930000D03*
X164390000Y-136930000D03*
%TD*%
D31*
%TO.C,C30*%
X165240000Y-136920000D03*
X165240000Y-137920000D03*
%TD*%
D32*
%TO.C,R13*%
X222931000Y-136138800D03*
X224581000Y-136138800D03*
%TD*%
D31*
%TO.C,C28*%
X166090000Y-136920000D03*
X166090000Y-137920000D03*
%TD*%
D23*
%TO.C,C23*%
X158380000Y-143750000D03*
X158380000Y-142750000D03*
%TD*%
%TO.C,C25*%
X163590000Y-137930000D03*
X163590000Y-136930000D03*
%TD*%
D33*
%TO.C,J6*%
X152680000Y-154710000D03*
D34*
X155680000Y-154710000D03*
X158680000Y-154710000D03*
%TD*%
D32*
%TO.C,R17*%
X219425800Y-136138800D03*
X221075800Y-136138800D03*
%TD*%
D35*
%TO.C,U6*%
X188450000Y-132125000D03*
X187500000Y-132125000D03*
X186550000Y-132125000D03*
X186550000Y-134400000D03*
X187500000Y-134400000D03*
X188450000Y-134400000D03*
%TD*%
D36*
%TO.C,C18*%
X203570000Y-147820000D03*
X202610000Y-147820000D03*
%TD*%
D37*
%TO.C,D3*%
X187212500Y-127000000D03*
X188787500Y-127000000D03*
%TD*%
D38*
%TO.C,R2*%
X197370000Y-125895000D03*
X197370000Y-127545000D03*
%TD*%
D39*
%TO.C,C1*%
X219780600Y-148838800D03*
X221330600Y-148838800D03*
%TD*%
D40*
%TO.C,J3*%
X158700000Y-148020000D03*
D34*
X155700000Y-148020000D03*
X152700000Y-148020000D03*
%TD*%
D10*
%TO.C,R16*%
X192220348Y-142946960D03*
X192220348Y-141926960D03*
%TD*%
D39*
%TO.C,C19*%
X219526600Y-139186800D03*
X221076600Y-139186800D03*
%TD*%
D17*
%TO.C,C7*%
X179112500Y-141100000D03*
X181012500Y-141100000D03*
%TD*%
D41*
%TO.C,CR1*%
X221705600Y-145674000D03*
X221705600Y-144724000D03*
X221705600Y-143774000D03*
X219405600Y-143774000D03*
X219405600Y-144724000D03*
X219405600Y-145674000D03*
%TD*%
D42*
%TO.C,R15*%
X190965254Y-143999888D03*
X191985254Y-143999888D03*
%TD*%
D23*
%TO.C,C24*%
X161710000Y-137920000D03*
X161710000Y-136920000D03*
%TD*%
D43*
%TO.C,R12*%
X187310000Y-136100000D03*
X186290000Y-136100000D03*
%TD*%
D44*
%TO.C,R3*%
X235267807Y-79812722D03*
X233617807Y-79812722D03*
%TD*%
D19*
%TO.C,C15*%
X198748474Y-145650437D03*
X196848474Y-145650437D03*
%TD*%
%TO.C,C14*%
X198748474Y-139650437D03*
X196848474Y-139650437D03*
%TD*%
D36*
%TO.C,C9*%
X203520000Y-152450000D03*
X202560000Y-152450000D03*
%TD*%
D23*
%TO.C,C26*%
X162710000Y-137930000D03*
X162710000Y-136930000D03*
%TD*%
D32*
%TO.C,R18*%
X215869800Y-136138800D03*
X217519800Y-136138800D03*
%TD*%
D45*
%TO.C,R14*%
X193170000Y-138920000D03*
X193170000Y-139940000D03*
%TD*%
D46*
%TO.C,C21*%
X213850000Y-143949000D03*
X213850000Y-145499000D03*
%TD*%
D47*
%TO.C,MC1*%
X229760000Y-123780000D03*
X205560000Y-123780000D03*
X229760000Y-130080000D03*
X205560000Y-130080000D03*
%TD*%
D48*
%TO.C,Module1*%
X162500000Y-73500000D03*
X162500000Y-121500000D03*
X195500000Y-73500000D03*
X195500000Y-121500000D03*
D49*
X160460000Y-90200000D03*
X163540000Y-90200000D03*
X160460000Y-90600000D03*
X163540000Y-90600000D03*
X160460000Y-91000000D03*
X163540000Y-91000000D03*
X160460000Y-91400000D03*
X163540000Y-91400000D03*
X160460000Y-91800000D03*
X163540000Y-91800000D03*
X160460000Y-92200000D03*
X163540000Y-92200000D03*
X160460000Y-92600000D03*
X163540000Y-92600000D03*
X160460000Y-93000000D03*
X163540000Y-93000000D03*
X160460000Y-93400000D03*
X163540000Y-93400000D03*
X160460000Y-93800000D03*
X163540000Y-93800000D03*
X160460000Y-94200000D03*
X163540000Y-94200000D03*
X160460000Y-94600000D03*
X163540000Y-94600000D03*
X160460000Y-95000000D03*
X163540000Y-95000000D03*
X160460000Y-95400000D03*
X163540000Y-95400000D03*
X160460000Y-95800000D03*
X163540000Y-95800000D03*
X160460000Y-96200000D03*
X163540000Y-96200000D03*
X160460000Y-96600000D03*
X163540000Y-96600000D03*
X160460000Y-97000000D03*
X163540000Y-97000000D03*
X160460000Y-97400000D03*
X163540000Y-97400000D03*
X160460000Y-97800000D03*
X163540000Y-97800000D03*
X160460000Y-98200000D03*
X163540000Y-98200000D03*
X160460000Y-98600000D03*
X163540000Y-98600000D03*
X160460000Y-99000000D03*
X163540000Y-99000000D03*
X160460000Y-99400000D03*
X163540000Y-99400000D03*
X160460000Y-99800000D03*
X163540000Y-99800000D03*
X160460000Y-100200000D03*
X163540000Y-100200000D03*
X160460000Y-100600000D03*
X163540000Y-100600000D03*
X160460000Y-101000000D03*
X163540000Y-101000000D03*
X160460000Y-101400000D03*
X163540000Y-101400000D03*
X160460000Y-101800000D03*
X163540000Y-101800000D03*
X160460000Y-102200000D03*
X163540000Y-102200000D03*
X160460000Y-102600000D03*
X163540000Y-102600000D03*
X160460000Y-103000000D03*
X163540000Y-103000000D03*
X160460000Y-103400000D03*
X163540000Y-103400000D03*
X160460000Y-103800000D03*
X163540000Y-103800000D03*
X160460000Y-104200000D03*
X163540000Y-104200000D03*
X160460000Y-104600000D03*
X163540000Y-104600000D03*
X160460000Y-105000000D03*
X163540000Y-105000000D03*
X160460000Y-105400000D03*
X163540000Y-105400000D03*
X160460000Y-105800000D03*
X163540000Y-105800000D03*
X160460000Y-106200000D03*
X163540000Y-106200000D03*
X160460000Y-106600000D03*
X163540000Y-106600000D03*
X160460000Y-107000000D03*
X163540000Y-107000000D03*
X160460000Y-107400000D03*
X163540000Y-107400000D03*
X160460000Y-107800000D03*
X163540000Y-107800000D03*
X160460000Y-108200000D03*
X163540000Y-108200000D03*
X160460000Y-108600000D03*
X163540000Y-108600000D03*
X160460000Y-109000000D03*
X163540000Y-109000000D03*
X160460000Y-109400000D03*
X163540000Y-109400000D03*
X160460000Y-109800000D03*
X163540000Y-109800000D03*
X194460000Y-90200000D03*
X197540000Y-90200000D03*
X194460000Y-90600000D03*
X197540000Y-90600000D03*
X194460000Y-91000000D03*
X197540000Y-91000000D03*
X194460000Y-91400000D03*
X197540000Y-91400000D03*
X194460000Y-91800000D03*
X197540000Y-91800000D03*
X194460000Y-92200000D03*
X197540000Y-92200000D03*
X194460000Y-92600000D03*
X197540000Y-92600000D03*
X194460000Y-93000000D03*
X197540000Y-93000000D03*
X194460000Y-93400000D03*
X197540000Y-93400000D03*
X194460000Y-93800000D03*
X197540000Y-93800000D03*
X194460000Y-94200000D03*
X197540000Y-94200000D03*
X194460000Y-94600000D03*
X197540000Y-94600000D03*
X194460000Y-95000000D03*
X197540000Y-95000000D03*
X194460000Y-95400000D03*
X197540000Y-95400000D03*
X194460000Y-95800000D03*
X197540000Y-95800000D03*
X194460000Y-96200000D03*
X197540000Y-96200000D03*
X194460000Y-96600000D03*
X197540000Y-96600000D03*
X194460000Y-97000000D03*
X197540000Y-97000000D03*
X194460000Y-97400000D03*
X197540000Y-97400000D03*
X194460000Y-97800000D03*
X197540000Y-97800000D03*
X194460000Y-98200000D03*
X197540000Y-98200000D03*
X194460000Y-98600000D03*
X197540000Y-98600000D03*
X194460000Y-99000000D03*
X197540000Y-99000000D03*
X194460000Y-99400000D03*
X197540000Y-99400000D03*
X194460000Y-99800000D03*
X197540000Y-99800000D03*
X194460000Y-100200000D03*
X197540000Y-100200000D03*
X194460000Y-100600000D03*
X197540000Y-100600000D03*
X194460000Y-101000000D03*
X197540000Y-101000000D03*
X194460000Y-101400000D03*
X197540000Y-101400000D03*
X194460000Y-101800000D03*
X197540000Y-101800000D03*
X194460000Y-102200000D03*
X197540000Y-102200000D03*
X194460000Y-102600000D03*
X197540000Y-102600000D03*
X194460000Y-103000000D03*
X197540000Y-103000000D03*
X194460000Y-103400000D03*
X197540000Y-103400000D03*
X194460000Y-103800000D03*
X197540000Y-103800000D03*
X194460000Y-104200000D03*
X197540000Y-104200000D03*
X194460000Y-104600000D03*
X197540000Y-104600000D03*
X194460000Y-105000000D03*
X197540000Y-105000000D03*
X194460000Y-105400000D03*
X197540000Y-105400000D03*
X194460000Y-105800000D03*
X197540000Y-105800000D03*
X194460000Y-106200000D03*
X197540000Y-106200000D03*
X194460000Y-106600000D03*
X197540000Y-106600000D03*
X194460000Y-107000000D03*
X197540000Y-107000000D03*
X194460000Y-107400000D03*
X197540000Y-107400000D03*
X194460000Y-107800000D03*
X197540000Y-107800000D03*
X194460000Y-108200000D03*
X197540000Y-108200000D03*
X194460000Y-108600000D03*
X197540000Y-108600000D03*
X194460000Y-109000000D03*
X197540000Y-109000000D03*
X194460000Y-109400000D03*
X197540000Y-109400000D03*
X194460000Y-109800000D03*
X197540000Y-109800000D03*
%TD*%
D50*
%TO.C,J5*%
X174930000Y-151600000D03*
X172430000Y-151600000D03*
X170430000Y-151600000D03*
X167930000Y-151600000D03*
X167430000Y-153100000D03*
X169430000Y-153100000D03*
X171430000Y-153100000D03*
X173430000Y-153100000D03*
X175430000Y-153100000D03*
D51*
X178000000Y-151700000D03*
X164860000Y-151700000D03*
%TD*%
D52*
%TO.C,J4*%
X228145000Y-143188200D03*
X228145000Y-145728200D03*
X228145000Y-148268200D03*
X228145000Y-141918200D03*
X228145000Y-144458200D03*
X228145000Y-146998200D03*
D53*
X230315000Y-152213200D03*
X230315000Y-139673200D03*
X232315000Y-152213200D03*
X232315000Y-139673200D03*
D54*
X241875000Y-152053200D03*
X241875000Y-139843200D03*
D55*
X241295000Y-143403200D03*
X241295000Y-148483200D03*
%TD*%
D17*
%TO.C,C4*%
X193260000Y-144720000D03*
X195160000Y-144720000D03*
%TD*%
D39*
%TO.C,C5*%
X215919800Y-139136000D03*
X217469800Y-139136000D03*
%TD*%
D37*
%TO.C,D6*%
X233647807Y-82852722D03*
X235222807Y-82852722D03*
%TD*%
D56*
%TO.C,L1*%
X198660000Y-133550000D03*
X193210000Y-133550000D03*
%TD*%
M02*
