<svg width="77" height="33" viewBox="0 0 77 33" fill="none" xmlns="http://www.w3.org/2000/svg">
<path d="M29.1154 31.7087L28.1435 22.0262H21.8256L18.461 31.7087H14.4609L25.7135 1.50244H29.6762L33.0408 31.7087H29.1154ZM24.6668 13.7644L23.0219 18.4748H27.7696L27.321 14.1382C27.2463 13.4902 27.1715 12.7425 27.0967 11.8952C27.0219 11.0229 26.9472 10.1631 26.8724 9.31569C26.8226 8.44339 26.8101 7.68325 26.835 7.03526C26.6606 7.68325 26.4363 8.43093 26.1621 9.2783C25.9129 10.1257 25.6512 10.9481 25.3771 11.7456C25.1029 12.5432 24.8661 13.2161 24.6668 13.7644Z" fill="white"/>
<path d="M44.782 28.1572L44.296 31.7087H31.7723L35.9967 2.24811C36.2682 0.316791 39.3836 0.754405 39.3836 2.68631L35.9967 28.1572H44.782Z" fill="white"/>
<path d="M56.9592 31.7087L56.6027 28.1572L55.9872 22.0262H49.6693L47.5389 28.1572L46.3048 31.7087H42.3047L53.5573 1.50244H57.52L59.5451 19.6837L59.9987 23.7564L60.6985 30.0389L60.8845 31.7087H56.9592ZM52.5105 13.7644L50.8656 18.4748H55.6134L55.1648 14.1382C55.09 13.4902 55.0152 12.7425 54.9405 11.8952C54.8657 11.0229 54.7909 10.1631 54.7162 9.31569C54.6663 8.44339 54.6539 7.68325 54.6788 7.03526C54.5043 7.68325 54.28 8.43093 54.0059 9.2783C53.7566 10.1257 53.4949 10.9481 53.2208 11.7456C52.9467 12.5432 52.7099 13.2161 52.5105 13.7644Z" fill="white"/>
<path d="M61.3156 23.5778C62.0945 25.1355 62.7526 26.3628 63.4006 27.26C64.0735 28.1572 64.9832 28.6058 66.1297 28.6058C66.977 28.6058 67.7372 28.2818 68.4101 27.6338C69.1079 26.9858 69.5814 26.1385 69.8307 25.0917C70.1297 23.9453 70.1048 22.8985 69.7559 21.9515C69.407 20.9795 68.8836 20.0574 68.1858 19.1851C67.5129 18.2878 66.7652 17.4031 65.9427 16.5308C65.1452 15.6585 64.41 14.7364 63.7371 13.7644C63.0891 12.7675 62.628 11.6833 62.3539 10.512C62.1047 9.34061 62.167 8.01971 62.5408 6.54928C62.9894 4.85454 63.8492 3.53363 65.1203 2.58657C66.4163 1.61459 67.949 1.1286 69.7185 1.1286C71.8868 1.1286 73.5566 1.80151 74.728 3.14733C75.8993 4.49316 76.3853 6.32497 76.1859 8.64278L72.6345 8.82969C72.7092 7.53372 72.4849 6.51189 71.9616 5.76421C71.4631 5.01653 70.6905 4.64269 69.6437 4.64269C68.8213 4.64269 68.111 4.89192 67.5129 5.39037C66.9396 5.8639 66.5533 6.51189 66.354 7.33434C66.1047 8.43093 66.1546 9.4403 66.5035 10.3624C66.8524 11.2846 67.3633 12.1693 68.0362 13.0167C68.7092 13.8392 69.4319 14.6865 70.2045 15.5588C71.002 16.4062 71.7248 17.3159 72.3728 18.2878C73.0457 19.2349 73.5317 20.2941 73.8308 21.4655C74.1298 22.6119 74.1298 23.9204 73.8308 25.3908C73.5566 26.7117 73.0332 27.8831 72.2606 28.9049C71.488 29.9018 70.541 30.6744 69.4194 31.2227C68.3229 31.7959 67.1141 32.0825 65.7932 32.0825C65.3049 32.0825 64.8396 32.0471 64.3974 31.9762C62.9006 31.7364 61.6676 31.0906 60.6985 30.0389C60.6387 29.974 60.5799 29.9075 60.5221 29.8395C59.2759 28.3192 58.6903 26.3129 58.765 23.8207L59.9987 23.7564L61.3156 23.5778Z" fill="white"/>
<path d="M56.9592 31.7087L56.6027 28.1572H47.5389L46.3048 31.7087H56.9592Z" fill="white"/>
<path d="M60.6985 30.0389L60.8845 31.7087L64.3974 31.9762C62.9006 31.7364 61.6676 31.0906 60.6985 30.0389Z" fill="white"/>
<path d="M59.9987 23.7564L61.3156 23.5778L59.5451 19.6837L59.9987 23.7564Z" fill="white"/>
<path d="M16.2133 20.8017C16.2133 19.8339 15.4287 19.0493 14.4609 19.0493C13.4931 19.0493 12.7086 19.8339 12.7086 20.8017H16.2133ZM16.2133 31.7053V20.8017H12.7086V31.7053H16.2133Z" fill="white"/>
<path d="M16.2133 7.35913C16.2133 6.39132 15.4287 5.60676 14.4609 5.60676C13.4931 5.60676 12.7086 6.39132 12.7086 7.35913H16.2133ZM12.7086 7.35913V13.5898H16.2133V7.35913H12.7086Z" fill="white"/>
<path d="M9.98284 2.10969C9.98284 1.14188 9.19828 0.357311 8.23047 0.357311C7.26266 0.357311 6.4781 1.14188 6.4781 2.10969H9.98284ZM9.98284 31.7053L9.98284 2.10969H6.4781L6.4781 31.7053H9.98284Z" fill="white"/>
<path d="M3.75237 9.89801C3.75237 8.9302 2.96781 8.14564 2 8.14564C1.03219 8.14564 0.247627 8.9302 0.247627 9.89801H3.75237ZM3.75237 31.7053L3.75237 9.89801H0.247627L0.247627 31.7053H3.75237Z" fill="white"/>
<path d="M3.75237 2.68628C3.75237 1.71847 2.96781 0.933906 2 0.933906C1.03219 0.933906 0.247627 1.71847 0.247627 2.68628H3.75237ZM0.247627 2.68628L0.247627 5.80161H3.75237V2.68628H0.247627Z" fill="white"/>
</svg>
